<svg width="373" height="218" viewBox="0 0 373 218" fill="none" xmlns="http://www.w3.org/2000/svg">
<path d="M93.8 175.9C100.8 175.9 107.1 174.3 112.7 171.1C118.3 167.7 123.1 163.1 127.1 157.3C131.1 151.3 134.1 144.3 136.1 136.3C138.3 128.1 139.4 119.2 139.4 109.6V109C139.4 99.4 138.3 90.6 136.1 82.6C133.9 74.4 130.7 67.3 126.5 61.3C122.5 55.3 117.6 50.6 111.8 47.2C106.2 43.8 100 42.1 93.2 42.1C86.2 42.1 79.9 43.8 74.3 47.2C68.7 50.4 63.9 55 59.9 61C56.1 66.8 53.1 73.8 50.9 82C48.7 90 47.6 98.8 47.6 108.4V109C47.6 118.6 48.7 127.5 50.9 135.7C53.1 143.9 56.2 151 60.2 157C64.2 162.8 69 167.4 74.6 170.8C80.4 174.2 86.8 175.9 93.8 175.9ZM93.2 217.6C79.2 217.6 66.4 214.9 54.8 209.5C43.4 203.9 33.6 196.3 25.4 186.7C17.4 176.9 11.2 165.4 6.8 152.2C2.4 139 0.2 124.8 0.2 109.6V109C0.2 93.8 2.4 79.6 6.8 66.4C11.4 53.2 17.8 41.7 26 31.9C34.2 22.1 44 14.4 55.4 8.8C67 3.2 79.8 0.399996 93.8 0.399996C107.6 0.399996 120.2 3.2 131.6 8.8C143.2 14.2 153 21.8 161 31.6C169.2 41.2 175.5 52.6 179.9 65.8C184.5 79 186.8 93.2 186.8 108.4V109C186.8 124.2 184.5 138.4 179.9 151.6C175.5 164.8 169.2 176.3 161 186.1C152.8 195.9 142.9 203.6 131.3 209.2C119.9 214.8 107.2 217.6 93.2 217.6ZM296.441 217.6C277.441 217.6 261.241 214.3 247.841 207.7C234.641 200.9 223.541 192.1 214.541 181.3L246.341 151C253.541 159.2 261.041 165.5 268.841 169.9C276.841 174.1 286.241 176.2 297.041 176.2C305.841 176.2 312.941 173.9 318.341 169.3C323.941 164.7 326.741 158.5 326.741 150.7V150.1C326.741 141.5 323.141 134.9 315.941 130.3C308.741 125.7 298.641 123.4 285.641 123.4H266.441L259.241 94L309.341 43.6H226.841V3.99999H368.741V38.8L315.641 89.5C322.841 90.7 329.741 92.6 336.341 95.2C343.141 97.8 349.141 101.4 354.341 106C359.741 110.6 364.041 116.4 367.241 123.4C370.441 130.2 372.041 138.5 372.041 148.3V148.9C372.041 158.9 370.241 168.1 366.641 176.5C363.241 184.7 358.241 191.9 351.641 198.1C345.241 204.3 337.341 209.1 327.941 212.5C318.541 215.9 308.041 217.6 296.441 217.6Z" fill="white" fill-opacity="0.4"/>
</svg>
