<svg width="155" height="155" viewBox="0 0 155 155" fill="none" xmlns="http://www.w3.org/2000/svg">
<circle cx="77.5" cy="77.5" r="72.5" stroke="white" stroke-opacity="0.48" stroke-width="10"/>
<mask id="path-2-inside-1_59_308" fill="white">
<path d="M77.5 4.89368C77.5 2.19098 75.3063 -0.0161036 72.609 0.154366C54.2524 1.31449 36.844 8.97577 23.5605 21.8513C9.10201 35.8657 0.665622 54.9572 0.037693 75.0832C-0.590236 95.2092 6.6396 114.789 20.1963 129.678C33.753 144.566 52.5721 153.594 72.6687 154.849C92.7654 156.105 112.562 149.489 127.866 136.403C143.17 123.317 152.78 104.789 154.661 84.741C156.542 64.6933 150.547 44.7004 137.945 28.9958C126.367 14.5674 110.047 4.79946 91.9775 1.36414C89.3224 0.859348 86.8711 2.7763 86.5348 5.458V5.458C86.1985 8.1397 88.105 10.5684 90.7555 11.0974C106.302 14.2001 120.325 22.6767 130.311 35.1214C141.322 48.8427 146.56 66.3107 144.916 83.8266C143.273 101.342 134.876 117.531 121.505 128.964C108.134 140.397 90.8375 146.178 73.2789 145.081C55.7202 143.984 39.2777 136.097 27.4331 123.088C15.5885 110.08 9.27167 92.9727 9.8203 75.3884C10.3689 57.8041 17.7399 41.1236 30.3724 28.8791C41.8296 17.7738 56.799 11.1082 72.6104 9.96401C75.3061 9.76894 77.5 7.59639 77.5 4.89368V4.89368Z"/>
</mask>
<path d="M77.5 4.89368C77.5 2.19098 75.3063 -0.0161036 72.609 0.154366C54.2524 1.31449 36.844 8.97577 23.5605 21.8513C9.10201 35.8657 0.665622 54.9572 0.037693 75.0832C-0.590236 95.2092 6.6396 114.789 20.1963 129.678C33.753 144.566 52.5721 153.594 72.6687 154.849C92.7654 156.105 112.562 149.489 127.866 136.403C143.17 123.317 152.78 104.789 154.661 84.741C156.542 64.6933 150.547 44.7004 137.945 28.9958C126.367 14.5674 110.047 4.79946 91.9775 1.36414C89.3224 0.859348 86.8711 2.7763 86.5348 5.458V5.458C86.1985 8.1397 88.105 10.5684 90.7555 11.0974C106.302 14.2001 120.325 22.6767 130.311 35.1214C141.322 48.8427 146.56 66.3107 144.916 83.8266C143.273 101.342 134.876 117.531 121.505 128.964C108.134 140.397 90.8375 146.178 73.2789 145.081C55.7202 143.984 39.2777 136.097 27.4331 123.088C15.5885 110.08 9.27167 92.9727 9.8203 75.3884C10.3689 57.8041 17.7399 41.1236 30.3724 28.8791C41.8296 17.7738 56.799 11.1082 72.6104 9.96401C75.3061 9.76894 77.5 7.59639 77.5 4.89368V4.89368Z" stroke="white" stroke-width="64" mask="url(#path-2-inside-1_59_308)"/>
<path d="M40.55 73.65C42.45 73.65 43.9167 73.1667 44.95 72.2C46.0167 71.2 46.55 69.95 46.55 68.45V68.35C46.55 66.7833 46 65.5 44.9 64.5C43.8333 63.5 42.3333 63 40.4 63C38.5 63 37.0333 63.5 36 64.5C34.9667 65.4667 34.45 66.7333 34.45 68.3V68.4C34.45 69.9667 34.9833 71.2333 36.05 72.2C37.15 73.1667 38.65 73.65 40.55 73.65ZM39.1 92.6C36.5333 92.6 34.35 92.2167 32.55 91.45C30.75 90.6833 29.1 89.6833 27.6 88.45L31.65 82.6C32.9167 83.6333 34.1333 84.4 35.3 84.9C36.4667 85.3667 37.8 85.6 39.3 85.6C41.4667 85.6 43.1167 84.8667 44.25 83.4C45.4167 81.9333 46.1333 80.0167 46.4 77.65C45.5333 78.3833 44.5167 78.9667 43.35 79.4C42.1833 79.8333 40.8333 80.05 39.3 80.05C37.4 80.05 35.6833 79.8 34.15 79.3C32.6167 78.7667 31.3 78.0167 30.2 77.05C29.1 76.0833 28.25 74.9 27.65 73.5C27.0833 72.1 26.8 70.5167 26.8 68.75V68.65C26.8 66.8833 27.1167 65.25 27.75 63.75C28.4167 62.25 29.3333 60.9667 30.5 59.9C31.6667 58.8 33.0667 57.95 34.7 57.35C36.3667 56.7167 38.1833 56.4 40.15 56.4C41.3167 56.4 42.3667 56.4833 43.3 56.65C44.2667 56.7833 45.15 57 45.95 57.3C46.75 57.6 47.5 58 48.2 58.5C48.9 58.9667 49.5833 59.5333 50.25 60.2C50.8833 60.8333 51.45 61.55 51.95 62.35C52.45 63.15 52.8833 64.0833 53.25 65.15C53.6167 66.2167 53.9 67.4333 54.1 68.8C54.3 70.1333 54.4 71.6667 54.4 73.4V73.5C54.4 76.3333 54.0667 78.9333 53.4 81.3C52.7333 83.6333 51.75 85.6333 50.45 87.3C49.1833 88.9667 47.6 90.2667 45.7 91.2C43.8 92.1333 41.6 92.6 39.1 92.6ZM72.8555 86.15C74.7555 86.15 76.2388 85.7333 77.3055 84.9C78.3721 84.0667 78.9055 83.0333 78.9055 81.8V81.7C78.9055 80.3333 78.3388 79.2833 77.2055 78.55C76.0721 77.7833 74.6221 77.4 72.8555 77.4C71.0888 77.4 69.6388 77.7833 68.5055 78.55C67.3721 79.2833 66.8055 80.3333 66.8055 81.7V81.8C66.8055 83 67.3388 84.0333 68.4055 84.9C69.4721 85.7333 70.9555 86.15 72.8555 86.15ZM72.8555 71.3C74.3888 71.3 75.6055 70.9 76.5055 70.1C77.4055 69.3 77.8555 68.2833 77.8555 67.05V66.95C77.8555 65.8833 77.4221 64.9333 76.5555 64.1C75.6888 63.2667 74.4555 62.85 72.8555 62.85C71.2555 62.85 70.0221 63.2667 69.1555 64.1C68.2888 64.9 67.8555 65.8333 67.8555 66.9V67C67.8555 68.2333 68.3055 69.2667 69.2055 70.1C70.1055 70.9 71.3221 71.3 72.8555 71.3ZM72.8555 92.5C70.9221 92.5 69.1221 92.2667 67.4555 91.8C65.8221 91.3 64.4055 90.6167 63.2055 89.75C62.0055 88.85 61.0555 87.7833 60.3555 86.55C59.6888 85.3167 59.3555 83.9333 59.3555 82.4V82.3C59.3555 80.1667 59.8221 78.45 60.7555 77.15C61.7221 75.8167 63.1388 74.7167 65.0055 73.85C63.6388 73.0167 62.5555 72.0167 61.7555 70.85C60.9555 69.65 60.5555 68.1 60.5555 66.2V66.1C60.5555 64.7667 60.8388 63.5167 61.4055 62.35C62.0055 61.1833 62.8388 60.1667 63.9055 59.3C65.0055 58.4333 66.3055 57.75 67.8055 57.25C69.3055 56.75 70.9888 56.5 72.8555 56.5C74.6888 56.5 76.3555 56.75 77.8555 57.25C79.3888 57.75 80.6888 58.4333 81.7555 59.3C82.8555 60.1333 83.6888 61.15 84.2555 62.35C84.8555 63.5167 85.1555 64.7667 85.1555 66.1V66.2C85.1555 68.1 84.7555 69.65 83.9555 70.85C83.1555 72.0167 82.0721 73.0167 80.7055 73.85C82.4721 74.7833 83.8555 75.8833 84.8555 77.15C85.8555 78.3833 86.3555 80.0333 86.3555 82.1V82.2C86.3555 83.8333 86.0055 85.2833 85.3055 86.55C84.6388 87.8167 83.7055 88.9 82.5055 89.8C81.3055 90.6667 79.8721 91.3333 78.2055 91.8C76.5721 92.2667 74.7888 92.5 72.8555 92.5ZM120.9 87.85C121.966 87.85 122.766 87.4167 123.3 86.55C123.833 85.6833 124.1 84.6833 124.1 83.55V83.45C124.1 82.2833 123.8 81.2667 123.2 80.4C122.6 79.5 121.8 79.05 120.8 79.05C119.733 79.05 118.933 79.4833 118.4 80.35C117.866 81.1833 117.6 82.1833 117.6 83.35V83.45C117.6 84.6167 117.9 85.65 118.5 86.55C119.1 87.4167 119.9 87.85 120.9 87.85ZM99.3996 69.95C100.466 69.95 101.266 69.5167 101.8 68.65C102.333 67.7833 102.6 66.7833 102.6 65.65V65.55C102.6 64.3833 102.3 63.3667 101.7 62.5C101.1 61.6 100.3 61.15 99.2996 61.15C98.2329 61.15 97.4329 61.5833 96.8996 62.45C96.3663 63.2833 96.0996 64.2833 96.0996 65.45V65.55C96.0996 66.7167 96.3996 67.75 96.9996 68.65C97.5996 69.5167 98.3996 69.95 99.3996 69.95ZM120.8 92.4C119.533 92.4 118.383 92.1667 117.35 91.7C116.316 91.2333 115.416 90.6 114.65 89.8C113.916 89 113.35 88.0667 112.95 87C112.55 85.9333 112.35 84.7833 112.35 83.55V83.45C112.35 82.2167 112.55 81.0667 112.95 80C113.383 78.9 113.966 77.95 114.7 77.15C115.466 76.3167 116.366 75.6667 117.4 75.2C118.466 74.7333 119.633 74.5 120.9 74.5C122.166 74.5 123.316 74.7333 124.35 75.2C125.383 75.6667 126.266 76.3 127 77.1C127.766 77.9 128.35 78.8333 128.75 79.9C129.15 80.9667 129.35 82.1167 129.35 83.35V83.45C129.35 84.6833 129.133 85.85 128.7 86.95C128.3 88.0167 127.716 88.9667 126.95 89.8C126.216 90.6 125.316 91.2333 124.25 91.7C123.216 92.1667 122.066 92.4 120.8 92.4ZM119.9 57H125.85L100.3 92H94.3496L119.9 57ZM99.2996 74.5C98.0329 74.5 96.8829 74.2667 95.8496 73.8C94.8163 73.3333 93.9163 72.7 93.1496 71.9C92.4163 71.1 91.8496 70.1667 91.4496 69.1C91.0496 68.0333 90.8496 66.8833 90.8496 65.65V65.55C90.8496 64.3167 91.0496 63.1667 91.4496 62.1C91.8829 61 92.4663 60.05 93.1996 59.25C93.9663 58.4167 94.8663 57.7667 95.8996 57.3C96.9663 56.8333 98.1329 56.6 99.3996 56.6C100.666 56.6 101.816 56.8333 102.85 57.3C103.883 57.7667 104.766 58.4 105.5 59.2C106.266 60 106.85 60.9333 107.25 62C107.65 63.0667 107.85 64.2167 107.85 65.45V65.55C107.85 66.7833 107.633 67.95 107.2 69.05C106.8 70.1167 106.216 71.0667 105.45 71.9C104.716 72.7 103.816 73.3333 102.75 73.8C101.716 74.2667 100.566 74.5 99.2996 74.5Z" fill="white"/>
</svg>
