<svg width="42" height="42" viewBox="0 0 42 42" fill="none" xmlns="http://www.w3.org/2000/svg">
<circle cx="20.5837" cy="20.584" r="19.3337" stroke="white" stroke-opacity="0.48" stroke-width="2.5"/>
<mask id="path-2-inside-1_674_12" fill="white">
<path d="M1.21724 20.5837C0.544975 20.5837 -0.00375321 21.1292 0.0359732 21.8003C0.254793 25.4968 1.46758 29.0741 3.55667 32.1496C5.87423 35.5615 9.16334 38.1984 12.9976 39.7185C16.8318 41.2386 21.0342 41.5718 25.0601 40.6748C29.0859 39.7779 32.7495 37.6922 35.5757 34.6881C38.4019 31.684 40.2604 27.9002 40.9103 23.8271C41.5602 19.7541 40.9715 15.5797 39.2205 11.8453C37.4695 8.11089 34.637 4.98862 31.0902 2.88334C27.8931 0.985606 24.2485 -0.00687514 20.5456 2.58048e-05C19.8733 0.00127705 19.3623 0.582236 19.4033 1.25325C19.4443 1.92426 20.0218 2.43072 20.6941 2.4348C23.9095 2.45432 27.0701 3.32811 29.8476 4.9768C32.9749 6.83309 35.4724 9.58608 37.0163 12.8788C38.5602 16.1716 39.0793 19.8522 38.5063 23.4435C37.9332 27.0348 36.2945 30.3712 33.8026 33.0199C31.3106 35.6687 28.0804 37.5078 24.5307 38.2986C20.981 39.0895 17.2755 38.7958 13.8948 37.4554C10.5141 36.1151 7.61395 33.79 5.57049 30.7817C3.75557 28.1098 2.69075 25.0084 2.47527 21.8001C2.43022 21.1294 1.8895 20.5837 1.21724 20.5837Z"/>
</mask>
<path d="M1.21724 20.5837C0.544975 20.5837 -0.00375321 21.1292 0.0359732 21.8003C0.254793 25.4968 1.46758 29.0741 3.55667 32.1496C5.87423 35.5615 9.16334 38.1984 12.9976 39.7185C16.8318 41.2386 21.0342 41.5718 25.0601 40.6748C29.0859 39.7779 32.7495 37.6922 35.5757 34.6881C38.4019 31.684 40.2604 27.9002 40.9103 23.8271C41.5602 19.7541 40.9715 15.5797 39.2205 11.8453C37.4695 8.11089 34.637 4.98862 31.0902 2.88334C27.8931 0.985606 24.2485 -0.00687514 20.5456 2.58048e-05C19.8733 0.00127705 19.3623 0.582236 19.4033 1.25325C19.4443 1.92426 20.0218 2.43072 20.6941 2.4348C23.9095 2.45432 27.0701 3.32811 29.8476 4.9768C32.9749 6.83309 35.4724 9.58608 37.0163 12.8788C38.5602 16.1716 39.0793 19.8522 38.5063 23.4435C37.9332 27.0348 36.2945 30.3712 33.8026 33.0199C31.3106 35.6687 28.0804 37.5078 24.5307 38.2986C20.981 39.0895 17.2755 38.7958 13.8948 37.4554C10.5141 36.1151 7.61395 33.79 5.57049 30.7817C3.75557 28.1098 2.69075 25.0084 2.47527 21.8001C2.43022 21.1294 1.8895 20.5837 1.21724 20.5837Z" fill="white" stroke="#A66DFB" stroke-width="10" mask="url(#path-2-inside-1_674_12)"/>
<path d="M16.385 24.1C16.875 24.1 17.315 23.985 17.705 23.755C18.105 23.515 18.44 23.2 18.71 22.81C18.99 22.41 19.2 21.95 19.34 21.43C19.49 20.9 19.565 20.35 19.565 19.78V19.75C19.565 19.18 19.49 18.635 19.34 18.115C19.19 17.585 18.975 17.12 18.695 16.72C18.415 16.32 18.075 16 17.675 15.76C17.285 15.52 16.845 15.4 16.355 15.4C15.865 15.4 15.42 15.52 15.02 15.76C14.63 15.99 14.295 16.305 14.015 16.705C13.745 17.095 13.535 17.55 13.385 18.07C13.235 18.59 13.16 19.14 13.16 19.72V19.75C13.16 20.32 13.235 20.87 13.385 21.4C13.535 21.92 13.75 22.38 14.03 22.78C14.31 23.18 14.65 23.5 15.05 23.74C15.45 23.98 15.895 24.1 16.385 24.1ZM16.355 25.18C15.675 25.18 15.06 25.04 14.51 24.76C13.97 24.47 13.505 24.08 13.115 23.59C12.735 23.09 12.44 22.515 12.23 21.865C12.03 21.215 11.93 20.52 11.93 19.78V19.75C11.93 19.02 12.035 18.325 12.245 17.665C12.455 17.005 12.755 16.43 13.145 15.94C13.535 15.44 14 15.045 14.54 14.755C15.09 14.465 15.705 14.32 16.385 14.32C17.055 14.32 17.66 14.465 18.2 14.755C18.75 15.035 19.215 15.425 19.595 15.925C19.985 16.415 20.28 16.99 20.48 17.65C20.69 18.3 20.795 18.99 20.795 19.72V19.75C20.795 20.49 20.69 21.19 20.48 21.85C20.27 22.5 19.97 23.075 19.58 23.575C19.2 24.065 18.735 24.455 18.185 24.745C17.635 25.035 17.025 25.18 16.355 25.18ZM22.4427 24.085L26.2527 20.725C26.6527 20.365 26.9927 20.04 27.2727 19.75C27.5527 19.46 27.7777 19.19 27.9477 18.94C28.1177 18.68 28.2427 18.43 28.3227 18.19C28.4027 17.94 28.4427 17.685 28.4427 17.425C28.4427 17.115 28.3827 16.84 28.2627 16.6C28.1527 16.35 28.0027 16.14 27.8127 15.97C27.6227 15.79 27.3977 15.655 27.1377 15.565C26.8777 15.465 26.6077 15.415 26.3277 15.415C25.7277 15.415 25.2127 15.57 24.7827 15.88C24.3527 16.18 23.9277 16.625 23.5077 17.215L22.6377 16.585C22.8777 16.235 23.1227 15.92 23.3727 15.64C23.6227 15.36 23.8927 15.125 24.1827 14.935C24.4827 14.745 24.8127 14.6 25.1727 14.5C25.5427 14.4 25.9577 14.35 26.4177 14.35C26.8877 14.35 27.3227 14.425 27.7227 14.575C28.1227 14.725 28.4677 14.935 28.7577 15.205C29.0477 15.465 29.2727 15.775 29.4327 16.135C29.5927 16.495 29.6727 16.89 29.6727 17.32V17.35C29.6727 17.73 29.6177 18.085 29.5077 18.415C29.4077 18.735 29.2477 19.055 29.0277 19.375C28.8177 19.685 28.5427 20.005 28.2027 20.335C27.8727 20.665 27.4777 21.03 27.0177 21.43L24.2127 23.92H29.7777V25H22.4427V24.085Z" fill="white"/>
</svg>
