<svg xmlns="http://www.w3.org/2000/svg" width="39.118" height="94.097" viewBox="0 0 39.118 94.097"><defs><clipPath id="a" clipPathUnits="userSpaceOnUse"><path d="M-548.845 706.236h612v-792h-612Z"/></clipPath><clipPath id="b" clipPathUnits="userSpaceOnUse"><path d="M-207.035 241.008h612v-792h-612Z"/></clipPath><clipPath id="c" clipPathUnits="userSpaceOnUse"><path d="M-212.755 243.692h612v-792h-612Z"/></clipPath><clipPath id="e" clipPathUnits="userSpaceOnUse"><path d="M-223.959 241.355h612v-792h-612Z"/></clipPath><clipPath id="f" clipPathUnits="userSpaceOnUse"><path d="M-226.566 243.692h612v-792h-612Z"/></clipPath><clipPath id="g" clipPathUnits="userSpaceOnUse"><path d="M-214.318 270.001h612v-792h-612Z"/></clipPath><clipPath id="h" clipPathUnits="userSpaceOnUse"><path d="M-214.318 285.226h612v-792h-612Z"/></clipPath><clipPath id="i" clipPathUnits="userSpaceOnUse"><path d="M-205.187 270.527h612v-792h-612Z"/></clipPath><clipPath id="k" clipPathUnits="userSpaceOnUse"><path d="M-207.563 270.507h612v-792h-612Z"/></clipPath><clipPath id="l" clipPathUnits="userSpaceOnUse"><path d="M-209.327 272.825h612v-792h-612Z"/></clipPath><clipPath id="n" clipPathUnits="userSpaceOnUse"><path d="M-212.042 272.825h612v-792h-612Z"/></clipPath><clipPath id="p" clipPathUnits="userSpaceOnUse"><path d="M-224.609 273.12h612v-792h-612Z"/></clipPath><clipPath id="r" clipPathUnits="userSpaceOnUse"><path d="M-227.03 272.838h612v-792h-612Z"/></clipPath><clipPath id="s" clipPathUnits="userSpaceOnUse"><path d="M-229.57 272.825h612v-792h-612Z"/></clipPath><clipPath id="t" clipPathUnits="userSpaceOnUse"><path d="M-232.284 272.825h612v-792h-612Z"/></clipPath><clipPath id="u" clipPathUnits="userSpaceOnUse"><path d="M-205.04 285.967h612v-792h-612Z"/></clipPath><clipPath id="v" clipPathUnits="userSpaceOnUse"><path d="M-206.804 288.559h612v-792h-612Z"/></clipPath><clipPath id="w" clipPathUnits="userSpaceOnUse"><path d="M-209.327 288.265h612v-792h-612Z"/></clipPath><clipPath id="x" clipPathUnits="userSpaceOnUse"><path d="M-212.042 288.265h612v-792h-612Z"/></clipPath><clipPath id="y" clipPathUnits="userSpaceOnUse"><path d="M-224.609 288.559h612v-792h-612Z"/></clipPath><clipPath id="z" clipPathUnits="userSpaceOnUse"><path d="M-227.132 288.265h612v-792h-612Z"/></clipPath><clipPath id="A" clipPathUnits="userSpaceOnUse"><path d="M-229.847 288.265h612v-792h-612Z"/></clipPath><clipPath id="B" clipPathUnits="userSpaceOnUse"><path d="M-232.562 288.265h612v-792h-612Z"/></clipPath><path id="d" fill="#575756" d="M0 0q-.158 0-.296.041a.58.58 0 0 0-.393.361.9.9 0 0 0-.056.341v1.589h-.368v.353h.368v.795h.393v-.795h.837v-.353h-.837V.791q0-.244.123-.342A.5.5 0 0 1 .092.353a.8.8 0 0 1 .383.096V.112A.94.94 0 0 0 0 0"/><path id="j" fill="#575756" d="m0 0-.539-.167-.078.262.7.24h.239v-2.878H0Z"/><path id="m" fill="#575756" d="M0 0q.2 0 .361.096a.9.9 0 0 1 .274.257q.112.161.171.376.06.214.059.447v.008q0 .232-.061.447a1.3 1.3 0 0 1-.176.378.9.9 0 0 1-.275.261.7.7 0 0 1-.361.097.7.7 0 0 1-.362-.096.9.9 0 0 1-.273-.256 1.3 1.3 0 0 1-.174-.374 1.7 1.7 0 0 1-.061-.449v-.008q0-.233.061-.448.062-.213.176-.377A.9.9 0 0 1-.364.098.7.7 0 0 1 0 0m-.008-.294q-.278 0-.5.116a1.14 1.14 0 0 0-.38.319 1.5 1.5 0 0 0-.241.467 1.9 1.9 0 0 0-.084.568v.008q0 .298.086.567.086.27.245.472a1.2 1.2 0 0 0 .382.32q.221.118.5.118.274 0 .496-.116.223-.116.379-.318.158-.202.241-.469.084-.268.084-.566v-.008q0-.303-.086-.57A1.5 1.5 0 0 0 .872.145 1.2 1.2 0 0 0 .49-.176a1.05 1.05 0 0 0-.498-.118"/><path id="o" fill="#575756" d="M0 0q.2 0 .361.096a.9.9 0 0 1 .274.257q.112.161.171.376.06.214.059.447v.008q0 .232-.061.447a1.3 1.3 0 0 1-.176.378.9.9 0 0 1-.275.261.7.7 0 0 1-.361.097.7.7 0 0 1-.362-.096.9.9 0 0 1-.273-.256 1.3 1.3 0 0 1-.174-.374 1.7 1.7 0 0 1-.061-.449v-.008q0-.233.061-.448.062-.213.176-.377A.9.9 0 0 1-.364.098.7.7 0 0 1 0 0m-.008-.294q-.278 0-.5.116a1.14 1.14 0 0 0-.38.319 1.5 1.5 0 0 0-.241.467 1.9 1.9 0 0 0-.084.568v.008q0 .298.086.567.086.27.245.472a1.2 1.2 0 0 0 .382.32q.221.118.5.118.274 0 .496-.116t.379-.318.241-.469.084-.566v-.008q0-.303-.086-.57A1.5 1.5 0 0 0 .872.145 1.2 1.2 0 0 0 .49-.176a1.05 1.05 0 0 0-.498-.118"/><path id="q" fill="#575756" d="M0 0q-.306 0-.565.129a1.7 1.7 0 0 0-.456.324l.213.233q.187-.184.39-.289A.9.9 0 0 1 .004.294q.151 0 .28.049a.7.7 0 0 1 .218.133q.09.083.141.2a.6.6 0 0 1 .051.251v.008a.6.6 0 0 1-.053.245.6.6 0 0 1-.147.189.6.6 0 0 1-.224.123.9.9 0 0 1-.286.043q-.184 0-.329-.047a1.5 1.5 0 0 1-.271-.117l-.217.144.082 1.391H.892v-.298H-.469l-.062-.917a1.6 1.6 0 0 0 .256.091q.129.034.308.034.208 0 .388-.058a.9.9 0 0 0 .313-.172.8.8 0 0 0 .208-.274.9.9 0 0 0 .075-.367V.937A.95.95 0 0 0 .942.556.85.85 0 0 0 .734.259.9.9 0 0 0 .413.067 1.2 1.2 0 0 0 0 0"/><color-profile name="Coated FOGRA39 (ISO 12647-2:2004)"/></defs><g transform="translate(-272.565 -319.867)"><path fill="#9d9c9c" d="m0 0-.365 472.516-487.584.204v.976l488.577-.204-.017-.653L.977 0Z" clip-path="url(#a)" transform="matrix(1.33333 0 0 -1.33333 731.793 941.648)"/><path fill="#575756" d="M0 0h.393v-.444q.066.097.145.188a.9.9 0 0 0 .707.312.885.885 0 0 0 .847-.526q.071.108.161.204a1 1 0 0 0 .454.281q.14.04.314.041.46 0 .719-.284Q4-.51 4-1.006v-1.633h-.392v1.545q0 .383-.181.59-.182.208-.503.208a.7.7 0 0 1-.281-.055.64.64 0 0 1-.232-.158.8.8 0 0 1-.156-.258 1 1 0 0 1-.056-.347v-1.525h-.393v1.555q0 .373-.181.58a.63.63 0 0 1-.498.208.68.68 0 0 1-.523-.235.8.8 0 0 1-.155-.264 1 1 0 0 1-.056-.335v-1.509H0Z" clip-path="url(#b)" transform="matrix(1.33333 0 0 -1.33333 276.046 321.344)"/><use clip-path="url(#c)" href="#d" transform="matrix(1.33333 0 0 -1.33333 283.674 324.923)"/><path fill="#575756" d="M0 0h-.362v.342H0v.23q0 .449.229.679.205.204.567.204.138 0 .237-.016.1-.015.197-.05v-.342q-.108.03-.194.048a1 1 0 0 1-.189.017q-.459 0-.459-.56V.337h.837V0H.393v-2.291H0Z" clip-path="url(#e)" transform="matrix(1.33333 0 0 -1.33333 298.612 321.807)"/><use clip-path="url(#f)" href="#d" transform="matrix(1.33333 0 0 -1.33333 302.089 324.923)"/><path fill="#ffd200" fill-rule="evenodd" d="M0 0h7.655v-17.872H0Z" clip-path="url(#g)" transform="matrix(1.33333 0 0 -1.33333 285.758 360.002)"/><path fill="#ffecae" fill-rule="evenodd" d="M0 0h7.655v-25.247H0Z" clip-path="url(#h)" transform="matrix(1.33333 0 0 -1.33333 285.758 380.301)"/><use clip-path="url(#i)" href="#j" transform="matrix(1.33333 0 0 -1.33333 273.583 360.703)"/><path fill="#575756" d="M0 0h-1.571v.294H.368v-.24L-.931-2.563h-.359Z" clip-path="url(#k)" transform="matrix(1.33333 0 0 -1.33333 276.75 360.676)"/><use clip-path="url(#l)" href="#m" transform="matrix(1.33333 0 0 -1.33333 279.103 363.767)"/><use clip-path="url(#n)" href="#o" transform="matrix(1.33333 0 0 -1.33333 282.723 363.767)"/><use clip-path="url(#p)" href="#q" transform="matrix(1.33333 0 0 -1.33333 299.479 364.159)"/><path fill="#575756" d="M0 0q.159 0 .286.052.126.051.216.138.09.089.139.209A.7.7 0 0 1 .69.655v.009a.58.58 0 0 1-.194.438.78.78 0 0 1-.504.176.76.76 0 0 1-.519-.194.7.7 0 0 1-.145-.201.6.6 0 0 1-.051-.232V.644A.62.62 0 0 1-.292.05.8.8 0 0 1 0 0m-.004-.281q-.237 0-.427.077a1 1 0 0 0-.324.213 1.05 1.05 0 0 0-.266.42q-.045.13-.069.298a3 3 0 0 0-.025.388v.008q0 .327.08.61.08.284.233.493.153.208.373.328t.502.12q.258 0 .457-.085.2-.087.388-.241L.73 2.099a1.4 1.4 0 0 1-.318.208.85.85 0 0 1-.355.073.67.67 0 0 1-.366-.1.85.85 0 0 1-.263-.269 1.3 1.3 0 0 1-.159-.392 2 2 0 0 1-.053-.464v-.04q.142.21.339.327t.477.118q.2 0 .38-.062t.315-.176A.82.82 0 0 0 1.021.68V.672a.9.9 0 0 0-.296-.684Q.587-.138.4-.21a1.1 1.1 0 0 0-.404-.071" clip-path="url(#r)" transform="matrix(1.33333 0 0 -1.33333 302.707 363.784)"/><use clip-path="url(#s)" href="#m" transform="matrix(1.33333 0 0 -1.33333 306.092 363.767)"/><use clip-path="url(#t)" href="#m" transform="matrix(1.33333 0 0 -1.33333 309.712 363.767)"/><use clip-path="url(#u)" href="#j" transform="matrix(1.33333 0 0 -1.33333 273.387 381.29)"/><use clip-path="url(#v)" href="#q" transform="matrix(1.33333 0 0 -1.33333 275.738 384.745)"/><use clip-path="url(#w)" href="#m" transform="matrix(1.33333 0 0 -1.33333 279.103 384.353)"/><use clip-path="url(#x)" href="#o" transform="matrix(1.33333 0 0 -1.33333 282.723 384.353)"/><use clip-path="url(#y)" href="#q" transform="matrix(1.33333 0 0 -1.33333 299.479 384.745)"/><use clip-path="url(#z)" href="#m" transform="matrix(1.33333 0 0 -1.33333 302.843 384.353)"/><use clip-path="url(#A)" href="#m" transform="matrix(1.33333 0 0 -1.33333 306.463 384.353)"/><use clip-path="url(#B)" href="#m" transform="matrix(1.33333 0 0 -1.33333 310.083 384.353)"/></g></svg>