<svg xmlns="http://www.w3.org/2000/svg" width="40.596" height="94.097" viewBox="0 0 40.596 94.097"><defs><clipPath id="a" clipPathUnits="userSpaceOnUse"><path d="M-548.845 706.236h612v-792h-612Z"/></clipPath><clipPath id="b" clipPathUnits="userSpaceOnUse"><path d="M-157.022 241.008h612v-792h-612Z"/></clipPath><clipPath id="c" clipPathUnits="userSpaceOnUse"><path d="M-162.743 243.692h612v-792h-612Z"/></clipPath><clipPath id="e" clipPathUnits="userSpaceOnUse"><path d="M-173.908 241.355h612v-792h-612Z"/></clipPath><clipPath id="f" clipPathUnits="userSpaceOnUse"><path d="M-176.516 243.692h612v-792h-612Z"/></clipPath><clipPath id="g" clipPathUnits="userSpaceOnUse"><path d="M-164.268 247.426h612v-792h-612Z"/></clipPath><clipPath id="h" clipPathUnits="userSpaceOnUse"><path d="M0 792h612V0H0Z"/></clipPath><clipPath id="i" clipPathUnits="userSpaceOnUse"><path d="M-153.088 249.902h612v-792h-612Z"/></clipPath><clipPath id="j" clipPathUnits="userSpaceOnUse"><path d="M-156.6 249.906h612v-792h-612Z"/></clipPath><clipPath id="l" clipPathUnits="userSpaceOnUse"><path d="M-159.314 249.906h612v-792h-612Z"/></clipPath><clipPath id="m" clipPathUnits="userSpaceOnUse"><path d="M-162.03 249.906h612v-792h-612Z"/></clipPath><clipPath id="n" clipPathUnits="userSpaceOnUse"><path d="M-174.685 249.919h612v-792h-612Z"/></clipPath><clipPath id="o" clipPathUnits="userSpaceOnUse"><path d="M-176.995 250.2h612v-792h-612Z"/></clipPath><clipPath id="p" clipPathUnits="userSpaceOnUse"><path d="M-179.519 249.906h612v-792h-612Z"/></clipPath><clipPath id="q" clipPathUnits="userSpaceOnUse"><path d="M-182.233 249.906h612v-792h-612Z"/></clipPath><clipPath id="r" clipPathUnits="userSpaceOnUse"><path d="M-155.024 303.536h612v-792h-612Z"/></clipPath><clipPath id="s" clipPathUnits="userSpaceOnUse"><path d="M-156.82 306.128h612v-792h-612Z"/></clipPath><clipPath id="u" clipPathUnits="userSpaceOnUse"><path d="M-159.314 305.834h612v-792h-612Z"/></clipPath><clipPath id="v" clipPathUnits="userSpaceOnUse"><path d="M-162.03 305.834h612v-792h-612Z"/></clipPath><clipPath id="w" clipPathUnits="userSpaceOnUse"><path d="M-175.085 305.132h612v-792h-612Z"/></clipPath><clipPath id="x" clipPathUnits="userSpaceOnUse"><path d="M-177.126 306.128h612v-792h-612Z"/></clipPath><clipPath id="y" clipPathUnits="userSpaceOnUse"><path d="M-179.62 305.834h612v-792h-612Z"/></clipPath><clipPath id="z" clipPathUnits="userSpaceOnUse"><path d="M-182.335 305.834h612v-792h-612Z"/></clipPath><path id="d" fill="#575756" d="M0 0q-.158 0-.296.041a.58.58 0 0 0-.393.361.9.9 0 0 0-.056.341v1.589h-.368v.353h.368v.795h.393v-.795h.837v-.353h-.837V.791q0-.244.123-.342A.5.5 0 0 1 .092.353a.8.8 0 0 1 .383.096V.112A.94.94 0 0 0 0 0"/><path id="k" fill="#575756" d="M0 0q.2 0 .361.096a.9.9 0 0 1 .274.257q.112.161.171.376.06.214.059.447v.008q0 .232-.061.447a1.3 1.3 0 0 1-.176.378.9.9 0 0 1-.275.261.7.7 0 0 1-.361.097.7.7 0 0 1-.362-.096.9.9 0 0 1-.273-.256 1.3 1.3 0 0 1-.174-.374 1.7 1.7 0 0 1-.061-.449v-.008q0-.233.061-.448.062-.213.176-.377A.9.9 0 0 1-.364.098.7.7 0 0 1 0 0m-.008-.294q-.278 0-.5.116a1.14 1.14 0 0 0-.38.319 1.5 1.5 0 0 0-.241.467 1.9 1.9 0 0 0-.084.568v.008q0 .298.086.567.086.27.245.472a1.2 1.2 0 0 0 .382.32q.221.118.5.118.274 0 .496-.116.223-.116.379-.318.158-.202.241-.469.084-.268.084-.566v-.008q0-.303-.086-.57A1.5 1.5 0 0 0 .872.145 1.2 1.2 0 0 0 .49-.176a1.05 1.05 0 0 0-.498-.118"/><path id="t" fill="#575756" d="M0 0q-.359 0-.625.141a1.3 1.3 0 0 0-.44.369l.236.209q.163-.205.366-.315A.95.95 0 0 1 .249.333.57.57 0 0 1 .58.62a.5.5 0 0 1 .049.229v.008a.47.47 0 0 1-.225.409.8.8 0 0 1-.253.105 1.3 1.3 0 0 1-.322.037h-.184l-.065.193.902 1.015H-.915v.29H.907V2.67l-.895-.996q.189-.016.358-.07a1 1 0 0 0 .298-.151.7.7 0 0 0 .207-.243.7.7 0 0 0 .076-.341V.861A.83.83 0 0 0 .675.238 1 1 0 0 0 .374.063 1.1 1.1 0 0 0 0 0"/><color-profile name="Coated FOGRA39 (ISO 12647-2:2004)"/></defs><g transform="translate(-204.118 -319.867)"><path fill="#9d9c9c" d="m0 0-.365 472.516-487.584.204v.976l488.577-.204-.017-.653L.977 0Z" clip-path="url(#a)" transform="matrix(1.33333 0 0 -1.33333 731.793 941.648)"/><path fill="#575756" d="M0 0h.393v-.444q.066.097.145.188a.9.9 0 0 0 .707.312.885.885 0 0 0 .847-.526q.071.108.161.204a1 1 0 0 0 .454.281q.14.04.314.041.46 0 .719-.284Q4-.51 4-1.006v-1.633h-.392v1.545q0 .383-.181.59-.182.208-.503.208a.7.7 0 0 1-.281-.055.64.64 0 0 1-.232-.158.8.8 0 0 1-.156-.258 1 1 0 0 1-.056-.347v-1.525h-.393v1.555q0 .373-.181.58a.63.63 0 0 1-.498.208.68.68 0 0 1-.523-.235.8.8 0 0 1-.155-.264 1 1 0 0 1-.056-.335v-1.509H0Z" clip-path="url(#b)" transform="matrix(1.33333 0 0 -1.33333 209.363 321.344)"/><use clip-path="url(#c)" href="#d" transform="matrix(1.33333 0 0 -1.33333 216.99 324.923)"/><path fill="#575756" d="M0 0h-.362v.342H0v.23q0 .449.229.679.205.204.567.204.138 0 .237-.016.1-.015.197-.05v-.342q-.108.03-.194.048a1 1 0 0 1-.189.017q-.459 0-.459-.56V.337h.837V0H.393v-2.291H0Z" clip-path="url(#e)" transform="matrix(1.33333 0 0 -1.33333 231.878 321.807)"/><use clip-path="url(#f)" href="#d" transform="matrix(1.33333 0 0 -1.33333 235.354 324.923)"/><path fill="#e67a06" fill-rule="evenodd" d="M0 0h7.655v-63.048H0Z" clip-path="url(#g)" transform="matrix(1.33333 0 0 -1.33333 219.024 329.9)"/><path fill="#f6d2ac" fill-rule="evenodd" d="M164.268 489.093h7.655v-7.566h-7.655z" clip-path="url(#h)" transform="matrix(1.33333 0 0 -1.33333 0 1056)"/><path fill="#575756" d="m0 0 1.037.914a6 6 0 0 1 .278.266q.114.118.184.222.068.105.102.204a.7.7 0 0 1 .032.206.52.52 0 0 1-.171.399.6.6 0 0 1-.184.11.6.6 0 0 1-.22.038.7.7 0 0 1-.421-.124A1.5 1.5 0 0 1 .29 1.87l-.237.171q.098.144.2.258t.223.191q.12.078.269.118.15.042.337.041.192 0 .355-.061a.9.9 0 0 0 .282-.169.78.78 0 0 0 .249-.578v-.008a.92.92 0 0 0-.174-.549 1.7 1.7 0 0 0-.224-.263 6 6 0 0 0-.325-.298L.482.045h1.515v-.294H0Z" clip-path="url(#i)" transform="matrix(1.33333 0 0 -1.33333 204.118 333.203)"/><use clip-path="url(#j)" href="#k" transform="matrix(1.33333 0 0 -1.33333 208.8 333.208)"/><use clip-path="url(#l)" href="#k" transform="matrix(1.33333 0 0 -1.33333 212.42 333.208)"/><use clip-path="url(#m)" href="#k" transform="matrix(1.33333 0 0 -1.33333 216.04 333.208)"/><path fill="#575756" d="M0 0q.159 0 .286.052.126.051.216.138.09.089.139.209A.7.7 0 0 1 .69.655v.009a.58.58 0 0 1-.194.438.78.78 0 0 1-.504.176.76.76 0 0 1-.519-.194.7.7 0 0 1-.145-.201.6.6 0 0 1-.051-.232V.644A.62.62 0 0 1-.292.05.8.8 0 0 1 0 0m-.004-.281q-.237 0-.427.077a1 1 0 0 0-.324.213 1.05 1.05 0 0 0-.266.42q-.045.13-.069.298a3 3 0 0 0-.025.388v.008q0 .327.08.61.08.284.233.493.153.208.373.328t.502.12q.258 0 .457-.085.2-.087.388-.241L.73 2.099a1.4 1.4 0 0 1-.318.208.85.85 0 0 1-.355.073.67.67 0 0 1-.366-.1.85.85 0 0 1-.263-.269 1.3 1.3 0 0 1-.159-.392 2 2 0 0 1-.053-.464v-.04q.142.21.339.327t.477.118q.2 0 .38-.062t.315-.176A.82.82 0 0 0 1.021.68V.672a.9.9 0 0 0-.296-.684Q.587-.138.4-.21a1.1 1.1 0 0 0-.404-.071" clip-path="url(#n)" transform="matrix(1.33333 0 0 -1.33333 232.913 333.225)"/><path fill="#575756" d="M0 0q-.306 0-.565.129a1.7 1.7 0 0 0-.456.324l.213.233q.187-.184.39-.289A.9.9 0 0 1 .004.294q.151 0 .28.049a.7.7 0 0 1 .218.133q.09.083.141.2a.6.6 0 0 1 .051.251v.008a.6.6 0 0 1-.053.245.6.6 0 0 1-.147.189.6.6 0 0 1-.224.123.9.9 0 0 1-.286.043q-.184 0-.329-.047a1.5 1.5 0 0 1-.271-.117l-.217.144.082 1.391H.892v-.298H-.469l-.062-.917a1.6 1.6 0 0 0 .256.091q.129.034.308.034.208 0 .388-.058a.9.9 0 0 0 .313-.172.8.8 0 0 0 .208-.274.9.9 0 0 0 .075-.367V.937A.95.95 0 0 0 .942.556.85.85 0 0 0 .734.259.9.9 0 0 0 .413.067 1.2 1.2 0 0 0 0 0" clip-path="url(#o)" transform="matrix(1.33333 0 0 -1.33333 235.993 333.6)"/><use clip-path="url(#p)" href="#k" transform="matrix(1.33333 0 0 -1.33333 239.358 333.208)"/><use clip-path="url(#q)" href="#k" transform="matrix(1.33333 0 0 -1.33333 242.978 333.208)"/><path fill="#575756" d="m0 0-.539-.167-.078.262.7.24h.239v-2.878H0Z" clip-path="url(#r)" transform="matrix(1.33333 0 0 -1.33333 206.699 404.715)"/><use clip-path="url(#s)" href="#t" transform="matrix(1.33333 0 0 -1.33333 209.093 408.17)"/><use clip-path="url(#u)" href="#k" transform="matrix(1.33333 0 0 -1.33333 212.42 407.779)"/><use clip-path="url(#v)" href="#k" transform="matrix(1.33333 0 0 -1.33333 216.04 407.779)"/><path fill="#575756" d="M0 0v1.474L-1.2 0Zm0-.27h-1.506l-.082.237L.028 1.931h.286V0h.441v-.27H.314v-.677H0Z" clip-path="url(#w)" transform="matrix(1.33333 0 0 -1.33333 233.447 406.842)"/><use clip-path="url(#x)" href="#t" transform="matrix(1.33333 0 0 -1.33333 236.168 408.17)"/><use clip-path="url(#y)" href="#k" transform="matrix(1.33333 0 0 -1.33333 239.494 407.779)"/><use clip-path="url(#z)" href="#k" transform="matrix(1.33333 0 0 -1.33333 243.114 407.779)"/></g></svg>