<svg xmlns="http://www.w3.org/2000/svg" width="38.07" height="94.097" viewBox="0 0 38.07 94.097"><defs><clipPath id="a" clipPathUnits="userSpaceOnUse"><path d="M-548.845 706.236h612v-792h-612Z"/></clipPath><clipPath id="b" clipPathUnits="userSpaceOnUse"><path d="M-308.99 241.008h612v-792h-612Z"/></clipPath><clipPath id="c" clipPathUnits="userSpaceOnUse"><path d="M-314.71 243.692h612v-792h-612Z"/></clipPath><clipPath id="e" clipPathUnits="userSpaceOnUse"><path d="M-325.125 241.355h612v-792h-612Z"/></clipPath><clipPath id="f" clipPathUnits="userSpaceOnUse"><path d="M-327.732 243.692h612v-792h-612Z"/></clipPath><clipPath id="g" clipPathUnits="userSpaceOnUse"><path d="M-316.089 285.208h612v-792h-612Z"/></clipPath><clipPath id="h" clipPathUnits="userSpaceOnUse"><path d="M-316.089 302.863h612v-792h-612Z"/></clipPath><clipPath id="i" clipPathUnits="userSpaceOnUse"><path d="M-306.995 285.697h612v-792h-612Z"/></clipPath><clipPath id="k" clipPathUnits="userSpaceOnUse"><path d="M-308.76 288.29h612v-792h-612Z"/></clipPath><clipPath id="m" clipPathUnits="userSpaceOnUse"><path d="M-311.282 287.995h612v-792h-612Z"/></clipPath><clipPath id="o" clipPathUnits="userSpaceOnUse"><path d="M-313.997 287.995h612v-792h-612Z"/></clipPath><clipPath id="p" clipPathUnits="userSpaceOnUse"><path d="M-325.775 288.29h612v-792h-612Z"/></clipPath><clipPath id="q" clipPathUnits="userSpaceOnUse"><path d="M-328.298 287.995h612v-792h-612Z"/></clipPath><clipPath id="r" clipPathUnits="userSpaceOnUse"><path d="M-331.013 287.995h612v-792h-612Z"/></clipPath><clipPath id="s" clipPathUnits="userSpaceOnUse"><path d="M-333.728 287.995h612v-792h-612Z"/></clipPath><clipPath id="t" clipPathUnits="userSpaceOnUse"><path d="M-306.991 303.34h612v-792h-612Z"/></clipPath><clipPath id="u" clipPathUnits="userSpaceOnUse"><path d="M-308.788 305.932h612v-792h-612Z"/></clipPath><clipPath id="w" clipPathUnits="userSpaceOnUse"><path d="M-311.283 305.638h612v-792h-612Z"/></clipPath><clipPath id="x" clipPathUnits="userSpaceOnUse"><path d="M-313.998 305.638h612v-792h-612Z"/></clipPath><clipPath id="y" clipPathUnits="userSpaceOnUse"><path d="M-326.302 304.935h612v-792h-612Z"/></clipPath><clipPath id="z" clipPathUnits="userSpaceOnUse"><path d="M-328.343 305.932h612v-792h-612Z"/></clipPath><clipPath id="A" clipPathUnits="userSpaceOnUse"><path d="M-330.838 305.638h612v-792h-612Z"/></clipPath><clipPath id="B" clipPathUnits="userSpaceOnUse"><path d="M-333.553 305.638h612v-792h-612Z"/></clipPath><path id="d" fill="#575756" d="M0 0q-.158 0-.296.041a.58.58 0 0 0-.392.361.9.9 0 0 0-.057.341v1.589h-.367v.353h.367v.795h.393v-.795h.837v-.353h-.837V.791q0-.244.123-.342A.5.5 0 0 1 .092.353a.8.8 0 0 1 .383.096V.112A1 1 0 0 0 .258.028 1 1 0 0 0 0 0"/><path id="j" fill="#575756" d="m0 0-.539-.167-.077.262.699.24h.24v-2.878H0Z"/><path id="l" fill="#575756" d="M0 0q-.306 0-.565.129a1.7 1.7 0 0 0-.456.324l.212.233q.188-.184.39-.289A.9.9 0 0 1 .004.294q.15 0 .279.049a.7.7 0 0 1 .219.133.6.6 0 0 1 .191.451v.008a.6.6 0 0 1-.052.245.6.6 0 0 1-.147.189.7.7 0 0 1-.224.123.9.9 0 0 1-.287.043 1 1 0 0 1-.329-.047 1.5 1.5 0 0 1-.271-.117l-.216.144.081 1.391H.892v-.298H-.47l-.061-.917q.128.058.255.091.129.034.308.034.209 0 .388-.058a.9.9 0 0 0 .313-.172.8.8 0 0 0 .208-.274.9.9 0 0 0 .076-.367V.937A.95.95 0 0 0 .941.556.85.85 0 0 0 .733.259.9.9 0 0 0 .412.067 1.2 1.2 0 0 0 0 0"/><path id="n" fill="#575756" d="M0 0q.2 0 .361.096a.9.9 0 0 1 .274.257q.112.161.171.376.06.214.059.447v.008q0 .232-.061.447-.06.213-.175.378a.9.9 0 0 1-.276.261.7.7 0 0 1-.362.097.7.7 0 0 1-.361-.096.9.9 0 0 1-.274-.256 1.3 1.3 0 0 1-.172-.374 1.6 1.6 0 0 1-.062-.449v-.008q0-.233.062-.448.06-.213.174-.377A.9.9 0 0 1-.363.098.7.7 0 0 1 0 0m-.009-.294a1.07 1.07 0 0 0-.879.435 1.5 1.5 0 0 0-.241.467 1.9 1.9 0 0 0-.084.568v.008q0 .298.086.567a1.5 1.5 0 0 0 .245.472q.16.201.382.32.221.118.5.118.274 0 .496-.116.223-.116.379-.318.158-.202.241-.469.084-.268.084-.566v-.008q0-.303-.086-.57A1.5 1.5 0 0 0 .871.145a1.15 1.15 0 0 0-.382-.321 1.05 1.05 0 0 0-.498-.118"/><path id="v" fill="#575756" d="M0 0q-.358 0-.624.141a1.3 1.3 0 0 0-.441.369l.236.209q.163-.205.366-.315A.95.95 0 0 1 .249.333.56.56 0 0 1 .58.62a.5.5 0 0 1 .049.229v.008q0 .134-.06.237a.5.5 0 0 1-.165.172.8.8 0 0 1-.253.105 1.3 1.3 0 0 1-.322.037h-.184l-.065.193.901 1.015H-.914v.29H.907V2.67l-.894-.996q.188-.016.356-.07a1 1 0 0 0 .3-.151.7.7 0 0 0 .206-.243.7.7 0 0 0 .076-.341V.861A.81.81 0 0 0 .675.238 1 1 0 0 0 .374.063 1.1 1.1 0 0 0 0 0"/><color-profile name="Coated FOGRA39 (ISO 12647-2:2004)"/></defs><g transform="translate(-408.5 -319.867)"><path fill="#9d9c9c" d="m0 0-.365 472.516-487.584.204v.976l488.577-.204-.017-.653L.977 0Z" clip-path="url(#a)" transform="matrix(1.33333 0 0 -1.33333 731.793 941.648)"/><path fill="#575756" d="M0 0h.394v-.444q.065.097.145.188a.87.87 0 0 0 .41.271 1 1 0 0 0 .296.041.88.88 0 0 0 .531-.151 1 1 0 0 0 .317-.375q.071.108.16.204a1 1 0 0 0 .455.281q.14.04.313.041.459 0 .72-.284.26-.282.26-.778v-1.633h-.393v1.545q0 .383-.181.59-.18.208-.502.208a.72.72 0 0 1-.514-.213.7.7 0 0 1-.155-.258 1 1 0 0 1-.056-.347v-1.525h-.393v1.555q0 .373-.181.58a.63.63 0 0 1-.498.208.68.68 0 0 1-.523-.235.9.9 0 0 1-.156-.264 1 1 0 0 1-.055-.335v-1.509H0Z" clip-path="url(#b)" transform="matrix(1.33333 0 0 -1.33333 411.986 321.344)"/><use clip-path="url(#c)" href="#d" transform="matrix(1.33333 0 0 -1.33333 419.613 324.923)"/><path fill="#575756" d="M0 0h-.362v.342H0v.23q0 .449.229.679.205.204.567.204.138 0 .237-.016.1-.015.196-.05v-.342a4 4 0 0 1-.193.048 1 1 0 0 1-.189.017q-.459 0-.459-.56V.337h.837V0H.393v-2.291H0Z" clip-path="url(#e)" transform="matrix(1.33333 0 0 -1.33333 433.5 321.807)"/><use clip-path="url(#f)" href="#d" transform="matrix(1.33333 0 0 -1.33333 436.977 324.923)"/><path fill="#009d79" fill-rule="evenodd" d="M0 0h7.655v-17.872H0Z" clip-path="url(#g)" transform="matrix(1.33333 0 0 -1.33333 421.452 380.277)"/><path fill="#b9d7c9" fill-rule="evenodd" d="M0 0h7.655v-7.611H0Z" clip-path="url(#h)" transform="matrix(1.33333 0 0 -1.33333 421.452 403.817)"/><use clip-path="url(#i)" href="#j" transform="matrix(1.33333 0 0 -1.33333 409.327 380.93)"/><use clip-path="url(#k)" href="#l" transform="matrix(1.33333 0 0 -1.33333 411.68 384.385)"/><use clip-path="url(#m)" href="#n" transform="matrix(1.33333 0 0 -1.33333 415.043 383.993)"/><use clip-path="url(#o)" href="#n" transform="matrix(1.33333 0 0 -1.33333 418.663 383.993)"/><use clip-path="url(#p)" href="#l" transform="matrix(1.33333 0 0 -1.33333 434.367 384.385)"/><use clip-path="url(#q)" href="#n" transform="matrix(1.33333 0 0 -1.33333 437.73 383.993)"/><use clip-path="url(#r)" href="#n" transform="matrix(1.33333 0 0 -1.33333 441.35 383.993)"/><use clip-path="url(#s)" href="#n" transform="matrix(1.33333 0 0 -1.33333 444.97 383.993)"/><use clip-path="url(#t)" href="#j" transform="matrix(1.33333 0 0 -1.33333 409.322 404.453)"/><use clip-path="url(#u)" href="#v" transform="matrix(1.33333 0 0 -1.33333 411.717 407.909)"/><use clip-path="url(#w)" href="#n" transform="matrix(1.33333 0 0 -1.33333 415.044 407.517)"/><use clip-path="url(#x)" href="#n" transform="matrix(1.33333 0 0 -1.33333 418.664 407.517)"/><path fill="#575756" d="M0 0v1.474L-1.2 0Zm0-.27h-1.507l-.081.237L.028 1.931h.286V0h.441v-.27H.314v-.677H0Z" clip-path="url(#y)" transform="matrix(1.33333 0 0 -1.33333 435.07 406.58)"/><use clip-path="url(#z)" href="#v" transform="matrix(1.33333 0 0 -1.33333 437.79 407.909)"/><use clip-path="url(#A)" href="#n" transform="matrix(1.33333 0 0 -1.33333 441.117 407.517)"/><use clip-path="url(#B)" href="#n" transform="matrix(1.33333 0 0 -1.33333 444.737 407.517)"/></g></svg>