<svg xmlns="http://www.w3.org/2000/svg" width="40.272" height="94.097" viewBox="0 0 40.272 94.097"><defs><clipPath id="a" clipPathUnits="userSpaceOnUse"><path d="M-548.845 706.236h612v-792h-612Z"/></clipPath><clipPath id="b" clipPathUnits="userSpaceOnUse"><path d="M-411.062 241.008h612v-792h-612Z"/></clipPath><clipPath id="c" clipPathUnits="userSpaceOnUse"><path d="M-416.782 243.692h612v-792h-612Z"/></clipPath><clipPath id="e" clipPathUnits="userSpaceOnUse"><path d="M-427.53 241.355h612v-792h-612Z"/></clipPath><clipPath id="f" clipPathUnits="userSpaceOnUse"><path d="M-430.138 243.692h612v-792h-612Z"/></clipPath><clipPath id="g" clipPathUnits="userSpaceOnUse"><path d="M-418.308 247.425h612v-792h-612Z"/></clipPath><clipPath id="h" clipPathUnits="userSpaceOnUse"><path d="M-418.308 285.261h612v-792h-612Z"/></clipPath><clipPath id="i" clipPathUnits="userSpaceOnUse"><path d="M-407.129 250.111h612v-792h-612Z"/></clipPath><clipPath id="j" clipPathUnits="userSpaceOnUse"><path d="M-410.64 250.115h612v-792h-612Z"/></clipPath><clipPath id="l" clipPathUnits="userSpaceOnUse"><path d="M-413.355 250.115h612v-792h-612Z"/></clipPath><clipPath id="m" clipPathUnits="userSpaceOnUse"><path d="M-416.07 250.115h612v-792h-612Z"/></clipPath><clipPath id="n" clipPathUnits="userSpaceOnUse"><path d="M-428.307 250.128h612v-792h-612Z"/></clipPath><clipPath id="o" clipPathUnits="userSpaceOnUse"><path d="M-430.618 250.41h612v-792h-612Z"/></clipPath><clipPath id="q" clipPathUnits="userSpaceOnUse"><path d="M-433.14 250.115h612v-792h-612Z"/></clipPath><clipPath id="r" clipPathUnits="userSpaceOnUse"><path d="M-435.856 250.115h612v-792h-612Z"/></clipPath><clipPath id="s" clipPathUnits="userSpaceOnUse"><path d="M-409.067 285.57h612v-792h-612Z"/></clipPath><clipPath id="t" clipPathUnits="userSpaceOnUse"><path d="M-410.832 288.162h612v-792h-612Z"/></clipPath><clipPath id="u" clipPathUnits="userSpaceOnUse"><path d="M-413.355 287.868h612v-792h-612Z"/></clipPath><clipPath id="v" clipPathUnits="userSpaceOnUse"><path d="M-416.07 287.868h612v-792h-612Z"/></clipPath><clipPath id="w" clipPathUnits="userSpaceOnUse"><path d="M-428.18 288.162h612v-792h-612Z"/></clipPath><clipPath id="x" clipPathUnits="userSpaceOnUse"><path d="M-430.703 287.868h612v-792h-612Z"/></clipPath><clipPath id="y" clipPathUnits="userSpaceOnUse"><path d="M-433.418 287.868h612v-792h-612Z"/></clipPath><clipPath id="z" clipPathUnits="userSpaceOnUse"><path d="M-436.133 287.868h612v-792h-612Z"/></clipPath><path id="d" fill="#575756" d="M0 0q-.158 0-.296.041a.58.58 0 0 0-.392.361.9.9 0 0 0-.057.341v1.589h-.367v.353h.367v.795h.393v-.795h.837v-.353h-.837V.791q0-.244.123-.342A.5.5 0 0 1 .092.353a.8.8 0 0 1 .383.096V.112A1 1 0 0 0 .258.028 1 1 0 0 0 0 0"/><path id="k" fill="#575756" d="M0 0q.2 0 .361.096a.9.9 0 0 1 .274.257q.112.161.171.376.06.214.059.447v.008q0 .232-.061.447-.06.213-.175.378a.9.9 0 0 1-.276.261.7.7 0 0 1-.362.097.7.7 0 0 1-.361-.096.9.9 0 0 1-.274-.256 1.3 1.3 0 0 1-.172-.374 1.6 1.6 0 0 1-.062-.449v-.008q0-.233.062-.448.06-.213.174-.377A.9.9 0 0 1-.363.098.7.7 0 0 1 0 0m-.009-.294a1.07 1.07 0 0 0-.879.435 1.5 1.5 0 0 0-.241.467 1.9 1.9 0 0 0-.084.568v.008q0 .298.086.567a1.5 1.5 0 0 0 .245.472q.16.201.382.32.221.118.5.118.274 0 .496-.116.223-.116.379-.318.158-.202.241-.469.084-.268.084-.566v-.008q0-.303-.086-.57A1.5 1.5 0 0 0 .871.145a1.15 1.15 0 0 0-.382-.321 1.05 1.05 0 0 0-.498-.118"/><path id="p" fill="#575756" d="M0 0q-.306 0-.565.129a1.7 1.7 0 0 0-.456.324l.212.233q.188-.184.39-.289A.9.9 0 0 1 .004.294q.15 0 .279.049a.7.7 0 0 1 .219.133.6.6 0 0 1 .191.451v.008a.6.6 0 0 1-.052.245.6.6 0 0 1-.147.189.7.7 0 0 1-.224.123.9.9 0 0 1-.287.043 1 1 0 0 1-.329-.047 1.5 1.5 0 0 1-.271-.117l-.216.144.081 1.391H.892v-.298H-.47l-.061-.917q.128.058.255.091.129.034.308.034.209 0 .388-.058a.9.9 0 0 0 .313-.172.8.8 0 0 0 .208-.274.9.9 0 0 0 .076-.367V.937A.95.95 0 0 0 .941.556.85.85 0 0 0 .733.259.9.9 0 0 0 .412.067 1.2 1.2 0 0 0 0 0"/><color-profile name="Coated FOGRA39 (ISO 12647-2:2004)"/></defs><g transform="translate(-542.838 -319.867)"><path fill="#9d9c9c" d="m0 0-.365 472.516-487.584.204v.976l488.577-.204-.017-.653L.977 0Z" clip-path="url(#a)" transform="matrix(1.33333 0 0 -1.33333 731.793 941.648)"/><path fill="#575756" d="M0 0h.394v-.444q.065.097.145.188a.87.87 0 0 0 .41.271 1 1 0 0 0 .296.041.88.88 0 0 0 .531-.151 1 1 0 0 0 .317-.375q.071.108.16.204a1 1 0 0 0 .455.281q.14.04.313.041.459 0 .72-.284.26-.282.26-.778v-1.633h-.393v1.545q0 .383-.181.59-.18.208-.502.208a.72.72 0 0 1-.514-.213.7.7 0 0 1-.155-.258 1 1 0 0 1-.056-.347v-1.525h-.393v1.555q0 .373-.181.58a.63.63 0 0 1-.498.208.68.68 0 0 1-.523-.235.9.9 0 0 1-.156-.264 1 1 0 0 1-.055-.335v-1.509H0Z" clip-path="url(#b)" transform="matrix(1.33333 0 0 -1.33333 548.082 321.344)"/><use clip-path="url(#c)" href="#d" transform="matrix(1.33333 0 0 -1.33333 555.71 324.923)"/><path fill="#575756" d="M0 0h-.362v.342H0v.23q0 .449.229.679.205.204.567.204.138 0 .237-.016.1-.015.196-.05v-.342a4 4 0 0 1-.193.048 1 1 0 0 1-.189.017q-.459 0-.459-.56V.337h.837V0H.393v-2.291H0Z" clip-path="url(#e)" transform="matrix(1.33333 0 0 -1.33333 570.04 321.807)"/><use clip-path="url(#f)" href="#d" transform="matrix(1.33333 0 0 -1.33333 573.517 324.923)"/><path fill="#991b7f" fill-rule="evenodd" d="M0 0h7.655v-39.432H0Z" clip-path="url(#g)" transform="matrix(1.33333 0 0 -1.33333 557.745 329.9)"/><path fill="#d2aace" fill-rule="evenodd" d="M0 0h7.655v-25.212H0Z" clip-path="url(#h)" transform="matrix(1.33333 0 0 -1.33333 557.745 380.348)"/><path fill="#575756" d="m0 0 1.036.914q.165.148.278.266t.184.222q.069.105.102.204a.7.7 0 0 1 .033.206.53.53 0 0 1-.356.509.6.6 0 0 1-.22.038.7.7 0 0 1-.42-.124 1.6 1.6 0 0 1-.348-.365l-.236.171q.098.144.2.258.101.114.223.191.12.078.269.118.148.042.336.041.192 0 .356-.061a.9.9 0 0 0 .282-.169.78.78 0 0 0 .249-.578v-.008a1 1 0 0 0-.043-.288 1 1 0 0 0-.131-.261 2 2 0 0 0-.225-.263 6 6 0 0 0-.324-.298L.481.045h1.515v-.294H0Z" clip-path="url(#i)" transform="matrix(1.33333 0 0 -1.33333 542.839 333.482)"/><use clip-path="url(#j)" href="#k" transform="matrix(1.33333 0 0 -1.33333 547.52 333.487)"/><use clip-path="url(#l)" href="#k" transform="matrix(1.33333 0 0 -1.33333 551.14 333.487)"/><use clip-path="url(#m)" href="#k" transform="matrix(1.33333 0 0 -1.33333 554.76 333.487)"/><path fill="#575756" d="M0 0q.159 0 .286.052.126.051.216.138A.64.64 0 0 1 .69.655v.009a.58.58 0 0 1-.194.438.78.78 0 0 1-.504.176.8.8 0 0 1-.292-.053.7.7 0 0 1-.226-.141.6.6 0 0 1-.145-.201.6.6 0 0 1-.052-.232V.644q0-.136.054-.254A.6.6 0 0 1-.521.185.7.7 0 0 1-.292.05.8.8 0 0 1 0 0m-.004-.281q-.237 0-.427.077a1 1 0 0 0-.324.213 1.1 1.1 0 0 0-.266.42q-.044.13-.069.298a3 3 0 0 0-.024.388v.008q0 .327.08.61.08.284.232.493.153.208.373.328.222.12.503.12.256 0 .457-.085.2-.087.388-.241l-.188-.249a1.4 1.4 0 0 1-.319.208.85.85 0 0 1-.354.073.67.67 0 0 1-.366-.1.8.8 0 0 1-.263-.269 1.3 1.3 0 0 1-.159-.392 2 2 0 0 1-.053-.464v-.04q.142.21.339.327.195.118.477.118.2 0 .379-.062.18-.062.315-.176A.84.84 0 0 0 1.021.68V.672a.9.9 0 0 0-.296-.684Q.588-.138.4-.21a1.1 1.1 0 0 0-.404-.071" clip-path="url(#n)" transform="matrix(1.33333 0 0 -1.33333 571.075 333.504)"/><use clip-path="url(#o)" href="#p" transform="matrix(1.33333 0 0 -1.33333 574.158 333.879)"/><use clip-path="url(#q)" href="#k" transform="matrix(1.33333 0 0 -1.33333 577.52 333.487)"/><use clip-path="url(#r)" href="#k" transform="matrix(1.33333 0 0 -1.33333 581.14 333.487)"/><path fill="#575756" d="m0 0-.539-.167-.077.262.699.24h.24v-2.878H0Z" clip-path="url(#s)" transform="matrix(1.33333 0 0 -1.33333 545.423 380.76)"/><use clip-path="url(#t)" href="#p" transform="matrix(1.33333 0 0 -1.33333 547.776 384.216)"/><use clip-path="url(#u)" href="#k" transform="matrix(1.33333 0 0 -1.33333 551.14 383.824)"/><use clip-path="url(#v)" href="#k" transform="matrix(1.33333 0 0 -1.33333 554.76 383.824)"/><use clip-path="url(#w)" href="#p" transform="matrix(1.33333 0 0 -1.33333 570.908 384.216)"/><use clip-path="url(#x)" href="#k" transform="matrix(1.33333 0 0 -1.33333 574.27 383.824)"/><use clip-path="url(#y)" href="#k" transform="matrix(1.33333 0 0 -1.33333 577.89 383.824)"/><use clip-path="url(#z)" href="#k" transform="matrix(1.33333 0 0 -1.33333 581.51 383.824)"/></g></svg>