<svg xmlns="http://www.w3.org/2000/svg" width="38.045" height="94.097" viewBox="0 0 38.045 94.097"><defs><clipPath id="a" clipPathUnits="userSpaceOnUse"><path d="M-548.845 706.236h612v-792h-612Z"/></clipPath><clipPath id="b" clipPathUnits="userSpaceOnUse"><path d="M-461.675 241.008h612v-792h-612Z"/></clipPath><clipPath id="c" clipPathUnits="userSpaceOnUse"><path d="M-467.396 243.692h612v-792h-612Z"/></clipPath><clipPath id="e" clipPathUnits="userSpaceOnUse"><path d="M-477.498 241.355h612v-792h-612Z"/></clipPath><clipPath id="f" clipPathUnits="userSpaceOnUse"><path d="M-480.106 243.692h612v-792h-612Z"/></clipPath><clipPath id="g" clipPathUnits="userSpaceOnUse"><path d="M-468.499 270.001h612v-792h-612Z"/></clipPath><clipPath id="h" clipPathUnits="userSpaceOnUse"><path d="M0 792h612V0H0Z"/></clipPath><clipPath id="i" clipPathUnits="userSpaceOnUse"><path d="M-459.594 270.456h612v-792h-612Z"/></clipPath><clipPath id="k" clipPathUnits="userSpaceOnUse"><path d="M-461.97 270.435h612v-792h-612Z"/></clipPath><clipPath id="l" clipPathUnits="userSpaceOnUse"><path d="M-463.734 272.754h612v-792h-612Z"/></clipPath><clipPath id="n" clipPathUnits="userSpaceOnUse"><path d="M-466.45 272.754h612v-792h-612Z"/></clipPath><clipPath id="o" clipPathUnits="userSpaceOnUse"><path d="M-478.383 273.048h612v-792h-612Z"/></clipPath><clipPath id="p" clipPathUnits="userSpaceOnUse"><path d="M-480.803 272.767h612v-792h-612Z"/></clipPath><clipPath id="q" clipPathUnits="userSpaceOnUse"><path d="M-483.343 272.754h612v-792h-612Z"/></clipPath><clipPath id="r" clipPathUnits="userSpaceOnUse"><path d="M-486.058 272.754h612v-792h-612Z"/></clipPath><clipPath id="s" clipPathUnits="userSpaceOnUse"><path d="M-459.442 303.378h612v-792h-612Z"/></clipPath><clipPath id="t" clipPathUnits="userSpaceOnUse"><path d="M-461.24 305.97h612v-792h-612Z"/></clipPath><clipPath id="v" clipPathUnits="userSpaceOnUse"><path d="M-463.734 305.676h612v-792h-612Z"/></clipPath><clipPath id="w" clipPathUnits="userSpaceOnUse"><path d="M-466.45 305.676h612v-792h-612Z"/></clipPath><clipPath id="x" clipPathUnits="userSpaceOnUse"><path d="M-478.91 304.974h612v-792h-612Z"/></clipPath><clipPath id="y" clipPathUnits="userSpaceOnUse"><path d="M-480.95 305.97h612v-792h-612Z"/></clipPath><clipPath id="z" clipPathUnits="userSpaceOnUse"><path d="M-483.445 305.676h612v-792h-612Z"/></clipPath><clipPath id="A" clipPathUnits="userSpaceOnUse"><path d="M-486.16 305.676h612v-792h-612Z"/></clipPath><path id="d" fill="#575756" d="M0 0q-.158 0-.296.041a.58.58 0 0 0-.392.361.9.9 0 0 0-.057.341v1.589h-.367v.353h.367v.795h.393v-.795h.837v-.353h-.837V.791q0-.244.123-.342A.5.5 0 0 1 .092.353a.8.8 0 0 1 .383.096V.112A1 1 0 0 0 .258.028 1 1 0 0 0 0 0"/><path id="j" fill="#575756" d="m0 0-.539-.167-.077.262.699.24h.24v-2.878H0Z"/><path id="m" fill="#575756" d="M0 0q.2 0 .361.096a.9.9 0 0 1 .274.257q.112.161.171.376.06.214.059.447v.008q0 .232-.061.447-.06.213-.175.378a.9.9 0 0 1-.276.261.7.7 0 0 1-.362.097.7.7 0 0 1-.361-.096.9.9 0 0 1-.274-.256 1.3 1.3 0 0 1-.172-.374 1.6 1.6 0 0 1-.062-.449v-.008q0-.233.062-.448.06-.213.174-.377A.9.9 0 0 1-.363.098.7.7 0 0 1 0 0m-.009-.294a1.07 1.07 0 0 0-.879.435 1.5 1.5 0 0 0-.241.467 1.9 1.9 0 0 0-.084.568v.008q0 .298.086.567a1.5 1.5 0 0 0 .245.472q.16.201.382.32.221.118.5.118.274 0 .496-.116.223-.116.379-.318.158-.202.241-.469.084-.268.084-.566v-.008q0-.303-.086-.57A1.5 1.5 0 0 0 .871.145a1.15 1.15 0 0 0-.382-.321 1.05 1.05 0 0 0-.498-.118"/><path id="u" fill="#575756" d="M0 0q-.358 0-.624.141a1.3 1.3 0 0 0-.441.369l.236.209q.163-.205.366-.315A.95.95 0 0 1 .249.333.56.56 0 0 1 .58.62a.5.5 0 0 1 .049.229v.008q0 .134-.06.237a.5.5 0 0 1-.165.172.8.8 0 0 1-.253.105 1.3 1.3 0 0 1-.322.037h-.184l-.065.193.901 1.015H-.914v.29H.907V2.67l-.894-.996q.188-.016.356-.07a1 1 0 0 0 .3-.151.7.7 0 0 0 .206-.243.7.7 0 0 0 .076-.341V.861A.81.81 0 0 0 .675.238 1 1 0 0 0 .374.063 1.1 1.1 0 0 0 0 0"/><color-profile name="Coated FOGRA39 (ISO 12647-2:2004)"/></defs><g transform="translate(-611.769 -319.867)"><path fill="#9d9c9c" d="m0 0-.365 472.516-487.584.204v.976l488.577-.204-.017-.653L.977 0Z" clip-path="url(#a)" transform="matrix(1.33333 0 0 -1.33333 731.793 941.648)"/><path fill="#575756" d="M0 0h.394v-.444q.065.097.145.188a.87.87 0 0 0 .41.271 1 1 0 0 0 .296.041.88.88 0 0 0 .531-.151 1 1 0 0 0 .317-.375q.071.108.16.204a1 1 0 0 0 .455.281q.14.04.313.041.459 0 .72-.284.26-.282.26-.778v-1.633h-.393v1.545q0 .383-.181.59-.18.208-.502.208a.72.72 0 0 1-.514-.213.7.7 0 0 1-.155-.258 1 1 0 0 1-.056-.347v-1.525h-.393v1.555q0 .373-.181.58a.63.63 0 0 1-.498.208.68.68 0 0 1-.523-.235.9.9 0 0 1-.156-.264 1 1 0 0 1-.055-.335v-1.509H0Z" clip-path="url(#b)" transform="matrix(1.33333 0 0 -1.33333 615.566 321.344)"/><use clip-path="url(#c)" href="#d" transform="matrix(1.33333 0 0 -1.33333 623.194 324.923)"/><path fill="#575756" d="M0 0h-.362v.342H0v.23q0 .449.229.679.205.204.567.204.138 0 .237-.016.1-.015.196-.05v-.342a4 4 0 0 1-.193.048 1 1 0 0 1-.189.017q-.459 0-.459-.56V.337h.837V0H.393v-2.291H0Z" clip-path="url(#e)" transform="matrix(1.33333 0 0 -1.33333 636.664 321.807)"/><use clip-path="url(#f)" href="#d" transform="matrix(1.33333 0 0 -1.33333 640.14 324.923)"/><path fill="#432c7e" fill-rule="evenodd" d="M0 0h7.655v-34.234H0Z" clip-path="url(#g)" transform="matrix(1.33333 0 0 -1.33333 624.665 360.002)"/><path fill="#aea0ca" fill-rule="evenodd" d="M468.499 489.151h7.655v-7.624h-7.655z" clip-path="url(#h)" transform="matrix(1.33333 0 0 -1.33333 0 1056)"/><use clip-path="url(#i)" href="#j" transform="matrix(1.33333 0 0 -1.33333 612.792 360.608)"/><path fill="#575756" d="M0 0h-1.572v.294H.367v-.24L-.931-2.563h-.359Z" clip-path="url(#k)" transform="matrix(1.33333 0 0 -1.33333 615.96 360.58)"/><use clip-path="url(#l)" href="#m" transform="matrix(1.33333 0 0 -1.33333 618.313 363.672)"/><use clip-path="url(#n)" href="#m" transform="matrix(1.33333 0 0 -1.33333 621.932 363.672)"/><path fill="#575756" d="M0 0q-.306 0-.565.129a1.7 1.7 0 0 0-.456.324l.212.233q.188-.184.39-.289A.9.9 0 0 1 .004.294q.15 0 .279.049a.7.7 0 0 1 .219.133.6.6 0 0 1 .191.451v.008a.6.6 0 0 1-.052.245.6.6 0 0 1-.147.189.7.7 0 0 1-.224.123.9.9 0 0 1-.287.043 1 1 0 0 1-.329-.047 1.5 1.5 0 0 1-.271-.117l-.216.144.081 1.391H.892v-.298H-.47l-.061-.917q.128.058.255.091.129.034.308.034.209 0 .388-.058a.9.9 0 0 0 .313-.172.8.8 0 0 0 .208-.274.9.9 0 0 0 .076-.367V.937A.95.95 0 0 0 .941.556.85.85 0 0 0 .733.259.9.9 0 0 0 .412.067 1.2 1.2 0 0 0 0 0" clip-path="url(#o)" transform="matrix(1.33333 0 0 -1.33333 637.844 364.064)"/><path fill="#575756" d="M0 0q.159 0 .286.052.126.051.216.138A.64.64 0 0 1 .69.655v.009a.58.58 0 0 1-.194.438.78.78 0 0 1-.504.176.8.8 0 0 1-.292-.053.7.7 0 0 1-.226-.141.6.6 0 0 1-.145-.201.6.6 0 0 1-.052-.232V.644q0-.136.054-.254A.6.6 0 0 1-.521.185.7.7 0 0 1-.292.05.8.8 0 0 1 0 0m-.004-.281q-.237 0-.427.077a1 1 0 0 0-.324.213 1.1 1.1 0 0 0-.266.42q-.044.13-.069.298a3 3 0 0 0-.024.388v.008q0 .327.08.61.08.284.232.493.153.208.373.328.222.12.503.12.256 0 .457-.085.2-.087.388-.241l-.188-.249a1.4 1.4 0 0 1-.319.208.85.85 0 0 1-.354.073.67.67 0 0 1-.366-.1.8.8 0 0 1-.263-.269 1.3 1.3 0 0 1-.159-.392 2 2 0 0 1-.053-.464v-.04q.142.21.339.327.195.118.477.118.2 0 .379-.062.18-.062.315-.176A.84.84 0 0 0 1.021.68V.672a.9.9 0 0 0-.296-.684Q.588-.138.4-.21a1.1 1.1 0 0 0-.404-.071" clip-path="url(#p)" transform="matrix(1.33333 0 0 -1.33333 641.07 363.689)"/><use clip-path="url(#q)" href="#m" transform="matrix(1.33333 0 0 -1.33333 644.457 363.672)"/><use clip-path="url(#r)" href="#m" transform="matrix(1.33333 0 0 -1.33333 648.077 363.672)"/><use clip-path="url(#s)" href="#j" transform="matrix(1.33333 0 0 -1.33333 612.59 404.504)"/><use clip-path="url(#t)" href="#u" transform="matrix(1.33333 0 0 -1.33333 614.986 407.96)"/><use clip-path="url(#v)" href="#m" transform="matrix(1.33333 0 0 -1.33333 618.313 407.568)"/><use clip-path="url(#w)" href="#m" transform="matrix(1.33333 0 0 -1.33333 621.932 407.568)"/><path fill="#575756" d="M0 0v1.474L-1.2 0Zm0-.27h-1.507l-.081.237L.028 1.931h.286V0h.441v-.27H.314v-.677H0Z" clip-path="url(#x)" transform="matrix(1.33333 0 0 -1.33333 638.546 406.631)"/><use clip-path="url(#y)" href="#u" transform="matrix(1.33333 0 0 -1.33333 641.267 407.96)"/><use clip-path="url(#z)" href="#m" transform="matrix(1.33333 0 0 -1.33333 644.594 407.568)"/><use clip-path="url(#A)" href="#m" transform="matrix(1.33333 0 0 -1.33333 648.214 407.568)"/></g></svg>