<svg xmlns="http://www.w3.org/2000/svg" width="38.529" height="94.097" viewBox="0 0 38.529 94.097"><defs><clipPath id="b" clipPathUnits="userSpaceOnUse"><path d="M-548.845 706.236h612v-792h-612Z"/></clipPath><clipPath id="c" clipPathUnits="userSpaceOnUse"><path d="M-512.084 241.008h612v-792h-612Z"/></clipPath><clipPath id="d" clipPathUnits="userSpaceOnUse"><path d="M-517.805 243.692h612v-792h-612Z"/></clipPath><clipPath id="f" clipPathUnits="userSpaceOnUse"><path d="M-528.352 241.355h612v-792h-612Z"/></clipPath><clipPath id="g" clipPathUnits="userSpaceOnUse"><path d="M-530.959 243.692h612v-792h-612Z"/></clipPath><clipPath id="h" clipPathUnits="userSpaceOnUse"><use href="#a"/></clipPath><clipPath id="i" clipPathUnits="userSpaceOnUse"><use href="#a"/></clipPath><clipPath id="j" clipPathUnits="userSpaceOnUse"><path d="M-510.017 260.451h612v-792h-612Z"/></clipPath><clipPath id="l" clipPathUnits="userSpaceOnUse"><path d="M-511.83 261.402h612v-792h-612Z"/></clipPath><clipPath id="m" clipPathUnits="userSpaceOnUse"><path d="M-514.378 262.749h612v-792h-612Z"/></clipPath><clipPath id="o" clipPathUnits="userSpaceOnUse"><path d="M-517.093 262.749h612v-792h-612Z"/></clipPath><clipPath id="p" clipPathUnits="userSpaceOnUse"><path d="M-529.128 262.762h612v-792h-612Z"/></clipPath><clipPath id="q" clipPathUnits="userSpaceOnUse"><path d="M-531.668 262.749h612v-792h-612Z"/></clipPath><clipPath id="r" clipPathUnits="userSpaceOnUse"><path d="M-534.383 262.749h612v-792h-612Z"/></clipPath><clipPath id="s" clipPathUnits="userSpaceOnUse"><path d="M-537.098 262.749h612v-792h-612Z"/></clipPath><clipPath id="t" clipPathUnits="userSpaceOnUse"><path d="M-510.086 303.164h612v-792h-612Z"/></clipPath><clipPath id="u" clipPathUnits="userSpaceOnUse"><path d="M-511.883 305.756h612v-792h-612Z"/></clipPath><clipPath id="w" clipPathUnits="userSpaceOnUse"><path d="M-514.378 305.462h612v-792h-612Z"/></clipPath><clipPath id="x" clipPathUnits="userSpaceOnUse"><path d="M-517.093 305.462h612v-792h-612Z"/></clipPath><clipPath id="y" clipPathUnits="userSpaceOnUse"><path d="M-529.528 304.76h612v-792h-612Z"/></clipPath><clipPath id="z" clipPathUnits="userSpaceOnUse"><path d="M-531.57 305.756h612v-792h-612Z"/></clipPath><clipPath id="A" clipPathUnits="userSpaceOnUse"><path d="M-534.065 305.462h612v-792h-612Z"/></clipPath><clipPath id="B" clipPathUnits="userSpaceOnUse"><path d="M-536.78 305.462h612v-792h-612Z"/></clipPath><path id="a" d="M0 792h612V0H0Z"/><path id="e" fill="#575756" d="M0 0q-.158 0-.296.041a.58.58 0 0 0-.392.361.9.9 0 0 0-.057.341v1.589h-.367v.353h.367v.795h.393v-.795h.837v-.353h-.837V.791q0-.244.123-.342A.5.5 0 0 1 .092.353a.8.8 0 0 1 .383.096V.112A1 1 0 0 0 .258.028 1 1 0 0 0 0 0"/><path id="k" fill="#575756" d="m0 0-.539-.167-.077.262.699.24h.24v-2.878H0Z"/><path id="n" fill="#575756" d="M0 0q.2 0 .361.096a.9.9 0 0 1 .274.257q.112.161.171.376.06.214.059.447v.008q0 .232-.061.447-.06.213-.175.378a.9.9 0 0 1-.276.261.7.7 0 0 1-.362.097.7.7 0 0 1-.361-.096.9.9 0 0 1-.274-.256 1.3 1.3 0 0 1-.172-.374 1.6 1.6 0 0 1-.062-.449v-.008q0-.233.062-.448.06-.213.174-.377A.9.9 0 0 1-.363.098.7.7 0 0 1 0 0m-.009-.294a1.07 1.07 0 0 0-.879.435 1.5 1.5 0 0 0-.241.467 1.9 1.9 0 0 0-.084.568v.008q0 .298.086.567a1.5 1.5 0 0 0 .245.472q.16.201.382.32.221.118.5.118.274 0 .496-.116.223-.116.379-.318.158-.202.241-.469.084-.268.084-.566v-.008q0-.303-.086-.57A1.5 1.5 0 0 0 .871.145a1.15 1.15 0 0 0-.382-.321 1.05 1.05 0 0 0-.498-.118"/><path id="v" fill="#575756" d="M0 0q-.358 0-.624.141a1.3 1.3 0 0 0-.441.369l.236.209q.163-.205.366-.315A.95.95 0 0 1 .249.333.56.56 0 0 1 .58.62a.5.5 0 0 1 .049.229v.008q0 .134-.06.237a.5.5 0 0 1-.165.172.8.8 0 0 1-.253.105 1.3 1.3 0 0 1-.322.037h-.184l-.065.193.901 1.015H-.914v.29H.907V2.67l-.894-.996q.188-.016.356-.07a1 1 0 0 0 .3-.151.7.7 0 0 0 .206-.243.7.7 0 0 0 .076-.341V.861A.81.81 0 0 0 .675.238 1 1 0 0 0 .374.063 1.1 1.1 0 0 0 0 0"/><color-profile name="Coated FOGRA39 (ISO 12647-2:2004)"/></defs><g transform="translate(-679.2 -319.867)"><path fill="#9d9c9c" d="m0 0-.365 472.516-487.584.204v.976l488.577-.204-.017-.653L.977 0Z" clip-path="url(#b)" transform="matrix(1.33333 0 0 -1.33333 731.793 941.648)"/><path fill="#575756" d="M0 0h.394v-.444q.065.097.145.188a.87.87 0 0 0 .41.271 1 1 0 0 0 .296.041.88.88 0 0 0 .531-.151 1 1 0 0 0 .317-.375q.071.108.16.204a1 1 0 0 0 .455.281q.14.04.313.041.459 0 .72-.284.26-.282.26-.778v-1.633h-.393v1.545q0 .383-.181.59-.18.208-.502.208a.72.72 0 0 1-.514-.213.7.7 0 0 1-.155-.258 1 1 0 0 1-.056-.347v-1.525h-.393v1.555q0 .373-.181.58a.63.63 0 0 1-.498.208.68.68 0 0 1-.523-.235.9.9 0 0 1-.156-.264 1 1 0 0 1-.055-.335v-1.509H0Z" clip-path="url(#c)" transform="matrix(1.33333 0 0 -1.33333 682.779 321.344)"/><use clip-path="url(#d)" href="#e" transform="matrix(1.33333 0 0 -1.33333 690.406 324.923)"/><path fill="#575756" d="M0 0h-.362v.342H0v.23q0 .449.229.679.205.204.567.204.138 0 .237-.016.1-.015.196-.05v-.342a4 4 0 0 1-.193.048 1 1 0 0 1-.189.017q-.459 0-.459-.56V.337h.837V0H.393v-2.291H0Z" clip-path="url(#f)" transform="matrix(1.33333 0 0 -1.33333 704.469 321.807)"/><use clip-path="url(#g)" href="#e" transform="matrix(1.33333 0 0 -1.33333 707.945 324.923)"/><path fill="#df2e4f" fill-rule="evenodd" d="M519.331 531.991h7.655v-46.909h-7.655z" clip-path="url(#h)" transform="matrix(1.33333 0 0 -1.33333 0 1056)"/><path fill="#f3b7b4" fill-rule="evenodd" d="M519.331 489.185h7.655v-7.658h-7.655z" clip-path="url(#i)" transform="matrix(1.33333 0 0 -1.33333 0 1056)"/><use clip-path="url(#j)" href="#k" transform="matrix(1.33333 0 0 -1.33333 680.022 347.268)"/><path fill="#575756" d="M0 0a1 1 0 0 1 .255.039q.12.04.208.107a.5.5 0 0 1 .139.163.44.44 0 0 1 .051.213v.009a.4.4 0 0 1-.049.196.5.5 0 0 1-.137.157.6.6 0 0 1-.208.104A1 1 0 0 1 0 1.025 1 1 0 0 1-.26.988.7.7 0 0 1-.468.887.5.5 0 0 1-.604.729.4.4 0 0 1-.653.531V.522q0-.118.05-.213A.5.5 0 0 1-.464.146.7.7 0 0 1-.255.039 1 1 0 0 1 0 0m-.002-1.351q.177 0 .314.043a.8.8 0 0 1 .237.117.5.5 0 0 1 .146.169.43.43 0 0 1 .052.206v.008a.4.4 0 0 1-.06.218.54.54 0 0 1-.159.172.8.8 0 0 1-.238.112 1 1 0 0 1-.292.041q-.155 0-.293-.041a.8.8 0 0 1-.239-.112.5.5 0 0 1-.16-.172.43.43 0 0 1-.057-.218v-.008q0-.106.051-.205a.5.5 0 0 1 .147-.17.8.8 0 0 1 .236-.117q.139-.043.315-.043m0-.282q-.228 0-.424.06a1.1 1.1 0 0 0-.341.165.8.8 0 0 0-.225.255.7.7 0 0 0-.082.329v.008q0 .257.165.432.165.176.422.27-.098.045-.188.108a1 1 0 0 0-.156.143.63.63 0 0 0-.145.406v.009q0 .162.08.302a.8.8 0 0 0 .212.241q.133.101.31.157a1.3 1.3 0 0 0 .747 0 1 1 0 0 0 .311-.157.8.8 0 0 0 .212-.241.6.6 0 0 0 .08-.302V.543A.6.6 0 0 0 .937.318.7.7 0 0 0 .83.137a1 1 0 0 0-.158-.143 1 1 0 0 0-.19-.108q.254-.094.42-.27a.6.6 0 0 0 .167-.428V-.82a.7.7 0 0 0-.081-.333.8.8 0 0 0-.226-.255 1.1 1.1 0 0 0-.34-.165 1.5 1.5 0 0 0-.424-.06" clip-path="url(#l)" transform="matrix(1.33333 0 0 -1.33333 682.44 348.536)"/><use clip-path="url(#m)" href="#n" transform="matrix(1.33333 0 0 -1.33333 685.837 350.332)"/><use clip-path="url(#o)" href="#n" transform="matrix(1.33333 0 0 -1.33333 689.457 350.332)"/><path fill="#575756" d="M0 0q.159 0 .286.052.126.051.216.138A.64.64 0 0 1 .69.655v.009a.58.58 0 0 1-.194.438.78.78 0 0 1-.504.176.8.8 0 0 1-.292-.053.7.7 0 0 1-.226-.141.6.6 0 0 1-.145-.201.6.6 0 0 1-.052-.232V.644q0-.136.054-.254A.6.6 0 0 1-.521.185.7.7 0 0 1-.292.05.8.8 0 0 1 0 0m-.004-.281q-.237 0-.427.077a1 1 0 0 0-.324.213 1.1 1.1 0 0 0-.266.42q-.044.13-.069.298a3 3 0 0 0-.024.388v.008q0 .327.08.61.08.284.232.493.153.208.373.328.222.12.503.12.256 0 .457-.085.2-.087.388-.241l-.188-.249a1.4 1.4 0 0 1-.319.208.85.85 0 0 1-.354.073.67.67 0 0 1-.366-.1.8.8 0 0 1-.263-.269 1.3 1.3 0 0 1-.159-.392 2 2 0 0 1-.053-.464v-.04q.142.21.339.327.195.118.477.118.2 0 .379-.062.18-.062.315-.176A.84.84 0 0 0 1.021.68V.672a.9.9 0 0 0-.296-.684Q.588-.138.4-.21a1.1 1.1 0 0 0-.404-.071" clip-path="url(#p)" transform="matrix(1.33333 0 0 -1.33333 705.504 350.349)"/><use clip-path="url(#q)" href="#n" transform="matrix(1.33333 0 0 -1.33333 708.89 350.332)"/><use clip-path="url(#r)" href="#n" transform="matrix(1.33333 0 0 -1.33333 712.51 350.332)"/><use clip-path="url(#s)" href="#n" transform="matrix(1.33333 0 0 -1.33333 716.13 350.332)"/><use clip-path="url(#t)" href="#k" transform="matrix(1.33333 0 0 -1.33333 680.115 404.219)"/><use clip-path="url(#u)" href="#v" transform="matrix(1.33333 0 0 -1.33333 682.51 407.675)"/><use clip-path="url(#w)" href="#n" transform="matrix(1.33333 0 0 -1.33333 685.837 407.283)"/><use clip-path="url(#x)" href="#n" transform="matrix(1.33333 0 0 -1.33333 689.457 407.283)"/><path fill="#575756" d="M0 0v1.474L-1.2 0Zm0-.27h-1.507l-.081.237L.028 1.931h.286V0h.441v-.27H.314v-.677H0Z" clip-path="url(#y)" transform="matrix(1.33333 0 0 -1.33333 706.038 406.346)"/><use clip-path="url(#z)" href="#v" transform="matrix(1.33333 0 0 -1.33333 708.76 407.675)"/><use clip-path="url(#A)" href="#n" transform="matrix(1.33333 0 0 -1.33333 712.086 407.283)"/><use clip-path="url(#B)" href="#n" transform="matrix(1.33333 0 0 -1.33333 715.706 407.283)"/></g></svg>