<svg xmlns="http://www.w3.org/2000/svg" width="28.997" height="42.13" viewBox="0 0 28.997 42.13"><defs><clipPath id="a" clipPathUnits="userSpaceOnUse"><path d="M-258.96 501.91h612v-792h-612Z"/></clipPath><clipPath id="b" clipPathUnits="userSpaceOnUse"><path d="M-26.382 0c0-6.007 4.868-10.876 10.873-10.876 6.007 0 10.874 4.87 10.874 10.876 0 2.316-.723 4.463-1.958 6.227L-15.51 0v10.874c-6.005 0-10.873-4.87-10.873-10.874"/></clipPath><clipPath id="c" clipPathUnits="userSpaceOnUse"><path d="M-548.845 706.236h612v-792h-612Z"/></clipPath><clipPath id="d" clipPathUnits="userSpaceOnUse"><path d="M-262.177 519.367h612v-792h-612Z"/></clipPath><clipPath id="e" clipPathUnits="userSpaceOnUse"><path d="M-264.07 522.634h612v-792h-612Z"/></clipPath><clipPath id="g" clipPathUnits="userSpaceOnUse"><path d="M0 792h612V0H0Z"/></clipPath><clipPath id="h" clipPathUnits="userSpaceOnUse"><path d="M-271.327 520.582h612v-792h-612Z"/></clipPath><clipPath id="i" clipPathUnits="userSpaceOnUse"><path d="M-274.226 522.634h612v-792h-612Z"/></clipPath><clipPath id="j" clipPathUnits="userSpaceOnUse"><path d="M-278.731 522.327h612v-792h-612Z"/></clipPath><color-profile name="Coated FOGRA39 (ISO 12647-2:2004)"/><path id="f" fill="#575756" d="M0 0q-.383 0-.707.161a2.2 2.2 0 0 0-.569.405l.265.291q.236-.229.488-.359t.528-.13q.19 0 .349.061a.8.8 0 0 1 .273.166.75.75 0 0 1 .24.563v.011a.7.7 0 0 1-.25.543.8.8 0 0 1-.281.153 1.33 1.33 0 0 1-.767-.005 2 2 0 0 1-.34-.145l-.27.179.102 1.74h2.053v-.373H-.587l-.077-1.146q.159.07.319.114.161.042.386.042.26 0 .484-.074.225-.073.392-.214a1 1 0 0 0 .26-.343 1.1 1.1 0 0 0 .094-.458v-.011q0-.259-.094-.476a1.1 1.1 0 0 0-.26-.372A1.2 1.2 0 0 0 .515.084 1.5 1.5 0 0 0 0 0"/></defs><g transform="translate(-345.28 -654.715)"><path fill="#006c80" d="M0 0c0 6.004 4.868 10.874 10.874 10.874V0l8.915 6.227A10.8 10.8 0 0 0 21.748 0c0-6.006-4.868-10.876-10.874-10.876S0-6.006 0 0" clip-path="url(#a)" transform="matrix(1.33333 0 0 -1.33333 345.28 669.214)"/><path fill="#d5dde4" fill-rule="evenodd" d="M0 0h-15.509l12.127 8.47s1.255-.558 2.231-4.461S0 0 0 0" clip-path="url(#b)" transform="matrix(1.33333 0 0 -1.33333 380.456 669.214)"/><path fill="#9d9c9c" d="m0 0-.365 472.516-487.584.204v.976l488.577-.204-.017-.653L.977 0Z" clip-path="url(#c)" transform="matrix(1.33333 0 0 -1.33333 731.793 941.648)"/><path fill="#575756" d="M0 0h-1.964v.367H.459V.066l-1.623-3.271h-.448z" clip-path="url(#d)" transform="matrix(1.33333 0 0 -1.33333 349.57 692.49)"/><use clip-path="url(#e)" href="#f" transform="matrix(1.33333 0 0 -1.33333 352.094 696.845)"/><path fill="#575756" d="M266.948 271.168h1.419v-.413h-1.419z" clip-path="url(#g)" transform="matrix(1.33333 0 0 -1.33333 0 1056)"/><path fill="#575756" d="M0 0q.169 0 .319.049.15.048.26.132a.57.57 0 0 1 .237.472v.01a.5.5 0 0 1-.061.245.6.6 0 0 1-.171.196.8.8 0 0 1-.26.131A1.1 1.1 0 0 1 0 1.281a1.1 1.1 0 0 1-.324-.046.8.8 0 0 1-.26-.128.6.6 0 0 1-.171-.196.5.5 0 0 1-.061-.248v-.01q0-.147.064-.268A.6.6 0 0 1-.579.181q.11-.084.26-.132Q-.169-.001 0 0m-.002-1.689q.219 0 .394.053a1 1 0 0 1 .294.146q.12.092.184.212t.064.257v.01q0 .148-.074.274a.7.7 0 0 1-.2.214 1 1 0 0 1-.297.14 1.3 1.3 0 0 1-.365.051q-.195 0-.367-.051a1 1 0 0 1-.299-.14.7.7 0 0 1-.199-.214.54.54 0 0 1-.072-.274v-.01q0-.132.064-.254a.6.6 0 0 1 .184-.215.9.9 0 0 1 .295-.146q.173-.053.394-.053m0-.352q-.286 0-.53.074a1.4 1.4 0 0 0-.426.206 1 1 0 0 0-.282.32.84.84 0 0 0-.102.41v.01q0 .321.206.542.206.218.527.336a1.5 1.5 0 0 0-.234.135q-.112.079-.196.179a.77.77 0 0 0-.181.508v.009q0 .206.1.378.1.174.266.301.165.128.387.197T0 1.633t.467-.069.388-.197q.165-.127.265-.301a.74.74 0 0 0 .1-.378V.679a.77.77 0 0 0-.182-.508A1 1 0 0 0 .84-.008a1.5 1.5 0 0 0-.236-.135q.315-.118.524-.336a.75.75 0 0 0 .209-.537v-.009a.85.85 0 0 0-.102-.416 1 1 0 0 0-.282-.32 1.4 1.4 0 0 0-.426-.206 1.8 1.8 0 0 0-.529-.074" clip-path="url(#h)" transform="matrix(1.33333 0 0 -1.33333 361.769 694.11)"/><use clip-path="url(#i)" href="#f" transform="matrix(1.33333 0 0 -1.33333 365.634 696.845)"/><path fill="#575756" d="M0 0q.108 0 .191.048a.5.5 0 0 1 .146.133.7.7 0 0 1 .095.197.8.8 0 0 1 .033.239v.011a.8.8 0 0 1-.036.247.6.6 0 0 1-.102.199.5.5 0 0 1-.153.133.39.39 0 0 1-.373 0 .5.5 0 0 1-.148-.133.6.6 0 0 1-.094-.196 1 1 0 0 1-.033-.24v-.01q0-.133.036-.248A.6.6 0 0 1-.186.048.4.4 0 0 1 0 0m-.01-.286a.76.76 0 0 0-.579.273 1 1 0 0 0-.222.63v.011a1 1 0 0 0 .225.638.8.8 0 0 0 .254.201q.149.075.332.074a.76.76 0 0 0 .584-.273.9.9 0 0 0 .161-.289A1 1 0 0 0 .801.638v-.01A1 1 0 0 0 .58-.011a.75.75 0 0 0-.59-.275m.082 3.613h.362L-.944 1.454l-1.24-1.699h-.367l1.378 1.862zm-2.184-.245a.4.4 0 0 1-.192-.049.5.5 0 0 1-.145-.132.6.6 0 0 1-.094-.197.8.8 0 0 1-.034-.239v-.011a.8.8 0 0 1 .036-.247.6.6 0 0 1 .102-.199.5.5 0 0 1 .15-.133.4.4 0 0 1 .187-.048q.102 0 .188.048a.44.44 0 0 1 .148.133.6.6 0 0 1 .095.196 1 1 0 0 1 .033.24v.01a.77.77 0 0 1-.14.447.5.5 0 0 1-.151.132.4.4 0 0 1-.183.049m0-1.541a.7.7 0 0 0-.332.074.8.8 0 0 0-.253.199 1 1 0 0 0-.222.63v.01q0 .184.059.348a1 1 0 0 0 .166.291.76.76 0 0 0 .592.275.73.73 0 0 0 .579-.273 1 1 0 0 0 .163-.288q.059-.164.059-.342v-.011q0-.183-.059-.347a1 1 0 0 0-.165-.291.8.8 0 0 0-.256-.201.7.7 0 0 0-.331-.074" clip-path="url(#j)" transform="matrix(1.33333 0 0 -1.33333 371.641 696.436)"/></g></svg>