<svg xmlns="http://www.w3.org/2000/svg" width="29.011" height="42.135" viewBox="0 0 29.011 42.135"><defs><clipPath id="a" clipPathUnits="userSpaceOnUse"><path d="M-157.319 501.91h612v-792h-612Z"/></clipPath><clipPath id="b" clipPathUnits="userSpaceOnUse"><path d="M-10.879-10.878c0-6.01 4.871-10.88 10.878-10.88 6.01 0 10.88 4.87 10.88 10.88 0 1.23-.204 2.412-.58 3.516L0-10.878V0c-6.007 0-10.878-4.87-10.878-10.877"/></clipPath><clipPath id="c" clipPathUnits="userSpaceOnUse"><path d="M-548.845 706.236h612v-792h-612Z"/></clipPath><clipPath id="d" clipPathUnits="userSpaceOnUse"><path d="M-160.003 519.367h612v-792h-612Z"/></clipPath><clipPath id="e" clipPathUnits="userSpaceOnUse"><path d="M-162.208 522.266h612v-792h-612Z"/></clipPath><clipPath id="g" clipPathUnits="userSpaceOnUse"><path d="M0 792h612V0H0Z"/></clipPath><clipPath id="h" clipPathUnits="userSpaceOnUse"><path d="M-169.704 520.582h612v-792h-612Z"/></clipPath><clipPath id="i" clipPathUnits="userSpaceOnUse"><path d="M-172.888 522.266h612v-792h-612Z"/></clipPath><clipPath id="j" clipPathUnits="userSpaceOnUse"><path d="M-177.633 522.327h612v-792h-612Z"/></clipPath><color-profile name="Coated FOGRA39 (ISO 12647-2:2004)"/><path id="f" fill="#575756" d="M0 0q.25 0 .452.119a1.1 1.1 0 0 1 .341.322q.14.2.215.469t.074.559v.01q0 .291-.077.559a1.6 1.6 0 0 1-.219.473q-.143.203-.345.326a.85.85 0 0 1-.451.122.9.9 0 0 1-.452-.119 1.1 1.1 0 0 1-.342-.322 1.6 1.6 0 0 1-.217-.467 2 2 0 0 1-.076-.562v-.01q0-.29.076-.558.077-.268.22-.473.143-.203.347-.326A.86.86 0 0 1 0 0m-.01-.368q-.348 0-.625.145-.279.146-.475.399a1.9 1.9 0 0 0-.301.584q-.105.332-.105.709v.01q0 .373.107.709.108.337.307.59.198.252.477.401.278.147.625.148.342 0 .62-.145.277-.146.475-.399.196-.252.301-.587a2.4 2.4 0 0 0 .104-.707v-.01q0-.377-.107-.711a1.9 1.9 0 0 0-.304-.587A1.5 1.5 0 0 0 .612-.22 1.3 1.3 0 0 0-.01-.368"/></defs><g transform="translate(-209.758 -654.71)"><path fill="#e67a06" d="M0 0c0 6.008 4.871 10.878 10.879 10.878V0l10.299 3.516c.376-1.104.58-2.286.58-3.516 0-6.01-4.87-10.88-10.879-10.88S0-6.01 0 0" clip-path="url(#a)" transform="matrix(1.33333 0 0 -1.33333 209.758 669.214)"/><path fill="#f6d2ac" fill-rule="evenodd" d="M0 0v-10.878l12.051-3.945.279 6.249L9.206-1.17 4.297 1.116Z" clip-path="url(#b)" transform="matrix(1.33333 0 0 -1.33333 224.263 654.71)"/><path fill="#9d9c9c" d="m0 0-.365 472.516-487.584.204v.976l488.577-.204-.017-.653L.977 0Z" clip-path="url(#c)" transform="matrix(1.33333 0 0 -1.33333 731.793 941.648)"/><path fill="#575756" d="M0 0h-1.964v.367H.459V.066l-1.623-3.271h-.448z" clip-path="url(#d)" transform="matrix(1.33333 0 0 -1.33333 213.337 692.49)"/><use clip-path="url(#e)" href="#f" transform="matrix(1.33333 0 0 -1.33333 216.277 696.354)"/><path fill="#575756" d="M165.325 271.168h1.419v-.413h-1.419z" clip-path="url(#g)" transform="matrix(1.33333 0 0 -1.33333 0 1056)"/><path fill="#575756" d="M0 0q.169 0 .319.049.15.048.26.132a.57.57 0 0 1 .237.472v.01a.5.5 0 0 1-.061.245.6.6 0 0 1-.171.196.8.8 0 0 1-.26.131A1.1 1.1 0 0 1 0 1.281a1.1 1.1 0 0 1-.324-.046.8.8 0 0 1-.26-.128.6.6 0 0 1-.171-.196.5.5 0 0 1-.061-.248v-.01q0-.147.064-.268A.6.6 0 0 1-.579.181q.11-.084.26-.132Q-.169-.001 0 0m-.002-1.689q.219 0 .394.053a1 1 0 0 1 .294.146q.12.092.184.212t.064.257v.01q0 .148-.074.274a.7.7 0 0 1-.2.214 1 1 0 0 1-.297.14 1.3 1.3 0 0 1-.365.051q-.195 0-.367-.051a1 1 0 0 1-.299-.14.7.7 0 0 1-.199-.214.54.54 0 0 1-.072-.274v-.01q0-.132.064-.254a.6.6 0 0 1 .184-.215.9.9 0 0 1 .295-.146q.173-.053.394-.053m0-.352q-.286 0-.53.074a1.4 1.4 0 0 0-.426.206 1 1 0 0 0-.282.32.84.84 0 0 0-.102.41v.01q0 .321.206.542.206.218.527.336a1.5 1.5 0 0 0-.234.135q-.112.079-.196.179a.77.77 0 0 0-.181.508v.009q0 .206.1.378.1.174.266.301.165.128.387.197T0 1.633t.467-.069.388-.197q.165-.127.265-.301a.74.74 0 0 0 .1-.378V.679a.77.77 0 0 0-.182-.508A1 1 0 0 0 .84-.008a1.5 1.5 0 0 0-.236-.135q.315-.118.524-.336a.75.75 0 0 0 .209-.537v-.009a.85.85 0 0 0-.102-.416 1 1 0 0 0-.282-.32 1.4 1.4 0 0 0-.426-.206 1.8 1.8 0 0 0-.529-.074" clip-path="url(#h)" transform="matrix(1.33333 0 0 -1.33333 226.271 694.11)"/><use clip-path="url(#i)" href="#f" transform="matrix(1.33333 0 0 -1.33333 230.518 696.354)"/><path fill="#575756" d="M0 0q.108 0 .191.048a.5.5 0 0 1 .146.133.7.7 0 0 1 .095.197.8.8 0 0 1 .033.239v.011a.8.8 0 0 1-.036.247.6.6 0 0 1-.102.199.5.5 0 0 1-.153.133.39.39 0 0 1-.373 0 .5.5 0 0 1-.148-.133.6.6 0 0 1-.094-.196 1 1 0 0 1-.033-.24v-.01q0-.133.036-.248A.6.6 0 0 1-.186.048.4.4 0 0 1 0 0m-.01-.286a.76.76 0 0 0-.579.273 1 1 0 0 0-.222.63v.011a1 1 0 0 0 .225.638.8.8 0 0 0 .254.201q.149.075.332.074a.76.76 0 0 0 .584-.273.9.9 0 0 0 .161-.289A1 1 0 0 0 .801.638v-.01A1 1 0 0 0 .58-.011a.75.75 0 0 0-.59-.275m.082 3.613h.362L-.944 1.454l-1.24-1.699h-.367l1.378 1.862zm-2.184-.245a.4.4 0 0 1-.192-.049.5.5 0 0 1-.145-.132.6.6 0 0 1-.094-.197.8.8 0 0 1-.034-.239v-.011a.8.8 0 0 1 .036-.247.6.6 0 0 1 .102-.199.5.5 0 0 1 .15-.133.4.4 0 0 1 .187-.048q.102 0 .188.048a.44.44 0 0 1 .148.133.6.6 0 0 1 .095.196 1 1 0 0 1 .033.24v.01a.77.77 0 0 1-.14.447.5.5 0 0 1-.151.132.4.4 0 0 1-.183.049m0-1.541a.7.7 0 0 0-.332.074.8.8 0 0 0-.253.199 1 1 0 0 0-.222.63v.01q0 .184.059.348a1 1 0 0 0 .166.291.76.76 0 0 0 .592.275.73.73 0 0 0 .579-.273 1 1 0 0 0 .163-.288q.059-.164.059-.342v-.011q0-.183-.059-.347a1 1 0 0 0-.165-.291.8.8 0 0 0-.256-.201.7.7 0 0 0-.331-.074" clip-path="url(#j)" transform="matrix(1.33333 0 0 -1.33333 236.844 696.436)"/></g></svg>