<svg xmlns="http://www.w3.org/2000/svg" width="31.039" height="48.457" viewBox="0 0 31.039 48.457"><defs><clipPath id="a" clipPathUnits="userSpaceOnUse"><path d="M-209.197 501.911h612v-792h-612Z"/></clipPath><clipPath id="b" clipPathUnits="userSpaceOnUse"><path d="M-548.845 706.236h612v-792h-612Z"/></clipPath><clipPath id="c" clipPathUnits="userSpaceOnUse"><path d="M-215.637 522.281h612v-792h-612Z"/></clipPath><clipPath id="d" clipPathUnits="userSpaceOnUse"><path d="M-218.525 522.634h612v-792h-612Z"/></clipPath><clipPath id="e" clipPathUnits="userSpaceOnUse"><path d="M-223.03 522.327h612v-792h-612Z"/></clipPath><clipPath id="f" clipPathUnits="userSpaceOnUse"><path d="M-207.747 526.445h612v-792h-612Z"/></clipPath><clipPath id="g" clipPathUnits="userSpaceOnUse"><path d="M-210.467 526.716h612v-792h-612Z"/></clipPath><clipPath id="h" clipPathUnits="userSpaceOnUse"><path d="M-213.075 526.363h612v-792h-612Z"/></clipPath><clipPath id="i" clipPathUnits="userSpaceOnUse"><path d="M-214.902 524.016h612v-792h-612Z"/></clipPath><clipPath id="k" clipPathUnits="userSpaceOnUse"><path d="M-218.663 526.705h612v-792h-612Z"/></clipPath><clipPath id="l" clipPathUnits="userSpaceOnUse"><path d="M-220.908 526.7h612v-792h-612Z"/></clipPath><clipPath id="n" clipPathUnits="userSpaceOnUse"><path d="M-222.697 526.4h612v-792h-612Z"/></clipPath><clipPath id="o" clipPathUnits="userSpaceOnUse"><path d="M-224.53 524.016h612v-792h-612Z"/></clipPath><clipPath id="p" clipPathUnits="userSpaceOnUse"><path d="M-228.302 526.7h612v-792h-612Z"/></clipPath><clipPath id="q" clipPathUnits="userSpaceOnUse"><path d="M-229.072 527.113h612v-792h-612Z"/></clipPath><path id="j" fill="#575756" d="M0 0h.393v-.46q.132.216.347.365.214.151.556.151.24 0 .426-.077a.9.9 0 0 0 .317-.216 1 1 0 0 0 .199-.335 1.3 1.3 0 0 0 .069-.429v-1.638h-.393v1.545q0 .368-.189.583-.19.215-.541.215A.8.8 0 0 1 .87-.355a.8.8 0 0 1-.253-.168.8.8 0 0 1-.165-.264 1 1 0 0 1-.059-.338v-1.514H0Z"/><path id="m" fill="#575756" d="M0 0q-.158 0-.296.041a.58.58 0 0 0-.393.361.9.9 0 0 0-.056.341v1.589h-.368v.353h.368v.795h.393v-.795h.837v-.353h-.837V.791q0-.244.123-.342A.5.5 0 0 1 .092.353a.8.8 0 0 1 .383.096V.112A.94.94 0 0 0 0 0"/><color-profile name="Coated FOGRA39 (ISO 12647-2:2004)"/></defs><g transform="translate(-276.507 -654.708)"><path fill="#ffd200" d="M0 0c0 6.008 4.871 10.88 10.88 10.88V0l8.757-6.457a10.87 10.87 0 0 0-8.757-4.423C4.871-10.88 0-6.008 0 0" clip-path="url(#a)" transform="matrix(1.33333 0 0 -1.33333 278.93 669.215)"/><path fill="#9d9c9c" d="m0 0-.365 472.516-487.584.204v.976l488.577-.204-.017-.653L.977 0Z" clip-path="url(#b)" transform="matrix(1.33333 0 0 -1.33333 731.793 941.648)"/><path fill="#575756" d="M0 0q.198 0 .357.063a.8.8 0 0 1 .27.175q.113.11.174.261a.8.8 0 0 1 .061.32v.01a.73.73 0 0 1-.242.548.8.8 0 0 1-.276.161 1 1 0 0 1-.354.059.96.96 0 0 1-.649-.243.8.8 0 0 1-.181-.25.7.7 0 0 1-.063-.291V.804A.77.77 0 0 1-.651.23.9.9 0 0 1-.365.062Q-.199 0 0 0m-.005-.353q-.296 0-.534.098A1.2 1.2 0 0 0-.944.01q-.108.107-.192.235a1.3 1.3 0 0 0-.14.291 2 2 0 0 0-.087.372q-.03.21-.03.485v.01q0 .41.099.763.1.354.291.615.192.26.467.41.276.152.628.152.322 0 .571-.108.25-.107.485-.3l-.235-.312a1.8 1.8 0 0 1-.398.26 1.05 1.05 0 0 1-.444.092.83.83 0 0 1-.456-.125 1.04 1.04 0 0 1-.329-.337 1.6 1.6 0 0 1-.2-.49 2.5 2.5 0 0 1-.066-.579v-.051q.178.262.423.41.246.146.598.146.25 0 .474-.077a1.2 1.2 0 0 0 .393-.22A1.02 1.02 0 0 0 1.275.85V.84q0-.262-.099-.479A1.17 1.17 0 0 0 .5-.263a1.4 1.4 0 0 0-.505-.09" clip-path="url(#c)" transform="matrix(1.33333 0 0 -1.33333 287.516 696.375)"/><path fill="#575756" d="M0 0q-.383 0-.707.161a2.2 2.2 0 0 0-.569.405l.265.291q.236-.229.488-.359t.528-.13q.19 0 .349.061a.8.8 0 0 1 .273.166.75.75 0 0 1 .24.563v.011a.7.7 0 0 1-.25.543.8.8 0 0 1-.281.153 1.33 1.33 0 0 1-.767-.005 2 2 0 0 1-.34-.145l-.27.179.102 1.74h2.053v-.373H-.587l-.077-1.146q.159.07.319.114.161.042.386.042.26 0 .484-.074.225-.073.392-.214a1 1 0 0 0 .26-.343 1.1 1.1 0 0 0 .094-.458v-.011q0-.259-.094-.476a1.1 1.1 0 0 0-.26-.372A1.2 1.2 0 0 0 .515.084 1.5 1.5 0 0 0 0 0" clip-path="url(#d)" transform="matrix(1.33333 0 0 -1.33333 291.367 696.845)"/><path fill="#575756" d="M0 0q.108 0 .191.048a.5.5 0 0 1 .146.133.7.7 0 0 1 .095.197.8.8 0 0 1 .033.239v.011a.8.8 0 0 1-.036.247.6.6 0 0 1-.102.199.5.5 0 0 1-.153.133.39.39 0 0 1-.373 0 .5.5 0 0 1-.148-.133.6.6 0 0 1-.094-.196 1 1 0 0 1-.033-.24v-.01q0-.133.036-.248A.6.6 0 0 1-.186.048.4.4 0 0 1 0 0m-.01-.286a.76.76 0 0 0-.579.273 1 1 0 0 0-.222.63v.011a1 1 0 0 0 .225.638.8.8 0 0 0 .254.201q.149.075.332.074a.76.76 0 0 0 .584-.273.9.9 0 0 0 .161-.289A1 1 0 0 0 .801.638v-.01A1 1 0 0 0 .58-.011a.75.75 0 0 0-.59-.275m.082 3.613h.362L-.944 1.454l-1.24-1.699h-.367l1.378 1.862zm-2.184-.245a.4.4 0 0 1-.192-.049.5.5 0 0 1-.145-.132.6.6 0 0 1-.094-.197.8.8 0 0 1-.034-.239v-.011a.8.8 0 0 1 .036-.247.6.6 0 0 1 .102-.199.5.5 0 0 1 .15-.133.4.4 0 0 1 .187-.048q.102 0 .188.048a.44.44 0 0 1 .148.133.6.6 0 0 1 .095.196 1 1 0 0 1 .033.24v.01a.77.77 0 0 1-.14.447.5.5 0 0 1-.151.132.4.4 0 0 1-.183.049m0-1.541a.7.7 0 0 0-.332.074.8.8 0 0 0-.253.199 1 1 0 0 0-.222.63v.01q0 .184.059.348a1 1 0 0 0 .166.291.76.76 0 0 0 .592.275.73.73 0 0 0 .579-.273 1 1 0 0 0 .163-.288q.059-.164.059-.342v-.011q0-.183-.059-.347a1 1 0 0 0-.165-.291.8.8 0 0 0-.256-.201.7.7 0 0 0-.331-.074" clip-path="url(#e)" transform="matrix(1.33333 0 0 -1.33333 297.374 696.436)"/><path fill="#575756" d="M0 0a2.2 2.2 0 0 0-.367 1.256q0 .708.367 1.255t1.051.928l.169-.259q-.587-.373-.886-.84a1.97 1.97 0 0 1-.298-1.084q0-.618.298-1.085.299-.467.886-.839l-.169-.261Q.367-.546 0 0" clip-path="url(#f)" transform="matrix(1.33333 0 0 -1.33333 276.996 701.927)"/><path fill="#575756" d="M0 0q-.291 0-.539.11a1.34 1.34 0 0 0-.711.733 1.4 1.4 0 0 0-.103.525v.01a1.4 1.4 0 0 0 .386.97A1.33 1.33 0 0 0 0 2.756q.189 0 .342-.036.153-.037.281-.101.127-.066.234-.153.108-.088.199-.185l-.26-.275a2 2 0 0 1-.344.28.85.85 0 0 1-.457.118.9.9 0 0 1-.372-.079.9.9 0 0 1-.302-.217 1 1 0 0 1-.199-.323 1.1 1.1 0 0 1-.071-.399v-.01A1.06 1.06 0 0 1-.671.65.92.92 0 0 1 .021.353q.254 0 .451.112.196.111.355.28l.25-.234A1.7 1.7 0 0 0 .625.144 1.25 1.25 0 0 0 0 0" clip-path="url(#g)" transform="matrix(1.33333 0 0 -1.33333 280.623 702.288)"/><path fill="#575756" d="M0 0a.94.94 0 0 1 .699.3 1.06 1.06 0 0 1 .271.713v.01q0 .214-.074.4-.075.186-.207.325a1 1 0 0 1-.311.222.9.9 0 0 1-.388.082.94.94 0 0 1-.697-.301 1.1 1.1 0 0 1-.268-.718v-.01A1.06 1.06 0 0 1-.696.3 1 1 0 0 1-.388.081.9.9 0 0 1 0 0m-.01-.353q-.297 0-.546.111a1.34 1.34 0 0 0-.822 1.258v.009q0 .282.102.532.103.249.286.438a1.35 1.35 0 0 0 .99.408 1.37 1.37 0 0 0 .985-.405 1.35 1.35 0 0 0 .388-.962v-.011q0-.28-.105-.53a1.35 1.35 0 0 0-.727-.737A1.4 1.4 0 0 0-.01-.353" clip-path="url(#h)" transform="matrix(1.33333 0 0 -1.33333 284.1 701.818)"/><use clip-path="url(#i)" href="#j" transform="matrix(1.33333 0 0 -1.33333 286.536 698.687)"/><path fill="#575756" d="M0 0q-.286 0-.577.104-.29.105-.515.284l.199.28a1.8 1.8 0 0 1 .446-.25Q-.215.331.021.331q.239 0 .392.112A.36.36 0 0 1 .566.75v.01a.28.28 0 0 1-.053.169.5.5 0 0 1-.146.125 1 1 0 0 1-.211.093q-.12.041-.248.078-.153.045-.308.099-.156.052-.281.135a.7.7 0 0 0-.204.204.55.55 0 0 0-.079.307v.009q0 .17.066.309a.7.7 0 0 0 .186.24q.12.1.286.154t.36.053q.245 0 .495-.079t.454-.212l-.179-.296a1.8 1.8 0 0 1-.385.186 1.2 1.2 0 0 1-.396.069.58.58 0 0 1-.372-.109.34.34 0 0 1-.138-.273v-.01q0-.092.056-.161a.5.5 0 0 1 .151-.121q.095-.05.216-.091a6 6 0 0 1 .256-.081q.153-.048.304-.103.15-.056.272-.142a.7.7 0 0 0 .197-.21.6.6 0 0 0 .074-.301v-.01A.74.74 0 0 0 .865.456.8.8 0 0 0 .666.209.9.9 0 0 0 .37.054 1.2 1.2 0 0 0 0 0" clip-path="url(#k)" transform="matrix(1.33333 0 0 -1.33333 291.55 702.273)"/><use clip-path="url(#l)" href="#m" transform="matrix(1.33333 0 0 -1.33333 294.544 702.267)"/><path fill="#575756" d="M0 0q.183 0 .343.054t.28.148.188.225A.6.6 0 0 1 .88.715V.97a5 5 0 0 1-.338.077 2.5 2.5 0 0 1-.435.035q-.372 0-.57-.147A.48.48 0 0 1-.661.536v-.01q0-.123.053-.222A.5.5 0 0 1-.463.138.7.7 0 0 1-.252.036 1 1 0 0 1 0 0m-.08-.311q-.183 0-.359.051a1 1 0 0 0-.317.156.73.73 0 0 0-.308.615v.01q0 .209.081.368a.74.74 0 0 0 .233.264q.15.108.357.163.206.057.456.057.255 0 .444-.03.19-.031.368-.082v.091q0 .355-.207.535t-.579.18q-.234 0-.426-.053a2.4 2.4 0 0 1-.375-.141l-.118.323q.22.105.444.163.225.06.516.06.561 0 .852-.291.27-.27.27-.771V-.255H.875v.399a1.3 1.3 0 0 0-.37-.317A1.13 1.13 0 0 0-.08-.311" clip-path="url(#n)" transform="matrix(1.33333 0 0 -1.33333 296.93 701.866)"/><use clip-path="url(#o)" href="#j" transform="matrix(1.33333 0 0 -1.33333 299.374 698.687)"/><use clip-path="url(#p)" href="#m" transform="matrix(1.33333 0 0 -1.33333 304.403 702.267)"/><path fill="#575756" d="M0 0q.587.372.886.839.298.467.298 1.085 0 .616-.298 1.084-.299.467-.886.84l.168.259q.685-.381 1.052-.928t.367-1.255q0-.71-.367-1.256Q.853.123.168-.261Z" clip-path="url(#q)" transform="matrix(1.33333 0 0 -1.33333 305.43 702.818)"/></g></svg>