<svg xmlns="http://www.w3.org/2000/svg" width="29.264" height="42.264" viewBox="0 0 29.264 42.264"><defs><clipPath id="a" clipPathUnits="userSpaceOnUse"><path d="M-309.678 501.91h612v-792h-612Z"/></clipPath><clipPath id="b" clipPathUnits="userSpaceOnUse"><path d="M-10.87-12.052c0-6.062 4.913-10.976 10.974-10.976 6.06 0 10.974 4.914 10.974 10.976 0 4.88-3.185 9.014-7.59 10.441L.002-12.074v10.996C-6.013-1.134-10.87-6.027-10.87-12.052"/></clipPath><clipPath id="c" clipPathUnits="userSpaceOnUse"><path d="M-548.845 706.236h612v-792h-612Z"/></clipPath><clipPath id="d" clipPathUnits="userSpaceOnUse"><path d="M-312.11 520.582h612v-792h-612Z"/></clipPath><clipPath id="e" clipPathUnits="userSpaceOnUse"><path d="M-315.008 522.634h612v-792h-612Z"/></clipPath><clipPath id="g" clipPathUnits="userSpaceOnUse"><path d="M0 792h612V0H0Z"/></clipPath><clipPath id="h" clipPathUnits="userSpaceOnUse"><path d="M-322.27 520.919h612v-792h-612Z"/></clipPath><clipPath id="i" clipPathUnits="userSpaceOnUse"><path d="M-325.225 522.634h612v-792h-612Z"/></clipPath><clipPath id="j" clipPathUnits="userSpaceOnUse"><path d="M-329.731 522.327h612v-792h-612Z"/></clipPath><color-profile name="Coated FOGRA39 (ISO 12647-2:2004)"/><path id="f" fill="#575756" d="M0 0q-.382 0-.706.161a2.2 2.2 0 0 0-.569.405l.265.291q.234-.229.488-.359a1.1 1.1 0 0 1 .528-.13 1 1 0 0 1 .349.061.8.8 0 0 1 .273.166.76.76 0 0 1 .24.563v.011a.7.7 0 0 1-.25.543.8.8 0 0 1-.281.153 1.33 1.33 0 0 1-.768-.005 2 2 0 0 1-.34-.145l-.27.179.103 1.74h2.053v-.373H-.587l-.076-1.146q.158.07.319.114.161.042.385.042.26 0 .485-.074.224-.073.392-.214a1 1 0 0 0 .26-.343 1.1 1.1 0 0 0 .093-.458v-.011q0-.259-.093-.476a1.1 1.1 0 0 0-.26-.372A1.2 1.2 0 0 0 .516.084 1.5 1.5 0 0 0 0 0"/></defs><g transform="translate(-412.904 -654.581)"><path fill="#009d79" d="M0 0c0 6.026 4.857 10.918 10.87 10.974V-.022l3.488 10.463C18.763 9.014 21.947 4.88 21.947 0c0-6.062-4.912-10.976-10.973-10.976S0-6.062 0 0" clip-path="url(#a)" transform="matrix(1.33333 0 0 -1.33333 412.904 669.214)"/><path fill="#b9d7c9" fill-rule="evenodd" d="M0 0v-12.074l12.237 8.675L6.072-.211z" clip-path="url(#b)" transform="matrix(1.33333 0 0 -1.33333 427.397 653.144)"/><path fill="#9d9c9c" d="m0 0-.365 472.516-487.584.204v.976l488.577-.204-.017-.653L.977 0Z" clip-path="url(#c)" transform="matrix(1.33333 0 0 -1.33333 731.793 941.648)"/><path fill="#575756" d="M0 0q.169 0 .319.049.15.048.26.132a.57.57 0 0 1 .237.472v.01a.5.5 0 0 1-.061.245.6.6 0 0 1-.171.196.8.8 0 0 1-.26.131q-.15.046-.324.046-.173 0-.324-.046a.8.8 0 0 1-.26-.128.6.6 0 0 1-.171-.196.5.5 0 0 1-.061-.248v-.01A.57.57 0 0 1-.579.181q.11-.084.26-.132Q-.169-.001 0 0m-.003-1.689q.22 0 .395.053a.9.9 0 0 1 .294.146q.12.092.184.212t.064.257v.01q0 .148-.075.274a.7.7 0 0 1-.199.214 1 1 0 0 1-.297.14 1.3 1.3 0 0 1-.366.051q-.194 0-.365-.051a1 1 0 0 1-.3-.14.7.7 0 0 1-.199-.214.54.54 0 0 1-.071-.274v-.01q0-.132.063-.254A.64.64 0 0 1-.69-1.49a.9.9 0 0 1 .294-.146q.174-.053.393-.053m0-.352a1.8 1.8 0 0 0-.529.074 1.4 1.4 0 0 0-.426.206 1 1 0 0 0-.282.32.8.8 0 0 0-.102.41v.01q0 .321.206.542.207.218.528.336a1.4 1.4 0 0 0-.235.135q-.112.079-.196.179a.8.8 0 0 0-.181.508v.009q0 .206.1.378.1.174.266.301.165.128.387.197T0 1.633t.467-.069.387-.197q.167-.127.266-.301a.74.74 0 0 0 .1-.378V.679a.8.8 0 0 0-.049-.281.7.7 0 0 0-.134-.227A1 1 0 0 0 .84-.008a1.5 1.5 0 0 0-.236-.135q.315-.118.524-.336a.75.75 0 0 0 .209-.537v-.009a.85.85 0 0 0-.102-.416 1 1 0 0 0-.283-.32 1.4 1.4 0 0 0-.425-.206 1.8 1.8 0 0 0-.53-.074" clip-path="url(#d)" transform="matrix(1.33333 0 0 -1.33333 416.146 694.11)"/><use clip-path="url(#e)" href="#f" transform="matrix(1.33333 0 0 -1.33333 420.01 696.845)"/><path fill="#575756" d="M317.887 271.168h1.418v-.413h-1.418z" clip-path="url(#g)" transform="matrix(1.33333 0 0 -1.33333 0 1056)"/><path fill="#575756" d="M0 0a1 1 0 0 1 .37.069Q.535.138.651.25a.78.78 0 0 1 .238.557v.009a.77.77 0 0 1-.253.575.9.9 0 0 1-.288.173 1 1 0 0 1-.369.064.9.9 0 0 1-.359-.069.8.8 0 0 1-.438-.449.9.9 0 0 1-.06-.319v-.01q0-.168.065-.314A.7.7 0 0 1-.635.22.8.8 0 0 1-.357.059Q-.193 0 0 0m-.097-1.347q.26 0 .457.125t.331.331q.136.207.205.475t.069.559v.072a1.3 1.3 0 0 0-.416-.414 1.1 1.1 0 0 0-.595-.153q-.274 0-.505.081a1.1 1.1 0 0 0-.392.23q-.165.148-.256.353a1.1 1.1 0 0 0-.092.443v.011a1.19 1.19 0 0 0 .763 1.12q.238.093.523.094.306 0 .536-.097a1.3 1.3 0 0 0 .404-.271 1.4 1.4 0 0 0 .323-.525q.12-.321.12-.858V.22q0-.423-.107-.782a1.9 1.9 0 0 0-.303-.612 1.4 1.4 0 0 0-.47-.397 1.3 1.3 0 0 0-.604-.144q-.354 0-.614.125a2.5 2.5 0 0 0-.489.315l.234.31a1.8 1.8 0 0 1 .429-.288q.21-.093.449-.094" clip-path="url(#h)" transform="matrix(1.33333 0 0 -1.33333 429.694 694.559)"/><use clip-path="url(#i)" href="#f" transform="matrix(1.33333 0 0 -1.33333 433.633 696.845)"/><path fill="#575756" d="M0 0q.107 0 .191.048a.5.5 0 0 1 .146.133q.06.084.094.197a.8.8 0 0 1 .033.239v.011a1 1 0 0 1-.035.247.7.7 0 0 1-.103.199.5.5 0 0 1-.153.133.38.38 0 0 1-.372 0 .5.5 0 0 1-.149-.133.6.6 0 0 1-.093-.196.8.8 0 0 1-.034-.24v-.01q0-.133.036-.248A.6.6 0 0 1-.337.181a.6.6 0 0 1 .15-.133A.4.4 0 0 1 0 0m-.011-.286a.7.7 0 0 0-.326.074.8.8 0 0 0-.253.199 1 1 0 0 0-.222.63v.011q0 .182.059.347a1 1 0 0 0 .166.291.8.8 0 0 0 .255.201q.148.075.332.074a.76.76 0 0 0 .584-.273.9.9 0 0 0 .161-.289Q.801.817.801.638v-.01Q.801.444.742.28a1 1 0 0 0-.163-.291.76.76 0 0 0-.59-.275m.082 3.613h.363L-.944 1.454-2.185-.245h-.367l1.378 1.862zm-2.184-.245a.4.4 0 0 1-.192-.049.5.5 0 0 1-.145-.132.7.7 0 0 1-.094-.197.8.8 0 0 1-.033-.239v-.011q0-.132.035-.247a.6.6 0 0 1 .103-.199.5.5 0 0 1 .15-.133.39.39 0 0 1 .375 0 .5.5 0 0 1 .148.133.6.6 0 0 1 .094.196.8.8 0 0 1 .033.24v.01a.77.77 0 0 1-.139.447.5.5 0 0 1-.152.132.4.4 0 0 1-.183.049m0-1.541a.76.76 0 0 0-.584.273 1 1 0 0 0-.222.63v.01q0 .184.059.348a.9.9 0 0 0 .166.291.75.75 0 0 0 .591.275q.18 0 .327-.074a.8.8 0 0 0 .253-.199 1 1 0 0 0 .163-.288q.058-.164.058-.342v-.011q0-.183-.058-.347a1 1 0 0 0-.166-.291.8.8 0 0 0-.255-.201.7.7 0 0 0-.332-.074" clip-path="url(#j)" transform="matrix(1.33333 0 0 -1.33333 439.642 696.436)"/></g></svg>