<svg xmlns="http://www.w3.org/2000/svg" width="29.313" height="42.288" viewBox="0 0 29.313 42.288"><defs><clipPath id="a" clipPathUnits="userSpaceOnUse"><path d="M-360.477 501.91h612v-792h-612Z"/></clipPath><clipPath id="b" clipPathUnits="userSpaceOnUse"><path d="M-10.992 0c0-6.072 4.921-10.994 10.992-10.994S10.993-6.072 10.993 0c0 3.646-1.775 6.88-4.51 8.878L0 0v10.992C-6.07 10.992-10.992 6.07-10.992 0"/></clipPath><clipPath id="c" clipPathUnits="userSpaceOnUse"><path d="M-548.845 706.236h612v-792h-612Z"/></clipPath><clipPath id="d" clipPathUnits="userSpaceOnUse"><path d="M-363.231 519.367h612v-792h-612Z"/></clipPath><clipPath id="e" clipPathUnits="userSpaceOnUse"><path d="M-365.437 522.266h612v-792h-612Z"/></clipPath><clipPath id="g" clipPathUnits="userSpaceOnUse"><path d="M0 792h612V0H0Z"/></clipPath><clipPath id="h" clipPathUnits="userSpaceOnUse"><path d="M-372.938 520.919h612v-792h-612Z"/></clipPath><clipPath id="i" clipPathUnits="userSpaceOnUse"><path d="M-376.203 522.266h612v-792h-612Z"/></clipPath><clipPath id="j" clipPathUnits="userSpaceOnUse"><path d="M-380.95 522.327h612v-792h-612Z"/></clipPath><color-profile name="Coated FOGRA39 (ISO 12647-2:2004)"/><path id="f" fill="#575756" d="M0 0q.25 0 .451.119.202.12.343.322.14.2.214.469t.074.559v.01q0 .291-.077.559a1.6 1.6 0 0 1-.219.473q-.143.203-.345.326a.85.85 0 0 1-.451.122.9.9 0 0 1-.452-.119 1.1 1.1 0 0 1-.342-.322 1.6 1.6 0 0 1-.217-.467 2 2 0 0 1-.077-.562v-.01q.001-.29.077-.558.077-.268.22-.473.143-.203.347-.326A.86.86 0 0 1 0 0m-.01-.368a1.35 1.35 0 0 0-1.1.544 1.8 1.8 0 0 0-.301.584 2.4 2.4 0 0 0-.105.709v.01q0 .373.108.709.107.337.305.59.2.252.478.401.279.147.625.148.342 0 .62-.145.279-.146.475-.399.196-.252.301-.587.105-.333.104-.707v-.01q0-.377-.106-.711A1.9 1.9 0 0 0 1.09.181 1.5 1.5 0 0 0 .612-.22 1.3 1.3 0 0 0-.01-.368"/></defs><g transform="translate(-480.636 -654.558)"><path fill="#008ac6" d="M0 0c0 6.07 4.921 10.992 10.992 10.992V0l6.482 8.879c2.735-2 4.511-5.233 4.511-8.879 0-6.072-4.922-10.994-10.993-10.994S0-6.072 0 0" clip-path="url(#a)" transform="matrix(1.33333 0 0 -1.33333 480.636 669.214)"/><path fill="#b5cdea" fill-rule="evenodd" d="m0 0 16.12-5.135-8.239 15.929Z" clip-path="url(#b)" transform="matrix(1.33333 0 0 -1.33333 495.292 669.214)"/><path fill="#9d9c9c" d="m0 0-.365 472.516-487.584.204v.976l488.577-.204-.017-.653L.977 0Z" clip-path="url(#c)" transform="matrix(1.33333 0 0 -1.33333 731.793 941.648)"/><path fill="#575756" d="M0 0h-1.965v.367H.459V.066l-1.622-3.271h-.449z" clip-path="url(#d)" transform="matrix(1.33333 0 0 -1.33333 484.309 692.49)"/><use clip-path="url(#e)" href="#f" transform="matrix(1.33333 0 0 -1.33333 487.249 696.354)"/><path fill="#575756" d="M368.554 271.168h1.418v-.413h-1.418z" clip-path="url(#g)" transform="matrix(1.33333 0 0 -1.33333 0 1056)"/><path fill="#575756" d="M0 0a1 1 0 0 1 .37.069Q.535.138.651.25a.78.78 0 0 1 .238.557v.009a.77.77 0 0 1-.253.575.9.9 0 0 1-.288.173 1 1 0 0 1-.368.064.9.9 0 0 1-.36-.069.8.8 0 0 1-.438-.449.9.9 0 0 1-.06-.319v-.01q0-.168.065-.314A.7.7 0 0 1-.635.22.8.8 0 0 1-.357.059Q-.193 0 0 0m-.097-1.347q.262 0 .457.125.197.125.331.331.136.207.205.475t.069.559v.072a1.3 1.3 0 0 0-.416-.414 1.1 1.1 0 0 0-.595-.153q-.274 0-.505.081a1.1 1.1 0 0 0-.392.23q-.165.148-.256.353a1.1 1.1 0 0 0-.092.443v.011a1.19 1.19 0 0 0 .763 1.12q.238.093.523.094.306 0 .536-.097a1.3 1.3 0 0 0 .404-.271 1.4 1.4 0 0 0 .323-.525q.12-.321.12-.858V.22q0-.423-.107-.782a1.9 1.9 0 0 0-.303-.612 1.4 1.4 0 0 0-.47-.397 1.3 1.3 0 0 0-.604-.144q-.354 0-.614.125a2.5 2.5 0 0 0-.489.315l.234.31a1.8 1.8 0 0 1 .429-.288q.21-.093.449-.094" clip-path="url(#h)" transform="matrix(1.33333 0 0 -1.33333 497.25 694.559)"/><use clip-path="url(#i)" href="#f" transform="matrix(1.33333 0 0 -1.33333 501.604 696.354)"/><path fill="#575756" d="M0 0q.107 0 .191.048a.5.5 0 0 1 .146.133q.06.084.094.197a.8.8 0 0 1 .033.239v.011a1 1 0 0 1-.035.247.7.7 0 0 1-.103.199.5.5 0 0 1-.153.133.38.38 0 0 1-.372 0 .5.5 0 0 1-.149-.133.6.6 0 0 1-.093-.196.8.8 0 0 1-.034-.24v-.01q0-.133.036-.248A.6.6 0 0 1-.337.181a.6.6 0 0 1 .15-.133A.4.4 0 0 1 0 0m-.011-.286a.7.7 0 0 0-.326.074.8.8 0 0 0-.253.199 1 1 0 0 0-.222.63v.011q0 .182.059.347a1 1 0 0 0 .166.291.8.8 0 0 0 .255.201q.148.075.332.074a.76.76 0 0 0 .584-.273.9.9 0 0 0 .161-.289Q.801.817.801.638v-.01Q.801.444.742.28a1 1 0 0 0-.163-.291.76.76 0 0 0-.59-.275m.082 3.613h.363L-.944 1.454-2.185-.245h-.367l1.378 1.862zm-2.184-.245a.4.4 0 0 1-.192-.049.5.5 0 0 1-.145-.132.7.7 0 0 1-.094-.197.8.8 0 0 1-.033-.239v-.011q0-.132.035-.247a.6.6 0 0 1 .103-.199.5.5 0 0 1 .15-.133.39.39 0 0 1 .375 0 .5.5 0 0 1 .148.133.6.6 0 0 1 .094.196.8.8 0 0 1 .033.24v.01a.77.77 0 0 1-.139.447.5.5 0 0 1-.152.132.4.4 0 0 1-.183.049m0-1.541a.76.76 0 0 0-.584.273 1 1 0 0 0-.222.63v.01q0 .184.059.348a.9.9 0 0 0 .166.291.75.75 0 0 0 .591.275q.18 0 .327-.074a.8.8 0 0 0 .253-.199 1 1 0 0 0 .163-.288q.058-.164.058-.342v-.011q0-.183-.058-.347a1 1 0 0 0-.166-.291.8.8 0 0 0-.255-.201.7.7 0 0 0-.332-.074" clip-path="url(#j)" transform="matrix(1.33333 0 0 -1.33333 507.932 696.436)"/></g></svg>