<svg xmlns="http://www.w3.org/2000/svg" width="29.011" height="42.135" viewBox="0 0 29.011 42.135"><defs><clipPath id="a" clipPathUnits="userSpaceOnUse"><path d="M-411.409 501.91h612v-792h-612Z"/></clipPath><clipPath id="b" clipPathUnits="userSpaceOnUse"><path d="M-10.879-10.878c0-6.01 4.87-10.88 10.88-10.88 6.007 0 10.877 4.87 10.877 10.88 0 1.23-.204 2.412-.579 3.516L0-10.878V0c-6.009 0-10.879-4.87-10.879-10.878"/></clipPath><clipPath id="c" clipPathUnits="userSpaceOnUse"><path d="M-548.845 706.236h612v-792h-612Z"/></clipPath><clipPath id="d" clipPathUnits="userSpaceOnUse"><path d="M-414.093 519.367h612v-792h-612Z"/></clipPath><clipPath id="e" clipPathUnits="userSpaceOnUse"><path d="M-416.298 522.266h612v-792h-612Z"/></clipPath><clipPath id="g" clipPathUnits="userSpaceOnUse"><path d="M0 792h612V0H0Z"/></clipPath><clipPath id="h" clipPathUnits="userSpaceOnUse"><path d="M-423.794 520.582h612v-792h-612Z"/></clipPath><clipPath id="i" clipPathUnits="userSpaceOnUse"><path d="M-426.978 522.266h612v-792h-612Z"/></clipPath><clipPath id="j" clipPathUnits="userSpaceOnUse"><path d="M-431.724 522.327h612v-792h-612Z"/></clipPath><color-profile name="Coated FOGRA39 (ISO 12647-2:2004)"/><path id="f" fill="#575756" d="M0 0q.25 0 .451.119.202.12.343.322.14.2.214.469t.074.559v.01q0 .291-.077.559a1.6 1.6 0 0 1-.219.473q-.143.203-.345.326a.85.85 0 0 1-.451.122.9.9 0 0 1-.452-.119 1.1 1.1 0 0 1-.342-.322 1.6 1.6 0 0 1-.217-.467 2 2 0 0 1-.077-.562v-.01q.001-.29.077-.558.077-.268.22-.473.143-.203.347-.326A.86.86 0 0 1 0 0m-.01-.368a1.35 1.35 0 0 0-1.1.544 1.8 1.8 0 0 0-.301.584 2.4 2.4 0 0 0-.105.709v.01q0 .373.108.709.107.337.305.59.2.252.478.401.279.147.625.148.342 0 .62-.145.279-.146.475-.399.196-.252.301-.587.105-.333.104-.707v-.01q0-.377-.106-.711A1.9 1.9 0 0 0 1.09.181 1.5 1.5 0 0 0 .612-.22 1.3 1.3 0 0 0-.01-.368"/></defs><g transform="translate(-548.545 -654.71)"><path fill="#991b7f" d="M0 0c0 6.008 4.87 10.878 10.879 10.878V0l10.299 3.516c.376-1.104.58-2.286.58-3.516 0-6.01-4.871-10.88-10.879-10.88C4.87-10.88 0-6.01 0 0" clip-path="url(#a)" transform="matrix(1.33333 0 0 -1.33333 548.545 669.214)"/><path fill="#d2aace" fill-rule="evenodd" d="M0 0v-10.878l12.051-3.945.279 6.249L9.205-1.17 4.296 1.116Z" clip-path="url(#b)" transform="matrix(1.33333 0 0 -1.33333 563.05 654.71)"/><path fill="#9d9c9c" d="m0 0-.365 472.516-487.584.204v.976l488.577-.204-.017-.653L.977 0Z" clip-path="url(#c)" transform="matrix(1.33333 0 0 -1.33333 731.793 941.648)"/><path fill="#575756" d="M0 0h-1.965v.367H.459V.066l-1.622-3.271h-.449z" clip-path="url(#d)" transform="matrix(1.33333 0 0 -1.33333 552.124 692.49)"/><use clip-path="url(#e)" href="#f" transform="matrix(1.33333 0 0 -1.33333 555.064 696.354)"/><path fill="#575756" d="M419.415 271.168h1.418v-.413h-1.418z" clip-path="url(#g)" transform="matrix(1.33333 0 0 -1.33333 0 1056)"/><path fill="#575756" d="M0 0q.169 0 .319.049.15.048.26.132a.57.57 0 0 1 .237.472v.01a.5.5 0 0 1-.061.245.6.6 0 0 1-.171.196.8.8 0 0 1-.26.131q-.15.046-.324.046-.173 0-.324-.046a.8.8 0 0 1-.26-.128.6.6 0 0 1-.171-.196.5.5 0 0 1-.061-.248v-.01A.57.57 0 0 1-.579.181q.11-.084.26-.132Q-.169-.001 0 0m-.003-1.689q.22 0 .395.053a.9.9 0 0 1 .294.146q.12.092.184.212t.064.257v.01q0 .148-.075.274a.7.7 0 0 1-.199.214 1 1 0 0 1-.297.14 1.3 1.3 0 0 1-.366.051q-.194 0-.365-.051a1 1 0 0 1-.3-.14.7.7 0 0 1-.199-.214.54.54 0 0 1-.071-.274v-.01q0-.132.063-.254A.64.64 0 0 1-.69-1.49a.9.9 0 0 1 .294-.146q.174-.053.393-.053m0-.352a1.8 1.8 0 0 0-.529.074 1.4 1.4 0 0 0-.426.206 1 1 0 0 0-.282.32.8.8 0 0 0-.102.41v.01q0 .321.206.542.207.218.528.336a1.4 1.4 0 0 0-.235.135q-.112.079-.196.179a.8.8 0 0 0-.181.508v.009q0 .206.1.378.1.174.266.301.165.128.387.197T0 1.633t.467-.069.387-.197q.167-.127.266-.301a.74.74 0 0 0 .1-.378V.679a.8.8 0 0 0-.049-.281.7.7 0 0 0-.134-.227A1 1 0 0 0 .84-.008a1.5 1.5 0 0 0-.236-.135q.315-.118.524-.336a.75.75 0 0 0 .209-.537v-.009a.85.85 0 0 0-.102-.416 1 1 0 0 0-.283-.32 1.4 1.4 0 0 0-.425-.206 1.8 1.8 0 0 0-.53-.074" clip-path="url(#h)" transform="matrix(1.33333 0 0 -1.33333 565.059 694.11)"/><use clip-path="url(#i)" href="#f" transform="matrix(1.33333 0 0 -1.33333 569.303 696.354)"/><path fill="#575756" d="M0 0q.107 0 .191.048a.5.5 0 0 1 .146.133q.06.084.094.197a.8.8 0 0 1 .033.239v.011a1 1 0 0 1-.035.247.7.7 0 0 1-.103.199.5.5 0 0 1-.153.133.38.38 0 0 1-.372 0 .5.5 0 0 1-.149-.133.6.6 0 0 1-.093-.196.8.8 0 0 1-.034-.24v-.01q0-.133.036-.248A.6.6 0 0 1-.337.181a.6.6 0 0 1 .15-.133A.4.4 0 0 1 0 0m-.011-.286a.7.7 0 0 0-.326.074.8.8 0 0 0-.253.199 1 1 0 0 0-.222.63v.011q0 .182.059.347a1 1 0 0 0 .166.291.8.8 0 0 0 .255.201q.148.075.332.074a.76.76 0 0 0 .584-.273.9.9 0 0 0 .161-.289Q.801.817.801.638v-.01Q.801.444.742.28a1 1 0 0 0-.163-.291.76.76 0 0 0-.59-.275m.082 3.613h.363L-.944 1.454-2.185-.245h-.367l1.378 1.862zm-2.184-.245a.4.4 0 0 1-.192-.049.5.5 0 0 1-.145-.132.7.7 0 0 1-.094-.197.8.8 0 0 1-.033-.239v-.011q0-.132.035-.247a.6.6 0 0 1 .103-.199.5.5 0 0 1 .15-.133.39.39 0 0 1 .375 0 .5.5 0 0 1 .148.133.6.6 0 0 1 .094.196.8.8 0 0 1 .033.24v.01a.77.77 0 0 1-.139.447.5.5 0 0 1-.152.132.4.4 0 0 1-.183.049m0-1.541a.76.76 0 0 0-.584.273 1 1 0 0 0-.222.63v.01q0 .184.059.348a.9.9 0 0 0 .166.291.75.75 0 0 0 .591.275q.18 0 .327-.074a.8.8 0 0 0 .253-.199 1 1 0 0 0 .163-.288q.058-.164.058-.342v-.011q0-.183-.058-.347a1 1 0 0 0-.166-.291.8.8 0 0 0-.255-.201.7.7 0 0 0-.332-.074" clip-path="url(#j)" transform="matrix(1.33333 0 0 -1.33333 575.631 696.436)"/></g></svg>