<svg xmlns="http://www.w3.org/2000/svg" width="32.003" height="93.968" viewBox="0 0 32.003 93.968"><defs><clipPath id="a" clipPathUnits="userSpaceOnUse"><path d="M-548.845 706.236h612v-792h-612Z"/></clipPath><clipPath id="b" clipPathUnits="userSpaceOnUse"><path d="M-204.709 318.26h612v-792h-612Z"/></clipPath><clipPath id="d" clipPathUnits="userSpaceOnUse"><path d="M-209.547 318.26h612v-792h-612Z"/></clipPath><clipPath id="e" clipPathUnits="userSpaceOnUse"><path d="M0 792h612V0H0Z"/></clipPath><clipPath id="f" clipPathUnits="userSpaceOnUse"><path d="M-225.603 318.26h612v-792h-612Z"/></clipPath><clipPath id="g" clipPathUnits="userSpaceOnUse"><path d="M-214.769 372.904h612v-792h-612Z"/></clipPath><clipPath id="h" clipPathUnits="userSpaceOnUse"><path d="M-214.769 377.786h612v-792h-612Z"/></clipPath><clipPath id="i" clipPathUnits="userSpaceOnUse"><path d="M-207.23 379.255h612v-792h-612Z"/></clipPath><clipPath id="k" clipPathUnits="userSpaceOnUse"><path d="M-209.777 380.602h612v-792h-612Z"/></clipPath><clipPath id="m" clipPathUnits="userSpaceOnUse"><path d="M-212.492 380.602h612v-792h-612Z"/></clipPath><clipPath id="n" clipPathUnits="userSpaceOnUse"><path d="M-225.09 380.895h612v-792h-612Z"/></clipPath><clipPath id="o" clipPathUnits="userSpaceOnUse"><path d="M-226.315 380.598h612v-792h-612Z"/></clipPath><clipPath id="q" clipPathUnits="userSpaceOnUse"><path d="M-205.544 373.072h612v-792h-612Z"/></clipPath><clipPath id="r" clipPathUnits="userSpaceOnUse"><path d="M-206.266 375.366h612v-792h-612Z"/></clipPath><clipPath id="s" clipPathUnits="userSpaceOnUse"><path d="M-209.777 375.37h612v-792h-612Z"/></clipPath><clipPath id="t" clipPathUnits="userSpaceOnUse"><path d="M-212.492 375.37h612v-792h-612Z"/></clipPath><clipPath id="u" clipPathUnits="userSpaceOnUse"><path d="M-225.585 374.668h612v-792h-612Z"/></clipPath><clipPath id="v" clipPathUnits="userSpaceOnUse"><path d="M-227.643 374.023h612v-792h-612Z"/></clipPath><path id="c" fill="#575756" d="M0 0h.393v-.444q.066.097.145.188a.9.9 0 0 0 .707.312.885.885 0 0 0 .847-.526q.071.108.161.204a1 1 0 0 0 .454.281q.14.04.314.041.46 0 .719-.284Q4-.51 4-1.006v-1.633h-.392v1.545q0 .383-.181.59-.182.208-.503.208a.7.7 0 0 1-.281-.055.64.64 0 0 1-.232-.158.8.8 0 0 1-.156-.258 1 1 0 0 1-.056-.347v-1.525h-.393v1.555q0 .373-.181.58a.63.63 0 0 1-.498.208.68.68 0 0 1-.523-.235.8.8 0 0 1-.155-.264 1 1 0 0 1-.056-.335v-1.509H0Z"/><path id="j" fill="#575756" d="M0 0a1 1 0 0 1 .255.039.7.7 0 0 1 .208.107.5.5 0 0 1 .139.163.44.44 0 0 1 .051.213v.009a.4.4 0 0 1-.049.196.5.5 0 0 1-.137.157.6.6 0 0 1-.208.104A1 1 0 0 1 0 1.025 1 1 0 0 1-.259.988.7.7 0 0 1-.468.887.5.5 0 0 1-.604.729.4.4 0 0 1-.653.531V.522a.46.46 0 0 1 .19-.376.7.7 0 0 1 .208-.107A1 1 0 0 1 0 0m-.002-1.351q.176 0 .315.043a.8.8 0 0 1 .235.117.5.5 0 0 1 .148.169.43.43 0 0 1 .051.206v.008q0 .119-.06.218a.54.54 0 0 1-.159.172.8.8 0 0 1-.237.112 1 1 0 0 1-.293.041 1 1 0 0 1-.293-.041.8.8 0 0 1-.239-.112.5.5 0 0 1-.16-.172.43.43 0 0 1-.057-.218v-.008q0-.106.051-.205a.5.5 0 0 1 .147-.17.8.8 0 0 1 .236-.117q.138-.043.315-.043m0-.282q-.228 0-.424.06-.195.059-.34.165a.8.8 0 0 0-.226.255.7.7 0 0 0-.082.329v.008q0 .257.165.432.165.176.422.27-.098.045-.187.108a.8.8 0 0 0-.158.143.63.63 0 0 0-.144.406v.009q0 .162.08.302a.8.8 0 0 0 .212.241q.132.101.31.157a1.3 1.3 0 0 0 .748 0q.177-.056.31-.157A.8.8 0 0 0 .896.854a.6.6 0 0 0 .08-.302V.543A.7.7 0 0 0 .937.318.6.6 0 0 0 .83.137a.8.8 0 0 0-.159-.143 1 1 0 0 0-.188-.108 1.1 1.1 0 0 0 .419-.27.6.6 0 0 0 .167-.428V-.82a.7.7 0 0 0-.081-.333.8.8 0 0 0-.226-.255 1.1 1.1 0 0 0-.341-.165q-.195-.06-.423-.06"/><path id="l" fill="#575756" d="M0 0q.2 0 .361.096a.9.9 0 0 1 .274.257q.112.161.171.376.06.214.059.447v.008q0 .232-.061.447a1.3 1.3 0 0 1-.176.378.9.9 0 0 1-.275.261.7.7 0 0 1-.361.097.7.7 0 0 1-.362-.096.9.9 0 0 1-.273-.256 1.3 1.3 0 0 1-.174-.374 1.7 1.7 0 0 1-.061-.449v-.008q0-.233.061-.448.062-.213.176-.377A.9.9 0 0 1-.364.098.7.7 0 0 1 0 0m-.008-.294q-.278 0-.5.116a1.14 1.14 0 0 0-.38.319 1.5 1.5 0 0 0-.241.467 1.9 1.9 0 0 0-.084.568v.008q0 .298.086.567.086.27.245.472a1.2 1.2 0 0 0 .382.32q.221.118.5.118.274 0 .496-.116.223-.116.379-.318.158-.202.241-.469.084-.268.084-.566v-.008q0-.303-.086-.57A1.5 1.5 0 0 0 .872.145 1.2 1.2 0 0 0 .49-.176a1.05 1.05 0 0 0-.498-.118"/><path id="p" fill="#575756" d="m0 0 1.037.914a6 6 0 0 1 .278.266q.114.118.184.222.068.105.102.204a.7.7 0 0 1 .032.206.52.52 0 0 1-.171.399.6.6 0 0 1-.184.11.6.6 0 0 1-.22.038.7.7 0 0 1-.421-.124A1.5 1.5 0 0 1 .29 1.87l-.237.171q.098.144.2.258t.223.191q.12.078.269.118.15.042.337.041.192 0 .355-.061a.9.9 0 0 0 .282-.169.78.78 0 0 0 .249-.578v-.008a.92.92 0 0 0-.174-.549 1.7 1.7 0 0 0-.224-.263 6 6 0 0 0-.325-.298L.482.045h1.515v-.294H0Z"/><color-profile name="Coated FOGRA39 (ISO 12647-2:2004)"/></defs><g transform="translate(-272.945 -423)"><path fill="#9d9c9c" d="m0 0-.365 472.516-487.584.204v.976l488.577-.204-.017-.653L.977 0Z" clip-path="url(#a)" transform="matrix(1.33333 0 0 -1.33333 731.793 941.648)"/><use clip-path="url(#b)" href="#c" transform="matrix(1.33333 0 0 -1.33333 272.945 424.346)"/><use clip-path="url(#d)" href="#c" transform="matrix(1.33333 0 0 -1.33333 279.396 424.346)"/><path fill="#575756" d="M224.297 473.74h.393v-2.639h-.393zm-.026 1.01h.449v-.434h-.449z" clip-path="url(#e)" transform="matrix(1.33333 0 0 -1.33333 0 1056)"/><path fill="#575756" d="M0 0h.393v-.46q.132.216.347.365.214.151.556.151.24 0 .426-.077a.9.9 0 0 0 .317-.216 1 1 0 0 0 .199-.335 1.3 1.3 0 0 0 .069-.429v-1.638h-.393v1.545q0 .368-.189.583-.19.215-.541.215A.8.8 0 0 1 .87-.355a.8.8 0 0 1-.253-.168.8.8 0 0 1-.165-.264 1 1 0 0 1-.059-.338v-1.514H0Z" clip-path="url(#f)" transform="matrix(1.33333 0 0 -1.33333 300.804 424.346)"/><path fill="#ffd200" fill-rule="evenodd" d="M0 0h7.655v-9.995H0Z" clip-path="url(#g)" transform="matrix(1.33333 0 0 -1.33333 286.358 497.205)"/><path fill="#ffecae" fill-rule="evenodd" d="M0 0h7.655v-9.94H0Z" clip-path="url(#h)" transform="matrix(1.33333 0 0 -1.33333 286.358 503.714)"/><use clip-path="url(#i)" href="#j" transform="matrix(1.33333 0 0 -1.33333 276.307 505.673)"/><use clip-path="url(#k)" href="#l" transform="matrix(1.33333 0 0 -1.33333 279.703 507.469)"/><use clip-path="url(#m)" href="#l" transform="matrix(1.33333 0 0 -1.33333 283.323 507.469)"/><path fill="#575756" d="M0 0q-.359 0-.625.141a1.3 1.3 0 0 0-.44.369l.236.209q.163-.205.366-.315A.95.95 0 0 1 .249.333.57.57 0 0 1 .58.62a.5.5 0 0 1 .049.229v.008a.47.47 0 0 1-.225.409.8.8 0 0 1-.253.105 1.3 1.3 0 0 1-.322.037h-.184l-.065.193.902 1.015H-.915v.29H.907V2.67l-.895-.996q.189-.016.358-.07a1 1 0 0 0 .298-.151.7.7 0 0 0 .207-.243.7.7 0 0 0 .076-.341V.861A.83.83 0 0 0 .675.238 1 1 0 0 0 .374.063 1.1 1.1 0 0 0 0 0" clip-path="url(#n)" transform="matrix(1.33333 0 0 -1.33333 300.121 507.86)"/><use clip-path="url(#o)" href="#p" transform="matrix(1.33333 0 0 -1.33333 301.754 507.464)"/><path fill="#575756" d="m0 0-.539-.167-.078.262.7.24h.239v-2.878H0Z" clip-path="url(#q)" transform="matrix(1.33333 0 0 -1.33333 274.059 497.43)"/><use clip-path="url(#r)" href="#p" transform="matrix(1.33333 0 0 -1.33333 275.021 500.488)"/><use clip-path="url(#s)" href="#l" transform="matrix(1.33333 0 0 -1.33333 279.703 500.493)"/><use clip-path="url(#t)" href="#l" transform="matrix(1.33333 0 0 -1.33333 283.323 500.493)"/><path fill="#575756" d="M0 0v1.474L-1.2 0Zm0-.27h-1.506l-.082.237L.028 1.931h.286V0h.441v-.27H.314v-.677H0Z" clip-path="url(#u)" transform="matrix(1.33333 0 0 -1.33333 300.78 499.557)"/><use clip-path="url(#v)" href="#j" transform="matrix(1.33333 0 0 -1.33333 303.523 498.698)"/></g></svg>