<svg xmlns="http://www.w3.org/2000/svg" width="31.955" height="93.968" viewBox="0 0 31.955 93.968"><defs><clipPath id="a" clipPathUnits="userSpaceOnUse"><path d="M-548.845 706.236h612v-792h-612Z"/></clipPath><clipPath id="b" clipPathUnits="userSpaceOnUse"><path d="M-154.246 318.26h612v-792h-612Z"/></clipPath><clipPath id="d" clipPathUnits="userSpaceOnUse"><path d="M-159.084 318.26h612v-792h-612Z"/></clipPath><clipPath id="e" clipPathUnits="userSpaceOnUse"><path d="M0 792h612V0H0Z"/></clipPath><clipPath id="f" clipPathUnits="userSpaceOnUse"><path d="M-175.102 318.26h612v-792h-612Z"/></clipPath><clipPath id="g" clipPathUnits="userSpaceOnUse"><path d="M-164.268 365.42h612v-792h-612Z"/></clipPath><clipPath id="h" clipPathUnits="userSpaceOnUse"><path d="M-164.268 372.673h612v-792h-612Z"/></clipPath><clipPath id="i" clipPathUnits="userSpaceOnUse"><path d="M-154.955 366.502h612v-792h-612Z"/></clipPath><clipPath id="k" clipPathUnits="userSpaceOnUse"><path d="M-156.767 367.453h612v-792h-612Z"/></clipPath><clipPath id="m" clipPathUnits="userSpaceOnUse"><path d="M-159.314 368.8h612v-792h-612Z"/></clipPath><clipPath id="o" clipPathUnits="userSpaceOnUse"><path d="M-162.03 368.8h612v-792h-612Z"/></clipPath><clipPath id="p" clipPathUnits="userSpaceOnUse"><path d="M-175.17 366.481h612v-792h-612Z"/></clipPath><clipPath id="q" clipPathUnits="userSpaceOnUse"><path d="M-175.685 368.796h612v-792h-612Z"/></clipPath><clipPath id="s" clipPathUnits="userSpaceOnUse"><path d="M-155.081 373.059h612v-792h-612Z"/></clipPath><clipPath id="t" clipPathUnits="userSpaceOnUse"><path d="M-155.803 375.352h612v-792h-612Z"/></clipPath><clipPath id="u" clipPathUnits="userSpaceOnUse"><path d="M-159.314 375.356h612v-792h-612Z"/></clipPath><clipPath id="v" clipPathUnits="userSpaceOnUse"><path d="M-162.03 375.356h612v-792h-612Z"/></clipPath><clipPath id="w" clipPathUnits="userSpaceOnUse"><path d="M-175.085 374.654h612v-792h-612Z"/></clipPath><clipPath id="x" clipPathUnits="userSpaceOnUse"><path d="M-177.143 374.01h612v-792h-612Z"/></clipPath><path id="c" fill="#575756" d="M0 0h.393v-.444q.066.097.145.188a.9.9 0 0 0 .707.312.885.885 0 0 0 .847-.526q.071.108.161.204a1 1 0 0 0 .454.281q.14.04.314.041.46 0 .719-.284Q4-.51 4-1.006v-1.633h-.392v1.545q0 .383-.181.59-.182.208-.503.208a.7.7 0 0 1-.281-.055.64.64 0 0 1-.232-.158.8.8 0 0 1-.156-.258 1 1 0 0 1-.056-.347v-1.525h-.393v1.555q0 .373-.181.58a.63.63 0 0 1-.498.208.68.68 0 0 1-.523-.235.8.8 0 0 1-.155-.264 1 1 0 0 1-.056-.335v-1.509H0Z"/><path id="j" fill="#575756" d="m0 0-.539-.167-.078.262.7.24h.239v-2.878H0Z"/><path id="l" fill="#575756" d="M0 0a1 1 0 0 1 .255.039.7.7 0 0 1 .208.107.5.5 0 0 1 .139.163.44.44 0 0 1 .051.213v.009a.4.4 0 0 1-.049.196.5.5 0 0 1-.137.157.6.6 0 0 1-.208.104A1 1 0 0 1 0 1.025 1 1 0 0 1-.259.988.7.7 0 0 1-.468.887.5.5 0 0 1-.604.729.4.4 0 0 1-.653.531V.522a.46.46 0 0 1 .19-.376.7.7 0 0 1 .208-.107A1 1 0 0 1 0 0m-.002-1.351q.176 0 .315.043a.8.8 0 0 1 .235.117.5.5 0 0 1 .148.169.43.43 0 0 1 .051.206v.008q0 .119-.06.218a.54.54 0 0 1-.159.172.8.8 0 0 1-.237.112 1 1 0 0 1-.293.041 1 1 0 0 1-.293-.041.8.8 0 0 1-.239-.112.5.5 0 0 1-.16-.172.43.43 0 0 1-.057-.218v-.008q0-.106.051-.205a.5.5 0 0 1 .147-.17.8.8 0 0 1 .236-.117q.138-.043.315-.043m0-.282q-.228 0-.424.06-.195.059-.34.165a.8.8 0 0 0-.226.255.7.7 0 0 0-.082.329v.008q0 .257.165.432.165.176.422.27-.098.045-.187.108a.8.8 0 0 0-.158.143.63.63 0 0 0-.144.406v.009q0 .162.08.302a.8.8 0 0 0 .212.241q.132.101.31.157a1.3 1.3 0 0 0 .748 0q.177-.056.31-.157A.8.8 0 0 0 .896.854a.6.6 0 0 0 .08-.302V.543A.7.7 0 0 0 .937.318.6.6 0 0 0 .83.137a.8.8 0 0 0-.159-.143 1 1 0 0 0-.188-.108 1.1 1.1 0 0 0 .419-.27.6.6 0 0 0 .167-.428V-.82a.7.7 0 0 0-.081-.333.8.8 0 0 0-.226-.255 1.1 1.1 0 0 0-.341-.165q-.195-.06-.423-.06"/><path id="n" fill="#575756" d="M0 0q.2 0 .361.096a.9.9 0 0 1 .274.257q.112.161.171.376.06.214.059.447v.008q0 .232-.061.447a1.3 1.3 0 0 1-.176.378.9.9 0 0 1-.275.261.7.7 0 0 1-.361.097.7.7 0 0 1-.362-.096.9.9 0 0 1-.273-.256 1.3 1.3 0 0 1-.174-.374 1.7 1.7 0 0 1-.061-.449v-.008q0-.233.061-.448.062-.213.176-.377A.9.9 0 0 1-.364.098.7.7 0 0 1 0 0m-.008-.294q-.278 0-.5.116a1.14 1.14 0 0 0-.38.319 1.5 1.5 0 0 0-.241.467 1.9 1.9 0 0 0-.084.568v.008q0 .298.086.567.086.27.245.472a1.2 1.2 0 0 0 .382.32q.221.118.5.118.274 0 .496-.116.223-.116.379-.318.158-.202.241-.469.084-.268.084-.566v-.008q0-.303-.086-.57A1.5 1.5 0 0 0 .872.145 1.2 1.2 0 0 0 .49-.176a1.05 1.05 0 0 0-.498-.118"/><path id="r" fill="#575756" d="m0 0 1.037.914a6 6 0 0 1 .278.266q.114.118.184.222.068.105.102.204a.7.7 0 0 1 .032.206.52.52 0 0 1-.171.399.6.6 0 0 1-.184.11.6.6 0 0 1-.22.038.7.7 0 0 1-.421-.124A1.5 1.5 0 0 1 .29 1.87l-.237.171q.098.144.2.258t.223.191q.12.078.269.118.15.042.337.041.192 0 .355-.061a.9.9 0 0 0 .282-.169.78.78 0 0 0 .249-.578v-.008a.92.92 0 0 0-.174-.549 1.7 1.7 0 0 0-.224-.263 6 6 0 0 0-.325-.298L.482.045h1.515v-.294H0Z"/><color-profile name="Coated FOGRA39 (ISO 12647-2:2004)"/></defs><g transform="translate(-205.661 -423)"><path fill="#9d9c9c" d="m0 0-.365 472.516-487.584.204v.976l488.577-.204-.017-.653L.977 0Z" clip-path="url(#a)" transform="matrix(1.33333 0 0 -1.33333 731.793 941.648)"/><use clip-path="url(#b)" href="#c" transform="matrix(1.33333 0 0 -1.33333 205.661 424.346)"/><use clip-path="url(#d)" href="#c" transform="matrix(1.33333 0 0 -1.33333 212.112 424.346)"/><path fill="#575756" d="M173.796 473.74h.393v-2.639h-.393zm-.025 1.01h.449v-.434h-.449z" clip-path="url(#e)" transform="matrix(1.33333 0 0 -1.33333 0 1056)"/><path fill="#575756" d="M0 0h.393v-.46q.132.216.347.365.214.151.556.151.24 0 .426-.077a.9.9 0 0 0 .317-.216 1 1 0 0 0 .199-.335 1.3 1.3 0 0 0 .069-.429v-1.638h-.393v1.545q0 .368-.189.583-.19.215-.541.215A.8.8 0 0 1 .87-.355a.8.8 0 0 1-.253-.168.8.8 0 0 1-.165-.264 1 1 0 0 1-.059-.338v-1.514H0Z" clip-path="url(#f)" transform="matrix(1.33333 0 0 -1.33333 233.47 424.346)"/><path fill="#e67a06" fill-rule="evenodd" d="M0 0h7.655v-22.306H0Z" clip-path="url(#g)" transform="matrix(1.33333 0 0 -1.33333 219.024 487.226)"/><path fill="#f6d2ac" fill-rule="evenodd" d="M0 0h7.655v-15.053H0Z" clip-path="url(#h)" transform="matrix(1.33333 0 0 -1.33333 219.024 496.897)"/><use clip-path="url(#i)" href="#j" transform="matrix(1.33333 0 0 -1.33333 206.606 488.67)"/><use clip-path="url(#k)" href="#l" transform="matrix(1.33333 0 0 -1.33333 209.023 489.937)"/><use clip-path="url(#m)" href="#n" transform="matrix(1.33333 0 0 -1.33333 212.42 491.733)"/><use clip-path="url(#o)" href="#n" transform="matrix(1.33333 0 0 -1.33333 216.04 491.733)"/><path fill="#575756" d="M0 0h-1.571v.294H.368v-.24L-.931-2.563h-.359Z" clip-path="url(#p)" transform="matrix(1.33333 0 0 -1.33333 233.561 488.642)"/><use clip-path="url(#q)" href="#r" transform="matrix(1.33333 0 0 -1.33333 234.247 491.728)"/><use clip-path="url(#s)" href="#j" transform="matrix(1.33333 0 0 -1.33333 206.775 497.411)"/><use clip-path="url(#t)" href="#r" transform="matrix(1.33333 0 0 -1.33333 207.738 500.47)"/><use clip-path="url(#u)" href="#n" transform="matrix(1.33333 0 0 -1.33333 212.42 500.475)"/><use clip-path="url(#v)" href="#n" transform="matrix(1.33333 0 0 -1.33333 216.04 500.475)"/><path fill="#575756" d="M0 0v1.474L-1.2 0Zm0-.27h-1.506l-.082.237L.028 1.931h.286V0h.441v-.27H.314v-.677H0Z" clip-path="url(#w)" transform="matrix(1.33333 0 0 -1.33333 233.447 499.54)"/><use clip-path="url(#x)" href="#l" transform="matrix(1.33333 0 0 -1.33333 236.19 498.68)"/></g></svg>