<svg xmlns="http://www.w3.org/2000/svg" width="34.879" height="93.967" viewBox="0 0 34.879 93.967"><defs><clipPath id="a" clipPathUnits="userSpaceOnUse"><path d="M-548.845 706.236h612v-792h-612Z"/></clipPath><clipPath id="b" clipPathUnits="userSpaceOnUse"><path d="M-307.846 318.297h612v-792h-612Z"/></clipPath><clipPath id="d" clipPathUnits="userSpaceOnUse"><path d="M-312.684 318.297h612v-792h-612Z"/></clipPath><clipPath id="e" clipPathUnits="userSpaceOnUse"><path d="M0 792h612V0H0Z"/></clipPath><clipPath id="f" clipPathUnits="userSpaceOnUse"><path d="M-327.953 318.297h612v-792h-612Z"/></clipPath><clipPath id="g" clipPathUnits="userSpaceOnUse"><path d="M-317.723 337.982h612v-792h-612Z"/></clipPath><clipPath id="h" clipPathUnits="userSpaceOnUse"><path d="M-317.723 350.257h612v-792h-612Z"/></clipPath><clipPath id="i" clipPathUnits="userSpaceOnUse"><path d="M-307.963 340.388h612v-792h-612Z"/></clipPath><clipPath id="j" clipPathUnits="userSpaceOnUse"><path d="M-310.2 341.09h612v-792h-612Z"/></clipPath><clipPath id="l" clipPathUnits="userSpaceOnUse"><path d="M-312.915 341.09h612v-792h-612Z"/></clipPath><clipPath id="m" clipPathUnits="userSpaceOnUse"><path d="M-315.63 341.09h612v-792h-612Z"/></clipPath><clipPath id="n" clipPathUnits="userSpaceOnUse"><path d="M-326.903 338.792h612v-792h-612Z"/></clipPath><clipPath id="p" clipPathUnits="userSpaceOnUse"><path d="M-328.794 341.102h612v-792h-612Z"/></clipPath><clipPath id="q" clipPathUnits="userSpaceOnUse"><path d="M-331.334 341.09h612v-792h-612Z"/></clipPath><clipPath id="r" clipPathUnits="userSpaceOnUse"><path d="M-307.706 353.238h612v-792h-612Z"/></clipPath><clipPath id="s" clipPathUnits="userSpaceOnUse"><path d="M-310.2 352.944h612v-792h-612Z"/></clipPath><clipPath id="t" clipPathUnits="userSpaceOnUse"><path d="M-312.915 352.944h612v-792h-612Z"/></clipPath><clipPath id="u" clipPathUnits="userSpaceOnUse"><path d="M-315.63 352.944h612v-792h-612Z"/></clipPath><clipPath id="v" clipPathUnits="userSpaceOnUse"><path d="M-326.903 350.646h612v-792h-612Z"/></clipPath><clipPath id="w" clipPathUnits="userSpaceOnUse"><path d="M-327.627 352.94h612v-792h-612Z"/></clipPath><clipPath id="x" clipPathUnits="userSpaceOnUse"><path d="M-331.138 352.944h612v-792h-612Z"/></clipPath><path id="c" fill="#575756" d="M0 0h.394v-.444q.065.097.145.188a.87.87 0 0 0 .41.271 1 1 0 0 0 .296.041.88.88 0 0 0 .531-.151 1 1 0 0 0 .317-.375q.071.108.16.204a1 1 0 0 0 .455.281q.14.04.313.041.459 0 .72-.284.26-.282.26-.778v-1.633h-.393v1.545q0 .383-.181.59-.18.208-.502.208a.72.72 0 0 1-.514-.213.7.7 0 0 1-.155-.258 1 1 0 0 1-.056-.347v-1.525h-.393v1.555q0 .373-.181.58a.63.63 0 0 1-.498.208.68.68 0 0 1-.523-.235.9.9 0 0 1-.156-.264 1 1 0 0 1-.055-.335v-1.509H0Z"/><path id="k" fill="#575756" d="M0 0q.2 0 .361.096a.9.9 0 0 1 .274.257q.112.161.171.376.06.214.059.447v.008q0 .232-.061.447-.06.213-.175.378a.9.9 0 0 1-.276.261.7.7 0 0 1-.362.097.7.7 0 0 1-.361-.096.9.9 0 0 1-.274-.256 1.3 1.3 0 0 1-.172-.374 1.6 1.6 0 0 1-.062-.449v-.008q0-.233.062-.448.06-.213.174-.377A.9.9 0 0 1-.363.098.7.7 0 0 1 0 0m-.009-.294a1.07 1.07 0 0 0-.879.435 1.5 1.5 0 0 0-.241.467 1.9 1.9 0 0 0-.084.568v.008q0 .298.086.567a1.5 1.5 0 0 0 .245.472q.16.201.382.32.221.118.5.118.274 0 .496-.116.223-.116.379-.318.158-.202.241-.469.084-.268.084-.566v-.008q0-.303-.086-.57A1.5 1.5 0 0 0 .871.145a1.15 1.15 0 0 0-.382-.321 1.05 1.05 0 0 0-.498-.118"/><path id="o" fill="#575756" d="m0 0-.539-.167-.077.262.699.24h.24v-2.878H0Z"/><color-profile name="Coated FOGRA39 (ISO 12647-2:2004)"/></defs><g transform="translate(-408.5 -423.05)"><path fill="#9d9c9c" d="m0 0-.365 472.516-487.584.204v.976l488.577-.204-.017-.653L.977 0Z" clip-path="url(#a)" transform="matrix(1.33333 0 0 -1.33333 731.793 941.648)"/><use clip-path="url(#b)" href="#c" transform="matrix(1.33333 0 0 -1.33333 410.46 424.396)"/><use clip-path="url(#d)" href="#c" transform="matrix(1.33333 0 0 -1.33333 416.911 424.396)"/><path fill="#575756" d="M326.647 473.703h.393v-2.639h-.393zm-.025 1.01h.449v-.434h-.449z" clip-path="url(#e)" transform="matrix(1.33333 0 0 -1.33333 0 1056)"/><path fill="#575756" d="M0 0h.394v-.46q.132.216.346.365.214.151.557.151.24 0 .426-.077a.9.9 0 0 0 .515-.551 1.3 1.3 0 0 0 .069-.429v-1.638h-.393v1.545q0 .368-.188.583-.19.215-.541.215A.8.8 0 0 1 .87-.355a.74.74 0 0 1-.418-.432 1 1 0 0 1-.058-.338v-1.514H0Z" clip-path="url(#f)" transform="matrix(1.33333 0 0 -1.33333 437.27 424.396)"/><path fill="#009d79" fill-rule="evenodd" d="M0 0h7.655v-42.388H0Z" clip-path="url(#g)" transform="matrix(1.33333 0 0 -1.33333 423.63 450.642)"/><path fill="#b9d7c9" fill-rule="evenodd" d="M0 0h7.655v-37.505H0Z" clip-path="url(#h)" transform="matrix(1.33333 0 0 -1.33333 423.63 467.01)"/><path fill="#575756" d="M0 0v1.474L-1.2 0Zm0-.27h-1.506l-.082.237L.028 1.931h.286V0h.441v-.27H.314v-.677H0Z" clip-path="url(#i)" transform="matrix(1.33333 0 0 -1.33333 410.617 453.85)"/><use clip-path="url(#j)" href="#k" transform="matrix(1.33333 0 0 -1.33333 413.6 454.786)"/><use clip-path="url(#l)" href="#k" transform="matrix(1.33333 0 0 -1.33333 417.22 454.786)"/><use clip-path="url(#m)" href="#k" transform="matrix(1.33333 0 0 -1.33333 420.84 454.786)"/><use clip-path="url(#n)" href="#o" transform="matrix(1.33333 0 0 -1.33333 435.871 451.723)"/><path fill="#575756" d="M0 0q.159 0 .286.052.126.051.216.138A.64.64 0 0 1 .69.655v.009a.58.58 0 0 1-.194.438.78.78 0 0 1-.504.176.8.8 0 0 1-.292-.053.7.7 0 0 1-.226-.141.6.6 0 0 1-.145-.201.6.6 0 0 1-.052-.232V.644q0-.136.054-.254A.6.6 0 0 1-.521.185.7.7 0 0 1-.292.05.8.8 0 0 1 0 0m-.004-.281q-.237 0-.427.077a1 1 0 0 0-.324.213 1.1 1.1 0 0 0-.266.42q-.044.13-.069.298a3 3 0 0 0-.024.388v.008q0 .327.08.61.08.284.232.493.153.208.373.328.222.12.503.12.256 0 .457-.085.2-.087.388-.241l-.188-.249a1.4 1.4 0 0 1-.319.208.85.85 0 0 1-.354.073.67.67 0 0 1-.366-.1.8.8 0 0 1-.263-.269 1.3 1.3 0 0 1-.159-.392 2 2 0 0 1-.053-.464v-.04q.142.21.339.327.195.118.477.118.2 0 .379-.062.18-.062.315-.176A.84.84 0 0 0 1.021.68V.672a.9.9 0 0 0-.296-.684Q.588-.138.4-.21a1.1 1.1 0 0 0-.404-.071" clip-path="url(#p)" transform="matrix(1.33333 0 0 -1.33333 438.392 454.803)"/><use clip-path="url(#q)" href="#k" transform="matrix(1.33333 0 0 -1.33333 441.779 454.786)"/><path fill="#575756" d="M0 0q-.36 0-.625.141a1.3 1.3 0 0 0-.441.369l.237.209q.162-.205.365-.315A.96.96 0 0 1 .248.333a.6.6 0 0 1 .199.112Q.53.519.58.62a.55.55 0 0 1 .049.229v.008q0 .134-.061.237a.5.5 0 0 1-.164.172.8.8 0 0 1-.254.105 1.3 1.3 0 0 1-.322.037h-.183l-.066.193.901 1.015H-.915v.29H.906V2.67l-.894-.996q.188-.016.357-.07a1 1 0 0 0 .299-.151.75.75 0 0 0 .207-.243.7.7 0 0 0 .076-.341V.861A.8.8 0 0 0 .877.51.8.8 0 0 0 .674.238 1 1 0 0 0 .373.063 1.1 1.1 0 0 0 0 0" clip-path="url(#r)" transform="matrix(1.33333 0 0 -1.33333 410.275 470.984)"/><use clip-path="url(#s)" href="#k" transform="matrix(1.33333 0 0 -1.33333 413.6 470.592)"/><use clip-path="url(#t)" href="#k" transform="matrix(1.33333 0 0 -1.33333 417.22 470.592)"/><use clip-path="url(#u)" href="#k" transform="matrix(1.33333 0 0 -1.33333 420.84 470.592)"/><use clip-path="url(#v)" href="#o" transform="matrix(1.33333 0 0 -1.33333 435.871 467.529)"/><path fill="#575756" d="m0 0 1.036.914q.165.148.278.266t.184.222q.069.105.102.204a.7.7 0 0 1 .033.206.53.53 0 0 1-.356.509.6.6 0 0 1-.22.038.7.7 0 0 1-.42-.124 1.6 1.6 0 0 1-.348-.365l-.236.171q.098.144.2.258.101.114.223.191.12.078.269.118.148.042.336.041.192 0 .356-.061a.9.9 0 0 0 .282-.169.78.78 0 0 0 .249-.578v-.008a1 1 0 0 0-.043-.288 1 1 0 0 0-.131-.261 2 2 0 0 0-.225-.263 6 6 0 0 0-.324-.298L.481.045h1.515v-.294H0Z" clip-path="url(#w)" transform="matrix(1.33333 0 0 -1.33333 436.836 470.587)"/><use clip-path="url(#x)" href="#k" transform="matrix(1.33333 0 0 -1.33333 441.517 470.592)"/></g></svg>