<svg xmlns="http://www.w3.org/2000/svg" width="34.468" height="93.967" viewBox="0 0 34.468 93.967"><defs><clipPath id="a" clipPathUnits="userSpaceOnUse"><path d="M-548.845 706.236h612v-792h-612Z"/></clipPath><clipPath id="b" clipPathUnits="userSpaceOnUse"><path d="M-358.688 318.26h612v-792h-612Z"/></clipPath><clipPath id="c" clipPathUnits="userSpaceOnUse"><path d="M-363.525 318.26h612v-792h-612Z"/></clipPath><clipPath id="d" clipPathUnits="userSpaceOnUse"><path d="M0 792h612V0H0Z"/></clipPath><clipPath id="e" clipPathUnits="userSpaceOnUse"><path d="M-378.95 318.26h612v-792h-612Z"/></clipPath><clipPath id="f" clipPathUnits="userSpaceOnUse"><path d="M-368.711 350.474h612v-792h-612Z"/></clipPath><clipPath id="g" clipPathUnits="userSpaceOnUse"><path d="M-368.711 369.05h612v-792h-612Z"/></clipPath><clipPath id="h" clipPathUnits="userSpaceOnUse"><path d="M-358.549 353.494h612v-792h-612Z"/></clipPath><clipPath id="i" clipPathUnits="userSpaceOnUse"><path d="M-361.044 353.2h612v-792h-612Z"/></clipPath><clipPath id="k" clipPathUnits="userSpaceOnUse"><path d="M-363.759 353.2h612v-792h-612Z"/></clipPath><clipPath id="l" clipPathUnits="userSpaceOnUse"><path d="M-366.474 353.2h612v-792h-612Z"/></clipPath><clipPath id="m" clipPathUnits="userSpaceOnUse"><path d="M-377.9 350.902h612v-792h-612Z"/></clipPath><clipPath id="o" clipPathUnits="userSpaceOnUse"><path d="M-378.624 353.196h612v-792h-612Z"/></clipPath><clipPath id="p" clipPathUnits="userSpaceOnUse"><path d="M-382.135 353.2h612v-792h-612Z"/></clipPath><clipPath id="q" clipPathUnits="userSpaceOnUse"><path d="M-359.47 369.556h612v-792h-612Z"/></clipPath><clipPath id="r" clipPathUnits="userSpaceOnUse"><path d="M-361.235 372.147h612v-792h-612Z"/></clipPath><clipPath id="s" clipPathUnits="userSpaceOnUse"><path d="M-363.758 371.853h612v-792h-612Z"/></clipPath><clipPath id="t" clipPathUnits="userSpaceOnUse"><path d="M-366.473 371.853h612v-792h-612Z"/></clipPath><clipPath id="u" clipPathUnits="userSpaceOnUse"><path d="M-378.534 371.866h612v-792h-612Z"/></clipPath><clipPath id="v" clipPathUnits="userSpaceOnUse"><path d="M-381.074 371.853h612v-792h-612Z"/></clipPath><path id="j" fill="#575756" d="M0 0q.2 0 .361.096a.9.9 0 0 1 .274.257q.112.161.171.376.06.214.059.447v.008q0 .232-.061.447-.06.213-.175.378a.9.9 0 0 1-.276.261.7.7 0 0 1-.362.097.7.7 0 0 1-.361-.096.9.9 0 0 1-.274-.256 1.3 1.3 0 0 1-.172-.374 1.6 1.6 0 0 1-.062-.449v-.008q0-.233.062-.448.06-.213.174-.377A.9.9 0 0 1-.363.098.7.7 0 0 1 0 0m-.009-.294a1.07 1.07 0 0 0-.879.435 1.5 1.5 0 0 0-.241.467 1.9 1.9 0 0 0-.084.568v.008q0 .298.086.567a1.5 1.5 0 0 0 .245.472q.16.201.382.32.221.118.5.118.274 0 .496-.116.223-.116.379-.318.158-.202.241-.469.084-.268.084-.566v-.008q0-.303-.086-.57A1.5 1.5 0 0 0 .871.145a1.15 1.15 0 0 0-.382-.321 1.05 1.05 0 0 0-.498-.118"/><path id="n" fill="#575756" d="m0 0-.539-.167-.077.262.699.24h.24v-2.878H0Z"/><color-profile name="Coated FOGRA39 (ISO 12647-2:2004)"/></defs><g transform="translate(-476.645 -423.001)"><path fill="#9d9c9c" d="m0 0-.365 472.516-487.584.204v.976l488.577-.204-.017-.653L.977 0Z" clip-path="url(#a)" transform="matrix(1.33333 0 0 -1.33333 731.793 941.648)"/><path fill="#575756" d="M0 0h.394v-.444q.066.097.145.188a.87.87 0 0 0 .41.271 1 1 0 0 0 .296.041.88.88 0 0 0 .531-.151q.21-.15.317-.375.071.108.16.204a1 1 0 0 0 .455.281q.139.04.314.041.458 0 .719-.284.26-.282.26-.778v-1.633h-.393v1.545q0 .383-.181.59-.18.208-.502.208a.72.72 0 0 1-.514-.213.7.7 0 0 1-.155-.258 1 1 0 0 1-.056-.347v-1.525h-.393v1.555q0 .373-.181.58a.63.63 0 0 1-.498.208.68.68 0 0 1-.523-.235.9.9 0 0 1-.156-.264 1 1 0 0 1-.055-.335v-1.509H0Z" clip-path="url(#b)" transform="matrix(1.33333 0 0 -1.33333 478.25 424.348)"/><path fill="#575756" d="M0 0h.394v-.444q.065.097.145.188a.87.87 0 0 0 .41.271 1 1 0 0 0 .296.041.88.88 0 0 0 .531-.151 1 1 0 0 0 .317-.375q.071.108.16.204a1 1 0 0 0 .455.281q.14.04.313.041.459 0 .72-.284.26-.282.26-.778v-1.633h-.393v1.545q0 .383-.181.59-.18.208-.502.208a.72.72 0 0 1-.514-.213.7.7 0 0 1-.155-.258 1 1 0 0 1-.056-.347v-1.525h-.393v1.555q0 .373-.181.58a.63.63 0 0 1-.498.208.68.68 0 0 1-.523-.235.9.9 0 0 1-.156-.264 1 1 0 0 1-.055-.335v-1.509H0Z" clip-path="url(#c)" transform="matrix(1.33333 0 0 -1.33333 484.7 424.348)"/><path fill="#575756" d="M377.644 473.739h.393V471.1h-.393zm-.026 1.01h.449v-.434h-.449z" clip-path="url(#d)" transform="matrix(1.33333 0 0 -1.33333 0 1056)"/><path fill="#575756" d="M0 0h.394v-.46q.132.216.346.365.214.151.557.151.24 0 .426-.077a.9.9 0 0 0 .515-.551 1.3 1.3 0 0 0 .069-.429v-1.638h-.393v1.545q0 .368-.188.583-.19.215-.541.215A.8.8 0 0 1 .87-.355a.74.74 0 0 1-.418-.432 1 1 0 0 1-.058-.338v-1.514H0Z" clip-path="url(#e)" transform="matrix(1.33333 0 0 -1.33333 505.266 424.348)"/><path fill="#008ac6" fill-rule="evenodd" d="M0 0h7.655v-26.026H0Z" clip-path="url(#f)" transform="matrix(1.33333 0 0 -1.33333 491.615 467.3)"/><path fill="#b5cdea" fill-rule="evenodd" d="M0 0h7.655v-18.675H0Z" clip-path="url(#g)" transform="matrix(1.33333 0 0 -1.33333 491.615 492.068)"/><path fill="#575756" d="M0 0q-.358 0-.624.141a1.3 1.3 0 0 0-.441.369l.236.209q.163-.205.366-.315A.95.95 0 0 1 .249.333.56.56 0 0 1 .58.62a.5.5 0 0 1 .049.229v.008q0 .134-.06.237a.5.5 0 0 1-.165.172.8.8 0 0 1-.253.105 1.3 1.3 0 0 1-.322.037h-.184l-.065.193.901 1.015H-.914v.29H.907V2.67l-.894-.996q.188-.016.356-.07a1 1 0 0 0 .3-.151.7.7 0 0 0 .206-.243.7.7 0 0 0 .076-.341V.861A.81.81 0 0 0 .675.238 1 1 0 0 0 .374.063 1.1 1.1 0 0 0 0 0" clip-path="url(#h)" transform="matrix(1.33333 0 0 -1.33333 478.065 471.325)"/><use clip-path="url(#i)" href="#j" transform="matrix(1.33333 0 0 -1.33333 481.392 470.934)"/><use clip-path="url(#k)" href="#j" transform="matrix(1.33333 0 0 -1.33333 485.012 470.934)"/><use clip-path="url(#l)" href="#j" transform="matrix(1.33333 0 0 -1.33333 488.631 470.934)"/><use clip-path="url(#m)" href="#n" transform="matrix(1.33333 0 0 -1.33333 503.867 467.87)"/><path fill="#575756" d="m0 0 1.036.914q.165.148.278.266t.184.222q.069.105.102.204a.7.7 0 0 1 .033.206.53.53 0 0 1-.356.509.6.6 0 0 1-.22.038.7.7 0 0 1-.42-.124 1.6 1.6 0 0 1-.348-.365l-.236.171q.098.144.2.258.101.114.223.191.12.078.269.118.148.042.336.041.192 0 .356-.061a.9.9 0 0 0 .282-.169.78.78 0 0 0 .249-.578v-.008a1 1 0 0 0-.043-.288 1 1 0 0 0-.131-.261 2 2 0 0 0-.225-.263 6 6 0 0 0-.324-.298L.481.045h1.515v-.294H0Z" clip-path="url(#o)" transform="matrix(1.33333 0 0 -1.33333 504.832 470.928)"/><use clip-path="url(#p)" href="#j" transform="matrix(1.33333 0 0 -1.33333 509.513 470.934)"/><use clip-path="url(#q)" href="#n" transform="matrix(1.33333 0 0 -1.33333 479.294 492.74)"/><path fill="#575756" d="M0 0q-.306 0-.565.129a1.7 1.7 0 0 0-.456.324l.212.233q.188-.184.39-.289A.9.9 0 0 1 .004.294q.15 0 .279.049a.7.7 0 0 1 .219.133.6.6 0 0 1 .191.451v.008a.6.6 0 0 1-.052.245.6.6 0 0 1-.147.189.7.7 0 0 1-.224.123.9.9 0 0 1-.287.043 1 1 0 0 1-.329-.047 1.5 1.5 0 0 1-.271-.117l-.216.144.081 1.391H.892v-.298H-.47l-.061-.917q.128.058.255.091.129.034.308.034.209 0 .388-.058a.9.9 0 0 0 .313-.172.8.8 0 0 0 .208-.274.9.9 0 0 0 .076-.367V.937A.95.95 0 0 0 .941.556.85.85 0 0 0 .733.259.9.9 0 0 0 .412.067 1.2 1.2 0 0 0 0 0" clip-path="url(#r)" transform="matrix(1.33333 0 0 -1.33333 481.647 496.197)"/><use clip-path="url(#s)" href="#j" transform="matrix(1.33333 0 0 -1.33333 485.01 495.805)"/><use clip-path="url(#t)" href="#j" transform="matrix(1.33333 0 0 -1.33333 488.63 495.805)"/><path fill="#575756" d="M0 0q.159 0 .286.052.126.051.216.138A.64.64 0 0 1 .69.655v.009a.58.58 0 0 1-.194.438.78.78 0 0 1-.504.176.8.8 0 0 1-.292-.053.7.7 0 0 1-.226-.141.6.6 0 0 1-.145-.201.6.6 0 0 1-.052-.232V.644q0-.136.054-.254A.6.6 0 0 1-.521.185.7.7 0 0 1-.292.05.8.8 0 0 1 0 0m-.004-.281q-.237 0-.427.077a1 1 0 0 0-.324.213 1.1 1.1 0 0 0-.266.42q-.044.13-.069.298a3 3 0 0 0-.024.388v.008q0 .327.08.61.08.284.232.493.153.208.373.328.222.12.503.12.256 0 .457-.085.2-.087.388-.241l-.188-.249a1.4 1.4 0 0 1-.319.208.85.85 0 0 1-.354.073.67.67 0 0 1-.366-.1.8.8 0 0 1-.263-.269 1.3 1.3 0 0 1-.159-.392 2 2 0 0 1-.053-.464v-.04q.142.21.339.327.195.118.477.118.2 0 .379-.062.18-.062.315-.176A.84.84 0 0 0 1.021.68V.672a.9.9 0 0 0-.296-.684Q.588-.138.4-.21a1.1 1.1 0 0 0-.404-.071" clip-path="url(#u)" transform="matrix(1.33333 0 0 -1.33333 504.712 495.822)"/><use clip-path="url(#v)" href="#j" transform="matrix(1.33333 0 0 -1.33333 508.099 495.805)"/></g></svg>