<svg xmlns="http://www.w3.org/2000/svg" width="31.495" height="93.967" viewBox="0 0 31.495 93.967"><defs><clipPath id="a" clipPathUnits="userSpaceOnUse"><path d="M-548.845 706.236h612v-792h-612Z"/></clipPath><clipPath id="b" clipPathUnits="userSpaceOnUse"><path d="M-408.89 318.26h612v-792h-612Z"/></clipPath><clipPath id="d" clipPathUnits="userSpaceOnUse"><path d="M-413.729 318.26h612v-792h-612Z"/></clipPath><clipPath id="e" clipPathUnits="userSpaceOnUse"><path d="M0 792h612V0H0Z"/></clipPath><clipPath id="f" clipPathUnits="userSpaceOnUse"><path d="M-429.328 318.26h612v-792h-612Z"/></clipPath><clipPath id="g" clipPathUnits="userSpaceOnUse"><path d="M-418.913 370.68h612v-792h-612Z"/></clipPath><clipPath id="h" clipPathUnits="userSpaceOnUse"><path d="M-418.913 373.203h612v-792h-612Z"/></clipPath><clipPath id="i" clipPathUnits="userSpaceOnUse"><path d="M-409.433 368.197h612v-792h-612Z"/></clipPath><clipPath id="k" clipPathUnits="userSpaceOnUse"><path d="M-411.724 369.793h612v-792h-612Z"/></clipPath><clipPath id="m" clipPathUnits="userSpaceOnUse"><path d="M-413.96 370.495h612v-792h-612Z"/></clipPath><clipPath id="o" clipPathUnits="userSpaceOnUse"><path d="M-416.676 370.495h612v-792h-612Z"/></clipPath><clipPath id="p" clipPathUnits="userSpaceOnUse"><path d="M-428.785 370.79h612v-792h-612Z"/></clipPath><clipPath id="q" clipPathUnits="userSpaceOnUse"><path d="M-431.205 370.508h612v-792h-612Z"/></clipPath><clipPath id="r" clipPathUnits="userSpaceOnUse"><path d="M-412.44 374.228h612v-792h-612Z"/></clipPath><clipPath id="s" clipPathUnits="userSpaceOnUse"><path d="M-413.164 376.522h612v-792h-612Z"/></clipPath><clipPath id="t" clipPathUnits="userSpaceOnUse"><path d="M-416.675 376.526h612v-792h-612Z"/></clipPath><clipPath id="u" clipPathUnits="userSpaceOnUse"><path d="M-429.312 375.824h612v-792h-612Z"/></clipPath><clipPath id="v" clipPathUnits="userSpaceOnUse"><path d="M-431.37 375.18h612v-792h-612Z"/></clipPath><path id="c" fill="#575756" d="M0 0h.394v-.444q.065.097.145.188a.87.87 0 0 0 .41.271 1 1 0 0 0 .296.041.88.88 0 0 0 .531-.151 1 1 0 0 0 .317-.375q.071.108.16.204a1 1 0 0 0 .455.281q.14.04.313.041.459 0 .72-.284.26-.282.26-.778v-1.633h-.393v1.545q0 .383-.181.59-.18.208-.502.208a.72.72 0 0 1-.514-.213.7.7 0 0 1-.155-.258 1 1 0 0 1-.056-.347v-1.525h-.393v1.555q0 .373-.181.58a.63.63 0 0 1-.498.208.68.68 0 0 1-.523-.235.9.9 0 0 1-.156-.264 1 1 0 0 1-.055-.335v-1.509H0Z"/><path id="j" fill="#575756" d="m0 0-.539-.167-.077.262.699.24h.24v-2.878H0Z"/><path id="l" fill="#575756" d="M0 0v1.474L-1.2 0Zm0-.27h-1.507l-.081.237L.028 1.931h.286V0h.441v-.27H.314v-.677H0Z"/><path id="n" fill="#575756" d="M0 0q.2 0 .361.096a.9.9 0 0 1 .274.257q.112.161.171.376.06.214.059.447v.008q0 .232-.061.447-.06.213-.175.378a.9.9 0 0 1-.276.261.7.7 0 0 1-.362.097.7.7 0 0 1-.361-.096.9.9 0 0 1-.274-.256 1.3 1.3 0 0 1-.172-.374 1.6 1.6 0 0 1-.062-.449v-.008q0-.233.062-.448.06-.213.174-.377A.9.9 0 0 1-.363.098.7.7 0 0 1 0 0m-.009-.294a1.07 1.07 0 0 0-.879.435 1.5 1.5 0 0 0-.241.467 1.9 1.9 0 0 0-.084.568v.008q0 .298.086.567a1.5 1.5 0 0 0 .245.472q.16.201.382.32.221.118.5.118.274 0 .496-.116.223-.116.379-.318.158-.202.241-.469.084-.268.084-.566v-.008q0-.303-.086-.57A1.5 1.5 0 0 0 .871.145a1.15 1.15 0 0 0-.382-.321 1.05 1.05 0 0 0-.498-.118"/><color-profile name="Coated FOGRA39 (ISO 12647-2:2004)"/></defs><g transform="translate(-545.089 -423.001)"><path fill="#9d9c9c" d="m0 0-.365 472.516-487.584.204v.976l488.577-.204-.017-.653L.977 0Z" clip-path="url(#a)" transform="matrix(1.33333 0 0 -1.33333 731.793 941.648)"/><use clip-path="url(#b)" href="#c" transform="matrix(1.33333 0 0 -1.33333 545.187 424.348)"/><use clip-path="url(#d)" href="#c" transform="matrix(1.33333 0 0 -1.33333 551.638 424.348)"/><path fill="#575756" d="M428.022 473.739h.393V471.1h-.393zm-.025 1.01h.449v-.434h-.449z" clip-path="url(#e)" transform="matrix(1.33333 0 0 -1.33333 0 1056)"/><path fill="#575756" d="M0 0h.394v-.46q.132.216.346.365.214.151.557.151.24 0 .426-.077a.9.9 0 0 0 .515-.551 1.3 1.3 0 0 0 .069-.429v-1.638h-.393v1.545q0 .368-.188.583-.19.215-.541.215A.8.8 0 0 1 .87-.355a.74.74 0 0 1-.418-.432 1 1 0 0 1-.058-.338v-1.514H0Z" clip-path="url(#f)" transform="matrix(1.33333 0 0 -1.33333 572.437 424.348)"/><path fill="#991b7f" fill-rule="evenodd" d="M0 0h7.655v-4.997H0Z" clip-path="url(#g)" transform="matrix(1.33333 0 0 -1.33333 558.55 494.24)"/><path fill="#d2aace" fill-rule="evenodd" d="M0 0h7.655v-14.523H0Z" clip-path="url(#h)" transform="matrix(1.33333 0 0 -1.33333 558.55 497.604)"/><use clip-path="url(#i)" href="#j" transform="matrix(1.33333 0 0 -1.33333 545.91 490.93)"/><use clip-path="url(#k)" href="#l" transform="matrix(1.33333 0 0 -1.33333 548.965 493.057)"/><use clip-path="url(#m)" href="#n" transform="matrix(1.33333 0 0 -1.33333 551.948 493.993)"/><use clip-path="url(#o)" href="#n" transform="matrix(1.33333 0 0 -1.33333 555.568 493.993)"/><path fill="#575756" d="M0 0q-.306 0-.565.129a1.7 1.7 0 0 0-.456.324l.212.233q.188-.184.39-.289A.9.9 0 0 1 .004.294q.15 0 .279.049a.7.7 0 0 1 .219.133.6.6 0 0 1 .191.451v.008a.6.6 0 0 1-.052.245.6.6 0 0 1-.147.189.7.7 0 0 1-.224.123.9.9 0 0 1-.287.043 1 1 0 0 1-.329-.047 1.5 1.5 0 0 1-.271-.117l-.216.144.081 1.391H.892v-.298H-.47l-.061-.917q.128.058.255.091.129.034.308.034.209 0 .388-.058a.9.9 0 0 0 .313-.172.8.8 0 0 0 .208-.274.9.9 0 0 0 .076-.367V.937A.95.95 0 0 0 .941.556.85.85 0 0 0 .733.259.9.9 0 0 0 .412.067 1.2 1.2 0 0 0 0 0" clip-path="url(#p)" transform="matrix(1.33333 0 0 -1.33333 571.714 494.385)"/><path fill="#575756" d="M0 0q.159 0 .286.052.126.051.216.138A.64.64 0 0 1 .69.655v.009a.58.58 0 0 1-.194.438.78.78 0 0 1-.504.176.8.8 0 0 1-.292-.053.7.7 0 0 1-.226-.141.6.6 0 0 1-.145-.201.6.6 0 0 1-.052-.232V.644q0-.136.054-.254A.6.6 0 0 1-.521.185.7.7 0 0 1-.292.05.8.8 0 0 1 0 0m-.004-.281q-.237 0-.427.077a1 1 0 0 0-.324.213 1.1 1.1 0 0 0-.266.42q-.044.13-.069.298a3 3 0 0 0-.024.388v.008q0 .327.08.61.08.284.232.493.153.208.373.328.222.12.503.12.256 0 .457-.085.2-.087.388-.241l-.188-.249a1.4 1.4 0 0 1-.319.208.85.85 0 0 1-.354.073.67.67 0 0 1-.366-.1.8.8 0 0 1-.263-.269 1.3 1.3 0 0 1-.159-.392 2 2 0 0 1-.053-.464v-.04q.142.21.339.327.195.118.477.118.2 0 .379-.062.18-.062.315-.176A.84.84 0 0 0 1.021.68V.672a.9.9 0 0 0-.296-.684Q.588-.138.4-.21a1.1 1.1 0 0 0-.404-.071" clip-path="url(#q)" transform="matrix(1.33333 0 0 -1.33333 574.94 494.01)"/><use clip-path="url(#r)" href="#j" transform="matrix(1.33333 0 0 -1.33333 549.92 498.971)"/><path fill="#575756" d="m0 0 1.036.914q.165.148.278.266t.184.222q.069.105.102.204a.7.7 0 0 1 .033.206.53.53 0 0 1-.356.509.6.6 0 0 1-.22.038.7.7 0 0 1-.42-.124 1.6 1.6 0 0 1-.348-.365l-.236.171q.098.144.2.258.101.114.223.191.12.078.269.118.148.042.336.041.192 0 .356-.061a.9.9 0 0 0 .282-.169.78.78 0 0 0 .249-.578v-.008a1 1 0 0 0-.043-.288 1 1 0 0 0-.131-.261 2 2 0 0 0-.225-.263 6 6 0 0 0-.324-.298L.481.045h1.515v-.294H0Z" clip-path="url(#s)" transform="matrix(1.33333 0 0 -1.33333 550.885 502.03)"/><use clip-path="url(#t)" href="#n" transform="matrix(1.33333 0 0 -1.33333 555.566 502.035)"/><use clip-path="url(#u)" href="#l" transform="matrix(1.33333 0 0 -1.33333 572.415 501.099)"/><path fill="#575756" d="M0 0a1 1 0 0 1 .255.039q.12.04.208.107a.5.5 0 0 1 .139.163.44.44 0 0 1 .051.213v.009a.4.4 0 0 1-.049.196.5.5 0 0 1-.137.157.6.6 0 0 1-.208.104A1 1 0 0 1 0 1.025 1 1 0 0 1-.26.988.7.7 0 0 1-.468.887.5.5 0 0 1-.604.729.4.4 0 0 1-.653.531V.522q0-.118.05-.213A.5.5 0 0 1-.464.146.7.7 0 0 1-.255.039 1 1 0 0 1 0 0m-.002-1.351q.177 0 .314.043a.8.8 0 0 1 .237.117.5.5 0 0 1 .146.169.43.43 0 0 1 .052.206v.008a.4.4 0 0 1-.06.218.54.54 0 0 1-.159.172.8.8 0 0 1-.238.112 1 1 0 0 1-.292.041q-.155 0-.293-.041a.8.8 0 0 1-.239-.112.5.5 0 0 1-.16-.172.43.43 0 0 1-.057-.218v-.008q0-.106.051-.205a.5.5 0 0 1 .147-.17.8.8 0 0 1 .236-.117q.139-.043.315-.043m0-.282q-.228 0-.424.06a1.1 1.1 0 0 0-.341.165.8.8 0 0 0-.225.255.7.7 0 0 0-.082.329v.008q0 .257.165.432.165.176.422.27-.098.045-.188.108a1 1 0 0 0-.156.143.63.63 0 0 0-.145.406v.009q0 .162.08.302a.8.8 0 0 0 .212.241q.133.101.31.157a1.3 1.3 0 0 0 .747 0 1 1 0 0 0 .311-.157.8.8 0 0 0 .212-.241.6.6 0 0 0 .08-.302V.543A.6.6 0 0 0 .937.318.7.7 0 0 0 .83.137a1 1 0 0 0-.158-.143 1 1 0 0 0-.19-.108q.254-.094.42-.27a.6.6 0 0 0 .167-.428V-.82a.7.7 0 0 0-.081-.333.8.8 0 0 0-.226-.255 1.1 1.1 0 0 0-.34-.165 1.5 1.5 0 0 0-.424-.06" clip-path="url(#v)" transform="matrix(1.33333 0 0 -1.33333 575.159 500.24)"/></g></svg>