<svg xmlns="http://www.w3.org/2000/svg" width="32.895" height="93.966" viewBox="0 0 32.895 93.966"><defs><clipPath id="a" clipPathUnits="userSpaceOnUse"><path d="M-548.845 706.236h612v-792h-612Z"/></clipPath><clipPath id="b" clipPathUnits="userSpaceOnUse"><path d="M-461.112 318.26h612v-792h-612Z"/></clipPath><clipPath id="d" clipPathUnits="userSpaceOnUse"><path d="M-465.95 318.26h612v-792h-612Z"/></clipPath><clipPath id="e" clipPathUnits="userSpaceOnUse"><path d="M0 792h612V0H0Z"/></clipPath><clipPath id="f" clipPathUnits="userSpaceOnUse"><path d="M-480.906 318.26h612v-792h-612Z"/></clipPath><clipPath id="g" clipPathUnits="userSpaceOnUse"><path d="M-470.713 362.859h612v-792h-612Z"/></clipPath><clipPath id="h" clipPathUnits="userSpaceOnUse"><path d="M-470.713 365.249h612v-792h-612Z"/></clipPath><clipPath id="i" clipPathUnits="userSpaceOnUse"><path d="M-459.723 363.11h612v-792h-612Z"/></clipPath><clipPath id="k" clipPathUnits="userSpaceOnUse"><path d="M-463.233 363.113h612v-792h-612Z"/></clipPath><clipPath id="m" clipPathUnits="userSpaceOnUse"><path d="M-465.948 363.113h612v-792h-612Z"/></clipPath><clipPath id="n" clipPathUnits="userSpaceOnUse"><path d="M-468.663 363.113h612v-792h-612Z"/></clipPath><clipPath id="o" clipPathUnits="userSpaceOnUse"><path d="M-480.647 361.767h612v-792h-612Z"/></clipPath><clipPath id="q" clipPathUnits="userSpaceOnUse"><path d="M-483.194 363.113h612v-792h-612Z"/></clipPath><clipPath id="r" clipPathUnits="userSpaceOnUse"><path d="M-461.588 366.291h612v-792h-612Z"/></clipPath><clipPath id="s" clipPathUnits="userSpaceOnUse"><path d="M-463.401 367.242h612v-792h-612Z"/></clipPath><clipPath id="t" clipPathUnits="userSpaceOnUse"><path d="M-465.95 368.589h612v-792h-612Z"/></clipPath><clipPath id="u" clipPathUnits="userSpaceOnUse"><path d="M-468.664 368.589h612v-792h-612Z"/></clipPath><clipPath id="v" clipPathUnits="userSpaceOnUse"><path d="M-481.21 366.27h612v-792h-612Z"/></clipPath><clipPath id="w" clipPathUnits="userSpaceOnUse"><path d="M-481.725 368.585h612v-792h-612Z"/></clipPath><path id="c" fill="#575756" d="M0 0h.394v-.444q.065.097.145.188a.87.87 0 0 0 .41.271 1 1 0 0 0 .296.041.88.88 0 0 0 .531-.151 1 1 0 0 0 .317-.375q.071.108.16.204a1 1 0 0 0 .455.281q.14.04.313.041.459 0 .72-.284.26-.282.26-.778v-1.633h-.393v1.545q0 .383-.181.59-.18.208-.502.208a.72.72 0 0 1-.514-.213.7.7 0 0 1-.155-.258 1 1 0 0 1-.056-.347v-1.525h-.393v1.555q0 .373-.181.58a.63.63 0 0 1-.498.208.68.68 0 0 1-.523-.235.9.9 0 0 1-.156-.264 1 1 0 0 1-.055-.335v-1.509H0Z"/><path id="j" fill="#575756" d="m0 0 1.036.914q.165.148.278.266t.184.222q.069.105.102.204a.7.7 0 0 1 .033.206.53.53 0 0 1-.356.509.6.6 0 0 1-.22.038.7.7 0 0 1-.42-.124 1.6 1.6 0 0 1-.348-.365l-.236.171q.098.144.2.258.101.114.223.191.12.078.269.118.148.042.336.041.192 0 .356-.061a.9.9 0 0 0 .282-.169.78.78 0 0 0 .249-.578v-.008a1 1 0 0 0-.043-.288 1 1 0 0 0-.131-.261 2 2 0 0 0-.225-.263 6 6 0 0 0-.324-.298L.481.045h1.515v-.294H0Z"/><path id="l" fill="#575756" d="M0 0q.2 0 .361.096a.9.9 0 0 1 .274.257q.112.161.171.376.06.214.059.447v.008q0 .232-.061.447-.06.213-.175.378a.9.9 0 0 1-.276.261.7.7 0 0 1-.362.097.7.7 0 0 1-.361-.096.9.9 0 0 1-.274-.256 1.3 1.3 0 0 1-.172-.374 1.6 1.6 0 0 1-.062-.449v-.008q0-.233.062-.448.06-.213.174-.377A.9.9 0 0 1-.363.098.7.7 0 0 1 0 0m-.009-.294a1.07 1.07 0 0 0-.879.435 1.5 1.5 0 0 0-.241.467 1.9 1.9 0 0 0-.084.568v.008q0 .298.086.567a1.5 1.5 0 0 0 .245.472q.16.201.382.32.221.118.5.118.274 0 .496-.116.223-.116.379-.318.158-.202.241-.469.084-.268.084-.566v-.008q0-.303-.086-.57A1.5 1.5 0 0 0 .871.145a1.15 1.15 0 0 0-.382-.321 1.05 1.05 0 0 0-.498-.118"/><path id="p" fill="#575756" d="M0 0a1 1 0 0 1 .255.039q.12.04.208.107a.5.5 0 0 1 .139.163.44.44 0 0 1 .051.213v.009a.4.4 0 0 1-.049.196.5.5 0 0 1-.137.157.6.6 0 0 1-.208.104A1 1 0 0 1 0 1.025 1 1 0 0 1-.26.988.7.7 0 0 1-.468.887.5.5 0 0 1-.604.729.4.4 0 0 1-.653.531V.522q0-.118.05-.213A.5.5 0 0 1-.464.146.7.7 0 0 1-.255.039 1 1 0 0 1 0 0m-.002-1.351q.177 0 .314.043a.8.8 0 0 1 .237.117.5.5 0 0 1 .146.169.43.43 0 0 1 .052.206v.008a.4.4 0 0 1-.06.218.54.54 0 0 1-.159.172.8.8 0 0 1-.238.112 1 1 0 0 1-.292.041q-.155 0-.293-.041a.8.8 0 0 1-.239-.112.5.5 0 0 1-.16-.172.43.43 0 0 1-.057-.218v-.008q0-.106.051-.205a.5.5 0 0 1 .147-.17.8.8 0 0 1 .236-.117q.139-.043.315-.043m0-.282q-.228 0-.424.06a1.1 1.1 0 0 0-.341.165.8.8 0 0 0-.225.255.7.7 0 0 0-.082.329v.008q0 .257.165.432.165.176.422.27-.098.045-.188.108a1 1 0 0 0-.156.143.63.63 0 0 0-.145.406v.009q0 .162.08.302a.8.8 0 0 0 .212.241q.133.101.31.157a1.3 1.3 0 0 0 .747 0 1 1 0 0 0 .311-.157.8.8 0 0 0 .212-.241.6.6 0 0 0 .08-.302V.543A.6.6 0 0 0 .937.318.7.7 0 0 0 .83.137a1 1 0 0 0-.158-.143 1 1 0 0 0-.19-.108q.254-.094.42-.27a.6.6 0 0 0 .167-.428V-.82a.7.7 0 0 0-.081-.333.8.8 0 0 0-.226-.255 1.1 1.1 0 0 0-.34-.165 1.5 1.5 0 0 0-.424-.06"/><color-profile name="Coated FOGRA39 (ISO 12647-2:2004)"/></defs><g transform="translate(-612.964 -423.001)"><path fill="#9d9c9c" d="m0 0-.365 472.516-487.584.204v.976l488.577-.204-.017-.653L.977 0Z" clip-path="url(#a)" transform="matrix(1.33333 0 0 -1.33333 731.793 941.648)"/><use clip-path="url(#b)" href="#c" transform="matrix(1.33333 0 0 -1.33333 614.816 424.348)"/><use clip-path="url(#d)" href="#c" transform="matrix(1.33333 0 0 -1.33333 621.267 424.348)"/><path fill="#575756" d="M479.601 473.739h.393V471.1h-.393zm-.026 1.01h.449v-.434h-.449z" clip-path="url(#e)" transform="matrix(1.33333 0 0 -1.33333 0 1056)"/><path fill="#575756" d="M0 0h.394v-.46q.132.216.346.365.214.151.557.151.24 0 .426-.077a.9.9 0 0 0 .515-.551 1.3 1.3 0 0 0 .069-.429v-1.638h-.393v1.545q0 .368-.188.583-.19.215-.541.215A.8.8 0 0 1 .87-.355a.74.74 0 0 1-.418-.432 1 1 0 0 1-.058-.338v-1.514H0Z" clip-path="url(#f)" transform="matrix(1.33333 0 0 -1.33333 641.208 424.348)"/><path fill="#432c7e" fill-rule="evenodd" d="M0 0h7.655v-18.629H0Z" clip-path="url(#g)" transform="matrix(1.33333 0 0 -1.33333 627.618 483.811)"/><path fill="#aea0ca" fill-rule="evenodd" d="M0 0h7.655v-22.477H0Z" clip-path="url(#h)" transform="matrix(1.33333 0 0 -1.33333 627.618 486.998)"/><use clip-path="url(#i)" href="#j" transform="matrix(1.33333 0 0 -1.33333 612.964 484.146)"/><use clip-path="url(#k)" href="#l" transform="matrix(1.33333 0 0 -1.33333 617.645 484.151)"/><use clip-path="url(#m)" href="#l" transform="matrix(1.33333 0 0 -1.33333 621.264 484.151)"/><use clip-path="url(#n)" href="#l" transform="matrix(1.33333 0 0 -1.33333 624.884 484.151)"/><use clip-path="url(#o)" href="#p" transform="matrix(1.33333 0 0 -1.33333 640.862 482.355)"/><use clip-path="url(#q)" href="#l" transform="matrix(1.33333 0 0 -1.33333 644.26 484.151)"/><path fill="#575756" d="m0 0-.539-.167-.077.262.699.24h.24v-2.878H0Z" clip-path="url(#r)" transform="matrix(1.33333 0 0 -1.33333 615.45 488.388)"/><use clip-path="url(#s)" href="#p" transform="matrix(1.33333 0 0 -1.33333 617.869 489.656)"/><use clip-path="url(#t)" href="#l" transform="matrix(1.33333 0 0 -1.33333 621.266 491.452)"/><use clip-path="url(#u)" href="#l" transform="matrix(1.33333 0 0 -1.33333 624.885 491.452)"/><path fill="#575756" d="M0 0h-1.572v.294H.367v-.24L-.931-2.563h-.359Z" clip-path="url(#v)" transform="matrix(1.33333 0 0 -1.33333 641.613 488.36)"/><use clip-path="url(#w)" href="#j" transform="matrix(1.33333 0 0 -1.33333 642.3 491.447)"/></g></svg>