<svg xmlns="http://www.w3.org/2000/svg" width="6.804" height="6.804" viewBox="0 0 6.804 6.804"><defs><clipPath id="a" clipPathUnits="userSpaceOnUse"><path d="M-424.84 573.204h612v-792h-612Z"/></clipPath><clipPath id="b" clipPathUnits="userSpaceOnUse"><path d="M-548.845 706.236h612v-792h-612Z"/></clipPath><color-profile name="Coated FOGRA39 (ISO 12647-2:2004)"/></defs><g transform="translate(-559.648 -760.873)"><path fill="#991b7f" d="M0 0a2.554 2.554 0 0 0-2.552-2.554 2.55 2.55 0 1 0 0 5.103A2.55 2.55 0 0 0 0 0" clip-path="url(#a)" transform="matrix(1.33333 0 0 -1.33333 566.452 764.272)"/><path fill="#9d9c9c" d="m0 0-.365 472.516-487.584.204v.976l488.577-.204-.017-.653L.977 0Z" clip-path="url(#b)" transform="matrix(1.33333 0 0 -1.33333 731.793 941.648)"/></g></svg>