<svg xmlns="http://www.w3.org/2000/svg" width="30.802" height="110.447" viewBox="0 0 30.802 110.447"><defs><clipPath id="a" clipPathUnits="userSpaceOnUse"><path d="M-548.845 706.236h612v-792h-612Z"/></clipPath><clipPath id="b" clipPathUnits="userSpaceOnUse"><path d="M-527.403 466.328h612v-792h-612Z"/></clipPath><clipPath id="c" clipPathUnits="userSpaceOnUse"><path d="M520.444 373.115v-47.443a6.07 6.07 0 0 1-2.643-5.006c0-3.362 2.739-6.087 6.121-6.087 3.384 0 6.124 2.725 6.124 6.087a6.07 6.07 0 0 1-2.642 5.006l-.001 47.443c0 1.91-1.559 3.459-3.481 3.459a3.47 3.47 0 0 1-3.478-3.459"/></clipPath><clipPath id="d" clipPathUnits="userSpaceOnUse"><path d="M-513.629 395.469h612v-792h-612Z"/></clipPath><clipPath id="f" clipPathUnits="userSpaceOnUse"><path d="M-517.044 398.74h612v-792h-612Z"/></clipPath><clipPath id="g" clipPathUnits="userSpaceOnUse"><path d="M-531.826 395.469h612v-792h-612Z"/></clipPath><clipPath id="h" clipPathUnits="userSpaceOnUse"><path d="M-533.607 395.106h612v-792h-612Z"/></clipPath><clipPath id="i" clipPathUnits="userSpaceOnUse"><path d="M-514.242 417.999h612v-792h-612Z"/></clipPath><clipPath id="k" clipPathUnits="userSpaceOnUse"><path d="M-518.088 415.685h612v-792h-612Z"/></clipPath><clipPath id="m" clipPathUnits="userSpaceOnUse"><path d="M-531.837 416.656h612v-792h-612Z"/></clipPath><clipPath id="n" clipPathUnits="userSpaceOnUse"><path d="M-533.65 415.705h612v-792h-612Z"/></clipPath><clipPath id="p" clipPathUnits="userSpaceOnUse"><path d="M-515.164 440.104h612v-792h-612Z"/></clipPath><clipPath id="q" clipPathUnits="userSpaceOnUse"><path d="M-517.94 437.81h612v-792h-612Z"/></clipPath><clipPath id="r" clipPathUnits="userSpaceOnUse"><path d="M-532.4 437.79h612v-792h-612Z"/></clipPath><clipPath id="s" clipPathUnits="userSpaceOnUse"><path d="M-534.163 440.108h612v-792h-612Z"/></clipPath><path id="e" fill="#575756" d="M0 0q.144 0 .248.102a.345.345 0 0 1 0 .498A.34.34 0 0 1 0 .704.34.34 0 0 1-.247.6a.345.345 0 0 1 0-.498A.34.34 0 0 1 0 0m0-.184a.56.56 0 0 0-.513.327.52.52 0 0 0 .12.585q.077.072.176.114a.57.57 0 0 0 .432 0A.6.6 0 0 0 .394.728Q.469.653.514.556a.5.5 0 0 0 0-.413.55.55 0 0 0-.299-.286A.6.6 0 0 0 0-.184"/><path id="j" fill="#575756" d="m0 0 1.036.914q.165.148.278.266t.184.222q.069.105.102.204a.7.7 0 0 1 .033.206.53.53 0 0 1-.356.509.6.6 0 0 1-.22.038.7.7 0 0 1-.42-.124 1.6 1.6 0 0 1-.348-.365l-.236.171q.098.144.2.258.101.114.223.191.12.078.269.118.148.042.336.041.192 0 .356-.061a.9.9 0 0 0 .282-.169.78.78 0 0 0 .249-.578v-.008a1 1 0 0 0-.043-.288 1 1 0 0 0-.131-.261 2 2 0 0 0-.225-.263 6 6 0 0 0-.324-.298L.481.045h1.515v-.294H0Z"/><path id="l" fill="#575756" d="M0 0h-1.572v.294H.367v-.24L-.931-2.563h-.359Z"/><path id="o" fill="#575756" d="m0 0-.539-.167-.077.262.699.24h.24v-2.878H0Z"/><color-profile name="Coated FOGRA39 (ISO 12647-2:2004)"/></defs><g transform="translate(-684.097 -526.114)"><path fill="#9d9c9c" d="m0 0-.365 472.516-487.584.204v.976l488.577-.204-.017-.653L.977 0Z" clip-path="url(#a)" transform="matrix(1.33333 0 0 -1.33333 731.793 941.648)"/><path fill="#df2e4f" d="M0 0v47.443c0 1.909-1.559 3.458-3.48 3.458s-3.479-1.549-3.479-3.458V0a6.07 6.07 0 0 1-2.643-5.005c0-3.363 2.739-6.088 6.122-6.088s6.123 2.725 6.123 6.088A6.07 6.07 0 0 1 0 0" clip-path="url(#b)" transform="matrix(1.33333 0 0 -1.33333 703.204 621.77)"/><path fill="#f3b7b4" fill-rule="evenodd" d="M516.741 354.594h14.287v-40.956h-14.287z" clip-path="url(#c)" transform="matrix(1.33333 0 0 -1.33333 0 1056)"/><use clip-path="url(#d)" href="#e" transform="matrix(1.33333 0 0 -1.33333 684.839 527.292)"/><path fill="#575756" d="M0 0a1.75 1.75 0 0 0-1.281.533 1.8 1.8 0 0 0-.375.585 1.9 1.9 0 0 0-.136.719v.011a1.9 1.9 0 0 0 .511 1.303 1.75 1.75 0 0 0 1.296.544q.245 0 .441-.041a1.8 1.8 0 0 0 .677-.294q.142-.103.275-.231l-.275-.297a2.3 2.3 0 0 1-.493.353 1.35 1.35 0 0 1-.63.137 1.34 1.34 0 0 1-.988-.424 1.4 1.4 0 0 1-.291-.466 1.6 1.6 0 0 1-.104-.575v-.009q0-.312.104-.579.105-.268.291-.467.187-.2.439-.315Q-.285.373.01.373q.368 0 .633.135.264.135.52.381l.266-.261A3 3 0 0 0 1.14.37 1.83 1.83 0 0 0 0 0" clip-path="url(#f)" transform="matrix(1.33333 0 0 -1.33333 689.392 531.654)"/><use clip-path="url(#g)" href="#e" transform="matrix(1.33333 0 0 -1.33333 709.102 527.292)"/><path fill="#575756" d="M0 0h2.567v-.373H.403v-1.275h1.935v-.368H.403v-1.556H0Z" clip-path="url(#h)" transform="matrix(1.33333 0 0 -1.33333 711.477 526.809)"/><use clip-path="url(#i)" href="#j" transform="matrix(1.33333 0 0 -1.33333 685.656 557.332)"/><use clip-path="url(#k)" href="#l" transform="matrix(1.33333 0 0 -1.33333 690.784 554.246)"/><path fill="#575756" d="M0 0a1 1 0 0 1 .255.039q.12.04.208.107a.5.5 0 0 1 .139.163.44.44 0 0 1 .051.213v.009a.4.4 0 0 1-.049.196.5.5 0 0 1-.137.157.6.6 0 0 1-.208.104A1 1 0 0 1 0 1.025 1 1 0 0 1-.26.988.7.7 0 0 1-.468.887.5.5 0 0 1-.604.729.4.4 0 0 1-.653.531V.522q0-.118.05-.213A.5.5 0 0 1-.464.146.7.7 0 0 1-.255.039 1 1 0 0 1 0 0m-.002-1.351q.177 0 .314.043a.8.8 0 0 1 .237.117.5.5 0 0 1 .146.169.43.43 0 0 1 .052.206v.008a.4.4 0 0 1-.06.218.54.54 0 0 1-.159.172.8.8 0 0 1-.238.112 1 1 0 0 1-.292.041q-.155 0-.293-.041a.8.8 0 0 1-.239-.112.5.5 0 0 1-.16-.172.43.43 0 0 1-.057-.218v-.008q0-.106.051-.205a.5.5 0 0 1 .147-.17.8.8 0 0 1 .236-.117q.139-.043.315-.043m0-.282q-.228 0-.424.06a1.1 1.1 0 0 0-.341.165.8.8 0 0 0-.225.255.7.7 0 0 0-.082.329v.008q0 .257.165.432.165.176.422.27-.098.045-.188.108a1 1 0 0 0-.156.143.63.63 0 0 0-.145.406v.009q0 .162.08.302a.8.8 0 0 0 .212.241q.133.101.31.157a1.3 1.3 0 0 0 .747 0 1 1 0 0 0 .311-.157.8.8 0 0 0 .212-.241.6.6 0 0 0 .08-.302V.543A.6.6 0 0 0 .937.318.7.7 0 0 0 .83.137a1 1 0 0 0-.158-.143 1 1 0 0 0-.19-.108q.254-.094.42-.27a.6.6 0 0 0 .167-.428V-.82a.7.7 0 0 0-.081-.333.8.8 0 0 0-.226-.255 1.1 1.1 0 0 0-.34-.165 1.5 1.5 0 0 0-.424-.06" clip-path="url(#m)" transform="matrix(1.33333 0 0 -1.33333 709.116 555.542)"/><use clip-path="url(#n)" href="#o" transform="matrix(1.33333 0 0 -1.33333 711.533 554.273)"/><use clip-path="url(#p)" href="#j" transform="matrix(1.33333 0 0 -1.33333 686.885 586.806)"/><use clip-path="url(#q)" href="#o" transform="matrix(1.33333 0 0 -1.33333 690.586 583.747)"/><use clip-path="url(#r)" href="#l" transform="matrix(1.33333 0 0 -1.33333 709.867 583.72)"/><path fill="#575756" d="M0 0q.2 0 .361.096a.9.9 0 0 1 .274.257q.112.161.171.376.06.214.059.447v.008q0 .232-.061.447-.06.213-.175.378a.9.9 0 0 1-.276.261.7.7 0 0 1-.362.097.7.7 0 0 1-.361-.096.9.9 0 0 1-.274-.256 1.3 1.3 0 0 1-.172-.374 1.6 1.6 0 0 1-.062-.449v-.008q0-.233.062-.448.06-.213.174-.377A.9.9 0 0 1-.363.098.7.7 0 0 1 0 0m-.009-.294a1.07 1.07 0 0 0-.879.435 1.5 1.5 0 0 0-.241.467 1.9 1.9 0 0 0-.084.568v.008q0 .298.086.567a1.5 1.5 0 0 0 .245.472q.16.201.382.32.221.118.5.118.274 0 .496-.116.223-.116.379-.318.158-.202.241-.469.084-.268.084-.566v-.008q0-.303-.086-.57A1.5 1.5 0 0 0 .871.145a1.15 1.15 0 0 0-.382-.321 1.05 1.05 0 0 0-.498-.118" clip-path="url(#s)" transform="matrix(1.33333 0 0 -1.33333 712.217 586.811)"/></g></svg>