<svg xmlns="http://www.w3.org/2000/svg" width="30.801" height="110.449" viewBox="0 0 30.801 110.449"><defs><clipPath id="a" clipPathUnits="userSpaceOnUse"><path d="M-171.677 466.328h612v-792h-612Z"/></clipPath><clipPath id="b" clipPathUnits="userSpaceOnUse"><path d="M3.654 58.445V-2.968A6.07 6.07 0 0 1 1.01-7.974c0-3.362 2.739-6.087 6.122-6.087s6.123 2.725 6.123 6.087a6.07 6.07 0 0 1-2.643 5.006v61.413c0 1.908-1.56 3.456-3.48 3.456-1.922 0-3.48-1.548-3.48-3.456"/></clipPath><clipPath id="c" clipPathUnits="userSpaceOnUse"><path d="M-548.845 706.236h612v-792h-612Z"/></clipPath><clipPath id="d" clipPathUnits="userSpaceOnUse"><path d="M-157.054 395.468h612v-792h-612Z"/></clipPath><clipPath id="f" clipPathUnits="userSpaceOnUse"><path d="M-160.468 398.74h612v-792h-612Z"/></clipPath><clipPath id="g" clipPathUnits="userSpaceOnUse"><path d="M-175.25 395.468h612v-792h-612Z"/></clipPath><clipPath id="h" clipPathUnits="userSpaceOnUse"><path d="M-177.032 395.105h612v-792h-612Z"/></clipPath><clipPath id="i" clipPathUnits="userSpaceOnUse"><path d="M-159.605 404.541h612v-792h-612Z"/></clipPath><clipPath id="j" clipPathUnits="userSpaceOnUse"><path d="M-161.365 401.95h612v-792h-612Z"/></clipPath><clipPath id="l" clipPathUnits="userSpaceOnUse"><path d="M-175.26 402.9h612v-792h-612Z"/></clipPath><clipPath id="n" clipPathUnits="userSpaceOnUse"><path d="M-177.628 402.9h612v-792h-612Z"/></clipPath><clipPath id="o" clipPathUnits="userSpaceOnUse"><path d="M-158.83 464.128h612v-792h-612Z"/></clipPath><clipPath id="p" clipPathUnits="userSpaceOnUse"><path d="M-161.12 465.724h612v-792h-612Z"/></clipPath><clipPath id="q" clipPathUnits="userSpaceOnUse"><path d="M-175.211 466.72h612v-792h-612Z"/></clipPath><clipPath id="r" clipPathUnits="userSpaceOnUse"><path d="M-177.996 464.107h612v-792h-612Z"/></clipPath><path id="e" fill="#575756" d="M0 0q.143 0 .248.102a.34.34 0 0 1 .104.25A.34.34 0 0 1 .248.6.34.34 0 0 1 0 .704.34.34 0 0 1-.248.6.34.34 0 0 1-.352.352q0-.148.104-.25A.35.35 0 0 1 0 0m0-.184a.57.57 0 0 0-.393.156.5.5 0 0 0-.12.171.5.5 0 0 0-.043.209q0 .107.043.204a.56.56 0 0 0 .296.286.57.57 0 0 0 .61-.114.6.6 0 0 0 .12-.172.5.5 0 0 0 .043-.204.5.5 0 0 0-.043-.209.54.54 0 0 0-.299-.286A.6.6 0 0 0 0-.184"/><path id="k" fill="#575756" d="m0 0-.539-.167-.078.262.7.24h.239v-2.878H0Z"/><path id="m" fill="#575756" d="M0 0a1 1 0 0 1 .255.039.7.7 0 0 1 .208.107.5.5 0 0 1 .139.163.44.44 0 0 1 .051.213v.009a.4.4 0 0 1-.049.196.5.5 0 0 1-.137.157.6.6 0 0 1-.208.104A1 1 0 0 1 0 1.025 1 1 0 0 1-.259.988.7.7 0 0 1-.468.887.5.5 0 0 1-.604.729.4.4 0 0 1-.653.531V.522a.46.46 0 0 1 .19-.376.7.7 0 0 1 .208-.107A1 1 0 0 1 0 0m-.002-1.351q.176 0 .315.043a.8.8 0 0 1 .235.117.5.5 0 0 1 .148.169.43.43 0 0 1 .051.206v.008q0 .119-.06.218a.54.54 0 0 1-.159.172.8.8 0 0 1-.237.112 1 1 0 0 1-.293.041 1 1 0 0 1-.293-.041.8.8 0 0 1-.239-.112.5.5 0 0 1-.16-.172.43.43 0 0 1-.057-.218v-.008q0-.106.051-.205a.5.5 0 0 1 .147-.17.8.8 0 0 1 .236-.117q.138-.043.315-.043m0-.282q-.228 0-.424.06-.195.059-.34.165a.8.8 0 0 0-.226.255.7.7 0 0 0-.082.329v.008q0 .257.165.432.165.176.422.27-.098.045-.187.108a.8.8 0 0 0-.158.143.63.63 0 0 0-.144.406v.009q0 .162.08.302a.8.8 0 0 0 .212.241q.132.101.31.157a1.3 1.3 0 0 0 .748 0q.177-.056.31-.157A.8.8 0 0 0 .896.854a.6.6 0 0 0 .08-.302V.543A.7.7 0 0 0 .937.318.6.6 0 0 0 .83.137a.8.8 0 0 0-.159-.143 1 1 0 0 0-.188-.108 1.1 1.1 0 0 0 .419-.27.6.6 0 0 0 .167-.428V-.82a.7.7 0 0 0-.081-.333.8.8 0 0 0-.226-.255 1.1 1.1 0 0 0-.341-.165q-.195-.06-.423-.06"/><color-profile name="Coated FOGRA39 (ISO 12647-2:2004)"/></defs><g transform="translate(-208.664 -526.113)"><path fill="#e67a06" d="M0 0v61.412c0 1.91-1.559 3.457-3.481 3.457s-3.478-1.547-3.478-3.457V0a6.07 6.07 0 0 1-2.643-5.005c0-3.363 2.739-6.088 6.122-6.088s6.123 2.725 6.123 6.088A6.07 6.07 0 0 1 0 0" clip-path="url(#a)" transform="matrix(1.33333 0 0 -1.33333 228.903 621.77)"/><path fill="#f6d2ac" fill-rule="evenodd" d="M0 0h14.033v-14.988H0Z" clip-path="url(#b)" transform="matrix(1.33333 0 0 -1.33333 214.752 617.813)"/><path fill="#9d9c9c" d="m0 0-.365 472.516-487.584.204v.976l488.577-.204-.017-.653L.977 0Z" clip-path="url(#c)" transform="matrix(1.33333 0 0 -1.33333 731.793 941.648)"/><use clip-path="url(#d)" href="#e" transform="matrix(1.33333 0 0 -1.33333 209.405 527.29)"/><path fill="#575756" d="M0 0q-.389 0-.714.144a1.74 1.74 0 0 0-.942.974q-.135.337-.135.719v.011q0 .378.135.715.135.335.375.588a1.75 1.75 0 0 0 1.296.544q.246 0 .442-.041a1.8 1.8 0 0 0 .365-.115q.168-.073.311-.179.143-.103.276-.231l-.276-.297a2.3 2.3 0 0 1-.492.353 1.36 1.36 0 0 1-.631.137 1.34 1.34 0 0 1-.987-.424 1.4 1.4 0 0 1-.291-.466 1.6 1.6 0 0 1-.105-.575v-.009q0-.312.105-.579.104-.268.291-.467.186-.2.438-.315Q-.285.373.01.373q.368 0 .633.135t.521.381l.265-.261A3 3 0 0 0 1.141.37 1.9 1.9 0 0 0 .444.046 2 2 0 0 0 0 0" clip-path="url(#f)" transform="matrix(1.33333 0 0 -1.33333 213.957 531.652)"/><use clip-path="url(#g)" href="#e" transform="matrix(1.33333 0 0 -1.33333 233.667 527.29)"/><path fill="#575756" d="M0 0h2.567v-.373H.403v-1.275h1.934v-.368H.403v-1.556H0Z" clip-path="url(#h)" transform="matrix(1.33333 0 0 -1.33333 236.042 526.807)"/><path fill="#575756" d="M0 0q-.359 0-.625.141a1.3 1.3 0 0 0-.44.369l.236.209q.163-.205.366-.315A.95.95 0 0 1 .249.333.57.57 0 0 1 .58.62a.5.5 0 0 1 .049.229v.008a.47.47 0 0 1-.225.409.8.8 0 0 1-.253.105 1.3 1.3 0 0 1-.322.037h-.184l-.065.193.902 1.015H-.915v.29H.907V2.67l-.895-.996q.189-.016.358-.07a1 1 0 0 0 .298-.151.7.7 0 0 0 .207-.243.7.7 0 0 0 .076-.341V.861A.83.83 0 0 0 .675.238 1 1 0 0 0 .374.063 1.1 1.1 0 0 0 0 0" clip-path="url(#i)" transform="matrix(1.33333 0 0 -1.33333 212.807 539.388)"/><use clip-path="url(#j)" href="#k" transform="matrix(1.33333 0 0 -1.33333 215.153 535.932)"/><use clip-path="url(#l)" href="#m" transform="matrix(1.33333 0 0 -1.33333 233.68 537.2)"/><use clip-path="url(#n)" href="#m" transform="matrix(1.33333 0 0 -1.33333 236.838 537.2)"/><use clip-path="url(#o)" href="#k" transform="matrix(1.33333 0 0 -1.33333 211.773 618.837)"/><path fill="#575756" d="M0 0v1.474L-1.2 0Zm0-.27h-1.506l-.082.237L.028 1.931h.286V0h.441v-.27H.314v-.677H0Z" clip-path="url(#p)" transform="matrix(1.33333 0 0 -1.33333 214.826 620.965)"/><path fill="#575756" d="M0 0q-.306 0-.565.129a1.7 1.7 0 0 0-.456.324l.213.233q.187-.184.39-.289A.9.9 0 0 1 .004.294q.151 0 .28.049a.7.7 0 0 1 .218.133q.09.083.141.2a.6.6 0 0 1 .051.251v.008a.6.6 0 0 1-.053.245.6.6 0 0 1-.147.189.6.6 0 0 1-.224.123.9.9 0 0 1-.286.043q-.184 0-.329-.047a1.5 1.5 0 0 1-.271-.117l-.217.144.082 1.391H.892v-.298H-.469l-.062-.917a1.6 1.6 0 0 0 .256.091q.129.034.308.034.208 0 .388-.058a.9.9 0 0 0 .313-.172.8.8 0 0 0 .208-.274.9.9 0 0 0 .075-.367V.937A.95.95 0 0 0 .942.556.85.85 0 0 0 .734.259.9.9 0 0 0 .413.067 1.2 1.2 0 0 0 0 0" clip-path="url(#q)" transform="matrix(1.33333 0 0 -1.33333 233.615 622.293)"/><path fill="#575756" d="M0 0h-1.571v.294H.368v-.24L-.931-2.563h-.359Z" clip-path="url(#r)" transform="matrix(1.33333 0 0 -1.33333 237.327 618.81)"/></g></svg>