<svg xmlns="http://www.w3.org/2000/svg" width="31.725" height="110.449" viewBox="0 0 31.725 110.449"><defs><clipPath id="a" clipPathUnits="userSpaceOnUse"><path d="M-374.95 466.328h612v-792h-612Z"/></clipPath><clipPath id="b" clipPathUnits="userSpaceOnUse"><path d="M367.99 369.074v-43.402a6.07 6.07 0 0 1-2.643-5.006c0-3.362 2.739-6.087 6.122-6.087s6.123 2.725 6.123 6.087a6.07 6.07 0 0 1-2.643 5.006v43.402c0 1.908-1.559 3.457-3.48 3.457s-3.479-1.549-3.479-3.457"/></clipPath><clipPath id="c" clipPathUnits="userSpaceOnUse"><path d="M-548.845 706.236h612v-792h-612Z"/></clipPath><clipPath id="d" clipPathUnits="userSpaceOnUse"><path d="M-362.133 395.468h612v-792h-612Z"/></clipPath><clipPath id="f" clipPathUnits="userSpaceOnUse"><path d="M-365.548 398.74h612v-792h-612Z"/></clipPath><clipPath id="g" clipPathUnits="userSpaceOnUse"><path d="M-380.331 395.469h612v-792h-612Z"/></clipPath><clipPath id="h" clipPathUnits="userSpaceOnUse"><path d="M-382.112 395.106h612v-792h-612Z"/></clipPath><clipPath id="i" clipPathUnits="userSpaceOnUse"><path d="M-362.488 422.227h612v-792h-612Z"/></clipPath><clipPath id="k" clipPathUnits="userSpaceOnUse"><path d="M-365.897 422.244h612v-792h-612Z"/></clipPath><clipPath id="l" clipPathUnits="userSpaceOnUse"><path d="M-380.905 419.913h612v-792h-612Z"/></clipPath><clipPath id="m" clipPathUnits="userSpaceOnUse"><path d="M-382.514 421.154h612v-792h-612Z"/></clipPath><clipPath id="n" clipPathUnits="userSpaceOnUse"><path d="M-361.89 469.876h612v-792h-612Z"/></clipPath><clipPath id="o" clipPathUnits="userSpaceOnUse"><path d="M-362.613 472.17h612v-792h-612Z"/></clipPath><clipPath id="p" clipPathUnits="userSpaceOnUse"><path d="M-381.492 472.468h612v-792h-612Z"/></clipPath><clipPath id="q" clipPathUnits="userSpaceOnUse"><path d="M-384.313 471.472h612v-792h-612Z"/></clipPath><path id="e" fill="#575756" d="M0 0q.144 0 .248.102a.345.345 0 0 1 0 .498A.34.34 0 0 1 0 .704.34.34 0 0 1-.247.6a.345.345 0 0 1 0-.498A.34.34 0 0 1 0 0m0-.184a.56.56 0 0 0-.513.327.52.52 0 0 0 .12.585q.077.072.176.114a.57.57 0 0 0 .432 0A.6.6 0 0 0 .394.728Q.469.653.514.556a.5.5 0 0 0 0-.413.55.55 0 0 0-.299-.286A.6.6 0 0 0 0-.184"/><path id="j" fill="#575756" d="m0 0 1.036.914q.165.148.278.266t.184.222q.069.105.102.204a.7.7 0 0 1 .033.206.53.53 0 0 1-.356.509.6.6 0 0 1-.22.038.7.7 0 0 1-.42-.124 1.6 1.6 0 0 1-.348-.365l-.236.171q.098.144.2.258.101.114.223.191.12.078.269.118.148.042.336.041.192 0 .356-.061a.9.9 0 0 0 .282-.169.78.78 0 0 0 .249-.578v-.008a1 1 0 0 0-.043-.288 1 1 0 0 0-.131-.261 2 2 0 0 0-.225-.263 6 6 0 0 0-.324-.298L.481.045h1.515v-.294H0Z"/><color-profile name="Coated FOGRA39 (ISO 12647-2:2004)"/></defs><g transform="translate(-481.698 -526.113)"><path fill="#008ac6" d="M0 0v43.402c0 1.908-1.559 3.457-3.48 3.457s-3.479-1.549-3.479-3.457V0a6.07 6.07 0 0 1-2.643-5.005c0-3.363 2.739-6.088 6.122-6.088s6.123 2.725 6.123 6.088A6.07 6.07 0 0 1 0 0" clip-path="url(#a)" transform="matrix(1.33333 0 0 -1.33333 499.932 621.77)"/><path fill="#b5cdea" fill-rule="evenodd" d="M361.938 322.566h17.43v-8.994h-17.43z" clip-path="url(#b)" transform="matrix(1.33333 0 0 -1.33333 0 1056)"/><path fill="#9d9c9c" d="m0 0-.365 472.516-487.584.204v.976l488.577-.204-.017-.653L.977 0Z" clip-path="url(#c)" transform="matrix(1.33333 0 0 -1.33333 731.793 941.648)"/><use clip-path="url(#d)" href="#e" transform="matrix(1.33333 0 0 -1.33333 482.844 527.29)"/><path fill="#575756" d="M0 0a1.75 1.75 0 0 0-1.281.533 1.8 1.8 0 0 0-.375.585 1.9 1.9 0 0 0-.136.719v.011a1.9 1.9 0 0 0 .511 1.303 1.75 1.75 0 0 0 1.296.544q.245 0 .441-.041a1.8 1.8 0 0 0 .677-.294q.142-.103.275-.231l-.275-.297a2.3 2.3 0 0 1-.493.353 1.35 1.35 0 0 1-.63.137 1.34 1.34 0 0 1-.988-.424 1.4 1.4 0 0 1-.291-.466 1.6 1.6 0 0 1-.104-.575v-.009q0-.312.104-.579.105-.268.291-.467.187-.2.439-.315Q-.285.373.01.373q.368 0 .633.135.264.135.52.381l.266-.261A3 3 0 0 0 1.14.37 1.83 1.83 0 0 0 0 0" clip-path="url(#f)" transform="matrix(1.33333 0 0 -1.33333 487.397 531.652)"/><use clip-path="url(#g)" href="#e" transform="matrix(1.33333 0 0 -1.33333 507.108 527.292)"/><path fill="#575756" d="M0 0h2.567v-.373H.403v-1.275h1.935v-.368H.403v-1.556H0Z" clip-path="url(#h)" transform="matrix(1.33333 0 0 -1.33333 509.483 526.809)"/><use clip-path="url(#i)" href="#j" transform="matrix(1.33333 0 0 -1.33333 483.318 562.97)"/><path fill="#575756" d="M0 0q.159 0 .286.052.126.051.216.138A.64.64 0 0 1 .69.655v.009a.58.58 0 0 1-.194.438.78.78 0 0 1-.504.176.8.8 0 0 1-.292-.053.7.7 0 0 1-.226-.141.6.6 0 0 1-.145-.201.6.6 0 0 1-.052-.232V.644q0-.136.054-.254A.6.6 0 0 1-.521.185.7.7 0 0 1-.292.05.8.8 0 0 1 0 0m-.004-.281q-.237 0-.427.077a1 1 0 0 0-.324.213 1.1 1.1 0 0 0-.266.42q-.044.13-.069.298a3 3 0 0 0-.024.388v.008q0 .327.08.61.08.284.232.493.153.208.373.328.222.12.503.12.256 0 .457-.085.2-.087.388-.241l-.188-.249a1.4 1.4 0 0 1-.319.208.85.85 0 0 1-.354.073.67.67 0 0 1-.366-.1.8.8 0 0 1-.263-.269 1.3 1.3 0 0 1-.159-.392 2 2 0 0 1-.053-.464v-.04q.142.21.339.327.195.118.477.118.2 0 .379-.062.18-.062.315-.176A.84.84 0 0 0 1.021.68V.672a.9.9 0 0 0-.296-.684Q.588-.138.4-.21a1.1 1.1 0 0 0-.404-.071" clip-path="url(#k)" transform="matrix(1.33333 0 0 -1.33333 487.862 562.992)"/><path fill="#575756" d="M0 0h-1.572v.294H.367v-.24L-.931-2.563h-.359Z" clip-path="url(#l)" transform="matrix(1.33333 0 0 -1.33333 507.874 559.884)"/><path fill="#575756" d="M0 0a.76.76 0 0 1 .521.2.63.63 0 0 1 .189.446v.007a.62.62 0 0 1-.202.46.7.7 0 0 1-.231.139.82.82 0 0 1-.581-.004.7.7 0 0 1-.217-.147.7.7 0 0 1-.181-.468V.625A.6.6 0 0 1-.508.176.7.7 0 0 1-.286.048.8.8 0 0 1 0 0m-.077-1.077a.67.67 0 0 1 .365.099.9.9 0 0 1 .265.266q.108.164.164.38.054.214.054.447v.057a1.04 1.04 0 0 0-.333-.331.9.9 0 0 0-.475-.122q-.22 0-.403.065a.9.9 0 0 0-.315.184.84.84 0 0 0-.278.636v.009a.95.95 0 0 0 .61.896q.19.076.419.075.245 0 .429-.077a1 1 0 0 0 .322-.217q.162-.163.259-.42.097-.258.097-.685V.176q-.001-.339-.086-.624a1.5 1.5 0 0 0-.244-.49 1.1 1.1 0 0 0-.375-.319 1 1 0 0 0-.484-.114q-.281 0-.489.1-.21.1-.393.25l.189.25q.174-.155.342-.231a.9.9 0 0 1 .36-.075" clip-path="url(#m)" transform="matrix(1.33333 0 0 -1.33333 510.018 561.54)"/><path fill="#575756" d="m0 0-.539-.167-.077.262.699.24h.24v-2.878H0Z" clip-path="url(#n)" transform="matrix(1.33333 0 0 -1.33333 482.52 626.501)"/><use clip-path="url(#o)" href="#j" transform="matrix(1.33333 0 0 -1.33333 483.484 629.56)"/><path fill="#575756" d="M0 0q-.306 0-.565.129a1.7 1.7 0 0 0-.456.324l.212.233q.188-.184.39-.289A.9.9 0 0 1 .004.294q.15 0 .279.049a.7.7 0 0 1 .219.133.6.6 0 0 1 .191.451v.008a.6.6 0 0 1-.052.245.6.6 0 0 1-.147.189.7.7 0 0 1-.224.123.9.9 0 0 1-.287.043 1 1 0 0 1-.329-.047 1.5 1.5 0 0 1-.271-.117l-.216.144.081 1.391H.892v-.298H-.47l-.061-.917q.128.058.255.091.129.034.308.034.209 0 .388-.058a.9.9 0 0 0 .313-.172.8.8 0 0 0 .208-.274.9.9 0 0 0 .076-.367V.937A.95.95 0 0 0 .941.556.85.85 0 0 0 .733.259.9.9 0 0 0 .412.067 1.2 1.2 0 0 0 0 0" clip-path="url(#p)" transform="matrix(1.33333 0 0 -1.33333 508.656 629.957)"/><path fill="#575756" d="M0 0v1.474L-1.2 0Zm0-.27h-1.507l-.081.237L.028 1.931h.286V0h.441v-.27H.314v-.677H0Z" clip-path="url(#q)" transform="matrix(1.33333 0 0 -1.33333 512.417 628.629)"/></g></svg>