<svg xmlns="http://www.w3.org/2000/svg" width="30.803" height="110.449" viewBox="0 0 30.803 110.449"><defs><clipPath id="a" clipPathUnits="userSpaceOnUse"><path d="M-548.845 706.236h612v-792h-612Z"/></clipPath><clipPath id="b" clipPathUnits="userSpaceOnUse"><path d="M-274.341 466.328h612v-792h-612Z"/></clipPath><clipPath id="c" clipPathUnits="userSpaceOnUse"><path d="M3.726 6.545v-31.442a6.07 6.07 0 0 1-2.642-5.006c0-3.362 2.738-6.087 6.12-6.087s6.125 2.725 6.125 6.087a6.07 6.07 0 0 1-2.643 5.006V6.545C10.686 8.454 9.127 10 7.204 10c-1.92 0-3.478-1.547-3.478-3.456"/></clipPath><clipPath id="d" clipPathUnits="userSpaceOnUse"><path d="M-259.539 395.468h612v-792h-612Z"/></clipPath><clipPath id="f" clipPathUnits="userSpaceOnUse"><path d="M-262.953 398.74h612v-792h-612Z"/></clipPath><clipPath id="g" clipPathUnits="userSpaceOnUse"><path d="M-277.737 395.468h612v-792h-612Z"/></clipPath><clipPath id="h" clipPathUnits="userSpaceOnUse"><path d="M-279.518 395.105h612v-792h-612Z"/></clipPath><clipPath id="i" clipPathUnits="userSpaceOnUse"><path d="M-260.032 433.82h612v-792h-612Z"/></clipPath><clipPath id="k" clipPathUnits="userSpaceOnUse"><path d="M-263.347 434.118h612v-792h-612Z"/></clipPath><clipPath id="m" clipPathUnits="userSpaceOnUse"><path d="M-278.31 431.506h612v-792h-612Z"/></clipPath><clipPath id="n" clipPathUnits="userSpaceOnUse"><path d="M-279.878 434.118h612v-792h-612Z"/></clipPath><clipPath id="o" clipPathUnits="userSpaceOnUse"><path d="M-259.616 444.811h612v-792h-612Z"/></clipPath><clipPath id="p" clipPathUnits="userSpaceOnUse"><path d="M-263.127 444.815h612v-792h-612Z"/></clipPath><clipPath id="q" clipPathUnits="userSpaceOnUse"><path d="M-277.825 444.828h612v-792h-612Z"/></clipPath><clipPath id="r" clipPathUnits="userSpaceOnUse"><path d="M-280.184 443.469h612v-792h-612Z"/></clipPath><path id="e" fill="#575756" d="M0 0q.143 0 .248.102a.34.34 0 0 1 .104.25A.34.34 0 0 1 .248.6.34.34 0 0 1 0 .704.34.34 0 0 1-.248.6.34.34 0 0 1-.352.352q0-.148.104-.25A.35.35 0 0 1 0 0m0-.184a.57.57 0 0 0-.393.156.5.5 0 0 0-.12.171.5.5 0 0 0-.043.209q0 .107.043.204a.56.56 0 0 0 .296.286.57.57 0 0 0 .61-.114.6.6 0 0 0 .12-.172.5.5 0 0 0 .043-.204.5.5 0 0 0-.043-.209.54.54 0 0 0-.299-.286A.6.6 0 0 0 0-.184"/><path id="j" fill="#575756" d="m0 0 1.037.914a6 6 0 0 1 .278.266q.114.118.184.222.068.105.102.204a.7.7 0 0 1 .032.206.52.52 0 0 1-.171.399.6.6 0 0 1-.184.11.6.6 0 0 1-.22.038.7.7 0 0 1-.421-.124A1.5 1.5 0 0 1 .29 1.87l-.237.171q.098.144.2.258t.223.191q.12.078.269.118.15.042.337.041.192 0 .355-.061a.9.9 0 0 0 .282-.169.78.78 0 0 0 .249-.578v-.008a.92.92 0 0 0-.174-.549 1.7 1.7 0 0 0-.224-.263 6 6 0 0 0-.325-.298L.482.045h1.515v-.294H0Z"/><path id="l" fill="#575756" d="M0 0q-.359 0-.625.141a1.3 1.3 0 0 0-.44.369l.236.209q.163-.205.366-.315A.95.95 0 0 1 .249.333.57.57 0 0 1 .58.62a.5.5 0 0 1 .049.229v.008a.47.47 0 0 1-.225.409.8.8 0 0 1-.253.105 1.3 1.3 0 0 1-.322.037h-.184l-.065.193.902 1.015H-.915v.29H.907V2.67l-.895-.996q.189-.016.358-.07a1 1 0 0 0 .298-.151.7.7 0 0 0 .207-.243.7.7 0 0 0 .076-.341V.861A.83.83 0 0 0 .675.238 1 1 0 0 0 .374.063 1.1 1.1 0 0 0 0 0"/><color-profile name="Coated FOGRA39 (ISO 12647-2:2004)"/></defs><g transform="translate(-345.31 -526.113)"><path fill="#9d9c9c" d="m0 0-.365 472.516-487.584.204v.976l488.577-.204-.017-.653L.977 0Z" clip-path="url(#a)" transform="matrix(1.33333 0 0 -1.33333 731.793 941.648)"/><path fill="#006c80" d="M0 0v31.442c0 1.909-1.559 3.456-3.481 3.456s-3.478-1.547-3.478-3.456V0a6.07 6.07 0 0 1-2.643-5.005c0-3.363 2.739-6.088 6.122-6.088s6.123 2.725 6.123 6.088A6.07 6.07 0 0 1 0 0" clip-path="url(#b)" transform="matrix(1.33333 0 0 -1.33333 365.788 621.77)"/><path fill="#d5dde4" fill-rule="evenodd" d="M0 0h15.108v-36.961H0Z" clip-path="url(#c)" transform="matrix(1.33333 0 0 -1.33333 351.54 588.574)"/><use clip-path="url(#d)" href="#e" transform="matrix(1.33333 0 0 -1.33333 346.051 527.29)"/><path fill="#575756" d="M0 0q-.389 0-.714.144a1.74 1.74 0 0 0-.942.974q-.135.337-.135.719v.011q0 .378.135.715.135.335.375.588a1.75 1.75 0 0 0 1.296.544q.246 0 .442-.041a1.8 1.8 0 0 0 .365-.115q.168-.073.311-.179.143-.103.276-.231l-.276-.297a2.3 2.3 0 0 1-.492.353 1.36 1.36 0 0 1-.631.137 1.34 1.34 0 0 1-.987-.424 1.4 1.4 0 0 1-.291-.466 1.6 1.6 0 0 1-.105-.575v-.009q0-.312.105-.579.104-.268.291-.467.186-.2.438-.315Q-.285.373.01.373q.368 0 .633.135t.521.381l.265-.261A3 3 0 0 0 1.141.37 1.9 1.9 0 0 0 .444.046 2 2 0 0 0 0 0" clip-path="url(#f)" transform="matrix(1.33333 0 0 -1.33333 350.603 531.652)"/><use clip-path="url(#g)" href="#e" transform="matrix(1.33333 0 0 -1.33333 370.316 527.29)"/><path fill="#575756" d="M0 0h2.567v-.373H.403v-1.275h1.934v-.368H.403v-1.556H0Z" clip-path="url(#h)" transform="matrix(1.33333 0 0 -1.33333 372.69 526.807)"/><use clip-path="url(#i)" href="#j" transform="matrix(1.33333 0 0 -1.33333 346.71 578.427)"/><use clip-path="url(#k)" href="#l" transform="matrix(1.33333 0 0 -1.33333 351.13 578.824)"/><path fill="#575756" d="M0 0h-1.571v.294H.368v-.24L-.931-2.563h-.359Z" clip-path="url(#m)" transform="matrix(1.33333 0 0 -1.33333 371.08 575.341)"/><use clip-path="url(#n)" href="#l" transform="matrix(1.33333 0 0 -1.33333 373.17 578.824)"/><use clip-path="url(#o)" href="#j" transform="matrix(1.33333 0 0 -1.33333 346.154 593.082)"/><path fill="#575756" d="M0 0q.2 0 .361.096a.9.9 0 0 1 .274.257q.112.161.171.376.06.214.059.447v.008q0 .232-.061.447a1.3 1.3 0 0 1-.176.378.9.9 0 0 1-.275.261.7.7 0 0 1-.361.097.7.7 0 0 1-.362-.096.9.9 0 0 1-.273-.256 1.3 1.3 0 0 1-.174-.374 1.7 1.7 0 0 1-.061-.449v-.008q0-.233.061-.448.062-.213.176-.377A.9.9 0 0 1-.364.098.7.7 0 0 1 0 0m-.008-.294q-.278 0-.5.116a1.14 1.14 0 0 0-.38.319 1.5 1.5 0 0 0-.241.467 1.9 1.9 0 0 0-.084.568v.008q0 .298.086.567.086.27.245.472a1.2 1.2 0 0 0 .382.32q.221.118.5.118.274 0 .496-.116.223-.116.379-.318.158-.202.241-.469.084-.268.084-.566v-.008q0-.303-.086-.57A1.5 1.5 0 0 0 .872.145 1.2 1.2 0 0 0 .49-.176a1.05 1.05 0 0 0-.498-.118" clip-path="url(#p)" transform="matrix(1.33333 0 0 -1.33333 350.836 593.087)"/><path fill="#575756" d="M0 0q.159 0 .286.052.126.051.216.138.09.089.139.209A.7.7 0 0 1 .69.655v.009a.58.58 0 0 1-.194.438.78.78 0 0 1-.504.176.76.76 0 0 1-.519-.194.7.7 0 0 1-.145-.201.6.6 0 0 1-.051-.232V.644A.62.62 0 0 1-.292.05.8.8 0 0 1 0 0m-.004-.281q-.237 0-.427.077a1 1 0 0 0-.324.213 1.05 1.05 0 0 0-.266.42q-.045.13-.069.298a3 3 0 0 0-.025.388v.008q0 .327.08.61.08.284.233.493.153.208.373.328t.502.12q.258 0 .457-.085.2-.087.388-.241L.73 2.099a1.4 1.4 0 0 1-.318.208.85.85 0 0 1-.355.073.67.67 0 0 1-.366-.1.85.85 0 0 1-.263-.269 1.3 1.3 0 0 1-.159-.392 2 2 0 0 1-.053-.464v-.04q.142.21.339.327t.477.118q.2 0 .38-.062t.315-.176A.82.82 0 0 0 1.021.68V.672a.9.9 0 0 0-.296-.684Q.587-.138.4-.21a1.1 1.1 0 0 0-.404-.071" clip-path="url(#q)" transform="matrix(1.33333 0 0 -1.33333 370.433 593.104)"/><path fill="#575756" d="M0 0a1 1 0 0 1 .255.039.7.7 0 0 1 .208.107.5.5 0 0 1 .139.163.44.44 0 0 1 .051.213v.009a.4.4 0 0 1-.049.196.5.5 0 0 1-.137.157.6.6 0 0 1-.208.104A1 1 0 0 1 0 1.025 1 1 0 0 1-.259.988.7.7 0 0 1-.468.887.5.5 0 0 1-.604.729.4.4 0 0 1-.653.531V.522a.46.46 0 0 1 .19-.376.7.7 0 0 1 .208-.107A1 1 0 0 1 0 0m-.002-1.351q.176 0 .315.043a.8.8 0 0 1 .235.117.5.5 0 0 1 .148.169.43.43 0 0 1 .051.206v.008q0 .119-.06.218a.54.54 0 0 1-.159.172.8.8 0 0 1-.237.112 1 1 0 0 1-.293.041 1 1 0 0 1-.293-.041.8.8 0 0 1-.239-.112.5.5 0 0 1-.16-.172.43.43 0 0 1-.057-.218v-.008q0-.106.051-.205a.5.5 0 0 1 .147-.17.8.8 0 0 1 .236-.117q.138-.043.315-.043m0-.282q-.228 0-.424.06-.195.059-.34.165a.8.8 0 0 0-.226.255.7.7 0 0 0-.082.329v.008q0 .257.165.432.165.176.422.27-.098.045-.187.108a.8.8 0 0 0-.158.143.63.63 0 0 0-.144.406v.009q0 .162.08.302a.8.8 0 0 0 .212.241q.132.101.31.157a1.3 1.3 0 0 0 .748 0q.177-.056.31-.157A.8.8 0 0 0 .896.854a.6.6 0 0 0 .08-.302V.543A.7.7 0 0 0 .937.318.6.6 0 0 0 .83.137a.8.8 0 0 0-.159-.143 1 1 0 0 0-.188-.108 1.1 1.1 0 0 0 .419-.27.6.6 0 0 0 .167-.428V-.82a.7.7 0 0 0-.081-.333.8.8 0 0 0-.226-.255 1.1 1.1 0 0 0-.341-.165q-.195-.06-.423-.06" clip-path="url(#r)" transform="matrix(1.33333 0 0 -1.33333 373.579 591.292)"/></g></svg>