<svg xmlns="http://www.w3.org/2000/svg" width="22.878" height="96.907" viewBox="0 0 22.878 96.907"><defs><clipPath id="b" clipPathUnits="userSpaceOnUse"><path d="M-163.6 206.022h612v-792h-612Z"/></clipPath><clipPath id="c" clipPathUnits="userSpaceOnUse"><path d="M-163.857 203.073h612v-792h-612Z"/></clipPath><clipPath id="d" clipPathUnits="userSpaceOnUse"><path d="M-164.555 194.678h612v-792h-612Z"/></clipPath><clipPath id="f" clipPathUnits="userSpaceOnUse"><path d="M-164.896 191.968h612v-792h-612Z"/></clipPath><clipPath id="g" clipPathUnits="userSpaceOnUse"><path d="M-163.444 185.29h612v-792h-612Z"/></clipPath><clipPath id="h" clipPathUnits="userSpaceOnUse"><path d="M-161.368 182.893h612v-792h-612Z"/></clipPath><clipPath id="j" clipPathUnits="userSpaceOnUse"><path d="M-164.555 174.259h612v-792h-612Z"/></clipPath><clipPath id="k" clipPathUnits="userSpaceOnUse"><path d="M-161.368 171.732h612v-792h-612Z"/></clipPath><clipPath id="l" clipPathUnits="userSpaceOnUse"><path d="M-163.59 162.436h612v-792h-612Z"/></clipPath><clipPath id="m" clipPathUnits="userSpaceOnUse"><path d="M-163.857 156.099h612v-792h-612Z"/></clipPath><clipPath id="n" clipPathUnits="userSpaceOnUse"><path d="M-169.047 210.128h612v-792h-612Z"/></clipPath><clipPath id="o" clipPathUnits="userSpaceOnUse"><path d="M-175.017 201.893h612v-792h-612Z"/></clipPath><clipPath id="p" clipPathUnits="userSpaceOnUse"><use href="#a"/></clipPath><clipPath id="q" clipPathUnits="userSpaceOnUse"><use href="#a"/></clipPath><clipPath id="r" clipPathUnits="userSpaceOnUse"><path d="M-172.84 189.818h612v-792h-612Z"/></clipPath><clipPath id="s" clipPathUnits="userSpaceOnUse"><path d="M-170.728 184.537h612v-792h-612Z"/></clipPath><clipPath id="t" clipPathUnits="userSpaceOnUse"><path d="M-167.446 214.987h612v-792h-612Z"/></clipPath><path id="a" d="M0 792h612V0H0Z"/><path id="e" d="M0 0h-.248a2.2 2.2 0 0 1-.184-.891c0-.596.239-.964.68-.964h.019c.376 0 .597.312.597.762C.864-.44.505 0 0 0m.322-3.205H.303c-1.074 0-1.571.817-1.571 1.983 0 .496.083.855.203 1.204h-.083c-.579 0-.9-.358-.9-1.056 0-.533.101-.909.266-1.36l-1.065-.349c-.239.542-.395 1.075-.395 1.911 0 .763.201 1.313.551 1.662.367.368.909.533 1.57.533h2.857v-1.35h-.532c.376-.34.624-.809.624-1.489 0-.927-.533-1.689-1.506-1.689"/><path id="i" d="M0 0v1.396h.698c-.413.322-.79.735-.79 1.442 0 1.057.698 1.672 1.828 1.672h3.187V3.113H2.177c-.661 0-1.001-.311-1.001-.844 0-.534.34-.873 1.001-.873h2.746V0Z"/><color-profile name="Coated FOGRA39 (ISO 12647-2:2004)"/></defs><g fill="#e67a06" transform="translate(-213.087 -206.294)"><path d="m0 0-2.085-.854L0-1.708Zm-3.785-1.487v1.303l6.476 2.756V1.094L1.249.506v-2.719l1.442-.588v-1.442z" clip-path="url(#b)" transform="matrix(1.33333 0 0 -1.33333 218.133 274.697)"/><path d="M0 0h-.019c-1.405 0-2.563 1.075-2.563 2.581 0 .928.313 1.507.827 1.966l.919-.855c-.331-.311-.542-.624-.542-1.12 0-.698.615-1.194 1.341-1.194h.018c.754 0 1.36.487 1.36 1.249 0 .469-.202.79-.524 1.13l.827.817c.523-.477.9-1.028.9-2.011C2.544 1.084 1.405 0 0 0" clip-path="url(#c)" transform="matrix(1.33333 0 0 -1.33333 218.477 270.764)"/><use clip-path="url(#d)" href="#e" transform="matrix(1.33333 0 0 -1.33333 219.407 259.57)"/><path d="M0 0h-2.333v-.588h-1.194V0h-1.259v1.396h1.259v1.158h1.194V1.396H-.23c.322 0 .478.138.478.45 0 .258-.064.487-.175.689h1.121c.175-.294.285-.634.285-1.102C1.479.578 1.139 0 0 0" clip-path="url(#f)" transform="matrix(1.33333 0 0 -1.33333 219.86 255.957)"/><path d="M0 0c-.625-.083-1.047-.45-1.047-1.038 0-.579.413-.956 1.047-1.066zm.414-3.473H.395c-1.405 0-2.563 1.001-2.563 2.435 0 1.643 1.277 2.397 2.673 2.397.111 0 .239-.009.368-.018v-3.427c.633.138.964.579.964 1.204 0 .468-.147.808-.505 1.194l.708.799c.569-.46.918-1.121.918-2.011 0-1.48-1.038-2.573-2.544-2.573" clip-path="url(#g)" transform="matrix(1.33333 0 0 -1.33333 217.925 247.053)"/><use clip-path="url(#h)" href="#i" transform="matrix(1.33333 0 0 -1.33333 215.158 243.857)"/><use clip-path="url(#j)" href="#e" transform="matrix(1.33333 0 0 -1.33333 219.407 232.345)"/><use clip-path="url(#k)" href="#i" transform="matrix(1.33333 0 0 -1.33333 215.158 228.977)"/><path d="M0 0h-.019c-.67 0-1.138-.524-1.138-1.204s.468-1.193 1.138-1.193H0c.68 0 1.139.513 1.139 1.193S.67 0 0 0m3.674-3.546-1.047.478c.285.505.45 1.01.45 1.663C3.077-.45 2.618 0 1.736 0h-.238c.495-.414.798-.864.798-1.607 0-1.149-.836-2.187-2.296-2.187h-.019c-1.469 0-2.296 1.057-2.296 2.187 0 .761.322 1.211.735 1.588h-.643v1.397h3.812c.882 0 1.525-.212 1.938-.625.46-.459.662-1.167.662-2.122 0-.799-.184-1.553-.515-2.177" clip-path="url(#l)" transform="matrix(1.33333 0 0 -1.33333 218.121 216.582)"/><path d="M0 0h-.019c-.725 0-1.359-.523-1.359-1.296 0-.799.615-1.276 1.341-1.276h.018c.726 0 1.36.523 1.36 1.295C1.341-.478.726 0 0 0m0-3.95h-.019c-1.414 0-2.563 1.138-2.563 2.673 0 1.525 1.13 2.655 2.545 2.655h.018c1.415 0 2.563-1.14 2.563-2.674C2.544-2.82 1.415-3.95 0-3.95" clip-path="url(#m)" transform="matrix(1.33333 0 0 -1.33333 218.477 208.131)"/><path d="M0 0v.809l5.539 2.287L0 5.392v.781l6.476-2.766v-.642Z" clip-path="url(#n)" transform="matrix(1.33333 0 0 -1.33333 225.396 280.17)"/><path d="M0 0q0 .33-.096.618-.097.289-.267.503a1.25 1.25 0 0 1-.404.339 1.1 1.1 0 0 1-.519.124h-.459a8 8 0 0 1-.138-.609 4.3 4.3 0 0 1-.064-.783q0-.669.266-1.025a.85.85 0 0 1 .717-.357h.018a.84.84 0 0 1 .698.357q.12.164.184.38Q0-.238 0 0m.561-.144a2.3 2.3 0 0 0-.092-.647 1.8 1.8 0 0 0-.281-.569 1.45 1.45 0 0 0-.463-.405 1.3 1.3 0 0 0-.643-.151h-.019q-.376 0-.661.147t-.478.418-.294.643a3 3 0 0 0-.101.822q0 .46.055.799.056.34.147.661h-.164q-.639 0-.963-.372T-3.72.16q0-.422.096-.767.097-.345.253-.675l-.582-.211a4.7 4.7 0 0 0-.294.799 3.7 3.7 0 0 0-.107.927q0 1.01.524 1.535.487.486 1.387.486H.459v-.68h-.716q.322-.247.569-.666Q.561.491.561-.144" clip-path="url(#o)" transform="matrix(1.33333 0 0 -1.33333 233.356 269.19)"/><path d="M168.771 594.64h6.706v-.707h-6.706z" clip-path="url(#p)" transform="matrix(1.33333 0 0 -1.33333 0 1056)"/><path d="M168.771 597.056h6.706v-.707h-6.706z" clip-path="url(#q)" transform="matrix(1.33333 0 0 -1.33333 0 1056)"/><path d="M0 0a2.4 2.4 0 0 1-.615-.133 1.6 1.6 0 0 1-.515-.293 1.4 1.4 0 0 1-.353-.458 1.4 1.4 0 0 1-.134-.627q0-.312.124-.577.125-.266.34-.468.216-.2.51-.329A2.2 2.2 0 0 1 0-3.05zm2.747-1.396q0-.487-.18-.919a2.3 2.3 0 0 0-.505-.755 2.4 2.4 0 0 0-.781-.515 2.6 2.6 0 0 0-1.006-.19H.257q-.514 0-.964.17t-.786.474a2.2 2.2 0 0 0-.528.723 2.2 2.2 0 0 0-.193.915q0 .524.198.939.197.415.537.7t.795.432q.455.148.978.148h.12q.046 0 .109-.01V-3.05q.387.037.685.184.298.146.505.372.207.225.312.51.106.284.106.606 0 .495-.184.85a2.5 2.5 0 0 1-.487.647l.395.442q.405-.36.648-.819.244-.458.244-1.138" clip-path="url(#r)" transform="matrix(1.33333 0 0 -1.33333 230.454 253.091)"/><path d="M0 0v.753L4.905-1.24q.735-.303 1.038-.675t.303-.905q0-.293-.06-.533a2.4 2.4 0 0 0-.182-.477l-.566.238q.091.175.133.345.041.17.041.399a.8.8 0 0 1-.192.542q-.192.221-.697.432L0-4.032v.78l3.959 1.728z" clip-path="url(#s)" transform="matrix(1.33333 0 0 -1.33333 227.637 246.05)"/><path d="m0 0-5.3-5.299a1.064 1.064 0 0 1-.001-1.505l5.299-5.299a1.065 1.065 0 0 1 1.505 0l5.3 5.299a1.063 1.063 0 0 1 0 1.505L1.505 0A1.065 1.065 0 0 1 0 0" clip-path="url(#t)" transform="matrix(1.33333 0 0 -1.33333 223.262 286.649)"/></g></svg>