<svg xmlns="http://www.w3.org/2000/svg" width="21.336" height="71.013" viewBox="0 0 21.336 71.013"><defs><clipPath id="a" clipPathUnits="userSpaceOnUse"><path d="M-214.418 206.023h612v-792h-612Z"/></clipPath><clipPath id="b" clipPathUnits="userSpaceOnUse"><path d="M-212.186 202.605h612v-792h-612Z"/></clipPath><clipPath id="c" clipPathUnits="userSpaceOnUse"><path d="M-215.714 196.653h612v-792h-612Z"/></clipPath><clipPath id="d" clipPathUnits="userSpaceOnUse"><path d="M0 792h612V0H0Z"/></clipPath><clipPath id="e" clipPathUnits="userSpaceOnUse"><path d="M-214.41 186.725h612v-792h-612Z"/></clipPath><clipPath id="f" clipPathUnits="userSpaceOnUse"><path d="M-215.374 184.135h612v-792h-612Z"/></clipPath><clipPath id="g" clipPathUnits="userSpaceOnUse"><path d="M-215.374 175.464h612v-792h-612Z"/></clipPath><clipPath id="h" clipPathUnits="userSpaceOnUse"><path d="M-226.406 206.639h612v-792h-612Z"/></clipPath><clipPath id="i" clipPathUnits="userSpaceOnUse"><path d="M-225.772 200.732h612v-792h-612Z"/></clipPath><clipPath id="j" clipPathUnits="userSpaceOnUse"><path d="M-222.17 196.719h612v-792h-612Z"/></clipPath><clipPath id="k" clipPathUnits="userSpaceOnUse"><path d="M-223.66 186.845h612v-792h-612Z"/></clipPath><clipPath id="m" clipPathUnits="userSpaceOnUse"><path d="M-223.66 181.407h612v-792h-612Z"/></clipPath><clipPath id="n" clipPathUnits="userSpaceOnUse"><path d="M-218.264 214.987h612v-792h-612Z"/></clipPath><color-profile name="Coated FOGRA39 (ISO 12647-2:2004)"/><path id="l" d="M0 0a2.4 2.4 0 0 1-.615-.133 1.6 1.6 0 0 1-.515-.293 1.4 1.4 0 0 1-.353-.458 1.4 1.4 0 0 1-.134-.628q0-.31.124-.576.125-.266.34-.468.216-.2.51-.329.294-.128.643-.165zm2.747-1.396q0-.487-.18-.919a2.3 2.3 0 0 0-.505-.755 2.4 2.4 0 0 0-.781-.515 2.6 2.6 0 0 0-1.006-.19H.257q-.514 0-.965.17a2.4 2.4 0 0 0-.785.474 2.17 2.17 0 0 0-.721 1.638q0 .524.198.939.197.415.537.7.34.284.794.432.456.148.979.148h.119a1 1 0 0 0 .11-.01V-3.05q.387.037.685.184.298.146.505.372.207.225.312.51.106.284.106.606 0 .495-.184.85a2.5 2.5 0 0 1-.487.647l.395.442q.405-.36.648-.819.244-.458.244-1.138"/></defs><g fill="#ffd200" transform="translate(-280.539 -232.188)"><path d="m0 0-2.085-.854L0-1.708Zm-3.785-1.487v1.303l6.476 2.756V1.094L1.249.506v-2.719l1.442-.588v-1.442z" clip-path="url(#a)" transform="matrix(1.33333 0 0 -1.33333 285.891 274.698)"/><path d="M0 0v1.396h.698c-.413.322-.79.735-.79 1.442 0 1.057.698 1.672 1.828 1.672h3.187V3.113H2.177c-.661 0-1.001-.311-1.001-.844 0-.534.34-.873 1.001-.873h2.746V0Z" clip-path="url(#b)" transform="matrix(1.33333 0 0 -1.33333 282.915 270.14)"/><path d="M0 0h-2.333v-.588h-1.194V0h-1.259v1.396h1.259v1.158h1.194V1.396H-.23c.322 0 .478.138.478.45 0 .258-.064.487-.175.689h1.121c.175-.294.285-.634.285-1.102C1.479.578 1.139 0 0 0" clip-path="url(#c)" transform="matrix(1.33333 0 0 -1.33333 287.619 262.204)"/><path d="M212.187 600.389h4.923v-1.396h-4.923zm-1.783.037h1.24v-1.47h-1.24z" clip-path="url(#d)" transform="matrix(1.33333 0 0 -1.33333 0 1056)"/><path d="M0 0h-.019c-.67 0-1.138-.523-1.138-1.204s.468-1.193 1.138-1.193H0c.68 0 1.139.513 1.139 1.193C1.139-.523.67 0 0 0m3.674-3.546-1.047.478c.285.505.45 1.01.45 1.662C3.077-.45 2.618 0 1.736 0h-.238c.495-.414.798-.864.798-1.607 0-1.149-.836-2.187-2.296-2.187h-.019c-1.469 0-2.296 1.057-2.296 2.187 0 .761.322 1.211.735 1.588h-.643v1.397h3.812c.882 0 1.525-.212 1.938-.625.46-.459.662-1.167.662-2.122 0-.799-.184-1.553-.515-2.177" clip-path="url(#e)" transform="matrix(1.33333 0 0 -1.33333 285.879 248.966)"/><path d="M0 0h-3.187v1.396h2.746c.662 0 1.002.313 1.002.845 0 .533-.34.873-1.002.873h-2.746V4.51h4.923V3.114h-.698c.414-.321.79-.735.79-1.442C1.828.615 1.13 0 0 0" clip-path="url(#f)" transform="matrix(1.33333 0 0 -1.33333 287.165 245.513)"/><path d="M0 0h-.248a2.2 2.2 0 0 1-.184-.891c0-.596.239-.964.68-.964h.019c.376 0 .597.312.597.762C.864-.44.505 0 0 0m.322-3.205H.303c-1.074 0-1.571.817-1.571 1.983 0 .496.083.855.203 1.204h-.083c-.579 0-.9-.358-.9-1.056 0-.533.101-.909.266-1.36l-1.065-.349c-.239.542-.395 1.075-.395 1.911 0 .763.201 1.313.551 1.662.367.368.909.533 1.57.533h2.857v-1.35h-.532c.376-.34.624-.809.624-1.489 0-.927-.533-1.689-1.506-1.689" clip-path="url(#g)" transform="matrix(1.33333 0 0 -1.33333 287.165 233.952)"/><path d="M0 0a3.18 3.18 0 0 0-.96-2.306 3.2 3.2 0 0 0-1.052-.674 3.4 3.4 0 0 0-1.295-.244h-.018a3.4 3.4 0 0 0-2.347.918 3.15 3.15 0 0 0-.717 1.03A3.2 3.2 0 0 0-6.65.027q0 .441.073.795.074.353.207.657.133.303.321.56.189.258.418.496l.533-.496a4 4 0 0 1-.634-.886Q-5.98.679-5.98.019a2.4 2.4 0 0 1 .763-1.778q.357-.335.84-.523a2.8 2.8 0 0 1 1.033-.189h.019q.56 0 1.042.189.483.188.841.523.358.336.565.79t.206.988q0 .66-.243 1.138a4 4 0 0 1-.685.938l.469.477q.258-.249.464-.519A3.2 3.2 0 0 0-.083.799 3.6 3.6 0 0 0 0 0" clip-path="url(#h)" transform="matrix(1.33333 0 0 -1.33333 301.874 275.518)"/><path d="M0 0a1.7 1.7 0 0 1-1.118 1.616q-.33.129-.705.129h-.019q-.384 0-.719-.134a1.8 1.8 0 0 1-.586-.372A1.8 1.8 0 0 1-3.546.68a1.7 1.7 0 0 1-.147-.699q0-.385.147-.708a1.7 1.7 0 0 1 .394-.545q.247-.226.582-.354.335-.129.71-.129h.018q.385 0 .719.133.335.134.582.368t.395.556Q0-.378 0 0m.634-.019q0-.533-.198-.983-.197-.45-.533-.78a2.4 2.4 0 0 0-.78-.515 2.5 2.5 0 0 0-.951-.183h-.018q-.505 0-.956.183a2.44 2.44 0 0 0-1.327 1.3A2.5 2.5 0 0 0-4.327 0q0 .532.198.987.197.455.533.785.335.331.781.515.444.184.95.184h.019q.505 0 .955-.189t.79-.519.537-.789q.198-.46.198-.993" clip-path="url(#i)" transform="matrix(1.33333 0 0 -1.33333 301.03 267.643)"/><path d="M0 0v-.652h-.615V0h-.414q-.808 0-1.221.413-.368.367-.368 1.02 0 .248.028.426.027.18.092.354h.615a5 5 0 0 1-.087-.349 1.7 1.7 0 0 1-.032-.34q0-.825 1.01-.826h.386v1.506H0V.707h4.125V0Zm0 3.38v-.652h-.615v.652h-.414q-.817 0-1.221.404-.368.385-.368 1.02 0 .248.028.431.027.184.092.349h.615a4 4 0 0 1-.087-.34 1.6 1.6 0 0 1-.032-.34q0-.825 1.01-.826h.386v1.497H0V4.078h4.125V3.38Z" clip-path="url(#j)" transform="matrix(1.33333 0 0 -1.33333 296.228 262.292)"/><use clip-path="url(#k)" href="#l" transform="matrix(1.33333 0 0 -1.33333 298.212 249.126)"/><use clip-path="url(#m)" href="#l" transform="matrix(1.33333 0 0 -1.33333 298.212 241.876)"/><path d="m0 0-5.3-5.299a1.064 1.064 0 0 1-.001-1.505l5.299-5.299a1.065 1.065 0 0 1 1.505 0l5.3 5.299a1.063 1.063 0 0 1 0 1.505L1.505 0A1.065 1.065 0 0 1 0 0" clip-path="url(#n)" transform="matrix(1.33333 0 0 -1.33333 291.02 286.649)"/></g></svg>