<svg xmlns="http://www.w3.org/2000/svg" width="21.311" height="85.293" viewBox="0 0 21.311 85.293"><defs><clipPath id="b" clipPathUnits="userSpaceOnUse"><path d="M-262.168 207.879h612v-792h-612Z"/></clipPath><clipPath id="c" clipPathUnits="userSpaceOnUse"><path d="M-263.178 204.562h612v-792h-612Z"/></clipPath><clipPath id="d" clipPathUnits="userSpaceOnUse"><path d="M-267.468 199.515h612v-792h-612Z"/></clipPath><clipPath id="f" clipPathUnits="userSpaceOnUse"><path d="M-267.395 193.632h612v-792h-612Z"/></clipPath><clipPath id="g" clipPathUnits="userSpaceOnUse"><use href="#a"/></clipPath><clipPath id="h" clipPathUnits="userSpaceOnUse"><path d="M-268.01 185.65h612v-792h-612Z"/></clipPath><clipPath id="i" clipPathUnits="userSpaceOnUse"><use href="#a"/></clipPath><clipPath id="j" clipPathUnits="userSpaceOnUse"><path d="M-267.404 178.926h612v-792h-612Z"/></clipPath><clipPath id="k" clipPathUnits="userSpaceOnUse"><path d="M-263.178 175.179h612v-792h-612Z"/></clipPath><clipPath id="l" clipPathUnits="userSpaceOnUse"><path d="M-267.468 167.963h612v-792h-612Z"/></clipPath><clipPath id="m" clipPathUnits="userSpaceOnUse"><use href="#a"/></clipPath><clipPath id="n" clipPathUnits="userSpaceOnUse"><path d="M-274.421 206.023h612v-792h-612Z"/></clipPath><clipPath id="o" clipPathUnits="userSpaceOnUse"><path d="M-275.717 202.651h612v-792h-612Z"/></clipPath><clipPath id="q" clipPathUnits="userSpaceOnUse"><use href="#a"/></clipPath><clipPath id="r" clipPathUnits="userSpaceOnUse"><path d="M-275.717 196.066h612v-792h-612Z"/></clipPath><clipPath id="s" clipPathUnits="userSpaceOnUse"><use href="#a"/></clipPath><clipPath id="t" clipPathUnits="userSpaceOnUse"><path d="M-275.377 186.8h612v-792h-612Z"/></clipPath><clipPath id="u" clipPathUnits="userSpaceOnUse"><path d="M-272.19 184.273h612v-792h-612Z"/></clipPath><clipPath id="v" clipPathUnits="userSpaceOnUse"><path d="M-269.082 214.987h612v-792h-612Z"/></clipPath><path id="a" d="M0 792h612V0H0Z"/><path id="e" d="M0 0q0 .33-.096.618-.097.289-.267.503a1.25 1.25 0 0 1-.404.339 1.1 1.1 0 0 1-.519.124h-.459a8 8 0 0 1-.138-.609 4.3 4.3 0 0 1-.064-.783q0-.669.266-1.025a.85.85 0 0 1 .717-.357h.018a.84.84 0 0 1 .698.357q.12.164.184.38Q0-.238 0 0m.561-.144a2.3 2.3 0 0 0-.092-.647 1.8 1.8 0 0 0-.281-.569 1.45 1.45 0 0 0-.463-.405 1.3 1.3 0 0 0-.643-.151h-.019q-.376 0-.661.147t-.478.418-.294.643a3 3 0 0 0-.101.822q0 .46.055.799.056.34.147.661h-.164q-.639 0-.963-.372T-3.72.16q0-.422.096-.767.097-.345.253-.675l-.582-.211a4.7 4.7 0 0 0-.294.799 3.7 3.7 0 0 0-.107.927q0 1.01.524 1.535.487.486 1.387.486H.459v-.68h-.716q.322-.247.569-.666Q.561.491.561-.144"/><path id="p" d="M0 0h-2.333v-.588h-1.194V0h-1.259v1.396h1.259v1.158h1.194V1.396H-.23c.322 0 .478.138.478.45 0 .258-.064.487-.175.689h1.121c.175-.294.285-.634.285-1.102C1.479.578 1.139 0 0 0"/><color-profile name="Coated FOGRA39 (ISO 12647-2:2004)"/></defs><g fill="#006c80" transform="translate(-348.295 -217.908)"><path d="M0 0v-2.158h-.67v5.043H0V.726h5.759V0Z" clip-path="url(#b)" transform="matrix(1.33333 0 0 -1.33333 349.557 277.172)"/><path d="M0 0v.707h1.24a2.6 2.6 0 0 0-.542.321 2.2 2.2 0 0 0-.427.442 1.9 1.9 0 0 0-.354 1.176H.68V2.59q0-.385.137-.73.139-.345.414-.601.276-.258.685-.405a2.8 2.8 0 0 1 .941-.147h1.892V0Z" clip-path="url(#c)" transform="matrix(1.33333 0 0 -1.33333 350.904 272.75)"/><use clip-path="url(#d)" href="#e" transform="matrix(1.33333 0 0 -1.33333 356.624 266.02)"/><path d="M0 0q0 .33-.133.638a1.8 1.8 0 0 1-.377.551q-.243.243-.578.386a1.9 1.9 0 0 1-.749.143h-.018q-.413 0-.749-.143a1.8 1.8 0 0 1-.574-.386A1.8 1.8 0 0 1-3.55.638 1.6 1.6 0 0 1-3.684 0q0-.35.124-.652.125-.303.359-.529.234-.225.574-.358a2.1 2.1 0 0 1 .772-.133h.018q.423 0 .762.138.34.138.579.367A1.6 1.6 0 0 1 0 0m.634-.129q0-.431-.166-.836a2.2 2.2 0 0 0-.482-.725 2.4 2.4 0 0 0-.772-.515 2.7 2.7 0 0 0-1.042-.192h-.018q-.579 0-1.038.192-.459.193-.777.515a2.3 2.3 0 0 0-.486.725q-.17.404-.17.836A2.1 2.1 0 0 0-4.014.974q.138.22.321.399.185.179.386.316h-2.866v.708H.533v-.708h-.955q.21-.146.403-.326.194-.178.34-.399a2 2 0 0 0 .23-.491Q.634.202.634-.129" clip-path="url(#f)" transform="matrix(1.33333 0 0 -1.33333 356.526 258.176)"/><path d="M263.178 603.116h4.749v-.707h-4.749zm-1.819.055h.781v-.808h-.781z" clip-path="url(#g)" transform="matrix(1.33333 0 0 -1.33333 0 1056)"/><path d="M0 0q0-.284-.073-.532A1.1 1.1 0 0 0-.307-.96a1.1 1.1 0 0 0-.417-.28 1.7 1.7 0 0 0-.614-.101h-2.86v-.661h-.634v.661h-1.432v.707h1.432V.873h.634V-.634h2.774q.442 0 .616.221.174.22.174.578 0 .184-.038.345a1.6 1.6 0 0 1-.136.344h.606A1.6 1.6 0 0 0-.05.464Q0 .258 0 0" clip-path="url(#h)" transform="matrix(1.33333 0 0 -1.33333 357.346 247.534)"/><path d="M263.178 609.243h4.749v-.707h-4.749zm-1.819.055h.781v-.808h-.781z" clip-path="url(#i)" transform="matrix(1.33333 0 0 -1.33333 0 1056)"/><path d="M0 0a1.7 1.7 0 0 1-1.118 1.616q-.33.129-.705.129h-.019q-.384 0-.719-.134a1.8 1.8 0 0 1-.586-.372A1.8 1.8 0 0 1-3.546.68a1.7 1.7 0 0 1-.147-.699q0-.385.147-.708a1.7 1.7 0 0 1 .394-.545q.247-.226.582-.354.335-.129.71-.129h.018q.385 0 .719.133.335.134.582.368t.395.556Q0-.378 0 0m.634-.019q0-.533-.198-.983-.197-.45-.533-.78a2.4 2.4 0 0 0-.78-.515 2.5 2.5 0 0 0-.951-.183h-.018q-.505 0-.956.183a2.44 2.44 0 0 0-1.327 1.3A2.5 2.5 0 0 0-4.327 0q0 .532.198.987.197.455.533.785.335.331.781.515.444.184.95.184h.019q.505 0 .955-.189t.79-.519.537-.789q.198-.46.198-.993" clip-path="url(#j)" transform="matrix(1.33333 0 0 -1.33333 356.538 238.568)"/><path d="M0 0v.707h.827a2.2 2.2 0 0 0-.657.625q-.271.386-.271 1.001 0 .431.138.767a1.6 1.6 0 0 0 .992.927q.35.124.771.124h2.949v-.707h-2.78q-.663 0-1.05-.34-.386-.339-.386-.973 0-.304.106-.565a1.33 1.33 0 0 1 .778-.754q.276-.105.607-.105h2.725V0Z" clip-path="url(#k)" transform="matrix(1.33333 0 0 -1.33333 350.904 233.572)"/><use clip-path="url(#l)" href="#e" transform="matrix(1.33333 0 0 -1.33333 356.624 223.95)"/><path d="M261.222 628.569h6.706v-.707h-6.706z" clip-path="url(#m)" transform="matrix(1.33333 0 0 -1.33333 0 1056)"/><path d="m0 0-2.085-.854L0-1.708Zm-3.785-1.487v1.303l6.476 2.756V1.094L1.249.506v-2.719l1.442-.588v-1.442z" clip-path="url(#n)" transform="matrix(1.33333 0 0 -1.33333 365.895 274.698)"/><use clip-path="url(#o)" href="#p" transform="matrix(1.33333 0 0 -1.33333 367.622 270.202)"/><path d="M272.189 594.391h4.923v-1.396h-4.923zm-1.782.037h1.24v-1.47h-1.24z" clip-path="url(#q)" transform="matrix(1.33333 0 0 -1.33333 0 1056)"/><use clip-path="url(#r)" href="#p" transform="matrix(1.33333 0 0 -1.33333 367.622 261.422)"/><path d="M270.407 600.976h6.706v-1.396h-6.706z" clip-path="url(#s)" transform="matrix(1.33333 0 0 -1.33333 0 1056)"/><path d="M0 0h-.248a2.2 2.2 0 0 1-.184-.891c0-.596.239-.964.68-.964h.019c.376 0 .597.312.597.762C.864-.44.505 0 0 0m.322-3.205H.303c-1.074 0-1.571.817-1.571 1.983 0 .496.083.855.203 1.204h-.083c-.579 0-.9-.358-.9-1.056 0-.533.101-.909.266-1.36l-1.065-.349c-.239.542-.395 1.075-.395 1.911 0 .763.201 1.313.551 1.662.367.368.909.533 1.57.533h2.857v-1.35h-.532c.376-.34.624-.809.624-1.489 0-.927-.533-1.689-1.506-1.689M-5.355-.33l.523 1.203 1.103-1.194V-1.35Z" clip-path="url(#t)" transform="matrix(1.33333 0 0 -1.33333 367.169 249.066)"/><path d="M0 0v1.396h.698c-.413.322-.79.735-.79 1.442 0 1.057.698 1.672 1.828 1.672h3.187V3.113H2.177c-.661 0-1.001-.311-1.001-.844 0-.534.34-.873 1.001-.873h2.746V0Z" clip-path="url(#u)" transform="matrix(1.33333 0 0 -1.33333 362.92 245.698)"/><path d="m0 0-5.3-5.299a1.064 1.064 0 0 1-.001-1.505l5.299-5.299a1.065 1.065 0 0 1 1.505 0l5.3 5.299a1.063 1.063 0 0 1 0 1.505L1.505 0A1.065 1.065 0 0 1 0 0" clip-path="url(#v)" transform="matrix(1.33333 0 0 -1.33333 358.777 286.649)"/></g></svg>