<svg xmlns="http://www.w3.org/2000/svg" width="21.384" height="83.8" viewBox="0 0 21.384 83.8"><defs><clipPath id="a" clipPathUnits="userSpaceOnUse"><path d="M-315.596 206.876h612v-792h-612Z"/></clipPath><clipPath id="b" clipPathUnits="userSpaceOnUse"><path d="M-318.287 201.498h612v-792h-612Z"/></clipPath><clipPath id="c" clipPathUnits="userSpaceOnUse"><path d="M0 792h612V0H0Z"/></clipPath><clipPath id="d" clipPathUnits="userSpaceOnUse"><path d="M-313.997 195.321h612v-792h-612Z"/></clipPath><clipPath id="e" clipPathUnits="userSpaceOnUse"><path d="M-314.622 189.396h612v-792h-612Z"/></clipPath><clipPath id="f" clipPathUnits="userSpaceOnUse"><path d="M-318.223 184.197h612v-792h-612Z"/></clipPath><clipPath id="g" clipPathUnits="userSpaceOnUse"><path d="M-313.997 180.45h612v-792h-612Z"/></clipPath><clipPath id="h" clipPathUnits="userSpaceOnUse"><path d="M-316.11 173.451h612v-792h-612Z"/></clipPath><clipPath id="i" clipPathUnits="userSpaceOnUse"><path d="M-318.838 169.925h612v-792h-612Z"/></clipPath><clipPath id="j" clipPathUnits="userSpaceOnUse"><path d="M-318.83 165.424h612v-792h-612Z"/></clipPath><clipPath id="k" clipPathUnits="userSpaceOnUse"><path d="M-324.735 209.999h612v-792h-612Z"/></clipPath><clipPath id="l" clipPathUnits="userSpaceOnUse"><path d="M-325.497 199.463h612v-792h-612Z"/></clipPath><clipPath id="m" clipPathUnits="userSpaceOnUse"><path d="M-325.48 193.3h612v-792h-612Z"/></clipPath><clipPath id="n" clipPathUnits="userSpaceOnUse"><path d="M-326.195 187.964h612v-792h-612Z"/></clipPath><clipPath id="o" clipPathUnits="userSpaceOnUse"><path d="M-323.008 185.437h612v-792h-612Z"/></clipPath><clipPath id="p" clipPathUnits="userSpaceOnUse"><path d="M-319.9 214.987h612v-792h-612Z"/></clipPath><color-profile name="Coated FOGRA39 (ISO 12647-2:2004)"/></defs><g fill="#009d79" transform="translate(-416.005 -219.401)"><path d="M0 0q0 .358-.092.661a1.6 1.6 0 0 1-.262.524q-.169.22-.414.344a1.2 1.2 0 0 1-.555.124h-.019q-.596 0-.931-.431Q-2.609.79-2.609.009v-1.985H0Zm-3.279-2.701v2.76q0 .596.17 1.059t.472.766q.24.238.561.366.322.129.707.129h.018q.405 0 .721-.129a1.6 1.6 0 0 0 .552-.362 2 2 0 0 0 .386-.555q.15-.321.215-.696L3.15 2.611v-.89L.652-.143v-1.833H3.15v-.725z" clip-path="url(#a)" transform="matrix(1.33333 0 0 -1.33333 420.794 275.835)"/><path d="M0 0q0 .33-.097.618a1.6 1.6 0 0 1-.266.503 1.25 1.25 0 0 1-.405.339 1.1 1.1 0 0 1-.518.124h-.459a7 7 0 0 1-.139-.609 4.4 4.4 0 0 1-.063-.783q0-.669.265-1.025a.85.85 0 0 1 .717-.357h.019q.22 0 .399.096a.9.9 0 0 1 .299.261q.119.164.184.38Q0-.238 0 0m.56-.144a2.3 2.3 0 0 0-.092-.647 1.8 1.8 0 0 0-.28-.569 1.5 1.5 0 0 0-.463-.405 1.3 1.3 0 0 0-.644-.151h-.018q-.377 0-.662.147a1.34 1.34 0 0 0-.477.418q-.193.27-.294.643a3 3 0 0 0-.102.822 5 5 0 0 0 .202 1.46h-.164q-.638 0-.962-.372Q-3.721.83-3.721.16q0-.422.097-.767.096-.345.253-.675l-.582-.211a4.6 4.6 0 0 0-.294.799 3.7 3.7 0 0 0-.107.927q0 1.01.523 1.535.487.486 1.388.486H.459v-.68h-.717q.322-.247.57-.666Q.56.491.56-.144" clip-path="url(#b)" transform="matrix(1.33333 0 0 -1.33333 424.383 268.664)"/><path d="M313.997 595.034h4.749v-.707h-4.749zm-1.818.055h.78v-.808h-.78z" clip-path="url(#c)" transform="matrix(1.33333 0 0 -1.33333 0 1056)"/><path d="M0 0v.707h.827a2.2 2.2 0 0 0-.657.625q-.271.386-.271 1.001 0 .431.138.767a1.6 1.6 0 0 0 .992.927q.35.124.772.124h2.948v-.707h-2.78q-.662 0-1.049-.34-.387-.339-.387-.973 0-.304.106-.565a1.33 1.33 0 0 1 .778-.754q.276-.105.607-.105h2.725V0Z" clip-path="url(#d)" transform="matrix(1.33333 0 0 -1.33333 418.663 260.428)"/><path d="M0 0v-.652h-.615V0h-.414q-.808 0-1.222.413-.366.367-.367 1.02 0 .248.027.426.028.18.092.355h.615a6 6 0 0 1-.087-.35 1.7 1.7 0 0 1-.032-.34q0-.825 1.011-.826h.386v1.506H0V.707h4.124V0Z" clip-path="url(#e)" transform="matrix(1.33333 0 0 -1.33333 419.496 252.529)"/><path d="M0 0a1.7 1.7 0 0 1-1.118 1.616q-.33.129-.705.129h-.019q-.385 0-.72-.134a1.8 1.8 0 0 1-.585-.372A1.8 1.8 0 0 1-3.546.68a1.7 1.7 0 0 1-.146-.699q0-.385.146-.708a1.7 1.7 0 0 1 .394-.545q.247-.226.582-.354.334-.129.71-.129h.018q.385 0 .72.133.335.134.581.368.248.234.395.556Q0-.378 0 0m.634-.019a2.45 2.45 0 0 0-.731-1.763 2.4 2.4 0 0 0-.78-.515 2.5 2.5 0 0 0-.951-.183h-.019a2.5 2.5 0 0 0-.955.183 2.44 2.44 0 0 0-1.327 1.3A2.5 2.5 0 0 0-4.326 0q0 .532.197.987.199.455.532.785.336.331.782.515.445.184.95.184h.018q.506 0 .955-.189a2.5 2.5 0 0 0 .79-.519q.34-.33.539-.789.196-.46.197-.993" clip-path="url(#f)" transform="matrix(1.33333 0 0 -1.33333 424.297 245.596)"/><path d="M0 0v.707h1.24a2.6 2.6 0 0 0-.542.321 2.2 2.2 0 0 0-.427.442 1.86 1.86 0 0 0-.354 1.176H.68V2.59q0-.385.137-.73.138-.345.414-.601.276-.258.684-.405.41-.147.941-.147h1.893V0Z" clip-path="url(#g)" transform="matrix(1.33333 0 0 -1.33333 418.663 240.6)"/><path d="M0 0a2.4 2.4 0 0 1-.615-.133 1.6 1.6 0 0 1-.514-.293 1.4 1.4 0 0 1-.354-.458 1.4 1.4 0 0 1-.133-.627q0-.312.124-.577.124-.266.34-.468.215-.2.509-.329.295-.128.643-.165zm2.747-1.396a2.35 2.35 0 0 0-.684-1.674 2.4 2.4 0 0 0-.781-.515 2.6 2.6 0 0 0-1.006-.19H.258q-.514 0-.965.17a2.4 2.4 0 0 0-.785.474q-.336.303-.529.723a2.2 2.2 0 0 0-.192.915q0 .524.197.939.198.415.537.7.34.285.795.432t.978.148h.12q.045 0 .11-.01V-3.05q.386.037.684.184.299.146.506.372.206.225.312.51.106.284.106.606 0 .495-.184.85a2.5 2.5 0 0 1-.487.647l.394.442q.406-.36.649-.819t.243-1.138" clip-path="url(#h)" transform="matrix(1.33333 0 0 -1.33333 421.48 231.268)"/><path d="M0 0q0-.514-.188-1.038a3.2 3.2 0 0 0-.51-.928l-.505.359q.294.386.45.803.156.419.156.841 0 .432-.202.707a.65.65 0 0 1-.552.276h-.017a.5.5 0 0 1-.304-.096.9.9 0 0 1-.224-.262 2 2 0 0 1-.17-.382 8 8 0 0 1-.138-.445 15 15 0 0 0-.18-.556 2.3 2.3 0 0 0-.243-.505 1.3 1.3 0 0 0-.367-.368 1 1 0 0 0-.552-.141h-.017q-.304 0-.557.119a1.25 1.25 0 0 0-.432.335 1.5 1.5 0 0 0-.275.514 2.1 2.1 0 0 0-.097.648q0 .441.143.89.142.451.382.819l.532-.322a3.2 3.2 0 0 1-.335-.694 2.2 2.2 0 0 1-.124-.712q0-.422.197-.67a.6.6 0 0 1 .491-.248h.019q.166 0 .289.101a.9.9 0 0 1 .216.271q.092.171.166.39.073.222.146.46.083.275.184.546.1.272.258.492.155.22.376.354.22.132.542.132h.018q.34 0 .602-.132.262-.134.445-.359.184-.225.28-.533Q0 .359 0 0" clip-path="url(#i)" transform="matrix(1.33333 0 0 -1.33333 425.117 226.566)"/><path d="M0 0q0-.284-.073-.532A1.1 1.1 0 0 0-.308-.96a1.1 1.1 0 0 0-.417-.28 1.7 1.7 0 0 0-.614-.101h-2.859v-.661h-.634v.661h-1.433v.707h1.433V.873h.634V-.634h2.774q.441 0 .615.221.175.22.175.578 0 .184-.039.345a1.5 1.5 0 0 1-.136.344h.607q.101-.184.151-.39T0 0" clip-path="url(#j)" transform="matrix(1.33333 0 0 -1.33333 425.105 220.565)"/><path d="M0 0h-.019c-1.828 0-3.325 1.377-3.325 3.353 0 1.211.405 1.938.992 2.535l1.039-.901c-.451-.496-.727-1.001-.727-1.644 0-1.084.9-1.864 2.003-1.864h.018c1.103 0 2.021.762 2.021 1.864 0 .735-.294 1.185-.753 1.69l.909.901c.707-.662 1.149-1.397 1.149-2.637C3.307 1.405 1.846 0 0 0" clip-path="url(#k)" transform="matrix(1.33333 0 0 -1.33333 432.98 279.999)"/><path d="M0 0h-.018c-.726 0-1.36-.523-1.36-1.296 0-.799.616-1.276 1.342-1.276h.018c.726 0 1.36.523 1.36 1.295C1.342-.478.726 0 0 0m0-3.95h-.018c-1.415 0-2.563 1.138-2.563 2.673 0 1.525 1.13 2.655 2.545 2.655h.018c1.414 0 2.563-1.14 2.563-2.674C2.545-2.82 1.415-3.95 0-3.95" clip-path="url(#l)" transform="matrix(1.33333 0 0 -1.33333 433.996 265.95)"/><path d="M0 0h-.019c-.817 0-1.359-.552-1.359-1.204s.542-1.193 1.359-1.193H0c.817 0 1.359.542 1.359 1.193C1.359-.552.826 0 0 0m1.81-2.38h.642v-1.395h-6.706v1.395h2.49c-.46.34-.799.809-.799 1.534 0 1.149.9 2.242 2.544 2.242H0c1.644 0 2.544-1.075 2.544-2.242 0-.744-.34-1.203-.734-1.534" clip-path="url(#m)" transform="matrix(1.33333 0 0 -1.33333 433.973 257.733)"/><path d="M0 0h-.248a2.2 2.2 0 0 1-.184-.891c0-.596.24-.964.68-.964h.019c.377 0 .596.312.596.762C.863-.44.506 0 0 0m.321-3.205H.304c-1.075 0-1.572.817-1.572 1.983 0 .496.083.855.203 1.204h-.083c-.579 0-.9-.358-.9-1.056 0-.533.101-.909.266-1.36l-1.066-.349c-.238.542-.394 1.075-.394 1.911 0 .763.202 1.313.551 1.662.367.368.909.533 1.571.533h2.856v-1.35h-.533c.377-.34.625-.809.625-1.489 0-.927-.532-1.689-1.507-1.689M-5.355-.33l.524 1.203 1.102-1.194V-1.35Z" clip-path="url(#n)" transform="matrix(1.33333 0 0 -1.33333 434.927 250.619)"/><path d="M0 0v1.396h.698c-.413.322-.79.735-.79 1.442 0 1.057.698 1.672 1.828 1.672h3.188V3.113H2.178c-.662 0-1.002-.311-1.002-.844 0-.534.34-.873 1.002-.873h2.746V0Z" clip-path="url(#o)" transform="matrix(1.33333 0 0 -1.33333 430.677 247.25)"/><path d="m0 0-5.3-5.299a1.064 1.064 0 0 1-.001-1.505l5.299-5.299a1.065 1.065 0 0 1 1.505 0l5.3 5.299a1.063 1.063 0 0 1 0 1.505L1.505 0A1.065 1.065 0 0 1 0 0" clip-path="url(#p)" transform="matrix(1.33333 0 0 -1.33333 426.534 286.649)"/></g></svg>