<svg xmlns="http://www.w3.org/2000/svg" width="21.336" height="78.08" viewBox="0 0 21.336 78.08"><defs><clipPath id="b" clipPathUnits="userSpaceOnUse"><path d="M-363.134 209.715h612v-792h-612Z"/></clipPath><clipPath id="c" clipPathUnits="userSpaceOnUse"><path d="M-364.64 203.836h612v-792h-612Z"/></clipPath><clipPath id="d" clipPathUnits="userSpaceOnUse"><path d="M-367.827 197.314h612v-792h-612Z"/></clipPath><clipPath id="f" clipPathUnits="userSpaceOnUse"><use href="#a"/></clipPath><clipPath id="g" clipPathUnits="userSpaceOnUse"><path d="M-371.006 192.74h612v-792h-612Z"/></clipPath><clipPath id="h" clipPathUnits="userSpaceOnUse"><path d="M-367.827 186.33h612v-792h-612Z"/></clipPath><clipPath id="i" clipPathUnits="userSpaceOnUse"><path d="M-364.64 183.804h612v-792h-612Z"/></clipPath><clipPath id="j" clipPathUnits="userSpaceOnUse"><path d="M-366.716 174.848h612v-792h-612Z"/></clipPath><clipPath id="k" clipPathUnits="userSpaceOnUse"><path d="M-368.911 172.836h612v-792h-612Z"/></clipPath><clipPath id="l" clipPathUnits="userSpaceOnUse"><path d="M-375.818 207.262h612v-792h-612Z"/></clipPath><clipPath id="m" clipPathUnits="userSpaceOnUse"><use href="#a"/></clipPath><clipPath id="n" clipPathUnits="userSpaceOnUse"><path d="M-378.29 199.587h612v-792h-612Z"/></clipPath><clipPath id="p" clipPathUnits="userSpaceOnUse"><path d="M-378.832 194.283h612v-792h-612Z"/></clipPath><clipPath id="q" clipPathUnits="userSpaceOnUse"><path d="M-376.112 188.817h612v-792h-612Z"/></clipPath><clipPath id="r" clipPathUnits="userSpaceOnUse"><path d="M-378.29 185.304h612v-792h-612Z"/></clipPath><clipPath id="s" clipPathUnits="userSpaceOnUse"><path d="M-378.85 179.798h612v-792h-612Z"/></clipPath><clipPath id="t" clipPathUnits="userSpaceOnUse"><path d="M-370.718 214.986h612v-792h-612Z"/></clipPath><path id="a" d="M0 792h612V0H0Z"/><path id="e" d="M0 0h-.248a2.2 2.2 0 0 1-.184-.891c0-.596.24-.964.68-.964h.019c.377 0 .596.312.596.762C.863-.44.506 0 0 0m.321-3.205H.304c-1.075 0-1.572.817-1.572 1.983 0 .496.083.855.203 1.204h-.083c-.579 0-.9-.358-.9-1.056 0-.533.101-.909.266-1.36l-1.066-.349c-.238.542-.394 1.075-.394 1.911 0 .763.202 1.313.551 1.662.367.368.909.533 1.571.533h2.856v-1.35h-.533c.377-.34.625-.809.625-1.489 0-.927-.533-1.689-1.507-1.689"/><path id="o" d="M0 0q0 .33-.097.618a1.6 1.6 0 0 1-.266.503 1.25 1.25 0 0 1-.405.339 1.1 1.1 0 0 1-.518.124h-.459a7 7 0 0 1-.139-.609 4.4 4.4 0 0 1-.063-.783q0-.669.265-1.025a.85.85 0 0 1 .717-.357h.019q.22 0 .399.096a.9.9 0 0 1 .299.261q.119.164.184.38Q0-.238 0 0m.56-.144a2.3 2.3 0 0 0-.092-.647 1.8 1.8 0 0 0-.28-.569 1.5 1.5 0 0 0-.463-.405 1.3 1.3 0 0 0-.644-.151h-.018q-.377 0-.662.147a1.34 1.34 0 0 0-.477.418q-.193.27-.294.643a3 3 0 0 0-.102.822 5 5 0 0 0 .202 1.46h-.164q-.638 0-.962-.372Q-3.721.83-3.721.16q0-.422.097-.767.096-.345.253-.675l-.582-.211a4.6 4.6 0 0 0-.294.799 3.7 3.7 0 0 0-.107.927q0 1.01.523 1.535.487.486 1.388.486H.459v-.68h-.717q.322-.247.57-.666Q.56.491.56-.144"/><color-profile name="Coated FOGRA39 (ISO 12647-2:2004)"/></defs><g fill="#008ac6" transform="translate(-483.81 -225.121)"><path d="M0 0v4.896h1.285V1.415h1.369v3.067H3.94V1.415h2.49V0Z" clip-path="url(#b)" transform="matrix(1.33333 0 0 -1.33333 484.178 279.62)"/><path d="M0 0v1.396h.992c-.68.285-1.12.744-1.084 1.571h1.461v-.073c0-.928.561-1.498 1.736-1.498h1.819V0Z" clip-path="url(#c)" transform="matrix(1.33333 0 0 -1.33333 486.186 271.781)"/><use clip-path="url(#d)" href="#e" transform="matrix(1.33333 0 0 -1.33333 490.436 263.086)"/><path d="M364.64 598.672h4.924v-1.396h-4.924zm-1.783.037h1.24v-1.47h-1.24z" clip-path="url(#f)" transform="matrix(1.33333 0 0 -1.33333 0 1056)"/><path d="M0 0h-1.094a1.6 1.6 0 0 1 .029.294c0 .294-.157.495-.571.495h-4.73v1.397h4.841c1.084 0 1.58-.551 1.58-1.581C.055.349.036.192 0 0m-8.148 2.223h1.24V.753h-1.24z" clip-path="url(#g)" transform="matrix(1.33333 0 0 -1.33333 494.675 256.987)"/><use clip-path="url(#h)" href="#e" transform="matrix(1.33333 0 0 -1.33333 490.436 248.44)"/><path d="M0 0v1.396h.698c-.413.322-.79.735-.79 1.442 0 1.057.698 1.672 1.828 1.672h3.188V3.113H2.178c-.662 0-1.002-.311-1.002-.844 0-.534.34-.873 1.002-.873h2.746V0Z" clip-path="url(#i)" transform="matrix(1.33333 0 0 -1.33333 486.186 245.072)"/><path d="M0 0c-.625-.083-1.047-.45-1.047-1.038 0-.579.413-.956 1.047-1.066zm.413-3.473H.396c-1.407 0-2.564 1.001-2.564 2.435 0 1.643 1.277 2.397 2.673 2.397.11 0 .239-.009.368-.018v-3.427c.634.139.964.579.964 1.204 0 .468-.147.808-.505 1.194l.707.799c.569-.46.919-1.121.919-2.011 0-1.48-1.038-2.573-2.545-2.573" clip-path="url(#j)" transform="matrix(1.33333 0 0 -1.33333 488.954 233.13)"/><path d="m0 0-.918.597c.386.533.588 1.092.588 1.552 0 .404-.148.588-.368.588h-.019c-.303 0-.403-.477-.569-1.019-.202-.69-.524-1.47-1.479-1.47h-.018c-1.001 0-1.562.808-1.562 1.8 0 .625.211 1.305.57 1.837l.964-.532c-.285-.488-.459-.974-.459-1.332 0-.34.147-.515.34-.515h.018c.276 0 .404.469.588 1.001.23.689.56 1.488 1.461 1.488h.018c1.093 0 1.589-.817 1.589-1.883C.744 1.424.515.651 0 0" clip-path="url(#k)" transform="matrix(1.33333 0 0 -1.33333 491.881 230.448)"/><path d="M0 0q0 .394-.101.721a1.7 1.7 0 0 1-.289.56 1.3 1.3 0 0 1-.445.358 1.3 1.3 0 0 1-.579.124h-.019q-.688 0-1.042-.473-.354-.472-.354-1.254V-1.59H0Zm-3.499-2.315V.087q0 .54.143.985.142.445.403.761.262.317.639.486.377.17.854.17h.019q.522 0 .914-.202.389-.202.656-.545T.528.939a3.4 3.4 0 0 0 .134-.97V-1.59h2.269v-.725z" clip-path="url(#l)" transform="matrix(1.33333 0 0 -1.33333 501.091 276.349)"/><path d="M372.044 589.211h6.705v-.707h-6.705z" clip-path="url(#m)" transform="matrix(1.33333 0 0 -1.33333 0 1056)"/><use clip-path="url(#n)" href="#o" transform="matrix(1.33333 0 0 -1.33333 504.387 266.116)"/><path d="M0 0q0-.284-.073-.532A1.1 1.1 0 0 0-.308-.96a1.1 1.1 0 0 0-.417-.28 1.7 1.7 0 0 0-.614-.101h-2.859v-.661h-.634v.661h-1.433v.707h1.433V.873h.634V-.634h2.774q.441 0 .615.221.175.22.175.578 0 .184-.039.345a1.5 1.5 0 0 1-.136.344h.607q.101-.184.151-.39T0 0" clip-path="url(#p)" transform="matrix(1.33333 0 0 -1.33333 505.11 259.044)"/><path d="M0 0a2.4 2.4 0 0 1-.615-.133 1.6 1.6 0 0 1-.514-.293 1.4 1.4 0 0 1-.354-.458 1.4 1.4 0 0 1-.133-.627q0-.312.124-.577.124-.266.34-.468.215-.2.509-.329.295-.128.643-.165zm2.747-1.396a2.35 2.35 0 0 0-.684-1.674 2.4 2.4 0 0 0-.781-.515 2.6 2.6 0 0 0-1.006-.19H.258q-.514 0-.965.17a2.4 2.4 0 0 0-.785.474q-.336.303-.529.723a2.2 2.2 0 0 0-.192.915q0 .524.197.939.198.415.537.7.34.285.795.432t.978.148h.12q.045 0 .11-.01V-3.05q.386.037.684.184.299.146.506.372.206.225.312.51.106.284.106.606 0 .495-.184.85a2.5 2.5 0 0 1-.487.647l.394.442q.406-.36.649-.819t.243-1.138" clip-path="url(#q)" transform="matrix(1.33333 0 0 -1.33333 501.483 251.757)"/><use clip-path="url(#r)" href="#o" transform="matrix(1.33333 0 0 -1.33333 504.387 247.072)"/><path d="M0 0q0-.432-.138-.767a1.6 1.6 0 0 0-.389-.57 1.7 1.7 0 0 0-.602-.357 2.3 2.3 0 0 0-.772-.124H-4.85v.707h2.781q.663 0 1.049.34.386.339.386.973 0 .304-.105.565a1.3 1.3 0 0 1-.304.45q-.198.189-.474.299t-.608.11H-4.85v.698h4.749v-.698h-.827q.387-.238.657-.625Q0 .615 0 0" clip-path="url(#s)" transform="matrix(1.33333 0 0 -1.33333 505.133 239.73)"/><path d="m0 0-5.3-5.299a1.064 1.064 0 0 1-.001-1.505l5.299-5.299a1.065 1.065 0 0 1 1.505 0l5.3 5.299a1.063 1.063 0 0 1 0 1.505L1.505 0A1.065 1.065 0 0 1 0 0" clip-path="url(#t)" transform="matrix(1.33333 0 0 -1.33333 494.291 286.649)"/></g></svg>