<svg xmlns="http://www.w3.org/2000/svg" width="21.335" height="75.691" viewBox="0 0 21.335 75.691"><defs><clipPath id="b" clipPathUnits="userSpaceOnUse"><path d="M-413.952 209.578h612v-792h-612Z"/></clipPath><clipPath id="c" clipPathUnits="userSpaceOnUse"><use href="#a"/></clipPath><clipPath id="d" clipPathUnits="userSpaceOnUse"><path d="M-419.38 198.207h612v-792h-612Z"/></clipPath><clipPath id="e" clipPathUnits="userSpaceOnUse"><path d="M-413.677 194.202h612v-792h-612Z"/></clipPath><clipPath id="f" clipPathUnits="userSpaceOnUse"><use href="#a"/></clipPath><clipPath id="g" clipPathUnits="userSpaceOnUse"><path d="M-419.923 184.57h612v-792h-612Z"/></clipPath><clipPath id="h" clipPathUnits="userSpaceOnUse"><path d="M-415.633 180.81h612v-792h-612Z"/></clipPath><clipPath id="i" clipPathUnits="userSpaceOnUse"><path d="M-419.849 173.03h612v-792h-612Z"/></clipPath><clipPath id="j" clipPathUnits="userSpaceOnUse"><path d="M-423.138 209.716h612v-792h-612Z"/></clipPath><clipPath id="k" clipPathUnits="userSpaceOnUse"><path d="M-427.831 202.919h612v-792h-612Z"/></clipPath><clipPath id="m" clipPathUnits="userSpaceOnUse"><path d="M-426.72 193.926h612v-792h-612Z"/></clipPath><clipPath id="o" clipPathUnits="userSpaceOnUse"><path d="M-422.861 191.528h612v-792h-612Z"/></clipPath><clipPath id="p" clipPathUnits="userSpaceOnUse"><path d="M-427.831 185.843h612v-792h-612Z"/></clipPath><clipPath id="q" clipPathUnits="userSpaceOnUse"><path d="M-426.72 176.85h612v-792h-612Z"/></clipPath><clipPath id="r" clipPathUnits="userSpaceOnUse"><path d="M-421.536 214.986h612v-792h-612Z"/></clipPath><path id="a" d="M0 792h612V0H0Z"/><path id="l" d="M0 0h-3.188v1.396H-.44c.661 0 1.001.313 1.001.845 0 .533-.34.873-1.001.873h-2.748V4.51h4.924V3.114h-.698c.413-.322.79-.735.79-1.442C1.828.615 1.13 0 0 0"/><path id="n" d="M0 0c-.625-.083-1.047-.45-1.047-1.038 0-.579.413-.956 1.047-1.066zm.413-3.473H.396c-1.407 0-2.564 1.001-2.564 2.435 0 1.643 1.277 2.397 2.673 2.397.11 0 .239-.009.368-.018v-3.427c.634.139.964.579.964 1.204 0 .468-.147.808-.505 1.194l.707.799c.569-.46.919-1.121.919-2.011 0-1.48-1.038-2.573-2.545-2.573"/><color-profile name="Coated FOGRA39 (ISO 12647-2:2004)"/></defs><g fill="#991b7f" transform="translate(-551.569 -227.51)"><path d="M0 0v.726h2.856v3.711H0v.725h6.43v-.725H3.536V.726H6.43V0Z" clip-path="url(#b)" transform="matrix(1.33333 0 0 -1.33333 551.936 279.437)"/><path d="M415.633 590.055h4.749v-.707h-4.749zm-1.819.054h.78v-.808h-.78z" clip-path="url(#c)" transform="matrix(1.33333 0 0 -1.33333 0 1056)"/><path d="M0 0q0 .34-.114.652a1.7 1.7 0 0 1-.329.556 1.7 1.7 0 0 1-.507.391 1.44 1.44 0 0 1-.649.147h-.018q-.365 0-.657-.147a1.6 1.6 0 0 1-.502-.391 1.8 1.8 0 0 1-.325-.556 1.88 1.88 0 0 1 0-1.29q.115-.299.32-.523.204-.226.498-.355.292-.128.657-.128h.019A1.57 1.57 0 0 1-.119-.629Q0-.33 0 0m2.489.01q0-.599-.166-1.139a3.6 3.6 0 0 0-.495-1.02l-.552.322q.295.413.451.863T1.883 0q0 .79-.427 1.259t-1.264.469h-.559Q.046 1.416.34.965.634.515.634-.138a2.27 2.27 0 0 0-.602-1.543 2.2 2.2 0 0 0-.698-.5 2.2 2.2 0 0 0-.923-.188h-.018q-.525 0-.938.188A2.16 2.16 0 0 0-3.692-.964a2.3 2.3 0 0 0-.157.826q0 .332.078.612t.207.505.303.409.367.33h-.854v.708H.174q.552 0 .97-.156.417-.157.711-.451.321-.321.478-.781A3.2 3.2 0 0 0 2.489.01" clip-path="url(#d)" transform="matrix(1.33333 0 0 -1.33333 559.175 264.276)"/><path d="M0 0v.707h2.783a2.2 2.2 0 0 0-.657.625q-.271.386-.271 1.001 0 .431.138.767a1.6 1.6 0 0 0 .992.927q.35.124.772.124h2.948v-.707h-2.78q-.663 0-1.049-.34-.387-.339-.387-.973 0-.304.106-.565a1.33 1.33 0 0 1 .778-.754Q3.65.707 3.98.707h2.725V0Z" clip-path="url(#e)" transform="matrix(1.33333 0 0 -1.33333 551.57 258.936)"/><path d="M413.677 604.228h6.705v-.707h-6.705z" clip-path="url(#f)" transform="matrix(1.33333 0 0 -1.33333 0 1056)"/><path d="M0 0q0 .33-.097.618a1.6 1.6 0 0 1-.266.503 1.25 1.25 0 0 1-.405.339 1.1 1.1 0 0 1-.518.124h-.459a7 7 0 0 1-.139-.609 4.4 4.4 0 0 1-.063-.783q0-.669.265-1.025a.85.85 0 0 1 .717-.357h.019q.22 0 .399.096a.9.9 0 0 1 .299.261q.119.164.184.38Q0-.238 0 0m.56-.144a2.3 2.3 0 0 0-.092-.647 1.8 1.8 0 0 0-.28-.569 1.5 1.5 0 0 0-.463-.405 1.3 1.3 0 0 0-.644-.151h-.018q-.377 0-.662.147a1.34 1.34 0 0 0-.477.418q-.193.27-.294.643a3 3 0 0 0-.102.822 5 5 0 0 0 .202 1.46h-.164q-.638 0-.962-.372Q-3.721.83-3.721.16q0-.422.097-.767.096-.345.253-.675l-.582-.211a4.6 4.6 0 0 0-.294.799 3.7 3.7 0 0 0-.107.927q0 1.01.523 1.535.487.486 1.388.486H.459v-.68h-.717q.322-.247.57-.666Q.56.491.56-.144" clip-path="url(#g)" transform="matrix(1.33333 0 0 -1.33333 559.897 246.094)"/><path d="M0 0v.707h.827a2.2 2.2 0 0 0-.657.625q-.271.386-.271 1.001 0 .431.138.767a1.6 1.6 0 0 0 .992.927q.35.124.772.124h2.948v-.707h-2.78q-.662 0-1.049-.34-.387-.339-.387-.973 0-.304.106-.565a1.33 1.33 0 0 1 .778-.754q.276-.105.607-.105h2.725V0Z" clip-path="url(#h)" transform="matrix(1.33333 0 0 -1.33333 554.177 241.08)"/><path d="M0 0q0 .33-.133.638a1.8 1.8 0 0 1-.955.937 1.9 1.9 0 0 1-.749.143h-.018q-.413 0-.749-.143A1.76 1.76 0 0 1-3.55.638a1.7 1.7 0 0 1-.009-1.29q.124-.303.358-.529.234-.225.574-.358a2.1 2.1 0 0 1 .772-.133h.018q.423 0 .763.138t.579.367A1.6 1.6 0 0 1 0 0m.634-.129A2.2 2.2 0 0 0-.014-1.69a2.4 2.4 0 0 0-.771-.515 2.7 2.7 0 0 0-1.042-.192h-.019q-.577 0-1.038.192a2.4 2.4 0 0 0-.776.515 2.3 2.3 0 0 0-.486.725q-.17.404-.17.836 0 .331.082.607.083.274.22.496.139.22.322.399.184.179.385.316h-2.865v.708H.533v-.708h-.955q.212-.146.404-.326.193-.178.34-.399A1.9 1.9 0 0 0 .634-.129" clip-path="url(#i)" transform="matrix(1.33333 0 0 -1.33333 559.798 230.706)"/><path d="M0 0v1.415h2.544v2.608H0v1.415h6.43V4.023H3.849V1.415H6.43V0Z" clip-path="url(#j)" transform="matrix(1.33333 0 0 -1.33333 564.184 279.621)"/><use clip-path="url(#k)" href="#l" transform="matrix(1.33333 0 0 -1.33333 570.441 270.559)"/><use clip-path="url(#m)" href="#n" transform="matrix(1.33333 0 0 -1.33333 568.96 258.568)"/><path d="M0 0v1.396h2.48c-.413.322-.79.735-.79 1.442 0 1.057.699 1.672 1.829 1.672h3.187V3.113H3.96c-.662 0-1.002-.311-1.002-.844 0-.534.34-.873 1.002-.873h2.746V0Z" clip-path="url(#o)" transform="matrix(1.33333 0 0 -1.33333 563.815 255.371)"/><use clip-path="url(#p)" href="#l" transform="matrix(1.33333 0 0 -1.33333 570.441 247.79)"/><use clip-path="url(#q)" href="#n" transform="matrix(1.33333 0 0 -1.33333 568.96 235.8)"/><path d="m0 0-5.3-5.299a1.064 1.064 0 0 1-.001-1.505l5.299-5.299a1.065 1.065 0 0 1 1.505 0l5.3 5.299a1.063 1.063 0 0 1 0 1.505L1.505 0A1.065 1.065 0 0 1 0 0" clip-path="url(#r)" transform="matrix(1.33333 0 0 -1.33333 562.049 286.649)"/></g></svg>