<svg xmlns="http://www.w3.org/2000/svg" width="20.968" height="68.773" viewBox="0 0 20.968 68.773"><defs><clipPath id="a" clipPathUnits="userSpaceOnUse"><path d="M-464.77 209.577h612v-792h-612Z"/></clipPath><clipPath id="b" clipPathUnits="userSpaceOnUse"><path d="M-468.563 198.958h612v-792h-612Z"/></clipPath><clipPath id="c" clipPathUnits="userSpaceOnUse"><path d="M-466.45 197.636h612v-792h-612Z"/></clipPath><clipPath id="d" clipPathUnits="userSpaceOnUse"><path d="M-477.189 204.644h612v-792h-612Z"/></clipPath><clipPath id="e" clipPathUnits="userSpaceOnUse"><path d="M-475.46 202.054h612v-792h-612Z"/></clipPath><clipPath id="f" clipPathUnits="userSpaceOnUse"><path d="M0 792h612V0H0Z"/></clipPath><clipPath id="g" clipPathUnits="userSpaceOnUse"><path d="M-477.537 192.207h612v-792h-612Z"/></clipPath><clipPath id="i" clipPathUnits="userSpaceOnUse"><path d="M-475.46 189.81h612v-792h-612Z"/></clipPath><clipPath id="j" clipPathUnits="userSpaceOnUse"><path d="M-478.988 183.857h612v-792h-612Z"/></clipPath><clipPath id="k" clipPathUnits="userSpaceOnUse"><path d="M-477.537 177.18h612v-792h-612Z"/></clipPath><clipPath id="l" clipPathUnits="userSpaceOnUse"><path d="M-472.354 214.986h612v-792h-612Z"/></clipPath><color-profile name="Coated FOGRA39 (ISO 12647-2:2004)"/><path id="h" d="M0 0c-.625-.083-1.047-.45-1.047-1.038 0-.579.413-.956 1.047-1.066zm.413-3.473H.396c-1.407 0-2.564 1.001-2.564 2.435 0 1.643 1.277 2.397 2.673 2.397.11 0 .239-.009.368-.018v-3.427c.634.139.964.579.964 1.204 0 .468-.147.808-.505 1.194l.707.799c.569-.46.919-1.121.919-2.011 0-1.48-1.038-2.573-2.545-2.573"/></defs><g fill="#432c7e" transform="translate(-619.693 -234.428)"><path d="M0 0v.68l5.153 4.05H0v.708h6.43v-.579L1.157.707H6.43V0Z" clip-path="url(#a)" transform="matrix(1.33333 0 0 -1.33333 619.693 279.436)"/><path d="M0 0a2.4 2.4 0 0 1-.615-.133 1.6 1.6 0 0 1-.514-.293 1.4 1.4 0 0 1-.354-.458 1.4 1.4 0 0 1-.133-.627q0-.312.124-.577.124-.266.34-.468.215-.2.509-.329.295-.128.643-.165zm2.747-1.396a2.35 2.35 0 0 0-.684-1.674 2.4 2.4 0 0 0-.781-.515 2.6 2.6 0 0 0-1.006-.19H.258q-.514 0-.965.17a2.4 2.4 0 0 0-.785.474 2.2 2.2 0 0 0-.721 1.638q0 .524.197.939.198.415.538.7t.794.432q.455.148.978.148h.12q.045 0 .11-.01V-3.05q.386.037.684.184.299.146.506.372.206.225.312.51.106.284.106.606 0 .495-.184.85a2.5 2.5 0 0 1-.487.647l.394.442q.406-.36.649-.819t.243-1.138" clip-path="url(#b)" transform="matrix(1.33333 0 0 -1.33333 624.75 265.277)"/><path d="M0 0v.753l3.813 1.25-3.832 1.276v.588l3.832 1.286L0 6.402v.736l4.786-1.672V4.85L1.038 3.573l3.748-1.286v-.624Z" clip-path="url(#c)" transform="matrix(1.33333 0 0 -1.33333 621.934 263.514)"/><path d="M0 0h-.019C-1.121 0-2.04-.808-2.04-1.947s.9-1.929 2.003-1.929h.018c1.103 0 2.021.809 2.021 1.947C2.002-.79 1.102 0 0 0m0-5.354h-.019c-1.828 0-3.325 1.441-3.325 3.425 0 1.985 1.479 3.408 3.307 3.408h.018c1.829 0 3.326-1.442 3.326-3.426S1.827-5.354 0-5.354" clip-path="url(#d)" transform="matrix(1.33333 0 0 -1.33333 636.251 272.86)"/><path d="M0 0v1.396h.992c-.68.285-1.12.744-1.084 1.571h1.461v-.073c0-.928.561-1.498 1.736-1.498h1.819V0Z" clip-path="url(#e)" transform="matrix(1.33333 0 0 -1.33333 633.948 269.405)"/><path d="M475.461 595.246h4.924v-1.396h-4.924zm-1.782.037h1.24v-1.47h-1.24z" clip-path="url(#f)" transform="matrix(1.33333 0 0 -1.33333 0 1056)"/><use clip-path="url(#g)" href="#h" transform="matrix(1.33333 0 0 -1.33333 636.716 256.276)"/><path d="M0 0v1.396h.698c-.413.322-.79.735-.79 1.442 0 1.057.698 1.672 1.828 1.672h3.188V3.113H2.178c-.662 0-1.002-.311-1.002-.844 0-.534.34-.873 1.002-.873h2.746V0Z" clip-path="url(#i)" transform="matrix(1.33333 0 0 -1.33333 633.948 253.08)"/><path d="M0 0h-2.333v-.588h-1.194V0h-1.258v1.396h1.258v1.158h1.194V1.396h2.104c.321 0 .477.138.477.45 0 .258-.064.487-.175.689h1.121c.175-.294.285-.634.285-1.102C1.479.578 1.14 0 0 0" clip-path="url(#j)" transform="matrix(1.33333 0 0 -1.33333 638.651 245.143)"/><use clip-path="url(#k)" href="#h" transform="matrix(1.33333 0 0 -1.33333 636.716 236.24)"/><path d="m0 0-5.3-5.299a1.064 1.064 0 0 1-.001-1.505l5.299-5.299a1.065 1.065 0 0 1 1.505 0l5.3 5.299a1.063 1.063 0 0 1 0 1.505L1.505 0A1.065 1.065 0 0 1 0 0" clip-path="url(#l)" transform="matrix(1.33333 0 0 -1.33333 629.806 286.649)"/></g></svg>