<svg xmlns="http://www.w3.org/2000/svg" width="21.335" height="92.349" viewBox="0 0 21.335 92.349"><defs><clipPath id="b" clipPathUnits="userSpaceOnUse"><path d="M-515.589 210.128h612v-792h-612Z"/></clipPath><clipPath id="c" clipPathUnits="userSpaceOnUse"><path d="M-521.495 201.264h612v-792h-612Z"/></clipPath><clipPath id="d" clipPathUnits="userSpaceOnUse"><use href="#a"/></clipPath><clipPath id="e" clipPathUnits="userSpaceOnUse"><path d="M-522.129 192.96h612v-792h-612Z"/></clipPath><clipPath id="g" clipPathUnits="userSpaceOnUse"><path d="M-521.56 188.298h612v-792h-612Z"/></clipPath><clipPath id="h" clipPathUnits="userSpaceOnUse"><path d="M-517.27 184.537h612v-792h-612Z"/></clipPath><clipPath id="i" clipPathUnits="userSpaceOnUse"><use href="#a"/></clipPath><clipPath id="j" clipPathUnits="userSpaceOnUse"><path d="M-522.129 174.322h612v-792h-612Z"/></clipPath><clipPath id="k" clipPathUnits="userSpaceOnUse"><path d="M-530.268 210.155h612v-792h-612Z"/></clipPath><clipPath id="l" clipPathUnits="userSpaceOnUse"><path d="M-529.468 201.071h612v-792h-612Z"/></clipPath><clipPath id="n" clipPathUnits="userSpaceOnUse"><path d="M-526.28 198.545h612v-792h-612Z"/></clipPath><clipPath id="o" clipPathUnits="userSpaceOnUse"><path d="M-524.774 189.92h612v-792h-612Z"/></clipPath><clipPath id="p" clipPathUnits="userSpaceOnUse"><path d="M-529.468 179.183h612v-792h-612Z"/></clipPath><clipPath id="q" clipPathUnits="userSpaceOnUse"><path d="M-526.28 176.656h612v-792h-612Z"/></clipPath><clipPath id="r" clipPathUnits="userSpaceOnUse"><path d="M-528.77 173.193h612v-792h-612Z"/></clipPath><clipPath id="s" clipPathUnits="userSpaceOnUse"><path d="M-528.77 164.136h612v-792h-612Z"/></clipPath><clipPath id="t" clipPathUnits="userSpaceOnUse"><path d="M-530.552 162.134h612v-792h-612Z"/></clipPath><clipPath id="u" clipPathUnits="userSpaceOnUse"><path d="M-523.172 214.986h612v-792h-612Z"/></clipPath><path id="a" d="M0 792h612V0H0Z"/><path id="f" d="M0 0q0-.525-.197-.97a2.42 2.42 0 0 0-1.319-1.281 2.5 2.5 0 0 0-.946-.184h-.018a2.52 2.52 0 0 0-1.746.694 2.4 2.4 0 0 0-.537.771A2.4 2.4 0 0 0-4.96 0q0 .34.065.615a2.2 2.2 0 0 0 .457.928q.157.193.332.358l.496-.468a3.3 3.3 0 0 1-.505-.621q-.211-.335-.211-.822a1.62 1.62 0 0 1 .531-1.212q.247-.23.582-.358.335-.129.719-.129h.018q.385 0 .72.133.334.134.586.368t.395.551q.141.317.141.693 0 .46-.202.814a2.7 2.7 0 0 1-.505.637l.422.45q.404-.357.662-.812Q0 .669 0 0"/><path id="m" d="M0 0h-.248a2.2 2.2 0 0 1-.184-.891c0-.596.24-.964.68-.964h.019c.377 0 .596.312.596.762C.863-.44.506 0 0 0m.321-3.205H.304c-1.075 0-1.572.817-1.572 1.983 0 .496.083.855.203 1.204h-.083c-.579 0-.9-.358-.9-1.056 0-.533.101-.909.266-1.36l-1.066-.349c-.238.542-.394 1.075-.394 1.911 0 .763.202 1.313.551 1.662.367.368.909.533 1.571.533h2.856v-1.35h-.533c.377-.34.625-.809.625-1.489 0-.927-.533-1.689-1.507-1.689"/><color-profile name="Coated FOGRA39 (ISO 12647-2:2004)"/></defs><g fill="#df2e4f" transform="translate(-687.084 -210.852)"><path d="M0 0v.809l5.539 2.287L0 5.392v.781l6.476-2.766v-.642Z" clip-path="url(#b)" transform="matrix(1.33333 0 0 -1.33333 687.452 280.17)"/><path d="M0 0a1.7 1.7 0 0 1-1.118 1.616q-.33.129-.705.129h-.019q-.385 0-.72-.134a1.8 1.8 0 0 1-.585-.372A1.8 1.8 0 0 1-3.546.68a1.7 1.7 0 0 1-.146-.699q0-.385.146-.708a1.7 1.7 0 0 1 .394-.545q.247-.226.582-.354.334-.129.71-.129h.018q.385 0 .72.133.335.134.581.368.248.234.395.556Q0-.378 0 0m.634-.019a2.45 2.45 0 0 0-.731-1.763 2.4 2.4 0 0 0-.78-.515 2.5 2.5 0 0 0-.951-.183h-.019a2.5 2.5 0 0 0-.955.183 2.44 2.44 0 0 0-1.327 1.3A2.5 2.5 0 0 0-4.326 0q0 .532.197.987.199.455.532.785.336.331.782.515.445.184.95.184h.018q.506 0 .955-.189a2.5 2.5 0 0 0 .79-.519q.34-.33.539-.789.196-.46.197-.993" clip-path="url(#c)" transform="matrix(1.33333 0 0 -1.33333 695.327 268.352)"/><path d="M515.313 595.255h6.705v-.707h-6.705z" clip-path="url(#d)" transform="matrix(1.33333 0 0 -1.33333 0 1056)"/><use clip-path="url(#e)" href="#f" transform="matrix(1.33333 0 0 -1.33333 696.172 257.28)"/><path d="M0 0q0 .33-.097.618a1.6 1.6 0 0 1-.266.503 1.25 1.25 0 0 1-.405.339 1.1 1.1 0 0 1-.518.124h-.459a7 7 0 0 1-.139-.609 4.4 4.4 0 0 1-.063-.783q0-.669.265-1.025a.85.85 0 0 1 .717-.357h.019q.22 0 .399.096a.9.9 0 0 1 .299.261q.119.164.184.38Q0-.238 0 0m.56-.144a2.3 2.3 0 0 0-.092-.647 1.8 1.8 0 0 0-.28-.569 1.5 1.5 0 0 0-.463-.405 1.3 1.3 0 0 0-.644-.151h-.018q-.377 0-.662.147a1.34 1.34 0 0 0-.477.418q-.193.27-.294.643a3 3 0 0 0-.102.822 5 5 0 0 0 .202 1.46h-.164q-.638 0-.962-.372Q-3.721.83-3.721.16q0-.422.097-.767.096-.345.253-.675l-.582-.211a4.6 4.6 0 0 0-.294.799 3.7 3.7 0 0 0-.107.927q0 1.01.523 1.535.487.486 1.388.486H.459v-.68h-.717q.322-.247.57-.666Q.56.491.56-.144" clip-path="url(#g)" transform="matrix(1.33333 0 0 -1.33333 695.413 251.064)"/><path d="M0 0v.707h.827a2.2 2.2 0 0 0-.657.625q-.271.386-.271 1.001 0 .431.138.767a1.6 1.6 0 0 0 .992.927q.35.124.772.124h2.948v-.707h-2.78q-.662 0-1.049-.34-.387-.339-.387-.973 0-.304.106-.565a1.33 1.33 0 0 1 .778-.754q.276-.105.607-.105h2.725V0Z" clip-path="url(#h)" transform="matrix(1.33333 0 0 -1.33333 689.693 246.05)"/><path d="M517.27 613.893h4.749v-.707h-4.749zm-1.819.054h.78v-.808h-.78z" clip-path="url(#i)" transform="matrix(1.33333 0 0 -1.33333 0 1056)"/><use clip-path="url(#j)" href="#f" transform="matrix(1.33333 0 0 -1.33333 696.172 232.43)"/><path d="m0 0-1.002.836c.478.578.781 1.185.781 1.919 0 .579-.229.929-.606.929h-.019c-.358 0-.542-.221-.817-1.296C-1.994 1.093-2.352.257-3.629.257h-.018c-1.166 0-1.938.936-1.938 2.251 0 .936.294 1.735.817 2.388l1.066-.735c-.396-.57-.634-1.13-.634-1.672s.248-.827.561-.827h.017c.423 0 .561.275.846 1.388.34 1.304.808 2.039 1.929 2.039h.018c1.277 0 1.993-.974 1.993-2.361C1.028 1.754.688.771 0 0" clip-path="url(#k)" transform="matrix(1.33333 0 0 -1.33333 707.023 280.207)"/><use clip-path="url(#l)" href="#m" transform="matrix(1.33333 0 0 -1.33333 705.957 268.095)"/><path d="M0 0v1.396h.698c-.413.322-.79.735-.79 1.442 0 1.057.698 1.672 1.828 1.672h3.188V3.113H2.178c-.662 0-1.002-.311-1.002-.844 0-.534.34-.873 1.002-.873h2.746V0Z" clip-path="url(#n)" transform="matrix(1.33333 0 0 -1.33333 701.707 264.727)"/><path d="M0 0v1.525l2.719 1.69L0 4.905V6.43h6.43V5.024H2.231l2.748-1.809v-.036L2.26 1.387h4.17V0Z" clip-path="url(#o)" transform="matrix(1.33333 0 0 -1.33333 699.7 253.227)"/><use clip-path="url(#p)" href="#m" transform="matrix(1.33333 0 0 -1.33333 705.957 238.91)"/><path d="M0 0v1.396h.992c-.68.285-1.12.744-1.084 1.571h1.461v-.073c0-.928.561-1.498 1.736-1.498h1.819V0Z" clip-path="url(#q)" transform="matrix(1.33333 0 0 -1.33333 701.707 235.542)"/><path d="M0 0h-.018c-1.406 0-2.563 1.075-2.563 2.581 0 .928.312 1.507.827 1.966l.918-.855c-.33-.311-.542-.624-.542-1.12 0-.698.616-1.194 1.342-1.194h.018c.753 0 1.36.487 1.36 1.249 0 .469-.202.79-.525 1.13l.828.817c.523-.477.9-1.028.9-2.011C2.545 1.084 1.405 0 0 0" clip-path="url(#r)" transform="matrix(1.33333 0 0 -1.33333 705.026 230.925)"/><path d="M0 0h-.018c-.726 0-1.36-.523-1.36-1.296 0-.799.616-1.276 1.342-1.276h.018c.726 0 1.36.523 1.36 1.295C1.342-.478.726 0 0 0m0-3.95h-.018c-1.415 0-2.563 1.138-2.563 2.673 0 1.525 1.13 2.655 2.545 2.655h.018c1.414 0 2.563-1.14 2.563-2.674C2.545-2.82 1.415-3.95 0-3.95" clip-path="url(#s)" transform="matrix(1.33333 0 0 -1.33333 705.026 218.848)"/><path d="m0 0-.918.597c.386.533.588 1.092.588 1.552 0 .405-.148.588-.368.588h-.019c-.303 0-.403-.478-.569-1.019-.202-.69-.524-1.47-1.479-1.47h-.018c-1.001 0-1.562.808-1.562 1.8 0 .625.211 1.305.57 1.837l.964-.532c-.285-.488-.459-.974-.459-1.332 0-.34.147-.515.34-.515h.018c.276 0 .404.469.588 1.001.23.689.56 1.488 1.461 1.488h.018c1.093 0 1.589-.817 1.589-1.883C.744 1.424.515.651 0 0" clip-path="url(#t)" transform="matrix(1.33333 0 0 -1.33333 707.402 216.178)"/><path d="m0 0-5.3-5.299a1.064 1.064 0 0 1-.001-1.505l5.299-5.299a1.065 1.065 0 0 1 1.505 0l5.3 5.299a1.063 1.063 0 0 1 0 1.505L1.505 0A1.065 1.065 0 0 1 0 0" clip-path="url(#u)" transform="matrix(1.33333 0 0 -1.33333 697.563 286.649)"/></g></svg>