<svg xmlns="http://www.w3.org/2000/svg" width="425.113" height="43.937" viewBox="0 0 425.113 43.937"><defs><clipPath id="b" clipPathUnits="userSpaceOnUse"><path d="M-153.11 82.456h612v-792h-612Z"/></clipPath><clipPath id="d" clipPathUnits="userSpaceOnUse"><use href="#a"/></clipPath><clipPath id="e" clipPathUnits="userSpaceOnUse"><path d="M-181.757 82.91h612v-792h-612Z"/></clipPath><clipPath id="f" clipPathUnits="userSpaceOnUse"><path d="M-195.854 82.274h612v-792h-612Z"/></clipPath><clipPath id="g" clipPathUnits="userSpaceOnUse"><path d="M-215.163 74.252h612v-792h-612Z"/></clipPath><clipPath id="h" clipPathUnits="userSpaceOnUse"><path d="M-228.036 84.677h612v-792h-612Z"/></clipPath><clipPath id="i" clipPathUnits="userSpaceOnUse"><use href="#a"/></clipPath><clipPath id="j" clipPathUnits="userSpaceOnUse"><path d="M-260.128 82.456h612v-792h-612Z"/></clipPath><clipPath id="k" clipPathUnits="userSpaceOnUse"><path d="M-280.3 71.94h612v-792h-612Z"/></clipPath><clipPath id="l" clipPathUnits="userSpaceOnUse"><path d="M-296.3 82.456h612v-792h-612Z"/></clipPath><clipPath id="m" clipPathUnits="userSpaceOnUse"><path d="M-326.806 85.085h612v-792h-612Z"/></clipPath><clipPath id="n" clipPathUnits="userSpaceOnUse"><path d="M-338.5 71.94h612v-792h-612Z"/></clipPath><clipPath id="p" clipPathUnits="userSpaceOnUse"><path d="M-347.973 88.167h612v-792h-612Z"/></clipPath><clipPath id="q" clipPathUnits="userSpaceOnUse"><path d="M-364.11 82.274h612v-792h-612Z"/></clipPath><clipPath id="s" clipPathUnits="userSpaceOnUse"><path d="M-382.15 89.436h612v-792h-612Z"/></clipPath><clipPath id="t" clipPathUnits="userSpaceOnUse"><path d="M-396.792 71.94h612v-792h-612Z"/></clipPath><clipPath id="u" clipPathUnits="userSpaceOnUse"><path d="M-406.264 84.677h612v-792h-612Z"/></clipPath><clipPath id="v" clipPathUnits="userSpaceOnUse"><path d="M-420.723 82.274h612v-792h-612Z"/></clipPath><clipPath id="w" clipPathUnits="userSpaceOnUse"><path d="M-440.033 74.252h612v-792h-612Z"/></clipPath><clipPath id="x" clipPathUnits="userSpaceOnUse"><path d="M-457.53 71.94h612v-792h-612Z"/></clipPath><path id="a" d="M0 792h612V0H0Z"/><path id="c" d="M0 0q.499.045 1.654.431 1.157.384 2.312 1.405 1.156 1.02 2.04 2.788t.884 4.578q0 2.855-.93 4.442-.93 1.585-2.13 2.335-1.201.747-2.334.928T0 17.089h-.771V-.045H0Zm1.224 22.393q2.13-.092 4.17-.839a10.1 10.1 0 0 0 3.649-2.334q1.608-1.588 2.606-4.034.996-2.448.997-5.848 0-3.9-1.359-6.663-1.36-2.766-3.355-4.556T3.626-4.556Q1.314-5.439-.635-5.53h-3.49q-1.178 0-2.402.046v27.877q1.36.044 2.719.044h2.516q1.336 0 2.516-.044"/><path id="o" d="m0 0-1.314-5.938H1.27Zm2.992-15.366L1.904-9.973l-4.08.046-1.133-5.439h-5.485l6.981 27.196h4.125l5.576-27.196z"/><path id="r" d="M0 0v22.211h10.833v-4.216H5.122v-4.623h5.939v-3.49H5.122V4.94h6.799V0Z"/><color-profile name="Coated FOGRA39 (ISO 12647-2:2004)"/></defs><g fill="#991b7f" transform="translate(-195.444 -79.844)"><use clip-path="url(#b)" href="#c" transform="matrix(1.33333 0 0 -1.33333 204.147 109.941)"/><path d="M167.569 725.862h5.077V709.59h-5.077zm0 6.075h5.077v-4.08h-5.077z" clip-path="url(#d)" transform="matrix(1.33333 0 0 -1.33333 0 1056)"/><path d="m0 0-6.799 22.846h5.485L2.765 9.292l4.034 13.554h5.485L5.485.045 5.53 0Z" clip-path="url(#e)" transform="matrix(1.33333 0 0 -1.33333 242.342 110.546)"/><path d="M0 0v22.211h10.833v-4.216H5.122v-4.623h5.938v-3.49H5.122V4.94h6.799V0Z" clip-path="url(#f)" transform="matrix(1.33333 0 0 -1.33333 261.139 109.7)"/><path d="M0 0q.453 0 1.36.113.906.114 1.836.59.928.476 1.632 1.45.702.975.702 2.653 0 1.403-.657 2.198a4.4 4.4 0 0 1-1.541 1.201 6.1 6.1 0 0 1-1.79.522q-.908.112-1.406.113h-.453V0Zm-5.575-18.584v32.727q1.132.045 2.176.045H-1.7q.838 0 1.201.045h.227q1.541 0 3.445-.317a10 10 0 0 0 3.581-1.337q1.677-1.02 2.81-2.878 1.133-1.86 1.134-4.986v-.318q-.046-2.584-.975-4.193T7.661-2.312a9.1 9.1 0 0 0-2.947-1.631l5.304-10.425H3.944L-.181-5.666v-12.918z" clip-path="url(#g)" transform="matrix(1.33333 0 0 -1.33333 286.884 99.003)"/><path d="M0 0v5.076q1.178 0 2.47-.022 1.292-.024 2.403-.023h2.742q3.762 0 3.762 2.403 0 .816-.521 1.45-.522.635-1.745.816l-2.992.408q-3.127.452-4.827 2.085-1.7 1.632-1.7 4.85a7.5 7.5 0 0 0 .589 2.969 6.7 6.7 0 0 0 1.745 2.403q1.156 1.02 2.788 1.608 1.632.59 3.762.59h6.301v-4.895H8.25q-1.451 0-2.29-.703-.838-.703-.838-1.745 0-.77.612-1.337.612-.568 1.7-.748l2.991-.363q3.58-.635 5.054-2.402 1.473-1.768 1.474-4.896 0-4.67-4.624-6.663a12.4 12.4 0 0 0-4.714-.907Z" clip-path="url(#h)" transform="matrix(1.33333 0 0 -1.33333 304.048 112.902)"/><path d="M246.212 725.862h5.077V709.59h-5.077zm0 6.075h5.077v-4.08h-5.077z" clip-path="url(#i)" transform="matrix(1.33333 0 0 -1.33333 0 1056)"/><use clip-path="url(#j)" href="#c" transform="matrix(1.33333 0 0 -1.33333 346.837 109.941)"/><path d="m0 0-1.314-5.938H1.27Zm2.992-15.366L1.904-9.973l-4.08.046-1.133-5.439h-5.484l6.98 27.196h4.125l5.575-27.196z" clip-path="url(#k)" transform="matrix(1.33333 0 0 -1.33333 373.732 95.92)"/><use clip-path="url(#l)" href="#c" transform="matrix(1.33333 0 0 -1.33333 395.067 109.941)"/><path d="M0 0q-4.125 0-6.89 2.811-.408.407-.974 1.223-.568.816-1.066 2.018-.499 1.2-.839 2.719t-.339 3.332v.952q0 1.812.339 3.354.34 1.54.839 2.72.498 1.177 1.066 2.017.566.837.974 1.247 2.765 2.81 6.89 2.809.724 0 1.382-.067.657-.069 1.292-.159l.454-.136v-4.714q-.455.136-.907.181a10 10 0 0 1-.952.046q-2.54 0-4.215-1.723a4.6 4.6 0 0 1-.59-.771 9 9 0 0 1-.634-1.223 9 9 0 0 1-.521-1.655 9.3 9.3 0 0 1-.205-2.017v-.589q0-1.134.205-2.062a9 9 0 0 1 1.155-2.879q.317-.499.59-.771 1.72-1.723 4.215-1.723.499 0 .952.046.452.045.907.181V.362A7 7 0 0 0 1.654.068 18 18 0 0 0 0 0" clip-path="url(#m)" transform="matrix(1.33333 0 0 -1.33333 435.742 113.447)"/><use clip-path="url(#n)" href="#o" transform="matrix(1.33333 0 0 -1.33333 451.334 95.92)"/><path d="M0 0v28.104h14.323v-5.123H5.304v-4.804h6.39v-4.669h-6.39V0Z" clip-path="url(#p)" transform="matrix(1.33333 0 0 -1.33333 463.964 117.556)"/><use clip-path="url(#q)" href="#r" transform="matrix(1.33333 0 0 -1.33333 485.48 109.7)"/><path d="M0 0v24.387h-4.307v4.986H8.521v-4.986H4.895V0Z" clip-path="url(#s)" transform="matrix(1.33333 0 0 -1.33333 509.535 119.249)"/><use clip-path="url(#t)" href="#o" transform="matrix(1.33333 0 0 -1.33333 529.055 95.92)"/><path d="M0 0v24.613h5.031V4.442h7.751V0Z" clip-path="url(#u)" transform="matrix(1.33333 0 0 -1.33333 541.686 112.902)"/><use clip-path="url(#v)" href="#r" transform="matrix(1.33333 0 0 -1.33333 560.964 109.7)"/><path d="M0 0q.453 0 1.36.113.906.114 1.836.59.927.476 1.631 1.45.703.975.703 2.653 0 1.403-.657 2.198a4.4 4.4 0 0 1-1.541 1.201 6.1 6.1 0 0 1-1.791.522q-.906.112-1.405.113h-.453V0Zm-5.575-18.584v32.727q1.132.045 2.176.045h1.7q.838 0 1.201.045h.227q1.54 0 3.444-.317a10 10 0 0 0 3.581-1.337q1.677-1.02 2.81-2.878 1.133-1.86 1.133-4.986v-.318q-.045-2.584-.974-4.193T7.661-2.312a9.1 9.1 0 0 0-2.947-1.631l5.304-10.425H3.943L-.181-5.666v-12.918z" clip-path="url(#w)" transform="matrix(1.33333 0 0 -1.33333 586.71 99.003)"/><use clip-path="url(#x)" href="#o" transform="matrix(1.33333 0 0 -1.33333 610.04 95.92)"/></g></svg>