<svg width="375" height="218" viewBox="0 0 375 218" fill="none" xmlns="http://www.w3.org/2000/svg">
<path d="M93.8 175.9C100.8 175.9 107.1 174.3 112.7 171.1C118.3 167.7 123.1 163.1 127.1 157.3C131.1 151.3 134.1 144.3 136.1 136.3C138.3 128.1 139.4 119.2 139.4 109.6V109C139.4 99.4 138.3 90.6 136.1 82.6C133.9 74.4 130.7 67.3 126.5 61.3C122.5 55.3 117.6 50.6 111.8 47.2C106.2 43.8 100 42.1 93.2 42.1C86.2 42.1 79.9 43.8 74.3 47.2C68.7 50.4 63.9 55 59.9 61C56.1 66.8 53.1 73.8 50.9 82C48.7 90 47.6 98.8 47.6 108.4V109C47.6 118.6 48.7 127.5 50.9 135.7C53.1 143.9 56.2 151 60.2 157C64.2 162.8 69 167.4 74.6 170.8C80.4 174.2 86.8 175.9 93.8 175.9ZM93.2 217.6C79.2 217.6 66.4 214.9 54.8 209.5C43.4 203.9 33.6 196.3 25.4 186.7C17.4 176.9 11.2 165.4 6.8 152.2C2.4 139 0.2 124.8 0.2 109.6V109C0.2 93.8 2.4 79.6 6.8 66.4C11.4 53.2 17.8 41.7 26 31.9C34.2 22.1 44 14.4 55.4 8.8C67 3.2 79.8 0.399996 93.8 0.399996C107.6 0.399996 120.2 3.2 131.6 8.8C143.2 14.2 153 21.8 161 31.6C169.2 41.2 175.5 52.6 179.9 65.8C184.5 79 186.8 93.2 186.8 108.4V109C186.8 124.2 184.5 138.4 179.9 151.6C175.5 164.8 169.2 176.3 161 186.1C152.8 195.9 142.9 203.6 131.3 209.2C119.9 214.8 107.2 217.6 93.2 217.6ZM294.641 217.6C277.641 217.6 262.841 214.8 250.241 209.2C237.641 203.6 226.241 195.9 216.041 186.1L243.941 152.8C251.941 160 259.941 165.6 267.941 169.6C275.941 173.6 284.641 175.6 294.041 175.6C304.841 175.6 313.341 173.1 319.541 168.1C325.941 163.1 329.141 155.9 329.141 146.5V145.9C329.141 136.9 325.641 129.9 318.641 124.9C311.841 119.9 302.941 117.4 291.941 117.4C285.341 117.4 279.041 118.2 273.041 119.8C267.241 121.2 261.841 123 256.841 125.2L230.141 107.5L236.141 3.99999H365.141V44.5H275.741L273.341 80.8C277.541 79.8 281.741 79 285.941 78.4C290.141 77.6 295.141 77.2 300.941 77.2C311.141 77.2 320.641 78.5 329.441 81.1C338.441 83.7 346.241 87.7 352.841 93.1C359.641 98.5 364.941 105.5 368.741 114.1C372.541 122.5 374.441 132.6 374.441 144.4V145C374.441 156.2 372.541 166.3 368.741 175.3C364.941 184.1 359.541 191.7 352.541 198.1C345.741 204.3 337.341 209.1 327.341 212.5C317.541 215.9 306.641 217.6 294.641 217.6Z" fill="white" fill-opacity="0.4"/>
</svg>
