<svg width="385" height="218" viewBox="0 0 385 218" fill="none" xmlns="http://www.w3.org/2000/svg">
<path d="M93.8 175.9C100.8 175.9 107.1 174.3 112.7 171.1C118.3 167.7 123.1 163.1 127.1 157.3C131.1 151.3 134.1 144.3 136.1 136.3C138.3 128.1 139.4 119.2 139.4 109.6V109C139.4 99.4 138.3 90.6 136.1 82.6C133.9 74.4 130.7 67.3 126.5 61.3C122.5 55.3 117.6 50.6 111.8 47.2C106.2 43.8 100 42.1 93.2 42.1C86.2 42.1 79.9 43.8 74.3 47.2C68.7 50.4 63.9 55 59.9 61C56.1 66.8 53.1 73.8 50.9 82C48.7 90 47.6 98.8 47.6 108.4V109C47.6 118.6 48.7 127.5 50.9 135.7C53.1 143.9 56.2 151 60.2 157C64.2 162.8 69 167.4 74.6 170.8C80.4 174.2 86.8 175.9 93.8 175.9ZM93.2 217.6C79.2 217.6 66.4 214.9 54.8 209.5C43.4 203.9 33.6 196.3 25.4 186.7C17.4 176.9 11.2 165.4 6.8 152.2C2.4 139 0.2 124.8 0.2 109.6V109C0.2 93.8 2.4 79.6 6.8 66.4C11.4 53.2 17.8 41.7 26 31.9C34.2 22.1 44 14.4 55.4 8.8C67 3.2 79.8 0.399996 93.8 0.399996C107.6 0.399996 120.2 3.2 131.6 8.8C143.2 14.2 153 21.8 161 31.6C169.2 41.2 175.5 52.6 179.9 65.8C184.5 79 186.8 93.2 186.8 108.4V109C186.8 124.2 184.5 138.4 179.9 151.6C175.5 164.8 169.2 176.3 161 186.1C152.8 195.9 142.9 203.6 131.3 209.2C119.9 214.8 107.2 217.6 93.2 217.6ZM303.041 178C314.441 178 323.241 175.1 329.441 169.3C335.841 163.5 339.041 156.1 339.041 147.1V146.5C339.041 137.5 335.741 130.2 329.141 124.6C322.741 118.8 313.841 115.9 302.441 115.9C291.041 115.9 282.141 118.7 275.741 124.3C269.541 129.9 266.441 137.2 266.441 146.2V146.8C266.441 155.8 269.641 163.3 276.041 169.3C282.641 175.1 291.641 178 303.041 178ZM304.841 217.6C291.041 217.6 279.341 215.7 269.741 211.9C260.141 208.1 251.641 202.5 244.241 195.1C236.641 187.5 230.541 177.6 225.941 165.4C221.541 153 219.341 136.4 219.341 115.6V115C219.341 98.8 221.141 83.7 224.741 69.7C228.541 55.7 234.241 43.6 241.841 33.4C249.441 23.2 259.041 15.2 270.641 9.39999C282.241 3.39999 295.841 0.399996 311.441 0.399996C318.641 0.399996 325.241 0.899996 331.241 1.89999C337.241 2.89999 342.841 4.39999 348.041 6.39999C353.241 8.39999 358.241 10.9 363.041 13.9C367.841 16.7 372.541 19.9 377.141 23.5L352.841 59.2C349.441 56.6 346.141 54.3 342.941 52.3C339.741 50.1 336.441 48.3 333.041 46.9C329.641 45.5 326.041 44.4 322.241 43.6C318.441 42.8 314.341 42.4 309.941 42.4C303.341 42.4 297.541 43.7 292.541 46.3C287.741 48.7 283.541 52.1 279.941 56.5C276.541 60.7 273.841 65.8 271.841 71.8C269.841 77.8 268.441 84.2 267.641 91C272.841 87.6 278.741 84.5 285.341 81.7C292.141 78.9 300.741 77.5 311.141 77.5C321.541 77.5 331.241 79 340.241 82C349.241 84.8 357.041 89 363.641 94.6C370.241 100.2 375.441 107.2 379.241 115.6C383.041 123.8 384.941 133.4 384.941 144.4V145C384.941 155.8 382.841 165.7 378.641 174.7C374.641 183.5 369.041 191.1 361.841 197.5C354.841 203.9 346.441 208.9 336.641 212.5C326.841 215.9 316.241 217.6 304.841 217.6Z" fill="white" fill-opacity="0.4"/>
</svg>
