<?xml version="1.0" encoding="utf-8"?>
<!-- Generator: Adobe Illustrator 25.2.1, SVG Export Plug-In . SVG Version: 6.00 Build 0)  -->
<svg version="1.1" id="Capa_1" xmlns="http://www.w3.org/2000/svg" xmlns:xlink="http://www.w3.org/1999/xlink" x="0px" y="0px"
	 viewBox="190 305 244 215" xml:space="preserve">
<style type="text/css">
	.st0{fill:#FFFFFF;}
	.st1{fill:#5C0F8B;}
</style>
<g>
	<path class="st0" d="M396.1,315.8c-13.66,0-25.12,12.01-27.07,27.53c-0.06,0.48-0.46,0.84-0.93,0.84h-56.05h-56
		c-0.51,0-0.92-0.38-0.99-0.88c-1.97-15.49-13.42-27.48-27.07-27.48c-15.09,0-27.37,14.46-27.37,32.23
		c0,16.4,10.46,29.98,23.94,31.97v55.69c0,18.38,14.29,33.49,32.34,34.81v12.32c0,19.52,15.83,35.35,35.35,35.35h19.8h19.8
		c19.52,0,35.35-15.83,35.35-35.35v-12.32c18.05-1.31,32.34-16.42,32.34-34.81V380c13.48-2,23.94-15.57,23.94-31.97
		C423.47,330.26,411.19,315.8,396.1,315.8z"/>
	<g>
		<path class="st1" d="M355.63,356.73c-3.7-2.13-9.17,0.43-12.23,5.73c-2.77,4.8-2.6,10.18,0.2,12.74c0.29,0.27,0.6,0.51,0.95,0.71
			c2.43,1.4,5.62,0.77,8.4-1.33c1.45-1.09,2.78-2.58,3.83-4.4C359.84,364.89,359.33,358.86,355.63,356.73z"/>
		<path class="st1" d="M396.1,315.8c-13.66,0-25.12,12.01-27.07,27.53c-0.06,0.48-0.46,0.84-0.93,0.84h-56.05h-56
			c-0.51,0-0.92-0.38-0.99-0.88c-1.97-15.49-13.42-27.48-27.07-27.48c-15.09,0-27.37,14.46-27.37,32.23
			c0,16.4,10.46,29.98,23.94,31.97v55.69c0,18.38,14.29,33.49,32.34,34.81v12.32c0,19.52,15.83,35.35,35.35,35.35h19.8h19.8
			c19.52,0,35.35-15.83,35.35-35.35v-12.32c18.05-1.31,32.34-16.42,32.34-34.81V380c13.48-2,23.94-15.57,23.94-31.97
			C423.47,330.26,411.19,315.8,396.1,315.8z M225.11,372.7c-0.25,0.26-0.71,0.3-1.43,0c-0.08-0.03-0.16-0.07-0.24-0.11
			c-5.33-2.45-15.95-9.22-15.95-24.36c0-2.38,0.26-4.68,0.74-6.87h-0.03c0.23-1.02,0.52-2.01,0.84-2.98
			c0.02-0.06,0.04-0.12,0.06-0.17c0.15-0.43,0.3-0.85,0.46-1.27c0.14-0.35,0.28-0.69,0.43-1.03c0.08-0.18,0.16-0.35,0.24-0.53
			c2.18-4.72,5.51-8.47,9.51-10.65c0.68-0.37,1.54-0.02,1.76,0.73c0.37,1.24,0.84,2.87,0.84,2.87c0.62,2.31,1.14,4.55,1.42,6.77
			c0.28,2.22,0.42,4.4,0.35,6.61c-0.06,2.29-0.21,4.62-0.41,7.01c-0.36,4.77-0.97,9.91-0.35,15.45c0.31,2.47,0.88,5,1.9,7.34
			C225.37,371.77,225.38,372.42,225.11,372.7z M266.27,446.35c-6.14,0-11.44-3.61-13.92-8.82h28.33c0.71,0,1.29-0.58,1.29-1.29
			v-4.29c0-0.71-0.58-1.29-1.29-1.29h-29.84v-8.82h29.84c0.71,0,1.29-0.58,1.29-1.29v-4.29c0-0.71-0.58-1.29-1.29-1.29h-29.8
			c0.36-5.29,4.77-9.49,10.16-9.49h25.05c0.99,0,1.79,0.8,1.79,1.79v18.66c0,9.25,7.5,16.75,16.75,16.75h3.1
			c0.29,0,0.53,0.24,0.53,0.53v2.61c0,0.29-0.24,0.53-0.53,0.53H266.27z M336.99,481.72l0.37,0.84l1.27,2.87l1.45,3.28l1.44,3.26
			h-3.14h-3.16h-3.16h-6.07l3.03-6.62l1.28-2.8l0.41-0.89c0.46-1,1.27-1.68,2.3-1.92c0.27-0.06,0.56-0.1,0.85-0.09
			c0.26,0,0.51,0.04,0.75,0.09C335.67,479.99,336.53,480.68,336.99,481.72z M334.89,453.13h1.43h3.05h11.06l-0.04,0.09l-4.68,10.21
			c-0.58,1.27-1.77,1.98-3.15,2.01c-0.75-0.01-1.43-0.23-1.98-0.64c-0.48-0.35-0.88-0.82-1.14-1.41l-0.61-1.39l-3.88-8.78
			L334.89,453.13z M312.05,459.2h-19.4l2.64-5.98l0.28-0.64h16.48h16.48l0.28,0.64l2.64,5.98H312.05z M322.86,485.36l-3.03,6.62
			h-7.78h-7.78l-3.03-6.62h10.81H322.86z M284.02,488.71l1.45-3.28l1.27-2.87l0.37-0.84c0.46-1.04,1.32-1.73,2.37-1.96
			c0.24-0.05,0.49-0.09,0.75-0.09c0.3-0.01,0.58,0.03,0.85,0.09c1.02,0.23,1.84,0.91,2.3,1.92l0.41,0.89l1.28,2.8l3.03,6.62h-6.07
			h-3.16h-3.16h-3.14L284.02,488.71z M281.56,465.44c-1.39-0.03-2.57-0.74-3.15-2.01l-4.68-10.21l-0.04-0.09h11.06h3.05h1.43
			l-0.04,0.09l-3.88,8.78l-0.61,1.39c-0.26,0.59-0.66,1.07-1.14,1.41C282.98,465.21,282.3,465.43,281.56,465.44z M331.85,511.29
			h-19.8h-19.8c-10.2,0-19.16-5.4-24.19-13.48h43.99h43.99C351.01,505.89,342.05,511.29,331.85,511.29z M316.36,446.35
			c-0.29,0-0.53-0.24-0.53-0.53v-2.61c0-0.29,0.24-0.53,0.53-0.53h3.1c9.25,0,16.75-7.5,16.75-16.75v-18.66
			c0-0.99,0.8-1.79,1.79-1.79h25.05c5.38,0,9.79,4.2,10.16,9.49h-29.8c-0.71,0-1.29,0.58-1.29,1.29v4.29c0,0.71,0.58,1.29,1.29,1.29
			h29.84v8.82h-29.84c-0.71,0-1.29,0.58-1.29,1.29v4.29c0,0.71,0.58,1.29,1.29,1.29h28.33c-2.48,5.2-7.78,8.82-13.92,8.82H316.36z
			 M398.18,324.11c-0.48,0.57-0.95,1.17-1.39,1.78c-1.57,2.19-2.91,4.65-3.86,7.29c-0.96,2.64-1.55,5.45-1.76,8.26
			c-0.11,1.36-0.12,2.71-0.13,4.05c0.03,1.34,0.1,2.66,0.2,3.97c0.43,5.22,1.45,10.03,1.89,14.54c0.3,2.89,0.3,5.7-0.15,8.61
			c-0.15,0.97-0.27,1.94-0.28,2.92l-0.02,1.29v1.49v57.38c0,15.48-12.55,28.03-28.03,28.03h-3.43v-10.75
			c10.7-1.63,18.92-10.9,18.92-22.05v-15.25c0-9.42-7.64-17.06-17.06-17.06h-1.02c6.53-2.94,11.15-9.35,11.53-16.89
			c0.03-0.54-0.42-0.98-0.96-0.98l-15.18,0c0.35,1.87,0.18,3.93-1.31,6.17c-1.7,2.56-4.46,4.31-7.53,4.25
			c-4.59-0.09-8.32-3.69-8.62-8.23c-5.52,2.85-9.5,8.25-10.41,14.63c0,0,0,0,0,0l-0.19,11.1c-0.02,0.9-0.6,1.7-1.45,1.99
			l-14.98,5.92c-0.57,0.23-1.21,0.23-1.79,0l-14.98-5.92c-0.85-0.29-1.44-1.08-1.45-1.99l-0.19-11.1v0
			c-0.91-6.39-4.89-11.78-10.41-14.63c-0.3,4.54-4.02,8.14-8.61,8.23c-3.07,0.06-5.83-1.69-7.54-4.25
			c-1.49-2.24-1.65-4.29-1.31-6.17l-15.18,0c-0.54,0-0.99,0.45-0.96,0.98c0.37,7.53,5,13.94,11.53,16.89h-1.02
			c-9.42,0-17.06,7.64-17.06,17.06v15.25c0,11.15,8.22,20.41,18.92,22.05v10.75h-3.43c-15.48,0-28.03-12.55-28.03-28.03V378.3v-1.49
			l-0.02-1.29c-0.01-0.98-0.13-1.95-0.28-2.92c-0.45-2.92-0.45-5.72-0.15-8.61c0.44-4.51,1.46-9.32,1.89-14.54
			c0.1-1.31,0.16-2.63,0.2-3.97c-0.01-1.34-0.02-2.69-0.13-4.05c-0.21-2.8-0.79-5.62-1.76-8.26c-0.95-2.65-2.29-5.1-3.86-7.29
			c-0.45-0.61-0.91-1.21-1.39-1.78c-0.44-0.52-0.1-1.34,0.58-1.39c0.41-0.03,0.82-0.05,1.23-0.05c0.06,0,0.11,0.01,0.17,0.01
			c0.03,0,0.07-0.01,0.1-0.01c11.13,0,20.32,11.2,20.49,24.97l0.03,2.4c0.01,0.55,0.45,0.99,1,0.99h37.61
			c0.84,0,1.52,0.67,1.56,1.51c0.81,17.02,9.73,30.68,21.01,32.36c0.77,0.11,1.53-0.35,1.72-1.1c1.31-5.11,1.36-10.19,0.44-15.22
			c-0.92-5.3-2.59-10.66-3.88-16.3c-0.15-0.64,0.35-1.25,1-1.25h3.07h0.89c0.74,0,1.38,0.52,1.55,1.24
			c1.11,5.03,2.32,10.23,2.63,15.75c0.17,3.3-0.07,6.7-0.91,9.95c-0.51,1.91-1.22,3.75-2.11,5.47c-0.36,0.69,0.23,1.51,0.99,1.36
			c11.03-2.14,19.65-15.78,20.33-32.63c0.03-0.63,0.53-1.13,1.16-1.13h38.05c0.52,0,0.95-0.42,0.95-0.94l0.03-2.45
			c0.17-13.77,9.36-24.97,20.49-24.97c0.03,0,0.07,0.01,0.1,0.01c0.06,0,0.11-0.01,0.17-0.01c0.41,0,0.82,0.02,1.23,0.05
			C398.28,322.77,398.62,323.59,398.18,324.11z M400.65,372.6c-0.08,0.04-0.16,0.07-0.23,0.11c-0.72,0.3-1.18,0.26-1.43,0
			c-0.27-0.28-0.26-0.93-0.14-1.2c1.02-2.35,1.59-4.87,1.9-7.34c0.61-5.53,0.01-10.68-0.35-15.45c-0.2-2.39-0.35-4.72-0.41-7.01
			c-0.07-2.21,0.06-4.39,0.35-6.61c0.28-2.22,0.79-4.45,1.42-6.77c0,0,0.48-1.63,0.84-2.87c0.22-0.75,1.07-1.1,1.76-0.73
			c4,2.17,7.34,5.93,9.51,10.65c0.08,0.17,0.16,0.35,0.24,0.53c0.15,0.34,0.29,0.68,0.43,1.03c0.16,0.42,0.32,0.84,0.46,1.27
			c0.02,0.06,0.04,0.12,0.06,0.17c0.32,0.97,0.62,1.96,0.84,2.98h-0.03c0.48,2.19,0.74,4.49,0.74,6.87
			C416.6,363.38,405.97,370.15,400.65,372.6z"/>
		<path class="st1" d="M268.46,356.73c-3.7,2.13-4.21,8.16-1.15,13.45c1.05,1.82,2.38,3.3,3.83,4.4c2.77,2.1,5.97,2.73,8.4,1.33
			c0.35-0.2,0.66-0.45,0.95-0.71c2.8-2.56,2.97-7.94,0.2-12.74C277.63,357.16,272.16,354.6,268.46,356.73z"/>
	</g>
</g>
</svg>
