<svg xmlns="http://www.w3.org/2000/svg" xmlns:xlink="http://www.w3.org/1999/xlink" viewBox="0 0 45.65 86.76"><defs><style>.cls-1{fill:#ffd200;}.cls-2{clip-path:url(#clip-path);}.cls-3{fill:#ffecae;}.cls-4{fill:#575756;}</style><clipPath id="clip-path"><path class="cls-1" d="M25.81,73.72V44.3a3.48,3.48,0,0,0-6.95,0V73.72a6.13,6.13,0,1,0,7,0Z"/></clipPath></defs><g id="Capa_1" data-name="Capa 1"><path class="cls-1" d="M25.81,73.72V44.3a3.48,3.48,0,0,0-6.95,0V73.72a6.13,6.13,0,1,0,7,0Z"/><g class="cls-2"><rect class="cls-3" x="15.17" y="56.83" width="13.71" height="28.97"/></g><path class="cls-4" d="M13,44.23V44l.28-.27c.68-.65,1-1,1-1.39a.47.47,0,0,0-.53-.52.9.9,0,0,0-.56.22l-.11-.25a1.12,1.12,0,0,1,.75-.27.74.74,0,0,1,.81.77c0,.49-.35.89-.91,1.43l-.22.19h1.2v.3Z"/><path class="cls-4" d="M14.89,44.23V44l.28-.27c.68-.65,1-1,1-1.39a.47.47,0,0,0-.52-.52.91.91,0,0,0-.57.22L15,41.8a1.12,1.12,0,0,1,.75-.27.74.74,0,0,1,.81.77c0,.49-.35.89-.91,1.43l-.22.19h1.2v.3Z"/><path class="cls-4" d="M30.59,41.57v.24l-1.16,2.42h-.37l1.16-2.35H28.91v-.3Z"/><path class="cls-4" d="M30.76,44.23V44l.28-.27c.68-.65,1-1,1-1.39a.47.47,0,0,0-.53-.52.9.9,0,0,0-.56.22l-.12-.25a1.16,1.16,0,0,1,.75-.27.75.75,0,0,1,.82.77c0,.49-.36.89-.92,1.43l-.21.19h1.19v.3Z"/><path class="cls-4" d="M13.78,57.68h0l-.46.25-.07-.27.58-.31h.31V60h-.35Z"/><path class="cls-4" d="M14.86,59.33a.76.76,0,0,1,.53-.71h0A.67.67,0,0,1,15,58a.75.75,0,0,1,.82-.71.66.66,0,0,1,.34,1.28h0a.74.74,0,0,1,.53.69.81.81,0,0,1-.9.77C15.19,60.05,14.86,59.72,14.86,59.33Zm1.43,0c0-.33-.23-.48-.59-.58a.56.56,0,0,0-.47.54.49.49,0,0,0,.53.51A.48.48,0,0,0,16.29,59.32ZM15.3,58c0,.26.2.41.51.49a.52.52,0,0,0,.4-.48.42.42,0,0,0-.45-.44A.42.42,0,0,0,15.3,58Z"/><path class="cls-4" d="M30.38,57.6a1.42,1.42,0,0,0-.27,0,1.08,1.08,0,0,0-.92.94h0a.82.82,0,0,1,.64-.3.79.79,0,0,1,.8.86.89.89,0,0,1-.88.93c-.57,0-.94-.44-.94-1.13a1.69,1.69,0,0,1,.45-1.2,1.43,1.43,0,0,1,.85-.39,1.38,1.38,0,0,1,.26,0Zm-.1,1.54a.54.54,0,0,0-.55-.61.59.59,0,0,0-.51.32.27.27,0,0,0,0,.16c0,.44.21.76.58.76S30.28,59.52,30.28,59.14Z"/><path class="cls-4" d="M31.87,60v-.73H30.63v-.23l1.19-1.7h.39V59h.37v.28h-.37V60Zm0-1v-.89c0-.14,0-.27,0-.41h0l-.22.39L31,59h.87Z"/><path class="cls-4" d="M10.52,5.48a.68.68,0,0,1,.68.68.69.69,0,0,1-.2.48.67.67,0,0,1-.48.2.69.69,0,0,1-.48-.2.68.68,0,0,1-.19-.48A.65.65,0,0,1,10,5.68.69.69,0,0,1,10.52,5.48Zm0,1.09a.41.41,0,0,0,.41-.41.38.38,0,0,0-.12-.29.41.41,0,0,0-.58,0,.38.38,0,0,0-.12.29.41.41,0,0,0,.41.41Z"/><path class="cls-4" d="M15,8a1.63,1.63,0,0,1-.55.9,1.48,1.48,0,0,1-.93.3,1.48,1.48,0,0,1-1.28-.55,2.19,2.19,0,0,1-.41-1.33A1.82,1.82,0,0,1,12.35,6a1.63,1.63,0,0,1,1.21-.49,1.5,1.5,0,0,1,.9.27,1.46,1.46,0,0,1,.52.78l-.47.11a1.09,1.09,0,0,0-.36-.56.87.87,0,0,0-.59-.19,1.08,1.08,0,0,0-.89.38,1.67,1.67,0,0,0-.3,1,1.65,1.65,0,0,0,.31,1.11,1.07,1.07,0,0,0,.84.36,1,1,0,0,0,.68-.23,1.17,1.17,0,0,0,.36-.68Z"/><path class="cls-4" d="M27.57,5.48a.68.68,0,0,1,.68.68.69.69,0,0,1-.2.48.66.66,0,0,1-.95,0,.69.69,0,0,1-.2-.48.62.62,0,0,1,.2-.48A.65.65,0,0,1,27.57,5.48Zm0,1.09a.38.38,0,0,0,.29-.12A.4.4,0,0,0,28,6.16a.41.41,0,0,0-.41-.41.4.4,0,0,0-.29.12.38.38,0,0,0-.12.29.41.41,0,0,0,.41.41Z"/><path class="cls-4" d="M31.49,6H29.55V7.06h1.68v.42H29.55V9.11h-.48V5.53h2.42Z"/></g></svg>