<svg width="55" height="66" viewBox="0 0 55 66" fill="none" xmlns="http://www.w3.org/2000/svg">
<g clip-path="url(#clip0_847_2)">
<path d="M51.3189 57.1204C51.2524 57.4278 51.2015 57.7395 51.1161 58.0416C50.9453 58.6453 50.3987 58.9909 49.8502 58.8617C49.2414 58.7183 48.8901 58.1878 48.9885 57.5558C49.5813 53.7477 50.2741 49.9516 50.7386 46.1279C51.1651 42.6173 51.4367 39.0811 51.604 35.5481C51.7214 33.068 51.6472 30.5677 51.4826 28.0879C51.2568 24.687 50.949 21.2864 50.5191 17.9056C50.117 14.7433 49.5091 11.6072 48.9936 8.45921C48.8848 7.79509 49.2586 7.2472 49.8951 7.12546C50.4393 7.02131 50.9605 7.38745 51.1269 8.0019C51.2076 8.30022 51.2695 8.60371 51.3784 9.06952C52.5891 7.02786 53.0655 5.0216 52.6045 2.84084C52.5053 2.37124 52.1752 2.11442 51.6475 2.20076C51.3091 2.25605 50.963 2.2664 50.6253 2.32468C49.3254 2.5492 48.064 2.88832 46.8204 3.61164C47.0227 3.69223 47.1216 3.72005 47.2093 3.76822C47.7171 4.04768 47.9693 4.46336 47.8088 5.04402C47.6492 5.62192 47.2347 5.87483 46.6442 5.83183C46.4531 5.81792 46.2626 5.77447 46.0752 5.73032C38.7519 4.00583 31.3597 2.98719 23.8089 3.46438C20.1632 3.69487 16.5493 4.1462 12.9681 4.85515C11.5613 5.13369 10.1675 5.47741 8.76573 5.78159C7.85994 5.97806 7.22782 5.63778 7.14945 4.8894C7.07856 4.21276 7.52874 3.85926 8.17146 3.59267C6.63918 2.75336 5.07434 2.37147 3.44655 2.21111C2.73167 2.14075 2.38931 2.38952 2.34754 3.12675C2.29587 4.04124 2.25571 4.97309 2.37355 5.87621C2.5159 6.96716 2.90786 8.00225 3.64713 9.01135C3.75024 8.56117 3.79995 8.2263 3.90525 7.90994C4.08754 7.36262 4.61011 7.09615 5.19391 7.21731C5.70451 7.3233 6.06529 7.81188 6.01695 8.36322C5.99474 8.61831 5.92696 8.86915 5.88599 9.12286C5.3915 12.1875 4.82957 15.2434 4.42437 18.3198C4.04945 21.1673 3.79224 24.033 3.57773 26.8977C3.40799 29.1647 3.30569 31.4426 3.31351 33.7152C3.32053 35.7946 3.46715 37.8772 3.63953 39.9512C3.8652 42.6646 4.101 45.3813 4.47098 48.0777C4.90448 51.2367 5.48759 54.3753 6.00429 57.523C6.11615 58.2044 5.76654 58.7296 5.11945 58.8633C4.57167 58.9765 4.04703 58.6191 3.88016 58.0064C3.79846 57.7067 3.73839 57.4013 3.6652 57.0839C3.57244 57.1318 3.52123 57.1408 3.50328 57.1701C2.37965 58.9995 1.9733 60.9725 2.37309 63.0868C2.46446 63.5702 2.76942 63.8912 3.34274 63.7985C3.68142 63.7436 4.02758 63.7342 4.36545 63.6758C5.6678 63.451 6.93264 63.1132 8.16905 62.3935C8.00333 62.3226 7.93083 62.2934 7.85983 62.2611C7.22977 61.9751 6.95485 61.4441 7.13817 60.8689C7.30469 60.3466 7.85327 60.0659 8.49265 60.1787C8.64007 60.2046 8.78691 60.2356 8.93225 60.2715C12.6196 61.1829 16.3535 61.8459 20.1291 62.2393C23.7863 62.6205 27.4499 62.7999 31.1339 62.5468C34.7577 62.2978 38.3511 61.8546 41.9161 61.1804C43.4093 60.8981 44.8831 60.5153 46.371 60.2035C47.1532 60.0397 47.6704 60.326 47.8189 60.9936C47.9833 61.7332 47.5217 62.1241 46.8209 62.4064C48.472 63.2879 50.138 63.7195 51.8877 63.7735C52.1287 63.7809 52.5493 63.3823 52.6052 63.1133C53.0525 60.9599 52.5969 58.9608 51.3189 57.1204ZM52.5358 -6.47646e-06C54.4163 0.647784 54.9642 2.13626 54.9971 3.93088C55.0511 6.86876 54.0891 9.43463 52.1577 11.6523C51.9915 11.843 51.8875 12.1978 51.9316 12.4449C53.1232 19.1328 53.7924 25.8768 53.9011 32.6622C53.9477 35.5746 53.6954 38.4981 53.4585 41.4068C53.2324 44.1831 52.8667 46.9488 52.5285 49.715C52.3778 50.9472 52.1623 52.1725 51.939 53.394C51.8589 53.8325 51.9365 54.1376 52.2407 54.4865C54.2541 56.7957 55.1577 59.5008 54.9776 62.554C54.8411 64.8695 53.4752 66.1674 51.3664 65.9713C50.5155 65.8922 49.6648 65.7358 48.8341 65.533C47.1477 65.1212 45.6253 64.3468 44.2047 63.3505C43.9669 63.1837 43.5735 63.1024 43.288 63.1598C38.1819 64.1862 33.0322 64.8991 27.8218 64.8433C24.6496 64.8094 21.4722 64.5319 18.3136 64.2052C16.0372 63.9698 13.7889 63.4661 11.5246 63.1044C11.3264 63.0727 11.0604 63.1513 10.8953 63.2728C8.78552 64.8246 6.42031 65.6831 3.82516 65.9703C1.64349 66.2117 0.187504 64.973 0.0285797 62.6154C-0.180289 59.5159 0.757608 56.7868 2.77943 54.4184C2.96943 54.1958 3.09774 53.8097 3.06264 53.5229C2.5785 49.5677 1.99655 45.6234 1.56926 41.6624C1.14312 37.7116 0.911582 33.7386 1.19376 29.7656C1.46108 26.0011 1.80011 22.2402 2.1908 18.4863C2.40335 16.4432 2.79992 14.4196 3.08152 12.3826C3.11374 12.1499 3.00706 11.829 2.84986 11.6496C0.909858 9.43727 -0.0481779 6.87002 0.00579424 3.9318C0.0387069 2.13626 0.587176 0.648244 2.46745 -6.47646e-06H4.01596C4.07154 0.0304575 4.12471 0.0819568 4.18294 0.0883945C6.69707 0.36303 8.94917 1.28776 10.9751 2.79084C11.1076 2.88913 11.3326 2.93293 11.4989 2.9058C13.7832 2.53299 16.0523 2.0243 18.35 1.78668C21.5082 1.45996 24.6859 1.19084 27.858 1.15693C33.0684 1.10106 38.217 1.81829 43.3219 2.84648C43.5897 2.90039 43.9295 2.80245 44.1856 2.67473C45.4474 2.04533 46.6561 1.29431 47.9551 0.759867C48.9085 0.367629 49.9726 0.24359 50.9873 -6.47646e-06H52.5358Z" fill="white"/>
<path d="M33.3533 26.6351C33.1891 26.2987 33.6174 25.7238 32.9939 25.6743C32.1675 25.6086 31.311 25.5768 30.5018 25.7215C29.2427 25.9468 28.3846 27.278 28.2867 28.9052C28.226 29.9156 28.3914 30.1122 29.3896 30.2168C29.4751 30.2258 29.5604 30.249 29.6456 30.248C31.816 30.2214 32.6854 29.6879 33.1378 27.9461C33.2502 27.5135 33.2854 27.0609 33.3533 26.6351ZM19.8976 29.0331C20.3551 29.6731 20.7413 30.3417 21.2504 30.898C22.2208 31.9585 23.3785 32.1978 24.7377 31.5881C26.5114 30.7923 26.6786 30.0665 25.2844 28.6609C24.6257 27.9969 23.8986 27.4038 22.8642 27.5985C21.8212 27.7949 20.8639 28.1987 19.8976 29.0331ZM27.1063 39.6611C26.7887 39.7099 26.5806 39.723 26.3828 39.7753C25.2032 40.0868 24.3168 40.7865 23.6967 41.8305C23.0313 42.951 22.6553 43.037 21.5418 42.3232C20.1331 41.4201 18.343 41.6998 17.3302 42.9812C23.0892 49.0665 32.8052 48.3987 37.664 42.9431C36.4632 41.6167 34.8192 41.419 33.3257 42.4209C32.4434 43.013 31.9207 42.8893 31.3836 41.964C31.276 41.7787 31.1768 41.5854 31.0464 41.4169C30.5881 40.8245 30.0515 40.3305 29.3279 40.0414C29.0564 40.7739 28.8321 41.44 28.5633 42.0877C28.2614 42.8151 27.6995 43.0745 27.0904 42.8139C26.4662 42.5469 26.2702 41.9955 26.5358 41.2559C26.714 40.7597 26.891 40.2631 27.1063 39.6611ZM39.1535 41.2426C43.5209 35.3593 42.4104 26.8573 36.6784 22.0162C31.0002 17.2202 22.4066 17.6881 17.2236 23.0613C11.9776 28.4997 12.2335 36.4987 15.8789 41.2011C17.6567 39.6389 19.6419 39.1521 21.9025 40.0352C22.0265 40.0836 22.2678 39.9253 22.4132 39.8108C23.0838 39.2823 23.6731 38.6032 24.4179 38.2287C25.3379 37.7663 26.3828 37.5515 27.5674 37.1669C27.4341 35.8577 27.2847 34.3905 27.125 32.8223C26.7223 33.0475 26.5048 33.1817 26.2767 33.2946C24.4628 34.1926 22.6215 34.6062 20.7849 33.398C19.4132 32.4957 18.532 31.1775 17.9443 29.671C17.6283 28.8611 17.8085 28.0476 18.4145 27.4651C19.5981 26.3276 21.0232 25.5994 22.6752 25.3951C24.1547 25.212 25.4076 25.7467 26.528 26.7558C27.125 25.1504 28.1549 24.0704 29.7672 23.6297C31.0101 23.2899 32.2762 23.2863 33.5331 23.5348C34.8611 23.7972 35.5122 24.6204 35.5246 25.9792C35.5282 26.3656 35.5198 26.7528 35.4972 27.1384C35.3171 30.2287 33.6594 32.0459 30.6455 32.4297C30.189 32.4878 29.7186 32.4378 29.3918 32.4378C29.4932 34.1641 29.5814 35.8069 29.6989 37.4476C29.7105 37.6095 29.8678 37.8354 30.0157 37.9011C31.016 38.3459 31.8771 38.9713 32.5712 39.8121C32.7879 40.0746 32.9633 40.0481 33.2771 39.9895C34.15 39.8262 35.0451 39.6616 35.9257 39.6878C37.1728 39.7248 38.2027 40.3766 39.1535 41.2426ZM44.0164 33.0447C44.0078 42.1311 36.5851 49.5069 27.4585 49.4975C18.3371 49.4882 10.9692 42.0618 10.9873 32.8954C11.0053 23.8704 18.4583 16.4932 27.5483 16.503C36.6464 16.5128 44.025 23.9244 44.0164 33.0447Z" fill="white"/>
</g>
<defs>
<clipPath id="clip0_847_2">
<rect width="55" height="66" fill="white"/>
</clipPath>
</defs>
</svg>
