<svg width="184" height="178" viewBox="0 0 184 178" fill="none" xmlns="http://www.w3.org/2000/svg">
<path d="M146.597 131.736C146.153 129.22 145.545 126.689 144.803 124.151C147.565 122.498 150.3 120.59 152.974 118.436L176.047 162.378H142.373C147.208 154.291 148.711 143.729 146.597 131.736ZM58.4299 65.9458C60.8847 65.3434 63.4962 65.0472 66.2243 65.0472C76.7239 65.0472 88.9402 69.4413 100.591 77.5036C101.69 78.2665 102.785 79.0594 103.873 79.8881C104.947 80.7049 106.016 81.5516 107.074 82.4322C110.621 85.3753 114.076 88.6464 117.357 92.2627C119.766 94.9185 121.995 97.6671 124.053 100.473C124.667 101.314 125.267 102.162 125.849 103.012C126.67 104.209 127.462 105.415 128.214 106.631C129.003 107.904 129.753 109.188 130.466 110.477C132.231 113.667 133.767 116.895 135.042 120.131C135.543 121.404 135.992 122.675 136.415 123.946C136.847 125.251 137.249 126.551 137.594 127.849C138.066 129.612 138.457 131.37 138.765 133.116C140.39 142.331 139.545 150.404 136.42 156.66C134.154 147.113 129.349 139.004 121.476 131.786C119.907 130.35 118.209 128.95 116.394 127.578C115.072 126.582 113.686 125.6 112.229 124.633C110.803 123.686 109.313 122.754 107.755 121.834C107.202 121.508 106.646 121.182 106.077 120.859C105.434 120.495 104.79 120.131 104.128 119.77C103.075 119.199 101.986 118.633 100.879 118.069C99.0228 117.124 97.0857 116.191 95.0727 115.268C92.4194 114.053 89.6404 112.853 86.7088 111.667C85.1627 111.042 83.6944 110.371 82.2709 109.679C64.3929 100.995 55.9232 87.4427 52.041 78.1508C51.5781 77.0418 51.1751 75.9956 50.834 75.0233C50.5946 74.3411 50.3841 73.6988 50.1976 73.0975C49.8385 71.9416 49.5732 70.9483 49.3807 70.1504C50.4719 69.3346 51.639 68.6355 52.8549 68.0212C54.6025 67.1356 56.4579 66.4295 58.4299 65.9458ZM172.116 73.7587C170.494 83.7846 165.121 94.384 156.988 103.609C156.4 104.276 155.801 104.923 155.197 105.561C154.231 106.577 153.247 107.557 152.246 108.496C151.239 109.44 150.215 110.343 149.178 111.205C146.863 113.132 144.485 114.854 142.083 116.362C140.193 111.719 137.845 107.108 135.07 102.605C136.582 99.535 137.984 96.1342 139.296 92.3883C139.889 90.6999 140.461 88.9416 141.017 87.1116C141.355 85.9966 141.689 84.8657 142.018 83.6968C142.213 82.9967 142.423 82.3176 142.639 81.6474C143.08 80.287 143.567 78.9945 144.086 77.7549C148.994 66.0605 157.122 59.6149 163.019 56.2849C165.058 55.135 166.823 54.3541 168.102 53.8575C172.037 58.457 173.468 65.4182 172.116 73.7587ZM144.54 49.4494C150.395 47.728 155.717 47.5395 160.128 48.8171C153.364 52.4383 143.871 59.5042 137.774 72.3844C137.061 73.8903 136.396 75.478 135.785 77.1485C135.27 78.5617 134.786 80.0208 134.355 81.5556C134.27 81.8668 134.177 82.163 134.09 82.4711C133.021 86.221 131.881 89.7475 130.62 93.0256C130.373 93.6729 130.123 94.3181 129.863 94.9464C129.721 94.7549 129.573 94.5675 129.429 94.376C127.5 91.8318 125.441 89.3396 123.249 86.9191C119.449 82.7314 115.397 78.9098 111.174 75.497C112.855 73.0047 114.735 70.5553 116.814 68.1977C118.852 65.887 120.997 63.7378 123.219 61.7701C124.244 60.8615 125.288 59.9959 126.344 59.1681C127.41 58.3294 128.492 57.5365 129.583 56.7826C134.43 53.4386 139.497 50.9324 144.54 49.4494ZM91.8738 7.95251C93.773 7.95251 95.5126 9.00466 96.3954 10.6831L119.43 54.5526C116.426 57.0778 113.545 59.8802 110.849 62.9389C108.611 65.4771 106.588 68.086 104.763 70.7339C97.0737 65.4791 88.9791 61.5716 80.9114 59.3227C74.5543 57.5515 68.5195 56.8942 62.9605 57.2882L87.3512 10.6901C88.2309 9.00666 89.9746 7.95251 91.8738 7.95251ZM34.3415 111.962C38.1838 124.511 45.5513 137.132 55.625 148.237C55.7726 148.399 55.9232 148.553 56.0698 148.715L49.9133 162.378H7.95286L34.3415 111.962ZM70.9833 152.054C69.4871 150.788 68.0178 149.46 66.5754 148.079C65.2398 146.8 63.9301 145.473 62.6473 144.103C62.2692 143.701 61.8882 143.306 61.5171 142.895C49.5223 129.672 42.102 114.654 39.9105 101.323C39.5015 98.8299 39.2711 96.3965 39.2322 94.0449C39.1624 89.8652 39.691 85.9467 40.8332 82.4113C41.4366 80.5414 42.2127 78.7801 43.1673 77.1455C43.2192 77.3031 43.28 77.4687 43.3359 77.6292C43.8605 79.1202 44.5009 80.7568 45.274 82.503C45.9034 83.9252 46.6136 85.4112 47.4336 86.952C53.1981 97.7937 63.951 111.046 83.7283 119.041C87.9826 120.76 91.8887 122.489 95.4837 124.246C107.866 130.292 116.468 136.666 121.985 144.103C125.84 149.3 128.186 155.019 129.284 161.508C129.328 161.771 129.369 162.035 129.409 162.3C129.536 163.133 129.65 163.973 129.736 164.832C128.898 165.472 128.011 166.048 127.087 166.572C120.089 170.541 110.718 171.137 100.098 168.178C90.1621 165.405 80.1243 159.807 70.9833 152.054ZM183.088 158.681L159.078 112.952C160.393 111.646 161.691 110.297 162.952 108.868C172.066 98.5327 178.11 86.5142 179.968 75.0282C181.933 62.8781 179.04 52.6796 171.816 46.3099C164.593 39.9431 154.107 38.3494 142.295 41.821C136.734 43.4566 131.171 46.1393 125.863 49.6957L103.438 6.9871C101.173 2.67775 96.7435 1.72198e-06 91.8738 1.72198e-06C86.998 1.72198e-06 82.5642 2.68273 80.3049 7.00406L52.9018 59.3526C48.9607 60.7728 45.4017 62.8671 42.3324 65.6506C33.7609 73.4216 30.0712 85.4441 31.751 99.7634L0.907581 158.691C-0.38417 161.156 -0.291407 164.115 1.14997 166.496C2.59134 168.876 5.17086 170.329 7.95286 170.329H49.9133C53.0424 170.329 55.8803 168.495 57.1651 165.644L62.0707 154.758C73.0412 164.991 85.5337 172.371 97.9625 175.837C103.152 177.284 108.134 178 112.814 178C121.715 178 129.516 175.405 135.589 170.329H176.047C178.832 170.329 181.414 168.874 182.854 166.491C184.294 164.109 184.382 161.146 183.088 158.681Z" fill="white"/>
</svg>
