<svg width="306" height="100" viewBox="0 0 306 100" fill="none" xmlns="http://www.w3.org/2000/svg">
<g clip-path="url(#clip0_557_477)">
<path d="M34.0258 28.3909C33.6778 28.4288 33.4857 28.4676 33.2935 28.4676C30.2026 28.472 27.1116 28.4623 24.0215 28.48C23.4805 28.4826 23.2024 28.3309 23.0466 27.7763C21.7964 23.3301 17.6721 23.1043 14.853 23.9853C13.2114 24.4976 12.2073 25.7816 11.8257 27.4465C11.5867 28.4897 11.3653 29.5637 11.3503 30.6263C11.2847 35.4147 11.2157 40.2066 11.3228 44.9941C11.3591 46.6546 11.7372 48.3583 12.2755 49.9368C12.558 50.7657 13.4 51.5831 14.2022 52.032C17.8262 54.0584 22.4091 51.9685 23.1352 47.9385C23.438 46.256 23.3432 44.5029 23.4415 42.7833C23.4743 42.2128 23.129 42.159 22.6889 42.1607C21.2094 42.1678 19.7298 42.1634 18.2503 42.1625C17.8961 42.1625 17.5411 42.1625 17.1223 42.1625V33.3327H34.0444C34.0727 33.6069 34.1267 33.8565 34.1196 34.1043C33.9983 38.6299 33.8629 43.1555 33.7416 47.681C33.5202 55.9438 26.9017 61.0373 20.8118 61.9174C14.5351 62.823 8.95609 61.6087 4.42453 56.8336C1.7488 54.0135 0.845676 50.6096 0.598644 46.935C0.139998 40.1263 0.294059 33.3239 0.982913 26.5355C1.18302 24.5637 1.85151 22.7163 3.04416 21.1122C6.34146 16.6793 10.6791 14.1493 16.3396 14.0911C20.1823 14.0514 23.9249 14.5205 27.1514 16.7727C31.157 19.5673 33.2812 23.5188 34.0258 28.3909Z" fill="white"/>
<path d="M59.9235 13.0091H70.1749C70.1988 13.3169 70.2368 13.57 70.2368 13.8222C70.2368 24.7719 70.2652 35.7217 70.2191 46.6714C70.1926 52.9774 65.7451 59.3513 59.6428 61.2058C46.7149 65.1335 37.7412 56.1608 37.6694 45.9342C37.603 36.4518 37.6553 26.9686 37.6553 17.4853V16.5233H47.9066V17.674C47.9066 26.6361 47.8801 35.5982 47.9403 44.5594C47.9474 45.6934 48.2077 46.9174 48.692 47.9404C49.8147 50.3072 51.6776 51.6926 54.487 51.4615C57.0016 51.2552 58.4564 49.6996 59.3303 47.5726C59.726 46.6088 59.8943 45.4897 59.8987 44.4395C59.9403 34.4024 59.9235 24.3654 59.9235 14.3284V13.0091Z" fill="white"/>
<path d="M84.1984 47.4617L85.986 28.4961H88.4599L90.3848 47.5984L84.1984 47.4617ZM94.6463 21.6733H79.6615L74.9883 63.4255L82.7711 63.4617L83.5113 54.5569L91.4845 54.8294L92.338 63.4617H100.03L94.6463 21.6733Z" fill="white"/>
<path d="M204.296 47.4622L206.084 28.4965H208.558L210.482 47.5988L204.296 47.4622ZM214.744 21.6738H199.759L195.086 63.426L202.868 63.4622L203.609 54.5574L211.582 54.8299L212.436 63.4622H220.127L214.744 21.6738Z" fill="white"/>
<path d="M252.853 47.4622L254.64 28.4965H257.114L259.039 47.5988L252.853 47.4622ZM263.301 21.6738H248.316L243.643 63.426L251.425 63.4622L252.166 54.5574L260.139 54.8299L260.992 63.4622H268.684L263.301 21.6738Z" fill="white"/>
<path d="M232.327 54.1121V8.45865H222.701V62.001H226.293H232.327H238.977V54.1121H232.327Z" fill="white"/>
<path d="M272.662 11.5466H285.029L295.727 40.999V14.5369H305.664V61.5828H294.735L282.446 33.5395V62.0872H272.662V11.5466Z" fill="white"/>
<path d="M176.679 7.82133L167.72 41.5788L158.761 7.81692L145.801 7.8081V61.8399H155.514V28.5691L164.816 61.906H167.686V61.9104H170.624L179.926 28.5735V61.8443H189.639V7.81251L176.679 7.82133Z" fill="white"/>
<path d="M118.613 13.6131H140.981V21.7154H128.41V26.7303H138.423V34.546H128.439V52.4014H138.219V61.9587H118.613V13.6131Z" fill="white"/>
<path d="M103.739 8.5673H93.1006V-0.893906H120.657V8.64842H113.2V61.8733H103.739C104.004 61.4033 103.739 8.5673 103.739 8.5673Z" fill="white"/>
<path d="M71.4561 88.9368V88.8759C71.4561 82.8424 76.0221 77.9015 82.5671 77.9015C86.5843 77.9015 88.9891 79.2357 90.968 81.1757L87.985 84.6008C86.3417 83.1158 84.6674 82.2066 82.5362 82.2066C78.944 82.2066 76.3568 85.1766 76.3568 88.8151V88.8759C76.3568 92.5144 78.8829 95.5452 82.5362 95.5452C84.9719 95.5452 86.463 94.5752 88.1373 93.0593L91.1203 96.0611C88.928 98.3953 86.4931 99.8503 82.3839 99.8503C76.1133 99.8503 71.4561 95.0302 71.4561 88.9368Z" fill="white"/>
<path d="M114.107 88.9368V88.8759C114.107 85.2375 111.428 82.2066 107.653 82.2066C103.878 82.2066 101.261 85.1766 101.261 88.8151V88.8759C101.261 92.5144 103.94 95.5452 107.714 95.5452C111.489 95.5452 114.107 92.5743 114.107 88.9368ZM96.3604 88.9368V88.8759C96.3604 82.8424 101.139 77.9015 107.714 77.9015C114.289 77.9015 119.008 82.7824 119.008 88.8151V88.8759C119.008 94.9085 114.228 99.8503 107.653 99.8503C101.079 99.8503 96.3604 94.9694 96.3604 88.9368Z" fill="white"/>
<path d="M126.225 78.2655H142.449V82.5097H130.912V87.0265H141.079V91.2716H130.912V99.4868H126.225V78.2655Z" fill="white"/>
<path d="M149.242 78.265H165.467V82.5093H153.93V87.026H164.097V91.2712H153.93V99.4863H149.242V78.265Z" fill="white"/>
<path d="M172.257 78.265H188.329V82.4184H176.914V86.7227H186.959V90.877H176.914V95.3329H188.481V99.4863H172.257V78.265Z" fill="white"/>
<path d="M195.702 78.265H211.774V82.4184H200.359V86.7227H210.404V90.877H200.359V95.3329H211.927V99.4863H195.702V78.265Z" fill="white"/>
<path d="M217.683 96.3947L220.452 93.0905C222.37 94.6672 224.379 95.6672 226.815 95.6672C228.732 95.6672 229.889 94.9088 229.889 93.6663V93.6046C229.889 92.4238 229.159 91.8163 225.596 90.9071C221.305 89.8163 218.534 88.6337 218.534 84.4194V84.3595C218.534 80.5085 221.64 77.9626 225.993 77.9626C229.097 77.9626 231.747 78.9327 233.907 80.6602L231.472 84.1769C229.584 82.8736 227.728 82.0852 225.932 82.0852C224.136 82.0852 223.192 82.9036 223.192 83.9344V83.9953C223.192 85.3894 224.105 85.8445 227.789 86.7845C232.11 87.9062 234.546 89.4521 234.546 93.1505V93.2113C234.546 97.4256 231.32 99.7898 226.724 99.7898C223.496 99.7898 220.24 98.6681 217.683 96.3947Z" fill="white"/>
</g>
<defs>
<clipPath id="clip0_557_477">
<rect width="306" height="100" fill="white"/>
</clipPath>
</defs>
</svg>
