<svg width="197" height="179" viewBox="0 0 197 179" fill="none" xmlns="http://www.w3.org/2000/svg">
<path d="M172.803 -0.000137329C160.731 -0.000137329 150.596 10.5884 148.871 24.2699C148.818 24.6896 148.469 25.007 148.044 25.007H98.5H48.9963C48.549 25.007 48.1804 24.672 48.1238 24.2294C46.384 10.5672 36.2568 -0.000137329 24.1971 -0.000137329C10.8548 -0.000137329 0 12.7468 0 28.4131C0 42.8732 9.24675 54.8452 21.1588 56.6042V105.705C21.1588 121.915 33.7895 135.236 49.7495 136.395V147.255C49.7495 164.468 63.7398 178.422 80.9975 178.422H98.5H116.003C133.26 178.422 147.251 164.468 147.251 147.255V136.395C163.21 135.236 175.84 121.915 175.84 105.705V56.6042C187.753 54.8452 197 42.8732 197 28.4131C197 12.7468 186.145 -0.000137329 172.803 -0.000137329Z" fill="white"/>
<path d="M176.822 50.076C176.753 50.1086 176.685 50.1421 176.616 50.1694C175.978 50.4304 175.569 50.396 175.35 50.1677C175.115 49.9234 175.122 49.3459 175.223 49.1123C176.126 47.0446 176.632 44.8157 176.901 42.6387C177.443 37.7611 176.907 33.2255 176.59 29.0206C176.411 26.9124 176.281 24.8633 176.225 22.8398C176.161 20.8921 176.281 18.9717 176.533 17.0143C176.777 15.0569 177.234 13.0863 177.786 11.0486C177.786 11.0486 178.209 9.61496 178.533 8.519C178.727 7.86211 179.482 7.55176 180.084 7.87886C183.621 9.79483 186.57 13.1074 188.494 17.2665C188.566 17.4199 188.636 17.5751 188.705 17.7303C188.837 18.0301 188.962 18.3342 189.082 18.642C189.227 19.0088 189.362 19.3808 189.491 19.7591C189.509 19.8093 189.526 19.8605 189.542 19.9125C189.828 20.766 190.086 21.6389 190.286 22.5418H190.262C190.688 24.471 190.921 26.5016 190.921 28.6009C190.921 41.9466 181.531 47.9202 176.822 50.076ZM174.638 7.32779C174.215 7.83391 173.803 8.35675 173.406 8.89725C172.018 10.8326 170.832 12.9946 169.992 15.3267C169.14 17.6509 168.622 20.1338 168.439 22.6062C168.341 23.8044 168.331 24.9965 168.324 26.1797C168.353 27.3586 168.411 28.526 168.496 29.6766C168.874 34.28 169.773 38.5176 170.162 42.4976C170.428 45.0458 170.43 47.5216 170.031 50.0927C169.9 50.9445 169.795 51.8015 169.783 52.6629L169.765 53.7986V55.1097V105.705C169.765 119.354 158.672 130.419 144.988 130.419H141.955V120.94C151.414 119.5 158.683 111.331 158.683 101.501V88.0593C158.683 79.7501 151.93 73.0147 143.599 73.0147H142.701C148.471 70.418 152.561 64.7671 152.891 58.126C152.914 57.6517 152.518 57.2575 152.043 57.2575H138.62C138.926 58.9099 138.78 60.7227 137.465 62.696C135.959 64.9531 133.522 66.497 130.805 66.4432C126.745 66.3656 123.453 63.1871 123.19 59.185C118.313 61.7005 114.79 66.4547 113.987 72.0862L113.815 81.875C113.801 82.6703 113.288 83.3713 112.532 83.6252L99.2894 88.8423C98.782 89.0416 98.2171 89.0416 97.7097 88.8423L84.4672 83.6252C83.7114 83.3713 83.1969 82.6703 83.1836 81.875L83.0112 72.0862C82.2094 66.4547 78.6849 61.7005 73.8096 59.185C73.5461 63.1871 70.2559 66.3639 66.1956 66.4432C63.479 66.497 61.04 64.954 59.5346 62.696C58.2183 60.7227 58.0733 58.9099 58.3792 57.2575H44.9564C44.4799 57.2575 44.0847 57.6517 44.1086 58.126C44.4383 64.7671 48.5278 70.418 54.2968 73.0147H53.3995C45.0686 73.0147 38.3157 79.7501 38.3157 88.0593V101.501C38.3157 111.331 45.5849 119.5 55.0438 120.94V130.419H52.0108C38.3272 130.419 27.2337 119.354 27.2337 105.705V55.1097V53.7986L27.216 52.6629C27.2037 51.8015 27.0993 50.9445 26.9667 50.0927C26.5689 47.5216 26.5707 45.0458 26.8359 42.4976C27.2249 38.5176 28.1248 34.28 28.5032 29.6766C28.588 28.526 28.6464 27.3586 28.6755 26.1797C28.6685 24.9965 28.6579 23.8044 28.5606 22.6062C28.3767 20.1338 27.8587 17.6509 27.0074 15.3267C26.1667 12.9946 24.9804 10.8326 23.5934 8.89725C23.1964 8.35675 22.7845 7.83391 22.3602 7.32779C21.973 6.8649 22.2691 6.14807 22.872 6.10045C23.2318 6.07224 23.5942 6.05812 23.9602 6.05812C24.0097 6.05812 24.0575 6.06255 24.107 6.06343C24.137 6.06343 24.1662 6.05812 24.1963 6.05812C34.0371 6.05812 42.1629 15.9342 42.3114 28.0728L42.3379 30.1907C42.3432 30.6765 42.7393 31.0662 43.2255 31.0662H76.4758C77.2219 31.0662 77.8203 31.657 77.8566 32.3994C78.5735 47.4097 86.4562 59.453 96.4252 60.9343C97.1059 61.0357 97.7751 60.6274 97.9457 59.9626C99.102 55.4544 99.1489 50.9815 98.3347 46.5429C97.5232 41.8654 96.0478 37.1447 94.9038 32.1701C94.7748 31.6067 95.2097 31.0662 95.7887 31.0662H98.4991H99.2832C99.94 31.0662 100.507 31.5212 100.649 32.1604C101.631 36.5963 102.698 41.1777 102.976 46.0457C103.122 48.9571 102.914 51.954 102.173 54.8178C101.725 56.501 101.097 58.1216 100.305 59.6373C99.9869 60.2457 100.508 60.9651 101.184 60.8346C110.937 58.9487 118.557 46.9194 119.158 32.0599C119.181 31.5062 119.627 31.0662 120.181 31.0662H153.82C154.28 31.0662 154.655 30.6968 154.661 30.2374L154.687 28.0728C154.835 15.9342 162.962 6.05812 172.803 6.05812C172.832 6.05812 172.862 6.06343 172.892 6.06343C172.941 6.06255 172.989 6.05812 173.039 6.05812C173.404 6.05812 173.766 6.07224 174.127 6.10045C174.729 6.14807 175.026 6.8649 174.638 7.32779ZM102.312 115.107C102.055 115.107 101.846 114.899 101.846 114.642V112.343C101.846 112.086 102.055 111.878 102.312 111.878H105.057C113.236 111.878 119.867 105.264 119.867 97.1066V80.6538C119.867 79.7801 120.576 79.0729 121.452 79.0729H143.599C148.357 79.0729 152.256 82.7726 152.578 87.4386H126.233C125.604 87.4386 125.093 87.9474 125.093 88.576V92.3604C125.093 92.9873 125.604 93.4969 126.233 93.4969H152.609V101.273H126.233C125.604 101.273 125.093 101.781 125.093 102.409V106.194C125.093 106.822 125.604 107.332 126.233 107.332H151.275C149.08 111.92 144.396 115.107 138.969 115.107H102.312ZM116.002 172.364H98.4991H80.9975C71.9779 172.364 64.0554 167.606 59.6097 160.476H98.4991H137.389C132.943 167.606 125.02 172.364 116.002 172.364ZM71.5439 131.938C70.3186 131.915 69.2702 131.285 68.7566 130.168L64.6168 121.165L64.5796 121.085H74.355H77.0477H78.3092L78.2738 121.165L74.8456 128.907L74.3046 130.129C74.0748 130.651 73.7247 131.07 73.2977 131.377C72.8036 131.732 72.2042 131.933 71.5439 131.938ZM73.7229 152.46L75.003 149.568L76.1248 147.035L76.4528 146.293C76.8576 145.38 77.6188 144.769 78.5496 144.566C78.7645 144.519 78.9846 144.486 79.2144 144.486C79.4787 144.479 79.7289 144.511 79.9694 144.566C80.8737 144.769 81.5959 145.373 82.0008 146.254L82.3606 147.035L83.4957 149.504L86.1786 155.338H80.8101H78.0184H75.2266H72.4491L73.7229 152.46ZM108.056 149.504L105.373 155.338H98.4991H91.6259L88.943 149.504H98.4991H108.056ZM98.4991 126.439H81.3511L83.6866 121.165L83.9342 120.605H98.4991H113.064L113.312 121.165L115.648 126.439H98.4991ZM118.69 121.085H119.951H122.644H132.419L132.382 121.165L128.242 130.168C127.729 131.285 126.68 131.915 125.455 131.938C124.795 131.933 124.196 131.732 123.701 131.377C123.274 131.07 122.924 130.651 122.694 130.129L122.153 128.907L118.725 121.165L118.69 121.085ZM120.545 146.293L120.874 147.035L121.995 149.568L123.276 152.46L124.55 155.338H121.772H118.981H116.189H110.82L113.503 149.504L114.638 147.035L114.998 146.254C115.403 145.373 116.125 144.769 117.029 144.566C117.269 144.511 117.52 144.479 117.784 144.486C118.015 144.486 118.235 144.519 118.449 144.566C119.38 144.769 120.141 145.38 120.545 146.293ZM58.03 115.107C52.6022 115.107 47.9187 111.92 45.7237 107.332H70.7659C71.3953 107.332 71.9063 106.822 71.9063 106.194V102.409C71.9063 101.781 71.3953 101.273 70.7659 101.273H44.3897V93.4969H70.7659C71.3953 93.4969 71.9063 92.9873 71.9063 92.3604V88.576C71.9063 87.9474 71.3953 87.4386 70.7659 87.4386H44.4215C44.7433 82.7726 48.6409 79.0729 53.3995 79.0729H75.5467C76.4227 79.0729 77.1326 79.7801 77.1326 80.6538V97.1066C77.1326 105.264 83.7627 111.878 91.9415 111.878H94.6864C94.9436 111.878 95.1531 112.086 95.1531 112.343V114.642C95.1531 114.899 94.9436 115.107 94.6864 115.107H58.03ZM21.6485 50.1677C21.4302 50.396 21.02 50.4304 20.3844 50.1694C20.3146 50.1421 20.2465 50.1086 20.1766 50.076C15.4684 47.9202 6.07845 41.9466 6.07845 28.6009C6.07845 26.5016 6.31095 24.471 6.73705 22.5418H6.71317C6.91207 21.6389 7.17021 20.766 7.45663 19.9125C7.47342 19.8605 7.49022 19.8093 7.5079 19.7591C7.63696 19.3808 7.77222 19.0088 7.91719 18.642C8.03742 18.3342 8.16206 18.0301 8.29378 17.7303C8.36273 17.5751 8.43346 17.4199 8.50507 17.2665C10.4287 13.1074 13.3768 9.79483 16.9146 7.87886C17.5184 7.55176 18.2716 7.86211 18.4661 8.519C18.7905 9.61496 19.2131 11.0486 19.2131 11.0486C19.7647 13.0863 20.2217 15.0569 20.4648 17.0143C20.7177 18.9717 20.837 20.8921 20.7743 22.8398C20.7186 24.8633 20.5877 26.9124 20.4091 29.0206C20.0918 33.2255 19.5561 37.7611 20.0971 42.6387C20.3676 44.8157 20.8724 47.0446 21.7749 49.1123C21.8775 49.3459 21.8837 49.9234 21.6485 50.1677ZM172.803 -0.000137329C160.73 -0.000137329 150.596 10.5884 148.87 24.2699C148.817 24.6896 148.468 25.007 148.043 25.007H98.4991H48.9963C48.549 25.007 48.1803 24.672 48.1238 24.2294C46.3831 10.5672 36.2568 -0.000137329 24.1963 -0.000137329C10.8548 -0.000137329 0 12.7468 0 28.4131C0 42.8732 9.24586 54.8452 21.1588 56.6042V105.705C21.1588 121.915 33.7887 135.236 49.7486 136.395V147.255C49.7486 164.468 63.7398 178.422 80.9975 178.422H98.4991H116.002C133.259 178.422 147.25 164.468 147.25 147.255V136.395C163.21 135.236 175.84 121.915 175.84 105.705V56.6042C187.753 54.8452 196.999 42.8732 196.999 28.4131C196.999 12.7468 186.144 -0.000137329 172.803 -0.000137329Z" fill="#562E91"/>
<path d="M59.9689 36.0891C56.7025 37.9698 56.2463 43.2812 58.9496 47.9517C59.877 49.5529 61.0571 50.8622 62.3372 51.8268C64.7894 53.6767 67.6129 54.2374 69.7593 53.0021C70.0661 52.8249 70.341 52.608 70.5982 52.3735C73.0752 50.1172 73.2273 45.37 70.7786 41.1396C68.0753 36.4691 63.2353 34.2084 59.9689 36.0891Z" fill="#562E91"/>
<path d="M141.281 35.6539C138.09 33.7974 133.36 36.029 130.719 40.6393C128.326 44.8152 128.475 49.5012 130.895 51.7285C131.146 51.96 131.415 52.1741 131.715 52.349C133.812 53.5684 136.571 53.0148 138.967 51.1888C140.218 50.2367 141.371 48.9442 142.277 47.3636C144.919 42.7534 144.473 37.5103 141.281 35.6539Z" fill="#562E91"/>
</svg>
