<svg width="362" height="104" viewBox="0 0 362 104" fill="none" xmlns="http://www.w3.org/2000/svg">
<g clip-path="url(#clip0_557_444)">
<path d="M24.7231 15.2453L0 62.5933H12.8342L15.3535 56.9933H35.9033L38.5015 62.5933H51.4146L26.6126 15.2453H24.7231ZM19.4468 47.679L25.2752 35.291H25.9051L31.7312 47.679L32.4399 48.9439H18.7392L19.4468 47.679Z" fill="white"/>
<path d="M104.554 62.5959H101.956L71.4065 36.4748V62.5959H60.0674V15.2468H62.6667L93.2172 40.3414V15.3258H104.554V62.5959Z" fill="white"/>
<path d="M139.194 35.2915H138.564L132.738 47.6807L132.029 48.9432H145.73L145.021 47.6807L139.194 35.2915ZM138.014 15.2458H139.903L164.705 62.595H151.792L149.195 56.9927H128.642L126.124 62.595H113.29L138.014 15.2458Z" fill="white"/>
<path d="M210.76 57.8605C210.76 57.8605 205.483 63.6221 193.912 63.6221C178.085 63.6221 168.558 52.4942 168.558 38.9204C168.558 25.3477 178.085 14.221 193.912 14.221C205.563 14.221 210.76 19.9802 210.76 19.9802L204.224 28.74C204.224 28.74 199.344 25.1884 194.067 25.1884C186.036 25.1884 180.368 30.7128 180.368 38.9204C180.368 47.1279 186.036 52.6511 194.067 52.6511C200.76 52.6511 204.224 49.1019 204.224 49.1019L210.76 57.8605Z" fill="white"/>
<path d="M241.147 35.2915H240.517L234.69 47.6807L233.982 48.9432H247.683L246.974 47.6807L241.147 35.2915ZM239.967 15.2458H241.856L266.658 62.595H253.745L251.146 56.9927H230.595L228.077 62.595H215.243L239.967 15.2458Z" fill="white"/>
<path d="M275.312 15.2463H312.872V25.1116H286.729V34.4224H308.854V43.4193H286.729V62.5955H275.312V15.2463Z" fill="white"/>
<path d="M346.408 12.2479H339.164V10.511L341.368 -0.221561H354.203V1.51529L346.408 12.2479ZM356.644 43.4203H335.856V52.7311H361.998V62.5964H324.44V15.2472H361.998V25.1102H335.856V34.4234H356.644V43.4203Z" fill="white"/>
<path d="M71.9692 89.7345H83.5862V92.3173C83.5862 99.0653 79.932 104 72.5461 104C64.8528 104 60.1992 98.5638 60.1992 91.9315C60.1992 85.3015 64.8528 79.8644 72.5461 79.8644C78.6618 79.8644 81.2388 82.7576 81.2388 82.7576L77.9307 86.9971C77.9307 86.9971 75.7387 85.2248 72.4695 85.2248C68.7389 85.2248 65.9677 87.9233 65.9677 91.9315C65.9677 95.9421 68.7389 98.6405 72.4695 98.6405C75.7764 98.6405 77.5081 96.6358 77.5846 94.361V94.1309H71.9692V89.7345Z" fill="white"/>
<path d="M90.5127 93.5133V80.3666H96.0893V93.5133C96.0893 96.1728 97.7445 98.6011 101.129 98.6011C104.591 98.6011 106.13 96.2118 106.13 93.5133V80.3666H111.708V93.5133C111.708 99.4884 107.745 103.999 101.129 103.999C94.6295 103.999 90.5127 99.4884 90.5127 93.5133Z" fill="white"/>
<path d="M128.246 80.3661H129.169L141.287 103.497H134.978L133.709 100.76H123.669L122.438 103.497H116.168L128.246 80.3661ZM128.823 90.1583H128.516L125.669 96.2113L125.323 96.8284H132.017L131.67 96.2113L128.823 90.1583Z" fill="white"/>
<path d="M142.519 80.3661H162.597V85.1849H155.367V103.497H149.789V85.1849H142.519V80.3661Z" fill="white"/>
<path d="M185.177 94.1302H175.022V98.6788H187.793V103.499H169.444V80.3664H187.793V85.1864H175.022V89.735H185.177V94.1302Z" fill="white"/>
<path d="M214.066 91.354L208.065 97.2525H207.104L201.026 91.3151V103.498H195.487V80.3654H196.987L207.488 90.2744L218.143 80.3654H219.605V103.498H214.066V91.354Z" fill="white"/>
<path d="M237.495 80.3661H238.418L250.536 103.497H244.227L242.958 100.76H232.918L231.687 103.497H225.417L237.495 80.3661ZM238.072 90.1583H237.765L234.918 96.2113L234.572 96.8284H241.266L240.919 96.2113L238.072 90.1583Z" fill="white"/>
<path d="M256.304 103.498V80.3666H261.88V98.679H273.613V103.498H256.304Z" fill="white"/>
<path d="M289.733 80.3661H290.656L302.773 103.497H296.464L295.195 100.76H285.156L283.925 103.497H277.654L289.733 80.3661ZM290.31 90.1583H290.002L287.156 96.2113L286.81 96.8284H293.503L293.156 96.2113L290.31 90.1583Z" fill="white"/>
</g>
<defs>
<clipPath id="clip0_557_444">
<rect width="362" height="104" fill="white"/>
</clipPath>
</defs>
</svg>
