<svg width="56" height="74" viewBox="0 0 56 74" fill="none" xmlns="http://www.w3.org/2000/svg">
<g clip-path="url(#clip0_847_26)">
<path d="M37.9975 53.7298C40.503 52.4964 42.6167 51.0953 44.547 49.406C47.2268 47.0608 49.3535 44.2635 50.7652 40.9441C52.9223 35.8725 53.3523 30.5413 52.8324 25.0892C52.3572 20.1061 51.1641 15.297 49.4479 10.6251C48.6347 8.41091 47.7178 6.23719 46.785 3.88644C45.5219 5.14356 44.3765 6.24797 43.2693 7.39137C38.207 12.6196 33.7328 18.285 30.858 25.1381C29.0684 29.4043 28.1853 33.8322 28.5104 38.4936C28.5496 39.0561 28.7222 39.4557 29.1481 39.8255C31.2912 41.6868 33.1523 43.8151 34.7035 46.2243C35.1333 46.8918 35.5499 47.5682 36.0272 48.3275C36.0772 48.0841 36.1043 47.9639 36.126 47.8426C36.1481 47.7199 36.1443 47.5879 36.1871 47.474C36.7706 45.9224 36.7032 44.4745 35.5681 43.1856C35.4879 43.0946 35.437 42.9758 35.3737 42.8691C34.3364 41.1186 33.2771 39.3815 32.272 37.6116C31.8132 36.8039 32.048 35.9422 32.7331 35.5124C33.4096 35.0881 34.2529 35.2953 34.7704 36.0465C35.0649 36.474 35.3132 36.9353 35.5811 37.3821C36.2118 38.4338 36.8417 39.4858 37.5816 40.7204C37.9886 38.7161 38.3637 36.9383 38.698 35.1524C38.7508 34.8698 38.6996 34.5023 38.5598 34.2565C37.7872 32.8972 36.9707 31.5642 36.1724 30.2203C35.5641 29.1963 34.9477 28.1769 34.3596 27.1406C34.0214 26.5446 34.0134 25.8573 34.4905 25.4044C34.8385 25.074 35.4574 24.7998 35.8903 24.8789C36.3316 24.9597 36.7986 25.4316 37.0702 25.8568C37.9599 27.2491 38.7659 28.698 39.705 30.2972C39.875 29.4389 40.0041 28.7681 40.1409 28.099C40.9446 24.1669 41.7558 20.2365 42.5512 16.3026C42.759 15.2747 43.4449 14.6694 44.306 14.8167C45.2304 14.9749 45.7358 15.788 45.5193 16.8484C44.731 20.7073 43.9253 24.5622 43.131 28.4198C42.9607 29.2469 42.8106 30.0784 42.618 31.0814C43.2163 30.6816 43.6398 30.3957 44.0659 30.1144C45.2306 29.3452 46.3832 28.5551 47.5682 27.8208C48.0808 27.5032 48.6462 27.5517 49.1277 27.9616C49.623 28.383 49.8659 28.9668 49.6143 29.5644C49.435 29.9901 49.0617 30.3897 48.6792 30.6544C46.5429 32.1325 44.3688 33.5527 42.2325 35.0308C41.9542 35.2233 41.7305 35.609 41.6352 35.9506C41.4016 36.7887 41.2536 37.6524 41.079 38.5075C40.8875 39.4443 40.7049 40.3829 40.4887 41.47C40.8767 41.2208 41.1224 41.069 41.3623 40.9079C42.644 40.0474 43.9217 39.1807 45.2063 38.3247C45.7617 37.9546 46.4269 37.8328 46.9014 38.2874C47.2606 38.6316 47.5697 39.2743 47.5273 39.7487C47.4875 40.1945 47.0356 40.7117 46.631 40.9941C44.481 42.4956 42.2791 43.9182 40.1226 45.41C39.8275 45.6141 39.5782 46.025 39.491 46.3869C39.1235 47.9123 38.8183 49.4539 38.5047 50.9928C38.3331 51.8355 38.1901 52.6845 37.9975 53.7298ZM35.4549 68.7352C35.6734 67.2755 35.9043 66.0286 36.04 64.7709C36.4721 60.769 36.1478 56.8405 34.7804 53.0447C32.9415 47.9402 29.6343 43.9855 25.5024 40.7127C20.5531 36.7925 14.9283 34.2369 9.03573 32.2663C7.10131 31.6193 5.11319 31.1428 3.10047 30.5744C3.09808 30.8325 3.08691 30.9803 3.09683 31.1268C3.40952 35.7175 3.98297 40.2698 5.03049 44.7498C6.29647 50.1645 8.15811 55.3221 11.286 59.9222C15.2637 65.7722 20.6218 69.404 27.5034 70.5621C29.4038 70.8819 31.314 70.9572 33.3315 70.7492C31.6354 68.7189 30.0207 66.7589 28.366 64.8355C28.1252 64.5555 27.7097 64.345 27.3461 64.2832C26.1532 64.0803 24.9456 63.9721 23.7465 63.8063C22.2608 63.6008 20.7629 63.4474 19.2991 63.1306C18.3257 62.9199 17.9207 62.1513 18.0931 61.308C18.2586 60.498 18.9523 60.0635 19.9484 60.1786C21.6468 60.3751 23.3435 60.5884 25.198 60.8139C24.3233 59.725 23.4577 58.8066 22.7775 57.7604C21.9203 56.4415 20.8035 55.9155 19.2888 55.8253C17.3358 55.709 15.3937 55.3819 13.4503 55.1199C13.0731 55.069 12.6921 54.9416 12.3459 54.7761C11.6546 54.4458 11.3517 53.776 11.5092 53.0558C11.6541 52.3928 12.293 51.8789 13.0376 51.9521C14.8599 52.1314 16.6774 52.3636 18.6383 52.591C18.027 51.8121 17.5027 51.1329 16.9671 50.4634C14.6221 47.5321 12.259 44.6159 9.94496 41.6589C9.64042 41.2697 9.44818 40.6783 9.44291 40.1781C9.43676 39.5725 9.87846 39.1347 10.4768 38.97C11.1769 38.7772 11.7062 39.0977 12.1356 39.6311C13.7777 41.6701 15.4124 43.7151 17.0522 45.7559C18.3615 47.3854 19.6743 49.012 21.0537 50.7245C21.1053 50.4386 21.1479 50.2737 21.1632 50.1062C21.3193 48.3941 21.4639 46.6808 21.6268 44.9693C21.721 43.9799 22.3707 43.3761 23.2486 43.4265C24.0268 43.4711 24.5801 44.1649 24.5734 45.0973C24.5721 45.2964 24.5487 45.4956 24.5305 45.6942C24.2906 48.2987 24.0453 50.9027 23.8167 53.5082C23.7939 53.7673 23.7804 54.11 23.9172 54.2878C25.0998 55.8245 26.318 57.3322 27.5997 58.9418C27.6413 58.6895 27.6682 58.5722 27.6793 58.4532C27.846 56.6668 27.9953 54.8783 28.1825 53.0941C28.265 52.3095 28.972 51.7228 29.6944 51.7594C30.4141 51.7959 31.0051 52.3781 31.078 53.1532C31.1033 53.4229 31.0823 53.7002 31.0578 53.9716C30.8245 56.5519 30.5796 59.1311 30.3584 61.7125C30.3348 61.9884 30.35 62.3526 30.5023 62.5465C32.0864 64.5643 33.7023 66.5556 35.4549 68.7352ZM48.0407 0.258398C49.1078 2.43964 50.2941 4.56872 51.2172 6.81253C53.2493 11.7516 54.7235 16.8698 55.4804 22.1952C56.2239 27.4266 56.2646 32.6337 54.9725 37.7827C53.5276 43.5408 50.5932 48.3384 46.0799 52.091C44.0684 53.7635 41.9127 55.1959 39.5782 56.3362C39.0556 56.5914 38.8374 56.8602 38.9251 57.5242C39.588 62.5446 39.1507 67.4712 37.627 72.2947C37.4103 72.9804 37.0293 73.3938 36.3216 73.5238C32.2555 74.2712 28.2262 74.1622 24.2344 73.0241C24.0517 72.9719 23.8538 72.9759 23.6631 72.9537C22.4764 72.5049 21.2897 72.0561 20.103 71.6074C19.1616 71.054 18.208 70.521 17.2807 69.9435C13.7373 67.7366 10.8941 64.7765 8.5781 61.2658C5.18107 56.1166 3.21741 50.3636 1.90651 44.3415C0.816206 39.3329 0.279272 34.2499 0.00534687 29.1328C-0.072075 27.6877 0.694867 26.9522 2.07378 27.2398C6.60202 28.184 11.0306 29.4568 15.2949 31.3341C18.7982 32.8763 22.1538 34.6887 25.4226 36.7966C25.5403 35.3219 25.6068 33.9131 25.7734 32.5169C26.1678 29.2154 27.1417 26.0762 28.4908 23.0682C32.4219 14.3041 38.6307 7.39363 45.4955 1.0228C46.038 0.519423 46.5653 0.0124161 47.3562 -0.000497346C47.5843 0.0857594 47.8125 0.172142 48.0407 0.258398Z" fill="white"/>
</g>
<defs>
<clipPath id="clip0_847_26">
<rect width="56" height="74" fill="white"/>
</clipPath>
</defs>
</svg>
