<svg width="72" height="69" viewBox="0 0 72 69" fill="none" xmlns="http://www.w3.org/2000/svg">
<g clip-path="url(#clip0_847_12)">
<path d="M16.32 43.9132C16.9304 43.778 17.5439 43.656 18.1498 43.5032C18.5407 43.4046 18.6253 43.1744 18.4888 42.7646C17.6166 40.1468 14.5645 38.7133 12.0528 39.7514C11.6684 39.9102 11.5907 40.1158 11.7179 40.5056C12.3479 42.4376 14.2356 43.8159 16.32 43.9132ZM27.2781 19.1981C31.7356 19.6087 35.4999 18.3964 38.5943 15.3829C41.6758 12.3819 43.0637 8.64722 42.7344 4.34648C42.5532 1.97964 42.8616 2.35796 40.6605 2.16953C34.6248 1.65251 29.1625 5.02126 26.7857 10.5881C25.8378 12.8084 25.5436 15.1256 25.8041 17.7481C26.7719 16.7541 27.6335 15.9049 28.4455 15.0103C28.6538 14.7807 28.804 14.4102 28.8125 14.0998C28.8508 12.688 28.826 11.2746 28.8299 9.86187C28.8322 9.03826 29.2221 8.54458 29.8632 8.53493C30.5004 8.52527 30.9259 9.03569 30.9328 9.83779C30.9399 10.6748 30.9343 11.5119 30.9343 12.5863C31.7834 11.7123 32.5036 11.0177 33.1615 10.2681C33.3813 10.0174 33.5474 9.62908 33.5573 9.29817C33.6008 7.83962 33.5617 6.37863 33.5861 4.91922C33.6003 4.07166 34.2806 3.57798 34.9985 3.86393C35.5328 4.07679 35.6765 4.54077 35.6784 5.06854C35.6815 5.90181 35.6792 6.73508 35.6792 7.71816C35.9105 7.51164 36.0139 7.42806 36.1074 7.33446C36.788 6.65333 37.4575 5.96047 38.1493 5.29107C38.6127 4.84285 39.2564 4.82428 39.6639 5.2081C40.0963 5.61502 40.0895 6.27586 39.6297 6.78261C39.3616 7.07796 39.0679 7.34985 38.7879 7.63433C38.2893 8.14047 37.7923 8.6482 37.1395 9.3132C38.2995 9.3132 39.2347 9.25076 40.1535 9.34668C40.4805 9.38078 40.9369 9.74993 41.0261 10.0565C41.1174 10.3709 40.9226 10.8787 40.6819 11.1462C40.4915 11.3578 40.0435 11.3956 39.7072 11.4038C38.5363 11.4323 37.3598 11.4761 36.194 11.3937C35.3381 11.3332 34.728 11.6017 34.1852 12.2385C33.6838 12.8264 33.1092 13.3511 32.4492 14.0234C33.4301 14.0234 34.2018 14.0193 34.9735 14.0245C35.8907 14.0308 36.4159 14.4341 36.4078 15.1149C36.4 15.7685 35.8981 16.1395 35.0076 16.1407C33.625 16.1427 32.2425 16.1337 30.86 16.146C30.6381 16.148 30.3473 16.1626 30.2065 16.2968C29.2473 17.2106 28.3195 18.158 27.2781 19.1981ZM18.9535 29.259C19.0631 29.2271 19.1728 29.1951 19.2825 29.1632C19.1886 27.8603 19.1919 26.5416 18.9849 25.2572C17.7684 17.7055 10.363 12.5377 2.91713 13.9835C2.55607 14.0536 2.41404 14.1789 2.34314 14.5401C1.9743 16.4172 2.02136 18.2868 2.45733 20.1371C3.88245 26.1844 8.73934 30.3937 14.8999 30.9186C15.7487 30.9909 16.6088 30.9286 17.4637 30.9286C17.4966 30.8461 17.5294 30.7635 17.5623 30.681C16.7077 29.8519 15.8703 29.0035 14.9868 28.2069C14.7559 27.9987 14.384 27.8553 14.0723 27.8464C12.7146 27.8075 11.3552 27.8313 9.9964 27.827C9.78711 27.8264 9.57089 27.8271 9.36976 27.778C8.78908 27.6366 8.49539 27.2569 8.54829 26.6487C8.59876 26.0665 8.94413 25.7484 9.51094 25.7277C10.283 25.6995 11.0567 25.7186 11.8298 25.7099C11.9934 25.7081 12.1568 25.6737 12.5499 25.6271C11.6877 24.8014 10.9989 24.0964 10.2559 23.4551C10.002 23.2361 9.61479 23.0724 9.28329 23.0624C7.87897 23.0202 6.47257 23.0487 5.06691 23.0449C4.25311 23.0427 3.78893 22.6476 3.7938 21.9775C3.79854 21.3088 4.25432 20.9375 5.09512 20.9315C5.92485 20.9255 6.75458 20.9302 7.72246 20.9302C7.45796 20.6446 7.30765 20.4737 7.14847 20.312C6.50614 19.6592 5.83778 19.0305 5.22378 18.352C4.63617 17.7029 4.92803 16.725 5.76737 16.626C6.11711 16.5848 6.59114 16.8088 6.86476 17.0666C7.63794 17.7953 8.3367 18.6039 9.06476 19.3809C9.13213 19.3333 9.1995 19.2856 9.26675 19.2378C9.26675 18.3515 9.27539 17.4651 9.26359 16.5789C9.25654 16.0401 9.49197 15.6738 9.98582 15.4921C10.6993 15.2296 11.3583 15.7946 11.3686 16.6998C11.385 18.1356 11.3713 19.5718 11.3785 21.0077C11.3796 21.2133 11.3501 21.4888 11.4636 21.6129C12.2279 22.4472 13.0269 23.2496 13.8146 24.0623C13.9795 23.6815 13.9763 23.4046 13.9801 23.1279C13.9894 22.4697 13.9714 21.8091 14.0225 21.1541C14.0693 20.5554 14.4302 20.21 15.0453 20.221C15.6487 20.2319 15.9948 20.5599 16.0577 21.169C16.077 21.3558 16.0865 21.5444 16.0864 21.7323C16.0858 23.0739 16.0691 24.4158 16.0894 25.7572C16.0934 26.0172 16.1647 26.3424 16.3295 26.5228C17.182 27.4554 18.0748 28.3507 18.9535 29.259ZM0 15.6975C0.154928 14.8699 0.303776 14.041 0.467216 13.215C0.581528 12.6366 0.893695 12.2958 1.50721 12.1357C10.1232 9.88778 19.0513 15.4077 20.9451 24.1757C21.4381 26.4585 21.4652 28.742 20.9676 31.0314C20.8689 31.4854 20.8245 31.9606 20.824 32.426C20.8152 39.9386 20.8177 47.4513 20.8175 54.9639C20.8175 55.198 20.8175 55.4321 20.8175 55.7335H24.0664C24.0664 55.4687 24.0664 55.1967 24.0664 54.9246C24.0661 43.5262 24.0817 32.1277 24.0453 20.7293C24.0406 19.2835 23.6593 17.8408 23.6301 16.393C23.4612 8.00642 29.3233 1.21395 37.6114 0.123461C39.4892 -0.123622 41.3426 0.0114052 43.1907 0.415635C43.9219 0.575469 44.2954 0.932285 44.4728 1.68282C46.5921 10.6437 40.7823 19.6313 31.7627 21.1458C30.1044 21.4243 28.3653 21.2169 26.6635 21.2334C26.5264 21.2348 26.3895 21.2336 26.2117 21.2336V55.801C26.4933 55.801 26.7424 55.801 26.9913 55.801C34.1865 55.8006 41.3817 55.8002 48.5767 55.7993C50.0387 55.7992 50.2432 56.0043 50.242 57.4617C50.2403 59.5578 50.2514 61.6538 50.2386 63.7497C50.2194 66.8957 48.1646 68.9736 45.0459 68.977C36.9133 68.9863 28.7807 68.9803 20.6481 68.9797C20.4841 68.9797 20.2663 69.0377 20.1662 68.9552C19.8464 68.6919 19.3783 68.4023 19.3317 68.071C19.2858 67.7445 19.6169 67.2793 19.9096 67.0189C20.111 66.8396 20.5288 66.8683 20.85 66.868C28.8654 66.861 36.8811 66.828 44.896 66.89C46.6355 66.9034 48.2414 65.7351 48.1522 63.606C48.0745 61.7508 48.136 59.8898 48.136 57.974H11.0996C11.0781 58.1372 11.0351 58.3145 11.0346 58.4918C11.0297 60.2346 11.0167 61.9775 11.036 63.72C11.0585 65.7425 12.1855 66.8528 14.1881 66.8637C14.7974 66.867 15.4075 66.8461 16.0159 66.8701C16.7174 66.8976 17.1669 67.3461 17.1506 67.9549C17.1342 68.5686 16.6842 68.9863 15.9682 68.9708C14.8714 68.947 13.752 69.004 12.6843 68.8022C10.6862 68.4247 9.08349 66.5787 9.0008 64.5275C8.89828 61.9884 8.93294 59.4429 8.94413 56.9002C8.94753 56.1202 9.33911 55.8068 10.1868 55.8037C12.7415 55.7947 15.2961 55.8003 17.8507 55.8003C18.104 55.8003 18.3574 55.8003 18.6612 55.8003V45.7053C17.8245 45.7848 16.9946 45.9348 16.1656 45.9297C12.8441 45.9094 9.92806 43.3365 9.4381 40.0483C9.29351 39.0775 9.4364 38.7864 10.3106 38.2714C12.7553 36.8317 15.8522 37.0233 18.0967 38.7528C18.2601 38.8788 18.4255 39.0024 18.6596 39.18V32.9075C17.7448 32.9632 16.8236 33.0671 15.9023 33.068C8.1735 33.0758 1.55925 27.4634 0.258173 19.818C0.184357 19.3845 0.0865847 18.9551 0 18.5237V15.6975Z" fill="white"/>
<path d="M47.2314 14.9806C46.1831 15.0729 45.5435 15.4098 45.1963 16.1673C44.8213 16.9856 44.9776 17.7488 45.5947 18.3735C48.3836 21.1966 51.1782 24.0139 53.9932 26.8106C54.8291 27.641 55.9853 27.6158 56.762 26.8388C57.554 26.0462 57.5545 24.8529 56.7121 24.0006C53.9562 21.2121 51.1951 18.4283 48.4063 15.6731C48.0463 15.3175 47.5114 15.1407 47.2314 14.9806ZM44.5828 20.4984C44.4883 20.5792 44.3581 20.6756 44.245 20.7891C40.866 24.1815 37.4842 27.571 34.1131 30.9711C32.5525 32.5453 32.0756 34.4087 32.7737 36.5299C32.9703 37.1271 32.8395 37.5773 32.4154 37.9936C31.9799 38.4209 31.5449 38.8493 31.1266 39.2934C30.4945 39.9643 30.4836 40.8475 31.0829 41.4268C31.6964 42.02 32.5364 41.9941 33.2092 41.3468C33.6656 40.9077 34.0644 40.3933 34.5706 40.0263C34.8877 39.7965 35.4156 39.5891 35.7471 39.6946C38.1041 40.444 40.0458 39.8467 41.7473 38.1043C44.1409 35.6534 46.5766 33.2441 48.9925 30.8152C49.9789 29.8235 50.9604 28.8268 51.911 27.866C49.4322 25.3739 47.0194 22.948 44.5828 20.4984ZM72.0003 8.63209C71.6517 9.94864 71.2704 11.2604 70.3287 12.2917C69.4897 13.2102 68.6108 14.0938 67.7183 14.9603C67.2435 15.4214 66.6231 15.3771 66.2187 14.9336C65.8197 14.4957 65.8383 13.9031 66.3031 13.4204C66.9711 12.7268 67.6761 12.069 68.3359 11.3678C69.9218 9.68225 70.3266 7.48551 69.4423 5.50444C68.5667 3.54305 66.6079 2.32645 64.4257 2.41957C63.2415 2.47016 62.1384 2.85826 61.3034 3.69164C57.6806 7.30734 54.0985 10.9643 50.5398 14.5677C52.946 16.9716 55.3772 19.4003 57.9408 21.9613C58.7094 21.1471 59.5659 20.2212 60.443 19.3156C61.309 18.4216 62.1915 17.5436 63.075 16.6668C63.6962 16.0505 64.2406 15.9951 64.725 16.4761C65.1913 16.9393 65.1403 17.5667 64.5623 18.1502C62.8594 19.869 61.1552 21.5866 59.4356 23.2886C59.1709 23.5506 59.0877 23.767 59.2133 24.1345C59.7504 25.7058 59.4112 27.1179 58.2745 28.2921C57.1318 29.4726 55.7178 29.8166 54.1535 29.3193C53.7228 29.1824 53.4854 29.2679 53.1876 29.5688C49.8334 32.9584 46.4574 36.3264 43.1057 39.7185C41.1844 41.6629 38.913 42.4906 36.216 41.9683C35.7394 41.8759 35.4736 42.0426 35.1937 42.3521C34.369 43.264 33.445 43.9876 32.1278 43.9612C30.6285 43.9314 29.5093 43.2534 28.8789 41.8993C28.2488 40.5459 28.3585 39.1573 29.4013 38.0918C30.2324 37.2428 30.5764 36.4806 30.4244 35.2358C30.1429 32.9286 31.099 30.9834 32.7359 29.3519C36.1133 25.986 39.4645 22.5935 42.8398 19.2255C43.1592 18.9068 43.2445 18.6579 43.0999 18.1978C42.6145 16.652 42.9664 15.2496 44.1037 14.1108C45.2373 12.9757 46.6261 12.6042 48.1659 13.1051C48.6195 13.2526 48.8685 13.1714 49.1856 12.8507C52.5548 9.44335 55.9394 6.05115 59.3191 2.65418C61.4158 0.546765 63.9214 -0.240431 66.7668 0.619595C69.63 1.485 71.3509 3.49478 71.892 6.48043C71.9034 6.54275 71.9632 6.59628 72.0003 6.65383V8.63209Z" fill="white"/>
<path d="M31.521 47.2809C30.478 48.1964 30.0226 49.2394 30.0739 50.4964C30.1094 51.3648 30.6276 51.8805 31.4858 51.9015C32.3898 51.9236 33.0019 51.4234 33.0333 50.555C33.0811 49.234 32.5591 48.1589 31.521 47.2809ZM27.9657 50.2209C28.0596 48.0823 28.9464 46.3704 30.7582 45.2209C31.0754 45.0195 31.6445 44.9493 31.9811 45.0931C34.0009 45.9555 35.5119 48.9168 35.1067 51.0699C34.7327 53.0573 33.177 54.182 31.0556 53.9986C29.2843 53.8456 28.0174 52.4125 27.966 50.5032C27.9636 50.4091 27.9657 50.315 27.9657 50.2209Z" fill="white"/>
</g>
<defs>
<clipPath id="clip0_847_12">
<rect width="72" height="69" fill="white"/>
</clipPath>
</defs>
</svg>
