<svg width="554" height="692" viewBox="0 0 554 692" fill="none" xmlns="http://www.w3.org/2000/svg">
<g clip-path="url(#clip0_567_461)">
<g clip-path="url(#clip1_567_461)">
<path d="M417.185 28.6709C416.983 28.5626 416.983 28.5626 417.185 28.6709C416.983 28.5626 416.983 28.5626 416.983 28.5626C365.324 4.02308 303.01 10.6595 241.549 47.385C183.424 82.0877 132.43 139.853 97.3696 210.623C51.7824 186.842 3.76622 172.684 -42.7397 169.756C-114.442 165.154 -174.105 187.975 -210.628 233.988C-211.015 234.444 -211.387 234.895 -211.775 235.351C-247.889 281.596 -256.234 344.826 -235.139 413.579C-214.47 480.92 -167.968 545.763 -104.004 596.257C-40.0546 646.755 33.8765 676.916 104.176 681.416C134.781 683.337 163.009 680.302 188.322 672.66C222.591 662.314 251.372 643.498 272.343 616.93C272.343 616.93 272.498 616.883 272.452 616.728L272.56 616.526C280.372 606.615 286.925 595.898 292.23 584.525C364.511 554.643 432.092 485.35 473.745 397.823C508.839 324.299 522.665 245.681 512.686 176.84C502.555 105.81 468.533 53.3041 417.185 28.6709ZM254.834 69.7925C299.168 43.3686 343.473 34.4638 381.945 43.7635C364.773 56.1616 340.3 76.234 317.761 103.275C264.716 167.316 248.645 239.059 271.417 311.066L271.464 311.221C272.987 316.265 274.505 321.294 275.604 326.618C276.604 331.109 277.469 335.657 278.179 340.252C278.481 341.871 278.644 343.532 278.807 345.194C280.852 361.054 280.604 376.725 278.291 392.343C253.561 341.672 214.671 294.074 165.145 255.005C150.504 243.472 135.527 233.074 120.009 223.686C153.098 156.594 200.66 102.269 254.834 69.7925ZM-119.172 203.448C-96.8537 196.711 -71.746 194.109 -44.314 195.785C2.19187 198.714 50.5205 213.962 96.2339 239.789C96.6381 240.005 96.887 240.269 97.2489 240.346C115.035 250.404 132.477 262.124 149.129 275.267C208.819 322.428 252.39 382.669 271.386 445.028C285.396 490.874 284.905 533.562 270.29 568.677C268.908 572.007 267.355 575.388 265.708 578.46C257.648 558.607 243.864 530 222.7 501.91C172.77 435.359 105.922 404.262 29.3411 411.938C-38.2258 418.788 -95.1193 392.222 -139.916 333.029C-166.789 297.416 -181.243 259.748 -186.184 245.118C-169.012 225.879 -146.208 211.61 -119.172 203.448ZM180.37 647.44C104.756 670.268 0.446479 645.163 -87.7863 575.594C-147.477 528.433 -191.037 468.173 -210.043 405.834C-225.384 355.58 -223.278 309.153 -204.241 272.195C-196.197 292.053 -182.413 320.66 -161.238 348.729C-111.303 415.296 -44.4559 446.393 32.1098 438.722C99.6767 431.872 156.566 458.422 201.377 517.611C228.255 553.239 242.704 590.891 247.63 605.526C229.983 625.434 206.925 639.423 180.37 647.44ZM486.664 180.394C495.844 244.345 482.75 317.425 449.871 386.335C415.123 459.263 361.647 518.455 303.393 549.928C310.758 515.817 308.476 477.573 296.218 437.531C295.792 436.119 295.412 434.862 294.986 433.45C305.508 403.516 308.769 372.862 304.876 341.794C304.662 339.962 304.421 337.986 304.051 336.201C303.201 331.14 302.272 325.764 301.065 320.642C299.618 314.728 298.068 309.032 296.357 303.367C276.268 239.628 289.972 178.218 337.519 120.985C365.927 86.685 398.513 63.9773 411.59 55.5755C451.637 77.4395 478.122 121.416 486.664 180.394Z" fill="#668B00" fill-opacity="0.5"/>
</g>
</g>
<defs>
<clipPath id="clip0_567_461">
<rect width="554" height="692" fill="white"/>
</clipPath>
<clipPath id="clip1_567_461">
<rect width="785" height="785" fill="white" transform="translate(-231)"/>
</clipPath>
</defs>
</svg>
