<svg width="1440" height="661" viewBox="0 0 1440 661" fill="none" xmlns="http://www.w3.org/2000/svg">
<g clip-path="url(#clip0_567_398)">
<path d="M50.7509 617.661C16.8904 616.652 -12.8843 616.772 -13.4998 616.754L-11.1814 51.1515L32.8874 50.942C74.7807 50.743 142.977 78.2632 187.192 78.6836C252.224 79.3018 269.613 76.9103 302.5 78.6836C310.286 79.1034 365.551 61.5094 415.5 78.6836C461.5 94.5 506 68.5 570 78.6836C644.212 90.492 706.277 52.9015 735.16 60.0121C811 78.6836 931.928 35.6379 911.5 68.5C900 87 1012.54 59.5597 1050 60.0122C1102.98 60.6521 1155.12 53.5326 1217 68.5C1259.1 78.6836 1314.22 60.834 1354.5 60.0122C1406.83 56.7035 1376.17 60.0122 1408.54 60.0122C1443.5 60.0122 1465.33 46.7338 1469.82 44.1143L1467.09 599.508C1462.65 600.804 1408.54 602.167 1408.54 602.167C1408.54 602.167 1317.97 594.873 1259.1 600.732C1214.25 605.195 1132.64 616.121 1097.3 614.592C1070.72 613.442 1022.06 612.747 996.846 610.871C956.53 607.873 926.784 607.47 912.178 609.083C899.367 610.497 878.158 613.069 856.594 615.726C842.523 617.46 830.075 614.993 770.586 617.848C756.678 618.515 747.174 617.909 735.16 618.956C719.794 620.294 698.471 625.279 652.933 620.097C631.539 617.663 614.381 613.643 579.024 612.125C551.805 610.956 501.336 609.451 475.161 608.303C448.986 607.155 447.161 606.386 432.615 605.595C418.069 604.804 391.601 603.459 377.091 603.95C360.096 604.526 346.768 602.819 330.176 604.716C317.711 606.141 304.11 608.212 293.356 609.386C280.199 610.823 266.409 612.577 254.6 615.092C242.699 617.627 230.183 622.222 187.192 621.372C151.698 620.671 84.6113 618.671 50.7509 617.661Z" fill="white"/>
</g>
<defs>
<clipPath id="clip0_567_398">
<rect width="1440" height="661" fill="white"/>
</clipPath>
</defs>
</svg>
