<svg width="1440" height="532" viewBox="0 0 1440 532" fill="none" xmlns="http://www.w3.org/2000/svg">
<path d="M50.7509 621.316C16.8904 620.306 -12.8843 620.426 -13.4998 620.408L-11.1814 54.8058L32.8874 54.5963C74.7807 54.3973 161.286 0.417586 205.5 0.837912C270.532 1.45617 301.855 59.6608 334.742 61.4341C342.528 61.8539 346.864 63.2679 399.681 63.6665C452.499 64.065 524.735 100.726 579.024 99.8379C654.16 98.6084 718.223 56.4598 747.895 54.3893C794.95 51.1059 873.523 80.6112 912.178 82.3379C947.543 83.9177 1003.74 53.804 1041.19 54.2565C1094.18 54.8964 1129.4 -2.03114 1193 0.837907C1232.18 2.60546 1306.03 57.4493 1346.31 56.6275C1398.64 53.3188 1392.32 85.7866 1424.5 82.3379C1446.46 79.9847 1465.33 50.3881 1469.82 47.7686L1467.09 603.162C1462.65 604.458 1408.54 605.821 1408.54 605.821C1408.54 605.821 1317.97 598.527 1259.1 604.386C1214.25 608.85 1132.64 619.775 1097.3 618.246C1070.72 617.096 1022.06 616.401 996.846 614.526C956.53 611.527 926.784 611.124 912.178 612.737C899.367 614.151 878.158 616.723 856.594 619.38C842.523 621.115 830.075 618.647 770.586 621.502C756.678 622.17 747.174 621.564 735.16 622.61C719.794 623.949 698.471 628.933 652.933 623.752C631.539 621.317 614.381 617.298 579.024 615.779C551.805 614.611 501.336 613.106 475.161 611.957C448.986 610.809 447.161 610.04 432.615 609.249C418.069 608.458 391.601 607.113 377.091 607.605C360.096 608.18 346.768 606.474 330.176 608.37C317.711 609.795 304.11 611.866 293.356 613.041C280.199 614.477 266.409 616.231 254.6 618.747C242.699 621.281 230.183 625.876 187.192 625.027C151.698 624.326 84.6113 622.325 50.7509 621.316Z" fill="#00B3BD"/>
</svg>
