<svg xmlns="http://www.w3.org/2000/svg" viewBox="0 0 33.67 68.25"><defs><style>.cls-1{fill:#df2e4e;}</style></defs><g id="Capa_1" data-name="Capa 1"><rect class="cls-1" x="13.26" y="54.64" width="9.62" height="9.62" rx="1.06" transform="translate(-36.74 30.18) rotate(-44.99)"/><path class="cls-1" d="M11.53,41.11v8.42h-.77V45.7H10v2.85H6.7v-.76h1V42.85h-1v-.76H10v2.85h.81V41.11ZM9.16,42.85H8.51v4.94h.65Zm2.87-.6h2v5.44h.65V42.1h.79v6.36h-2.2V43H12.8v5.45H12Z"/><path class="cls-1" d="M15.54,31.25V32H11.28v1.24H15V34H6.93v-.76h3.58V32H6.44v-.76ZM7.85,35.11a9,9,0,0,1,3.88,1.19A7.4,7.4,0,0,1,14.11,39a2.72,2.72,0,0,0-.65.54,6,6,0,0,0-3-3l.39,2.53-.79.26-.27-3a6.16,6.16,0,0,0-1.18-.25v3.08H7.85Z"/><path class="cls-1" d="M11.74,22H6.44v-.74h5.3Zm-4.55,7v-.77h2.94A35.06,35.06,0,0,0,9.61,23h.81A36.55,36.55,0,0,1,11,28.94Zm8.27-7H13v5.78h-.78V21.25h3.25Z"/><path class="cls-1" d="M10.2,8.19V9.78h3v.76H6.45V9.78h3V8.19Zm-3.09,5.3a3.5,3.5,0,0,0,.68.19l.56.12A3.6,3.6,0,0,0,9.67,13a7.16,7.16,0,0,0,1.76-1.84,1.4,1.4,0,0,0,.62.71A9.77,9.77,0,0,1,9.4,14.22a6.9,6.9,0,0,1,2.77,2.09,1.92,1.92,0,0,0-.7.65A4.34,4.34,0,0,0,9.9,15.35a4.43,4.43,0,0,0-2.59-.83l-.31,0ZM15.3,9.76v5.89h-3v-.78h2.25V9.76Z"/><path class="cls-1" d="M23.38,41v1.59h4.16v.76h-9.1v-.76h4.18V41Zm-3.53,4h6.29v4.11H19.85Zm.8,3.35h4.68V45.7H20.65Z"/><path class="cls-1" d="M24.16,38.48h-2.7V33.15H20.35v5.33h-.8V32.36h2.69v5.33h1.12V32.11h.8Zm2.27-7.59v8.86h-.79V30.89Z"/><path class="cls-1" d="M19.6,22.1a23.71,23.71,0,0,1,5.41.6c0,.15,0,.45-.07.9a16.41,16.41,0,0,0-2.17-.42q.45,4.07.48,5.25l-.95.19c0-1.29-.08-3.13-.27-5.53A11.86,11.86,0,0,0,20.4,23v5.43h-.8Zm7-1.21V29.7h-.79v-4H23.68V25h2.16V20.89Z"/><path class="cls-1" d="M20.67,15.08a5.26,5.26,0,0,0,1.61-1.6,6.77,6.77,0,0,0,1.07-2.27,2.39,2.39,0,0,0,.8.61,9.4,9.4,0,0,1-1.12,2,7.39,7.39,0,0,1-1.48,1.58,6.93,6.93,0,0,1,2.69,3.4,2.11,2.11,0,0,0-.65.55,6.05,6.05,0,0,0-1.71-2.67,3.67,3.67,0,0,0-2.44-1l.19-1.09A4.58,4.58,0,0,0,20.67,15.08Zm5.67-4.19v8.86h-.8V10.89Z"/></g></svg>