<svg xmlns="http://www.w3.org/2000/svg" width="721.85" height="543.313" viewBox="0 0 721.85 543.313"><defs><clipPath id="e" clipPathUnits="userSpaceOnUse"><path d="M-.003 13.71h27.42v-27.42H-.003z"/></clipPath><clipPath id="d" clipPathUnits="userSpaceOnUse"><use href="#a"/></clipPath><clipPath id="g" clipPathUnits="userSpaceOnUse"><path d="M-1376.782 1009.634h1920v-1080h-1920Z"/></clipPath><clipPath id="h" clipPathUnits="userSpaceOnUse"><path d="M-1389.868 1004.718h1920v-1080h-1920Z"/></clipPath><clipPath id="i" clipPathUnits="userSpaceOnUse"><path d="M-1414.308 1006.56h1920v-1080h-1920Z"/></clipPath><clipPath id="j" clipPathUnits="userSpaceOnUse"><path d="M-1432.041 1005.295h1920v-1080h-1920Z"/></clipPath><clipPath id="k" clipPathUnits="userSpaceOnUse"><path d="M-1440.086 1001.339h1920v-1080h-1920Z"/></clipPath><clipPath id="l" clipPathUnits="userSpaceOnUse"><path d="M-1456.297 1006.56h1920v-1080h-1920Z"/></clipPath><clipPath id="m" clipPathUnits="userSpaceOnUse"><path d="M-1461.182 1008.94h1920v-1080h-1920Z"/></clipPath><clipPath id="n" clipPathUnits="userSpaceOnUse"><path d="M-1476.972 1006.56h1920v-1080h-1920Z"/></clipPath><clipPath id="p" clipPathUnits="userSpaceOnUse"><path d="M-1480.678 1006.56h1920v-1080h-1920Z"/></clipPath><clipPath id="q" clipPathUnits="userSpaceOnUse"><path d="M-1500.983 1006.56h1920v-1080h-1920Z"/></clipPath><clipPath id="r" clipPathUnits="userSpaceOnUse"><use href="#b"/></clipPath><clipPath id="s" clipPathUnits="userSpaceOnUse"><path d="M-1385.545 604.432h1920v-1080h-1920Z"/></clipPath><clipPath id="u" clipPathUnits="userSpaceOnUse"><path d="M-1398.39 608.091h1920v-1080h-1920Z"/></clipPath><clipPath id="w" clipPathUnits="userSpaceOnUse"><path d="M-1412.821 614.63h1920v-1080h-1920Z"/></clipPath><clipPath id="x" clipPathUnits="userSpaceOnUse"><path d="M-1425.907 612.773h1920v-1080h-1920Z"/></clipPath><clipPath id="y" clipPathUnits="userSpaceOnUse"><path d="M-1430.812 608.091h1920v-1080h-1920Z"/></clipPath><clipPath id="z" clipPathUnits="userSpaceOnUse"><path d="M-1445.24 614.63h1920v-1080h-1920Z"/></clipPath><clipPath id="A" clipPathUnits="userSpaceOnUse"><path d="M-1449.969 608.091h1920v-1080h-1920Z"/></clipPath><clipPath id="B" clipPathUnits="userSpaceOnUse"><path d="M-1461.635 613.312h1920v-1080h-1920Z"/></clipPath><clipPath id="C" clipPathUnits="userSpaceOnUse"><path d="M-1480.96 612.691h1920v-1080h-1920Z"/></clipPath><clipPath id="D" clipPathUnits="userSpaceOnUse"><path d="M-1431.436 633.136h1920v-1080h-1920Z"/></clipPath><clipPath id="F" clipPathUnits="userSpaceOnUse"><path d="M-.001 13.71h27.42v-27.42H-.001Z"/></clipPath><clipPath id="E" clipPathUnits="userSpaceOnUse"><use href="#a"/></clipPath><clipPath id="G" clipPathUnits="userSpaceOnUse"><path d="M-1561.603 713.124h1920v-1080h-1920Z"/></clipPath><clipPath id="I" clipPathUnits="userSpaceOnUse"><path d="M.003 13.71h27.42v-27.42H.003z"/></clipPath><clipPath id="H" clipPathUnits="userSpaceOnUse"><use href="#a"/></clipPath><clipPath id="J" clipPathUnits="userSpaceOnUse"><path d="M-1591.216 840.208h1920v-1080h-1920Z"/></clipPath><clipPath id="L" clipPathUnits="userSpaceOnUse"><path d="M.003 13.709h27.42v-27.42H.003z"/></clipPath><clipPath id="K" clipPathUnits="userSpaceOnUse"><use href="#a"/></clipPath><clipPath id="M" clipPathUnits="userSpaceOnUse"><path d="M-1509.484 952.935h1920v-1080h-1920Z"/></clipPath><clipPath id="O" clipPathUnits="userSpaceOnUse"><path d="M-.003 13.709h27.42v-27.42H-.003z"/></clipPath><clipPath id="N" clipPathUnits="userSpaceOnUse"><use href="#a"/></clipPath><clipPath id="P" clipPathUnits="userSpaceOnUse"><path d="M-1351.792 955.592h1920v-1080h-1920Z"/></clipPath><clipPath id="R" clipPathUnits="userSpaceOnUse"><use href="#c"/></clipPath><clipPath id="Q" clipPathUnits="userSpaceOnUse"><use href="#a"/></clipPath><clipPath id="S" clipPathUnits="userSpaceOnUse"><path d="M-1273.98 838.11h1920v-1080h-1920Z"/></clipPath><clipPath id="U" clipPathUnits="userSpaceOnUse"><use href="#c"/></clipPath><clipPath id="T" clipPathUnits="userSpaceOnUse"><use href="#a"/></clipPath><clipPath id="V" clipPathUnits="userSpaceOnUse"><path d="M-1299.748 701.786h1920v-1080h-1920Z"/></clipPath><clipPath id="W" clipPathUnits="userSpaceOnUse"><path d="M-1589.492 699.129h1920v-1080h-1920Z"/></clipPath><clipPath id="X" clipPathUnits="userSpaceOnUse"><use href="#b"/></clipPath><clipPath id="Y" clipPathUnits="userSpaceOnUse"><path d="M-1614.427 709.327h1920v-1080h-1920Z"/></clipPath><clipPath id="Z" clipPathUnits="userSpaceOnUse"><path d="M-1617.736 702.788h1920v-1080h-1920Z"/></clipPath><clipPath id="aa" clipPathUnits="userSpaceOnUse"><path d="M-1638.442 708.009h1920v-1080h-1920Z"/></clipPath><clipPath id="ab" clipPathUnits="userSpaceOnUse"><path d="M-1642.789 702.788h1920v-1080h-1920Z"/></clipPath><clipPath id="ac" clipPathUnits="userSpaceOnUse"><path d="M-1541.026 951.238h1920v-1080h-1920Z"/></clipPath><clipPath id="ad" clipPathUnits="userSpaceOnUse"><path d="M-1546.332 951.238h1920v-1080h-1920Z"/></clipPath><clipPath id="ae" clipPathUnits="userSpaceOnUse"><use href="#b"/></clipPath><clipPath id="af" clipPathUnits="userSpaceOnUse"><path d="M-1571.99 951.195h1920v-1080h-1920Z"/></clipPath><clipPath id="ag" clipPathUnits="userSpaceOnUse"><use href="#b"/></clipPath><clipPath id="ah" clipPathUnits="userSpaceOnUse"><path d="M-1582.687 953.618h1920v-1080h-1920Z"/></clipPath><clipPath id="ai" clipPathUnits="userSpaceOnUse"><path d="M-1597.954 946.017h1920v-1080h-1920Z"/></clipPath><clipPath id="aj" clipPathUnits="userSpaceOnUse"><path d="M-1236.197 942.358h1920v-1080h-1920Z"/></clipPath><clipPath id="ak" clipPathUnits="userSpaceOnUse"><path d="M-1261.831 951.238h1920v-1080h-1920Z"/></clipPath><clipPath id="al" clipPathUnits="userSpaceOnUse"><path d="M-1266.018 952.436h1920v-1080h-1920Z"/></clipPath><clipPath id="am" clipPathUnits="userSpaceOnUse"><path d="M-1279.026 953.618h1920v-1080h-1920Z"/></clipPath><clipPath id="an" clipPathUnits="userSpaceOnUse"><path d="M-1286.556 941.757h1920v-1080h-1920Z"/></clipPath><clipPath id="ao" clipPathUnits="userSpaceOnUse"><path d="M-1299.443 947.379h1920v-1080h-1920Z"/></clipPath><clipPath id="ap" clipPathUnits="userSpaceOnUse"><path d="M-1313.571 950.617h1920v-1080h-1920Z"/></clipPath><clipPath id="aq" clipPathUnits="userSpaceOnUse"><path d="M-1325.397 950.617h1920v-1080h-1920Z"/></clipPath><clipPath id="ar" clipPathUnits="userSpaceOnUse"><use href="#b"/></clipPath><clipPath id="as" clipPathUnits="userSpaceOnUse"><path d="M-1182.502 837.29h1920v-1080h-1920Z"/></clipPath><clipPath id="at" clipPathUnits="userSpaceOnUse"><path d="M-1193.806 837.454h1920v-1080h-1920Z"/></clipPath><clipPath id="au" clipPathUnits="userSpaceOnUse"><use href="#b"/></clipPath><clipPath id="av" clipPathUnits="userSpaceOnUse"><path d="M-1210.626 837.454h1920v-1080h-1920Z"/></clipPath><clipPath id="aw" clipPathUnits="userSpaceOnUse"><path d="M-1215.355 830.915h1920v-1080h-1920Z"/></clipPath><clipPath id="ax" clipPathUnits="userSpaceOnUse"><path d="M-1227.02 836.131h1920v-1080h-1920Z"/></clipPath><clipPath id="ay" clipPathUnits="userSpaceOnUse"><path d="M-1246.345 835.51h1920v-1080h-1920Z"/></clipPath><clipPath id="az" clipPathUnits="userSpaceOnUse"><path d="M-1215.955 706.167h1920v-1080h-1920Z"/></clipPath><clipPath id="aA" clipPathUnits="userSpaceOnUse"><path d="M-1219.639 702.788h1920v-1080h-1920Z"/></clipPath><clipPath id="aB" clipPathUnits="userSpaceOnUse"><path d="M-1239.361 707.388h1920v-1080h-1920Z"/></clipPath><clipPath id="aC" clipPathUnits="userSpaceOnUse"><path d="M-1243.61 702.788h1920v-1080h-1920Z"/></clipPath><clipPath id="aD" clipPathUnits="userSpaceOnUse"><path d="M-1258.039 709.327h1920v-1080h-1920Z"/></clipPath><clipPath id="aE" clipPathUnits="userSpaceOnUse"><use href="#b"/></clipPath><clipPath id="aF" clipPathUnits="userSpaceOnUse"><use href="#b"/></clipPath><clipPath id="aG" clipPathUnits="userSpaceOnUse"><path d="M-1626.838 836.131h1920v-1080h-1920Z"/></clipPath><clipPath id="aH" clipPathUnits="userSpaceOnUse"><path d="M-1633.464 832.273h1920v-1080h-1920Z"/></clipPath><clipPath id="aI" clipPathUnits="userSpaceOnUse"><path d="M-1640.752 838.511h1920v-1080h-1920Z"/></clipPath><clipPath id="aJ" clipPathUnits="userSpaceOnUse"><path d="M-1655.563 835.51h1920v-1080h-1920Z"/></clipPath><clipPath id="aK" clipPathUnits="userSpaceOnUse"><path d="M-1659.808 830.915h1920v-1080h-1920Z"/></clipPath><clipPath id="aL" clipPathUnits="userSpaceOnUse"><path d="M-1668.438 838.511h1920v-1080h-1920Z"/></clipPath><clipPath id="aM" clipPathUnits="userSpaceOnUse"><path d="M-1682.808 837.45h1920v-1080h-1920Z"/></clipPath><clipPath id="aN" clipPathUnits="userSpaceOnUse"><path d="M-1686.679 839.931h1920v-1080h-1920Z"/></clipPath><clipPath id="aO" clipPathUnits="userSpaceOnUse"><path d="M-1697.825 838.511h1920v-1080h-1920Z"/></clipPath><clipPath id="aP" clipPathUnits="userSpaceOnUse"><path d="M-1712.632 835.51h1920v-1080h-1920Z"/></clipPath><clipPath id="aQ" clipPathUnits="userSpaceOnUse"><use href="#b"/></clipPath><clipPath id="aR" clipPathUnits="userSpaceOnUse"><path d="M-1433.804 806.623h1920v-1080h-1920Z"/></clipPath><clipPath id="aS" clipPathUnits="userSpaceOnUse"><path d="M-1574.182 839.237h1920v-1080h-1920Z"/></clipPath><clipPath id="aT" clipPathUnits="userSpaceOnUse"><path d="M-1495.142 932.549h1920v-1080h-1920Z"/></clipPath><clipPath id="aU" clipPathUnits="userSpaceOnUse"><path d="M-1371.233 932.549h1920v-1080h-1920Z"/></clipPath><clipPath id="aV" clipPathUnits="userSpaceOnUse"><path d="M-1293.528 835.464h1920v-1080h-1920Z"/></clipPath><clipPath id="aW" clipPathUnits="userSpaceOnUse"><path d="M-1432.564 806.623h1920v-1080h-1920Z"/></clipPath><clipPath id="aX" clipPathUnits="userSpaceOnUse"><path d="M-1371.756 928.136h1920v-1080h-1920Z"/></clipPath><clipPath id="aY" clipPathUnits="userSpaceOnUse"><path d="M-1383.043 905.272h1920v-1080h-1920Z"/></clipPath><clipPath id="aZ" clipPathUnits="userSpaceOnUse"><path d="M-1395.794 879.12h1920v-1080h-1920Z"/></clipPath><clipPath id="ba" clipPathUnits="userSpaceOnUse"><path d="M-1409.2 853.95h1920v-1080h-1920Z"/></clipPath><clipPath id="bb" clipPathUnits="userSpaceOnUse"><path d="M-1421.284 827.786h1920v-1080h-1920Z"/></clipPath><clipPath id="bc" clipPathUnits="userSpaceOnUse"><use href="#b"/></clipPath><clipPath id="bd" clipPathUnits="userSpaceOnUse"><path d="M-1425.58 676.335h1920v-1080h-1920Z"/></clipPath><clipPath id="be" clipPathUnits="userSpaceOnUse"><use href="#b"/></clipPath><clipPath id="bf" clipPathUnits="userSpaceOnUse"><path d="M-1430.987 681.368h1920v-1080h-1920Z"/></clipPath><clipPath id="bg" clipPathUnits="userSpaceOnUse"><path d="M-1444.542 678.38h1920v-1080h-1920Z"/></clipPath><clipPath id="bh" clipPathUnits="userSpaceOnUse"><use href="#b"/></clipPath><clipPath id="bi" clipPathUnits="userSpaceOnUse"><path d="M-1426.118 730.197h1920v-1080h-1920Z"/></clipPath><clipPath id="bj" clipPathUnits="userSpaceOnUse"><use href="#b"/></clipPath><clipPath id="bk" clipPathUnits="userSpaceOnUse"><path d="M-1430.183 736.55h1920v-1080h-1920Z"/></clipPath><clipPath id="bl" clipPathUnits="userSpaceOnUse"><path d="M-1443.738 733.56h1920v-1080h-1920Z"/></clipPath><clipPath id="bm" clipPathUnits="userSpaceOnUse"><use href="#b"/></clipPath><clipPath id="bn" clipPathUnits="userSpaceOnUse"><path d="M-1425.619 761.169h1920v-1080h-1920Z"/></clipPath><clipPath id="bo" clipPathUnits="userSpaceOnUse"><use href="#b"/></clipPath><clipPath id="bp" clipPathUnits="userSpaceOnUse"><path d="M-1435.67 764.532h1920v-1080h-1920Z"/></clipPath><clipPath id="bq" clipPathUnits="userSpaceOnUse"><path d="M-1444.237 764.532h1920v-1080h-1920Z"/></clipPath><clipPath id="br" clipPathUnits="userSpaceOnUse"><use href="#b"/></clipPath><clipPath id="bs" clipPathUnits="userSpaceOnUse"><path d="M-1425.814 789.62h1920v-1080h-1920Z"/></clipPath><clipPath id="bt" clipPathUnits="userSpaceOnUse"><use href="#b"/></clipPath><clipPath id="bu" clipPathUnits="userSpaceOnUse"><path d="M-1431.09 791.051h1920v-1080h-1920Z"/></clipPath><clipPath id="bv" clipPathUnits="userSpaceOnUse"><path d="M-1444.643 788.059h1920v-1080h-1920Z"/></clipPath><clipPath id="bw" clipPathUnits="userSpaceOnUse"><use href="#b"/></clipPath><clipPath id="bx" clipPathUnits="userSpaceOnUse"><path d="M-1435.228 806.982h1920v-1080h-1920Z"/></clipPath><clipPath id="by" clipPathUnits="userSpaceOnUse"><use href="#b"/></clipPath><clipPath id="bz" clipPathUnits="userSpaceOnUse"><path d="M-1434.994 699.308h1920v-1080h-1920Z"/></clipPath><clipPath id="bA" clipPathUnits="userSpaceOnUse"><path d="M-1387.862 895.136h1920v-1080h-1920Z"/></clipPath><path id="a" d="M15480 0h2560v1440h-2560Z"/><path id="b" d="M0 1080h1920V0H0Z"/><path id="c" d="M0 13.71h27.42v-27.42H0z"/><path id="f" fill="#ed712a" d="M0 0c0 7.571 6.14 13.709 13.713 13.709 7.563 0 13.706-6.138 13.706-13.709s-6.143-13.71-13.706-13.71C6.14-13.71 0-7.571 0 0"/><path id="o" fill="#1d1d1b" d="M0 0v.039c0 2.224-1.658 4.042-3.839 4.042-2.24 0-3.781-1.818-3.781-3.999V.039c0-2.216 1.643-4.019 3.82-4.019C-1.561-3.98 0-2.158 0 0m-9.196 0v.039c0 2.942 2.259 5.4 5.396 5.4 3.121 0 5.38-2.435 5.38-5.357V.039c0-2.934-2.298-5.396-5.419-5.396-3.098 0-5.357 2.439-5.357 5.357"/><path id="t" fill="#1d1d1b" d="M0 0h10.058v-1.459H1.58v-5.002h7.577v-1.44H1.58v-6.098H0Z"/><path id="v" fill="#1d1d1b" d="M0 0h1.541v-2.7C2.298-.983 3.8.238 5.759.179v-1.662h-.121c-2.259 0-4.097-1.619-4.097-4.736v-4.12H0Z"/><color-profile name="sRGB IEC61966-2.1"/></defs><g transform="translate(-17043.742 -805.909)"><g clip-path="url(#d)" opacity=".2"><use clip-path="url(#e)" href="#f" transform="matrix(1.33333 0 0 -1.33333 17370.39 851.512)"/></g><path fill="#1d1d1b" d="m0 0 .979 1.155C2.438-.183 3.839-.823 5.778-.823c1.9 0 3.122 1.002 3.122 2.38V1.6c0 1.295-.703 2.017-3.641 2.657C2.041 4.955.558 5.993.558 8.295v.039c0 2.181 1.943 3.824 4.6 3.824 2.06 0 3.48-.586 4.92-1.725l-.921-1.217c-1.299 1.061-2.598 1.521-4.038 1.521-1.842 0-2.981-.983-2.981-2.263v-.039c0-1.318.702-2.079 3.8-2.719 3.122-.698 4.561-1.822 4.561-3.96v-.039c0-2.4-2.001-3.957-4.779-3.957C3.48-2.24 1.678-1.522 0 0" clip-path="url(#g)" transform="matrix(1.33333 0 0 -1.33333 17315.709 1346.178)"/><path fill="#1d1d1b" d="M0 0v.039C0 3.999 2.977 7.28 7.078 7.28c2.54 0 4.081-.881 5.458-2.223l-1.081-1.155c-1.198 1.116-2.477 1.919-4.397 1.919-3.098 0-5.419-2.52-5.419-5.743V.039c0-3.238 2.321-5.778 5.419-5.778 1.92 0 3.18.737 4.518 2.017l1.042-1.015c-1.44-1.482-3.082-2.462-5.599-2.462C2.977-7.199 0-4.019 0 0" clip-path="url(#h)" transform="matrix(1.33333 0 0 -1.33333 17333.157 1339.624)"/><path fill="#1d1d1b" d="m0 0-3.18 7.14L-6.379 0Zm-3.898 8.982h1.479L3.96-5.119H2.259L.62-1.42H-7l-1.658-3.699h-1.619z" clip-path="url(#i)" transform="matrix(1.33333 0 0 -1.33333 17365.744 1342.079)"/><path fill="#1d1d1b" d="M0 0c2.321 0 3.839 1.237 3.839 3.074v.043c0 2.002-1.498 3.04-3.757 3.04h-3.539V0Zm-5.037 7.616H.199c3.16 0 5.24-1.678 5.24-4.44v-.039c0-3.02-2.521-4.581-5.498-4.581h-3.398v-4.939h-1.58z" clip-path="url(#j)" transform="matrix(1.33333 0 0 -1.33333 17389.388 1340.393)"/><path fill="#1d1d1b" d="M0 0h1.541v-2.7C2.298-.979 3.8.242 5.759.179v-1.658h-.121c-2.259 0-4.097-1.619-4.097-4.74v-4.12H0Z" clip-path="url(#k)" transform="matrix(1.33333 0 0 -1.33333 17400.115 1335.118)"/><path fill="#1d1d1b" d="M0 0v.039c0 2.224-1.662 4.042-3.839 4.042-2.24 0-3.781-1.818-3.781-3.999V.039c0-2.216 1.639-4.019 3.82-4.019C-1.561-3.98 0-2.158 0 0m-9.2 0v.039c0 2.942 2.259 5.4 5.4 5.4 3.117 0 5.376-2.435 5.376-5.357V.039c0-2.934-2.298-5.396-5.415-5.396C-6.941-5.357-9.2-2.918-9.2 0" clip-path="url(#l)" transform="matrix(1.33333 0 0 -1.33333 17421.73 1342.079)"/><path fill="#1d1d1b" d="M0 0v6.243h-1.44V7.6H0v3.122h1.541V7.6h3.278V6.243H1.541V.203c0-1.28.699-1.721 1.736-1.721.543 0 .96.098 1.503.363v-1.323c-.543-.3-1.12-.44-1.862-.44C1.241-2.918 0-2.099 0 0" clip-path="url(#m)" transform="matrix(1.33333 0 0 -1.33333 17428.243 1345.252)"/><use clip-path="url(#n)" href="#o" transform="matrix(1.33333 0 0 -1.33333 17449.296 1342.079)"/><path fill="#1d1d1b" d="M0 0v.039c0 2.942 2.259 5.4 5.298 5.4 1.959 0 3.161-.796 4.14-1.838L8.42 2.52c-.82.859-1.721 1.561-3.141 1.561-2.099 0-3.699-1.76-3.699-3.999V.039c0-2.24 1.639-4.019 3.8-4.019 1.339 0 2.338.664 3.157 1.545l.983-.92C8.478-4.538 7.238-5.357 5.298-5.357 2.259-5.357 0-2.895 0 0" clip-path="url(#p)" transform="matrix(1.33333 0 0 -1.33333 17454.238 1342.079)"/><use clip-path="url(#q)" href="#o" transform="matrix(1.33333 0 0 -1.33333 17481.311 1342.079)"/><path fill="#1d1d1b" d="M1505.47 82.922h1.541v-14.6h-1.541z" clip-path="url(#r)" transform="matrix(1.33333 0 0 -1.33333 15480 1440)"/><use clip-path="url(#s)" href="#t" transform="matrix(1.33333 0 0 -1.33333 17327.393 805.909)"/><use clip-path="url(#u)" href="#v" transform="matrix(1.33333 0 0 -1.33333 17344.519 810.789)"/><path fill="#1d1d1b" d="M0 0v.999c-.78.218-1.76.441-3.039.441-1.94 0-3.02-.839-3.02-2.142v-.039c0-1.3 1.221-2.06 2.598-2.06C-1.541-2.801 0-1.639 0 0m-7.62-.8v.039c0 2.158 1.799 3.34 4.421 3.34A11 11 0 0 0-.02 2.138v.359c0 1.861-1.139 2.821-3.082 2.821-1.217 0-2.177-.3-3.137-.761l-.46 1.26c1.139.543 2.239.863 3.757.863 1.463 0 2.583-.383 3.34-1.14.702-.702 1.061-1.724 1.061-3.02V-3.8H-.02v1.56c-.721-.94-1.9-1.779-3.741-1.779-1.92 0-3.859 1.077-3.859 3.219" clip-path="url(#w)" transform="matrix(1.33333 0 0 -1.33333 17363.762 819.507)"/><path fill="#1d1d1b" d="M0 0v.039c0 2.122-1.842 3.504-3.8 3.504-1.978 0-3.578-1.362-3.578-3.481V.023c0-2.083 1.658-3.519 3.578-3.519C-1.842-3.496 0-2.076 0 0m-8.478-7.456.698 1.198c1.202-.859 2.482-1.319 3.98-1.319 2.298 0 3.761 1.26 3.761 3.679v1.221C-.94-3.878-2.201-4.858-4.101-4.858c-2.477 0-4.857 1.881-4.857 4.838v.043c0 3.02 2.38 4.877 4.857 4.877 1.94 0 3.18-.959 4.039-2.079v1.861h1.541v-8.541c0-1.599-.461-2.797-1.319-3.656-.94-.944-2.279-1.381-3.941-1.381-1.74 0-3.32.48-4.697 1.44" clip-path="url(#x)" transform="matrix(1.33333 0 0 -1.33333 17381.21 817.031)"/><use clip-path="url(#y)" href="#v" transform="matrix(1.33333 0 0 -1.33333 17387.749 810.789)"/><path fill="#1d1d1b" d="M0 0v.999c-.78.218-1.76.441-3.039.441-1.94 0-3.02-.839-3.02-2.142v-.039c0-1.3 1.221-2.06 2.602-2.06C-1.537-2.801 0-1.639 0 0m-7.616-.8v.039c0 2.158 1.799 3.34 4.417 3.34A10.9 10.9 0 0 0-.02 2.138v.359c0 1.861-1.139 2.821-3.078 2.821-1.221 0-2.181-.3-3.141-.761l-.46 1.26c1.143.543 2.239.863 3.761.863 1.459 0 2.579-.383 3.34-1.14.698-.702 1.057-1.724 1.057-3.02V-3.8H-.02v1.56c-.717-.94-1.9-1.779-3.737-1.779-1.92 0-3.859 1.077-3.859 3.219" clip-path="url(#z)" transform="matrix(1.33333 0 0 -1.33333 17406.987 819.507)"/><path fill="#1d1d1b" d="M0 0h1.541v-1.803C2.24-.679 3.301.218 5.08.218c2.477 0 3.96-1.677 3.96-4.139v-6.418H7.499V-4.3c0 1.92-1.018 3.118-2.86 3.118-1.779 0-3.098-1.299-3.098-3.239v-5.918H0Z" clip-path="url(#A)" transform="matrix(1.33333 0 0 -1.33333 17413.292 810.789)"/><path fill="#1d1d1b" d="M0 0v.039c0 2.942 2.259 5.4 5.298 5.4 1.959 0 3.161-.8 4.14-1.842L8.42 2.52c-.82.859-1.721 1.561-3.141 1.561C3.18 4.081 1.58 2.318 1.58.078V.039c0-2.24 1.639-4.019 3.8-4.019 1.339 0 2.338.66 3.157 1.541l.983-.92C8.478-4.542 7.238-5.361 5.298-5.361 2.259-5.361 0-2.899 0 0" clip-path="url(#B)" transform="matrix(1.33333 0 0 -1.33333 17428.847 817.75)"/><path fill="#1d1d1b" d="M0 0c-.16 1.861-1.221 3.519-3.301 3.519-1.818 0-3.137-1.517-3.359-3.519Zm-8.217-.601v.043c0 2.977 2.08 5.377 4.959 5.377 3.059 0 4.819-2.439 4.819-5.459 0-.222 0-.32-.02-.499H-6.66c.222-2.24 1.802-3.5 3.64-3.5 1.44 0 2.4.577 3.258 1.459l.96-.858C.16-5.22-1.081-5.981-3.059-5.981c-2.821 0-5.158 2.181-5.158 5.38" clip-path="url(#C)" transform="matrix(1.33333 0 0 -1.33333 17454.613 816.922)"/><path fill="#1d1d1b" d="m0 0-2.637-.819L-3.02.46.402 1.639h1.159v-14.097H0Z" clip-path="url(#D)" transform="matrix(1.33333 0 0 -1.33333 17388.581 844.181)"/><g clip-path="url(#E)" opacity=".2"><use clip-path="url(#F)" href="#f" transform="matrix(1.33333 0 0 -1.33333 17550.668 943.179)"/></g><path fill="#1d1d1b" d="m0 0 5.08 4.479c2.138 1.92 2.918 3 2.918 4.401 0 1.639-1.299 2.677-2.821 2.677-1.599 0-2.637-.82-3.757-2.396l-1.162.835c1.303 1.881 2.559 2.981 5.04 2.981 2.521 0 4.339-1.678 4.339-3.956v-.039c0-2.045-1.081-3.301-3.539-5.439L2.361.219h7.417v-1.436H0Z" clip-path="url(#G)" transform="matrix(1.33333 0 0 -1.33333 17562.137 950.832)"/><g clip-path="url(#H)" opacity=".2"><use clip-path="url(#I)" href="#f" transform="matrix(1.33333 0 0 -1.33333 17590.103 1114.01)"/></g><path fill="#1d1d1b" d="m0 0 1.143 1.022C2.24-.32 3.5-1.057 5.24-1.057c1.701 0 3.059 1.057 3.059 2.719v.039c0 1.74-1.619 2.7-3.918 2.7H3.48l-.32.94 4.421 4.979H.741v1.42H9.68v-1.163L5.279 5.7c2.442-.218 4.619-1.361 4.619-3.94v-.039c0-2.501-2.079-4.218-4.678-4.218C2.879-2.497 1.143-1.498 0 0" clip-path="url(#J)" transform="matrix(1.33333 0 0 -1.33333 17601.622 1120.278)"/><g clip-path="url(#K)" opacity=".2"><use clip-path="url(#L)" href="#f" transform="matrix(1.33333 0 0 -1.33333 17470.943 1267.484)"/></g><path fill="#1d1d1b" d="M0 0v7.218L-5.88 0Zm0-1.319h-7.378l-.398 1.14L.141 9.458h1.381V0h2.177v-1.319H1.522v-3.316H0Z" clip-path="url(#M)" transform="matrix(1.33333 0 0 -1.33333 17492.646 1270.58)"/><g clip-path="url(#N)" opacity=".2"><use clip-path="url(#O)" href="#f" transform="matrix(1.33333 0 0 -1.33333 17270.791 1267.484)"/></g><path fill="#1d1d1b" d="m0 0 1.042 1.139C2.263-.059 3.582-.78 5.021-.78 7.019-.78 8.4.542 8.4 2.321v.039c0 1.756-1.459 2.938-3.48 2.938-1.198 0-2.119-.339-2.938-.799l-1.061.702.402 6.816H9.38v-1.459H2.7l-.3-4.479c.823.378 1.58.62 2.762.62C7.881 6.699 10 5.076 10 2.419v-.043C10-.363 7.94-2.22 5.002-2.22 3-2.22 1.28-1.28 0 0" clip-path="url(#P)" transform="matrix(1.33333 0 0 -1.33333 17282.389 1274.123)"/><g clip-path="url(#Q)" opacity=".2"><use clip-path="url(#R)" href="#f" transform="matrix(1.33333 0 0 -1.33333 17155.04 1114.01)"/></g><path fill="#1d1d1b" d="M0 0v.043C0 1.74-1.401 3.039-3.422 3.039c-2.099 0-3.5-1.517-3.5-3.059v-.039c0-1.779 1.464-3.14 3.543-3.14C-1.323-3.199 0-1.779 0 0m-7.082-3.176c-1.119 1.12-1.759 2.56-1.759 5.416v.042c0 4.257 2.142 7.597 5.821 7.597 1.678 0 2.919-.577 4.14-1.6L.199 7.062c-1.042.878-2.021 1.377-3.301 1.377-2.719 0-4.116-2.84-4.116-5.997V2.24c.936 1.361 2.158 2.161 3.999 2.161 2.618 0 4.838-1.658 4.838-4.3V.062c0-2.7-2.2-4.658-5.021-4.658-1.538 0-2.798.538-3.68 1.42" clip-path="url(#S)" transform="matrix(1.33333 0 0 -1.33333 17178.641 1117.48)"/><g clip-path="url(#T)" opacity=".2"><use clip-path="url(#U)" href="#f" transform="matrix(1.33333 0 0 -1.33333 17190.734 943.179)"/></g><path fill="#1d1d1b" d="M0 0h-7.698v1.44h9.501V.258l-6.36-12.814h-1.76z" clip-path="url(#V)" transform="matrix(1.33333 0 0 -1.33333 17212.997 935.714)"/><use clip-path="url(#W)" href="#t" transform="matrix(1.33333 0 0 -1.33333 17599.323 932.171)"/><path fill="#1d1d1b" d="M1602.473 381.472h1.541v-14.6h-1.541z" clip-path="url(#X)" transform="matrix(1.33333 0 0 -1.33333 15480 1440)"/><path fill="#1d1d1b" d="M0 0v.999c-.78.222-1.76.441-3.039.441-1.94 0-3.02-.839-3.02-2.138v-.043c0-1.3 1.221-2.056 2.598-2.056C-1.541-2.797 0-1.639 0 0m-7.62-.8v.039c0 2.162 1.799 3.34 4.421 3.34A11 11 0 0 0-.02 2.138v.363c0 1.857-1.139 2.817-3.082 2.817-1.217 0-2.177-.3-3.137-.757l-.46 1.256c1.139.543 2.239.863 3.757.863 1.463 0 2.583-.383 3.34-1.14.702-.702 1.061-1.72 1.061-3.02V-3.8H-.02v1.56c-.721-.94-1.9-1.779-3.741-1.779-1.92 0-3.859 1.081-3.859 3.219" clip-path="url(#Y)" transform="matrix(1.33333 0 0 -1.33333 17632.57 945.77)"/><path fill="#1d1d1b" d="M0 0h1.701l3.48-8.58L8.677 0h1.662L5.841-10.417H4.479Z" clip-path="url(#Z)" transform="matrix(1.33333 0 0 -1.33333 17636.982 937.051)"/><path fill="#1d1d1b" d="M0 0v.043c0 2.216-1.662 4.038-3.839 4.038-2.24 0-3.781-1.822-3.781-3.999V.043c0-2.22 1.639-4.023 3.82-4.023C-1.561-3.98 0-2.158 0 0m-9.2 0v.043c0 2.938 2.259 5.396 5.4 5.396C-.683 5.439 1.576 3 1.576.082V.043c0-2.942-2.298-5.4-5.415-5.4C-6.941-5.357-9.2-2.918-9.2 0" clip-path="url(#aa)" transform="matrix(1.33333 0 0 -1.33333 17664.59 944.012)"/><path fill="#1d1d1b" d="M0 0h1.537v-2.7C2.298-.979 3.796.238 5.759.179v-1.658h-.121c-2.259 0-4.101-1.619-4.101-4.74v-4.12H0Z" clip-path="url(#ab)" transform="matrix(1.33333 0 0 -1.33333 17670.385 937.051)"/><path fill="#1d1d1b" d="m0 0-3.18 7.14L-6.379 0Zm-3.898 8.978h1.479L3.96-5.119H2.259L.62-1.42H-7l-1.658-3.699h-1.619z" clip-path="url(#ac)" transform="matrix(1.33333 0 0 -1.33333 17534.701 1268.317)"/><path fill="#1d1d1b" d="M0 0v.043c0 2.938 2.259 5.396 5.298 5.396 1.959 0 3.157-.8 4.14-1.838L8.416 2.52c-.82.859-1.721 1.561-3.137 1.561-2.103 0-3.703-1.76-3.703-3.999V.043c0-2.24 1.643-4.023 3.8-4.023 1.343 0 2.341.664 3.161 1.541l.979-.92C8.478-4.538 7.238-5.357 5.298-5.357 2.259-5.357 0-2.899 0 0" clip-path="url(#ad)" transform="matrix(1.33333 0 0 -1.33333 17541.776 1268.317)"/><path fill="#1d1d1b" d="M1558.517 133.983h1.541v-10.339h-1.541zm-.102 3.96h1.76v-1.701h-1.76z" clip-path="url(#ae)" transform="matrix(1.33333 0 0 -1.33333 15480 1440)"/><path fill="#1d1d1b" d="M0 0v.039c0 2.38-1.822 3.98-3.742 3.98-1.997 0-3.636-1.483-3.636-3.98V0c0-2.462 1.658-3.999 3.636-3.999C-1.822-3.999 0-2.38 0 0m-8.958-.023V.02c0 3.359 2.458 5.376 4.939 5.376 1.92 0 3.157-1.018 3.957-2.197v6.239h1.541v-14.6H-.062v2.08C-.921-4.319-2.099-5.38-4.019-5.38c-2.481 0-4.939 1.958-4.939 5.357" clip-path="url(#af)" transform="matrix(1.33333 0 0 -1.33333 17575.986 1268.26)"/><path fill="#1d1d1b" d="M1577.034 133.983h1.541v-10.339h-1.541zm-.101 3.96h1.76v-1.701h-1.76z" clip-path="url(#ag)" transform="matrix(1.33333 0 0 -1.33333 15480 1440)"/><path fill="#1d1d1b" d="M0 0v6.239h-1.44V7.6H0v3.118h1.541V7.6h3.277V6.239H1.541V.203c0-1.28.699-1.721 1.736-1.721.543 0 .96.102 1.503.359v-1.319c-.543-.3-1.12-.44-1.862-.44C1.241-2.918 0-2.099 0 0" clip-path="url(#ah)" transform="matrix(1.33333 0 0 -1.33333 17590.25 1271.49)"/><path fill="#1d1d1b" d="M0 0h1.643l-4.339-10.679c-.882-2.138-1.9-2.918-3.441-2.918-.859 0-1.499.179-2.201.519l.523 1.221c.499-.262.96-.382 1.619-.382.94 0 1.498.479 2.119 1.943L-8.775 0h1.697l3.762-8.619z" clip-path="url(#ai)" transform="matrix(1.33333 0 0 -1.33333 17610.606 1261.356)"/><path fill="#1d1d1b" d="M0 0h1.6l5.095-7.639L11.795 0h1.599v-13.999h-1.58v11.338L6.719-10.16h-.082l-5.1 7.48v-11.319H0Z" clip-path="url(#aj)" transform="matrix(1.33333 0 0 -1.33333 17128.263 1256.477)"/><path fill="#1d1d1b" d="M0 0v.043c0 2.216-1.658 4.038-3.839 4.038-2.24 0-3.777-1.822-3.777-3.999V.043c0-2.22 1.639-4.023 3.82-4.023C-1.557-3.98 0-2.158 0 0m-9.196 0v.043c0 2.938 2.259 5.396 5.4 5.396C-.679 5.439 1.58 3 1.58.082V.043c0-2.942-2.298-5.4-5.419-5.4-3.098 0-5.357 2.439-5.357 5.357" clip-path="url(#ak)" transform="matrix(1.33333 0 0 -1.33333 17162.442 1268.317)"/><path fill="#1d1d1b" d="M0 0v6.418h1.541V.378c0-1.919 1.018-3.117 2.86-3.117 1.76 0 3.098 1.299 3.098 3.238v5.919h1.522V-3.921H7.499v1.802C6.801-3.238 5.739-4.14 3.96-4.14 1.483-4.14 0-2.462 0 0" clip-path="url(#al)" transform="matrix(1.33333 0 0 -1.33333 17168.024 1269.914)"/><path fill="#1d1d1b" d="M0 0v6.239h-1.44V7.6H0v3.118h1.537V7.6h3.282V6.239H1.537V.203c0-1.28.703-1.721 1.74-1.721.543 0 .96.102 1.503.359v-1.319c-.543-.3-1.12-.44-1.862-.44C1.241-2.918 0-2.099 0 0" clip-path="url(#am)" transform="matrix(1.33333 0 0 -1.33333 17185.368 1271.49)"/><path fill="#1d1d1b" d="M0 0h1.541v-6.059c.699 1.12 1.76 2.017 3.539 2.017 2.477 0 3.956-1.678 3.956-4.14V-14.6H7.499v6.04c0 1.919-1.022 3.121-2.86 3.121-1.779 0-3.098-1.303-3.098-3.242V-14.6H0Z" clip-path="url(#an)" transform="matrix(1.33333 0 0 -1.33333 17195.408 1255.676)"/><path fill="#1d1d1b" d="M0 0h-1.42v1.342H0v.898C0 3.422.297 4.3.897 4.9c.543.539 1.28.8 2.22.8.722 0 1.202-.078 1.702-.261V4.101c-.562.16-.96.261-1.503.261-1.197 0-1.798-.741-1.798-2.2v-.839h3.281V0H1.537v-8.978H0Z" clip-path="url(#ao)" transform="matrix(1.33333 0 0 -1.33333 17212.591 1263.172)"/><path fill="#1d1d1b" d="M0 0c-.16 1.861-1.221 3.519-3.301 3.519-1.818 0-3.137-1.517-3.359-3.519Zm-8.221-.601v.043c0 2.977 2.08 5.377 4.959 5.377 3.063 0 4.823-2.439 4.823-5.459 0-.218 0-.32-.024-.499H-6.66c.222-2.24 1.799-3.5 3.64-3.5 1.44 0 2.4.581 3.258 1.459l.96-.858C.16-5.217-1.081-5.977-3.059-5.977c-2.821 0-5.162 2.177-5.162 5.376" clip-path="url(#ap)" transform="matrix(1.33333 0 0 -1.33333 17231.428 1267.49)"/><path fill="#1d1d1b" d="M0 0c-.16 1.861-1.221 3.519-3.301 3.519-1.818 0-3.137-1.517-3.359-3.519Zm-8.221-.601v.043c0 2.977 2.08 5.377 4.959 5.377 3.063 0 4.823-2.439 4.823-5.459 0-.218 0-.32-.024-.499H-6.66c.222-2.24 1.798-3.5 3.64-3.5 1.44 0 2.4.581 3.258 1.459l.96-.858C.16-5.217-1.081-5.977-3.059-5.977c-2.821 0-5.162 2.177-5.162 5.376" clip-path="url(#aq)" transform="matrix(1.33333 0 0 -1.33333 17247.196 1267.49)"/><path fill="#1d1d1b" d="M1329.782 138.243h1.541v-14.6h-1.541z" clip-path="url(#ar)" transform="matrix(1.33333 0 0 -1.33333 15480 1440)"/><path fill="#1d1d1b" d="M0 0c0 1.522-1.26 2.396-3.718 2.396h-4.421V-2.54h4.702C-1.299-2.54 0-1.623 0-.039Zm-.78 6.336c0 1.381-1.1 2.279-3.098 2.279h-4.261V3.8h4.14c1.919 0 3.219.835 3.219 2.497zm-8.916 3.699h5.958c1.6 0 2.86-.46 3.66-1.241a3.13 3.13 0 0 0 .897-2.239v-.039c0-1.818-1.119-2.755-2.22-3.239C.261 2.801 1.6 1.799 1.6-.101V-.14c0-2.4-2.017-3.82-5.08-3.82h-6.216z" clip-path="url(#as)" transform="matrix(1.33333 0 0 -1.33333 17056.67 1116.387)"/><path fill="#1d1d1b" d="M0 0v1.003c-.78.222-1.76.441-3.039.441-1.94 0-3.02-.843-3.02-2.138v-.043c0-1.3 1.221-2.057 2.602-2.057C-1.537-2.794 0-1.639 0 0m-7.616-.796v.039c0 2.162 1.799 3.34 4.417 3.34 1.342 0 2.239-.18 3.18-.441v.363c0 1.857-1.14 2.817-3.079 2.817-1.221 0-2.181-.301-3.141-.757l-.46 1.256c1.139.539 2.239.859 3.761.859 1.459 0 2.579-.379 3.34-1.14.698-.698 1.057-1.716 1.057-3.02v-6.316H-.019v1.556c-.718-.936-1.901-1.779-3.738-1.779-1.92 0-3.859 1.085-3.859 3.223" clip-path="url(#at)" transform="matrix(1.33333 0 0 -1.33333 17071.741 1116.605)"/><path fill="#1d1d1b" d="M1198.675 253.346h1.537V238.75h-1.537z" clip-path="url(#au)" transform="matrix(1.33333 0 0 -1.33333 15480 1440)"/><path fill="#1d1d1b" d="M0 0v1.003c-.78.222-1.76.441-3.039.441-1.94 0-3.02-.843-3.02-2.138v-.043c0-1.3 1.221-2.057 2.602-2.057C-1.537-2.794 0-1.639 0 0m-7.616-.796v.039c0 2.162 1.799 3.34 4.417 3.34 1.342 0 2.239-.18 3.179-.441v.363c0 1.857-1.139 2.817-3.078 2.817-1.221 0-2.181-.301-3.141-.757l-.46 1.256c1.139.539 2.239.859 3.761.859 1.459 0 2.579-.379 3.34-1.14.698-.698 1.057-1.716 1.057-3.02v-6.316H-.02v1.556c-.717-.936-1.9-1.779-3.737-1.779-1.92 0-3.859 1.085-3.859 3.223" clip-path="url(#av)" transform="matrix(1.33333 0 0 -1.33333 17094.168 1116.605)"/><path fill="#1d1d1b" d="M0 0h1.541v-1.795C2.24-.679 3.301.222 5.08.222c2.477 0 3.956-1.681 3.956-4.139v-6.418H7.499V-4.3c0 1.92-1.022 3.122-2.86 3.122-1.779 0-3.098-1.3-3.098-3.239v-5.918H0Z" clip-path="url(#aw)" transform="matrix(1.33333 0 0 -1.33333 17100.473 1107.886)"/><path fill="#1d1d1b" d="M0 0v.043c0 2.934 2.259 5.396 5.298 5.396 1.959 0 3.161-.8 4.14-1.838L8.42 2.517c-.823.862-1.721 1.56-3.141 1.56C3.18 4.077 1.58 2.321 1.58.082V.043c0-2.24 1.639-4.023 3.8-4.023 1.339 0 2.337.66 3.157 1.541l.979-.92C8.478-4.538 7.238-5.357 5.298-5.357 2.259-5.357 0-2.899 0 0" clip-path="url(#ax)" transform="matrix(1.33333 0 0 -1.33333 17116.027 1114.842)"/><path fill="#1d1d1b" d="M0 0c-.16 1.857-1.221 3.519-3.301 3.519-1.818 0-3.137-1.521-3.359-3.519Zm-8.221-.601v.039c0 2.981 2.08 5.381 4.959 5.381 3.063 0 4.823-2.439 4.823-5.459 0-.218 0-.32-.024-.499H-6.66c.222-2.24 1.799-3.5 3.64-3.5 1.44 0 2.4.581 3.258 1.459l.96-.862C.16-5.22-1.081-5.977-3.059-5.977c-2.821 0-5.162 2.177-5.162 5.376" clip-path="url(#ay)" transform="matrix(1.33333 0 0 -1.33333 17141.794 1114.014)"/><path fill="#1d1d1b" d="M0 0v.039c0 3.18-2.322 5.778-5.521 5.778s-5.478-2.559-5.478-5.739V.039c0-3.18 2.322-5.778 5.521-5.778S0-3.18 0 0m-12.637 0v.039c0 3.859 2.898 7.238 7.159 7.238 4.257 0 7.117-3.34 7.117-7.199V.039c0-3.859-2.899-7.238-7.16-7.238-4.257 0-7.116 3.34-7.116 7.199" clip-path="url(#az)" transform="matrix(1.33333 0 0 -1.33333 17101.274 941.556)"/><path fill="#1d1d1b" d="M0 0h1.697l3.48-8.58L8.677 0h1.658L5.837-10.417H4.479Z" clip-path="url(#aA)" transform="matrix(1.33333 0 0 -1.33333 17106.185 937.051)"/><path fill="#1d1d1b" d="M0 0c-.16 1.861-1.221 3.519-3.301 3.519-1.818 0-3.137-1.517-3.359-3.519Zm-8.217-.601v.043c0 2.977 2.08 5.377 4.959 5.377 3.059 0 4.819-2.439 4.819-5.459 0-.218 0-.32-.02-.499H-6.66c.222-2.24 1.802-3.5 3.64-3.5 1.44 0 2.4.581 3.258 1.459l.96-.858C.16-5.217-1.081-5.977-3.059-5.977c-2.821 0-5.158 2.177-5.158 5.376" clip-path="url(#aB)" transform="matrix(1.33333 0 0 -1.33333 17132.482 943.185)"/><path fill="#1d1d1b" d="M0 0h1.541v-2.7C2.298-.979 3.8.238 5.759.179v-1.658h-.121c-2.259 0-4.097-1.619-4.097-4.74v-4.12H0Z" clip-path="url(#aC)" transform="matrix(1.33333 0 0 -1.33333 17138.147 937.051)"/><path fill="#1d1d1b" d="M0 0v.999c-.78.222-1.76.441-3.039.441-1.94 0-3.02-.839-3.02-2.138v-.043c0-1.3 1.221-2.056 2.602-2.056C-1.537-2.797 0-1.639 0 0m-7.616-.8v.039c0 2.162 1.799 3.34 4.417 3.34A10.9 10.9 0 0 0-.02 2.138v.363c0 1.857-1.139 2.817-3.078 2.817-1.221 0-2.181-.3-3.141-.757l-.46 1.256c1.143.543 2.239.863 3.761.863 1.459 0 2.579-.383 3.34-1.14.698-.702 1.057-1.72 1.057-3.02V-3.8H-.02v1.56c-.717-.94-1.9-1.779-3.737-1.779-1.92 0-3.859 1.081-3.859 3.219" clip-path="url(#aD)" transform="matrix(1.33333 0 0 -1.33333 17157.385 945.77)"/><path fill="#1d1d1b" d="M1262.908 381.472h1.541v-14.6h-1.541z" clip-path="url(#aE)" transform="matrix(1.33333 0 0 -1.33333 15480 1440)"/><path fill="#1d1d1b" d="M1268.16 381.472h1.541v-14.6h-1.541z" clip-path="url(#aF)" transform="matrix(1.33333 0 0 -1.33333 15480 1440)"/><path fill="#1d1d1b" d="m0 0-3.18 7.136L-6.379 0Zm-3.902 8.978h1.483L3.96-5.119H2.259L.62-1.42H-7l-1.658-3.699h-1.619z" clip-path="url(#aG)" transform="matrix(1.33333 0 0 -1.33333 17649.118 1114.842)"/><path fill="#1d1d1b" d="M0 0h-1.42v1.338H0v.902C0 3.418.297 4.3.897 4.9c.543.539 1.28.8 2.22.8.722 0 1.202-.082 1.702-.261V4.101c-.562.16-.96.257-1.503.257-1.197 0-1.798-.737-1.798-2.2v-.839h3.281V0H1.537v-8.978H0Z" clip-path="url(#aH)" transform="matrix(1.33333 0 0 -1.33333 17657.952 1109.697)"/><path fill="#1d1d1b" d="M0 0v6.239h-1.44v1.358H0v3.121h1.541V7.597h3.277V6.239H1.541V.199c0-1.28.699-1.721 1.74-1.721.539 0 .96.102 1.499.363v-1.322c-.539-.297-1.12-.437-1.858-.437C1.241-2.918 0-2.099 0 0" clip-path="url(#aI)" transform="matrix(1.33333 0 0 -1.33333 17667.669 1118.015)"/><path fill="#1d1d1b" d="M0 0c-.16 1.857-1.221 3.519-3.301 3.519-1.818 0-3.137-1.521-3.359-3.519Zm-8.221-.601v.039c0 2.981 2.08 5.381 4.959 5.381 3.063 0 4.823-2.439 4.823-5.459 0-.222 0-.32-.024-.499H-6.66c.222-2.24 1.799-3.5 3.64-3.5 1.44 0 2.4.577 3.258 1.459l.96-.862C.16-5.22-1.081-5.981-3.059-5.981c-2.821 0-5.162 2.181-5.162 5.38" clip-path="url(#aJ)" transform="matrix(1.33333 0 0 -1.33333 17687.417 1114.014)"/><path fill="#1d1d1b" d="M0 0h1.541v-2.696C2.302-.979 3.8.242 5.759.183v-1.662h-.117c-2.259 0-4.101-1.619-4.101-4.736v-4.12H0Z" clip-path="url(#aK)" transform="matrix(1.33333 0 0 -1.33333 17693.077 1107.886)"/><path fill="#1d1d1b" d="M0 0v6.239h-1.44v1.358H0v3.121h1.541V7.597h3.277V6.239H1.541V.199c0-1.28.699-1.721 1.74-1.721.539 0 .96.102 1.498.363v-1.322c-.538-.297-1.119-.437-1.857-.437C1.241-2.918 0-2.099 0 0" clip-path="url(#aL)" transform="matrix(1.33333 0 0 -1.33333 17704.584 1118.015)"/><path fill="#1d1d1b" d="M0 0v.999c-.78.218-1.76.441-3.039.441-1.94 0-3.02-.843-3.02-2.142v-.039c0-1.3 1.221-2.06 2.602-2.06C-1.537-2.801 0-1.643 0 0m-7.616-.8v.039c0 2.158 1.799 3.34 4.417 3.34A10.9 10.9 0 0 0-.02 2.138v.359c0 1.861-1.139 2.821-3.078 2.821-1.221 0-2.181-.3-3.141-.761l-.46 1.26c1.139.539 2.239.859 3.761.859 1.459 0 2.579-.379 3.34-1.14.698-.698 1.057-1.72 1.057-3.019V-3.8H-.02v1.56c-.717-.94-1.9-1.783-3.737-1.783-1.92 0-3.859 1.081-3.859 3.223" clip-path="url(#aM)" transform="matrix(1.33333 0 0 -1.33333 17723.744 1116.6)"/><path fill="#1d1d1b" d="m0 0 .776 1.1C1.896.242 3.137-.218 4.358-.218c1.26 0 2.138.62 2.138 1.638v.039c0 1.022-1.217 1.44-2.579 1.822C2.318 3.761.499 4.28.499 6.2v.039c0 1.779 1.479 2.961 3.52 2.961 1.279 0 2.657-.441 3.718-1.143l-.698-1.159c-.96.62-2.041.999-3.063.999-1.218 0-1.998-.64-1.998-1.498V6.36c0-.98 1.28-1.362 2.661-1.779 1.6-.48 3.316-1.101 3.316-2.962V1.58c0-1.958-1.619-3.098-3.679-3.098C2.778-1.518 1.178-.94 0 0" clip-path="url(#aN)" transform="matrix(1.33333 0 0 -1.33333 17728.905 1119.909)"/><path fill="#1d1d1b" d="M0 0v6.239h-1.44v1.358H0v3.121h1.537V7.597h3.281V6.239H1.537V.199c0-1.28.703-1.721 1.74-1.721.543 0 .96.102 1.503.363v-1.322c-.543-.297-1.12-.437-1.862-.437C1.241-2.918 0-2.099 0 0" clip-path="url(#aO)" transform="matrix(1.33333 0 0 -1.33333 17743.767 1118.015)"/><path fill="#1d1d1b" d="M0 0c-.16 1.857-1.217 3.519-3.297 3.519-1.822 0-3.141-1.521-3.359-3.519Zm-8.217-.601v.039c0 2.981 2.08 5.381 4.959 5.381 3.059 0 4.819-2.439 4.819-5.459 0-.222 0-.32-.02-.499h-8.197c.218-2.24 1.798-3.5 3.636-3.5 1.44 0 2.4.577 3.262 1.459l.96-.862C.16-5.22-1.077-5.981-3.059-5.981c-2.817 0-5.158 2.181-5.158 5.38" clip-path="url(#aP)" transform="matrix(1.33333 0 0 -1.33333 17763.51 1114.014)"/><path fill="#c6bdad" d="M1434.183 274.157h-1.998v144.665h1.998z" clip-path="url(#aQ)" transform="matrix(1.33333 0 0 -1.33333 15480 1440)"/><path fill="#c6bdad" d="m0 0-1.241 1.561 113.246 90.12 1.24-1.561z" clip-path="url(#aR)" transform="matrix(1.33333 0 0 -1.33333 17391.739 1075.497)"/><path fill="#c6bdad" d="m0 0-141.22 32.419.444 1.951L.445 1.951Z" clip-path="url(#aS)" transform="matrix(1.33333 0 0 -1.33333 17578.909 1118.983)"/><path fill="#c6bdad" d="m0 0-62.852 126.261 1.787.89L1.787.89Z" clip-path="url(#aT)" transform="matrix(1.33333 0 0 -1.33333 17473.523 1243.398)"/><path fill="#c6bdad" d="m0 0-1.787.89 62.844 126.261 1.787-.89z" clip-path="url(#aU)" transform="matrix(1.33333 0 0 -1.33333 17308.311 1243.398)"/><path fill="#c6bdad" d="m0 0-.398 1.959 139.855 28.642.398-1.959z" clip-path="url(#aV)" transform="matrix(1.33333 0 0 -1.33333 17204.704 1113.952)"/><path fill="#c6bdad" d="m0 0-113.246 90.12 1.241 1.561L1.241 1.561Z" clip-path="url(#aW)" transform="matrix(1.33333 0 0 -1.33333 17390.085 1075.497)"/><path fill="#c6bdad" d="M0 0h121.603l76.402 94.315-27.304 118.317-110.237 52.356-107.912-52.328-26.664-118.037Zm125.411-7.991H-3.894L-82.742 92.68l28.349 125.489 114.818 55.684 117.19-55.657 29.052-125.879-1.225-1.518z" clip-path="url(#aX)" transform="matrix(1.33333 0 0 -1.33333 17309.008 1237.515)"/><path fill="#c6bdad" d="M0 0h99.001l62.781 76.738-23.254 96.675L50.659 216.6l-89.863-42.856-21.595-96.008Zm99.945-1.998H-.975l-.301.383-61.677 78.868.101.46 21.916 97.42.437.207 91.174 43.476.433-.21 89.145-43.812 23.706-98.556-.316-.382z" clip-path="url(#aY)" transform="matrix(1.33333 0 0 -1.33333 17324.058 1207.03)"/><path fill="#c6bdad" d="m0 0 74.167-1.65 46.363 59.273-15.895 71.529-66.89 32.926-67.889-32.929L-45.376 57.3Zm75.126-3.671L-.983-1.974l-.293.367-46.246 58.399 15.63 73.73.437.211 69.207 33.569 68.623-33.784.105-.464 16.204-72.914-.289-.375z" clip-path="url(#aZ)" transform="matrix(1.33333 0 0 -1.33333 17341.059 1172.16)"/><path fill="#c6bdad" d="M0 0h48.01l30.932 39.161-11.186 47.822-43.57 20.55-43.932-22.001-11.182-46.707Zm48.977-1.998H-.96l-.3.375-31.838 39.965 11.627 48.563 45.634 22.852L69.481 88.38l11.623-49.703-.297-.378Z" clip-path="url(#ba)" transform="matrix(1.33333 0 0 -1.33333 17358.934 1138.6)"/><path fill="#c6bdad" d="M0 0h22.891l16.137 17.429-4.51 24.483-22.587 9.999-20.959-9.672-5.802-23.215Zm23.765-1.998H-.975l-16.032 20.562.121.472 6.149 24.616 22.653 10.452 24.373-10.796 4.885-26.504z" clip-path="url(#bb)" transform="matrix(1.33333 0 0 -1.33333 17375.045 1103.714)"/><path fill="#fff" d="M1419.43 407.809h27.271V395.94h-27.271z" clip-path="url(#bc)" transform="matrix(1.33333 0 0 -1.33333 15480 1440)"/><path fill="#c6bdad" d="M0 0v.023c0 .828-.815 1.452-1.92 1.452-1.108 0-1.923-.613-1.923-1.452V0c0-.913.854-1.537 1.923-1.537S0-.913 0 0m.277-3.941v.024c0 .924-.987 1.599-2.197 1.599-1.225 0-2.2-.675-2.2-1.599v-.024c0-.85.819-1.572 2.2-1.572S.277-4.791.277-3.941m-5.357-.023v.023c0 1.011.718 1.694 1.732 2.068-.784.359-1.443.96-1.443 1.932v.023c0 1.299 1.334 2.224 2.871 2.224C-.382 2.306.952 1.381.952.082V.059c0-.972-.663-1.573-1.444-1.932.999-.374 1.729-1.057 1.729-2.056v-.023c0-1.428-1.37-2.392-3.157-2.392-1.79 0-3.16.975-3.16 2.38" clip-path="url(#bd)" transform="matrix(1.33333 0 0 -1.33333 17380.773 901.78)"/><path fill="#c6bdad" d="M1428.342 398.702h1.1v-1.26h-1.1z" clip-path="url(#be)" transform="matrix(1.33333 0 0 -1.33333 15480 1440)"/><path fill="#c6bdad" d="m0 0 .624.683C1.358-.035 2.15-.468 3.012-.468c1.202 0 2.033.792 2.033 1.861v.023c0 1.058-.878 1.768-2.088 1.768-.725 0-1.275-.207-1.767-.48l-.636.417.242 4.097h4.838V6.34H1.623l-.179-2.688a3.6 3.6 0 0 0 1.654.371c1.635 0 2.907-.972 2.907-2.572v-.023c0-1.643-1.237-2.762-3.001-2.762C1.802-1.334.769-.769 0 0" clip-path="url(#bf)" transform="matrix(1.33333 0 0 -1.33333 17387.983 908.491)"/><path fill="#c6bdad" d="M0 0v.027c0 1.822-.995 3.481-2.567 3.481-1.577 0-2.56-1.608-2.56-3.457V.027c0-1.826.999-3.484 2.583-3.484S0-1.838 0 0m-6.11 0v.027c0 2.353 1.405 4.347 3.566 4.347C-.382 4.374.987 2.403.987.051V.027c0-2.356-1.393-4.35-3.554-4.35-2.177 0-3.543 1.97-3.543 4.323" clip-path="url(#bg)" transform="matrix(1.33333 0 0 -1.33333 17406.056 904.506)"/><path fill="#fff" d="M1423.278 352.964h19.576v-13.66h-19.576z" clip-path="url(#bh)" transform="matrix(1.33333 0 0 -1.33333 15480 1440)"/><path fill="#c6bdad" d="M0 0h-4.624v.866h5.705v-.71l-3.82-7.698h-1.057z" clip-path="url(#bi)" transform="matrix(1.33333 0 0 -1.33333 17381.491 973.597)"/><path fill="#c6bdad" d="M1427.538 343.521h1.1v-1.26h-1.1z" clip-path="url(#bj)" transform="matrix(1.33333 0 0 -1.33333 15480 1440)"/><path fill="#c6bdad" d="m0 0 .624.683C1.358-.035 2.15-.468 3.012-.468c1.202 0 2.033.792 2.033 1.861v.023c0 1.058-.878 1.768-2.087 1.768-.726 0-1.276-.207-1.768-.48l-.636.417.242 4.097h4.838V6.34H1.623l-.179-2.688a3.6 3.6 0 0 0 1.654.371c1.635 0 2.907-.972 2.907-2.572v-.023c0-1.643-1.237-2.762-3.001-2.762C1.803-1.334.769-.769 0 0" clip-path="url(#bk)" transform="matrix(1.33333 0 0 -1.33333 17386.911 982.066)"/><path fill="#c6bdad" d="M0 0v.027c0 1.822-.995 3.481-2.567 3.481-1.577 0-2.56-1.608-2.56-3.457V.027c0-1.826.999-3.484 2.583-3.484S0-1.838 0 0m-6.11 0v.027c0 2.353 1.405 4.347 3.566 4.347C-.382 4.374.987 2.403.987.051V.027c0-2.356-1.393-4.35-3.554-4.35-2.178 0-3.543 1.97-3.543 4.323" clip-path="url(#bl)" transform="matrix(1.33333 0 0 -1.33333 17404.984 978.08)"/><path fill="#fff" d="M1418.985 321.232h28.161v-11.869h-28.161z" clip-path="url(#bm)" transform="matrix(1.33333 0 0 -1.33333 15480 1440)"/><path fill="#c6bdad" d="M0 0h-4.62v.862h5.705V.156l-3.824-7.702h-1.053z" clip-path="url(#bn)" transform="matrix(1.33333 0 0 -1.33333 17380.825 1014.892)"/><path fill="#c6bdad" d="M1427.039 312.55h1.104v-1.264h-1.104z" clip-path="url(#bo)" transform="matrix(1.33333 0 0 -1.33333 15480 1440)"/><path fill="#c6bdad" d="M0 0v.023c0 1.826-.999 3.481-2.571 3.481S-5.127 1.896-5.127.047V.023c0-1.826.991-3.484 2.579-3.484S0-1.842 0 0m-6.114 0v.023c0 2.353 1.405 4.347 3.566 4.347C-.386 4.37.983 2.403.983.047V.023c0-2.356-1.393-4.346-3.554-4.346-2.174 0-3.543 1.966-3.543 4.323" clip-path="url(#bp)" transform="matrix(1.33333 0 0 -1.33333 17394.226 1019.376)"/><path fill="#c6bdad" d="M0 0v.023c0 1.826-.999 3.481-2.567 3.481-1.577 0-2.56-1.608-2.56-3.457V.023c0-1.826.995-3.484 2.583-3.484C-.96-3.461 0-1.842 0 0m-6.11 0v.023c0 2.353 1.405 4.347 3.566 4.347C-.382 4.37.983 2.403.983.047V.023c0-2.356-1.389-4.346-3.55-4.346C-4.744-4.323-6.11-2.357-6.11 0" clip-path="url(#bq)" transform="matrix(1.33333 0 0 -1.33333 17405.65 1019.376)"/><path fill="#fff" d="M1422.23 297.914h21.671v-12.198h-21.671z" clip-path="url(#br)" transform="matrix(1.33333 0 0 -1.33333 15480 1440)"/><path fill="#c6bdad" d="M0 0v.023c0 1.023-.839 1.803-2.052 1.803-1.264 0-2.103-.913-2.103-1.838v-.023c0-1.069.878-1.888 2.126-1.888C-.792-1.923 0-1.069 0 0m-4.253-1.912c-.671.675-1.053 1.537-1.053 3.258v.023c0 2.556 1.283 4.562 3.492 4.562 1.01 0 1.755-.348 2.485-.96l-.55-.734c-.624.531-1.214.831-1.982.831-1.635 0-2.474-1.705-2.474-3.605v-.117c.566.816 1.296 1.295 2.4 1.295C-.359 2.641.971 1.643.971.059V.035c0-1.623-1.318-2.797-3.012-2.797-.924 0-1.681.323-2.212.85" clip-path="url(#bs)" transform="matrix(1.33333 0 0 -1.33333 17381.085 1052.826)"/><path fill="#c6bdad" d="M1428.44 289.023h1.104v-1.26h-1.104z" clip-path="url(#bt)" transform="matrix(1.33333 0 0 -1.33333 15480 1440)"/><path fill="#c6bdad" d="m0 0 .624.687C1.358-.035 2.15-.468 3.012-.468c1.202 0 2.033.796 2.033 1.865v.023c0 1.058-.878 1.764-2.092 1.764-.721 0-1.271-.203-1.763-.48l-.64.421.242 4.093h4.842v-.874H1.619L1.44 3.652c.491.23.948.374 1.658.374 1.635 0 2.907-.975 2.907-2.571v-.023C6.005-.215 4.768-1.33 3-1.33 1.802-1.33.769-.769 0 0" clip-path="url(#bu)" transform="matrix(1.33333 0 0 -1.33333 17388.119 1054.735)"/><path fill="#c6bdad" d="M0 0v.023c0 1.826-.995 3.485-2.567 3.485-1.577 0-2.56-1.612-2.56-3.461V.023c0-1.826.995-3.484 2.583-3.484C-.96-3.461 0-1.838 0 0m-6.11 0v.023c0 2.353 1.405 4.347 3.566 4.347C-.382 4.37.987 2.403.987.047V.023c0-2.352-1.393-4.346-3.554-4.346-2.177 0-3.543 1.97-3.543 4.323" clip-path="url(#bv)" transform="matrix(1.33333 0 0 -1.33333 17406.191 1050.745)"/><path fill="#fff" d="M1426.96 280.552h12.211v-12.198h-12.211z" clip-path="url(#bw)" transform="matrix(1.33333 0 0 -1.33333 15480 1440)"/><path fill="#c6bdad" d="M0 0v.023c0 1.023-.839 1.803-2.052 1.803-1.264 0-2.103-.913-2.103-1.838v-.023c0-1.069.878-1.889 2.126-1.889C-.792-1.924 0-1.069 0 0m-4.253-1.912c-.671.675-1.053 1.537-1.053 3.258v.023c0 2.556 1.283 4.562 3.492 4.562 1.01 0 1.755-.348 2.485-.96l-.55-.734c-.624.531-1.214.831-1.982.831-1.635 0-2.474-1.705-2.474-3.605v-.117c.566.815 1.296 1.295 2.4 1.295C-.359 2.641.971 1.643.971.059V.035c0-1.623-1.318-2.797-3.012-2.797-.924 0-1.681.323-2.212.85" clip-path="url(#bx)" transform="matrix(1.33333 0 0 -1.33333 17393.638 1075.976)"/><path fill="#fff" d="M1425.023 385.234h16.085v-12.335h-16.085z" clip-path="url(#by)" transform="matrix(1.33333 0 0 -1.33333 15480 1440)"/><path fill="#c6bdad" d="M0 0v.023c0 .831-.815 1.456-1.923 1.456-1.101 0-1.92-.617-1.92-1.456V0c0-.913.85-1.537 1.92-1.537S0-.913 0 0m.277-3.937v.024c0 .92-.983 1.595-2.2 1.595-1.226 0-2.193-.675-2.193-1.595v-.024c0-.854.811-1.576 2.193-1.576 1.381 0 2.2.722 2.2 1.576m-5.357-.027v.027c0 1.007.722 1.694 1.728 2.064-.78.359-1.439.96-1.439 1.932v.023c0 1.299 1.33 2.224 2.868 2.224S.948 1.381.948.082V.059c0-.972-.659-1.573-1.44-1.932.995-.37 1.729-1.057 1.729-2.056v-.023c0-1.428-1.366-2.388-3.16-2.388-1.787 0-3.157.971-3.157 2.376" clip-path="url(#bz)" transform="matrix(1.33333 0 0 -1.33333 17393.326 932.41)"/><path fill="#ef7d00" d="m0 0 95.575-9.941 43.289 78.259 2.157 97.705-96.41 13.777-91.228-17.511-3.999-92.27zm98.899-16.309L-3.285-5.681l-53.41 73.874 4.296 99.09 96.862 18.588.5-.07 102.168-14.597-2.306-104.494z" clip-path="url(#bA)" transform="matrix(1.33333 0 0 -1.33333 17330.483 1193.514)"/></g></svg>