<svg xmlns="http://www.w3.org/2000/svg" width="718.299" height="542.849" viewBox="0 0 718.299 542.849"><defs><clipPath id="e" clipPathUnits="userSpaceOnUse"><use href="#a"/></clipPath><clipPath id="d" clipPathUnits="userSpaceOnUse"><use href="#b"/></clipPath><clipPath id="g" clipPathUnits="userSpaceOnUse"><path d="M-1370.544 1010.116h1920v-1080h-1920Z"/></clipPath><clipPath id="h" clipPathUnits="userSpaceOnUse"><path d="M-1383.566 1005.224h1920v-1080h-1920Z"/></clipPath><clipPath id="i" clipPathUnits="userSpaceOnUse"><path d="M-1407.886 1007.057h1920v-1080h-1920Z"/></clipPath><clipPath id="j" clipPathUnits="userSpaceOnUse"><path d="M-1425.532 1005.8h1920v-1080h-1920Z"/></clipPath><clipPath id="k" clipPathUnits="userSpaceOnUse"><path d="M-1433.533 1001.862h1920v-1080h-1920Z"/></clipPath><clipPath id="l" clipPathUnits="userSpaceOnUse"><path d="M-1449.669 1007.057h1920v-1080h-1920Z"/></clipPath><clipPath id="m" clipPathUnits="userSpaceOnUse"><path d="M-1454.53 1009.425h1920v-1080h-1920Z"/></clipPath><clipPath id="n" clipPathUnits="userSpaceOnUse"><path d="M-1470.238 1007.057h1920v-1080h-1920Z"/></clipPath><clipPath id="p" clipPathUnits="userSpaceOnUse"><path d="M-1473.927 1007.057h1920v-1080h-1920Z"/></clipPath><clipPath id="q" clipPathUnits="userSpaceOnUse"><path d="M-1494.131 1007.057h1920v-1080h-1920Z"/></clipPath><clipPath id="r" clipPathUnits="userSpaceOnUse"><use href="#c"/></clipPath><clipPath id="s" clipPathUnits="userSpaceOnUse"><path d="M-1385.833 605.251h1920v-1080h-1920Z"/></clipPath><clipPath id="t" clipPathUnits="userSpaceOnUse"><path d="M-1398.61 608.893h1920v-1080h-1920Z"/></clipPath><clipPath id="v" clipPathUnits="userSpaceOnUse"><path d="M-1412.972 615.4h1920v-1080h-1920Z"/></clipPath><clipPath id="w" clipPathUnits="userSpaceOnUse"><path d="M-1425.994 613.552h1920v-1080h-1920Z"/></clipPath><clipPath id="x" clipPathUnits="userSpaceOnUse"><path d="M-1430.874 608.893h1920v-1080h-1920Z"/></clipPath><clipPath id="y" clipPathUnits="userSpaceOnUse"><path d="M-1445.236 615.4h1920v-1080h-1920Z"/></clipPath><clipPath id="z" clipPathUnits="userSpaceOnUse"><path d="M-1449.937 608.893h1920v-1080h-1920Z"/></clipPath><clipPath id="A" clipPathUnits="userSpaceOnUse"><path d="M-1461.546 614.088h1920v-1080h-1920Z"/></clipPath><clipPath id="B" clipPathUnits="userSpaceOnUse"><path d="M-1480.776 613.47h1920v-1080h-1920Z"/></clipPath><clipPath id="C" clipPathUnits="userSpaceOnUse"><path d="M-1431.371 634.673h1920v-1080h-1920Z"/></clipPath><clipPath id="E" clipPathUnits="userSpaceOnUse"><path d="M-.004 13.641h27.29v-27.284H-.004z"/></clipPath><clipPath id="D" clipPathUnits="userSpaceOnUse"><use href="#b"/></clipPath><clipPath id="F" clipPathUnits="userSpaceOnUse"><path d="M-1561.042 712.695h1920v-1080h-1920Z"/></clipPath><clipPath id="H" clipPathUnits="userSpaceOnUse"><path d="M.005 13.641h27.28v-27.284H.005z"/></clipPath><clipPath id="G" clipPathUnits="userSpaceOnUse"><use href="#b"/></clipPath><clipPath id="I" clipPathUnits="userSpaceOnUse"><path d="M-1590.355 839.928h1920v-1080h-1920Z"/></clipPath><clipPath id="K" clipPathUnits="userSpaceOnUse"><path d="M-.004 13.642h27.29v-27.285H-.004z"/></clipPath><clipPath id="J" clipPathUnits="userSpaceOnUse"><use href="#b"/></clipPath><clipPath id="L" clipPathUnits="userSpaceOnUse"><path d="M-1508.764 951.522h1920v-1080h-1920Z"/></clipPath><clipPath id="N" clipPathUnits="userSpaceOnUse"><path d="M.002 13.642h27.28v-27.285H.002z"/></clipPath><clipPath id="M" clipPathUnits="userSpaceOnUse"><use href="#b"/></clipPath><clipPath id="O" clipPathUnits="userSpaceOnUse"><path d="M-1352.125 954.768h1920v-1080h-1920Z"/></clipPath><clipPath id="Q" clipPathUnits="userSpaceOnUse"><path d="M-.001 13.641h27.29v-27.284H-.001z"/></clipPath><clipPath id="P" clipPathUnits="userSpaceOnUse"><use href="#b"/></clipPath><clipPath id="R" clipPathUnits="userSpaceOnUse"><path d="M-1274.236 837.719h1920v-1080h-1920Z"/></clipPath><clipPath id="T" clipPathUnits="userSpaceOnUse"><use href="#a"/></clipPath><clipPath id="S" clipPathUnits="userSpaceOnUse"><use href="#b"/></clipPath><clipPath id="U" clipPathUnits="userSpaceOnUse"><path d="M-1299.802 702.841h1920v-1080h-1920Z"/></clipPath><clipPath id="V" clipPathUnits="userSpaceOnUse"><path d="M-1588.774 699.487h1920v-1080h-1920Z"/></clipPath><clipPath id="W" clipPathUnits="userSpaceOnUse"><use href="#c"/></clipPath><clipPath id="X" clipPathUnits="userSpaceOnUse"><path d="M-1613.587 709.636h1920v-1080h-1920Z"/></clipPath><clipPath id="Y" clipPathUnits="userSpaceOnUse"><path d="M-1616.88 703.129h1920v-1080h-1920Z"/></clipPath><clipPath id="Z" clipPathUnits="userSpaceOnUse"><path d="M-1637.485 708.32h1920v-1080h-1920Z"/></clipPath><clipPath id="aa" clipPathUnits="userSpaceOnUse"><path d="M-1641.81 703.129h1920v-1080h-1920Z"/></clipPath><clipPath id="ab" clipPathUnits="userSpaceOnUse"><path d="M-1540.546 950.353h1920v-1080h-1920Z"/></clipPath><clipPath id="ac" clipPathUnits="userSpaceOnUse"><path d="M-1545.826 950.353h1920v-1080h-1920Z"/></clipPath><clipPath id="ad" clipPathUnits="userSpaceOnUse"><use href="#c"/></clipPath><clipPath id="ae" clipPathUnits="userSpaceOnUse"><path d="M-1571.358 950.31h1920v-1080h-1920Z"/></clipPath><clipPath id="af" clipPathUnits="userSpaceOnUse"><use href="#c"/></clipPath><clipPath id="ag" clipPathUnits="userSpaceOnUse"><path d="M-1582.003 952.722h1920v-1080h-1920Z"/></clipPath><clipPath id="ah" clipPathUnits="userSpaceOnUse"><path d="M-1597.195 945.159h1920v-1080h-1920Z"/></clipPath><clipPath id="ai" clipPathUnits="userSpaceOnUse"><path d="M-1237.216 941.517h1920v-1080h-1920Z"/></clipPath><clipPath id="aj" clipPathUnits="userSpaceOnUse"><path d="M-1262.728 950.353h1920v-1080h-1920Z"/></clipPath><clipPath id="ak" clipPathUnits="userSpaceOnUse"><path d="M-1266.894 951.545h1920v-1080h-1920Z"/></clipPath><clipPath id="al" clipPathUnits="userSpaceOnUse"><path d="M-1279.834 952.722h1920v-1080h-1920Z"/></clipPath><clipPath id="am" clipPathUnits="userSpaceOnUse"><path d="M-1287.33 940.919h1920v-1080h-1920Z"/></clipPath><clipPath id="an" clipPathUnits="userSpaceOnUse"><path d="M-1300.151 946.514h1920v-1080h-1920Z"/></clipPath><clipPath id="ao" clipPathUnits="userSpaceOnUse"><path d="M-1314.21 949.736h1920v-1080h-1920Z"/></clipPath><clipPath id="aq" clipPathUnits="userSpaceOnUse"><path d="M-1325.977 949.736h1920v-1080h-1920Z"/></clipPath><clipPath id="ar" clipPathUnits="userSpaceOnUse"><use href="#c"/></clipPath><clipPath id="as" clipPathUnits="userSpaceOnUse"><path d="M-1183.79 836.965h1920v-1080h-1920Z"/></clipPath><clipPath id="at" clipPathUnits="userSpaceOnUse"><path d="M-1195.033 837.128h1920v-1080h-1920Z"/></clipPath><clipPath id="au" clipPathUnits="userSpaceOnUse"><use href="#c"/></clipPath><clipPath id="av" clipPathUnits="userSpaceOnUse"><path d="M-1211.774 837.128h1920v-1080h-1920Z"/></clipPath><clipPath id="aw" clipPathUnits="userSpaceOnUse"><path d="M-1216.48 830.621h1920v-1080h-1920Z"/></clipPath><clipPath id="ax" clipPathUnits="userSpaceOnUse"><path d="M-1228.088 835.812h1920v-1080h-1920Z"/></clipPath><clipPath id="ay" clipPathUnits="userSpaceOnUse"><path d="M-1247.314 835.195h1920v-1080h-1920Z"/></clipPath><clipPath id="az" clipPathUnits="userSpaceOnUse"><path d="M-1217.074 706.49h1920v-1080h-1920Z"/></clipPath><clipPath id="aA" clipPathUnits="userSpaceOnUse"><path d="M-1220.739 703.129h1920v-1080h-1920Z"/></clipPath><clipPath id="aB" clipPathUnits="userSpaceOnUse"><path d="M-1240.364 707.702h1920v-1080h-1920Z"/></clipPath><clipPath id="aC" clipPathUnits="userSpaceOnUse"><path d="M-1244.593 703.129h1920v-1080h-1920Z"/></clipPath><clipPath id="aD" clipPathUnits="userSpaceOnUse"><path d="M-1258.954 709.636h1920v-1080h-1920Z"/></clipPath><clipPath id="aE" clipPathUnits="userSpaceOnUse"><use href="#c"/></clipPath><clipPath id="aF" clipPathUnits="userSpaceOnUse"><use href="#c"/></clipPath><clipPath id="aG" clipPathUnits="userSpaceOnUse"><path d="M-1625.938 835.812h1920v-1080h-1920Z"/></clipPath><clipPath id="aH" clipPathUnits="userSpaceOnUse"><path d="M-1632.53 831.973h1920v-1080h-1920Z"/></clipPath><clipPath id="aI" clipPathUnits="userSpaceOnUse"><path d="M-1639.786 838.18h1920v-1080h-1920Z"/></clipPath><clipPath id="aK" clipPathUnits="userSpaceOnUse"><path d="M-1654.52 835.195h1920v-1080h-1920Z"/></clipPath><clipPath id="aL" clipPathUnits="userSpaceOnUse"><path d="M-1658.749 830.621h1920v-1080h-1920Z"/></clipPath><clipPath id="aM" clipPathUnits="userSpaceOnUse"><path d="M-1667.337 838.18h1920v-1080h-1920Z"/></clipPath><clipPath id="aN" clipPathUnits="userSpaceOnUse"><path d="M-1681.632 837.125h1920v-1080h-1920Z"/></clipPath><clipPath id="aO" clipPathUnits="userSpaceOnUse"><path d="M-1685.483 839.594h1920v-1080h-1920Z"/></clipPath><clipPath id="aP" clipPathUnits="userSpaceOnUse"><path d="M-1696.576 838.18h1920v-1080h-1920Z"/></clipPath><clipPath id="aQ" clipPathUnits="userSpaceOnUse"><path d="M-1711.31 835.195h1920v-1080h-1920Z"/></clipPath><clipPath id="aR" clipPathUnits="userSpaceOnUse"><path d="M-1432.244 805.68h1920v-1080h-1920Z"/></clipPath><clipPath id="aS" clipPathUnits="userSpaceOnUse"><path d="M-1433.88 806.434h1920v-1080h-1920Z"/></clipPath><clipPath id="aT" clipPathUnits="userSpaceOnUse"><path d="M-1571.214 834.26h1920v-1080h-1920Z"/></clipPath><clipPath id="aU" clipPathUnits="userSpaceOnUse"><path d="M-1493.351 930.479h1920v-1080h-1920Z"/></clipPath><clipPath id="aV" clipPathUnits="userSpaceOnUse"><path d="M-1371.592 931.76h1920v-1080h-1920Z"/></clipPath><clipPath id="aW" clipPathUnits="userSpaceOnUse"><path d="M-1293.52 834.26h1920v-1080h-1920Z"/></clipPath><clipPath id="aX" clipPathUnits="userSpaceOnUse"><path d="M-1432.606 806.437h1920v-1080h-1920Z"/></clipPath><clipPath id="aY" clipPathUnits="userSpaceOnUse"><path d="M-1383.341 904.614h1920v-1080h-1920Z"/></clipPath><clipPath id="aZ" clipPathUnits="userSpaceOnUse"><path d="M-1396.029 878.59h1920v-1080h-1920Z"/></clipPath><clipPath id="ba" clipPathUnits="userSpaceOnUse"><path d="M-1409.37 853.544h1920v-1080h-1920Z"/></clipPath><clipPath id="bb" clipPathUnits="userSpaceOnUse"><path d="M-1421.393 827.508h1920v-1080h-1920Z"/></clipPath><clipPath id="bc" clipPathUnits="userSpaceOnUse"><use href="#c"/></clipPath><clipPath id="bd" clipPathUnits="userSpaceOnUse"><path d="M-1425.667 676.805h1920v-1080h-1920Z"/></clipPath><clipPath id="be" clipPathUnits="userSpaceOnUse"><use href="#c"/></clipPath><clipPath id="bf" clipPathUnits="userSpaceOnUse"><path d="M-1431.049 681.814h1920v-1080h-1920Z"/></clipPath><clipPath id="bg" clipPathUnits="userSpaceOnUse"><path d="M-1444.54 678.836h1920v-1080h-1920Z"/></clipPath><clipPath id="bh" clipPathUnits="userSpaceOnUse"><use href="#c"/></clipPath><clipPath id="bi" clipPathUnits="userSpaceOnUse"><path d="M-1426.204 730.4h1920v-1080h-1920Z"/></clipPath><clipPath id="bj" clipPathUnits="userSpaceOnUse"><use href="#c"/></clipPath><clipPath id="bk" clipPathUnits="userSpaceOnUse"><path d="M-1430.25 736.72h1920v-1080h-1920Z"/></clipPath><clipPath id="bl" clipPathUnits="userSpaceOnUse"><path d="M-1443.741 733.746h1920v-1080h-1920Z"/></clipPath><clipPath id="bm" clipPathUnits="userSpaceOnUse"><use href="#c"/></clipPath><clipPath id="bn" clipPathUnits="userSpaceOnUse"><path d="M-1425.71 761.222h1920v-1080h-1920Z"/></clipPath><clipPath id="bo" clipPathUnits="userSpaceOnUse"><use href="#c"/></clipPath><clipPath id="bp" clipPathUnits="userSpaceOnUse"><path d="M-1435.708 764.569h1920v-1080h-1920Z"/></clipPath><clipPath id="bq" clipPathUnits="userSpaceOnUse"><path d="M-1444.234 764.569h1920v-1080h-1920Z"/></clipPath><clipPath id="br" clipPathUnits="userSpaceOnUse"><use href="#c"/></clipPath><clipPath id="bs" clipPathUnits="userSpaceOnUse"><path d="M-1425.9 789.53h1920v-1080h-1920Z"/></clipPath><clipPath id="bt" clipPathUnits="userSpaceOnUse"><use href="#c"/></clipPath><clipPath id="bu" clipPathUnits="userSpaceOnUse"><path d="M-1431.15 790.954h1920v-1080h-1920Z"/></clipPath><clipPath id="bv" clipPathUnits="userSpaceOnUse"><path d="M-1444.637 787.976h1920v-1080h-1920Z"/></clipPath><clipPath id="bw" clipPathUnits="userSpaceOnUse"><use href="#c"/></clipPath><clipPath id="bx" clipPathUnits="userSpaceOnUse"><path d="M-1433.169 808.414h1920v-1080h-1920Z"/></clipPath><clipPath id="by" clipPathUnits="userSpaceOnUse"><use href="#c"/></clipPath><clipPath id="bz" clipPathUnits="userSpaceOnUse"><path d="M-1435.04 699.661h1920v-1080h-1920Z"/></clipPath><clipPath id="bA" clipPathUnits="userSpaceOnUse"><path d="M-1390.414 894.279h1920v-1080h-1920Z"/></clipPath><clipPath id="bB" clipPathUnits="userSpaceOnUse"><path d="M-1372.4 926.065h1920v-1080h-1920Z"/></clipPath><path id="a" d="M0 13.641h27.28v-27.284H0z"/><path id="b" d="M18060 0h2560v1440h-2560Z"/><path id="c" d="M0 1080h1920V0H0Z"/><path id="f" fill="#c75217" d="M0 0c0 7.534 6.109 13.642 13.646 13.642 7.526 0 13.638-6.108 13.638-13.642s-6.112-13.643-13.638-13.643C6.109-13.643 0-7.534 0 0"/><path id="o" fill="#1d1d1b" d="M0 0v.039c0 2.213-1.646 4.022-3.82 4.022-2.229 0-3.759-1.809-3.759-3.979V.039c0-2.205 1.631-3.999 3.801-3.999C-1.549-3.96 0-2.147 0 0m-9.147 0v.039c0 2.927 2.244 5.373 5.369 5.373 3.102 0 5.354-2.422 5.354-5.33V.039c0-2.92-2.29-5.37-5.396-5.37-3.083 0-5.327 2.427-5.327 5.331"/><path id="u" fill="#1d1d1b" d="M0 0h1.534v-2.687C2.287-.978 3.782.237 5.731.179v-1.654H5.61c-2.244 0-4.076-1.612-4.076-4.714v-4.1H0Z"/><path id="ap" fill="#1d1d1b" d="M0 0c-.159 1.852-1.211 3.502-3.281 3.502-1.813 0-3.125-1.51-3.343-3.502Zm-8.177-.598v.043c0 2.962 2.07 5.35 4.935 5.35 3.044 0 4.795-2.427 4.795-5.432 0-.217 0-.318-.019-.497h-8.158c.218-2.228 1.79-3.482 3.623-3.482 1.433 0 2.388.578 3.242 1.452l.955-.854c-1.037-1.173-2.268-1.93-4.24-1.93-2.803 0-5.133 2.166-5.133 5.35"/><path id="aJ" fill="#1d1d1b" d="M0 0v6.208h-1.437v1.351H0v3.106h1.53V7.559h3.261V6.208H1.53V.198c0-1.273.699-1.712 1.731-1.712.536 0 .955.101 1.491.361v-1.316c-.536-.295-1.11-.435-1.848-.435C1.235-2.904 0-2.089 0 0"/><color-profile name="sRGB IEC61966-2.1"/></defs><g transform="translate(-19625.518 -807.002)"><g clip-path="url(#d)" opacity=".2"><use clip-path="url(#e)" href="#f" transform="matrix(1.33333 0 0 -1.33333 19950.56 852.381)"/></g><path fill="#1d1d1b" d="m0 0 .971 1.149C2.427-.182 3.82-.819 5.746-.819c1.895 0 3.106.998 3.106 2.368v.043c0 1.289-.695 2.007-3.618 2.644C2.027 4.931.555 5.963.555 8.254v.039c0 2.17 1.93 3.805 4.578 3.805 2.05 0 3.463-.583 4.892-1.716L9.112 9.17c-1.293 1.056-2.589 1.515-4.018 1.515-1.833 0-2.966-.979-2.966-2.252v-.039c0-1.312.698-2.069 3.781-2.706 3.106-.695 4.535-1.813 4.535-3.941v-.039c0-2.387-1.988-3.937-4.752-3.937C3.463-2.229 1.669-1.514 0 0" clip-path="url(#g)" transform="matrix(1.33333 0 0 -1.33333 19887.392 1346.822)"/><path fill="#1d1d1b" d="M0 0v.039C0 3.98 2.962 7.245 7.043 7.245c2.523 0 4.061-.878 5.431-2.213l-1.075-1.15C10.203 4.993 8.93 5.793 7.02 5.793c-3.083 0-5.389-2.508-5.389-5.715V.039c0-3.223 2.306-5.75 5.389-5.75 1.91 0 3.168.734 4.499 2.007l1.037-1.009c-1.437-1.476-3.067-2.45-5.575-2.45C2.962-7.163 0-3.999 0 0" clip-path="url(#h)" transform="matrix(1.33333 0 0 -1.33333 19904.755 1340.3)"/><path fill="#1d1d1b" d="m0 0-3.168 7.105L-6.352 0Zm-3.882 8.937h1.475L3.937-5.094H2.244L.613-1.413h-7.578l-1.654-3.681h-1.607z" clip-path="url(#i)" transform="matrix(1.33333 0 0 -1.33333 19937.181 1342.743)"/><path fill="#1d1d1b" d="M0 0c2.31 0 3.82 1.231 3.82 3.059v.043c0 1.992-1.494 3.025-3.738 3.025h-3.526V0Zm-5.012 7.579h5.21c3.145 0 5.214-1.67 5.214-4.419v-.038c0-3.006-2.508-4.559-5.47-4.559h-3.386v-4.915h-1.568z" clip-path="url(#j)" transform="matrix(1.33333 0 0 -1.33333 19960.709 1341.065)"/><path fill="#1d1d1b" d="M0 0h1.537v-2.687C2.291-.975 3.781.241 5.73.179v-1.65h-.116c-2.248 0-4.077-1.612-4.077-4.718v-4.1H0Z" clip-path="url(#k)" transform="matrix(1.33333 0 0 -1.33333 19971.378 1335.816)"/><path fill="#1d1d1b" d="M0 0v.039c0 2.213-1.654 4.022-3.82 4.022-2.229 0-3.766-1.809-3.766-3.979V.039c0-2.205 1.634-3.999 3.804-3.999C-1.553-3.96 0-2.147 0 0m-9.155 0v.039c0 2.927 2.248 5.373 5.373 5.373 3.103 0 5.35-2.422 5.35-5.33V.039c0-2.92-2.29-5.37-5.388-5.37-3.087 0-5.335 2.427-5.335 5.331" clip-path="url(#l)" transform="matrix(1.33333 0 0 -1.33333 19992.892 1342.743)"/><path fill="#1d1d1b" d="M0 0v6.212h-1.437v1.351H0v3.106h1.53V7.563h3.261V6.212H1.53V.202c0-1.274.699-1.712 1.731-1.712.536 0 .955.097 1.491.361v-1.316c-.536-.299-1.11-.439-1.848-.439C1.235-2.904 0-2.089 0 0" clip-path="url(#m)" transform="matrix(1.33333 0 0 -1.33333 19999.374 1345.9)"/><use clip-path="url(#n)" href="#o" transform="matrix(1.33333 0 0 -1.33333 20020.318 1342.743)"/><path fill="#1d1d1b" d="M0 0v.039c0 2.927 2.252 5.373 5.276 5.373 1.949 0 3.141-.792 4.12-1.828L8.378 2.508c-.815.854-1.708 1.553-3.121 1.553-2.089 0-3.681-1.751-3.681-3.979V.039c0-2.229 1.631-3.999 3.782-3.999 1.328 0 2.325.66 3.141 1.537l.974-.916C8.441-4.515 7.206-5.331 5.276-5.331 2.252-5.331 0-2.881 0 0" clip-path="url(#p)" transform="matrix(1.33333 0 0 -1.33333 20025.236 1342.743)"/><use clip-path="url(#q)" href="#o" transform="matrix(1.33333 0 0 -1.33333 20052.175 1342.743)"/><path fill="#1d1d1b" d="M1498.596 82.377h1.537V67.849h-1.537z" clip-path="url(#r)" transform="matrix(1.33333 0 0 -1.33333 18060 1440)"/><path fill="#1d1d1b" d="M0 0h10.005v-1.452H1.568v-4.977h7.54v-1.433h-7.54v-6.068H0Z" clip-path="url(#s)" transform="matrix(1.33333 0 0 -1.33333 19907.778 807.002)"/><use clip-path="url(#t)" href="#u" transform="matrix(1.33333 0 0 -1.33333 19924.814 811.857)"/><path fill="#1d1d1b" d="M0 0v.994c-.776.217-1.751.439-3.024.439-1.93 0-3.006-.835-3.006-2.132v-.039c0-1.293 1.216-2.05 2.59-2.05C-1.53-2.788 0-1.631 0 0m-7.579-.796v.039c0 2.147 1.786 3.323 4.395 3.323 1.336 0 2.229-.178 3.165-.438v.357c0 1.852-1.134 2.807-3.064 2.807-1.215 0-2.17-.299-3.125-.757l-.458 1.254c1.133.539 2.228.858 3.739.858 1.456 0 2.57-.381 3.323-1.134.699-.699 1.056-1.716 1.056-3.005v-6.29H-.019v1.553c-.719-.935-1.891-1.77-3.724-1.77-1.91 0-3.836 1.072-3.836 3.203" clip-path="url(#v)" transform="matrix(1.33333 0 0 -1.33333 19943.963 820.533)"/><path fill="#1d1d1b" d="M0 0v.039c0 2.112-1.833 3.486-3.781 3.486-1.969 0-3.561-1.355-3.561-3.463V.023c0-2.073 1.65-3.502 3.561-3.502C-1.833-3.479 0-2.065 0 0m-8.437-7.419.695 1.191c1.196-.854 2.47-1.312 3.961-1.312 2.29 0 3.742 1.254 3.742 3.661v1.216C-.936-3.859-2.19-4.834-4.077-4.834c-2.469 0-4.837 1.872-4.837 4.815v.042c0 3.005 2.368 4.853 4.837 4.853 1.926 0 3.161-.955 4.015-2.069v1.852h1.533V-3.84c0-1.592-.454-2.784-1.312-3.638-.935-.939-2.267-1.374-3.917-1.374-1.732 0-3.308.477-4.679 1.433" clip-path="url(#w)" transform="matrix(1.33333 0 0 -1.33333 19961.325 818.07)"/><use clip-path="url(#x)" href="#u" transform="matrix(1.33333 0 0 -1.33333 19967.832 811.857)"/><path fill="#1d1d1b" d="M0 0v.994c-.776.217-1.755.439-3.028.439-1.926 0-3.005-.835-3.005-2.132v-.039c0-1.293 1.215-2.05 2.589-2.05C-1.534-2.788 0-1.631 0 0m-7.583-.796v.039c0 2.147 1.79 3.323 4.399 3.323 1.332 0 2.229-.178 3.161-.438v.357c0 1.852-1.134 2.807-3.064 2.807-1.215 0-2.17-.299-3.125-.757l-.458 1.254c1.137.539 2.228.858 3.743.858 1.452 0 2.566-.381 3.323-1.134.699-.699 1.056-1.716 1.056-3.005v-6.29H-.023v1.553c-.715-.935-1.887-1.77-3.72-1.77-1.91 0-3.84 1.072-3.84 3.203" clip-path="url(#y)" transform="matrix(1.33333 0 0 -1.33333 19986.981 820.533)"/><path fill="#1d1d1b" d="M0 0h1.534v-1.794C2.229-.676 3.285.217 5.055.217c2.465 0 3.941-1.669 3.941-4.119v-6.387H7.462v6.01c0 1.911-1.013 3.103-2.846 3.103-1.77 0-3.082-1.293-3.082-3.223v-5.89H0Z" clip-path="url(#z)" transform="matrix(1.33333 0 0 -1.33333 19993.249 811.857)"/><path fill="#1d1d1b" d="M0 0v.039c0 2.927 2.248 5.373 5.276 5.373 1.949 0 3.141-.796 4.116-1.832L8.378 2.508c-.815.854-1.712 1.553-3.125 1.553-2.089 0-3.681-1.755-3.681-3.983V.039c0-2.229 1.631-3.999 3.782-3.999 1.332 0 2.329.656 3.145 1.533l.974-.916C8.437-4.519 7.202-5.335 5.276-5.335 2.248-5.335 0-2.885 0 0" clip-path="url(#A)" transform="matrix(1.33333 0 0 -1.33333 20008.728 818.784)"/><path fill="#1d1d1b" d="M0 0c-.159 1.852-1.211 3.502-3.285 3.502-1.809 0-3.121-1.51-3.339-3.502Zm-8.177-.598v.043c0 2.962 2.07 5.35 4.935 5.35 3.044 0 4.795-2.427 4.795-5.432 0-.221 0-.318-.019-.497h-8.158c.218-2.228 1.79-3.482 3.619-3.482 1.432 0 2.388.574 3.246 1.452l.955-.854C.159-5.195-1.072-5.952-3.044-5.952c-2.803 0-5.133 2.17-5.133 5.354" clip-path="url(#B)" transform="matrix(1.33333 0 0 -1.33333 20034.368 817.96)"/><path fill="#1d1d1b" d="m0 0-2.504-.695-.52 1.992L.738 2.489H2.43v-14.028H0Z" clip-path="url(#C)" transform="matrix(1.33333 0 0 -1.33333 19968.495 846.23)"/><g clip-path="url(#D)" opacity=".2"><use clip-path="url(#E)" href="#f" transform="matrix(1.33333 0 0 -1.33333 20129.952 943.598)"/></g><path fill="#1d1d1b" d="m0 0 4.795 4.084C6.686 5.715 7.4 6.569 7.4 7.843c0 1.351-.971 2.166-2.244 2.166S3.005 9.333 1.949 7.92L.202 9.295c1.332 1.848 2.663 2.904 5.133 2.904 2.702 0 4.596-1.67 4.596-4.158v-.039c0-2.209-1.157-3.366-3.622-5.393L3.444.221h6.627v-2.147H0Z" clip-path="url(#F)" transform="matrix(1.33333 0 0 -1.33333 20141.389 950.26)"/><g clip-path="url(#G)" opacity=".2"><use clip-path="url(#H)" href="#f" transform="matrix(1.33333 0 0 -1.33333 20169.193 1113.59)"/></g><path fill="#1d1d1b" d="m0 0 1.708 1.611C2.725.419 3.797-.217 5.37-.217c1.354 0 2.407.834 2.407 2.108v.039c0 1.374-1.231 2.15-3.203 2.15H3.44l-.396 1.53 3.758 3.999H.773v2.132h9.213V9.908L6.107 5.929c2.108-.257 4.1-1.332 4.1-3.898v-.043c0-2.566-1.972-4.415-4.876-4.415C2.885-2.427 1.192-1.433 0 0" clip-path="url(#I)" transform="matrix(1.33333 0 0 -1.33333 20180.473 1119.904)"/><g clip-path="url(#J)" opacity=".2"><use clip-path="url(#K)" href="#f" transform="matrix(1.33333 0 0 -1.33333 20050.619 1266.31)"/></g><path fill="#1d1d1b" d="M0 0v5.513L-4.578 0Zm0-2.011h-7.023L-7.482-.26.26 8.891h2.089V0h1.988v-2.011H2.349v-3.122H0Z" clip-path="url(#L)" transform="matrix(1.33333 0 0 -1.33333 20071.686 1268.696)"/><g clip-path="url(#M)" opacity=".2"><use clip-path="url(#N)" href="#f" transform="matrix(1.33333 0 0 -1.33333 19851.45 1266.31)"/></g><path fill="#1d1d1b" d="m0 0 1.514 1.77C2.625.738 3.801.101 5.094.101c1.669 0 2.764.955 2.764 2.407v.039c0 1.436-1.192 2.31-2.884 2.31-1.014 0-1.852-.28-2.567-.617l-1.471.974.396 6.826h8.335V9.854H3.44l-.217-3.246a5.9 5.9 0 0 0 2.209.396c2.706 0 4.857-1.429 4.857-4.376v-.042c0-2.842-2.089-4.714-5.176-4.714C2.966-2.128 1.332-1.273 0 0" clip-path="url(#O)" transform="matrix(1.33333 0 0 -1.33333 19862.834 1273.024)"/><g clip-path="url(#P)" opacity=".2"><use clip-path="url(#Q)" href="#f" transform="matrix(1.33333 0 0 -1.33333 19736.268 1113.59)"/></g><path fill="#1d1d1b" d="M0 0v.039c0 1.413-1.095 2.426-2.846 2.426-1.732 0-2.826-1.114-2.826-2.446v-.038c0-1.433 1.137-2.489 2.888-2.489S0-1.433 0 0m-6.604-3.164C-7.66-2.108-8.297-.656-8.297 2.147v.043c0 4.236 2.031 7.578 5.968 7.578 1.813 0 3.047-.574 4.259-1.553L.617 6.305c-.974.777-1.77 1.235-3.024 1.235-2.446 0-3.285-2.528-3.343-4.438.815.858 1.829 1.413 3.343 1.413 2.706 0 4.853-1.591 4.853-4.375V.097c0-2.784-2.248-4.733-5.172-4.733-1.731 0-2.946.536-3.878 1.472" clip-path="url(#R)" transform="matrix(1.33333 0 0 -1.33333 19758.981 1116.958)"/><g clip-path="url(#S)" opacity=".2"><use clip-path="url(#T)" href="#f" transform="matrix(1.33333 0 0 -1.33333 19771.787 943.598)"/></g><path fill="#1d1d1b" d="M0 0h-7.004v2.147h9.788V.295l-6.267-12.074h-2.768z" clip-path="url(#U)" transform="matrix(1.33333 0 0 -1.33333 19793.069 937.122)"/><path fill="#1d1d1b" d="M0 0h10.009v-1.452H1.573v-4.974h7.539v-1.432H1.573v-6.068H0Z" clip-path="url(#V)" transform="matrix(1.33333 0 0 -1.33333 20178.366 932.65)"/><path fill="#1d1d1b" d="M1601.692 381.111h1.534v-14.524h-1.534z" clip-path="url(#W)" transform="matrix(1.33333 0 0 -1.33333 18060 1440)"/><path fill="#1d1d1b" d="M0 0v.998c-.776.221-1.751.439-3.024.439-1.93 0-3.006-.839-3.006-2.128v-.043c0-1.293 1.216-2.046 2.59-2.046C-1.53-2.78 0-1.631 0 0m-7.579-.792v.039c0 2.151 1.786 3.323 4.395 3.323 1.336 0 2.229-.178 3.165-.438v.361c0 1.848-1.134 2.803-3.064 2.803-1.215 0-2.17-.299-3.125-.753l-.458 1.25c1.133.535 2.228.854 3.739.854 1.456 0 2.57-.377 3.323-1.134.699-.695 1.056-1.708 1.056-3.005v-6.286H-.019v1.549c-.719-.931-1.891-1.77-3.724-1.77-1.91 0-3.836 1.079-3.836 3.207" clip-path="url(#X)" transform="matrix(1.33333 0 0 -1.33333 20211.45 946.18)"/><path fill="#1d1d1b" d="M0 0h1.693l3.463-8.534L8.635 0h1.654L5.812-10.366H4.457Z" clip-path="url(#Y)" transform="matrix(1.33333 0 0 -1.33333 20215.84 937.505)"/><path fill="#1d1d1b" d="M0 0v.043c0 2.205-1.65 4.014-3.82 4.014-2.229 0-3.763-1.809-3.763-3.975V.043c0-2.213 1.631-4.003 3.801-4.003C-1.553-3.96 0-2.147 0 0m-9.155 0v.043c0 2.919 2.248 5.369 5.373 5.369 3.103 0 5.354-2.426 5.354-5.33V.043c0-2.928-2.29-5.374-5.392-5.374-3.087 0-5.335 2.423-5.335 5.331" clip-path="url(#Z)" transform="matrix(1.33333 0 0 -1.33333 20243.313 944.426)"/><path fill="#1d1d1b" d="M0 0h1.534v-2.687C2.287-.971 3.778.241 5.73.179v-1.647h-.12c-2.248 0-4.076-1.615-4.076-4.721v-4.096H0Z" clip-path="url(#aa)" transform="matrix(1.33333 0 0 -1.33333 20249.079 937.505)"/><path fill="#1d1d1b" d="m0 0-3.164 7.105L-6.348 0Zm-3.879 8.934h1.472L3.941-5.094H2.248L.617-1.413h-7.582l-1.65-3.681h-1.611z" clip-path="url(#ab)" transform="matrix(1.33333 0 0 -1.33333 20114.062 1267.138)"/><path fill="#1d1d1b" d="M0 0v.043c0 2.923 2.248 5.369 5.272 5.369 1.949 0 3.141-.796 4.12-1.828L8.375 2.508c-.816.854-1.713 1.553-3.122 1.553-2.093 0-3.684-1.751-3.684-3.979V.043c0-2.229 1.634-4.003 3.781-4.003 1.336 0 2.33.66 3.145 1.533l.974-.916C8.437-4.515 7.202-5.331 5.272-5.331 2.248-5.331 0-2.885 0 0" clip-path="url(#ac)" transform="matrix(1.33333 0 0 -1.33333 20121.102 1267.138)"/><path fill="#1d1d1b" d="M1557.952 134.841h1.534v-10.289h-1.534zm-.101 3.941h1.751v-1.693h-1.751z" clip-path="url(#ad)" transform="matrix(1.33333 0 0 -1.33333 18060 1440)"/><path fill="#1d1d1b" d="M0 0v.039c0 2.368-1.813 3.96-3.723 3.96-1.988 0-3.619-1.475-3.619-3.96V0c0-2.45 1.65-3.98 3.619-3.98C-1.813-3.98 0-2.368 0 0m-8.914-.023v.042c0 3.343 2.446 5.35 4.915 5.35 1.91 0 3.141-1.013 3.937-2.185v6.208h1.533V-5.137H-.062v2.07c-.854-1.231-2.027-2.287-3.937-2.287-2.469 0-4.915 1.949-4.915 5.331" clip-path="url(#ae)" transform="matrix(1.33333 0 0 -1.33333 20155.144 1267.08)"/><path fill="#1d1d1b" d="M1576.378 134.841h1.534v-10.289h-1.534zm-.101 3.941h1.751v-1.693h-1.751z" clip-path="url(#af)" transform="matrix(1.33333 0 0 -1.33333 18060 1440)"/><path fill="#1d1d1b" d="M0 0v6.208h-1.433v1.355H0v3.102h1.534V7.563h3.261V6.208H1.534V.202c0-1.274.695-1.712 1.727-1.712.54 0 .955.101 1.495.357v-1.312c-.54-.299-1.114-.439-1.852-.439C1.235-2.904 0-2.089 0 0" clip-path="url(#ag)" transform="matrix(1.33333 0 0 -1.33333 20169.338 1270.296)"/><path fill="#1d1d1b" d="M0 0h1.635l-4.318-10.626c-.877-2.128-1.891-2.904-3.424-2.904-.854 0-1.491.178-2.19.516l.52 1.215c.497-.26.955-.38 1.612-.38.935 0 1.49.477 2.108 1.933L-8.732 0h1.689L-3.3-8.576Z" clip-path="url(#ah)" transform="matrix(1.33333 0 0 -1.33333 20189.594 1260.211)"/><path fill="#1d1d1b" d="M0 0h1.592l5.074-7.602L11.741 0h1.592v-13.93H11.76v11.282L6.686-10.11h-.078L1.534-2.667V-13.93H0Z" clip-path="url(#ai)" transform="matrix(1.33333 0 0 -1.33333 19709.621 1255.356)"/><path fill="#1d1d1b" d="M0 0v.043c0 2.205-1.65 4.018-3.82 4.018-2.229 0-3.763-1.813-3.763-3.979V.043c0-2.209 1.635-4.003 3.802-4.003C-1.553-3.96 0-2.147 0 0m-9.151 0v.043c0 2.923 2.248 5.369 5.37 5.369 3.105 0 5.353-2.426 5.353-5.33V.043c0-2.928-2.286-5.374-5.392-5.374-3.083 0-5.331 2.427-5.331 5.331" clip-path="url(#aj)" transform="matrix(1.33333 0 0 -1.33333 19743.637 1267.138)"/><path fill="#1d1d1b" d="M0 0v6.387h1.534V.377c0-1.911 1.013-3.102 2.845-3.102 1.751 0 3.083 1.292 3.083 3.222v5.89h1.51V-3.902h-1.51v1.794c-.695-1.114-1.751-2.011-3.521-2.011C1.471-4.119 0-2.45 0 0" clip-path="url(#ak)" transform="matrix(1.33333 0 0 -1.33333 19749.192 1268.727)"/><path fill="#1d1d1b" d="M0 0v6.208h-1.433v1.355H0v3.102h1.534V7.563h3.265V6.208H1.534V.202c0-1.274.695-1.712 1.731-1.712.536 0 .955.101 1.491.357v-1.312c-.536-.299-1.114-.439-1.848-.439C1.235-2.904 0-2.089 0 0" clip-path="url(#al)" transform="matrix(1.33333 0 0 -1.33333 19766.445 1270.296)"/><path fill="#1d1d1b" d="M0 0h1.53v-6.029c.699 1.114 1.751 2.007 3.521 2.007 2.469 0 3.941-1.67 3.941-4.12v-6.386H7.458v6.01c0 1.91-1.013 3.106-2.842 3.106-1.774 0-3.086-1.297-3.086-3.227v-5.889H0Z" clip-path="url(#am)" transform="matrix(1.33333 0 0 -1.33333 19776.441 1254.559)"/><path fill="#1d1d1b" d="M0 0h-1.413v1.336H0v.893c0 1.176.299 2.049.897 2.647.536.536 1.273.796 2.209.796.714 0 1.192-.077 1.689-.26V4.08c-.555.16-.955.261-1.491.261-1.196 0-1.79-.738-1.79-2.19v-.835h3.262V0H1.534v-8.934H0Z" clip-path="url(#an)" transform="matrix(1.33333 0 0 -1.33333 19793.535 1262.018)"/><use clip-path="url(#ao)" href="#ap" transform="matrix(1.33333 0 0 -1.33333 19812.279 1266.315)"/><use clip-path="url(#aq)" href="#ap" transform="matrix(1.33333 0 0 -1.33333 19827.97 1266.315)"/><path fill="#1d1d1b" d="M1330.345 139.081h1.534v-14.528h-1.534z" clip-path="url(#ar)" transform="matrix(1.33333 0 0 -1.33333 18060 1440)"/><path fill="#1d1d1b" d="M0 0c0 1.514-1.258 2.384-3.704 2.384h-4.395v-4.911h4.675C-1.297-2.527 0-1.615 0-.039zm-.776 6.305c0 1.375-1.095 2.268-3.083 2.268h-4.24V3.782h4.115c1.911 0 3.208.83 3.208 2.484zm-8.876 3.681h5.929c1.592 0 2.846-.458 3.641-1.235.594-.613.897-1.37.897-2.228v-.039c0-1.809-1.118-2.741-2.213-3.223 1.654-.473 2.99-1.471 2.99-3.362V-.14c0-2.387-2.011-3.801-5.055-3.801h-6.189z" clip-path="url(#as)" transform="matrix(1.33333 0 0 -1.33333 19638.386 1115.954)"/><path fill="#1d1d1b" d="M0 0v.998c-.776.221-1.747.439-3.021.439-1.933 0-3.005-.839-3.005-2.128v-.043c0-1.293 1.212-2.046 2.586-2.046C-1.53-2.78 0-1.631 0 0m-7.579-.792v.039c0 2.151 1.79 3.323 4.395 3.323 1.336 0 2.229-.178 3.168-.439v.362c0 1.848-1.133 2.803-3.067 2.803-1.211 0-2.166-.299-3.121-.754l-.458 1.251c1.133.535 2.228.854 3.738.854 1.456 0 2.567-.377 3.324-1.134.695-.695 1.052-1.708 1.052-3.005v-6.286H-.016v1.549c-.718-.931-1.894-1.77-3.723-1.77-1.91 0-3.84 1.079-3.84 3.207" clip-path="url(#at)" transform="matrix(1.33333 0 0 -1.33333 19653.377 1116.171)"/><path fill="#1d1d1b" d="M1199.878 253.618h1.53v-14.524h-1.53z" clip-path="url(#au)" transform="matrix(1.33333 0 0 -1.33333 18060 1440)"/><path fill="#1d1d1b" d="M0 0v.998c-.776.221-1.755.439-3.028.439-1.926 0-3.005-.839-3.005-2.128v-.043c0-1.293 1.219-2.046 2.589-2.046C-1.534-2.78 0-1.631 0 0m-7.583-.792v.039c0 2.151 1.79 3.323 4.399 3.323a10.8 10.8 0 0 0 3.161-.439v.362c0 1.848-1.134 2.803-3.064 2.803-1.215 0-2.17-.299-3.125-.754l-.458 1.251c1.134.535 2.228.854 3.743.854 1.452 0 2.57-.377 3.323-1.134.699-.695 1.056-1.708 1.056-3.005v-6.286H-.023v1.549c-.715-.931-1.887-1.77-3.72-1.77-1.91 0-3.84 1.079-3.84 3.207" clip-path="url(#av)" transform="matrix(1.33333 0 0 -1.33333 19675.699 1116.171)"/><path fill="#1d1d1b" d="M0 0h1.53v-1.786C2.229-.676 3.281.221 5.051.221c2.465 0 3.941-1.673 3.941-4.119v-6.387H7.458v6.007c0 1.91-1.013 3.105-2.846 3.105-1.77 0-3.082-1.292-3.082-3.222v-5.89H0Z" clip-path="url(#aw)" transform="matrix(1.33333 0 0 -1.33333 19681.973 1107.495)"/><path fill="#1d1d1b" d="M0 0v.043c0 2.919 2.244 5.369 5.272 5.369 1.949 0 3.141-.796 4.116-1.828l-1.013-1.08c-.82.858-1.713 1.553-3.126 1.553-2.089 0-3.681-1.747-3.681-3.975V.043c0-2.229 1.631-4.003 3.782-4.003 1.336 0 2.33.656 3.145 1.533l.97-.916C8.433-4.515 7.198-5.331 5.272-5.331 2.244-5.331 0-2.885 0 0" clip-path="url(#ax)" transform="matrix(1.33333 0 0 -1.33333 19697.451 1114.417)"/><path fill="#1d1d1b" d="M0 0c-.159 1.848-1.211 3.502-3.285 3.502-1.809 0-3.121-1.514-3.339-3.502Zm-8.177-.598v.039c0 2.966 2.066 5.354 4.931 5.354 3.048 0 4.799-2.427 4.799-5.432 0-.217 0-.318-.023-.497h-8.154c.218-2.228 1.786-3.482 3.619-3.482 1.437 0 2.392.578 3.246 1.452l.955-.858C.159-5.195-1.072-5.948-3.044-5.948c-2.803 0-5.133 2.166-5.133 5.35" clip-path="url(#ay)" transform="matrix(1.33333 0 0 -1.33333 19723.086 1113.593)"/><path fill="#1d1d1b" d="M0 0v.039c0 3.168-2.31 5.754-5.494 5.754s-5.451-2.547-5.451-5.711V.039c0-3.161 2.31-5.746 5.494-5.746S0-3.16 0 0m-12.575 0v.039c0 3.843 2.884 7.206 7.124 7.206 4.236 0 7.082-3.324 7.082-7.163V.039c0-3.836-2.885-7.198-7.125-7.198-4.235 0-7.081 3.323-7.081 7.159" clip-path="url(#az)" transform="matrix(1.33333 0 0 -1.33333 19682.765 941.988)"/><path fill="#1d1d1b" d="M0 0h1.689l3.463-8.534L8.635 0h1.65L5.812-10.366H4.457Z" clip-path="url(#aA)" transform="matrix(1.33333 0 0 -1.33333 19687.652 937.505)"/><path fill="#1d1d1b" d="M0 0c-.159 1.848-1.211 3.502-3.285 3.502-1.809 0-3.121-1.514-3.338-3.502Zm-8.177-.598v.039c0 2.966 2.07 5.354 4.935 5.354 3.044 0 4.795-2.427 4.795-5.432 0-.217 0-.318-.019-.497h-8.157c.217-2.228 1.789-3.482 3.618-3.482 1.433 0 2.388.578 3.246 1.452l.955-.858C.159-5.195-1.072-5.948-3.044-5.948c-2.803 0-5.133 2.166-5.133 5.35" clip-path="url(#aB)" transform="matrix(1.33333 0 0 -1.33333 19713.819 943.603)"/><path fill="#1d1d1b" d="M0 0h1.534v-2.687C2.287-.971 3.782.241 5.731.179v-1.647H5.61c-2.244 0-4.076-1.615-4.076-4.721v-4.096H0Z" clip-path="url(#aC)" transform="matrix(1.33333 0 0 -1.33333 19719.457 937.505)"/><path fill="#1d1d1b" d="M0 0v.998c-.776.221-1.755.439-3.028.439-1.926 0-3.005-.839-3.005-2.128v-.043c0-1.293 1.215-2.046 2.589-2.046C-1.534-2.78 0-1.631 0 0m-7.583-.792v.039c0 2.151 1.79 3.323 4.399 3.323 1.332 0 2.229-.178 3.161-.438v.361c0 1.848-1.134 2.803-3.064 2.803-1.215 0-2.17-.299-3.125-.753l-.458 1.25c1.138.535 2.228.854 3.743.854 1.452 0 2.566-.377 3.323-1.134.699-.695 1.056-1.708 1.056-3.005v-6.286H-.023v1.549c-.715-.931-1.887-1.77-3.72-1.77-1.91 0-3.84 1.079-3.84 3.207" clip-path="url(#aD)" transform="matrix(1.33333 0 0 -1.33333 19738.605 946.18)"/><path fill="#1d1d1b" d="M1263.795 381.111h1.534v-14.524h-1.534z" clip-path="url(#aE)" transform="matrix(1.33333 0 0 -1.33333 18060 1440)"/><path fill="#1d1d1b" d="M1269.025 381.111h1.53v-14.524h-1.53z" clip-path="url(#aF)" transform="matrix(1.33333 0 0 -1.33333 18060 1440)"/><path fill="#1d1d1b" d="m0 0-3.164 7.101L-6.348 0Zm-3.879 8.934h1.472L3.941-5.094H2.248L.617-1.413h-7.578l-1.654-3.681h-1.612z" clip-path="url(#aG)" transform="matrix(1.33333 0 0 -1.33333 20227.917 1114.417)"/><path fill="#1d1d1b" d="M0 0h-1.413v1.332H0v.897c0 1.172.299 2.05.897 2.647.536.536 1.273.796 2.205.796.718 0 1.196-.081 1.693-.26V4.08c-.559.16-.955.257-1.491.257-1.196 0-1.794-.734-1.794-2.19v-.835h3.265V0H1.534v-8.934H0Z" clip-path="url(#aH)" transform="matrix(1.33333 0 0 -1.33333 20236.707 1109.297)"/><use clip-path="url(#aI)" href="#aJ" transform="matrix(1.33333 0 0 -1.33333 20246.382 1117.574)"/><path fill="#1d1d1b" d="M0 0c-.159 1.848-1.215 3.502-3.281 3.502-1.813 0-3.125-1.514-3.346-3.502Zm-8.18-.598v.039c0 2.966 2.073 5.354 4.938 5.354 3.044 0 4.795-2.427 4.795-5.432 0-.221 0-.318-.019-.497h-8.161c.221-2.228 1.793-3.482 3.626-3.482 1.429 0 2.384.574 3.238 1.452l.955-.858c-1.033-1.173-2.267-1.93-4.236-1.93-2.807 0-5.136 2.17-5.136 5.354" clip-path="url(#aK)" transform="matrix(1.33333 0 0 -1.33333 20266.027 1113.593)"/><path fill="#1d1d1b" d="M0 0h1.53v-2.683C2.287-.975 3.781.241 5.731.182v-1.653H5.61c-2.248 0-4.08-1.612-4.08-4.714v-4.1H0Z" clip-path="url(#aL)" transform="matrix(1.33333 0 0 -1.33333 20271.665 1107.495)"/><use clip-path="url(#aM)" href="#aJ" transform="matrix(1.33333 0 0 -1.33333 20283.116 1117.574)"/><path fill="#1d1d1b" d="M0 0v.994c-.776.217-1.747.439-3.021.439-1.933 0-3.005-.839-3.005-2.132v-.039c0-1.293 1.212-2.05 2.586-2.05C-1.53-2.788 0-1.635 0 0m-7.578-.796v.039c0 2.147 1.789 3.323 4.394 3.323 1.336 0 2.229-.178 3.168-.438v.357c0 1.852-1.133 2.807-3.067 2.807-1.211 0-2.166-.299-3.121-.757l-.458 1.254c1.133.536 2.228.854 3.739.854 1.455 0 2.566-.377 3.323-1.134.695-.695 1.052-1.712 1.052-3.005v-6.286H-.016v1.553c-.718-.935-1.894-1.774-3.723-1.774-1.91 0-3.839 1.076-3.839 3.207" clip-path="url(#aN)" transform="matrix(1.33333 0 0 -1.33333 20302.176 1116.166)"/><path fill="#1d1d1b" d="m0 0 .776 1.095C1.887.241 3.122-.217 4.337-.217c1.254 0 2.131.617 2.131 1.63v.039c0 1.017-1.215 1.433-2.57 1.813-1.592.478-3.401.994-3.401 2.904v.039c0 1.771 1.475 2.947 3.502 2.947 1.273 0 2.648-.439 3.704-1.138l-.699-1.153c-.955.618-2.03.994-3.044.994-1.215 0-1.988-.637-1.988-1.491v-.039c0-.974 1.274-1.355 2.644-1.77C6.208 4.08 7.92 3.463 7.92 1.611v-.039c0-1.949-1.615-3.082-3.665-3.082C2.764-1.51 1.173-.936 0 0" clip-path="url(#aO)" transform="matrix(1.33333 0 0 -1.33333 20307.311 1119.458)"/><path fill="#1d1d1b" d="M0 0v6.208h-1.433v1.351H0v3.106h1.534V7.559h3.261V6.208H1.534V.198c0-1.273.695-1.712 1.731-1.712.536 0 .955.101 1.491.361v-1.316c-.536-.295-1.114-.435-1.848-.435C1.235-2.904 0-2.089 0 0" clip-path="url(#aP)" transform="matrix(1.33333 0 0 -1.33333 20322.101 1117.574)"/><path fill="#1d1d1b" d="M0 0c-.155 1.848-1.211 3.502-3.281 3.502-1.813 0-3.125-1.514-3.343-3.502Zm-8.177-.598v.039c0 2.966 2.074 5.354 4.939 5.354 3.044 0 4.791-2.427 4.791-5.432 0-.221 0-.318-.016-.497h-8.161c.218-2.228 1.794-3.482 3.619-3.482 1.437 0 2.392.574 3.246 1.452l.955-.858c-1.033-1.173-2.268-1.93-4.24-1.93-2.803 0-5.133 2.17-5.133 5.354" clip-path="url(#aQ)" transform="matrix(1.33333 0 0 -1.33333 20341.746 1113.593)"/><path fill="#c6bdad" d="m0 0-.874 146.742 1.988.016L1.988.016Z" clip-path="url(#aR)" transform="matrix(1.33333 0 0 -1.33333 19969.659 1074.24)"/><path fill="#c6bdad" d="m0 0-1.281 1.522L109.35 94.566l1.281-1.522z" clip-path="url(#aS)" transform="matrix(1.33333 0 0 -1.33333 19971.839 1075.245)"/><path fill="#c6bdad" d="m0 0-138.17 27.612.389 1.949L.388 1.949Z" clip-path="url(#aT)" transform="matrix(1.33333 0 0 -1.33333 20154.952 1112.346)"/><path fill="#c6bdad" d="m0 0-61.005 124.368 1.786.877L1.786.877Z" clip-path="url(#aU)" transform="matrix(1.33333 0 0 -1.33333 20051.135 1240.639)"/><path fill="#c6bdad" d="m0 0-1.778.885L60.757 126.53l1.778-.885z" clip-path="url(#aV)" transform="matrix(1.33333 0 0 -1.33333 19888.79 1242.347)"/><path fill="#c6bdad" d="m0 0-.388 1.949 139.913 27.612.388-1.949z" clip-path="url(#aW)" transform="matrix(1.33333 0 0 -1.33333 19784.693 1112.346)"/><path fill="#c6bdad" d="m0 0-112.375 93.044 1.266 1.529L1.266 1.53Z" clip-path="url(#aX)" transform="matrix(1.33333 0 0 -1.33333 19970.141 1075.25)"/><path fill="#c6bdad" d="M0 0h98.514l62.473 76.361-23.139 96.2-87.438 42.975-89.421-42.645-21.486-95.536Zm99.454-1.988H-.971l-.299.381-61.37 78.48.101.458 21.804 96.942.435.206 90.726 43.262.431-.209 88.707-43.597 23.59-98.071-.315-.381z" clip-path="url(#aY)" transform="matrix(1.33333 0 0 -1.33333 19904.455 1206.152)"/><path fill="#c6bdad" d="m0 0 73.802-1.646 46.136 58.986-15.814 71.178-66.565 32.764-67.555-32.768-15.153-71.496zm74.757-3.657L-.978-1.965l-.292.365-46.015 58.113 15.55 73.368.434.209 68.868 33.405 68.289-33.618.105-.462 16.12-72.556-.288-.373z" clip-path="url(#aZ)" transform="matrix(1.33333 0 0 -1.33333 19921.372 1171.453)"/><path fill="#c6bdad" d="M0 0h47.774l30.784 38.968-11.131 47.584-43.359 20.453-43.717-21.897-11.127-46.473Zm48.737-1.988H-.955l-.299.373-31.681 39.768 11.57 48.322 45.409 22.743 45.099-21.276 11.566-49.455-.295-.377Z" clip-path="url(#ba)" transform="matrix(1.33333 0 0 -1.33333 19939.159 1138.058)"/><path fill="#c6bdad" d="M0 0h22.778l16.058 17.343-4.488 24.363-22.475 9.95-20.853-9.624-5.777-23.101Zm23.648-1.988H-.971l-15.953 20.461.121.47 6.122 24.494 22.538 10.401 24.254-10.742 4.861-26.374z" clip-path="url(#bb)" transform="matrix(1.33333 0 0 -1.33333 19955.191 1103.344)"/><path fill="#fff" d="M1419.55 407.322h27.137v-11.811h-27.137z" clip-path="url(#bc)" transform="matrix(1.33333 0 0 -1.33333 18060 1440)"/><path fill="#c6bdad" d="M0 0v.023C0 .85-.807 1.471-1.91 1.471c-1.099 0-1.91-.609-1.91-1.448V0c0-.909.846-1.53 1.91-1.53S0-.909 0 0m.28-3.917v.023c0 .92-.983 1.588-2.19 1.588-1.219 0-2.186-.668-2.186-1.588v-.023c0-.851.811-1.565 2.186-1.565S.28-4.768.28-3.917m-5.335-.028v.028c0 1.005.718 1.685 1.724 2.053-.777.358-1.437.955-1.437 1.926v.023c0 1.289 1.328 2.213 2.858 2.213S.947 1.374.947.085V.062c0-.971-.66-1.568-1.436-1.926.994-.368 1.724-1.048 1.724-2.042v-.023c0-1.421-1.363-2.38-3.145-2.38-1.778 0-3.145.967-3.145 2.364" clip-path="url(#bd)" transform="matrix(1.33333 0 0 -1.33333 19960.89 902.407)"/><path fill="#c6bdad" d="M1428.417 398.26h1.099v-1.254h-1.099z" clip-path="url(#be)" transform="matrix(1.33333 0 0 -1.33333 18060 1440)"/><path fill="#c6bdad" d="m0 0 .621.683c.73-.714 1.522-1.149 2.38-1.149 1.196 0 2.023.792 2.023 1.856v.023c0 1.052-.874 1.755-2.081 1.755-.718 0-1.266-.202-1.755-.474l-.637.416.241 4.073h4.814v-.87H1.615l-.178-2.679c.489.229.943.373 1.65.373 1.626 0 2.892-.971 2.892-2.559v-.023c0-1.635-1.235-2.749-2.989-2.749C1.794-1.324.769-.761 0 0" clip-path="url(#bf)" transform="matrix(1.33333 0 0 -1.33333 19968.065 909.085)"/><path fill="#c6bdad" d="M0 0v.027C0 1.84-.99 3.49-2.559 3.49c-1.564 0-2.543-1.599-2.543-3.44V.027c0-1.817.99-3.471 2.567-3.471C-.955-3.444 0-1.829 0 0m-6.084 0v.027c0 2.337 1.398 4.325 3.549 4.325S.982 2.392.982.05V.027c0-2.345-1.39-4.329-3.541-4.329-2.162 0-3.525 1.961-3.525 4.302" clip-path="url(#bg)" transform="matrix(1.33333 0 0 -1.33333 19986.054 905.115)"/><path fill="#fff" d="M1423.378 352.747h19.48v-13.593h-19.48z" clip-path="url(#bh)" transform="matrix(1.33333 0 0 -1.33333 18060 1440)"/><path fill="#c6bdad" d="M0 0h-4.597v.862h5.676V.155l-3.804-7.66h-1.049z" clip-path="url(#bi)" transform="matrix(1.33333 0 0 -1.33333 19961.605 973.865)"/><path fill="#c6bdad" d="M1427.617 343.35h1.099v-1.254h-1.099z" clip-path="url(#bj)" transform="matrix(1.33333 0 0 -1.33333 18060 1440)"/><path fill="#c6bdad" d="m0 0 .621.679c.73-.718 1.522-1.145 2.38-1.145 1.196 0 2.023.788 2.023 1.852v.023c0 1.052-.874 1.759-2.081 1.759-.718 0-1.266-.206-1.755-.481l-.637.419.241 4.077h4.814v-.874H1.615l-.178-2.675c.489.225.943.369 1.65.369 1.626 0 2.892-.967 2.892-2.559v-.023c0-1.638-1.235-2.749-2.989-2.749C1.794-1.328.769-.769 0 0" clip-path="url(#bk)" transform="matrix(1.33333 0 0 -1.33333 19966.999 982.293)"/><path fill="#c6bdad" d="M0 0v.023C0 1.84-.99 3.49-2.559 3.49c-1.564 0-2.543-1.603-2.543-3.443V.023c0-1.817.99-3.463 2.567-3.463C-.955-3.44 0-1.829 0 0m-6.084 0v.023c0 2.345 1.398 4.325 3.549 4.325S.982 2.392.982.047V.023c0-2.341-1.39-4.325-3.541-4.325-2.162 0-3.525 1.961-3.525 4.302" clip-path="url(#bl)" transform="matrix(1.33333 0 0 -1.33333 19984.988 978.328)"/><path fill="#fff" d="M1419.107 321.17h28.023v-11.811h-28.023z" clip-path="url(#bm)" transform="matrix(1.33333 0 0 -1.33333 18060 1440)"/><path fill="#c6bdad" d="M0 0h-4.601v.862h5.676V.155l-3.8-7.66h-1.053z" clip-path="url(#bn)" transform="matrix(1.33333 0 0 -1.33333 19960.947 1014.963)"/><path fill="#c6bdad" d="M1427.12 312.527h1.103v-1.254h-1.103z" clip-path="url(#bo)" transform="matrix(1.33333 0 0 -1.33333 18060 1440)"/><path fill="#c6bdad" d="M0 0v.027C0 1.84-.994 3.49-2.555 3.49c-1.568 0-2.547-1.599-2.547-3.44V.027c0-1.817.99-3.467 2.571-3.467C-.955-3.44 0-1.829 0 0m-6.08 0v.027c0 2.341 1.398 4.325 3.549 4.325S.978 2.392.978.05V.027c0-2.345-1.382-4.329-3.533-4.329C-4.721-4.302-6.08-2.341-6.08 0" clip-path="url(#bp)" transform="matrix(1.33333 0 0 -1.33333 19974.277 1019.425)"/><path fill="#c6bdad" d="M0 0v.027C0 1.84-.99 3.49-2.555 3.49c-1.568 0-2.547-1.599-2.547-3.44V.027c0-1.817.994-3.467 2.571-3.467C-.955-3.44 0-1.829 0 0m-6.08 0v.027c0 2.341 1.398 4.325 3.549 4.325S.982 2.392.982.05V.027c0-2.345-1.386-4.329-3.537-4.329C-4.717-4.302-6.08-2.341-6.08 0" clip-path="url(#bq)" transform="matrix(1.33333 0 0 -1.33333 19985.645 1019.425)"/><path fill="#fff" d="M1422.336 297.967h21.564v-12.138h-21.564z" clip-path="url(#br)" transform="matrix(1.33333 0 0 -1.33333 18060 1440)"/><path fill="#c6bdad" d="M0 0v.023c0 1.018-.835 1.794-2.042 1.794-1.258 0-2.089-.908-2.089-1.833v-.023c0-1.064.87-1.875 2.112-1.875C-.788-1.914 0-1.064 0 0m-4.232-1.902C-4.9-1.235-5.28-.373-5.28 1.336v.023c0 2.547 1.277 4.542 3.478 4.542 1.002 0 1.744-.345 2.47-.955l-.548-.73c-.621.528-1.207.823-1.972.823-1.627 0-2.461-1.692-2.461-3.583v-.12c.563.815 1.292 1.289 2.387 1.289 1.569 0 2.897-.99 2.897-2.567V.035c0-1.615-1.317-2.784-3.002-2.784-.92 0-1.673.319-2.201.847" clip-path="url(#bs)" transform="matrix(1.33333 0 0 -1.33333 19961.201 1052.706)"/><path fill="#c6bdad" d="M1428.517 289.12h1.095v-1.258h-1.095z" clip-path="url(#bt)" transform="matrix(1.33333 0 0 -1.33333 18060 1440)"/><path fill="#c6bdad" d="m0 0 .621.679c.73-.714 1.518-1.145 2.376-1.145 1.196 0 2.023.788 2.023 1.852v.023c0 1.056-.874 1.759-2.077 1.759-.722 0-1.27-.206-1.759-.477l-.633.419.241 4.073h4.814v-.874H1.615l-.178-2.675c.489.229.939.369 1.646.369 1.626 0 2.892-.967 2.892-2.555v-.023c0-1.639-1.231-2.749-2.985-2.749C1.794-1.324.765-.765 0 0" clip-path="url(#bu)" transform="matrix(1.33333 0 0 -1.33333 19968.2 1054.606)"/><path fill="#c6bdad" d="M0 0v.023C0 1.84-.99 3.486-2.555 3.486c-1.568 0-2.547-1.599-2.547-3.439V.023c0-1.817.994-3.467 2.571-3.467C-.955-3.444 0-1.833 0 0m-6.08 0v.023c0 2.341 1.398 4.325 3.549 4.325S.982 2.392.982.047V.023c0-2.345-1.386-4.325-3.537-4.325C-4.721-4.302-6.08-2.345-6.08 0" clip-path="url(#bv)" transform="matrix(1.33333 0 0 -1.33333 19986.183 1050.635)"/><path fill="#fff" d="M1427.042 280.69h12.151v-12.138h-12.151z" clip-path="url(#bw)" transform="matrix(1.33333 0 0 -1.33333 18060 1440)"/><path fill="#c6bdad" d="M0 0q.373 0 .699.148.328.14.574.392t.389.578q.14.327.14.699a1.73 1.73 0 0 1-.529 1.258 1.9 1.9 0 0 1-.574.388 1.8 1.8 0 0 1-.699.14 1.77 1.77 0 0 1-1.266-.528 1.8 1.8 0 0 1-.388-.567 1.7 1.7 0 0 1-.144-.691q0-.372.144-.699c.093-.217.225-.411.388-.578s.35-.299.571-.392Q-.365.001 0 0m3.056 1.817q0-.613-.233-1.149a2.8 2.8 0 0 0-.641-.932 3 3 0 0 0-.974-.629A3.3 3.3 0 0 0 0-1.118c-.466 0-.893.085-1.273.256a2.76 2.76 0 0 0-.979.738 3.3 3.3 0 0 0-.625 1.18 5.3 5.3 0 0 0-.221 1.584q0 1.212.233 2.128c.155.605.372 1.118.652 1.525q.414.614 1.009.925.601.309 1.336.31c.544 0 1.037-.124 1.487-.369A2.97 2.97 0 0 0 2.71 6.111l-.777-.815a2.1 2.1 0 0 1-.753.796 2.06 2.06 0 0 1-1.071.291q-.896 0-1.425-.757-.531-.758-.555-2.132.265.542.788.85.522.308 1.207.307.617.002 1.157-.217a2.9 2.9 0 0 0 .928-.606c.26-.252.47-.551.617-.901.156-.341.23-.714.23-1.11" clip-path="url(#bx)" transform="matrix(1.33333 0 0 -1.33333 19970.892 1077.885)"/><path fill="#fff" d="M1425.115 384.857h16.006v-12.274h-16.006z" clip-path="url(#by)" transform="matrix(1.33333 0 0 -1.33333 18060 1440)"/><path fill="#c6bdad" d="M0 0v.023c0 .823-.815 1.445-1.914 1.445S-3.828.858-3.828.023V0c0-.909.85-1.53 1.914-1.53S0-.909 0 0m.272-3.921v.023c0 .92-.979 1.592-2.186 1.592-1.219 0-2.186-.672-2.186-1.592v-.023c0-.847.812-1.565 2.186-1.565S.272-4.768.272-3.921m-5.327-.024v.024c0 1.005.714 1.685 1.72 2.057-.78.358-1.433.955-1.433 1.922v.024c0 1.292 1.324 2.213 2.854 2.213S.943 1.374.943.082V.058c0-.967-.656-1.564-1.432-1.922.99-.372 1.716-1.052 1.716-2.046v-.023c0-1.421-1.359-2.38-3.141-2.38s-3.141.971-3.141 2.368" clip-path="url(#bz)" transform="matrix(1.33333 0 0 -1.33333 19973.387 932.882)"/><path fill="#c75217" d="M0 0h86.292l45.973 70.25-5.805 87.856-83.069 21.901-81.3-24.079-11.596-85.057zm89.515-5.964H-3.106l-52.627 75.328 12.436 91.184 86.594 25.648.808-.21 88.024-23.205 6.215-94.131z" clip-path="url(#bA)" transform="matrix(1.33333 0 0 -1.33333 19913.886 1192.372)"/><path fill="#c6bdad" d="M0 0h119.93l74.776 93.762-26.688 116.921L59.965 262.72l-108.05-52.037-26.688-116.921Zm123.758-7.951H-3.828l-79.548 99.748 28.388 124.391 114.953 55.361 114.956-55.361L203.31 91.797Z" clip-path="url(#bB)" transform="matrix(1.33333 0 0 -1.33333 19889.867 1234.753)"/></g></svg>