<svg xmlns="http://www.w3.org/2000/svg" width="721.9" height="550.106" viewBox="0 0 721.9 550.106"><defs><clipPath id="f" clipPathUnits="userSpaceOnUse"><path d="M-.001 13.71h27.42v-27.421H-.001z"/></clipPath><clipPath id="e" clipPathUnits="userSpaceOnUse"><use href="#a"/></clipPath><clipPath id="h" clipPathUnits="userSpaceOnUse"><path d="M-1368.598 1014.837h1920v-1080h-1920Z"/></clipPath><clipPath id="i" clipPathUnits="userSpaceOnUse"><path d="M-1381.684 1009.917h1920v-1080h-1920Z"/></clipPath><clipPath id="j" clipPathUnits="userSpaceOnUse"><path d="M-1406.126 1011.759h1920v-1080h-1920Z"/></clipPath><clipPath id="k" clipPathUnits="userSpaceOnUse"><path d="M-1423.862 1010.498h1920v-1080h-1920Z"/></clipPath><clipPath id="l" clipPathUnits="userSpaceOnUse"><path d="M-1431.907 1006.538h1920v-1080h-1920Z"/></clipPath><clipPath id="m" clipPathUnits="userSpaceOnUse"><path d="M-1448.119 1011.759h1920v-1080h-1920Z"/></clipPath><clipPath id="n" clipPathUnits="userSpaceOnUse"><path d="M-1453.004 1014.139h1920v-1080h-1920Z"/></clipPath><clipPath id="o" clipPathUnits="userSpaceOnUse"><path d="M-1468.795 1011.759h1920v-1080h-1920Z"/></clipPath><clipPath id="q" clipPathUnits="userSpaceOnUse"><path d="M-1472.502 1011.759h1920v-1080h-1920Z"/></clipPath><clipPath id="s" clipPathUnits="userSpaceOnUse"><path d="M-1492.807 1011.759h1920v-1080h-1920Z"/></clipPath><clipPath id="t" clipPathUnits="userSpaceOnUse"><use href="#b"/></clipPath><clipPath id="u" clipPathUnits="userSpaceOnUse"><path d="M-1385.542 604.536h1920v-1080h-1920Z"/></clipPath><clipPath id="v" clipPathUnits="userSpaceOnUse"><path d="M-1398.385 608.196h1920v-1080h-1920Z"/></clipPath><clipPath id="w" clipPathUnits="userSpaceOnUse"><path d="M-1412.818 614.736h1920v-1080h-1920Z"/></clipPath><clipPath id="x" clipPathUnits="userSpaceOnUse"><path d="M-1425.905 612.875h1920v-1080h-1920Z"/></clipPath><clipPath id="y" clipPathUnits="userSpaceOnUse"><path d="M-1430.81 608.196h1920v-1080h-1920Z"/></clipPath><clipPath id="z" clipPathUnits="userSpaceOnUse"><path d="M-1445.241 614.736h1920v-1080h-1920Z"/></clipPath><clipPath id="A" clipPathUnits="userSpaceOnUse"><path d="M-1449.968 608.196h1920v-1080h-1920Z"/></clipPath><clipPath id="B" clipPathUnits="userSpaceOnUse"><path d="M-1461.635 613.417h1920v-1080h-1920Z"/></clipPath><clipPath id="C" clipPathUnits="userSpaceOnUse"><path d="M-1480.961 612.797h1920v-1080h-1920Z"/></clipPath><clipPath id="D" clipPathUnits="userSpaceOnUse"><path d="M-1432.093 633.239h1920v-1080h-1920Z"/></clipPath><clipPath id="F" clipPathUnits="userSpaceOnUse"><path d="M.002 13.71h27.42v-27.42H.002z"/></clipPath><clipPath id="E" clipPathUnits="userSpaceOnUse"><use href="#a"/></clipPath><clipPath id="G" clipPathUnits="userSpaceOnUse"><path d="M-1561.61 713.236h1920v-1080h-1920Z"/></clipPath><clipPath id="I" clipPathUnits="userSpaceOnUse"><use href="#c"/></clipPath><clipPath id="H" clipPathUnits="userSpaceOnUse"><use href="#a"/></clipPath><clipPath id="J" clipPathUnits="userSpaceOnUse"><path d="M-1591.228 840.33h1920v-1080h-1920Z"/></clipPath><clipPath id="L" clipPathUnits="userSpaceOnUse"><use href="#d"/></clipPath><clipPath id="K" clipPathUnits="userSpaceOnUse"><use href="#a"/></clipPath><clipPath id="M" clipPathUnits="userSpaceOnUse"><path d="M-1509.49 953.06h1920v-1080h-1920Z"/></clipPath><clipPath id="O" clipPathUnits="userSpaceOnUse"><path d="M.004 13.71h27.42v-27.42H.004z"/></clipPath><clipPath id="N" clipPathUnits="userSpaceOnUse"><use href="#a"/></clipPath><clipPath id="P" clipPathUnits="userSpaceOnUse"><path d="M-1351.786 955.721h1920v-1080h-1920Z"/></clipPath><clipPath id="R" clipPathUnits="userSpaceOnUse"><use href="#c"/></clipPath><clipPath id="Q" clipPathUnits="userSpaceOnUse"><use href="#a"/></clipPath><clipPath id="S" clipPathUnits="userSpaceOnUse"><path d="M-1273.966 838.23h1920v-1080h-1920Z"/></clipPath><clipPath id="U" clipPathUnits="userSpaceOnUse"><use href="#d"/></clipPath><clipPath id="T" clipPathUnits="userSpaceOnUse"><use href="#a"/></clipPath><clipPath id="V" clipPathUnits="userSpaceOnUse"><path d="M-1299.739 701.897h1920v-1080h-1920Z"/></clipPath><clipPath id="W" clipPathUnits="userSpaceOnUse"><path d="M-1589.501 699.24h1920v-1080h-1920Z"/></clipPath><clipPath id="X" clipPathUnits="userSpaceOnUse"><use href="#b"/></clipPath><clipPath id="Y" clipPathUnits="userSpaceOnUse"><path d="M-1614.439 709.44h1920v-1080h-1920Z"/></clipPath><clipPath id="Z" clipPathUnits="userSpaceOnUse"><path d="M-1617.75 702.9h1920v-1080h-1920Z"/></clipPath><clipPath id="aa" clipPathUnits="userSpaceOnUse"><path d="M-1638.454 708.117h1920v-1080h-1920Z"/></clipPath><clipPath id="ab" clipPathUnits="userSpaceOnUse"><path d="M-1642.801 702.9h1920v-1080h-1920Z"/></clipPath><clipPath id="ac" clipPathUnits="userSpaceOnUse"><path d="M-1541.032 951.363h1920v-1080h-1920Z"/></clipPath><clipPath id="ad" clipPathUnits="userSpaceOnUse"><path d="M-1546.338 951.363h1920v-1080h-1920Z"/></clipPath><clipPath id="ae" clipPathUnits="userSpaceOnUse"><use href="#b"/></clipPath><clipPath id="af" clipPathUnits="userSpaceOnUse"><path d="M-1571.997 951.324h1920v-1080h-1920Z"/></clipPath><clipPath id="ag" clipPathUnits="userSpaceOnUse"><use href="#b"/></clipPath><clipPath id="ah" clipPathUnits="userSpaceOnUse"><path d="M-1582.696 953.743h1920v-1080h-1920Z"/></clipPath><clipPath id="ai" clipPathUnits="userSpaceOnUse"><path d="M-1597.966 946.146h1920v-1080h-1920Z"/></clipPath><clipPath id="aj" clipPathUnits="userSpaceOnUse"><path d="M-1236.182 942.486h1920v-1080h-1920Z"/></clipPath><clipPath id="ak" clipPathUnits="userSpaceOnUse"><path d="M-1261.82 951.363h1920v-1080h-1920Z"/></clipPath><clipPath id="al" clipPathUnits="userSpaceOnUse"><path d="M-1266.006 952.565h1920v-1080h-1920Z"/></clipPath><clipPath id="am" clipPathUnits="userSpaceOnUse"><path d="M-1279.013 953.743h1920v-1080h-1920Z"/></clipPath><clipPath id="an" clipPathUnits="userSpaceOnUse"><path d="M-1286.546 941.885h1920v-1080h-1920Z"/></clipPath><clipPath id="ao" clipPathUnits="userSpaceOnUse"><path d="M-1299.432 947.508h1920v-1080h-1920Z"/></clipPath><clipPath id="ap" clipPathUnits="userSpaceOnUse"><path d="M-1313.561 950.746h1920v-1080h-1920Z"/></clipPath><clipPath id="aq" clipPathUnits="userSpaceOnUse"><path d="M-1325.388 950.746h1920v-1080h-1920Z"/></clipPath><clipPath id="ar" clipPathUnits="userSpaceOnUse"><use href="#b"/></clipPath><clipPath id="as" clipPathUnits="userSpaceOnUse"><path d="M-1182.485 837.411h1920v-1080h-1920Z"/></clipPath><clipPath id="at" clipPathUnits="userSpaceOnUse"><path d="M-1193.79 837.571h1920v-1080h-1920Z"/></clipPath><clipPath id="au" clipPathUnits="userSpaceOnUse"><use href="#b"/></clipPath><clipPath id="av" clipPathUnits="userSpaceOnUse"><path d="M-1210.611 837.571h1920v-1080h-1920Z"/></clipPath><clipPath id="aw" clipPathUnits="userSpaceOnUse"><path d="M-1215.34 831.031h1920v-1080h-1920Z"/></clipPath><clipPath id="ax" clipPathUnits="userSpaceOnUse"><path d="M-1227.007 836.252h1920v-1080h-1920Z"/></clipPath><clipPath id="ay" clipPathUnits="userSpaceOnUse"><path d="M-1246.331 835.632h1920v-1080h-1920Z"/></clipPath><clipPath id="az" clipPathUnits="userSpaceOnUse"><path d="M-1215.939 706.279h1920v-1080h-1920Z"/></clipPath><clipPath id="aA" clipPathUnits="userSpaceOnUse"><path d="M-1219.622 702.9h1920v-1080h-1920Z"/></clipPath><clipPath id="aB" clipPathUnits="userSpaceOnUse"><path d="M-1239.346 707.5h1920v-1080h-1920Z"/></clipPath><clipPath id="aC" clipPathUnits="userSpaceOnUse"><path d="M-1243.595 702.9h1920v-1080h-1920Z"/></clipPath><clipPath id="aD" clipPathUnits="userSpaceOnUse"><path d="M-1258.027 709.44h1920v-1080h-1920Z"/></clipPath><clipPath id="aE" clipPathUnits="userSpaceOnUse"><use href="#b"/></clipPath><clipPath id="aF" clipPathUnits="userSpaceOnUse"><use href="#b"/></clipPath><clipPath id="aG" clipPathUnits="userSpaceOnUse"><path d="M-1626.85 836.252h1920v-1080h-1920Z"/></clipPath><clipPath id="aH" clipPathUnits="userSpaceOnUse"><path d="M-1633.476 832.393h1920v-1080h-1920Z"/></clipPath><clipPath id="aI" clipPathUnits="userSpaceOnUse"><path d="M-1640.767 838.632h1920v-1080h-1920Z"/></clipPath><clipPath id="aK" clipPathUnits="userSpaceOnUse"><path d="M-1655.576 835.632h1920v-1080h-1920Z"/></clipPath><clipPath id="aL" clipPathUnits="userSpaceOnUse"><path d="M-1659.823 831.035h1920v-1080h-1920Z"/></clipPath><clipPath id="aM" clipPathUnits="userSpaceOnUse"><path d="M-1668.454 838.632h1920v-1080h-1920Z"/></clipPath><clipPath id="aN" clipPathUnits="userSpaceOnUse"><path d="M-1682.825 837.571h1920v-1080h-1920Z"/></clipPath><clipPath id="aO" clipPathUnits="userSpaceOnUse"><path d="M-1686.694 840.053h1920v-1080h-1920Z"/></clipPath><clipPath id="aP" clipPathUnits="userSpaceOnUse"><path d="M-1697.842 838.632h1920v-1080h-1920Z"/></clipPath><clipPath id="aQ" clipPathUnits="userSpaceOnUse"><path d="M-1712.652 835.632h1920v-1080h-1920Z"/></clipPath><clipPath id="aR" clipPathUnits="userSpaceOnUse"><path d="M-1432.187 805.97h1920v-1080h-1920Z"/></clipPath><clipPath id="aS" clipPathUnits="userSpaceOnUse"><path d="M-1432.933 804.3h1920v-1080h-1920Z"/></clipPath><clipPath id="aT" clipPathUnits="userSpaceOnUse"><path d="M-1573.9 835.92h1920v-1080h-1920Z"/></clipPath><clipPath id="aU" clipPathUnits="userSpaceOnUse"><path d="M-1495.145 932.677h1920v-1080h-1920Z"/></clipPath><clipPath id="aV" clipPathUnits="userSpaceOnUse"><path d="M-1370.697 932.708h1920v-1080h-1920Z"/></clipPath><clipPath id="aW" clipPathUnits="userSpaceOnUse"><path d="M-1293.519 835.585h1920v-1080h-1920Z"/></clipPath><clipPath id="aX" clipPathUnits="userSpaceOnUse"><path d="M-1432.548 806.73h1920v-1080h-1920Z"/></clipPath><clipPath id="aY" clipPathUnits="userSpaceOnUse"><path d="M-1371.748 928.263h1920v-1080h-1920Z"/></clipPath><clipPath id="aZ" clipPathUnits="userSpaceOnUse"><path d="M-1383.039 905.394h1920v-1080h-1920Z"/></clipPath><clipPath id="ba" clipPathUnits="userSpaceOnUse"><path d="M-1395.79 879.24h1920v-1080h-1920Z"/></clipPath><clipPath id="bb" clipPathUnits="userSpaceOnUse"><path d="M-1409.199 854.068h1920v-1080h-1920Z"/></clipPath><clipPath id="bc" clipPathUnits="userSpaceOnUse"><path d="M-1421.281 827.902h1920v-1080h-1920Z"/></clipPath><clipPath id="bd" clipPathUnits="userSpaceOnUse"><use href="#b"/></clipPath><clipPath id="be" clipPathUnits="userSpaceOnUse"><path d="M-1425.58 676.445h1920v-1080h-1920Z"/></clipPath><clipPath id="bf" clipPathUnits="userSpaceOnUse"><use href="#b"/></clipPath><clipPath id="bg" clipPathUnits="userSpaceOnUse"><path d="M-1430.987 681.478h1920v-1080h-1920Z"/></clipPath><clipPath id="bh" clipPathUnits="userSpaceOnUse"><path d="M-1444.545 678.486h1920v-1080h-1920Z"/></clipPath><clipPath id="bi" clipPathUnits="userSpaceOnUse"><use href="#b"/></clipPath><clipPath id="bj" clipPathUnits="userSpaceOnUse"><path d="M-1426.118 730.31h1920v-1080h-1920Z"/></clipPath><clipPath id="bk" clipPathUnits="userSpaceOnUse"><use href="#b"/></clipPath><clipPath id="bl" clipPathUnits="userSpaceOnUse"><path d="M-1430.184 736.663h1920v-1080h-1920Z"/></clipPath><clipPath id="bm" clipPathUnits="userSpaceOnUse"><path d="M-1443.741 733.674h1920v-1080h-1920Z"/></clipPath><clipPath id="bn" clipPathUnits="userSpaceOnUse"><use href="#b"/></clipPath><clipPath id="bo" clipPathUnits="userSpaceOnUse"><path d="M-1425.62 761.288h1920v-1080h-1920Z"/></clipPath><clipPath id="bp" clipPathUnits="userSpaceOnUse"><use href="#b"/></clipPath><clipPath id="bq" clipPathUnits="userSpaceOnUse"><path d="M-1435.668 764.652h1920v-1080h-1920Z"/></clipPath><clipPath id="br" clipPathUnits="userSpaceOnUse"><path d="M-1444.238 764.652h1920v-1080h-1920Z"/></clipPath><clipPath id="bs" clipPathUnits="userSpaceOnUse"><use href="#b"/></clipPath><clipPath id="bt" clipPathUnits="userSpaceOnUse"><path d="M-1425.811 789.737h1920v-1080h-1920Z"/></clipPath><clipPath id="bu" clipPathUnits="userSpaceOnUse"><use href="#b"/></clipPath><clipPath id="bv" clipPathUnits="userSpaceOnUse"><path d="M-1431.085 791.17h1920v-1080h-1920Z"/></clipPath><clipPath id="bw" clipPathUnits="userSpaceOnUse"><path d="M-1444.642 788.176h1920v-1080h-1920Z"/></clipPath><clipPath id="bx" clipPathUnits="userSpaceOnUse"><use href="#b"/></clipPath><clipPath id="by" clipPathUnits="userSpaceOnUse"><path d="M-1435.227 807.1h1920v-1080h-1920Z"/></clipPath><clipPath id="bz" clipPathUnits="userSpaceOnUse"><use href="#b"/></clipPath><clipPath id="bA" clipPathUnits="userSpaceOnUse"><path d="M-1434.997 699.42h1920v-1080h-1920Z"/></clipPath><clipPath id="bB" clipPathUnits="userSpaceOnUse"><path d="M-1389.964 888.756h1920v-1080h-1920Z"/></clipPath><path id="a" d="M12900 0h2560v1440h-2560Z"/><path id="b" d="M0 1080h1920V0H0Z"/><path id="c" d="M.003 13.71h27.42v-27.421H.003z"/><path id="d" d="M0 13.71h27.42v-27.42H0z"/><path id="g" fill="#006a79" d="M0 0c0 7.572 6.14 13.71 13.714 13.71 7.564 0 13.707-6.138 13.707-13.71s-6.143-13.711-13.707-13.711C6.14-13.711 0-7.572 0 0"/><path id="p" fill="#1d1d1b" d="M0 0v.039c0 2.22-1.658 4.042-3.839 4.042-2.24 0-3.78-1.822-3.78-3.999V.039c0-2.216 1.641-4.019 3.821-4.019C-1.559-3.98 0-2.158 0 0m-9.197 0v.039c0 2.942 2.259 5.4 5.399 5.4 3.119 0 5.378-2.438 5.378-5.357V.039c0-2.938-2.298-5.396-5.419-5.396-3.099 0-5.358 2.438-5.358 5.357"/><path id="r" fill="#1d1d1b" d="M0 0v.039c0 2.942 2.261 5.4 5.301 5.4 1.959 0 3.158-.8 4.138-1.838L8.42 2.521c-.819.858-1.72 1.56-3.141 1.56C3.18 4.081 1.58 2.322 1.58.082V.039c0-2.24 1.641-4.019 3.801-4.019 1.338 0 2.339.659 3.158 1.541l.982-.921C8.479-4.538 7.24-5.357 5.301-5.357 2.261-5.357 0-2.899 0 0"/><path id="aJ" fill="#1d1d1b" d="M0 0v6.239h-1.44v1.358H0v3.122h1.541V7.597h3.278V6.239H1.541V.199c0-1.28.699-1.717 1.739-1.717.54 0 .96.098 1.5.359v-1.319c-.54-.3-1.12-.441-1.859-.441C1.241-2.919 0-2.099 0 0"/><color-profile name="sRGB IEC61966-2.1"/></defs><g transform="translate(-14463.717 -806.048)"><g clip-path="url(#e)" opacity=".2"><use clip-path="url(#f)" href="#g" transform="matrix(1.33333 0 0 -1.33333 14790.388 851.654)"/></g><path fill="#1d1d1b" d="m0 0 .979 1.159c1.462-1.338 2.86-1.978 4.8-1.978 1.9 0 3.121.998 3.121 2.38V1.6c0 1.299-.7 2.021-3.64 2.661-3.219.698-4.7 1.736-4.7 4.038v.039c0 2.182 1.941 3.82 4.6 3.82 2.059 0 3.479-.581 4.919-1.72L9.16 9.22c-1.301 1.058-2.601 1.518-4.041 1.518-1.839 0-2.979-.979-2.979-2.259V8.44c0-1.323.701-2.08 3.799-2.72C9.06 5.018 10.5 3.898 10.5 1.76v-.039c0-2.4-2.002-3.961-4.78-3.961C3.481-2.24 1.68-1.522 0 0" clip-path="url(#h)" transform="matrix(1.33333 0 0 -1.33333 14724.797 1353.116)"/><path fill="#1d1d1b" d="M0 0v.039c0 3.96 2.979 7.238 7.078 7.238 2.54 0 4.082-.878 5.461-2.22l-1.081-1.159c-1.2 1.12-2.48 1.92-4.399 1.92-3.099 0-5.42-2.521-5.42-5.74V.039c0-3.239 2.321-5.779 5.42-5.779 1.919 0 3.18.738 4.52 2.018l1.04-1.019C11.179-6.22 9.538-7.199 7.02-7.199 2.979-7.199 0-4.019 0 0" clip-path="url(#i)" transform="matrix(1.33333 0 0 -1.33333 14742.246 1346.556)"/><path fill="#1d1d1b" d="m0 0-3.18 7.141L-6.38 0Zm-3.898 8.978h1.479L3.96-5.119H2.259L.62-1.42h-7.618l-1.66-3.699h-1.62z" clip-path="url(#j)" transform="matrix(1.33333 0 0 -1.33333 14774.835 1349.012)"/><path fill="#1d1d1b" d="M0 0c2.32 0 3.839 1.241 3.839 3.079v.043c0 1.997-1.5 3.039-3.759 3.039h-3.539V0Zm-5.039 7.62H.199c3.161 0 5.24-1.681 5.24-4.44v-.039c0-3.02-2.52-4.581-5.499-4.581h-3.399v-4.94h-1.58z" clip-path="url(#k)" transform="matrix(1.33333 0 0 -1.33333 14798.483 1347.331)"/><path fill="#1d1d1b" d="M0 0h1.541v-2.7C2.3-.979 3.801.238 5.759.179v-1.658H5.64c-2.259 0-4.099-1.623-4.099-4.741v-4.12H0Z" clip-path="url(#l)" transform="matrix(1.33333 0 0 -1.33333 14809.209 1342.05)"/><path fill="#1d1d1b" d="M0 0v.039c0 2.22-1.66 4.042-3.839 4.042-2.24 0-3.781-1.822-3.781-3.999V.039c0-2.216 1.64-4.019 3.82-4.019C-1.561-3.98 0-2.158 0 0m-9.201 0v.039c0 2.942 2.261 5.4 5.401 5.4 3.119 0 5.378-2.438 5.378-5.357V.039c0-2.938-2.3-5.396-5.417-5.396-3.101 0-5.362 2.438-5.362 5.357" clip-path="url(#m)" transform="matrix(1.33333 0 0 -1.33333 14830.825 1349.012)"/><path fill="#1d1d1b" d="M0 0v6.239h-1.44v1.362H0v3.118h1.541V7.601h3.278V6.239H1.541V.203c0-1.28.699-1.721 1.739-1.721.54 0 .959.098 1.5.359v-1.319c-.541-.3-1.12-.441-1.859-.441C1.241-2.919 0-2.099 0 0" clip-path="url(#n)" transform="matrix(1.33333 0 0 -1.33333 14837.339 1352.185)"/><use clip-path="url(#o)" href="#p" transform="matrix(1.33333 0 0 -1.33333 14858.394 1349.012)"/><use clip-path="url(#q)" href="#r" transform="matrix(1.33333 0 0 -1.33333 14863.336 1349.012)"/><use clip-path="url(#s)" href="#p" transform="matrix(1.33333 0 0 -1.33333 14890.41 1349.012)"/><path fill="#1d1d1b" d="M1497.295 77.719h1.541V63.122h-1.541z" clip-path="url(#t)" transform="matrix(1.33333 0 0 -1.33333 12900 1440)"/><path fill="#1d1d1b" d="M0 0h10.057v-1.459H1.578v-5.003h7.58v-1.439h-7.58V-14H0Z" clip-path="url(#u)" transform="matrix(1.33333 0 0 -1.33333 14747.389 806.048)"/><path fill="#1d1d1b" d="M0 0h1.541v-2.7C2.3-.979 3.8.238 5.759.18v-1.659H5.64c-2.259 0-4.099-1.623-4.099-4.741v-4.12H0Z" clip-path="url(#v)" transform="matrix(1.33333 0 0 -1.33333 14764.513 810.928)"/><path fill="#1d1d1b" d="M0 0v.999c-.78.222-1.76.441-3.04.441-1.939 0-3.02-.839-3.02-2.138v-.043c0-1.3 1.222-2.061 2.601-2.061C-1.539-2.802 0-1.639 0 0m-7.619-.8v.039c0 2.162 1.799 3.34 4.419 3.34 1.341 0 2.24-.179 3.18-.441v.363c0 1.857-1.139 2.817-3.08 2.817-1.219 0-2.179-.3-3.139-.761L-6.7 5.818c1.14.542 2.24.862 3.76.862 1.461 0 2.581-.382 3.34-1.139.7-.703 1.059-1.721 1.059-3.02V-3.8H-.02v1.56c-.72-.94-1.9-1.779-3.74-1.779-1.919 0-3.859 1.081-3.859 3.219" clip-path="url(#w)" transform="matrix(1.33333 0 0 -1.33333 14783.758 819.648)"/><path fill="#1d1d1b" d="M0 0v.039c0 2.119-1.84 3.5-3.801 3.5-1.978 0-3.578-1.362-3.578-3.48V.02c0-2.08 1.659-3.52 3.578-3.52C-1.84-3.5 0-2.08 0 0m-8.479-7.46.7 1.197c1.2-.858 2.48-1.318 3.978-1.318 2.301 0 3.762 1.26 3.762 3.679v1.221c-.901-1.201-2.162-2.181-4.06-2.181-2.48 0-4.86 1.881-4.86 4.839V.02c0 3.02 2.38 4.877 4.86 4.877 1.939 0 3.178-.96 4.038-2.08v1.861h1.54v-8.541c0-1.6-.459-2.798-1.319-3.656C-.78-8.459-2.119-8.9-3.779-8.9c-1.74 0-3.321.48-4.7 1.44" clip-path="url(#x)" transform="matrix(1.33333 0 0 -1.33333 14801.207 817.166)"/><path fill="#1d1d1b" d="M0 0h1.541v-2.7C2.3-.979 3.801.238 5.759.18v-1.659H5.64c-2.259 0-4.099-1.623-4.099-4.741v-4.12H0Z" clip-path="url(#y)" transform="matrix(1.33333 0 0 -1.33333 14807.747 810.928)"/><path fill="#1d1d1b" d="M0 0v.999c-.78.222-1.76.441-3.04.441-1.939 0-3.02-.839-3.02-2.138v-.043c0-1.3 1.22-2.061 2.601-2.061C-1.539-2.802 0-1.639 0 0m-7.619-.8v.039c0 2.162 1.799 3.34 4.419 3.34 1.341 0 2.24-.179 3.18-.441v.363c0 1.857-1.141 2.817-3.08 2.817-1.219 0-2.179-.3-3.139-.761L-6.7 5.818c1.142.542 2.24.862 3.76.862 1.459 0 2.579-.382 3.34-1.139.7-.703 1.059-1.721 1.059-3.02V-3.8H-.02v1.56c-.719-.94-1.9-1.779-3.74-1.779-1.919 0-3.859 1.081-3.859 3.219" clip-path="url(#z)" transform="matrix(1.33333 0 0 -1.33333 14826.988 819.648)"/><path fill="#1d1d1b" d="M0 0h1.541v-1.799C2.24-.679 3.301.219 5.08.219c2.48 0 3.961-1.678 3.961-4.14v-6.419H7.5v6.04c0 1.92-1.019 3.118-2.861 3.118-1.779 0-3.098-1.3-3.098-3.239v-5.919H0Z" clip-path="url(#A)" transform="matrix(1.33333 0 0 -1.33333 14833.291 810.928)"/><use clip-path="url(#B)" href="#r" transform="matrix(1.33333 0 0 -1.33333 14848.847 817.89)"/><path fill="#1d1d1b" d="M0 0c-.16 1.861-1.219 3.52-3.299 3.52-1.82 0-3.139-1.518-3.36-3.52zm-8.218-.601v.043c0 2.977 2.08 5.377 4.96 5.377 3.059 0 4.819-2.439 4.819-5.459 0-.218 0-.32-.02-.499h-8.2c.221-2.24 1.801-3.5 3.639-3.5 1.44 0 2.4.581 3.26 1.459l.96-.858c-1.04-1.183-2.279-1.94-4.259-1.94-2.819 0-5.159 2.178-5.159 5.377" clip-path="url(#C)" transform="matrix(1.33333 0 0 -1.33333 14874.615 817.062)"/><path fill="#1d1d1b" d="m0 0-2.64-.819L-3.02.46.4 1.639h1.159v-14.102H0Z" clip-path="url(#D)" transform="matrix(1.33333 0 0 -1.33333 14809.458 844.319)"/><g clip-path="url(#E)" opacity=".2"><use clip-path="url(#F)" href="#g" transform="matrix(1.33333 0 0 -1.33333 14970.678 943.327)"/></g><path fill="#1d1d1b" d="m0 0 5.08 4.479c2.139 1.92 2.919 3.001 2.919 4.402 0 1.639-1.299 2.68-2.819 2.68-1.6 0-2.64-.819-3.76-2.399l-1.16.839c1.301 1.88 2.559 2.981 5.039 2.981 2.52 0 4.339-1.682 4.339-3.961v-.039c0-2.041-1.079-3.301-3.539-5.439L2.361.222h7.417v-1.439H0Z" clip-path="url(#G)" transform="matrix(1.33333 0 0 -1.33333 14982.147 950.981)"/><g clip-path="url(#H)" opacity=".2"><use clip-path="url(#I)" href="#g" transform="matrix(1.33333 0 0 -1.33333 15010.116 1114.17)"/></g><path fill="#1d1d1b" d="m0 0 1.141 1.022C2.24-.32 3.5-1.057 5.24-1.057c1.7 0 3.059 1.057 3.059 2.719v.039c0 1.74-1.619 2.7-3.919 2.7h-.899l-.32.941 4.419 4.979H.741v1.42h8.94v-1.159L5.279 5.705c2.441-.223 4.62-1.366 4.62-3.941v-.039c0-2.505-2.08-4.222-4.678-4.222C2.88-2.497 1.141-1.498 0 0" clip-path="url(#J)" transform="matrix(1.33333 0 0 -1.33333 15021.637 1120.44)"/><g clip-path="url(#K)" opacity=".2"><use clip-path="url(#L)" href="#g" transform="matrix(1.33333 0 0 -1.33333 14890.947 1267.655)"/></g><path fill="#1d1d1b" d="M0 0v7.219L-5.88 0Zm0-1.319h-7.379l-.4 1.14L.14 9.458h1.38V0h2.179v-1.319H1.52v-3.32H0Z" clip-path="url(#M)" transform="matrix(1.33333 0 0 -1.33333 14912.654 1270.747)"/><g clip-path="url(#N)" opacity=".2"><use clip-path="url(#O)" href="#g" transform="matrix(1.33333 0 0 -1.33333 14690.781 1267.655)"/></g><path fill="#1d1d1b" d="m0 0 1.04 1.139C2.261-.059 3.58-.78 5.02-.78c2 0 3.379 1.322 3.379 3.102v.039c0 1.759-1.459 2.938-3.479 2.938-1.2 0-2.12-.34-2.94-.8l-1.059.702.4 6.817h8.057v-1.459H2.7l-.3-4.48c.821.383 1.58.621 2.76.621 2.72 0 4.839-1.62 4.839-4.281V2.38c0-2.739-2.061-4.6-4.999-4.6-1.999 0-3.72.94-5 2.22" clip-path="url(#P)" transform="matrix(1.33333 0 0 -1.33333 14702.382 1274.295)"/><g clip-path="url(#Q)" opacity=".2"><use clip-path="url(#R)" href="#g" transform="matrix(1.33333 0 0 -1.33333 14575.023 1114.17)"/></g><path fill="#1d1d1b" d="M0 0v.043C0 1.74-1.401 3.044-3.418 3.044c-2.099 0-3.5-1.522-3.5-3.06v-.039c0-1.779 1.459-3.145 3.539-3.145C-1.319-3.2 0-1.779 0 0m-7.078-3.176c-1.12 1.12-1.76 2.559-1.76 5.416v.043C-8.838 6.54-6.7 9.88-3.02 9.88c1.682 0 2.919-.578 4.14-1.6L.199 7.062c-1.038.882-2.017 1.382-3.297 1.382-2.72 0-4.121-2.841-4.121-6.001V2.24c.941 1.365 2.158 2.161 4 2.161 2.618 0 4.838-1.658 4.838-4.3V.062c0-2.7-2.2-4.658-5.018-4.658-1.541 0-2.801.538-3.679 1.42" clip-path="url(#S)" transform="matrix(1.33333 0 0 -1.33333 14598.622 1117.64)"/><g clip-path="url(#T)" opacity=".2"><use clip-path="url(#U)" href="#g" transform="matrix(1.33333 0 0 -1.33333 14610.719 943.327)"/></g><path fill="#1d1d1b" d="M0 0h-7.698v1.44h9.499V.261l-6.36-12.817h-1.76z" clip-path="url(#V)" transform="matrix(1.33333 0 0 -1.33333 14632.985 935.863)"/><path fill="#1d1d1b" d="M0 0h10.059v-1.459H1.58v-4.999h7.578v-1.443H1.58v-6.095H0Z" clip-path="url(#W)" transform="matrix(1.33333 0 0 -1.33333 15019.335 932.32)"/><path fill="#1d1d1b" d="M1602.485 381.361h1.539v-14.597h-1.539z" clip-path="url(#X)" transform="matrix(1.33333 0 0 -1.33333 12900 1440)"/><path fill="#1d1d1b" d="M0 0v1.003c-.78.218-1.76.437-3.04.437-1.939 0-3.02-.839-3.02-2.138v-.039c0-1.304 1.222-2.061 2.601-2.061C-1.539-2.798 0-1.639 0 0m-7.619-.8v.039c0 2.162 1.799 3.34 4.419 3.34 1.341 0 2.24-.179 3.18-.437v.359c0 1.857-1.139 2.817-3.08 2.817-1.219 0-2.179-.296-3.139-.757L-6.7 5.818c1.14.542 2.24.862 3.76.862 1.461 0 2.581-.378 3.34-1.139.7-.699 1.059-1.721 1.059-3.02v-6.318H-.02v1.557c-.72-.94-1.9-1.779-3.74-1.779-1.919 0-3.859 1.081-3.859 3.219" clip-path="url(#Y)" transform="matrix(1.33333 0 0 -1.33333 15052.585 945.92)"/><path fill="#1d1d1b" d="M0 0h1.699L5.18-8.58 8.678 0h1.66L5.839-10.418h-1.36z" clip-path="url(#Z)" transform="matrix(1.33333 0 0 -1.33333 15056.999 937.2)"/><path fill="#1d1d1b" d="M0 0v.039c0 2.216-1.66 4.039-3.839 4.039-2.24 0-3.781-1.823-3.781-4V.039c0-2.22 1.64-4.019 3.82-4.019C-1.561-3.98 0-2.162 0 0m-9.201 0v.039c0 2.938 2.262 5.4 5.401 5.4 3.119 0 5.378-2.442 5.378-5.361V.039c0-2.942-2.3-5.4-5.417-5.4-3.1 0-5.362 2.438-5.362 5.361" clip-path="url(#aa)" transform="matrix(1.33333 0 0 -1.33333 15084.606 944.156)"/><path fill="#1d1d1b" d="M0 0h1.539v-2.7C2.298-.979 3.799.238 5.759.18v-1.659h-.121c-2.259 0-4.099-1.619-4.099-4.741v-4.116H0Z" clip-path="url(#ab)" transform="matrix(1.33333 0 0 -1.33333 15090.402 937.2)"/><path fill="#1d1d1b" d="m0 0-3.18 7.137L-6.38 0Zm-3.898 8.974h1.479L3.96-5.119H2.259L.62-1.42h-7.618l-1.66-3.699h-1.62z" clip-path="url(#ac)" transform="matrix(1.33333 0 0 -1.33333 14954.709 1268.484)"/><path fill="#1d1d1b" d="M0 0v.039c0 2.938 2.259 5.4 5.299 5.4 1.959 0 3.158-.804 4.14-1.841L8.418 2.517c-.821.862-1.72 1.56-3.139 1.56-2.101 0-3.701-1.759-3.701-3.999V.039c0-2.24 1.641-4.019 3.801-4.019 1.34 0 2.339.659 3.158 1.537l.98-.92C8.479-4.542 7.238-5.361 5.299-5.361 2.259-5.361 0-2.903 0 0" clip-path="url(#ad)" transform="matrix(1.33333 0 0 -1.33333 14961.784 1268.484)"/><path fill="#1d1d1b" d="M1558.524 133.854h1.541v-10.336h-1.541zm-.1 3.961h1.76v-1.701h-1.76z" clip-path="url(#ae)" transform="matrix(1.33333 0 0 -1.33333 12900 1440)"/><path fill="#1d1d1b" d="M0 0v.039c0 2.38-1.82 3.98-3.74 3.98-2 0-3.639-1.483-3.639-3.98V0c0-2.458 1.659-3.999 3.639-3.999C-1.82-3.999 0-2.38 0 0m-8.959-.023V.02c0 3.359 2.46 5.38 4.94 5.38 1.92 0 3.159-1.022 3.959-2.2v6.239h1.539V-5.158H-.06v2.075c-.861-1.236-2.039-2.298-3.959-2.298-2.48 0-4.94 1.963-4.94 5.358" clip-path="url(#af)" transform="matrix(1.33333 0 0 -1.33333 14995.996 1268.432)"/><path fill="#1d1d1b" d="M1577.042 133.854h1.541v-10.336h-1.541zm-.099 3.961h1.76v-1.701h-1.76z" clip-path="url(#ag)" transform="matrix(1.33333 0 0 -1.33333 12900 1440)"/><path fill="#1d1d1b" d="M0 0v6.235h-1.44v1.362H0v3.118h1.541V7.597h3.278V6.235H1.541V.199c0-1.28.699-1.721 1.739-1.721.54 0 .959.102 1.5.359v-1.319c-.541-.3-1.12-.437-1.859-.437C1.241-2.919 0-2.099 0 0" clip-path="url(#ah)" transform="matrix(1.33333 0 0 -1.33333 15010.262 1271.657)"/><path fill="#1d1d1b" d="M0 0h1.641l-4.339-10.68c-.882-2.138-1.9-2.918-3.442-2.918-.858 0-1.498.179-2.198.523l.52 1.217c.5-.257.96-.382 1.62-.382.94 0 1.498.483 2.119 1.943L-8.777 0h1.699l3.759-8.619z" clip-path="url(#ai)" transform="matrix(1.33333 0 0 -1.33333 15030.622 1261.528)"/><path fill="#1d1d1b" d="M0 0h1.6l5.098-7.64L11.797 0h1.6v-13.996h-1.58v11.339l-5.098-7.5h-.08l-5.1 7.476v-11.315H0Z" clip-path="url(#aj)" transform="matrix(1.33333 0 0 -1.33333 14548.243 1256.648)"/><path fill="#1d1d1b" d="M0 0v.039c0 2.216-1.658 4.038-3.839 4.038-2.24 0-3.78-1.822-3.78-3.999V.039c0-2.22 1.641-4.019 3.82-4.019C-1.559-3.98 0-2.162 0 0m-9.197 0v.039c0 2.938 2.259 5.4 5.398 5.4 3.12 0 5.379-2.442 5.379-5.361V.039c0-2.942-2.298-5.4-5.419-5.4-3.099 0-5.358 2.438-5.358 5.361" clip-path="url(#ak)" transform="matrix(1.33333 0 0 -1.33333 14582.426 1268.484)"/><path fill="#1d1d1b" d="M0 0v6.419h1.541V.382c0-1.919 1.019-3.121 2.86-3.121C6.161-2.739 7.5-1.44 7.5.499v5.92h1.519V-3.918H7.5v1.799C6.801-3.239 5.74-4.14 3.96-4.14 1.481-4.14 0-2.458 0 0" clip-path="url(#al)" transform="matrix(1.33333 0 0 -1.33333 14588.008 1270.086)"/><path fill="#1d1d1b" d="M0 0v6.235h-1.44v1.362H0v3.118h1.539V7.597h3.282V6.235H1.539V.199c0-1.28.701-1.721 1.741-1.721.54 0 .959.102 1.5.359v-1.319c-.541-.3-1.12-.437-1.859-.437C1.241-2.919 0-2.099 0 0" clip-path="url(#am)" transform="matrix(1.33333 0 0 -1.33333 14605.351 1271.657)"/><path fill="#1d1d1b" d="M0 0h1.539v-6.06c.701 1.12 1.76 2.022 3.539 2.022 2.48 0 3.959-1.682 3.959-4.144v-6.415H7.498v6.036c0 1.92-1.021 3.122-2.859 3.122-1.781 0-3.1-1.3-3.1-3.243v-5.915H0Z" clip-path="url(#an)" transform="matrix(1.33333 0 0 -1.33333 14615.395 1255.847)"/><path fill="#1d1d1b" d="M0 0h-1.42v1.342H0v.898C0 3.422.299 4.3.899 4.901c.541.538 1.28.8 2.221.8.72 0 1.199-.078 1.699-.262V4.101c-.56.16-.96.261-1.5.261-1.2 0-1.799-.741-1.799-2.2v-.839h3.279V0h-3.26v-8.974H0Z" clip-path="url(#ao)" transform="matrix(1.33333 0 0 -1.33333 14632.576 1263.344)"/><path fill="#1d1d1b" d="M0 0c-.16 1.861-1.219 3.52-3.299 3.52-1.82 0-3.139-1.518-3.36-3.52zm-8.219-.601v.043c0 2.977 2.079 5.381 4.959 5.381 3.061 0 4.821-2.443 4.821-5.463 0-.218 0-.32-.022-.499h-8.198c.221-2.24 1.799-3.496 3.641-3.496 1.44 0 2.4.577 3.258 1.459l.96-.862c-1.04-1.179-2.279-1.94-4.259-1.94-2.819 0-5.16 2.178-5.16 5.377" clip-path="url(#ap)" transform="matrix(1.33333 0 0 -1.33333 14651.415 1267.662)"/><path fill="#1d1d1b" d="M0 0c-.16 1.861-1.219 3.52-3.299 3.52-1.82 0-3.139-1.518-3.36-3.52zm-8.219-.601v.043c0 2.977 2.079 5.381 4.959 5.381 3.061 0 4.821-2.443 4.821-5.463 0-.218 0-.32-.022-.499h-8.198c.221-2.24 1.799-3.496 3.641-3.496 1.44 0 2.399.577 3.258 1.459l.96-.862c-1.04-1.179-2.279-1.94-4.259-1.94-2.819 0-5.16 2.178-5.16 5.377" clip-path="url(#aq)" transform="matrix(1.33333 0 0 -1.33333 14667.184 1267.662)"/><path fill="#1d1d1b" d="M1329.776 138.115h1.541v-14.597h-1.541z" clip-path="url(#ar)" transform="matrix(1.33333 0 0 -1.33333 12900 1440)"/><path fill="#1d1d1b" d="M0 0c0 1.522-1.26 2.4-3.719 2.4h-4.42v-4.94h4.7C-1.299-2.54 0-1.619 0-.039zm-.78 6.341c0 1.377-1.101 2.278-3.098 2.278h-4.261V3.8h4.14c1.919 0 3.219.839 3.219 2.498zm-8.918 3.699h5.958c1.6 0 2.86-.461 3.66-1.241a3.13 3.13 0 0 0 .899-2.24V6.52c0-1.822-1.119-2.759-2.22-3.238C.26 2.802 1.6 1.799 1.6-.101V-.14c0-2.4-2.019-3.82-5.08-3.82h-6.218z" clip-path="url(#as)" transform="matrix(1.33333 0 0 -1.33333 14476.647 1116.548)"/><path fill="#1d1d1b" d="M0 0v.999c-.78.222-1.76.441-3.04.441-1.939 0-3.02-.839-3.02-2.138v-.043c0-1.3 1.222-2.057 2.601-2.057C-1.539-2.798 0-1.639 0 0m-7.619-.8v.039c0 2.162 1.799 3.34 4.419 3.34 1.341 0 2.24-.179 3.18-.441v.363c0 1.857-1.139 2.817-3.08 2.817-1.219 0-2.179-.3-3.139-.757L-6.7 5.818c1.14.542 2.24.862 3.76.862 1.461 0 2.581-.382 3.34-1.139.7-.703 1.059-1.721 1.059-3.02V-3.8H-.02v1.56c-.72-.94-1.9-1.779-3.74-1.779-1.919 0-3.859 1.081-3.859 3.219" clip-path="url(#at)" transform="matrix(1.33333 0 0 -1.33333 14491.719 1116.761)"/><path fill="#1d1d1b" d="M1198.657 253.23h1.539v-14.601h-1.539z" clip-path="url(#au)" transform="matrix(1.33333 0 0 -1.33333 12900 1440)"/><path fill="#1d1d1b" d="M0 0v.999c-.78.222-1.76.441-3.04.441-1.939 0-3.02-.839-3.02-2.138v-.043c0-1.3 1.222-2.057 2.601-2.057C-1.539-2.798 0-1.639 0 0m-7.619-.8v.039c0 2.162 1.799 3.34 4.419 3.34 1.341 0 2.24-.179 3.18-.441v.363c0 1.857-1.139 2.817-3.08 2.817-1.219 0-2.179-.3-3.139-.757L-6.7 5.818c1.14.542 2.24.862 3.76.862 1.461 0 2.581-.382 3.34-1.139.7-.703 1.059-1.721 1.059-3.02V-3.8H-.02v1.56c-.719-.94-1.9-1.779-3.74-1.779-1.919 0-3.859 1.081-3.859 3.219" clip-path="url(#av)" transform="matrix(1.33333 0 0 -1.33333 14514.148 1116.761)"/><path fill="#1d1d1b" d="M0 0h1.539v-1.799C2.24-.679 3.299.219 5.078.219c2.48 0 3.959-1.678 3.959-4.14v-6.419H7.498v6.04c0 1.92-1.021 3.122-2.859 3.122-1.781 0-3.1-1.304-3.1-3.243v-5.919H0Z" clip-path="url(#aw)" transform="matrix(1.33333 0 0 -1.33333 14520.453 1108.042)"/><path fill="#1d1d1b" d="M0 0v.043c0 2.938 2.259 5.396 5.299 5.396 1.959 0 3.158-.8 4.14-1.838l-1.021-1.08c-.821.858-1.72 1.56-3.139 1.56-2.101 0-3.701-1.759-3.701-3.999V.043c0-2.24 1.641-4.023 3.801-4.023 1.34 0 2.339.663 3.158 1.541l.98-.921C8.479-4.538 7.238-5.357 5.299-5.357 2.259-5.357 0-2.899 0 0" clip-path="url(#ax)" transform="matrix(1.33333 0 0 -1.33333 14536.009 1115.003)"/><path fill="#1d1d1b" d="M0 0c-.16 1.861-1.219 3.52-3.299 3.52-1.82 0-3.139-1.518-3.36-3.52zm-8.219-.601v.043c0 2.977 2.079 5.377 4.959 5.377 3.061 0 4.821-2.439 4.821-5.459 0-.218 0-.32-.022-.499h-8.198c.221-2.24 1.799-3.5 3.641-3.5 1.44 0 2.399.581 3.258 1.459l.96-.858c-1.04-1.179-2.279-1.94-4.259-1.94-2.819 0-5.16 2.178-5.16 5.377" clip-path="url(#ay)" transform="matrix(1.33333 0 0 -1.33333 14561.775 1114.176)"/><path fill="#1d1d1b" d="M0 0v.039c0 3.18-2.32 5.779-5.519 5.779S-11 3.258-11 .082V.039c0-3.18 2.322-5.779 5.522-5.779C-2.279-5.74 0-3.18 0 0m-12.638 0v.039c0 3.859 2.899 7.238 7.16 7.238 4.259 0 7.117-3.34 7.117-7.195V.039c0-3.859-2.899-7.238-7.158-7.238S-12.638-3.859-12.638 0" clip-path="url(#az)" transform="matrix(1.33333 0 0 -1.33333 14521.252 941.705)"/><path fill="#1d1d1b" d="M0 0h1.699l3.479-8.58L8.678 0h1.66L5.839-10.418h-1.36z" clip-path="url(#aA)" transform="matrix(1.33333 0 0 -1.33333 14526.163 937.2)"/><path fill="#1d1d1b" d="M0 0c-.16 1.861-1.219 3.52-3.299 3.52-1.82 0-3.139-1.518-3.36-3.52zm-8.217-.601v.043c0 2.977 2.079 5.381 4.959 5.381 3.059 0 4.819-2.443 4.819-5.463 0-.218 0-.32-.02-.499h-8.2c.221-2.24 1.801-3.496 3.639-3.496 1.44 0 2.4.577 3.26 1.459l.96-.862c-1.04-1.179-2.279-1.94-4.259-1.94-2.819 0-5.158 2.178-5.158 5.377" clip-path="url(#aB)" transform="matrix(1.33333 0 0 -1.33333 14552.462 943.334)"/><path fill="#1d1d1b" d="M0 0h1.541v-2.7C2.3-.979 3.801.238 5.759.18v-1.659H5.64c-2.259 0-4.099-1.619-4.099-4.741v-4.116H0Z" clip-path="url(#aC)" transform="matrix(1.33333 0 0 -1.33333 14558.127 937.2)"/><path fill="#1d1d1b" d="M0 0v1.003c-.78.218-1.76.437-3.04.437-1.939 0-3.02-.839-3.02-2.138v-.039c0-1.304 1.22-2.061 2.601-2.061C-1.539-2.798 0-1.639 0 0m-7.618-.8v.039c0 2.162 1.798 3.34 4.418 3.34 1.341 0 2.24-.179 3.181-.437v.359c0 1.857-1.142 2.817-3.081 2.817-1.219 0-2.179-.296-3.139-.757L-6.7 5.818c1.142.542 2.24.862 3.76.862 1.459 0 2.579-.378 3.34-1.139.7-.699 1.059-1.721 1.059-3.02v-6.318H-.019v1.557c-.72-.94-1.901-1.779-3.74-1.779-1.92 0-3.859 1.081-3.859 3.219" clip-path="url(#aD)" transform="matrix(1.33333 0 0 -1.33333 14577.369 945.92)"/><path fill="#1d1d1b" d="M1262.895 381.361h1.541v-14.597h-1.541z" clip-path="url(#aE)" transform="matrix(1.33333 0 0 -1.33333 12900 1440)"/><path fill="#1d1d1b" d="M1268.148 381.361h1.539v-14.597h-1.539z" clip-path="url(#aF)" transform="matrix(1.33333 0 0 -1.33333 12900 1440)"/><path fill="#1d1d1b" d="m0 0-3.178 7.137L-6.378 0Zm-3.9 8.978h1.481L3.96-5.119H2.261L.62-1.42h-7.618l-1.66-3.699h-1.62z" clip-path="url(#aG)" transform="matrix(1.33333 0 0 -1.33333 15069.134 1115.003)"/><path fill="#1d1d1b" d="M0 0h-1.42v1.342H0v.898C0 3.418.298 4.3.899 4.901c.541.538 1.28.8 2.221.8.719 0 1.199-.082 1.699-.262V4.101c-.56.16-.96.261-1.5.261-1.2 0-1.799-.741-1.799-2.2v-.843h3.279V0h-3.26v-8.978H0Z" clip-path="url(#aH)" transform="matrix(1.33333 0 0 -1.33333 15077.968 1109.858)"/><use clip-path="url(#aI)" href="#aJ" transform="matrix(1.33333 0 0 -1.33333 15087.689 1118.176)"/><path fill="#1d1d1b" d="M0 0c-.16 1.857-1.219 3.52-3.299 3.52-1.82 0-3.139-1.522-3.36-3.52zm-8.219-.601v.039c0 2.981 2.079 5.381 4.959 5.381 3.061 0 4.821-2.439 4.821-5.459 0-.218 0-.32-.022-.499h-8.198c.221-2.24 1.799-3.5 3.641-3.5 1.44 0 2.4.581 3.258 1.459l.96-.862C.16-5.221-1.079-5.978-3.059-5.978c-2.819 0-5.16 2.178-5.16 5.377" clip-path="url(#aK)" transform="matrix(1.33333 0 0 -1.33333 15107.435 1114.176)"/><path fill="#1d1d1b" d="M0 0h1.541v-2.696C2.3-.975 3.801.242 5.759.183v-1.658H5.64c-2.259 0-4.099-1.623-4.099-4.741v-4.12H0Z" clip-path="url(#aL)" transform="matrix(1.33333 0 0 -1.33333 15113.098 1108.047)"/><use clip-path="url(#aM)" href="#aJ" transform="matrix(1.33333 0 0 -1.33333 15124.606 1118.176)"/><path fill="#1d1d1b" d="M0 0v.999c-.78.222-1.76.441-3.04.441-1.939 0-3.02-.843-3.02-2.138v-.043c0-1.3 1.221-2.061 2.601-2.061C-1.539-2.802 0-1.643 0 0m-7.619-.8v.039c0 2.162 1.799 3.34 4.419 3.34 1.341 0 2.24-.179 3.18-.441v.363c0 1.857-1.139 2.817-3.08 2.817-1.219 0-2.179-.3-3.139-.761L-6.7 5.818c1.14.538 2.24.858 3.76.858 1.461 0 2.581-.378 3.34-1.139.7-.699 1.059-1.717 1.059-3.02V-3.8H-.02v1.56c-.72-.94-1.9-1.783-3.74-1.783-1.919 0-3.859 1.085-3.859 3.223" clip-path="url(#aN)" transform="matrix(1.33333 0 0 -1.33333 15143.767 1116.761)"/><path fill="#1d1d1b" d="m0 0 .778 1.1C1.898.242 3.139-.219 4.359-.219c1.26 0 2.14.621 2.14 1.639v.043c0 1.019-1.22 1.436-2.579 1.819C2.32 3.761.5 4.28.5 6.2v.039c0 1.779 1.48 2.962 3.519 2.962 1.28 0 2.659-.441 3.721-1.144l-.701-1.154c-.96.616-2.041.998-3.061.998-1.219 0-1.998-.64-1.998-1.502V6.36c0-.979 1.28-1.362 2.659-1.779 1.6-.48 3.319-1.1 3.319-2.962V1.58c0-1.958-1.619-3.098-3.679-3.098C2.78-1.518 1.18-.94 0 0" clip-path="url(#aO)" transform="matrix(1.33333 0 0 -1.33333 15148.926 1120.07)"/><path fill="#1d1d1b" d="M0 0v6.239h-1.44v1.358H0v3.122h1.539V7.597h3.282V6.239H1.539V.199c0-1.28.701-1.717 1.741-1.717.54 0 .96.098 1.5.359v-1.319c-.54-.3-1.12-.441-1.859-.441C1.241-2.919 0-2.099 0 0" clip-path="url(#aP)" transform="matrix(1.33333 0 0 -1.33333 15163.789 1118.176)"/><path fill="#1d1d1b" d="M0 0c-.16 1.857-1.219 3.52-3.299 3.52-1.82 0-3.139-1.522-3.36-3.52zm-8.218-.601v.039c0 2.981 2.08 5.381 4.96 5.381 3.059 0 4.819-2.439 4.819-5.459 0-.218 0-.32-.02-.499h-8.2c.221-2.24 1.801-3.5 3.639-3.5 1.44 0 2.4.581 3.26 1.459l.96-.862C.16-5.221-1.079-5.978-3.059-5.978c-2.819 0-5.159 2.178-5.159 5.377" clip-path="url(#aQ)" transform="matrix(1.33333 0 0 -1.33333 15183.536 1114.176)"/><path fill="#c6bdad" d="m0 0-.987 147.138 1.998.015L1.998.016Z" clip-path="url(#aR)" transform="matrix(1.33333 0 0 -1.33333 14809.583 1074.626)"/><path fill="#c6bdad" d="m0 0-1.256 1.553 112.798 91.129 1.257-1.553z" clip-path="url(#aS)" transform="matrix(1.33333 0 0 -1.33333 14810.577 1072.4)"/><path fill="#c6bdad" d="m0 0-140.914 28.98.402 1.958L.402 1.959Z" clip-path="url(#aT)" transform="matrix(1.33333 0 0 -1.33333 14998.533 1114.56)"/><path fill="#c6bdad" d="m0 0-62.852 126.27 1.787.89L1.787.89Z" clip-path="url(#aU)" transform="matrix(1.33333 0 0 -1.33333 14893.527 1243.569)"/><path fill="#c6bdad" d="m0 0-1.787.897 63.383 126.298 1.787-.897z" clip-path="url(#aV)" transform="matrix(1.33333 0 0 -1.33333 14727.596 1243.61)"/><path fill="#c6bdad" d="m0 0-.402 1.959 139.868 28.644.402-1.959z" clip-path="url(#aW)" transform="matrix(1.33333 0 0 -1.33333 14624.692 1114.113)"/><path fill="#c6bdad" d="m0 0-112.36 93.127 1.276 1.538L1.276 1.537Z" clip-path="url(#aX)" transform="matrix(1.33333 0 0 -1.33333 14810.064 1075.64)"/><path fill="#c6bdad" d="M0 0h121.611l76.41 94.321-27.308 118.326-110.245 52.36-107.917-52.333-26.666-118.045Zm125.423-7.991H-3.89L-82.746 92.686l28.351 125.498 114.828 55.688 117.198-55.661 29.052-125.888Z" clip-path="url(#aY)" transform="matrix(1.33333 0 0 -1.33333 14728.998 1237.685)"/><path fill="#c6bdad" d="M0 0h99.005l62.79 76.743-23.257 96.678-87.873 43.19-89.87-42.858-21.593-96.015zm99.954-1.998H-.975l-61.981 79.252 22.015 97.888.439.207 91.178 43.479.435-.211 89.151-43.815 23.707-98.558-.314-.383z" clip-path="url(#aZ)" transform="matrix(1.33333 0 0 -1.33333 14744.052 1207.192)"/><path fill="#c6bdad" d="m0 0 74.174-1.654 46.366 59.278-15.898 71.534-66.895 32.928-67.889-32.932L-45.375 57.3Zm75.13-3.676L-.983-1.974l-46.542 58.767 15.631 73.734.441.211 69.208 33.572 68.631-33.787 16.308-73.383-.291-.375z" clip-path="url(#ba)" transform="matrix(1.33333 0 0 -1.33333 14761.054 1172.32)"/><path fill="#c6bdad" d="M0 0h48.011l30.935 39.16-11.185 47.826-43.573 20.551-43.936-22.003-11.183-46.71Zm48.979-1.998H-.964L-33.1 38.34l11.628 48.568.415.206 45.218 22.647 45.324-21.378 11.626-49.707z" clip-path="url(#bb)" transform="matrix(1.33333 0 0 -1.33333 14778.932 1138.758)"/><path fill="#c6bdad" d="M0 0h22.893l16.138 17.426-4.513 24.485-22.586 10-20.961-9.673-5.804-23.216zm23.767-1.998H-.975l-16.032 20.559 6.273 25.09 22.651 10.453 24.377-10.797 4.883-26.505z" clip-path="url(#bc)" transform="matrix(1.33333 0 0 -1.33333 14795.042 1103.87)"/><path fill="#fff" d="M1419.429 407.7h27.273v-11.87h-27.273z" clip-path="url(#bd)" transform="matrix(1.33333 0 0 -1.33333 12900 1440)"/><path fill="#c6bdad" d="M0 0v.023c0 .832-.816 1.456-1.922 1.456-1.104 0-1.921-.617-1.921-1.456V0c0-.913.852-1.537 1.921-1.537S0-.913 0 0m.277-3.937v.023c0 .921-.985 1.596-2.199 1.596-1.225 0-2.197-.675-2.197-1.596v-.023c0-.855.816-1.576 2.197-1.576S.277-4.792.277-3.937m-5.357-.027v.027c0 1.007.72 1.693 1.73 2.064-.782.359-1.442.96-1.442 1.932v.023c0 1.299 1.333 2.224 2.87 2.224S.95 1.381.95.082V.059c0-.972-.661-1.573-1.442-1.932.997-.371 1.729-1.057 1.729-2.056v-.024c0-1.428-1.368-2.388-3.159-2.388-1.789 0-3.158.972-3.158 2.377" clip-path="url(#be)" transform="matrix(1.33333 0 0 -1.33333 14800.773 901.927)"/><path fill="#c6bdad" d="M1428.34 398.596h1.104v-1.264h-1.104z" clip-path="url(#bf)" transform="matrix(1.33333 0 0 -1.33333 12900 1440)"/><path fill="#c6bdad" d="m0 0 .624.683C1.358-.035 2.15-.468 3.014-.468c1.202 0 2.031.792 2.031 1.861v.023c0 1.062-.876 1.768-2.089 1.768-.722 0-1.274-.207-1.766-.48l-.638.421.242 4.094h4.84v-.878H1.621l-.179-2.689c.491.23.948.371 1.658.371 1.633 0 2.905-.972 2.905-2.568v-.023c0-1.647-1.237-2.763-3.003-2.763C1.803-1.331.769-.769 0 0" clip-path="url(#bg)" transform="matrix(1.33333 0 0 -1.33333 14807.983 908.638)"/><path fill="#c6bdad" d="M0 0v.023C0 1.85-.997 3.504-2.569 3.504c-1.575 0-2.558-1.608-2.558-3.457V.023c0-1.826.995-3.484 2.581-3.484S0-1.842 0 0m-6.112 0v.023c0 2.353 1.404 4.347 3.566 4.347S.985 2.404.985.047V.023c0-2.356-1.393-4.346-3.554-4.346-2.176 0-3.543 1.966-3.543 4.323" clip-path="url(#bh)" transform="matrix(1.33333 0 0 -1.33333 14826.06 904.647)"/><path fill="#fff" d="M1423.276 352.851h19.578V339.19h-19.578z" clip-path="url(#bi)" transform="matrix(1.33333 0 0 -1.33333 12900 1440)"/><path fill="#c6bdad" d="M0 0h-4.624v.866h5.705v-.71l-3.82-7.695h-1.058z" clip-path="url(#bj)" transform="matrix(1.33333 0 0 -1.33333 14801.491 973.748)"/><path fill="#c6bdad" d="M1427.536 343.407h1.104v-1.256h-1.104z" clip-path="url(#bk)" transform="matrix(1.33333 0 0 -1.33333 12900 1440)"/><path fill="#c6bdad" d="m0 0 .624.687C1.358-.035 2.15-.468 3.014-.468c1.202 0 2.031.796 2.031 1.865v.023c0 1.054-.876 1.764-2.089 1.764-.722 0-1.274-.203-1.766-.48l-.638.418.242 4.097h4.84v-.874H1.621l-.179-2.693c.491.227.948.375 1.658.375 1.633 0 2.905-.976 2.905-2.575v-.024c0-1.643-1.237-2.762-3.002-2.762C1.803-1.334.769-.769 0 0" clip-path="url(#bl)" transform="matrix(1.33333 0 0 -1.33333 14806.912 982.218)"/><path fill="#c6bdad" d="M0 0v.027C0 1.85-.997 3.512-2.569 3.512c-1.575 0-2.558-1.612-2.558-3.461V.027c0-1.826.995-3.484 2.581-3.484S0-1.834 0 0m-6.112 0v.027c0 2.353 1.404 4.347 3.566 4.347S.985 2.404.985.051V.027c0-2.353-1.393-4.35-3.554-4.35-2.176 0-3.543 1.974-3.543 4.323" clip-path="url(#bm)" transform="matrix(1.33333 0 0 -1.33333 14824.988 978.233)"/><path fill="#fff" d="M1418.984 321.117h28.163v-11.87h-28.163z" clip-path="url(#bn)" transform="matrix(1.33333 0 0 -1.33333 12900 1440)"/><path fill="#c6bdad" d="M0 0h-4.624v.862h5.705V.156l-3.82-7.698h-1.058z" clip-path="url(#bo)" transform="matrix(1.33333 0 0 -1.33333 14800.827 1015.051)"/><path fill="#c6bdad" d="M1427.039 312.43h1.104v-1.26h-1.104z" clip-path="url(#bp)" transform="matrix(1.33333 0 0 -1.33333 12900 1440)"/><path fill="#c6bdad" d="M0 0v.027C0 1.85-.997 3.508-2.569 3.508c-1.575 0-2.558-1.608-2.558-3.457V.027c0-1.826.995-3.488 2.581-3.488S0-1.838 0 0m-6.112 0v.027c0 2.349 1.404 4.347 3.566 4.347S.985 2.404.985.051V.027c0-2.356-1.393-4.35-3.554-4.35-2.176 0-3.543 1.97-3.543 4.323" clip-path="url(#bq)" transform="matrix(1.33333 0 0 -1.33333 14814.224 1019.536)"/><path fill="#c6bdad" d="M0 0v.027C0 1.85-.997 3.508-2.569 3.508c-1.575 0-2.56-1.608-2.56-3.457V.027c0-1.826.997-3.488 2.583-3.488S0-1.838 0 0m-6.112 0v.027c0 2.349 1.404 4.347 3.566 4.347S.985 2.404.985.051V.027c0-2.356-1.393-4.35-3.554-4.35-2.174 0-3.543 1.97-3.543 4.323" clip-path="url(#br)" transform="matrix(1.33333 0 0 -1.33333 14825.651 1019.536)"/><path fill="#fff" d="M1427.221 297.925h11.216v-12.191h-11.216z" clip-path="url(#bs)" transform="matrix(1.33333 0 0 -1.33333 12900 1440)"/><path fill="#c6bdad" d="M0 0v.023c0 1.023-.841 1.803-2.054 1.803-1.263 0-2.102-.913-2.102-1.838v-.023c0-1.069.876-1.889 2.125-1.889C-.794-1.924 0-1.069 0 0m-4.253-1.912c-.671.675-1.056 1.537-1.056 3.258v.024c0 2.555 1.284 4.561 3.495 4.561 1.008 0 1.753-.347 2.485-.96l-.552-.734c-.624.531-1.213.832-1.982.832-1.633 0-2.474-1.706-2.474-3.606v-.117c.566.816 1.297 1.296 2.402 1.296C-.361 2.642.972 1.643.972.059V.035c0-1.623-1.321-2.798-3.015-2.798-.924 0-1.681.324-2.21.851" clip-path="url(#bt)" transform="matrix(1.33333 0 0 -1.33333 14801.082 1052.983)"/><path fill="#c6bdad" d="M1428.438 288.905h1.104v-1.26h-1.104z" clip-path="url(#bu)" transform="matrix(1.33333 0 0 -1.33333 12900 1440)"/><path fill="#c6bdad" d="m0 0 .624.687C1.358-.035 2.15-.468 3.016-.468c1.2 0 2.029.796 2.029 1.865v.023c0 1.058-.878 1.764-2.089 1.764-.722 0-1.274-.203-1.766-.48l-.638.421.242 4.094h4.84v-.874H1.621l-.179-2.693c.491.23.948.375 1.658.375 1.633 0 2.905-.976 2.905-2.572v-.023c0-1.647-1.237-2.763-3.003-2.763C1.803-1.331.769-.769 0 0" clip-path="url(#bv)" transform="matrix(1.33333 0 0 -1.33333 14808.113 1054.892)"/><path fill="#c6bdad" d="M0 0v.023C0 1.85-.997 3.508-2.569 3.508c-1.575 0-2.56-1.612-2.56-3.461V.023c0-1.826.997-3.484 2.583-3.484S0-1.838 0 0m-6.112 0v.023c0 2.353 1.404 4.347 3.566 4.347S.985 2.404.985.047V.023c0-2.352-1.393-4.346-3.554-4.346-2.174 0-3.543 1.97-3.543 4.323" clip-path="url(#bw)" transform="matrix(1.33333 0 0 -1.33333 14826.19 1050.902)"/><path fill="#fff" d="M1426.959 280.434h12.212v-12.199h-12.212z" clip-path="url(#bx)" transform="matrix(1.33333 0 0 -1.33333 12900 1440)"/><path fill="#c6bdad" d="M0 0v.023c0 1.023-.841 1.803-2.054 1.803-1.263 0-2.102-.913-2.102-1.838v-.023c0-1.069.876-1.885 2.125-1.885C-.794-1.92 0-1.069 0 0m-4.253-1.912c-.671.675-1.056 1.537-1.056 3.258v.024c0 2.555 1.284 4.561 3.495 4.561 1.008 0 1.754-.343 2.485-.96l-.552-.734c-.624.531-1.213.832-1.982.832-1.633 0-2.474-1.706-2.474-3.602v-.121c.566.816 1.297 1.296 2.402 1.296 1.574 0 2.907-.995 2.907-2.58V.039c0-1.623-1.321-2.802-3.015-2.802-.924 0-1.681.324-2.21.851" clip-path="url(#by)" transform="matrix(1.33333 0 0 -1.33333 14813.636 1076.134)"/><path fill="#fff" d="M1425.022 385.123h16.086v-12.336h-16.086z" clip-path="url(#bz)" transform="matrix(1.33333 0 0 -1.33333 12900 1440)"/><path fill="#c6bdad" d="M0 0v.023c0 .832-.815 1.456-1.922 1.456-1.104 0-1.921-.613-1.921-1.456V0c0-.913.852-1.537 1.921-1.537S0-.913 0 0m.277-3.937v.023c0 .925-.985 1.596-2.199 1.596-1.225 0-2.196-.671-2.196-1.596v-.023c0-.855.815-1.576 2.196-1.576S.277-4.792.277-3.937m-5.357-.027v.027c0 1.007.722 1.693 1.73 2.064-.782.359-1.442.96-1.442 1.935v.024c0 1.295 1.333 2.22 2.87 2.22S.95 1.381.95.086V.062c0-.975-.661-1.576-1.442-1.935.997-.371 1.729-1.057 1.729-2.052v-.024c0-1.432-1.37-2.392-3.159-2.392s-3.158.972-3.158 2.377" clip-path="url(#bA)" transform="matrix(1.33333 0 0 -1.33333 14813.329 932.56)"/><path fill="#006a79" d="m0 0 84.543-3.843 42.789 68.849-5.134 84.032-80.161 22.491-82.042-19.268-5.768-86.182zm87.778-9.993-91.017 4.14-48.653 70.239 6.202 92.698 87.86 20.633.743-.211 85.01-23.848 5.507-90.189z" clip-path="url(#bB)" transform="matrix(1.33333 0 0 -1.33333 14753.286 1185.008)"/></g></svg>