<svg xmlns="http://www.w3.org/2000/svg" width="720.058" height="556.736" viewBox="0 0 720.058 556.736"><defs><clipPath id="e" clipPathUnits="userSpaceOnUse"><path d="M.003 13.675h27.35v-27.351H.003z"/></clipPath><clipPath id="d" clipPathUnits="userSpaceOnUse"><use href="#a"/></clipPath><clipPath id="g" clipPathUnits="userSpaceOnUse"><path d="M-1368.789 1021.36h1920v-1080h-1920Z"/></clipPath><clipPath id="h" clipPathUnits="userSpaceOnUse"><path d="M-1381.843 1016.456h1920v-1080h-1920Z"/></clipPath><clipPath id="i" clipPathUnits="userSpaceOnUse"><path d="M-1406.222 1018.289h1920v-1080h-1920Z"/></clipPath><clipPath id="j" clipPathUnits="userSpaceOnUse"><path d="M-1423.913 1017.032h1920v-1080h-1920Z"/></clipPath><clipPath id="k" clipPathUnits="userSpaceOnUse"><path d="M-1431.937 1013.085h1920v-1080h-1920Z"/></clipPath><clipPath id="m" clipPathUnits="userSpaceOnUse"><path d="M-1448.107 1018.289h1920v-1080h-1920Z"/></clipPath><clipPath id="n" clipPathUnits="userSpaceOnUse"><path d="M-1452.98 1020.663h1920v-1080h-1920Z"/></clipPath><clipPath id="o" clipPathUnits="userSpaceOnUse"><path d="M-1468.731 1018.289h1920v-1080h-1920Z"/></clipPath><clipPath id="q" clipPathUnits="userSpaceOnUse"><path d="M-1472.428 1018.289h1920v-1080h-1920Z"/></clipPath><clipPath id="s" clipPathUnits="userSpaceOnUse"><path d="M-1492.682 1018.289h1920v-1080h-1920Z"/></clipPath><clipPath id="t" clipPathUnits="userSpaceOnUse"><use href="#b"/></clipPath><clipPath id="u" clipPathUnits="userSpaceOnUse"><path d="M-1385.69 606.081h1920v-1080h-1920Z"/></clipPath><clipPath id="v" clipPathUnits="userSpaceOnUse"><path d="M-1398.5 609.732h1920v-1080h-1920Z"/></clipPath><clipPath id="w" clipPathUnits="userSpaceOnUse"><path d="M-1412.896 616.25h1920v-1080h-1920Z"/></clipPath><clipPath id="x" clipPathUnits="userSpaceOnUse"><path d="M-1425.95 614.394h1920v-1080h-1920Z"/></clipPath><clipPath id="y" clipPathUnits="userSpaceOnUse"><path d="M-1430.842 609.732h1920v-1080h-1920Z"/></clipPath><clipPath id="z" clipPathUnits="userSpaceOnUse"><path d="M-1445.236 616.25h1920v-1080h-1920Z"/></clipPath><clipPath id="A" clipPathUnits="userSpaceOnUse"><path d="M-1449.952 609.732h1920v-1080h-1920Z"/></clipPath><clipPath id="B" clipPathUnits="userSpaceOnUse"><path d="M-1461.589 614.935h1920v-1080h-1920Z"/></clipPath><clipPath id="C" clipPathUnits="userSpaceOnUse"><path d="M-1480.866 614.317h1920v-1080h-1920Z"/></clipPath><clipPath id="D" clipPathUnits="userSpaceOnUse"><path d="M-1431.459 634.71h1920v-1080h-1920Z"/></clipPath><clipPath id="F" clipPathUnits="userSpaceOnUse"><use href="#c"/></clipPath><clipPath id="E" clipPathUnits="userSpaceOnUse"><use href="#a"/></clipPath><clipPath id="G" clipPathUnits="userSpaceOnUse"><path d="M-1561.309 714.5h1920v-1080h-1920Z"/></clipPath><clipPath id="I" clipPathUnits="userSpaceOnUse"><path d="M-.003 13.674h27.35v-27.35H-.003z"/></clipPath><clipPath id="H" clipPathUnits="userSpaceOnUse"><use href="#a"/></clipPath><clipPath id="J" clipPathUnits="userSpaceOnUse"><path d="M-1590.85 841.269h1920v-1080h-1920Z"/></clipPath><clipPath id="L" clipPathUnits="userSpaceOnUse"><path d="M-.004 13.675h27.36v-27.35H-.004z"/></clipPath><clipPath id="K" clipPathUnits="userSpaceOnUse"><use href="#a"/></clipPath><clipPath id="M" clipPathUnits="userSpaceOnUse"><path d="M-1509.322 953.712h1920v-1080h-1920Z"/></clipPath><clipPath id="O" clipPathUnits="userSpaceOnUse"><path d="M-.003 13.675h27.35v-27.35H-.003z"/></clipPath><clipPath id="N" clipPathUnits="userSpaceOnUse"><use href="#a"/></clipPath><clipPath id="P" clipPathUnits="userSpaceOnUse"><path d="M-1352.02 956.366h1920v-1080h-1920Z"/></clipPath><clipPath id="R" clipPathUnits="userSpaceOnUse"><path d="M.004 13.674h27.35v-27.35H.004z"/></clipPath><clipPath id="Q" clipPathUnits="userSpaceOnUse"><use href="#a"/></clipPath><clipPath id="S" clipPathUnits="userSpaceOnUse"><path d="M-1274.4 839.175h1920v-1080h-1920Z"/></clipPath><clipPath id="U" clipPathUnits="userSpaceOnUse"><use href="#c"/></clipPath><clipPath id="T" clipPathUnits="userSpaceOnUse"><use href="#a"/></clipPath><clipPath id="V" clipPathUnits="userSpaceOnUse"><path d="M-1300.107 703.19h1920v-1080h-1920Z"/></clipPath><clipPath id="W" clipPathUnits="userSpaceOnUse"><path d="M-1589.128 700.54h1920v-1080h-1920Z"/></clipPath><clipPath id="X" clipPathUnits="userSpaceOnUse"><use href="#b"/></clipPath><clipPath id="Y" clipPathUnits="userSpaceOnUse"><path d="M-1614.002 710.713h1920v-1080h-1920Z"/></clipPath><clipPath id="Z" clipPathUnits="userSpaceOnUse"><path d="M-1617.304 704.19h1920v-1080h-1920Z"/></clipPath><clipPath id="aa" clipPathUnits="userSpaceOnUse"><path d="M-1637.957 709.397h1920v-1080h-1920Z"/></clipPath><clipPath id="ab" clipPathUnits="userSpaceOnUse"><path d="M-1642.293 704.19h1920v-1080h-1920Z"/></clipPath><clipPath id="ac" clipPathUnits="userSpaceOnUse"><path d="M-1540.783 952.023h1920v-1080h-1920Z"/></clipPath><clipPath id="ad" clipPathUnits="userSpaceOnUse"><path d="M-1546.075 952.023h1920v-1080h-1920Z"/></clipPath><clipPath id="ae" clipPathUnits="userSpaceOnUse"><use href="#b"/></clipPath><clipPath id="af" clipPathUnits="userSpaceOnUse"><path d="M-1571.67 951.98h1920v-1080h-1920Z"/></clipPath><clipPath id="ag" clipPathUnits="userSpaceOnUse"><use href="#b"/></clipPath><clipPath id="ah" clipPathUnits="userSpaceOnUse"><path d="M-1582.341 954.397h1920v-1080h-1920Z"/></clipPath><clipPath id="ai" clipPathUnits="userSpaceOnUse"><path d="M-1597.572 946.815h1920v-1080h-1920Z"/></clipPath><clipPath id="aj" clipPathUnits="userSpaceOnUse"><path d="M-1236.713 943.165h1920v-1080h-1920Z"/></clipPath><clipPath id="ak" clipPathUnits="userSpaceOnUse"><path d="M-1262.285 952.023h1920v-1080h-1920Z"/></clipPath><clipPath id="al" clipPathUnits="userSpaceOnUse"><path d="M-1266.461 953.218h1920v-1080h-1920Z"/></clipPath><clipPath id="am" clipPathUnits="userSpaceOnUse"><path d="M-1279.435 954.397h1920v-1080h-1920Z"/></clipPath><clipPath id="an" clipPathUnits="userSpaceOnUse"><path d="M-1286.948 942.565h1920v-1080h-1920Z"/></clipPath><clipPath id="ao" clipPathUnits="userSpaceOnUse"><path d="M-1299.802 948.173h1920v-1080h-1920Z"/></clipPath><clipPath id="ap" clipPathUnits="userSpaceOnUse"><path d="M-1313.894 951.404h1920v-1080h-1920Z"/></clipPath><clipPath id="aq" clipPathUnits="userSpaceOnUse"><path d="M-1325.691 951.404h1920v-1080h-1920Z"/></clipPath><clipPath id="ar" clipPathUnits="userSpaceOnUse"><use href="#b"/></clipPath><clipPath id="as" clipPathUnits="userSpaceOnUse"><path d="M-1183.152 838.362h1920v-1080h-1920Z"/></clipPath><clipPath id="at" clipPathUnits="userSpaceOnUse"><path d="M-1194.427 838.517h1920v-1080h-1920Z"/></clipPath><clipPath id="au" clipPathUnits="userSpaceOnUse"><use href="#b"/></clipPath><clipPath id="av" clipPathUnits="userSpaceOnUse"><path d="M-1211.205 838.517h1920v-1080h-1920Z"/></clipPath><clipPath id="aw" clipPathUnits="userSpaceOnUse"><path d="M-1215.922 831.994h1920v-1080h-1920Z"/></clipPath><clipPath id="ax" clipPathUnits="userSpaceOnUse"><path d="M-1227.559 837.202h1920v-1080h-1920Z"/></clipPath><clipPath id="ay" clipPathUnits="userSpaceOnUse"><path d="M-1246.834 836.583h1920v-1080h-1920Z"/></clipPath><clipPath id="az" clipPathUnits="userSpaceOnUse"><path d="M-1216.52 707.56h1920v-1080h-1920Z"/></clipPath><clipPath id="aA" clipPathUnits="userSpaceOnUse"><path d="M-1220.194 704.19h1920v-1080h-1920Z"/></clipPath><clipPath id="aB" clipPathUnits="userSpaceOnUse"><path d="M-1239.868 708.779h1920v-1080h-1920Z"/></clipPath><clipPath id="aC" clipPathUnits="userSpaceOnUse"><path d="M-1244.106 704.19h1920v-1080h-1920Z"/></clipPath><clipPath id="aD" clipPathUnits="userSpaceOnUse"><path d="M-1258.5 710.713h1920v-1080h-1920Z"/></clipPath><clipPath id="aE" clipPathUnits="userSpaceOnUse"><use href="#b"/></clipPath><clipPath id="aF" clipPathUnits="userSpaceOnUse"><use href="#b"/></clipPath><clipPath id="aG" clipPathUnits="userSpaceOnUse"><path d="M-1626.382 837.202h1920v-1080h-1920Z"/></clipPath><clipPath id="aH" clipPathUnits="userSpaceOnUse"><path d="M-1632.99 833.353h1920v-1080h-1920Z"/></clipPath><clipPath id="aI" clipPathUnits="userSpaceOnUse"><path d="M-1640.263 839.576h1920v-1080h-1920Z"/></clipPath><clipPath id="aK" clipPathUnits="userSpaceOnUse"><path d="M-1655.035 836.583h1920v-1080h-1920Z"/></clipPath><clipPath id="aL" clipPathUnits="userSpaceOnUse"><path d="M-1659.271 831.998h1920v-1080h-1920Z"/></clipPath><clipPath id="aM" clipPathUnits="userSpaceOnUse"><path d="M-1667.88 839.576h1920v-1080h-1920Z"/></clipPath><clipPath id="aN" clipPathUnits="userSpaceOnUse"><path d="M-1682.215 838.517h1920v-1080h-1920Z"/></clipPath><clipPath id="aO" clipPathUnits="userSpaceOnUse"><path d="M-1686.073 840.993h1920v-1080h-1920Z"/></clipPath><clipPath id="aP" clipPathUnits="userSpaceOnUse"><path d="M-1697.193 839.576h1920v-1080h-1920Z"/></clipPath><clipPath id="aQ" clipPathUnits="userSpaceOnUse"><path d="M-1711.965 836.583h1920v-1080h-1920Z"/></clipPath><clipPath id="aR" clipPathUnits="userSpaceOnUse"><use href="#b"/></clipPath><clipPath id="aS" clipPathUnits="userSpaceOnUse"><path d="M-1433.841 807.763h1920v-1080h-1920Z"/></clipPath><clipPath id="aT" clipPathUnits="userSpaceOnUse"><path d="M-1573.567 836.871h1920v-1080h-1920Z"/></clipPath><clipPath id="aU" clipPathUnits="userSpaceOnUse"><path d="M-1495.012 933.38h1920v-1080h-1920Z"/></clipPath><clipPath id="aV" clipPathUnits="userSpaceOnUse"><path d="M-1371.416 933.38h1920v-1080h-1920Z"/></clipPath><clipPath id="aW" clipPathUnits="userSpaceOnUse"><path d="M-1293.901 836.536h1920v-1080h-1920Z"/></clipPath><clipPath id="aX" clipPathUnits="userSpaceOnUse"><path d="M-1432.577 807.755h1920v-1080h-1920Z"/></clipPath><clipPath id="aY" clipPathUnits="userSpaceOnUse"><path d="M-1371.932 928.978h1920v-1080h-1920Z"/></clipPath><clipPath id="aZ" clipPathUnits="userSpaceOnUse"><path d="M-1383.193 906.171h1920v-1080h-1920Z"/></clipPath><clipPath id="ba" clipPathUnits="userSpaceOnUse"><path d="M-1395.913 880.084h1920v-1080h-1920Z"/></clipPath><clipPath id="bb" clipPathUnits="userSpaceOnUse"><path d="M-1409.286 854.977h1920v-1080h-1920Z"/></clipPath><clipPath id="bc" clipPathUnits="userSpaceOnUse"><path d="M-1421.34 828.877h1920v-1080h-1920Z"/></clipPath><clipPath id="bd" clipPathUnits="userSpaceOnUse"><use href="#b"/></clipPath><clipPath id="be" clipPathUnits="userSpaceOnUse"><path d="M-1425.625 677.802h1920v-1080h-1920Z"/></clipPath><clipPath id="bf" clipPathUnits="userSpaceOnUse"><use href="#b"/></clipPath><clipPath id="bg" clipPathUnits="userSpaceOnUse"><path d="M-1431.02 682.823h1920v-1080h-1920Z"/></clipPath><clipPath id="bh" clipPathUnits="userSpaceOnUse"><path d="M-1444.542 679.842h1920v-1080h-1920Z"/></clipPath><clipPath id="bi" clipPathUnits="userSpaceOnUse"><use href="#b"/></clipPath><clipPath id="bj" clipPathUnits="userSpaceOnUse"><path d="M-1426.162 731.531h1920v-1080h-1920Z"/></clipPath><clipPath id="bk" clipPathUnits="userSpaceOnUse"><use href="#b"/></clipPath><clipPath id="bl" clipPathUnits="userSpaceOnUse"><path d="M-1430.218 737.867h1920v-1080h-1920Z"/></clipPath><clipPath id="bm" clipPathUnits="userSpaceOnUse"><path d="M-1443.74 734.886h1920v-1080h-1920Z"/></clipPath><clipPath id="bn" clipPathUnits="userSpaceOnUse"><use href="#b"/></clipPath><clipPath id="bo" clipPathUnits="userSpaceOnUse"><path d="M-1425.666 762.43h1920v-1080h-1920Z"/></clipPath><clipPath id="bp" clipPathUnits="userSpaceOnUse"><use href="#b"/></clipPath><clipPath id="bq" clipPathUnits="userSpaceOnUse"><path d="M-1435.688 765.784h1920v-1080h-1920Z"/></clipPath><clipPath id="br" clipPathUnits="userSpaceOnUse"><path d="M-1444.237 765.784h1920v-1080h-1920Z"/></clipPath><clipPath id="bs" clipPathUnits="userSpaceOnUse"><use href="#b"/></clipPath><clipPath id="bt" clipPathUnits="userSpaceOnUse"><path d="M-1425.86 790.806h1920v-1080h-1920Z"/></clipPath><clipPath id="bu" clipPathUnits="userSpaceOnUse"><use href="#b"/></clipPath><clipPath id="bv" clipPathUnits="userSpaceOnUse"><path d="M-1431.12 792.234h1920v-1080h-1920Z"/></clipPath><clipPath id="bw" clipPathUnits="userSpaceOnUse"><path d="M-1444.642 789.249h1920v-1080h-1920Z"/></clipPath><clipPath id="bx" clipPathUnits="userSpaceOnUse"><use href="#b"/></clipPath><clipPath id="by" clipPathUnits="userSpaceOnUse"><path d="M-1435.251 808.125h1920v-1080h-1920Z"/></clipPath><clipPath id="bz" clipPathUnits="userSpaceOnUse"><use href="#b"/></clipPath><clipPath id="bA" clipPathUnits="userSpaceOnUse"><path d="M-1435.016 700.718h1920v-1080h-1920Z"/></clipPath><clipPath id="bB" clipPathUnits="userSpaceOnUse"><path d="M-1385.649 899.127h1920v-1080h-1920Z"/></clipPath><path id="a" d="M10320 0h2560v1440h-2560Z"/><path id="b" d="M0 1080h1920V0H0Z"/><path id="c" d="M0 13.675h27.35v-27.35H0z"/><path id="f" fill="#008fc3" d="M0 0c0 7.553 6.124 13.675 13.679 13.675 7.544 0 13.672-6.122 13.672-13.675s-6.128-13.676-13.672-13.676C6.124-13.676 0-7.553 0 0"/><path id="l" fill="#1d1d1b" d="M0 0h1.537v-2.689C2.294-.973 3.791.241 5.745.183v-1.654h-.119c-2.254 0-4.089-1.619-4.089-4.729v-4.11H0Z"/><path id="p" fill="#1d1d1b" d="M0 0v.039c0 2.214-1.654 4.028-3.83 4.028-2.234 0-3.769-1.814-3.769-3.985V.039c0-2.215 1.637-4.009 3.81-4.009C-1.555-3.97 0-2.152 0 0m-9.173 0v.039c0 2.931 2.253 5.386 5.384 5.386 3.112 0 5.365-2.432 5.365-5.343V.039c0-2.931-2.292-5.383-5.406-5.383-3.09 0-5.343 2.433-5.343 5.344"/><path id="r" fill="#1d1d1b" d="M0 0v.039C0 2.97 2.255 5.425 5.287 5.425c1.954 0 3.151-.797 4.128-1.833L8.399 2.514c-.817.856-1.717 1.553-3.133 1.553-2.094 0-3.69-1.751-3.69-3.985V.039c0-2.234 1.637-4.009 3.791-4.009 1.335 0 2.333.658 3.151 1.538l.978-.919C8.457-4.526 7.222-5.344 5.287-5.344 2.255-5.344 0-2.892 0 0"/><path id="aJ" fill="#1d1d1b" d="M0 0v6.223h-1.436v1.355H0v3.113h1.537V7.578h3.27V6.223h-3.27V.198c0-1.276.697-1.716 1.734-1.716.539 0 .958.101 1.497.362v-1.319c-.539-.296-1.117-.436-1.855-.436C1.238-2.911 0-2.094 0 0"/><color-profile name="sRGB IEC61966-2.1"/></defs><g transform="translate(-11884.639 -808.108)"><g clip-path="url(#d)" opacity=".2"><use clip-path="url(#e)" href="#f" transform="matrix(1.33333 0 0 -1.33333 12210.476 853.593)"/></g><path fill="#1d1d1b" d="m0 0 .977 1.156C2.434-.179 3.83-.817 5.764-.817c1.895 0 3.114.996 3.114 2.374v.039c0 1.296-.699 2.016-3.632 2.654C2.036 4.947.558 5.982.558 8.274v.043c0 2.176 1.937 3.81 4.589 3.81 2.053 0 3.47-.58 4.906-1.716l-.917-1.218c-1.298 1.058-2.594 1.518-4.03 1.518-1.835 0-2.971-.977-2.971-2.254v-.043c0-1.315.698-2.07 3.789-2.708 3.113-.701 4.549-1.818 4.549-3.951v-.043c0-2.389-1.996-3.946-4.767-3.946C3.472-2.234 1.676-1.518 0 0" clip-path="url(#g)" transform="matrix(1.33333 0 0 -1.33333 12145.052 1361.813)"/><path fill="#1d1d1b" d="M0 0v.043c0 3.95 2.971 7.219 7.06 7.219 2.534 0 4.071-.879 5.447-2.214l-1.078-1.156c-1.197 1.117-2.474 1.915-4.388 1.915-3.091 0-5.406-2.514-5.406-5.725V.043c0-3.234 2.315-5.764 5.406-5.764 1.914 0 3.172.735 4.508 2.012l1.038-1.016C11.15-6.204 9.514-7.177 7.002-7.177 2.971-7.177 0-4.009 0 0" clip-path="url(#h)" transform="matrix(1.33333 0 0 -1.33333 12162.457 1355.274)"/><path fill="#1d1d1b" d="m0 0-3.172 7.118L-6.363 0Zm-3.888 8.955h1.475L3.95-5.106H2.253L.619-1.417H-6.98l-1.656-3.689h-1.615z" clip-path="url(#i)" transform="matrix(1.33333 0 0 -1.33333 12194.963 1357.718)"/><path fill="#1d1d1b" d="M0 0c2.314 0 3.83 1.238 3.83 3.071v.043c0 1.992-1.497 3.028-3.75 3.028h-3.53V0Zm-5.026 7.597H.198c3.153 0 5.227-1.673 5.227-4.425v-.043c0-3.012-2.514-4.565-5.485-4.565h-3.39v-4.927h-1.576z" clip-path="url(#j)" transform="matrix(1.33333 0 0 -1.33333 12218.551 1356.042)"/><use clip-path="url(#k)" href="#l" transform="matrix(1.33333 0 0 -1.33333 12229.249 1350.78)"/><path fill="#1d1d1b" d="M0 0v.039c0 2.214-1.656 4.028-3.83 4.028-2.234 0-3.771-1.814-3.771-3.985V.039c0-2.215 1.637-4.009 3.81-4.009C-1.557-3.97 0-2.152 0 0m-9.177 0v.039c0 2.931 2.255 5.386 5.386 5.386 3.112 0 5.365-2.432 5.365-5.343V.039c0-2.931-2.294-5.383-5.404-5.383-3.092 0-5.347 2.433-5.347 5.344" clip-path="url(#m)" transform="matrix(1.33333 0 0 -1.33333 12250.81 1357.718)"/><path fill="#1d1d1b" d="M0 0v6.223h-1.436v1.355H0v3.113h1.537V7.578h3.27V6.223h-3.27V.199c0-1.277.697-1.713 1.734-1.713.539 0 .958.097 1.497.358v-1.315c-.539-.3-1.117-.44-1.855-.44C1.238-2.911 0-2.094 0 0" clip-path="url(#n)" transform="matrix(1.33333 0 0 -1.33333 12257.307 1360.884)"/><use clip-path="url(#o)" href="#p" transform="matrix(1.33333 0 0 -1.33333 12278.308 1357.718)"/><use clip-path="url(#q)" href="#r" transform="matrix(1.33333 0 0 -1.33333 12283.238 1357.718)"/><use clip-path="url(#s)" href="#p" transform="matrix(1.33333 0 0 -1.33333 12310.243 1357.718)"/><path fill="#1d1d1b" d="M1497.158 71.165h1.537v-14.56h-1.537z" clip-path="url(#t)" transform="matrix(1.33333 0 0 -1.33333 10320 1440)"/><path fill="#1d1d1b" d="M0 0h10.031v-1.456H1.574v-4.985h7.56v-1.436h-7.56v-6.083H0Z" clip-path="url(#u)" transform="matrix(1.33333 0 0 -1.33333 12167.586 808.108)"/><use clip-path="url(#v)" href="#l" transform="matrix(1.33333 0 0 -1.33333 12184.667 812.976)"/><path fill="#1d1d1b" d="M0 0v.996c-.778.222-1.755.44-3.032.44-1.934 0-3.012-.841-3.012-2.133v-.042c0-1.296 1.218-2.055 2.594-2.055C-1.535-2.794 0-1.639 0 0m-7.599-.798v.039c0 2.156 1.794 3.332 4.408 3.332 1.337 0 2.234-.179 3.172-.44v.362c0 1.852-1.137 2.81-3.073 2.81-1.216 0-2.174-.3-3.131-.759l-.459 1.257c1.136.537 2.234.856 3.749.856 1.458 0 2.575-.377 3.332-1.136.699-.697 1.057-1.713 1.057-3.013v-6.301H-.019v1.557c-.719-.938-1.896-1.779-3.731-1.779-1.915 0-3.849 1.082-3.849 3.215" clip-path="url(#w)" transform="matrix(1.33333 0 0 -1.33333 12203.862 821.668)"/><path fill="#1d1d1b" d="M0 0v.039c0 2.113-1.835 3.487-3.791 3.487-1.973 0-3.569-1.354-3.569-3.468V.016c0-2.071 1.654-3.511 3.569-3.511C-1.835-3.495 0-2.078 0 0m-8.457-7.441.698 1.194c1.197-.856 2.474-1.315 3.968-1.315 2.295 0 3.752 1.257 3.752 3.67v1.214c-.899-1.194-2.156-2.171-4.05-2.171-2.473 0-4.847 1.876-4.847 4.826v.039c0 3.012 2.374 4.868 4.847 4.868 1.935 0 3.17-.957 4.029-2.074v1.853h1.535v-8.516c0-1.596-.457-2.791-1.315-3.651-.938-.934-2.273-1.374-3.929-1.374-1.736 0-3.312.479-4.688 1.437" clip-path="url(#x)" transform="matrix(1.33333 0 0 -1.33333 12221.267 819.193)"/><use clip-path="url(#y)" href="#l" transform="matrix(1.33333 0 0 -1.33333 12227.79 812.976)"/><path fill="#1d1d1b" d="M0 0v.996c-.778.222-1.755.44-3.032.44-1.934 0-3.012-.841-3.012-2.133v-.042c0-1.296 1.216-2.055 2.594-2.055C-1.535-2.794 0-1.639 0 0m-7.599-.798v.039c0 2.156 1.794 3.332 4.408 3.332a10.9 10.9 0 0 0 3.171-.44v.362c0 1.852-1.138 2.81-3.072 2.81-1.216 0-2.174-.3-3.131-.759l-.459 1.257c1.138.537 2.234.856 3.749.856 1.456 0 2.573-.377 3.332-1.136.699-.697 1.057-1.713 1.057-3.013v-6.301H-.02v1.557c-.718-.938-1.895-1.779-3.73-1.779-1.915 0-3.849 1.082-3.849 3.215" clip-path="url(#z)" transform="matrix(1.33333 0 0 -1.33333 12246.982 821.668)"/><path fill="#1d1d1b" d="M0 0h1.537v-1.79C2.234-.677 3.293.222 5.067.222c2.474 0 3.951-1.678 3.951-4.13v-6.402H7.48v6.025c0 1.915-1.015 3.11-2.852 3.11-1.775 0-3.091-1.296-3.091-3.231v-5.904H0Z" clip-path="url(#A)" transform="matrix(1.33333 0 0 -1.33333 12253.269 812.976)"/><use clip-path="url(#B)" href="#r" transform="matrix(1.33333 0 0 -1.33333 12268.785 819.914)"/><path fill="#1d1d1b" d="M0 0c-.16 1.853-1.216 3.511-3.291 3.511-1.815 0-3.131-1.518-3.351-3.511Zm-8.197-.599v.039c0 2.973 2.075 5.367 4.947 5.367 3.052 0 4.807-2.433 4.807-5.445 0-.218 0-.319-.02-.498h-8.179c.22-2.234 1.796-3.492 3.63-3.492 1.436 0 2.393.58 3.251 1.456l.958-.86C.16-5.207-1.076-5.962-3.051-5.962c-2.812 0-5.146 2.171-5.146 5.363" clip-path="url(#C)" transform="matrix(1.33333 0 0 -1.33333 12294.488 819.089)"/><path fill="#1d1d1b" d="m0 0-2.633-.817-.379 1.276L.399 1.635h1.156v-14.062H0Z" clip-path="url(#D)" transform="matrix(1.33333 0 0 -1.33333 12228.612 846.28)"/><g clip-path="url(#E)" opacity=".2"><use clip-path="url(#F)" href="#f" transform="matrix(1.33333 0 0 -1.33333 12390.306 945.032)"/></g><path fill="#1d1d1b" d="m0 0 5.067 4.468C7.2 6.383 7.979 7.461 7.979 8.854c0 1.639-1.297 2.678-2.812 2.678-1.596 0-2.633-.817-3.75-2.398l-1.158.841c1.298 1.876 2.553 2.974 5.026 2.974 2.515 0 4.328-1.682 4.328-3.955v-.039c0-2.031-1.076-3.292-3.53-5.425L2.355.222h7.398v-1.44H0Z" clip-path="url(#G)" transform="matrix(1.33333 0 0 -1.33333 12401.745 952.666)"/><g clip-path="url(#H)" opacity=".2"><use clip-path="url(#I)" href="#f" transform="matrix(1.33333 0 0 -1.33333 12429.644 1115.44)"/></g><path fill="#1d1d1b" d="m0 0 1.138 1.02C2.234-.319 3.491-1.055 5.227-1.055c1.695 0 3.051 1.055 3.051 2.713v.039c0 1.736-1.615 2.693-3.909 2.693h-.897l-.32.938 4.408 4.966H.74v1.417h8.916v-1.16l-4.39-4.865C7.7 5.468 9.874 4.328 9.874 1.755v-.039c0-2.494-2.074-4.207-4.666-4.207C2.872-2.491 1.138-1.495 0 0" clip-path="url(#J)" transform="matrix(1.33333 0 0 -1.33333 12441.134 1121.692)"/><g clip-path="url(#K)" opacity=".2"><use clip-path="url(#L)" href="#f" transform="matrix(1.33333 0 0 -1.33333 12310.779 1268.532)"/></g><path fill="#1d1d1b" d="M0 0v7.2L-5.865 0Zm0-1.315h-7.36l-.399 1.136L.14 9.434h1.376V0H3.69v-1.315H1.516v-3.316H0Z" clip-path="url(#M)" transform="matrix(1.33333 0 0 -1.33333 12332.429 1271.616)"/><g clip-path="url(#N)" opacity=".2"><use clip-path="url(#O)" href="#f" transform="matrix(1.33333 0 0 -1.33333 12111.124 1268.532)"/></g><path fill="#1d1d1b" d="m0 0 1.037 1.136C2.255-.062 3.571-.778 5.007-.778c1.995 0 3.37 1.315 3.37 3.09v.039c0 1.759-1.455 2.934-3.469 2.934-1.197 0-2.116-.338-2.933-.798l-1.056.697.399 6.803h8.036v-1.455H2.693l-.299-4.468c.819.381 1.576.615 2.753.615 2.713 0 4.826-1.612 4.826-4.266v-.039c0-2.732-2.055-4.589-4.985-4.589C2.993-2.215 1.277-1.277 0 0" clip-path="url(#P)" transform="matrix(1.33333 0 0 -1.33333 12122.694 1275.155)"/><g clip-path="url(#Q)" opacity=".2"><use clip-path="url(#R)" href="#f" transform="matrix(1.33333 0 0 -1.33333 11995.661 1115.44)"/></g><path fill="#1d1d1b" d="M0 0v.043c0 1.693-1.397 2.989-3.411 2.989-2.094 0-3.491-1.514-3.491-3.051v-.039c0-1.775 1.457-3.133 3.532-3.133C-1.318-3.191 0-1.775 0 0m-7.062-3.168C-8.179-2.051-8.817-.615-8.817 2.234v.043c0 4.246 2.135 7.577 5.805 7.577 1.675 0 2.911-.576 4.129-1.595L.198 7.044c-1.037.876-2.014 1.374-3.29 1.374-2.713 0-4.108-2.833-4.108-5.982v-.202c.936 1.358 2.152 2.156 3.989 2.156 2.612 0 4.826-1.654 4.826-4.289V.062c0-2.693-2.195-4.647-5.007-4.647-1.535 0-2.792.537-3.67 1.417" clip-path="url(#S)" transform="matrix(1.33333 0 0 -1.33333 12019.201 1118.9)"/><g clip-path="url(#T)" opacity=".2"><use clip-path="url(#U)" href="#f" transform="matrix(1.33333 0 0 -1.33333 12031.266 945.032)"/></g><path fill="#1d1d1b" d="M0 0h-7.679v1.436h9.475V.261l-6.344-12.789h-1.755z" clip-path="url(#V)" transform="matrix(1.33333 0 0 -1.33333 12053.476 937.586)"/><path fill="#1d1d1b" d="M0 0h10.033v-1.456H1.576v-4.989h7.558v-1.436H1.576v-6.083H0Z" clip-path="url(#W)" transform="matrix(1.33333 0 0 -1.33333 12438.838 934.052)"/><path fill="#1d1d1b" d="M1602.079 380.06h1.535v-14.564h-1.535z" clip-path="url(#X)" transform="matrix(1.33333 0 0 -1.33333 10320 1440)"/><path fill="#1d1d1b" d="M0 0v.996c-.778.222-1.755.44-3.032.44-1.934 0-3.012-.837-3.012-2.133v-.042c0-1.296 1.218-2.052 2.594-2.052C-1.535-2.791 0-1.635 0 0m-7.599-.798v.039c0 2.156 1.794 3.332 4.408 3.332 1.337 0 2.234-.179 3.172-.44v.362c0 1.852-1.137 2.81-3.073 2.81-1.216 0-2.174-.3-3.131-.755l-.459 1.253c1.136.541 2.234.86 3.749.86 1.458 0 2.575-.381 3.332-1.136.699-.701 1.057-1.717 1.057-3.013v-6.305H-.019v1.557c-.719-.938-1.896-1.775-3.731-1.775-1.915 0-3.849 1.078-3.849 3.211" clip-path="url(#Y)" transform="matrix(1.33333 0 0 -1.33333 12472.003 947.617)"/><path fill="#1d1d1b" d="M0 0h1.695l3.472-8.558L8.656 0h1.656L5.824-10.392H4.468Z" clip-path="url(#Z)" transform="matrix(1.33333 0 0 -1.33333 12476.406 938.92)"/><path fill="#1d1d1b" d="M0 0v.043c0 2.21-1.656 4.028-3.83 4.028-2.234 0-3.771-1.818-3.771-3.989V.043c0-2.215 1.637-4.013 3.81-4.013C-1.557-3.97 0-2.152 0 0m-9.177 0v.043c0 2.93 2.255 5.382 5.386 5.382 3.112 0 5.365-2.432 5.365-5.343V.043c0-2.935-2.294-5.387-5.404-5.387-3.092 0-5.347 2.433-5.347 5.344" clip-path="url(#aa)" transform="matrix(1.33333 0 0 -1.33333 12503.943 945.863)"/><path fill="#1d1d1b" d="M0 0h1.535v-2.693C2.292-.977 3.789.237 5.745.179v-1.654h-.121c-2.254 0-4.089-1.615-4.089-4.729v-4.11H0Z" clip-path="url(#ab)" transform="matrix(1.33333 0 0 -1.33333 12509.724 938.92)"/><path fill="#1d1d1b" d="m0 0-3.172 7.122L-6.363 0Zm-3.888 8.955h1.475L3.95-5.106H2.254L.619-1.417H-6.98l-1.656-3.689h-1.615z" clip-path="url(#ac)" transform="matrix(1.33333 0 0 -1.33333 12374.377 1269.364)"/><path fill="#1d1d1b" d="M0 0v.043c0 2.93 2.253 5.382 5.285 5.382 1.954 0 3.151-.797 4.13-1.833L8.397 2.514c-.819.856-1.716 1.557-3.131 1.557-2.096 0-3.692-1.755-3.692-3.989V.043c0-2.234 1.637-4.013 3.791-4.013 1.337 0 2.333.662 3.151 1.538l.977-.919C8.457-4.526 7.22-5.344 5.285-5.344 2.253-5.344 0-2.892 0 0" clip-path="url(#ad)" transform="matrix(1.33333 0 0 -1.33333 12381.434 1269.364)"/><path fill="#1d1d1b" d="M1558.23 133.185h1.537v-10.314h-1.537zm-.099 3.95h1.755v-1.697h-1.755z" clip-path="url(#ae)" transform="matrix(1.33333 0 0 -1.33333 10320 1440)"/><path fill="#1d1d1b" d="M0 0v.039c0 2.374-1.816 3.97-3.73 3.97-1.995 0-3.63-1.479-3.63-3.97V0c0-2.456 1.654-3.989 3.63-3.989C-1.816-3.989 0-2.374 0 0m-8.936-.023v.042c0 3.351 2.454 5.364 4.927 5.364 1.915 0 3.151-1.016 3.949-2.192v6.224h1.535V-5.149H-.06v2.074c-.859-1.233-2.034-2.292-3.949-2.292-2.473 0-4.927 1.954-4.927 5.344" clip-path="url(#af)" transform="matrix(1.33333 0 0 -1.33333 12415.559 1269.306)"/><path fill="#1d1d1b" d="M1576.702 133.185h1.537v-10.314h-1.537zm-.1 3.95h1.755v-1.697h-1.755z" clip-path="url(#ag)" transform="matrix(1.33333 0 0 -1.33333 10320 1440)"/><path fill="#1d1d1b" d="M0 0v6.223h-1.436v1.359H0v3.109h1.537V7.582h3.27V6.223h-3.27V.202c0-1.276.697-1.716 1.734-1.716.539 0 .958.101 1.497.358v-1.315c-.539-.3-1.117-.44-1.855-.44C1.238-2.911 0-2.094 0 0" clip-path="url(#ah)" transform="matrix(1.33333 0 0 -1.33333 12429.788 1272.53)"/><path fill="#1d1d1b" d="M0 0h1.637l-4.328-10.652c-.88-2.133-1.896-2.912-3.433-2.912-.856 0-1.495.18-2.193.518l.519 1.218c.499-.26.958-.381 1.616-.381.938 0 1.494.479 2.113 1.938L-8.755 0h1.695l3.75-8.597z" clip-path="url(#ai)" transform="matrix(1.33333 0 0 -1.33333 12450.096 1262.42)"/><path fill="#1d1d1b" d="M0 0h1.596l5.085-7.62L11.767 0h1.596v-13.964h-1.576v11.31l-5.085-7.481h-.08L1.535-2.674v-11.29H0Z" clip-path="url(#aj)" transform="matrix(1.33333 0 0 -1.33333 11968.951 1257.553)"/><path fill="#1d1d1b" d="M0 0v.043c0 2.21-1.654 4.028-3.83 4.028-2.234 0-3.769-1.818-3.769-3.989V.043c0-2.215 1.636-4.013 3.81-4.013C-1.555-3.97 0-2.152 0 0m-9.173 0v.043c0 2.93 2.253 5.382 5.384 5.382 3.112 0 5.365-2.432 5.365-5.343V.043c0-2.935-2.292-5.387-5.406-5.387-3.09 0-5.343 2.433-5.343 5.344" clip-path="url(#ak)" transform="matrix(1.33333 0 0 -1.33333 12003.047 1269.364)"/><path fill="#1d1d1b" d="M0 0v6.402h1.537V.378c0-1.915 1.016-3.11 2.853-3.11 1.756 0 3.09 1.296 3.09 3.23v5.904h1.516V-3.911H7.48v1.798C6.784-3.23 5.725-4.129 3.95-4.129 1.477-4.129 0-2.456 0 0" clip-path="url(#al)" transform="matrix(1.33333 0 0 -1.33333 12008.615 1270.957)"/><path fill="#1d1d1b" d="M0 0v6.223h-1.436v1.359H0v3.109h1.535V7.582h3.274V6.223H1.535V.202c0-1.276.699-1.716 1.736-1.716.539 0 .958.101 1.497.358v-1.315c-.539-.3-1.117-.44-1.855-.44C1.238-2.911 0-2.094 0 0" clip-path="url(#am)" transform="matrix(1.33333 0 0 -1.33333 12025.913 1272.53)"/><path fill="#1d1d1b" d="M0 0h1.535v-6.044c.699 1.117 1.756 2.012 3.53 2.012 2.474 0 3.949-1.674 3.949-4.129v-6.403H7.479v6.025c0 1.915-1.018 3.114-2.851 3.114-1.777 0-3.093-1.3-3.093-3.235v-5.904H0Z" clip-path="url(#an)" transform="matrix(1.33333 0 0 -1.33333 12035.931 1256.754)"/><path fill="#1d1d1b" d="M0 0h-1.417v1.339H0v.895c0 1.179.298 2.055.897 2.654.539.537 1.277.798 2.215.798.718 0 1.196-.078 1.695-.261V4.09c-.559.16-.958.261-1.497.261-1.197 0-1.794-.739-1.794-2.195v-.837h3.271V0H1.535v-8.955H0Z" clip-path="url(#ao)" transform="matrix(1.33333 0 0 -1.33333 12053.069 1264.231)"/><path fill="#1d1d1b" d="M0 0c-.16 1.856-1.216 3.511-3.291 3.511-1.815 0-3.131-1.514-3.351-3.511Zm-8.198-.599v.042c0 2.97 2.074 5.364 4.946 5.364 3.054 0 4.809-2.433 4.809-5.445 0-.218 0-.319-.022-.498h-8.177c.22-2.234 1.795-3.492 3.632-3.492 1.436 0 2.393.58 3.249 1.456l.958-.856C.16-5.204-1.076-5.962-3.051-5.962c-2.812 0-5.147 2.171-5.147 5.363" clip-path="url(#ap)" transform="matrix(1.33333 0 0 -1.33333 12071.859 1268.539)"/><path fill="#1d1d1b" d="M0 0c-.16 1.856-1.216 3.511-3.291 3.511-1.815 0-3.131-1.514-3.351-3.511Zm-8.198-.599v.042c0 2.97 2.074 5.364 4.946 5.364 3.054 0 4.809-2.433 4.809-5.445 0-.218 0-.319-.022-.498h-8.177c.22-2.234 1.794-3.492 3.632-3.492 1.436 0 2.393.58 3.249 1.456l.958-.856C.16-5.204-1.076-5.962-3.051-5.962c-2.812 0-5.147 2.171-5.147 5.363" clip-path="url(#aq)" transform="matrix(1.33333 0 0 -1.33333 12087.588 1268.539)"/><path fill="#1d1d1b" d="M1330.068 137.435h1.537v-14.564h-1.537z" clip-path="url(#ar)" transform="matrix(1.33333 0 0 -1.33333 10320 1440)"/><path fill="#1d1d1b" d="M0 0c0 1.518-1.257 2.397-3.709 2.397h-4.41V-2.53h4.688C-1.296-2.53 0-1.611 0-.039Zm-.778 6.328c0 1.374-1.098 2.273-3.091 2.273h-4.25v-4.81h4.13c1.915 0 3.211.84 3.211 2.495zm-8.895 3.69h5.943c1.595 0 2.852-.459 3.65-1.238a3.12 3.12 0 0 0 .897-2.234v-.039c0-1.817-1.117-2.755-2.214-3.23C.259 2.794 1.596 1.798 1.596-.097v-.039c0-2.394-2.014-3.81-5.068-3.81h-6.201z" clip-path="url(#as)" transform="matrix(1.33333 0 0 -1.33333 11897.536 1117.815)"/><path fill="#1d1d1b" d="M0 0v.996a10.8 10.8 0 0 1-3.032.436c-1.934 0-3.012-.833-3.012-2.133v-.038c0-1.296 1.218-2.055 2.594-2.055C-1.535-2.794 0-1.635 0 0m-7.599-.802v.043c0 2.152 1.794 3.332 4.408 3.332 1.337 0 2.234-.183 3.172-.44v.358c0 1.856-1.137 2.814-3.073 2.814-1.216 0-2.174-.3-3.131-.759l-.459 1.257c1.136.541 2.234.86 3.749.86 1.458 0 2.575-.381 3.332-1.136.699-.701 1.057-1.721 1.057-3.013v-6.305H-.019v1.557c-.719-.938-1.896-1.775-3.731-1.775-1.915 0-3.849 1.074-3.849 3.207" clip-path="url(#at)" transform="matrix(1.33333 0 0 -1.33333 11912.569 1118.023)"/><path fill="#1d1d1b" d="M1199.282 252.256h1.535v-14.564h-1.535z" clip-path="url(#au)" transform="matrix(1.33333 0 0 -1.33333 10320 1440)"/><path fill="#1d1d1b" d="M0 0v.996a10.8 10.8 0 0 1-3.032.436c-1.934 0-3.012-.833-3.012-2.133v-.038c0-1.296 1.218-2.055 2.594-2.055C-1.535-2.794 0-1.635 0 0m-7.599-.802v.043c0 2.152 1.794 3.332 4.408 3.332 1.336 0 2.233-.183 3.171-.44v.358c0 1.856-1.136 2.814-3.072 2.814-1.216 0-2.174-.3-3.131-.759l-.46 1.257c1.137.541 2.234.86 3.75.86 1.458 0 2.575-.381 3.332-1.136.699-.701 1.057-1.721 1.057-3.013v-6.305H-.02v1.557c-.718-.938-1.895-1.775-3.73-1.775-1.915 0-3.849 1.074-3.849 3.207" clip-path="url(#av)" transform="matrix(1.33333 0 0 -1.33333 11934.94 1118.023)"/><path fill="#1d1d1b" d="M0 0h1.535v-1.798C2.234-.677 3.291.218 5.065.218c2.474 0 3.949-1.674 3.949-4.129v-6.403H7.478v6.025c0 1.915-1.017 3.114-2.85 3.114-1.777 0-3.093-1.3-3.093-3.235v-5.904H0Z" clip-path="url(#aw)" transform="matrix(1.33333 0 0 -1.33333 11941.229 1109.326)"/><path fill="#1d1d1b" d="M0 0v.039c0 2.934 2.253 5.386 5.285 5.386 1.954 0 3.151-.797 4.13-1.837L8.397 2.514c-.819.856-1.716 1.557-3.131 1.557-2.096 0-3.692-1.759-3.692-3.993V.039c0-2.234 1.637-4.009 3.791-4.009 1.337 0 2.333.662 3.151 1.534l.977-.915C8.457-4.53 7.22-5.348 5.285-5.348 2.253-5.348 0-2.892 0 0" clip-path="url(#ax)" transform="matrix(1.33333 0 0 -1.33333 11956.745 1116.27)"/><path fill="#1d1d1b" d="M0 0c-.16 1.856-1.216 3.511-3.291 3.511-1.815 0-3.131-1.514-3.351-3.511Zm-8.198-.599v.042c0 2.97 2.074 5.364 4.946 5.364 3.054 0 4.809-2.437 4.809-5.445 0-.222 0-.319-.022-.502h-8.177c.22-2.234 1.795-3.488 3.632-3.488 1.436 0 2.393.576 3.249 1.456l.958-.856C.16-5.204-1.076-5.966-3.051-5.966c-2.812 0-5.147 2.175-5.147 5.367" clip-path="url(#ay)" transform="matrix(1.33333 0 0 -1.33333 11982.445 1115.444)"/><path fill="#1d1d1b" d="M0 0v.039c0 3.172-2.314 5.764-5.505 5.764-3.192 0-5.466-2.553-5.466-5.725V.039c0-3.172 2.315-5.764 5.507-5.764S0-3.172 0 0m-12.606 0v.039c0 3.849 2.892 7.22 7.142 7.22 4.248 0 7.099-3.332 7.099-7.181V.039c0-3.849-2.892-7.22-7.14-7.22S-12.606-3.849-12.606 0" clip-path="url(#az)" transform="matrix(1.33333 0 0 -1.33333 11942.026 943.414)"/><path fill="#1d1d1b" d="M0 0h1.695l3.47-8.558L8.656 0h1.656L5.824-10.392H4.468Z" clip-path="url(#aA)" transform="matrix(1.33333 0 0 -1.33333 11946.925 938.92)"/><path fill="#1d1d1b" d="M0 0c-.16 1.856-1.216 3.511-3.291 3.511-1.815 0-3.131-1.514-3.351-3.511Zm-8.197-.599v.042c0 2.97 2.075 5.364 4.947 5.364 3.052 0 4.807-2.433 4.807-5.445 0-.218 0-.319-.02-.498h-8.179c.22-2.234 1.797-3.492 3.63-3.492 1.436 0 2.393.58 3.251 1.456l.958-.856C.16-5.204-1.076-5.962-3.051-5.962c-2.812 0-5.146 2.171-5.146 5.363" clip-path="url(#aB)" transform="matrix(1.33333 0 0 -1.33333 11973.157 945.038)"/><path fill="#1d1d1b" d="M0 0h1.537v-2.693C2.294-.977 3.791.237 5.745.179v-1.654h-.119c-2.254 0-4.089-1.615-4.089-4.729v-4.11H0Z" clip-path="url(#aC)" transform="matrix(1.33333 0 0 -1.33333 11978.808 938.92)"/><path fill="#1d1d1b" d="M0 0v.996c-.778.222-1.755.44-3.032.44-1.934 0-3.012-.837-3.012-2.133v-.042c0-1.296 1.216-2.052 2.594-2.052C-1.535-2.791 0-1.635 0 0m-7.599-.798v.039c0 2.156 1.794 3.332 4.408 3.332 1.336 0 2.234-.179 3.171-.44v.362c0 1.852-1.138 2.81-3.072 2.81-1.216 0-2.174-.3-3.131-.755l-.459 1.253c1.138.541 2.233.86 3.749.86 1.456 0 2.573-.381 3.332-1.136.699-.701 1.057-1.717 1.057-3.013v-6.305H-.02v1.557c-.718-.938-1.895-1.775-3.73-1.775-1.915 0-3.849 1.078-3.849 3.211" clip-path="url(#aD)" transform="matrix(1.33333 0 0 -1.33333 11998 947.617)"/><path fill="#1d1d1b" d="M1263.355 380.06h1.537v-14.564h-1.537z" clip-path="url(#aE)" transform="matrix(1.33333 0 0 -1.33333 10320 1440)"/><path fill="#1d1d1b" d="M1268.596 380.06h1.535v-14.564h-1.535z" clip-path="url(#aF)" transform="matrix(1.33333 0 0 -1.33333 10320 1440)"/><path fill="#1d1d1b" d="m0 0-3.17 7.118L-6.361 0Zm-3.89 8.955h1.477L3.95-5.106H2.255L.619-1.417H-6.98l-1.656-3.689h-1.615z" clip-path="url(#aG)" transform="matrix(1.33333 0 0 -1.33333 12488.51 1116.27)"/><path fill="#1d1d1b" d="M0 0h-1.417v1.335H0v.899c0 1.175.298 2.055.897 2.654.539.537 1.277.798 2.215.798.718 0 1.196-.082 1.695-.261V4.09c-.559.16-.958.257-1.497.257-1.197 0-1.794-.735-1.794-2.195v-.837h3.271V0H1.535v-8.955H0Z" clip-path="url(#aH)" transform="matrix(1.33333 0 0 -1.33333 12497.321 1111.137)"/><use clip-path="url(#aI)" href="#aJ" transform="matrix(1.33333 0 0 -1.33333 12507.018 1119.435)"/><path fill="#1d1d1b" d="M0 0c-.16 1.853-1.216 3.511-3.291 3.511-1.815 0-3.131-1.518-3.351-3.511Zm-8.198-.599v.039c0 2.973 2.074 5.367 4.946 5.367 3.053 0 4.809-2.433 4.809-5.445 0-.222 0-.319-.022-.498h-8.177c.22-2.234 1.794-3.492 3.632-3.492 1.436 0 2.393.576 3.249 1.456l.958-.86C.16-5.207-1.076-5.966-3.051-5.966c-2.812 0-5.147 2.175-5.147 5.367" clip-path="url(#aK)" transform="matrix(1.33333 0 0 -1.33333 12526.714 1115.444)"/><path fill="#1d1d1b" d="M0 0h1.537v-2.689C2.294-.977 3.791.241 5.745.183v-1.658h-.119c-2.254 0-4.089-1.615-4.089-4.725v-4.11H0Z" clip-path="url(#aL)" transform="matrix(1.33333 0 0 -1.33333 12532.362 1109.331)"/><use clip-path="url(#aM)" href="#aJ" transform="matrix(1.33333 0 0 -1.33333 12543.841 1119.435)"/><path fill="#1d1d1b" d="M0 0v.996c-.778.218-1.755.44-3.032.44-1.934 0-3.012-.841-3.012-2.137v-.038c0-1.296 1.218-2.055 2.594-2.055C-1.535-2.794 0-1.639 0 0m-7.599-.798v.039c0 2.152 1.794 3.332 4.408 3.332 1.337 0 2.234-.179 3.172-.44v.358c0 1.856-1.137 2.814-3.073 2.814-1.216 0-2.174-.3-3.131-.759l-.459 1.257c1.136.537 2.234.856 3.75.856 1.457 0 2.574-.377 3.331-1.136.699-.697 1.057-1.717 1.057-3.013v-6.301H-.019v1.557c-.718-.938-1.896-1.779-3.731-1.779-1.915 0-3.849 1.078-3.849 3.215" clip-path="url(#aN)" transform="matrix(1.33333 0 0 -1.33333 12562.953 1118.023)"/><path fill="#1d1d1b" d="m0 0 .776 1.098C1.893.241 3.131-.218 4.347-.218c1.257 0 2.135.619 2.135 1.635v.039c0 1.019-1.216 1.436-2.572 1.817C2.314 3.752.498 4.27.498 6.184v.039c0 1.775 1.477 2.954 3.511 2.954 1.276 0 2.652-.44 3.711-1.14l-.699-1.156c-.957.619-2.035.996-3.053.996-1.216 0-1.993-.638-1.993-1.494v-.039c0-.977 1.277-1.358 2.653-1.775 1.595-.479 3.31-1.097 3.31-2.954v-.039c0-1.954-1.615-3.09-3.67-3.09C2.773-1.514 1.177-.938 0 0" clip-path="url(#aO)" transform="matrix(1.33333 0 0 -1.33333 12568.098 1121.323)"/><path fill="#1d1d1b" d="M0 0v6.223h-1.436v1.355H0v3.113h1.535V7.578h3.274V6.223H1.535V.198c0-1.276.699-1.716 1.736-1.716.539 0 .958.101 1.497.362v-1.319c-.539-.296-1.117-.436-1.855-.436C1.238-2.911 0-2.094 0 0" clip-path="url(#aP)" transform="matrix(1.33333 0 0 -1.33333 12582.924 1119.435)"/><path fill="#1d1d1b" d="M0 0c-.16 1.853-1.216 3.511-3.291 3.511-1.815 0-3.131-1.518-3.351-3.511Zm-8.197-.599v.039c0 2.973 2.075 5.367 4.947 5.367 3.052 0 4.807-2.433 4.807-5.445 0-.222 0-.319-.02-.498h-8.179c.22-2.234 1.797-3.492 3.63-3.492 1.436 0 2.393.576 3.251 1.456l.958-.86C.16-5.207-1.076-5.966-3.051-5.966c-2.812 0-5.146 2.175-5.146 5.367" clip-path="url(#aQ)" transform="matrix(1.33333 0 0 -1.33333 12602.62 1115.444)"/><path fill="#c6bdad" d="M1434.209 273.012h-1.993v144.306h1.993z" clip-path="url(#aR)" transform="matrix(1.33333 0 0 -1.33333 10320 1440)"/><path fill="#c6bdad" d="m0 0-1.257 1.549 112.68 91.512 1.257-1.549z" clip-path="url(#aS)" transform="matrix(1.33333 0 0 -1.33333 12231.788 1077.017)"/><path fill="#c6bdad" d="m0 0-140.555 28.906.401 1.953L.401 1.954Z" clip-path="url(#aT)" transform="matrix(1.33333 0 0 -1.33333 12418.089 1115.828)"/><path fill="#c6bdad" d="m0 0-62.692 125.948 1.785.887L1.785.887Z" clip-path="url(#aU)" transform="matrix(1.33333 0 0 -1.33333 12313.349 1244.507)"/><path fill="#c6bdad" d="m0 0-1.784.887 62.688 125.948 1.785-.887z" clip-path="url(#aV)" transform="matrix(1.33333 0 0 -1.33333 12148.555 1244.507)"/><path fill="#c6bdad" d="m0 0-.399 1.954 139.511 28.571.398-1.954z" clip-path="url(#aW)" transform="matrix(1.33333 0 0 -1.33333 12045.202 1115.382)"/><path fill="#c6bdad" d="m0 0-112.073 92.89 1.271 1.533L1.271 1.533Z" clip-path="url(#aX)" transform="matrix(1.33333 0 0 -1.33333 12230.103 1077.007)"/><path fill="#c6bdad" d="M0 0h121.302l76.212 94.081-27.237 118.023-109.962 52.227-107.643-52.199-26.598-117.744Zm125.102-7.971H-3.882L-82.535 92.45l28.277 125.177 114.537 55.546 116.899-55.519 28.977-125.566Z" clip-path="url(#aY)" transform="matrix(1.33333 0 0 -1.33333 12149.243 1238.638)"/><path fill="#c6bdad" d="M0 0h98.755l62.627 76.547-23.196 96.435-87.652 43.081-89.638-42.75-21.54-95.769zm99.699-1.993H-.971l-.3.382-61.523 78.672 21.959 97.638.436.206 90.947 43.368.433-.21 88.924-43.703 23.647-98.311-.313-.381z" clip-path="url(#aZ)" transform="matrix(1.33333 0 0 -1.33333 12164.257 1208.228)"/><path fill="#c6bdad" d="m0 0 73.984-1.646 46.247 59.126-15.855 71.352-66.725 32.844-67.717-32.848-15.194-71.671Zm74.938-3.662L-.981-1.969l-.291.365-46.132 58.255 15.59 73.547.439.21 69.032 33.487.437-.214 68.019-33.487.105-.463 16.163-72.733-.29-.374z" clip-path="url(#ba)" transform="matrix(1.33333 0 0 -1.33333 12181.217 1173.445)"/><path fill="#c6bdad" d="M0 0h47.891l30.856 39.064L67.59 86.768l-43.463 20.499-43.822-21.947-11.156-46.591Zm48.856-1.993H-.959l-.3.374-31.756 39.865 11.597 48.444.415.206 45.105 22.589L69.31 88.161l11.595-49.58z" clip-path="url(#bb)" transform="matrix(1.33333 0 0 -1.33333 12199.048 1139.969)"/><path fill="#c6bdad" d="M0 0h22.835L38.93 17.385l-4.499 24.423-22.528 9.975-20.909-9.649-5.789-23.157Zm23.705-1.993H-.973l-15.99 20.511 6.256 25.025L11.885 53.97 36.2 43.201l4.871-26.438Z" clip-path="url(#bc)" transform="matrix(1.33333 0 0 -1.33333 12215.119 1105.17)"/><path fill="#fff" d="M1419.491 406.331h27.203v-11.84h-27.203z" clip-path="url(#bd)" transform="matrix(1.33333 0 0 -1.33333 10320 1440)"/><path fill="#c6bdad" d="M0 0v.023c0 .825-.813 1.448-1.917 1.448-1.101 0-1.916-.611-1.916-1.448V0c0-.911.85-1.533 1.916-1.533C-.85-1.533 0-.911 0 0m.276-3.931v.023c0 .923-.982 1.596-2.193 1.596-1.222 0-2.191-.673-2.191-1.596v-.023c0-.848.813-1.568 2.191-1.568s2.193.72 2.193 1.568m-5.343-.023v.023c0 1.008.718 1.689 1.726 2.063-.781.358-1.438.957-1.438 1.926v.024c0 1.296 1.329 2.218 2.862 2.218S.948 1.378.948.082V.058c0-.969-.66-1.568-1.438-1.926.994-.374 1.724-1.055 1.724-2.051v-.024c0-1.424-1.364-2.385-3.151-2.385-1.784 0-3.15.973-3.15 2.374" clip-path="url(#be)" transform="matrix(1.33333 0 0 -1.33333 12220.833 903.737)"/><path fill="#c6bdad" d="M1428.379 397.247h1.101v-1.257h-1.101z" clip-path="url(#bf)" transform="matrix(1.33333 0 0 -1.33333 10320 1440)"/><path fill="#c6bdad" d="m0 0 .623.681C1.354-.035 2.145-.467 3.007-.467c1.198 0 2.025.79 2.025 1.856v.024c0 1.055-.873 1.763-2.084 1.763-.72 0-1.271-.206-1.761-.479l-.636.417L.792 7.2H5.62v-.876H1.617l-.179-2.681c.49.226.946.37 1.654.37 1.629 0 2.898-.969 2.898-2.565v-.024c0-1.638-1.234-2.755-2.995-2.755C1.798-1.331.767-.767 0 0" clip-path="url(#bg)" transform="matrix(1.33333 0 0 -1.33333 12228.026 910.43)"/><path fill="#c6bdad" d="M0 0v.027c0 1.818-.994 3.472-2.563 3.472S-5.114 1.895-5.114.051V.027c0-1.821.992-3.475 2.574-3.475S0-1.833 0 0m-6.097 0v.027c0 2.347 1.401 4.336 3.557 4.336C-.383 4.363.983 2.397.983.051V.027c0-2.351-1.39-4.339-3.546-4.339-2.17 0-3.534 1.965-3.534 4.312" clip-path="url(#bh)" transform="matrix(1.33333 0 0 -1.33333 12246.056 906.456)"/><path fill="#fff" d="M1423.329 351.623h19.528v-13.626h-19.528z" clip-path="url(#bi)" transform="matrix(1.33333 0 0 -1.33333 10320 1440)"/><path fill="#c6bdad" d="M0 0h-4.612v.864h5.69V.156l-3.81-7.679h-1.055z" clip-path="url(#bj)" transform="matrix(1.33333 0 0 -1.33333 12221.55 975.375)"/><path fill="#c6bdad" d="M1427.577 342.203h1.101v-1.257h-1.101z" clip-path="url(#bk)" transform="matrix(1.33333 0 0 -1.33333 10320 1440)"/><path fill="#c6bdad" d="m0 0 .623.681C1.354-.035 2.145-.467 3.007-.467c1.198 0 2.025.79 2.025 1.856v.024c0 1.054-.873 1.763-2.084 1.763-.72 0-1.271-.206-1.761-.479l-.636.417L.792 7.2H5.62v-.876H1.617l-.179-2.681c.49.226.946.37 1.654.37 1.629 0 2.898-.969 2.898-2.565v-.024c0-1.638-1.234-2.755-2.995-2.755C1.798-1.331.767-.767 0 0" clip-path="url(#bl)" transform="matrix(1.33333 0 0 -1.33333 12226.957 983.823)"/><path fill="#c6bdad" d="M0 0v.027c0 1.818-.994 3.472-2.563 3.472S-5.114 1.895-5.114.051V.027c0-1.821.992-3.475 2.574-3.475C-.957-3.448 0-1.833 0 0m-6.097 0v.027c0 2.347 1.401 4.336 3.557 4.336C-.383 4.363.983 2.397.983.051V.027c0-2.351-1.39-4.339-3.546-4.339-2.17 0-3.534 1.965-3.534 4.312" clip-path="url(#bm)" transform="matrix(1.33333 0 0 -1.33333 12244.987 979.848)"/><path fill="#fff" d="M1419.047 319.969h28.091v-11.84h-28.091z" clip-path="url(#bn)" transform="matrix(1.33333 0 0 -1.33333 10320 1440)"/><path fill="#c6bdad" d="M0 0h-4.612v.864h5.69V.156l-3.81-7.675h-1.055z" clip-path="url(#bo)" transform="matrix(1.33333 0 0 -1.33333 12220.888 1016.572)"/><path fill="#c6bdad" d="M1427.081 311.305h1.101v-1.253h-1.101z" clip-path="url(#bp)" transform="matrix(1.33333 0 0 -1.33333 10320 1440)"/><path fill="#c6bdad" d="M0 0v.027c0 1.818-.994 3.476-2.563 3.476S-5.114 1.895-5.114.051V.027c0-1.821.992-3.475 2.574-3.475C-.957-3.448 0-1.829 0 0m-6.097 0v.027c0 2.347 1.401 4.336 3.557 4.336C-.383 4.363.983 2.397.983.051V.027c0-2.347-1.39-4.339-3.546-4.339-2.17 0-3.534 1.969-3.534 4.312" clip-path="url(#bq)" transform="matrix(1.33333 0 0 -1.33333 12234.251 1021.046)"/><path fill="#c6bdad" d="M0 0v.027c0 1.818-.994 3.476-2.563 3.476S-5.116 1.895-5.116.051V.027c0-1.821.994-3.475 2.576-3.475S0-1.829 0 0m-6.097 0v.027c0 2.347 1.401 4.336 3.557 4.336C-.383 4.363.983 2.397.983.051V.027c0-2.347-1.39-4.339-3.546-4.339-2.168 0-3.534 1.969-3.534 4.312" clip-path="url(#br)" transform="matrix(1.33333 0 0 -1.33333 12245.649 1021.046)"/><path fill="#fff" d="M1422.284 296.709h21.617v-12.168h-21.617z" clip-path="url(#bs)" transform="matrix(1.33333 0 0 -1.33333 10320 1440)"/><path fill="#c6bdad" d="M0 0v.023c0 1.02-.839 1.798-2.049 1.798-1.259 0-2.096-.91-2.096-1.833v-.023c0-1.066.874-1.884 2.119-1.884C-.792-1.919 0-1.066 0 0m-4.242-1.907c-.67.673-1.053 1.533-1.053 3.25v.023c0 2.549 1.28 4.55 3.485 4.55 1.006 0 1.75-.347 2.479-.958l-.55-.731c-.623.529-1.211.829-1.977.829-1.629 0-2.468-1.701-2.468-3.597v-.116c.564.813 1.294 1.292 2.396 1.292C-.36 2.635.969 1.639.969.058V.035c0-1.619-1.317-2.791-3.006-2.791-.923 0-1.678.324-2.205.849" clip-path="url(#bt)" transform="matrix(1.33333 0 0 -1.33333 12221.146 1054.408)"/><path fill="#c6bdad" d="M1428.479 287.84h1.101v-1.257h-1.101z" clip-path="url(#bu)" transform="matrix(1.33333 0 0 -1.33333 10320 1440)"/><path fill="#c6bdad" d="m0 0 .623.685c.731-.72 1.522-1.152 2.384-1.152 1.198 0 2.025.794 2.025 1.86v.024c0 1.054-.873 1.759-2.084 1.759-.72 0-1.271-.203-1.761-.479l-.636.42L.792 7.2H5.62v-.872H1.617l-.179-2.685c.49.229.946.374 1.654.374 1.629 0 2.898-.973 2.898-2.565v-.024c0-1.642-1.234-2.755-2.995-2.755C1.798-1.327.767-.767 0 0" clip-path="url(#bv)" transform="matrix(1.33333 0 0 -1.33333 12228.159 1056.312)"/><path fill="#c6bdad" d="M0 0v.023c0 1.822-.994 3.476-2.563 3.476S-5.114 1.891-5.114.047V.023c0-1.821.992-3.475 2.574-3.475S0-1.833 0 0m-6.097 0v.023c0 2.347 1.401 4.336 3.557 4.336C-.383 4.359.983 2.397.983.047V.023c0-2.347-1.39-4.335-3.546-4.335-2.17 0-3.534 1.965-3.534 4.312" clip-path="url(#bw)" transform="matrix(1.33333 0 0 -1.33333 12246.19 1052.332)"/><path fill="#fff" d="M1427.002 279.391h12.181v-12.168h-12.181z" clip-path="url(#bx)" transform="matrix(1.33333 0 0 -1.33333 10320 1440)"/><path fill="#c6bdad" d="M0 0v.023c0 1.02-.839 1.798-2.049 1.798-1.259 0-2.096-.91-2.096-1.833v-.023c0-1.066.874-1.884 2.119-1.884C-.792-1.919 0-1.066 0 0m-4.242-1.907c-.67.673-1.053 1.533-1.053 3.25v.023c0 2.549 1.28 4.55 3.485 4.55 1.006 0 1.75-.347 2.479-.958l-.55-.731c-.623.529-1.211.829-1.977.829-1.629 0-2.468-1.701-2.468-3.596v-.117c.564.813 1.294 1.292 2.396 1.292C-.36 2.635.969 1.639.969.058V.035c0-1.619-1.317-2.79-3.006-2.79-.923 0-1.678.323-2.205.848" clip-path="url(#by)" transform="matrix(1.33333 0 0 -1.33333 12233.668 1077.5)"/><path fill="#fff" d="M1425.07 383.812h16.045v-12.304h-16.045z" clip-path="url(#bz)" transform="matrix(1.33333 0 0 -1.33333 10320 1440)"/><path fill="#c6bdad" d="M0 0v.023c0 .825-.813 1.448-1.917 1.448-1.101 0-1.917-.607-1.917-1.448V0c0-.911.851-1.533 1.917-1.533S0-.911 0 0m.276-3.931v.023c0 .927-.982 1.596-2.193 1.596-1.222 0-2.191-.669-2.191-1.596v-.023c0-.848.813-1.568 2.191-1.568s2.193.72 2.193 1.568m-5.343-.023v.023c0 1.008.718 1.689 1.726 2.063-.781.358-1.438.957-1.438 1.93v.024c0 1.292 1.329 2.214 2.862 2.214S.948 1.378.948.086V.062c0-.973-.66-1.572-1.438-1.93.994-.374 1.724-1.055 1.724-2.047v-.024c0-1.428-1.364-2.389-3.151-2.389-1.784 0-3.15.973-3.15 2.374" clip-path="url(#bA)" transform="matrix(1.33333 0 0 -1.33333 12233.355 934.291)"/><path fill="#008fc3" d="M0 0h94.349l50.531 72.488-3.965 96.719-93.504 16.712-90.464-18.728-10.706-95.559zm97.494-6.025H-3.01l-57.003 75.952 11.459 102.277 95.881 19.849 99.41-17.763 4.245-103.585z" clip-path="url(#bB)" transform="matrix(1.33333 0 0 -1.33333 12167.532 1198.836)"/></g></svg>