<svg width="110" height="103" viewBox="0 0 110 103" fill="none" xmlns="http://www.w3.org/2000/svg">
<g clip-path="url(#clip0_564_101)">
<path d="M7.51255 76.0984L0 90.4497H3.8999L4.66543 88.7524H10.9099L11.6993 90.4497H15.6232L8.0867 76.0984H7.51255ZM5.90924 85.9292L7.68032 82.1743H7.87171L9.64208 85.9292L9.85743 86.3125H5.69424L5.90924 85.9292Z" fill="#0B312C"/>
<path d="M31.77 90.4504H30.9805L21.6975 82.533V90.4504H18.252V76.0987H19.0418L28.3251 83.705V76.1227H31.77V90.4504Z" fill="#0B312C"/>
<path d="M42.2952 82.1742H42.1038L40.3334 85.9294L40.1181 86.3121H44.2813L44.0659 85.9294L42.2952 82.1742ZM41.9367 76.0983H42.5105L50.047 90.45H46.1232L45.334 88.7519H39.0889L38.3237 90.45H34.4238L41.9367 76.0983Z" fill="#0B312C"/>
<path d="M64.0447 89.0151C64.0447 89.0151 62.4411 90.7615 58.925 90.7615C54.1158 90.7615 51.2207 87.3886 51.2207 83.2743C51.2207 79.1604 54.1158 75.7879 58.925 75.7879C62.4654 75.7879 64.0447 77.5335 64.0447 77.5335L62.0587 80.1886C62.0587 80.1886 60.5755 79.1121 58.9722 79.1121C56.5318 79.1121 54.8094 80.7866 54.8094 83.2743C54.8094 85.762 56.5318 87.4361 58.9722 87.4361C61.0059 87.4361 62.0587 86.3604 62.0587 86.3604L64.0447 89.0151Z" fill="#0B312C"/>
<path d="M73.2756 82.1742H73.0843L71.3135 85.9294L71.0985 86.3121H75.2617L75.0464 85.9294L73.2756 82.1742ZM72.9172 76.0983H73.491L81.0275 90.45H77.1036L76.3142 88.7519H70.0694L69.3042 90.45H65.4043L72.9172 76.0983Z" fill="#0B312C"/>
<path d="M83.6562 76.0983H95.0694V79.0885H87.1255V81.9106H93.8485V84.6376H87.1255V90.45H83.6562V76.0983Z" fill="#0B312C"/>
<path d="M105.263 75.1896H103.062V74.6632L103.732 71.4101H107.632V71.9365L105.263 75.1896ZM108.373 84.6381H102.057V87.4602H110V90.4504H98.5879V76.0987H110V79.0883H102.057V81.9111H108.373V84.6381Z" fill="#0B312C"/>
<path d="M21.8695 98.6764H25.3995V99.4593C25.3995 101.505 24.2891 103 22.0448 103C19.7071 103 18.293 101.353 18.293 99.3423C18.293 97.3327 19.7071 95.6847 22.0448 95.6847C23.9031 95.6847 24.6862 96.5617 24.6862 96.5617L23.681 97.8467C23.681 97.8467 23.0149 97.3095 22.0215 97.3095C20.8879 97.3095 20.0458 98.1274 20.0458 99.3423C20.0458 100.558 20.8879 101.376 22.0215 101.376C23.0264 101.376 23.5526 100.768 23.5758 100.079V100.009H21.8695V98.6764Z" fill="#0B312C"/>
<path d="M27.5039 99.8214V95.8366H29.1984V99.8214C29.1984 100.628 29.7014 101.364 30.7299 101.364C31.7819 101.364 32.2495 100.639 32.2495 99.8214V95.8366H33.9444V99.8214C33.9444 101.633 32.7403 103 30.7299 103C28.7549 103 27.5039 101.633 27.5039 99.8214Z" fill="#0B312C"/>
<path d="M38.971 95.8363H39.2515L42.9335 102.847H41.0165L40.6309 102.018H37.5802L37.206 102.847H35.3008L38.971 95.8363ZM39.1463 98.8043H39.0529L38.188 100.639L38.0828 100.826H40.1168L40.0113 100.639L39.1463 98.8043Z" fill="#0B312C"/>
<path d="M43.3066 95.8365H49.408V97.2971H47.2108V102.848H45.5159V97.2971H43.3066V95.8365Z" fill="#0B312C"/>
<path d="M56.2709 100.009H53.1851V101.387H57.0657V102.848H51.4902V95.8369H57.0657V97.2978H53.1851V98.6765H56.2709V100.009Z" fill="#0B312C"/>
<path d="M65.0479 99.1671L63.2243 100.955H62.9324L61.0854 99.1553V102.848H59.4023V95.8364H59.8581L63.049 98.8398L66.2867 95.8364H66.731V102.848H65.0479V99.1671Z" fill="#0B312C"/>
<path d="M72.1683 95.8367H72.4487L76.1308 102.848H74.2138L73.8281 102.018H70.7775L70.4033 102.848H68.498L72.1683 95.8367ZM72.3436 98.8048H72.2502L71.3852 100.639L71.2801 100.827H73.3141L73.2086 100.639L72.3436 98.8048Z" fill="#0B312C"/>
<path d="M77.8828 102.848V95.8367H79.5773V101.387H83.1424V102.848H77.8828Z" fill="#0B312C"/>
<path d="M88.0394 95.8367H88.3198L92.0019 102.848H90.0848L89.6992 102.018H86.6486L86.2747 102.848H84.3691L88.0394 95.8367ZM88.2147 98.8048H88.1213L87.2563 100.639L87.1512 100.827H89.1852L89.0796 100.639L88.2147 98.8048Z" fill="#0B312C"/>
<path d="M74.579 47.2413C74.4198 46.339 74.2016 45.4313 73.9355 44.5211C74.926 43.9285 75.9069 43.2443 76.8659 42.4718L85.1404 58.2297H73.064C74.7979 55.3296 75.337 51.5419 74.579 47.2413ZM42.9602 23.6486C43.8405 23.4325 44.7771 23.3263 45.7554 23.3263C49.5208 23.3263 53.9019 24.9021 58.0801 27.7932C58.4743 28.0668 58.8671 28.3512 59.257 28.6483C59.6423 28.9413 60.0257 29.2449 60.4049 29.5607C61.677 30.6161 62.9161 31.7891 64.0927 33.0859C64.9566 34.0383 65.7561 35.024 66.4941 36.0304C66.7145 36.3319 66.9294 36.6359 67.1384 36.9406C67.4328 37.3701 67.7168 37.8025 67.9865 38.2384C68.2695 38.6951 68.5381 39.1554 68.7939 39.6178C69.4271 40.7616 69.978 41.9193 70.4351 43.0798C70.6147 43.5361 70.7757 43.9921 70.9274 44.4478C71.0823 44.9156 71.2264 45.3819 71.3502 45.8472C71.5194 46.4795 71.6596 47.11 71.7702 47.7362C72.3529 51.0408 72.0499 53.9356 70.9292 56.179C70.1168 52.7557 68.3932 49.8477 65.5701 47.2592C65.0074 46.7442 64.3982 46.242 63.7475 45.7503C63.2735 45.393 62.7763 45.0407 62.2536 44.6942C61.7425 44.3544 61.208 44.0204 60.6493 43.6903C60.4511 43.5733 60.2515 43.4564 60.0476 43.3409C59.8168 43.2103 59.5861 43.0798 59.3486 42.9503C58.9708 42.7454 58.5805 42.5426 58.1835 42.3402C57.5177 42.0015 56.823 41.6668 56.1012 41.3356C55.1496 40.9 54.153 40.4697 53.1016 40.0445C52.5472 39.8203 52.0206 39.5796 51.5101 39.3314C45.0987 36.2174 42.0612 31.3575 40.669 28.0253C40.503 27.6276 40.3585 27.2525 40.2361 26.9038C40.1503 26.6592 40.0748 26.4288 40.0079 26.2132C39.8791 25.7987 39.784 25.4425 39.7149 25.1564C40.1063 24.8638 40.5248 24.6131 40.9609 24.3928C41.5876 24.0752 42.253 23.822 42.9602 23.6486ZM83.7306 26.4503C83.149 30.0456 81.2219 33.8466 78.3054 37.1548C78.0947 37.3941 77.8797 37.6262 77.6629 37.8547C77.3167 38.2191 76.9639 38.5707 76.6048 38.9072C76.2439 39.2459 75.8765 39.5696 75.5044 39.8789C74.6745 40.5699 73.8217 41.1872 72.9599 41.7279C72.2824 40.0631 71.4403 38.4094 70.4452 36.7946C70.9875 35.6938 71.4901 34.4743 71.9605 33.131C72.1733 32.5255 72.3783 31.895 72.5779 31.2387C72.6992 30.8389 72.819 30.4333 72.9367 30.0142C73.0068 29.7631 73.0819 29.5196 73.1596 29.2792C73.3177 28.7914 73.4922 28.3279 73.6786 27.8834C75.4386 23.6897 78.3533 21.3783 80.4682 20.1841C81.1994 19.7718 81.8326 19.4917 82.2912 19.3136C83.7024 20.963 84.2154 23.4594 83.7306 26.4503ZM73.8414 17.7328C75.9409 17.1156 77.8497 17.048 79.4315 17.5061C77.0058 18.8047 73.6013 21.3386 71.4149 25.9575C71.1592 26.4975 70.9206 27.0669 70.7016 27.6659C70.5167 28.1727 70.3432 28.6959 70.1887 29.2463C70.1583 29.3579 70.125 29.4641 70.0935 29.5746C69.7104 30.9194 69.3015 32.184 68.8493 33.3595C68.7606 33.5916 68.6708 33.823 68.5778 34.0483C68.5267 33.9797 68.4737 33.9124 68.4222 33.8438C67.7304 32.9314 66.992 32.0377 66.2058 31.1697C64.8432 29.668 63.3898 28.2975 61.8755 27.0737C62.4783 26.1799 63.1526 25.3016 63.8981 24.4561C64.6289 23.6275 65.398 22.8567 66.195 22.1511C66.5628 21.8253 66.937 21.5149 67.3158 21.218C67.6982 20.9173 68.086 20.6329 68.4773 20.3626C70.2155 19.1634 72.0327 18.2647 73.8414 17.7328ZM54.9539 2.85186C55.635 2.85186 56.2589 3.22917 56.5755 3.83107L64.8364 19.5629C63.7589 20.4684 62.7258 21.4734 61.7589 22.5703C60.9562 23.4805 60.2307 24.416 59.5764 25.3656C56.8187 23.4812 53.9158 22.08 51.0226 21.2735C48.7428 20.6383 46.5786 20.4026 44.585 20.5439L53.332 3.83358C53.6475 3.22989 54.2728 2.85186 54.9539 2.85186ZM34.3215 40.1504C35.6995 44.6502 38.3416 49.1765 41.9543 53.1588C42.0072 53.2167 42.0612 53.2718 42.1138 53.3301L39.9059 58.2297H24.8579L34.3215 40.1504ZM47.4621 54.5275C46.9255 54.0733 46.3986 53.5972 45.8814 53.1019C45.4024 52.6434 44.9327 52.1674 44.4726 51.676C44.3371 51.5319 44.2004 51.3902 44.0673 51.2429C39.7657 46.501 37.1046 41.1156 36.3187 36.3351C36.172 35.441 36.0894 34.5683 36.0754 33.725C36.0504 32.2262 36.24 30.821 36.6496 29.5532C36.866 28.8826 37.1443 28.251 37.4867 27.6648C37.5053 27.7213 37.5271 27.7807 37.5471 27.8383C37.7353 28.373 37.9649 28.9599 38.2422 29.5861C38.4679 30.0961 38.7226 30.629 39.0166 31.1815C41.0839 35.0694 44.9402 39.8217 52.0328 42.6889C53.5585 43.3051 54.9593 43.9252 56.2485 44.5554C60.689 46.7234 63.774 49.0091 65.7525 51.676C67.1351 53.5397 67.9765 55.5907 68.37 57.9175C68.3857 58.0119 68.4008 58.1067 68.4151 58.2018C68.4605 58.5005 68.5013 58.8016 68.532 59.1095C68.2316 59.3391 67.9135 59.5458 67.5823 59.7336C65.0725 61.157 61.712 61.3705 57.9034 60.3094C54.3401 59.3152 50.7403 57.3077 47.4621 54.5275ZM87.6656 56.904L79.0548 40.5051C79.5267 40.037 79.9921 39.5531 80.4442 39.0406C83.7128 35.3344 85.8802 31.0245 86.5466 26.9056C87.2514 22.5485 86.2136 18.8912 83.623 16.607C81.0327 14.3238 77.2723 13.7523 73.0361 14.9973C71.0418 15.5838 69.0468 16.5458 67.1434 17.8212L59.101 2.50566C58.289 0.960304 56.7003 4.95911e-05 54.9539 4.95911e-05C53.2054 4.95911e-05 51.6153 0.96209 50.8051 2.51174L40.9777 21.2842C39.5643 21.7935 38.288 22.5445 37.1872 23.5427C34.1133 26.3294 32.7901 30.6408 33.3925 35.7757L22.3313 56.9075C21.8681 57.7913 21.9014 58.8524 22.4183 59.7064C22.9352 60.5597 23.8603 61.0808 24.8579 61.0808H39.9059C41.0281 61.0808 42.0458 60.4231 42.5066 59.401L44.2659 55.497C48.2001 59.1667 52.6802 61.8133 57.1375 63.0561C58.9987 63.575 60.7852 63.8318 62.4636 63.8318C65.6556 63.8318 68.4533 62.9012 70.6312 61.0808H85.1404C86.1392 61.0808 87.065 60.559 87.5815 59.7046C88.0981 58.8502 88.1296 57.7877 87.6656 56.904Z" fill="#738720"/>
</g>
<defs>
<clipPath id="clip0_564_101">
<rect width="110" height="103" fill="white"/>
</clipPath>
</defs>
</svg>
