<svg width="165" height="145" viewBox="0 0 165 145" fill="none" xmlns="http://www.w3.org/2000/svg">
<g clip-path="url(#clip0_574_10)">
<path d="M77.6728 95.4616C80.0712 92.2401 83.7975 90.2802 87.7595 90.0563C88.6931 93.8987 87.893 98.0213 85.4946 101.244C83.0961 104.466 79.3691 106.425 75.4078 106.649C74.4742 102.807 75.2743 98.6844 77.6728 95.4616ZM77.1144 113.986C82.7842 113.313 88.0394 110.351 91.509 105.69C95.9517 99.7206 96.8711 91.7664 93.9074 84.9327L93.0473 82.9504L90.8948 82.7061C83.47 81.8639 76.1011 85.0474 71.6583 91.0159C68.852 94.7863 67.456 99.3487 67.5513 103.92H67.5322C67.5322 121.985 82.2367 136.681 100.311 136.681V129.219C89.9407 129.219 81.013 122.941 77.1144 113.986Z" fill="#39B54A"/>
<path d="M157.204 136.404C157.014 136.731 156.449 137.494 155.309 137.494H116.94C116.161 137.494 115.435 137.075 115.045 136.403L111.418 130.143C118.504 123.09 123.05 113.505 123.475 102.959C124.222 84.4879 112.381 67.8581 94.9651 62.3314L94.9508 57.6082C97.7517 56.2258 99.6823 53.3464 99.6823 50.0259V44.6702C99.6823 40.008 95.8756 36.2158 91.1979 36.2158H73.4086C68.7302 36.2158 64.9242 40.008 64.9242 44.6702V50.0259C64.9242 53.3579 66.8684 56.2462 69.6993 57.6231L69.6925 62.4386C52.9457 67.8975 41.4895 83.47 41.4895 101.276C41.4895 112.25 45.7708 122.481 53.5463 130.202L49.9534 136.404C49.5639 137.075 48.8387 137.494 48.0596 137.494H9.69024C8.55096 137.494 7.98642 136.731 7.79711 136.404C7.60711 136.076 7.22644 135.207 7.79642 134.224L80.6045 8.55161C81.1752 7.56693 82.1197 7.46104 82.4991 7.46104C82.879 7.46104 83.8236 7.56693 84.3942 8.55161L157.204 134.224C157.773 135.207 157.393 136.076 157.204 136.404ZM84.0871 134.645C74.8209 135.077 66.0363 131.8 59.351 125.438C52.6617 119.072 48.9776 110.491 48.9776 101.276C48.9776 85.913 59.4075 72.5855 74.3409 68.8659L77.1731 68.1601L77.1915 54.7559L77.1581 51.0194H73.4086C72.859 51.0194 72.4123 50.5735 72.4123 50.0259V44.6702C72.4123 44.1232 72.859 43.6773 73.4086 43.6773H91.1979C91.7468 43.6773 92.1935 44.1232 92.1935 44.6702V50.0259C92.1935 50.5735 91.7468 51.0194 91.1979 51.0194H87.4416L87.4948 68.1079L90.3562 68.7926C105.853 72.5 116.635 86.743 115.993 102.658C115.301 119.806 101.287 133.857 84.0871 134.645ZM163.688 130.492L90.8786 4.81984C89.1305 1.8013 85.9973 -0.000442505 82.4991 -0.000442505C79.0015 -0.000442505 75.8683 1.8013 74.1202 4.81984L1.31209 130.492C-0.437362 133.511 -0.437362 137.116 1.31209 140.135C3.06017 143.154 6.19271 144.956 9.69024 144.956H48.0596C51.5061 144.956 54.7169 143.108 56.4385 140.135L59.3905 135.04C66.1622 139.67 74.1229 142.145 82.4745 142.145C83.1249 142.145 83.7773 142.13 84.4317 142.1C92.2242 141.742 99.4794 139.156 105.574 134.981L108.56 140.133C110.282 143.108 113.493 144.956 116.94 144.956H155.309C158.807 144.956 161.94 143.154 163.688 140.135C165.438 137.116 165.438 133.511 163.688 130.492Z" fill="#0071BC"/>
</g>
<defs>
<clipPath id="clip0_574_10">
<rect width="165" height="145" fill="white"/>
</clipPath>
</defs>
</svg>
