<svg width="150" height="151" viewBox="0 0 150 151" fill="none" xmlns="http://www.w3.org/2000/svg">
<path d="M16.55 115.028C16.3791 115.047 16.2847 115.066 16.1903 115.066C14.6718 115.068 13.1533 115.063 11.6353 115.072C11.3695 115.073 11.2329 114.999 11.1564 114.726C10.5422 112.538 8.5161 112.427 7.13116 112.861C6.32472 113.113 5.83147 113.744 5.644 114.563C5.52655 115.077 5.41781 115.605 5.41042 116.128C5.37823 118.484 5.3443 120.841 5.39693 123.196C5.41477 124.013 5.6005 124.851 5.86496 125.628C6.00372 126.036 6.41737 126.438 6.81145 126.659C8.59179 127.656 10.8432 126.628 11.1999 124.645C11.3486 123.817 11.3021 122.955 11.3504 122.109C11.3665 121.828 11.1968 121.802 10.9806 121.802C10.2538 121.806 9.52697 121.804 8.80014 121.803C8.62615 121.803 8.45173 121.803 8.24599 121.803V117.459H16.5591C16.573 117.594 16.5996 117.717 16.5961 117.839C16.5365 120.065 16.47 122.292 16.4104 124.518C16.3016 128.583 13.0502 131.089 10.0585 131.522C6.975 131.968 4.23426 131.37 2.00808 129.021C0.693603 127.634 0.249934 125.959 0.128578 124.151C-0.0967368 120.802 -0.0210529 117.455 0.317354 114.115C0.415657 113.145 0.744059 112.236 1.32996 111.447C2.94979 109.266 5.08071 108.021 7.86147 107.993C9.74924 107.973 11.5879 108.204 13.1729 109.312C15.1407 110.687 16.1842 112.631 16.55 115.028Z" fill="#3F2B56"/>
<path d="M29.2753 107.461H34.3113C34.3231 107.612 34.3418 107.737 34.3418 107.861C34.3418 113.248 34.3557 118.635 34.3331 124.022C34.32 127.124 32.1352 130.26 29.1374 131.172C22.7864 133.105 18.378 128.69 18.3427 123.659C18.3101 118.994 18.3358 114.329 18.3358 109.663V109.19H23.3718V109.756C23.3718 114.165 23.3588 118.574 23.3884 122.983C23.3919 123.541 23.5197 124.143 23.7577 124.646C24.3092 125.811 25.2244 126.492 26.6045 126.378C27.8399 126.277 28.5545 125.512 28.9838 124.465C29.1783 123.991 29.2609 123.44 29.2631 122.924C29.2835 117.986 29.2753 113.048 29.2753 108.11V107.461Z" fill="#3F2B56"/>
<path d="M41.1984 124.41L42.0766 115.08H43.2919L44.2375 124.477L41.1984 124.41ZM46.331 111.723H38.9696L36.6738 132.264L40.4972 132.282L40.8608 127.901L44.7778 128.035L45.1971 132.282H48.9756L46.331 111.723Z" fill="#3F2B56"/>
<path d="M100.196 124.411L101.075 115.081H102.29L103.236 124.478L100.196 124.411ZM105.329 111.724H97.9676L95.6719 132.265L99.4948 132.283L99.8589 127.902L103.776 128.036L104.195 132.283H107.974L105.329 111.724Z" fill="#3F2B56"/>
<path d="M124.054 124.41L124.932 115.08H126.147L127.093 124.477L124.054 124.41ZM129.186 111.723H121.825L119.529 132.264L123.353 132.282L123.716 127.901L127.633 128.035L128.053 132.282H131.831L129.186 111.723Z" fill="#3F2B56"/>
<path d="M113.971 127.682V105.222H109.242V131.563H111.007H113.971H117.238V127.682H113.971Z" fill="#3F2B56"/>
<path d="M133.787 106.741H139.862L145.118 121.231V108.212H150V131.357H144.63L138.594 117.561V131.605H133.787V106.741Z" fill="#3F2B56"/>
<path d="M86.6301 104.908L82.2291 121.515L77.8276 104.905L71.4609 104.901V131.483H76.2326V115.115L80.8024 131.516H82.2121V131.518H83.6558L88.2251 115.117V131.486H92.9967V104.903L86.6301 104.908Z" fill="#3F2B56"/>
<path d="M58.1055 107.757H69.0937V111.743H62.918V114.211H67.837V118.056H62.9323V126.84H67.737V131.542H58.1055V107.757Z" fill="#3F2B56"/>
<path d="M50.7984 105.276H45.5723V100.621H59.1098V105.316H55.4461V131.501H50.7984C50.9285 131.27 50.7984 105.276 50.7984 105.276Z" fill="#3F2B56"/>
<path d="M34.9375 144.816V144.786C34.9375 141.818 37.1806 139.387 40.3959 139.387C42.3694 139.387 43.5508 140.043 44.5229 140.998L43.0575 142.683C42.2502 141.952 41.4277 141.505 40.3807 141.505C38.616 141.505 37.3451 142.966 37.3451 144.756V144.786C37.3451 146.576 38.586 148.067 40.3807 148.067C41.5773 148.067 42.3098 147.59 43.1323 146.844L44.5977 148.321C43.5208 149.469 42.3246 150.185 40.3059 150.185C37.2254 150.185 34.9375 147.814 34.9375 144.816Z" fill="#3F2B56"/>
<path d="M55.8939 144.816V144.786C55.8939 142.996 54.5781 141.505 52.7234 141.505C50.8691 141.505 49.5833 142.966 49.5833 144.756V144.786C49.5833 146.576 50.8991 148.067 52.7534 148.067C54.6077 148.067 55.8939 146.605 55.8939 144.816ZM47.1758 144.816V144.786C47.1758 141.818 49.5233 139.387 52.7534 139.387C55.9835 139.387 58.3014 141.788 58.3014 144.756V144.786C58.3014 147.754 55.9535 150.185 52.7234 150.185C49.4937 150.185 47.1758 147.784 47.1758 144.816Z" fill="#3F2B56"/>
<path d="M61.8477 139.565H69.818V141.654H64.1504V143.876H69.1451V145.964H64.1504V150.006H61.8477V139.565Z" fill="#3F2B56"/>
<path d="M73.1543 139.565H81.1247V141.654H75.457V143.876H80.4518V145.964H75.457V150.006H73.1543V139.565Z" fill="#3F2B56"/>
<path d="M84.4609 139.565H92.3565V141.609H86.7489V143.726H91.6836V145.77H86.7489V147.962H92.4313V150.006H84.4609V139.565Z" fill="#3F2B56"/>
<path d="M95.9805 139.565H103.876V141.609H98.2684V143.726H103.203V145.77H98.2684V147.962H103.951V150.006H95.9805V139.565Z" fill="#3F2B56"/>
<path d="M106.777 148.485L108.138 146.859C109.08 147.635 110.067 148.127 111.264 148.127C112.205 148.127 112.774 147.753 112.774 147.142V147.112C112.774 146.531 112.415 146.232 110.665 145.785C108.557 145.248 107.196 144.666 107.196 142.593V142.563C107.196 140.669 108.722 139.416 110.86 139.416C112.385 139.416 113.686 139.894 114.748 140.743L113.552 142.474C112.624 141.832 111.712 141.445 110.83 141.445C109.948 141.445 109.484 141.847 109.484 142.354V142.384C109.484 143.07 109.933 143.294 111.742 143.757C113.865 144.308 115.062 145.069 115.062 146.888V146.918C115.062 148.992 113.477 150.155 111.219 150.155C109.633 150.155 108.034 149.603 106.777 148.485Z" fill="#3F2B56"/>
<path d="M111.564 0.000175476C105.624 0.000175476 100.637 5.21035 99.7885 11.9425C99.7624 12.149 99.5906 12.3052 99.3818 12.3052H75.003H50.6442C50.4241 12.3052 50.2428 12.1403 50.2149 11.9225C49.3589 5.19994 44.3757 0.000175476 38.4416 0.000175476C31.8763 0.000175476 26.5352 6.27244 26.5352 13.9812C26.5352 21.0964 31.0851 26.9873 36.9465 27.8529V52.0135C36.9465 59.9899 43.1616 66.5446 51.0149 67.1147V72.4585C51.0149 80.9282 57.8989 87.7944 66.3907 87.7944H75.003H83.6153C92.1071 87.7944 98.9912 80.9282 98.9912 72.4585V67.1147C106.844 66.5446 113.059 59.9899 113.059 52.0135V27.8529C118.921 26.9873 123.471 21.0964 123.471 13.9812C123.471 6.27244 118.13 0.000175476 111.564 0.000175476Z" fill="white"/>
<path d="M93.9636 17.7584C92.3564 16.833 89.975 17.9454 88.6448 20.2434C87.44 22.325 87.5148 24.6608 88.7336 25.771C88.8601 25.8864 88.9954 25.9931 89.1464 26.0803C90.2025 26.6881 91.5918 26.4122 92.7984 25.502C93.4282 25.0274 94.0089 24.3831 94.4652 23.5953C95.7953 21.2972 95.5709 18.6838 93.9636 17.7584Z" fill="#562E91"/>
<path d="M113.542 24.6416C113.508 24.6576 113.474 24.6741 113.441 24.6876C113.127 24.816 112.926 24.7991 112.818 24.6867C112.702 24.5665 112.705 24.2823 112.755 24.1674C113.2 23.15 113.448 22.0532 113.581 20.982C113.848 18.5819 113.584 16.3502 113.428 14.2811C113.34 13.2437 113.276 12.2355 113.248 11.2398C113.217 10.2814 113.276 9.33643 113.4 8.37327C113.52 7.41011 113.745 6.44044 114.016 5.43781C114.016 5.43781 114.224 4.73235 114.384 4.19307C114.479 3.86985 114.851 3.71713 115.147 3.87809C116.888 4.82086 118.338 6.45086 119.285 8.49736C119.321 8.57285 119.355 8.64921 119.389 8.72557C119.454 8.87308 119.516 9.02276 119.575 9.17417C119.646 9.35466 119.713 9.53774 119.776 9.72387C119.785 9.7486 119.793 9.77377 119.801 9.79936C119.942 10.2193 120.069 10.6488 120.167 11.0931H120.155C120.365 12.0424 120.479 13.0416 120.479 14.0746C120.479 20.6414 115.859 23.5808 113.542 24.6416ZM112.467 3.60693C112.259 3.85596 112.056 4.11324 111.861 4.3792C111.178 5.3315 110.595 6.39532 110.181 7.54288C109.762 8.68652 109.507 9.90826 109.417 11.1248C109.369 11.7144 109.364 12.301 109.36 12.8832C109.375 13.4633 109.403 14.0377 109.445 14.6039C109.631 16.869 110.074 18.9542 110.265 20.9126C110.396 22.1664 110.397 23.3847 110.201 24.6498C110.136 25.0689 110.085 25.4906 110.079 25.9145L110.07 26.4733V27.1185V52.0144C110.07 58.7305 104.611 64.175 97.8781 64.175H96.3856V59.511C101.04 58.8025 104.617 54.7829 104.617 49.9458V43.3317C104.617 39.243 101.294 35.9288 97.1943 35.9288H96.7527C99.5919 34.6511 101.604 31.8705 101.766 28.6027C101.778 28.3693 101.583 28.1753 101.349 28.1753H94.7444C94.8949 28.9884 94.8232 29.8804 94.1759 30.8514C93.4351 31.962 92.2359 32.7217 90.8991 32.6953C88.9012 32.6571 87.2814 31.093 87.1517 29.1237C84.7524 30.3615 83.0185 32.7009 82.6235 35.4719L82.5392 40.2886C82.5322 40.6799 82.2795 41.0249 81.9076 41.1498L75.3915 43.7169C75.1418 43.815 74.8638 43.815 74.6141 43.7169L68.0981 41.1498C67.7261 41.0249 67.473 40.6799 67.4665 40.2886L67.3816 35.4719C66.9871 32.7009 65.2528 30.3615 62.8539 29.1237C62.7242 31.093 61.1052 32.6562 59.1073 32.6953C57.7706 32.7217 56.5705 31.9625 55.8297 30.8514C55.182 29.8804 55.1107 28.9884 55.2612 28.1753H48.6564C48.4219 28.1753 48.2275 28.3693 48.2392 28.6027C48.4015 31.8705 50.4137 34.6511 53.2524 35.9288H52.8109C48.7116 35.9288 45.3888 39.243 45.3888 43.3317V49.9458C45.3888 54.7829 48.9656 58.8025 53.62 59.511V64.175H52.1275C45.3944 64.175 39.9358 58.7305 39.9358 52.0144V27.1185V26.4733L39.9271 25.9145C39.921 25.4906 39.8696 25.0689 39.8044 24.6498C39.6087 23.3847 39.6095 22.1664 39.74 20.9126C39.9314 18.9542 40.3742 16.869 40.5604 14.6039C40.6022 14.0377 40.6309 13.4633 40.6452 12.8832C40.6417 12.301 40.6365 11.7144 40.5887 11.1248C40.4982 9.90826 40.2433 8.68652 39.8244 7.54288C39.4107 6.39532 38.827 5.3315 38.1445 4.3792C37.9492 4.11324 37.7465 3.85596 37.5377 3.60693C37.3472 3.37916 37.4929 3.02644 37.7895 3.00301C37.9666 2.98912 38.1449 2.98218 38.325 2.98218C38.3494 2.98218 38.3729 2.98435 38.3972 2.98479C38.412 2.98479 38.4264 2.98218 38.4412 2.98218C43.2834 2.98218 47.2818 7.8418 47.3549 13.8147L47.3679 14.8568C47.3705 15.0959 47.5654 15.2876 47.8047 15.2876H64.1658C64.5329 15.2876 64.8274 15.5783 64.8452 15.9436C65.198 23.3296 69.0768 29.2556 73.9821 29.9845C74.317 30.0344 74.6463 29.8335 74.7303 29.5064C75.2992 27.2881 75.3223 25.0871 74.9217 22.9031C74.5224 20.6015 73.7964 18.2786 73.2335 15.8308C73.17 15.5536 73.384 15.2876 73.6689 15.2876H75.0026H75.3884C75.7116 15.2876 75.9904 15.5115 76.0605 15.8261C76.5437 18.0088 77.0688 20.2631 77.2054 22.6584C77.2776 24.091 77.1749 25.5657 76.8104 26.9749C76.5898 27.8031 76.281 28.6005 75.8913 29.3463C75.7347 29.6457 75.9913 29.9997 76.3236 29.9355C81.1228 29.0075 84.8724 23.0884 85.1682 15.7766C85.1791 15.5041 85.3988 15.2876 85.6715 15.2876H102.224C102.45 15.2876 102.635 15.1059 102.638 14.8798L102.65 13.8147C102.723 7.8418 106.722 2.98218 111.564 2.98218C111.579 2.98218 111.594 2.98479 111.608 2.98479C111.632 2.98435 111.656 2.98218 111.681 2.98218C111.86 2.98218 112.039 2.98912 112.216 3.00301C112.512 3.02644 112.658 3.37916 112.467 3.60693ZM76.8787 56.6406C76.7521 56.6406 76.6494 56.5382 76.6494 56.412V55.2805C76.6494 55.1542 76.7521 55.0519 76.8787 55.0519H78.2293C82.2538 55.0519 85.5166 51.7975 85.5166 47.7835V39.6877C85.5166 39.2578 85.8659 38.9098 86.297 38.9098H97.1943C99.5358 38.9098 101.454 40.7303 101.612 43.0262H88.6494C88.3397 43.0262 88.0883 43.2766 88.0883 43.5859V45.448C88.0883 45.7565 88.3397 46.0073 88.6494 46.0073H101.628V49.8334H88.6494C88.3397 49.8334 88.0883 50.0838 88.0883 50.3927V52.2548C88.0883 52.5641 88.3397 52.8149 88.6494 52.8149H100.972C99.8916 55.0727 97.5866 56.6406 94.9162 56.6406H76.8787ZM83.6149 84.8144H75.0026H66.3907C61.9526 84.8144 58.0542 82.4733 55.8667 78.9651H75.0026H94.1389C91.9509 82.4733 88.0526 84.8144 83.6149 84.8144ZM61.739 64.9225C61.1361 64.9112 60.6202 64.6015 60.3675 64.0518L58.3304 59.6217L58.3122 59.5822H63.1222H64.4472H65.0679L65.0505 59.6217L63.3637 63.4314L63.0975 64.0327C62.9844 64.2891 62.8121 64.4956 62.602 64.6466C62.3588 64.821 62.0639 64.9203 61.739 64.9225ZM62.8112 75.0205L63.4411 73.5975L63.9931 72.351L64.1545 71.9861C64.3537 71.5367 64.7282 71.2364 65.1863 71.1362C65.292 71.1132 65.4003 71.0972 65.5134 71.0967C65.6434 71.0937 65.7665 71.1093 65.8848 71.1362C66.3298 71.2364 66.6852 71.5332 66.8844 71.967L67.0615 72.351L67.62 73.5662L68.9402 76.4366H66.2985H64.9248H63.5511H62.1844L62.8112 75.0205ZM79.7052 73.5662L78.385 76.4366H75.0026H71.6206L70.3004 73.5662H75.0026H79.7052ZM75.0026 62.2166H66.5647L67.714 59.6217L67.8358 59.3462H75.0026H82.1694L82.2916 59.6217L83.4409 62.2166H75.0026ZM84.9377 59.5822H85.5584H86.8834H91.6934L91.6752 59.6217L89.6377 64.0518C89.3854 64.6015 88.8691 64.9112 88.2666 64.9225C87.9417 64.9203 87.6468 64.821 87.4036 64.6466C87.1935 64.4956 87.0212 64.2891 86.9081 64.0327L86.6419 63.4314L84.9551 59.6217L84.9377 59.5822ZM85.8507 71.9861L86.0125 72.351L86.5641 73.5975L87.1944 75.0205L87.8212 76.4366H86.4545H85.0808H83.7071H81.0654L82.3856 73.5662L82.9441 72.351L83.1212 71.967C83.3204 71.5332 83.6753 71.2364 84.1203 71.1362C84.2386 71.1093 84.3622 71.0937 84.4918 71.0967C84.6053 71.0972 84.7136 71.1132 84.8189 71.1362C85.2774 71.2364 85.6519 71.5367 85.8507 71.9861ZM55.0894 56.6406C52.4186 56.6406 50.114 55.0727 49.0339 52.8149H61.3562C61.6659 52.8149 61.9173 52.5641 61.9173 52.2548V50.3927C61.9173 50.0838 61.6659 49.8334 61.3562 49.8334H48.3775V46.0073H61.3562C61.6659 46.0073 61.9173 45.7565 61.9173 45.448V43.5859C61.9173 43.2766 61.6659 43.0262 61.3562 43.0262H48.3932C48.5515 40.7303 50.4694 38.9098 52.8109 38.9098H63.7086C64.1397 38.9098 64.489 39.2578 64.489 39.6877V47.7835C64.489 51.7975 67.7514 55.0519 71.7759 55.0519H73.1265C73.2531 55.0519 73.3562 55.1542 73.3562 55.2805V56.412C73.3562 56.5382 73.2531 56.6406 73.1265 56.6406H55.0894ZM37.1875 24.6867C37.0801 24.7991 36.8782 24.816 36.5655 24.6876C36.5311 24.6741 36.4976 24.6576 36.4633 24.6416C34.1465 23.5808 29.5261 20.6414 29.5261 14.0746C29.5261 13.0416 29.6405 12.0424 29.8502 11.0931H29.8384C29.9363 10.6488 30.0633 10.2193 30.2043 9.79936C30.2125 9.77377 30.2208 9.7486 30.2295 9.72387C30.293 9.53774 30.3595 9.35466 30.4309 9.17417C30.49 9.02276 30.5514 8.87308 30.6162 8.72557C30.6501 8.64921 30.6849 8.57285 30.7202 8.49736C31.6667 6.45086 33.1174 4.82086 34.8582 3.87809C35.1553 3.71713 35.5259 3.86985 35.6216 4.19307C35.7812 4.73235 35.9891 5.43781 35.9891 5.43781C36.2606 6.44044 36.4855 7.41011 36.6051 8.37327C36.7295 9.33643 36.7882 10.2814 36.7573 11.2398C36.7299 12.2355 36.6655 13.2437 36.5777 14.2811C36.4215 16.3502 36.1579 18.5819 36.4241 20.982C36.5572 22.0532 36.8056 23.15 37.2497 24.1674C37.3002 24.2823 37.3032 24.5665 37.1875 24.6867ZM111.564 0.00115204C105.624 0.00115204 100.637 5.21133 99.7881 11.9435C99.762 12.15 99.5902 12.3062 99.3814 12.3062H75.0026H50.6442C50.4241 12.3062 50.2428 12.1413 50.2149 11.9235C49.3584 5.20092 44.3757 0.00115204 38.4412 0.00115204C31.8763 0.00115204 26.5352 6.27341 26.5352 13.9822C26.5352 21.0974 31.0847 26.9883 36.9465 27.8539V52.0144C36.9465 59.9909 43.1612 66.5456 51.0144 67.1157V72.4595C51.0144 80.9292 57.8989 87.7954 66.3907 87.7954H75.0026H83.6149C92.1067 87.7954 98.9908 80.9292 98.9908 72.4595V67.1157C106.844 66.5456 113.059 59.9909 113.059 52.0144V27.8539C118.921 26.9883 123.47 21.0974 123.47 13.9822C123.47 6.27341 118.129 0.00115204 111.564 0.00115204Z" fill="#562E91"/>
<path d="M56.0448 17.7589C54.4376 18.6842 54.2132 21.2977 55.5433 23.5957C55.9996 24.3836 56.5803 25.0279 57.2101 25.5025C58.4167 26.4127 59.806 26.6886 60.8621 26.0808C61.0131 25.9936 61.1483 25.8869 61.2749 25.7715C62.4937 24.6613 62.5685 22.3255 61.3636 20.2439C60.0335 17.9458 57.652 16.8335 56.0448 17.7589Z" fill="#562E91"/>
</svg>
