<svg width="277" height="236" viewBox="0 0 277 236" fill="none" xmlns="http://www.w3.org/2000/svg">
<g clip-path="url(#clip0_573_3)">
<path d="M0 162.713H30.0345V169.573H7.799V179.021H26.8762V185.428H7.799V201.542H0V162.713Z" fill="white"/>
<mask id="mask0_573_3" style="mask-type:luminance" maskUnits="userSpaceOnUse" x="-139" y="-114" width="555" height="464">
<path d="M-138.631 -113.162H415.631V349.162H-138.631V-113.162Z" fill="white"/>
</mask>
<g mask="url(#mask0_573_3)">
<path d="M37.1865 184.975V162.713H44.9855V184.975C44.9855 190.347 48.1432 194.877 54.524 194.877C60.9695 194.877 63.9342 190.411 63.9342 184.975V162.713H71.7329V184.975C71.7329 195.006 65.3521 202.384 54.524 202.384C43.825 202.384 37.1865 195.006 37.1865 184.975Z" fill="white"/>
</g>
<mask id="mask1_573_3" style="mask-type:luminance" maskUnits="userSpaceOnUse" x="-139" y="-114" width="555" height="464">
<path d="M-138.631 -113.162H415.631V349.162H-138.631V-113.162Z" fill="white"/>
</mask>
<g mask="url(#mask1_573_3)">
<path d="M117.685 201.542H115.816L89.9064 177.856V201.542H82.1074V162.713H84.0411L109.951 185.881V162.777H117.685V201.542Z" fill="white"/>
</g>
<mask id="mask2_573_3" style="mask-type:luminance" maskUnits="userSpaceOnUse" x="-139" y="-114" width="555" height="464">
<path d="M-138.631 -113.162H415.631V349.162H-138.631V-113.162Z" fill="white"/>
</mask>
<g mask="url(#mask2_573_3)">
<path d="M160.414 197.595C160.414 197.595 156.095 202.384 146.75 202.384C134.117 202.384 126.189 193.324 126.189 182.128C126.189 170.932 134.117 161.871 146.75 161.871C156.16 161.871 160.414 166.661 160.414 166.661L155.966 172.679C155.966 172.679 151.97 169.379 146.879 169.379C139.467 169.379 134.246 174.75 134.246 182.128C134.246 189.506 139.467 194.941 146.879 194.941C152.743 194.941 155.966 191.576 155.966 191.576L160.414 197.595Z" fill="white"/>
</g>
<mask id="mask3_573_3" style="mask-type:luminance" maskUnits="userSpaceOnUse" x="-139" y="-114" width="555" height="464">
<path d="M-138.631 -113.162H415.631V349.162H-138.631V-113.162Z" fill="white"/>
</mask>
<g mask="url(#mask3_573_3)">
<path d="M183.227 176.885H182.712L176.847 189.57L176.396 190.411H189.544L189.093 189.57L183.227 176.885ZM182.325 162.713H183.679L203.594 201.542H194.764L192.251 196.236H173.753L171.304 201.542H162.474L182.325 162.713Z" fill="white"/>
</g>
<mask id="mask4_573_3" style="mask-type:luminance" maskUnits="userSpaceOnUse" x="-139" y="-114" width="555" height="464">
<path d="M-138.631 -113.162H415.631V349.162H-138.631V-113.162Z" fill="white"/>
</mask>
<g mask="url(#mask4_573_3)">
<path d="M209.199 162.713H239.234V169.573H216.998V179.021H236.075V185.428H216.998V201.542H209.199V162.713Z" fill="white"/>
</g>
<mask id="mask5_573_3" style="mask-type:luminance" maskUnits="userSpaceOnUse" x="-139" y="-114" width="555" height="464">
<path d="M-138.631 -113.162H415.631V349.162H-138.631V-113.162Z" fill="white"/>
</mask>
<g mask="url(#mask5_573_3)">
<path d="M263.788 160.254H258.889V159.024L261.016 150.029H269.911V151.258L263.788 160.254ZM273.069 185.428H254.764V194.682H277V201.542H246.966V162.713H277V169.573H254.764V179.021H273.069V185.428Z" fill="white"/>
</g>
<mask id="mask6_573_3" style="mask-type:luminance" maskUnits="userSpaceOnUse" x="-139" y="-114" width="555" height="464">
<path d="M-138.631 -113.162H415.631V349.162H-138.631V-113.162Z" fill="white"/>
</mask>
<g mask="url(#mask6_573_3)">
<path d="M77.6963 228.138H84.106V229.561C84.106 233.281 82.0898 236 78.0149 236C73.77 236 71.2021 233.004 71.2021 229.349C71.2021 225.694 73.77 222.698 78.0149 222.698C81.3895 222.698 82.8117 224.291 82.8117 224.291L80.9862 226.629C80.9862 226.629 79.7764 225.651 77.9728 225.651C75.9142 225.651 74.3858 227.138 74.3858 229.349C74.3858 231.559 75.9142 233.046 77.9728 233.046C79.7971 233.046 80.7521 231.941 80.7955 230.688V230.561H77.6963V228.138Z" fill="white"/>
</g>
<mask id="mask7_573_3" style="mask-type:luminance" maskUnits="userSpaceOnUse" x="-139" y="-114" width="555" height="464">
<path d="M-138.631 -113.162H415.631V349.162H-138.631V-113.162Z" fill="white"/>
</mask>
<g mask="url(#mask7_573_3)">
<path d="M87.9258 230.219V222.973H91.0032V230.219C91.0032 231.686 91.9159 233.025 93.7838 233.025C95.6939 233.025 96.5427 231.707 96.5427 230.219V222.973H99.6202V230.219C99.6202 233.513 97.4336 236 93.7838 236C90.1968 236 87.9258 233.513 87.9258 230.219Z" fill="white"/>
</g>
<mask id="mask8_573_3" style="mask-type:luminance" maskUnits="userSpaceOnUse" x="-139" y="-114" width="555" height="464">
<path d="M-138.631 -113.162H415.631V349.162H-138.631V-113.162Z" fill="white"/>
</mask>
<g mask="url(#mask8_573_3)">
<path d="M109.062 228.371H108.892L107.321 231.708L107.13 232.047H110.824L110.632 231.708L109.062 228.371ZM108.744 222.973H109.253L115.938 235.724H112.457L111.757 234.215H106.218L105.539 235.724H102.079L108.744 222.973Z" fill="white"/>
</g>
<mask id="mask9_573_3" style="mask-type:luminance" maskUnits="userSpaceOnUse" x="-139" y="-114" width="555" height="464">
<path d="M-138.631 -113.162H415.631V349.162H-138.631V-113.162Z" fill="white"/>
</mask>
<g mask="url(#mask9_573_3)">
<path d="M116.616 222.973H127.695V225.63H123.705V235.724H120.627V225.63H116.616V222.973Z" fill="white"/>
</g>
<mask id="mask10_573_3" style="mask-type:luminance" maskUnits="userSpaceOnUse" x="-139" y="-114" width="555" height="464">
<path d="M-138.631 -113.162H415.631V349.162H-138.631V-113.162Z" fill="white"/>
</mask>
<g mask="url(#mask10_573_3)">
<path d="M140.151 230.56H134.548V233.068H141.594V235.724H131.471V222.973H141.594V225.63H134.548V228.137H140.151V230.56Z" fill="white"/>
</g>
<mask id="mask11_573_3" style="mask-type:luminance" maskUnits="userSpaceOnUse" x="-139" y="-114" width="555" height="464">
<path d="M-138.631 -113.162H415.631V349.162H-138.631V-113.162Z" fill="white"/>
</mask>
<g mask="url(#mask11_573_3)">
<path d="M156.087 229.03L152.777 232.281H152.247L148.893 229.008V235.724H145.837V222.973H146.665L152.459 228.435L158.338 222.973H159.144V235.724H156.087V229.03Z" fill="white"/>
</g>
<mask id="mask12_573_3" style="mask-type:luminance" maskUnits="userSpaceOnUse" x="-139" y="-114" width="555" height="464">
<path d="M-138.631 -113.162H415.631V349.162H-138.631V-113.162Z" fill="white"/>
</mask>
<g mask="url(#mask12_573_3)">
<path d="M169.331 228.371H169.161L167.59 231.708L167.399 232.047H171.092L170.9 231.708L169.331 228.371ZM169.012 222.973H169.522L176.207 235.724H172.726L172.026 234.215H166.486L165.808 235.724H162.348L169.012 222.973Z" fill="white"/>
</g>
<mask id="mask13_573_3" style="mask-type:luminance" maskUnits="userSpaceOnUse" x="-139" y="-114" width="555" height="464">
<path d="M-138.631 -113.162H415.631V349.162H-138.631V-113.162Z" fill="white"/>
</mask>
<g mask="url(#mask13_573_3)">
<path d="M179.388 235.724V222.973H182.465V233.068H188.938V235.724H179.388Z" fill="white"/>
</g>
<mask id="mask14_573_3" style="mask-type:luminance" maskUnits="userSpaceOnUse" x="-139" y="-114" width="555" height="464">
<path d="M-138.631 -113.162H415.631V349.162H-138.631V-113.162Z" fill="white"/>
</mask>
<g mask="url(#mask14_573_3)">
<path d="M198.148 228.371H197.978L196.407 231.708L196.216 232.047H199.91L199.718 231.708L198.148 228.371ZM197.83 222.973H198.339L205.024 235.724H201.543L200.843 234.215H195.304L194.625 235.724H191.165L197.83 222.973Z" fill="white"/>
</g>
<mask id="mask15_573_3" style="mask-type:luminance" maskUnits="userSpaceOnUse" x="-139" y="-114" width="555" height="464">
<path d="M-138.631 -113.162H415.631V349.162H-138.631V-113.162Z" fill="white"/>
</mask>
<g mask="url(#mask15_573_3)">
<path d="M135.849 85.6846C133.315 85.5638 130.879 84.412 128.77 82.3224C125.046 78.6287 122.818 72.5054 122.821 65.9443C122.817 56.0869 127.725 47.8352 134.149 46.1821C132.493 49.6078 130.306 56.6709 134.766 64.9348C139.081 72.9235 140.905 79.5336 135.849 85.6846Z" fill="white"/>
</g>
<mask id="mask16_573_3" style="mask-type:luminance" maskUnits="userSpaceOnUse" x="-139" y="-114" width="555" height="464">
<path d="M-138.631 -113.162H415.631V349.162H-138.631V-113.162Z" fill="white"/>
</mask>
<g mask="url(#mask16_573_3)">
<path d="M151.352 65.5889C151.348 75.2073 146.677 83.3119 140.482 85.2261C144.028 79.5696 143.299 73.1059 138.248 63.7528C133.522 54.9908 137.205 47.8026 138.406 45.8589C140.907 45.9958 143.315 47.1443 145.399 49.2161C149.127 52.9045 151.35 59.0281 151.352 65.5889Z" fill="white"/>
</g>
<mask id="mask17_573_3" style="mask-type:luminance" maskUnits="userSpaceOnUse" x="-139" y="-114" width="555" height="464">
<path d="M-138.631 -113.162H415.631V349.162H-138.631V-113.162Z" fill="white"/>
</mask>
<g mask="url(#mask17_573_3)">
<path d="M182.034 79.4478C180.468 78.1511 179.37 75.6422 180.697 72.0542C181.888 68.8464 184.896 59.6621 185.648 56.6172C186.462 53.3551 186.903 50.2148 186.968 47.2401C189.382 50.935 189.951 54.8407 190.335 60.2734C190.336 60.28 190.338 60.2869 190.335 60.2908C190.291 61.2283 190.222 62.1391 190.15 63.0253C190.15 63.0542 190.143 63.0845 190.143 63.1138L190.141 63.1178C188.264 68.8856 185.607 74.235 182.034 79.4478Z" fill="#C24729"/>
</g>
<mask id="mask18_573_3" style="mask-type:luminance" maskUnits="userSpaceOnUse" x="-139" y="-114" width="555" height="464">
<path d="M-138.631 -113.162H415.631V349.162H-138.631V-113.162Z" fill="white"/>
</mask>
<g mask="url(#mask18_573_3)">
<path d="M192.528 61.9299C192.493 61.3549 192.455 60.7949 192.417 60.2528C192.369 61.263 192.297 62.2357 192.221 63.1884C192.211 63.3095 192.202 63.4306 192.188 63.5498C192.561 62.3829 192.537 62.057 192.528 61.9299ZM185.75 41.8066C186.143 42.1305 186.527 42.4712 186.917 42.828C186.57 42.0926 186.258 41.7667 185.75 41.8066Z" fill="#C24729"/>
</g>
<mask id="mask19_573_3" style="mask-type:luminance" maskUnits="userSpaceOnUse" x="-139" y="-114" width="555" height="464">
<path d="M-138.631 -113.162H415.631V349.162H-138.631V-113.162Z" fill="white"/>
</mask>
<g mask="url(#mask19_573_3)">
<path d="M187.736 92.7109C186.155 91.4288 185.035 88.9291 186.334 85.3302C187.486 82.128 190.414 72.924 191.149 69.8511C191.665 67.6973 192.011 65.5791 192.187 63.5494C192.201 63.4306 192.211 63.3095 192.22 63.1883C192.297 62.2357 192.369 61.2627 192.417 60.2527C192.504 58.3824 192.484 56.4017 192.15 54.2434C193.252 55.3639 194.326 57.4317 195.203 60.021C195.841 61.9124 196.373 64.0866 196.728 66.3731C196.873 68.308 196.871 70.3159 196.71 72.4065C196.699 72.5211 196.691 72.6491 196.677 72.7791C195.065 78.9202 192.635 84.7176 189.422 90.0611C188.882 90.9594 188.316 91.8426 187.736 92.7109Z" fill="#C24729"/>
</g>
<mask id="mask20_573_3" style="mask-type:luminance" maskUnits="userSpaceOnUse" x="-139" y="-114" width="555" height="464">
<path d="M-138.631 -113.162H415.631V349.162H-138.631V-113.162Z" fill="white"/>
</mask>
<g mask="url(#mask20_573_3)">
<path d="M199.034 71.7748C199.15 70.9963 199.227 69.9575 199.117 68.7596C199.04 67.9281 198.938 67.0815 198.804 66.2391C198.956 68.2698 198.946 70.3768 198.779 72.5625C198.765 72.739 198.747 72.9418 198.726 73.1597C198.796 72.9365 198.925 72.4539 199.034 71.7748Z" fill="#C24729"/>
</g>
<mask id="mask21_573_3" style="mask-type:luminance" maskUnits="userSpaceOnUse" x="-139" y="-114" width="555" height="464">
<path d="M-138.631 -113.162H415.631V349.162H-138.631V-113.162Z" fill="white"/>
</mask>
<g mask="url(#mask21_573_3)">
<path d="M196.38 89.1343C197.007 85.8468 198.369 76.859 198.726 73.1598C198.747 72.9419 198.765 72.7391 198.779 72.5623C198.946 70.3766 198.956 68.2699 198.804 66.2392C198.803 66.2323 198.805 66.228 198.803 66.2211C198.263 58.95 195.696 52.6516 191.03 47.1024C189.686 45.5013 188.304 44.0792 186.917 42.8281C186.527 42.4712 186.143 42.1305 185.75 41.8066C177.138 34.5431 168.655 33.28 167.54 33.1391L165.732 32.8863L166.438 34.5701C166.49 34.6942 171.645 47.0556 172.991 51.539C173.944 54.6997 172.534 57.4579 170.527 59.0599C167.285 53.6355 151.25 26.8236 150.424 25.4253C145.792 17.5755 146.883 7.6104 153.047 1.05029C167.932 4.63072 181.303 13.1646 190.743 25.13C195.06 30.5897 198.51 36.6939 201.005 43.2662C207.599 60.635 206.934 79.4065 199.156 96.2349C197.264 95.3254 195.628 93.0689 196.38 89.1343Z" fill="#C24729"/>
</g>
<mask id="mask22_573_3" style="mask-type:luminance" maskUnits="userSpaceOnUse" x="-139" y="-114" width="555" height="464">
<path d="M-138.631 -113.162H415.631V349.162H-138.631V-113.162Z" fill="white"/>
</mask>
<g mask="url(#mask22_573_3)">
<path d="M103.806 100.513C105.721 99.8303 108.435 100.173 110.831 103.153C112.972 105.821 119.305 113.116 121.53 115.324C123.91 117.696 126.377 119.684 128.895 121.265C124.489 121.446 120.848 119.933 115.993 117.478C115.986 117.476 115.979 117.474 115.977 117.47C115.196 116.951 114.451 116.424 113.727 115.909C113.703 115.894 113.68 115.872 113.655 115.857L113.653 115.853C109.669 111.283 106.444 106.256 103.806 100.513Z" fill="#005870"/>
</g>
<mask id="mask23_573_3" style="mask-type:luminance" maskUnits="userSpaceOnUse" x="-139" y="-114" width="555" height="464">
<path d="M-138.631 -113.162H415.631V349.162H-138.631V-113.162Z" fill="white"/>
</mask>
<g mask="url(#mask23_573_3)">
<path d="M113.448 118.513C113.959 118.778 114.459 119.033 114.943 119.278C114.101 118.72 113.304 118.159 112.526 117.605C112.427 117.535 112.328 117.464 112.233 117.391C113.042 118.31 113.334 118.457 113.448 118.513ZM134.179 123.003C133.699 123.175 133.21 123.33 132.704 123.483C133.513 123.561 133.952 123.46 134.179 123.003Z" fill="#005870"/>
</g>
<mask id="mask24_573_3" style="mask-type:luminance" maskUnits="userSpaceOnUse" x="-139" y="-114" width="555" height="464">
<path d="M-138.631 -113.162H415.631V349.162H-138.631V-113.162Z" fill="white"/>
</mask>
<g mask="url(#mask24_573_3)">
<path d="M89.5088 98.6152C91.4192 97.913 94.137 98.2314 96.5569 101.193C98.7122 103.825 105.104 111.061 107.362 113.268C108.944 114.816 110.583 116.199 112.233 117.391C112.328 117.464 112.427 117.534 112.526 117.605C113.304 118.159 114.101 118.719 114.942 119.278C116.502 120.312 118.211 121.31 120.232 122.129C118.707 122.502 116.383 122.366 113.713 121.792C111.764 121.371 109.627 120.714 107.484 119.847C105.75 118.981 104.029 117.949 102.32 116.739C102.227 116.67 102.121 116.598 102.018 116.519C97.5774 111.986 93.8519 106.924 90.9168 101.423C90.4234 100.498 89.9562 99.5589 89.5088 98.6152Z" fill="#005870"/>
</g>
<mask id="mask25_573_3" style="mask-type:luminance" maskUnits="userSpaceOnUse" x="-139" y="-114" width="555" height="464">
<path d="M-138.631 -113.162H415.631V349.162H-138.631V-113.162Z" fill="white"/>
</mask>
<g mask="url(#mask25_573_3)">
<path d="M101.671 119.06C102.279 119.559 103.13 120.158 104.214 120.677C104.966 121.037 105.745 121.384 106.535 121.701C104.716 120.79 102.915 119.701 101.126 118.437C100.982 118.335 100.817 118.215 100.642 118.085C100.796 118.26 101.144 118.618 101.671 119.06Z" fill="#005870"/>
</g>
<mask id="mask26_573_3" style="mask-type:luminance" maskUnits="userSpaceOnUse" x="-139" y="-114" width="555" height="464">
<path d="M-138.631 -113.162H415.631V349.162H-138.631V-113.162Z" fill="white"/>
</mask>
<g mask="url(#mask26_573_3)">
<path d="M88.1458 107.879C90.6433 110.104 97.652 115.883 100.642 118.085C100.818 118.215 100.982 118.335 101.126 118.437C102.915 119.701 104.717 120.79 106.536 121.701C106.542 121.703 106.545 121.707 106.551 121.709C113.063 124.972 119.78 125.994 126.931 124.827C128.993 124.493 130.921 124.034 132.705 123.483C133.211 123.33 133.699 123.175 134.179 123.003C144.822 119.323 150.254 112.678 150.946 111.792L152.09 110.367L150.284 110.11C150.151 110.091 136.909 108.186 132.374 107.045C129.175 106.244 127.533 103.618 127.188 101.071C133.502 101.064 164.713 101.024 166.335 101.031C175.441 101.073 183.427 107.119 185.893 115.782C175.192 126.743 161.019 133.863 145.919 135.845C139.025 136.757 132.021 136.594 125.107 135.369C106.832 132.135 91.0773 121.939 80.6338 106.626C82.3837 105.466 85.1571 105.216 88.1458 107.879Z" fill="#005870"/>
</g>
<mask id="mask27_573_3" style="mask-type:luminance" maskUnits="userSpaceOnUse" x="-139" y="-114" width="555" height="464">
<path d="M-138.631 -113.162H415.631V349.162H-138.631V-113.162Z" fill="white"/>
</mask>
<g mask="url(#mask27_573_3)">
<path d="M123.977 23.3457C123.676 25.3586 122.095 27.5943 118.341 28.3063C114.982 28.9393 105.572 31.0961 102.579 32.0207C99.3678 33.0053 96.4534 34.2466 93.875 35.7256C95.7913 31.7488 98.8395 29.2461 103.29 26.1154C103.295 26.1104 103.3 26.1055 103.305 26.1055C104.13 25.6601 104.945 25.2496 105.74 24.8543C105.765 24.8391 105.794 24.8296 105.819 24.8145H105.824C111.727 23.4494 117.674 22.9698 123.977 23.3457Z" fill="#CF7B24"/>
</g>
<mask id="mask28_573_3" style="mask-type:luminance" maskUnits="userSpaceOnUse" x="-139" y="-114" width="555" height="464">
<path d="M-138.631 -113.162H415.631V349.162H-138.631V-113.162Z" fill="white"/>
</mask>
<g mask="url(#mask28_573_3)">
<path d="M103.577 23.3802C103.103 23.7064 102.643 24.028 102.198 24.3397C103.087 23.8598 103.957 23.4197 104.811 22.9944C104.92 22.9401 105.029 22.8854 105.138 22.8361C103.947 23.1178 103.68 23.3061 103.577 23.3802ZM89.8542 39.5732C89.9284 39.0689 90.0221 38.5643 90.126 38.0452C89.6763 38.7227 89.5579 39.1578 89.8542 39.5732Z" fill="#CF7B24"/>
</g>
<mask id="mask29_573_3" style="mask-type:luminance" maskUnits="userSpaceOnUse" x="-139" y="-114" width="555" height="464">
<path d="M-138.631 -113.162H415.631V349.162H-138.631V-113.162Z" fill="white"/>
</mask>
<g mask="url(#mask29_573_3)">
<path d="M132.385 11.6137C132.103 13.6318 130.542 15.8821 126.793 16.624C123.459 17.287 114.073 19.5221 111.065 20.477C108.956 21.1446 106.965 21.9408 105.138 22.8362C105.029 22.8856 104.92 22.9399 104.812 22.9942C103.957 23.4198 103.087 23.8599 102.198 24.3399C100.554 25.2299 98.869 26.2685 97.1943 27.6685C97.5849 26.145 98.8 24.1568 100.563 22.0695C101.852 20.5461 103.438 18.9684 105.212 17.4848C106.792 16.362 108.511 15.3281 110.383 14.3883C110.487 14.3389 110.601 14.2796 110.719 14.225C116.805 12.4396 123.019 11.5343 129.248 11.5343C130.295 11.5343 131.343 11.5643 132.385 11.6137Z" fill="#CF7B24"/>
</g>
<mask id="mask30_573_3" style="mask-type:luminance" maskUnits="userSpaceOnUse" x="-139" y="-114" width="555" height="464">
<path d="M-138.631 -113.162H415.631V349.162H-138.631V-113.162Z" fill="white"/>
</mask>
<g mask="url(#mask30_573_3)">
<path d="M108.645 12.7212C107.919 13.023 106.99 13.4928 106.022 14.2051C105.35 14.6995 104.678 15.2239 104.026 15.7729C105.686 14.5958 107.494 13.5178 109.45 12.5332C109.608 12.4542 109.791 12.3653 109.988 12.2712C109.761 12.3255 109.282 12.4641 108.645 12.7212Z" fill="#CF7B24"/>
</g>
<mask id="mask31_573_3" style="mask-type:luminance" maskUnits="userSpaceOnUse" x="-139" y="-114" width="555" height="464">
<path d="M-138.631 -113.162H415.631V349.162H-138.631V-113.162Z" fill="white"/>
</mask>
<g mask="url(#mask31_573_3)">
<path d="M124.866 6.04421C121.729 7.20158 113.337 10.6688 109.988 12.2715C109.79 12.3653 109.607 12.4542 109.449 12.5335C107.493 13.5178 105.685 14.5958 104.026 15.7733C104.021 15.7779 104.015 15.7779 104.011 15.7831C98.0682 19.9969 94.0029 25.4477 91.6615 32.3126C90.9846 34.2909 90.481 36.21 90.1252 38.0448C90.0217 38.5643 89.9277 39.0686 89.8534 39.5732C88.0801 50.7068 91.3748 58.635 91.8292 59.664L92.5455 61.3454L93.6225 59.8717C93.7014 59.7631 101.62 48.9658 104.762 45.4987C106.974 43.0503 110.062 42.8376 112.467 43.733C109.499 49.3121 94.8277 76.8959 94.0571 78.3252C89.7301 86.3478 80.6411 90.552 71.8486 88.6477C67.2345 74.0321 67.6399 58.1603 73.0094 43.891C75.4543 37.3723 78.8974 31.2639 83.2343 25.7344C94.6946 11.1191 111.099 2.00854 129.51 0.00025177C129.707 2.09248 128.62 4.65938 124.866 6.04421Z" fill="#CF7B24"/>
</g>
</g>
<defs>
<clipPath id="clip0_573_3">
<rect width="277" height="236" fill="white"/>
</clipPath>
</defs>
</svg>
