<svg width="367" height="59" viewBox="0 0 367 59" fill="none" xmlns="http://www.w3.org/2000/svg">
<path d="M8.71763 28.3097C9.15067 28.3097 9.77542 28.2619 10.5941 28.1643C11.4116 28.0678 12.2293 27.8008 13.048 27.3646C13.8655 26.9284 14.5749 26.2741 15.1771 25.4017C15.7781 24.5293 16.0793 23.3424 16.0793 21.8394C16.0793 20.5798 15.7781 19.586 15.1771 18.8588C14.5749 18.1318 13.878 17.5866 13.0841 17.2231C12.2902 16.8598 11.4963 16.6301 10.7024 16.5324C9.90848 16.436 9.29501 16.3872 8.86198 16.3872H8.35677V28.3097H8.71763ZM0.634277 9.19003H3.88205H6.4081C7.22579 9.19003 7.80297 9.16607 8.14025 9.11733H8.71763C10.0641 9.11733 11.5685 9.27512 13.2284 9.58988C14.8884 9.90565 16.4401 10.535 17.8836 11.48C19.3268 12.4251 20.529 13.7699 21.4922 15.5148C22.4541 17.2594 22.9355 19.5383 22.9355 22.3485C22.9355 23.9479 22.7302 25.3653 22.322 26.6012C21.9128 27.8371 21.3715 28.9162 20.6983 29.8363C20.024 30.7577 19.2549 31.5208 18.3888 32.1264C17.5227 32.7329 16.6318 33.2532 15.7184 33.6894C13.6006 34.6594 11.1953 35.241 8.50111 35.4342V51.9366L0.634277 52.0095V9.19003Z" fill="#EF7F05"/>
<path d="M25.8223 42.0496V6.42727H43.0716V13.1883H33.9778V20.6036H43.4324V26.2014H33.9778V34.1256H44.8035V42.0496H25.8223Z" fill="#EF7F05"/>
<path d="M56.5672 29.1817C57.0476 29.1817 57.7693 29.1215 58.7324 28.9999C59.6942 28.8795 60.6685 28.5637 61.6554 28.0548C62.641 27.5459 63.5071 26.7712 64.2536 25.7285C64.9989 24.6869 65.3723 23.2693 65.3723 21.4756C65.3723 19.9741 65.0227 18.7983 64.3258 17.9497C63.6276 17.1025 62.8101 16.4595 61.8719 16.0233C60.9337 15.5872 59.9829 15.3087 59.0211 15.1871C58.058 15.0669 57.3125 15.0054 56.7837 15.0054H56.062V29.1817H56.5672ZM47.6899 58.988V6.49978C48.8921 6.45206 50.0468 6.42709 51.1542 6.42709H53.8607C54.7506 6.42709 55.3876 6.40332 55.7733 6.35439H56.1342C57.7693 6.35439 59.5985 6.52476 61.6193 6.86327C63.6401 7.20301 65.5402 7.91741 67.3209 9.0079C69.1003 10.0984 70.5923 11.6374 71.7957 13.6243C72.9976 15.6121 73.5998 18.277 73.5998 21.6212V22.1299C73.5514 24.8924 73.0337 27.1347 72.0483 28.8545C71.0614 30.5755 69.9663 31.9205 68.7642 32.8893C67.3683 34.0525 65.8053 34.9249 64.0732 35.5065L72.5174 52.227H62.8462L56.2785 38.269V58.988H47.6899Z" fill="#EF7F05"/>
<path d="M76.4863 51.5002V6.42729H99.2927V14.6423H84.9305V22.3482H95.1067V29.8362H84.9305V51.5002H76.4863Z" fill="#EF7F05"/>
<path d="M102.179 16.1686H110.262V42.2673H102.179V16.1686ZM102.179 6.42691H110.262V12.9698H102.179V6.42691Z" fill="#EF7F05"/>
<path d="M113.942 45.9026V6.42725H121.954V38.7781H134.295V45.9026H113.942Z" fill="#EF7F05"/>
<path d="M156.811 42.3404C157.34 42.2927 158.218 42.062 159.445 41.6498C160.672 41.2386 161.899 40.4866 163.126 39.3961C164.353 38.3056 165.436 36.8153 166.374 34.9251C167.312 33.035 167.781 30.5882 167.781 27.5826C167.781 24.5294 167.287 22.1553 166.302 20.4583C165.315 18.7622 164.184 17.514 162.909 16.7143C161.634 15.9146 160.395 15.4181 159.193 15.2239C157.989 15.0308 157.195 14.9331 156.811 14.9331H155.584V42.4131H156.811V42.3404ZM158.76 6.42736C161.02 6.52503 163.234 6.9726 165.399 7.77229C167.564 8.57198 169.501 9.82024 171.209 11.5163C172.916 13.2133 174.3 15.3693 175.359 17.9865C176.417 20.6035 176.947 23.7297 176.947 27.3645C176.947 31.5333 176.225 35.0955 174.782 38.0512C173.338 41.0079 171.558 43.4433 169.441 45.3575C167.323 47.2714 165.039 48.7016 162.585 49.6467C160.131 50.5918 157.869 51.1118 155.8 51.2097H150.243C148.991 51.2097 147.717 51.1847 146.418 51.1368V6.42736C147.861 6.37963 149.305 6.35466 150.748 6.35466H154.754C156.173 6.35466 157.508 6.37963 158.76 6.42736Z" fill="#EF7F05"/>
<path d="M179.834 42.0496V6.42727H197.083V13.1883H187.99V20.6036H197.444V26.2014H187.99V34.1256H198.815V42.0496H179.834Z" fill="#EF7F05"/>
<path d="M220.034 29.1817C220.514 29.1817 221.236 29.1215 222.199 28.9999C223.161 28.8795 224.135 28.5637 225.122 28.0548C226.107 27.5459 226.973 26.7712 227.72 25.7285C228.465 24.6869 228.839 23.2693 228.839 21.4756C228.839 19.9741 228.489 18.7983 227.792 17.9497C227.094 17.1025 226.276 16.4595 225.338 16.0233C224.4 15.5872 223.449 15.3087 222.487 15.1871C221.524 15.0669 220.779 15.0054 220.25 15.0054H219.528V29.1817H220.034ZM211.156 58.988V6.49978C212.358 6.45206 213.513 6.42709 214.621 6.42709H217.327C218.217 6.42709 218.854 6.40332 219.24 6.35439H219.6C221.236 6.35439 223.065 6.52476 225.086 6.86327C227.106 7.20301 229.007 7.91741 230.787 9.0079C232.567 10.0984 234.059 11.6374 235.262 13.6243C236.464 15.6121 237.066 18.277 237.066 21.6212V22.1299C237.018 24.8924 236.5 27.1347 235.515 28.8545C234.528 30.5755 233.433 31.9205 232.231 32.8893C230.835 34.0525 229.272 34.9249 227.539 35.5065L235.984 52.227H226.313L219.745 38.269V58.988H211.156Z" fill="#EF7F05"/>
<path d="M239.952 42.0496V6.42727H257.201V13.1883H248.108V20.6036H257.562V26.2014H248.108V34.1256H258.933V42.0496H239.952Z" fill="#EF7F05"/>
<path d="M275.532 50.1189C271.442 50.1189 268.098 48.7614 265.5 46.0478C263.912 44.4484 262.902 42.6561 262.469 40.668C262.036 38.6327 261.819 36.0642 261.819 32.9621V29.4726C261.819 28.6979 261.831 27.7039 261.856 26.4919C261.879 25.281 261.915 24.0451 261.964 22.7843C262.011 21.5244 262.072 20.3489 262.144 19.2584C262.216 18.1679 262.325 17.3568 262.469 16.823C262.709 15.8052 263.07 14.667 263.551 13.4061C264.032 12.1465 264.681 11.1047 265.5 10.2801C266.751 9.02042 268.218 8.00264 269.903 7.22671C271.442 6.5976 273.319 6.28162 275.532 6.28162C279.863 6.28162 283.134 7.42104 285.348 9.69847C286.309 10.7163 287.067 11.759 287.621 12.8245C288.174 13.8913 288.583 14.8964 288.848 15.8415C289.112 16.7866 289.281 17.6352 289.353 18.386C289.425 19.138 289.462 19.7072 289.462 20.0944V20.6033H280.656V20.0944C280.656 19.8526 280.644 19.5254 280.62 19.113C280.596 18.7018 280.523 18.2532 280.404 17.7681C280.283 17.2841 280.103 16.8116 279.863 16.3504C279.621 15.8905 279.309 15.4906 278.924 15.1509C278.154 14.5216 277.023 14.2058 275.532 14.2058C274.04 14.2058 272.862 14.7397 271.996 15.8052C271.754 16.1449 271.514 16.6049 271.274 17.1865C271.13 17.6716 270.985 18.52 270.841 19.7309C270.841 20.0217 270.828 20.6646 270.805 21.6574C270.78 22.6513 270.756 23.7294 270.733 24.8926C270.708 26.0557 270.697 27.1826 270.697 28.2731V30.7085C270.697 31.775 270.708 32.8892 270.733 34.0524C270.756 35.2156 270.793 36.088 270.841 36.6698C270.985 37.8817 271.13 38.7301 271.274 39.2141C271.514 39.8935 271.754 40.3772 271.996 40.668C272.765 41.6858 273.944 42.1947 275.532 42.1947C277.167 42.1947 278.466 41.7108 279.429 40.7407C280.103 40.0137 280.5 39.2029 280.62 38.3053C280.74 37.4092 280.801 36.1859 280.801 34.6342V32.0898H275.532V24.6745H289.606V32.3079C289.606 34.0047 289.593 35.3372 289.57 36.3061C289.545 37.2762 289.497 38.0509 289.425 38.6327C289.353 39.2141 289.269 39.6752 289.173 40.0137C289.076 40.3535 288.956 40.7657 288.812 41.2496C288.235 43.0921 287.271 44.6915 285.925 46.0478C284.962 47.0655 283.928 47.8652 282.822 48.4468C282.292 48.7853 281.739 49.0524 281.162 49.2465C280.584 49.4396 279.982 49.61 279.357 49.7554C278.78 49.8521 278.166 49.9371 277.517 50.0098C276.867 50.0825 276.205 50.1189 275.532 50.1189Z" fill="#EF7F05"/>
<path d="M292.492 16.1686H300.576V42.2673H292.492V16.1686ZM292.492 6.42691H300.576V12.9698H292.492V6.42691Z" fill="#EF7F05"/>
<path d="M319.628 36.8154C320.639 36.8154 321.577 36.5133 322.443 35.9067C323.309 35.3011 324.067 34.489 324.716 33.4713C325.366 32.4535 325.883 31.2539 326.268 29.8729C326.653 28.4914 326.846 27.026 326.846 25.4744C326.846 23.9239 326.653 22.4212 326.268 20.9672C325.883 19.5133 325.366 18.241 324.716 17.1505C324.067 16.0601 323.309 15.1877 322.443 14.5334C321.577 13.8791 320.639 13.5519 319.628 13.5519C318.618 13.5519 317.667 13.8791 316.777 14.5334C315.887 15.1877 315.093 16.0601 314.396 17.1505C313.698 18.241 313.157 19.5133 312.772 20.9672C312.386 22.4212 312.194 23.9239 312.194 25.4744C312.194 27.026 312.386 28.4914 312.772 29.8729C313.157 31.2539 313.698 32.4535 314.396 33.4713C315.093 34.489 315.887 35.3011 316.777 35.9067C317.667 36.5133 318.618 36.8154 319.628 36.8154ZM319.556 6.28205C321.673 6.28205 323.67 6.80333 325.546 7.84508C327.423 8.88784 329.058 10.2805 330.454 12.0253C331.849 13.77 332.944 15.8056 333.738 18.132C334.532 20.4584 334.929 22.8824 334.929 25.4017C334.929 27.9711 334.532 30.3941 333.738 32.6716C332.944 34.9502 331.849 36.9494 330.454 38.6692C329.058 40.3903 327.423 41.7476 325.546 42.7404C323.67 43.7342 321.673 44.2307 319.556 44.2307C317.391 44.2307 315.37 43.7342 313.494 42.7404C311.617 41.7476 309.981 40.3903 308.586 38.6692C307.19 36.9494 306.096 34.9502 305.302 32.6716C304.508 30.3941 304.111 27.9711 304.111 25.4017C304.111 22.8824 304.508 20.4584 305.302 18.132C306.096 15.8056 307.19 13.77 308.586 12.0253C309.981 10.2805 311.617 8.88784 313.494 7.84508C315.37 6.80333 317.391 6.28205 319.556 6.28205Z" fill="#EF7F05"/>
<path d="M357.085 44.2304L345.61 23.0752V47.0657H337.599V6.42715H346.332L358.023 30.0543V6.20926H366.035V36.3064V44.2304H357.085Z" fill="#EF7F05"/>
<path d="M319.332 -6.34193e-05L316.111 5.00073H323.76L326.846 -6.34193e-05H319.332Z" fill="#EF7F05"/>
</svg>
