<svg width="367" height="59" viewBox="0 0 367 59" fill="none" xmlns="http://www.w3.org/2000/svg">
<path d="M8.71763 28.3099C9.15067 28.3099 9.77542 28.2622 10.5941 28.1645C11.4116 28.068 12.2293 27.801 13.048 27.3648C13.8655 26.9286 14.5749 26.2743 15.1771 25.4019C15.7781 24.5296 16.0793 23.3426 16.0793 21.8397C16.0793 20.58 15.7781 19.5862 15.1771 18.859C14.5749 18.132 13.878 17.5868 13.0841 17.2233C12.2902 16.86 11.4963 16.6303 10.7024 16.5327C9.90848 16.4362 9.29501 16.3875 8.86198 16.3875H8.35677V28.3099H8.71763ZM0.634277 9.19028H3.88205H6.4081C7.22579 9.19028 7.80297 9.16631 8.14025 9.11758H8.71763C10.0641 9.11758 11.5685 9.27536 13.2284 9.59012C14.8884 9.9059 16.4401 10.5352 17.8836 11.4803C19.3268 12.4254 20.529 13.7701 21.4922 15.5151C22.4541 17.2597 22.9355 19.5385 22.9355 22.3488C22.9355 23.9482 22.7302 25.3656 22.322 26.6015C21.9128 27.8374 21.3715 28.9165 20.6983 29.8366C20.024 30.7579 19.2549 31.521 18.3888 32.1266C17.5227 32.7332 16.6318 33.2534 15.7184 33.6896C13.6006 34.6597 11.1953 35.2413 8.50111 35.4344V51.9369L0.634277 52.0098V9.19028Z" fill="#046C7F"/>
<path d="M25.8223 42.0498V6.42751H43.0716V13.1885H33.9778V20.6038H43.4324V26.2016H33.9778V34.1258H44.8035V42.0498H25.8223Z" fill="#046C7F"/>
<path d="M56.5672 29.1819C57.0476 29.1819 57.7693 29.1218 58.7324 29.0002C59.6942 28.8797 60.6685 28.564 61.6554 28.0551C62.641 27.5462 63.5071 26.7715 64.2536 25.7287C64.9989 24.6872 65.3723 23.2695 65.3723 21.4758C65.3723 19.9743 65.0227 18.7985 64.3258 17.9499C63.6276 17.1027 62.8101 16.4598 61.8719 16.0236C60.9337 15.5874 59.9829 15.309 59.0211 15.1874C58.058 15.0671 57.3125 15.0056 56.7837 15.0056H56.062V29.1819H56.5672ZM47.6899 58.9883V6.50003C48.8921 6.4523 50.0468 6.42733 51.1542 6.42733H53.8607C54.7506 6.42733 55.3876 6.40357 55.7733 6.35463H56.1342C57.7693 6.35463 59.5985 6.525 61.6193 6.86352C63.6401 7.20325 65.5402 7.91766 67.3209 9.00814C69.1003 10.0986 70.5923 11.6377 71.7957 13.6245C72.9976 15.6124 73.5998 18.2773 73.5998 21.6214V22.1301C73.5514 24.8927 73.0337 27.135 72.0483 28.8548C71.0614 30.5758 69.9663 31.9207 68.7642 32.8895C67.3683 34.0527 65.8053 34.9251 64.0732 35.5067L72.5174 52.2273H62.8462L56.2785 38.2693V58.9883H47.6899Z" fill="#046C7F"/>
<path d="M76.4863 51.5V6.42704H99.2927V14.642H84.9305V22.3479H95.1067V29.8359H84.9305V51.5H76.4863Z" fill="#046C7F"/>
<path d="M102.179 16.1688H110.262V42.2676H102.179V16.1688ZM102.179 6.42715H110.262V12.9701H102.179V6.42715Z" fill="#046C7F"/>
<path d="M113.942 45.9023V6.427H121.954V38.7778H134.295V45.9023H113.942Z" fill="#046C7F"/>
<path d="M156.811 42.3407C157.34 42.293 158.218 42.0623 159.445 41.65C160.672 41.2388 161.899 40.4869 163.126 39.3964C164.353 38.3059 165.436 36.8156 166.374 34.9254C167.312 33.0352 167.781 30.5884 167.781 27.5828C167.781 24.5296 167.287 22.1556 166.302 20.4585C165.315 18.7625 164.184 17.5142 162.909 16.7145C161.634 15.9148 160.395 15.4183 159.193 15.2242C157.989 15.0311 157.195 14.9334 156.811 14.9334H155.584V42.4134H156.811V42.3407ZM158.76 6.4276C161.02 6.52528 163.234 6.97284 165.399 7.77253C167.564 8.57222 169.501 9.82049 171.209 11.5165C172.916 13.2136 174.3 15.3696 175.359 17.9867C176.417 20.6037 176.947 23.73 176.947 27.3647C176.947 31.5335 176.225 35.0958 174.782 38.0514C173.338 41.0081 171.558 43.4436 169.441 45.3577C167.323 47.2716 165.039 48.7018 162.585 49.6469C160.131 50.592 157.869 51.1121 155.8 51.21H150.243C148.991 51.21 147.717 51.185 146.418 51.1371V6.4276C147.861 6.37988 149.305 6.3549 150.748 6.3549H154.754C156.173 6.3549 157.508 6.37988 158.76 6.4276Z" fill="#046C7F"/>
<path d="M179.834 42.0498V6.42751H197.083V13.1885H187.99V20.6038H197.444V26.2016H187.99V34.1258H198.815V42.0498H179.834Z" fill="#046C7F"/>
<path d="M220.034 29.1819C220.514 29.1819 221.236 29.1218 222.199 29.0002C223.161 28.8797 224.135 28.564 225.122 28.0551C226.107 27.5462 226.973 26.7715 227.72 25.7287C228.465 24.6872 228.839 23.2695 228.839 21.4758C228.839 19.9743 228.489 18.7985 227.792 17.9499C227.094 17.1027 226.276 16.4598 225.338 16.0236C224.4 15.5874 223.449 15.309 222.487 15.1874C221.524 15.0671 220.779 15.0056 220.25 15.0056H219.528V29.1819H220.034ZM211.156 58.9883V6.50003C212.358 6.4523 213.513 6.42733 214.621 6.42733H217.327C218.217 6.42733 218.854 6.40357 219.24 6.35463H219.6C221.236 6.35463 223.065 6.525 225.086 6.86352C227.106 7.20325 229.007 7.91766 230.787 9.00814C232.567 10.0986 234.059 11.6377 235.262 13.6245C236.464 15.6124 237.066 18.2773 237.066 21.6214V22.1301C237.018 24.8927 236.5 27.135 235.515 28.8548C234.528 30.5758 233.433 31.9207 232.231 32.8895C230.835 34.0527 229.272 34.9251 227.539 35.5067L235.984 52.2273H226.313L219.745 38.2693V58.9883H211.156Z" fill="#046C7F"/>
<path d="M239.952 42.0498V6.42751H257.201V13.1885H248.108V20.6038H257.562V26.2016H248.108V34.1258H258.933V42.0498H239.952Z" fill="#046C7F"/>
<path d="M275.532 50.1191C271.442 50.1191 268.098 48.7616 265.5 46.048C263.912 44.4486 262.902 42.6563 262.469 40.6683C262.036 38.6329 261.819 36.0645 261.819 32.9624V29.4728C261.819 28.6981 261.831 27.7041 261.856 26.4922C261.879 25.2813 261.915 24.0454 261.964 22.7845C262.011 21.5247 262.072 20.3491 262.144 19.2586C262.216 18.1681 262.325 17.3571 262.469 16.8232C262.709 15.8054 263.07 14.6672 263.551 13.4064C264.032 12.1467 264.681 11.105 265.5 10.2803C266.751 9.02066 268.218 8.00288 269.903 7.22695C271.442 6.59784 273.319 6.28186 275.532 6.28186C279.863 6.28186 283.134 7.42129 285.348 9.69872C286.309 10.7165 287.067 11.7593 287.621 12.8248C288.174 13.8915 288.583 14.8967 288.848 15.8418C289.112 16.7869 289.281 17.6355 289.353 18.3862C289.425 19.1382 289.462 19.7074 289.462 20.0947V20.6036H280.656V20.0947C280.656 19.8528 280.644 19.5257 280.62 19.1132C280.596 18.702 280.523 18.2534 280.404 17.7683C280.283 17.2844 280.103 16.8118 279.863 16.3507C279.621 15.8907 279.309 15.4909 278.924 15.1511C278.154 14.5218 277.023 14.2061 275.532 14.2061C274.04 14.2061 272.862 14.7399 271.996 15.8054C271.754 16.1452 271.514 16.6051 271.274 17.1867C271.13 17.6718 270.985 18.5203 270.841 19.7312C270.841 20.022 270.828 20.6649 270.805 21.6577C270.78 22.6515 270.756 23.7296 270.733 24.8928C270.708 26.056 270.697 27.1828 270.697 28.2733V30.7087C270.697 31.7752 270.708 32.8895 270.733 34.0527C270.756 35.2159 270.793 36.0882 270.841 36.67C270.985 37.882 271.13 38.7304 271.274 39.2143C271.514 39.8938 271.754 40.3775 271.996 40.6683C272.765 41.6861 273.944 42.195 275.532 42.195C277.167 42.195 278.466 41.711 279.429 40.741C280.103 40.014 280.5 39.2031 280.62 38.3056C280.74 37.4094 280.801 36.1861 280.801 34.6345V32.09H275.532V24.6747H289.606V32.3081C289.606 34.0049 289.593 35.3375 289.57 36.3063C289.545 37.2764 289.497 38.0511 289.425 38.6329C289.353 39.2143 289.269 39.6755 289.173 40.014C289.076 40.3537 288.956 40.766 288.812 41.2499C288.235 43.0923 287.271 44.6917 285.925 46.048C284.962 47.0658 283.928 47.8655 282.822 48.4471C282.292 48.7856 281.739 49.0526 281.162 49.2468C280.584 49.4399 279.982 49.6102 279.357 49.7556C278.78 49.8523 278.166 49.9374 277.517 50.0101C276.867 50.0828 276.205 50.1191 275.532 50.1191Z" fill="#046C7F"/>
<path d="M292.492 16.1688H300.576V42.2676H292.492V16.1688ZM292.492 6.42715H300.576V12.9701H292.492V6.42715Z" fill="#046C7F"/>
<path d="M319.628 36.8152C320.639 36.8152 321.577 36.513 322.443 35.9064C323.309 35.3009 324.067 34.4888 324.716 33.471C325.366 32.4532 325.883 31.2537 326.268 29.8726C326.653 28.4911 326.846 27.0258 326.846 25.4741C326.846 23.9237 326.653 22.421 326.268 20.967C325.883 19.513 325.366 18.2408 324.716 17.1503C324.067 16.0598 323.309 15.1874 322.443 14.5331C321.577 13.8788 320.639 13.5517 319.628 13.5517C318.618 13.5517 317.667 13.8788 316.777 14.5331C315.887 15.1874 315.093 16.0598 314.396 17.1503C313.698 18.2408 313.157 19.513 312.772 20.967C312.386 22.421 312.194 23.9237 312.194 25.4741C312.194 27.0258 312.386 28.4911 312.772 29.8726C313.157 31.2537 313.698 32.4532 314.396 33.471C315.093 34.4888 315.887 35.3009 316.777 35.9064C317.667 36.513 318.618 36.8152 319.628 36.8152ZM319.556 6.28181C321.673 6.28181 323.67 6.80309 325.546 7.84483C327.423 8.8876 329.058 10.2803 330.454 12.025C331.849 13.7698 332.944 15.8054 333.738 18.1317C334.532 20.4581 334.929 22.8822 334.929 25.4014C334.929 27.9709 334.532 30.3939 333.738 32.6713C332.944 34.95 331.849 36.9492 330.454 38.669C329.058 40.39 327.423 41.7473 325.546 42.7401C323.67 43.734 321.673 44.2305 319.556 44.2305C317.391 44.2305 315.37 43.734 313.494 42.7401C311.617 41.7473 309.981 40.39 308.586 38.669C307.19 36.9492 306.096 34.95 305.302 32.6713C304.508 30.3939 304.111 27.9709 304.111 25.4014C304.111 22.8822 304.508 20.4581 305.302 18.1317C306.096 15.8054 307.19 13.7698 308.586 12.025C309.981 10.2803 311.617 8.8876 313.494 7.84483C315.37 6.80309 317.391 6.28181 319.556 6.28181Z" fill="#046C7F"/>
<path d="M357.085 44.2302L345.61 23.075V47.0654H337.599V6.42691H346.332L358.023 30.0541V6.20901H366.035V36.3062V44.2302H357.085Z" fill="#046C7F"/>
<path d="M319.332 0.000180721L316.111 5.00098H323.76L326.846 0.000180721H319.332Z" fill="#046C7F"/>
</svg>
